<svg width="41" height="26" viewBox="0 0 41 26" fill="none" xmlns="http://www.w3.org/2000/svg">
<g clip-path="url(#clip0)">
<path d="M37.1783 1H3.03822C1.91254 1 1 1.91254 1 3.03822V22.9618C1 24.0875 1.91254 25 3.03822 25H37.1783C38.304 25 39.2166 24.0875 39.2166 22.9618V3.03822C39.2166 1.91254 38.304 1 37.1783 1Z" fill="white"/>
<path d="M7.9668 7.59922C7.9668 6.27374 9.04131 5.19922 10.3668 5.19922H30.0811C31.4066 5.19922 32.4811 6.27374 32.4811 7.59922V18.3992C32.4811 19.7247 31.4066 20.7992 30.0811 20.7992H10.3668C9.04131 20.7992 7.9668 19.7247 7.9668 18.3992V7.59922Z" fill="white"/>
<path fill-rule="evenodd" clip-rule="evenodd" d="M30.0811 6.39922H10.3668C9.70405 6.39922 9.1668 6.93648 9.1668 7.59922V18.3992C9.1668 19.062 9.70405 19.5992 10.3668 19.5992H30.0811C30.7438 19.5992 31.2811 19.062 31.2811 18.3992V7.59922C31.2811 6.93648 30.7438 6.39922 30.0811 6.39922ZM10.3668 5.19922C9.04131 5.19922 7.9668 6.27374 7.9668 7.59922V18.3992C7.9668 19.7247 9.04131 20.7992 10.3668 20.7992H30.0811C31.4066 20.7992 32.4811 19.7247 32.4811 18.3992V7.59922C32.4811 6.27374 31.4066 5.19922 30.0811 5.19922H10.3668Z" fill="#0F3365"/>
<path d="M20.2246 5.19922H28.4818C30.6909 5.19922 32.4818 6.99008 32.4818 9.19922V16.7992C32.4818 19.0084 30.6909 20.7992 28.4818 20.7992H20.2246V5.19922Z" fill="#0F3365"/>
<path fill-rule="evenodd" clip-rule="evenodd" d="M21.8945 17.8635H24.4476V14.3138H24.4761C24.9586 15.0916 25.9234 15.3797 26.817 15.3797C29.0158 15.3797 30.1931 13.774 30.1931 11.8419C30.1931 10.2617 29.0733 8.54297 27.0302 8.54297C25.8669 8.54297 24.7884 8.95694 24.2779 9.87273H24.2494V8.69343H21.8945V17.8635ZM27.5548 11.8924C27.5548 12.9339 26.973 13.6485 26.009 13.6485C25.1574 13.6485 24.4474 12.9339 24.4474 11.98C24.4474 11.0018 25.0722 10.2741 26.009 10.2741C27.0015 10.2741 27.5548 11.0264 27.5548 11.8924Z" fill="#FFFFFE"/>
<path fill-rule="evenodd" clip-rule="evenodd" d="M18.5486 8.69343H16.2358V9.87231H16.208C15.6687 9.06979 14.789 8.54297 13.6969 8.54297C11.3991 8.54297 10.3633 9.99776 10.3633 11.9424C10.3633 13.8751 11.6258 15.2288 13.6546 15.2288C14.6759 15.2288 15.527 14.8785 16.1365 14.1123H16.1652V14.4643C16.1652 15.7438 15.3712 16.3583 13.8957 16.3583C12.8316 16.3583 12.1791 16.1578 11.3991 15.8191L11.2711 17.6006C11.8671 17.7881 12.8744 18.0144 14.0942 18.0144C17.0733 18.0144 18.5486 17.1484 18.5486 14.4643V8.69343ZM13.0018 11.9046C13.0018 11.0142 13.4983 10.2741 14.4488 10.2741C15.5976 10.2741 16.0802 11.0888 16.0802 11.8167C16.0802 12.8208 15.3564 13.4981 14.4488 13.4981C13.6828 13.4981 13.0018 12.9204 13.0018 11.9046Z" fill="#D8232A"/>
</g>
<path d="M3 2H37.2166V0H3V2ZM38.2166 3V23H40.2166V3H38.2166ZM37.2166 24H3V26H37.2166V24ZM2 23V3H0V23H2ZM3 24C2.44772 24 2 23.5523 2 23H0C0 24.6569 1.34315 26 3 26V24ZM38.2166 23C38.2166 23.5523 37.7688 24 37.2166 24V26C38.8734 26 40.2166 24.6569 40.2166 23H38.2166ZM37.2166 2C37.7688 2 38.2166 2.44772 38.2166 3H40.2166C40.2166 1.34315 38.8734 0 37.2166 0V2ZM3 0C1.34315 0 0 1.34314 0 3H2C2 2.44772 2.44772 2 3 2V0Z" fill="#DDDDDD"/>
<defs>
<clipPath id="clip0">
<path d="M1 3C1 1.89543 1.89543 1 3 1H37.2166C38.3211 1 39.2166 1.89543 39.2166 3V23C39.2166 24.1046 38.3211 25 37.2166 25H3C1.89543 25 1 24.1046 1 23V3Z" fill="white"/>
</clipPath>
</defs>
</svg>
