<svg width="41" height="26" viewBox="0 0 41 26" fill="none" xmlns="http://www.w3.org/2000/svg">
<g clip-path="url(#clip0)">
<path fill-rule="evenodd" clip-rule="evenodd" d="M3.69476 1C2.98006 1 2.29464 1.27759 1.78928 1.77169C1.28391 2.2658 1 2.93596 1 3.63473L1 22.3653C1 23.064 1.28391 23.7342 1.78928 24.2283C2.29464 24.7224 2.98006 25 3.69476 25H36.5218C37.2365 25 37.9219 24.7224 38.4273 24.2283C38.9326 23.7342 39.2166 23.064 39.2166 22.3653V3.63473C39.2166 2.93596 38.9326 2.2658 38.4273 1.77169C37.9219 1.27759 37.2365 1 36.5218 1H3.69476Z" fill="#10298E"/>
<path d="M20.2946 11.3953V11.3816L20.6961 10.5325C20.0402 9.83567 19.1111 9.39844 18.0785 9.39844C16.5743 9.39844 15.286 10.323 14.7486 11.6347H13.9912L13.4492 12.7057H14.4935C14.4863 12.8026 14.4792 12.8996 14.4792 12.9984C14.4792 13.1058 14.4857 13.2112 14.4948 13.316H13.9912L13.5169 14.3733H14.7525C15.2931 15.6791 16.5775 16.5978 18.0785 16.5978C18.9153 16.5978 19.6843 16.3089 20.2953 15.83V14.4702C19.8294 15.0831 19.1 15.4846 18.2711 15.4846C17.3973 15.4846 16.6263 15.0434 16.167 14.3733H18.8437L19.3453 13.316H15.7577C15.7382 13.1904 15.7187 13.0642 15.7187 12.9327C15.7187 12.8822 15.7252 12.8339 15.7318 12.7854C15.7353 12.759 15.7389 12.7325 15.7414 12.7057H19.616L20.1586 11.6347H16.085C16.5294 10.8871 17.3368 10.3809 18.2705 10.3809C19.0994 10.3809 19.8281 10.783 20.2946 11.3953Z" fill="#FFBE00"/>
<path fill-rule="evenodd" clip-rule="evenodd" d="M31.2105 15.3225L31.5697 16.564H33.5619L31.366 9.39844H28.4245L26.2695 16.564H28.2488L28.6112 15.3225H31.2105ZM30.7947 13.8859H29.0302L29.9157 10.8494L30.7947 13.8859Z" fill="white"/>
<path fill-rule="evenodd" clip-rule="evenodd" d="M22.896 14.6861H24.3326C24.3326 14.6861 25.4985 14.7934 26.0945 14.4954C26.6905 14.1974 26.8668 13.6951 26.9482 13.3971C27.0256 13.1157 27.0658 12.1816 27.0701 12.0818L27.0705 12.0737C27.0868 11.7361 27.0789 10.9527 26.7185 10.2526C26.3418 9.52127 25.1387 9.41391 24.6579 9.40024L24.6299 9.39959C24.5206 9.39699 24.4543 9.39959 24.4543 9.39959H20.9844V16.5645H22.896V14.6861ZM24.2786 10.9169H22.8959V13.0588H24.168C24.3456 13.0575 24.9533 13.0282 25.0105 12.6932C25.0737 12.3256 25.0704 11.9163 25.0697 11.8642C25.06 11.7211 25.0411 11.5227 24.9975 11.3105C24.9155 10.9169 24.2786 10.9169 24.2786 10.9169Z" fill="white"/>
<path d="M11.5339 16.5202C11.5339 16.5202 12.7558 16.4603 13.0948 15.539C13.4338 14.617 13.1904 13.3958 13.1904 13.3958C13.1904 13.3958 13.0616 12.5734 11.8768 12.343C11.8756 12.3424 11.8755 12.3409 11.8754 12.3395C11.8753 12.3378 11.8753 12.3362 11.8735 12.3359C11.8104 12.3209 11.6439 12.3027 11.4292 12.2838H11.4272C10.9626 12.2435 10.2769 12.2012 9.89559 12.1784C9.88807 12.1759 9.88221 12.1733 9.87634 12.1706C9.87002 12.1677 9.86368 12.1649 9.85525 12.1622C9.12328 12.1752 9.10961 11.8505 9.10961 11.8095C9.10961 11.8031 9.10598 11.7878 9.10068 11.7655C9.072 11.6447 8.99444 11.318 9.17728 11.0775C9.38614 10.803 10.2216 10.8381 10.2814 10.8407C10.461 10.8485 10.7089 10.8628 10.8312 10.8875C11.0342 10.9285 11.2535 11.0554 11.2242 11.6605H13.0271V11.1049C13.0271 11.1049 13.0681 10.1426 12.3902 9.76323C11.8417 9.45613 11.247 9.41579 11.0375 9.41123L11.0349 9.41058C11.0349 9.41058 9.95024 9.38326 9.43493 9.41058C9.14215 9.42685 8.75306 9.46784 8.38805 9.57064C8.14731 9.62464 7.91048 9.71964 7.71529 9.89011C7.71021 9.89451 7.70619 9.89979 7.70213 9.90512C7.69838 9.91004 7.69459 9.91502 7.68991 9.91939C7.68571 9.92299 7.68067 9.92576 7.67564 9.92853C7.66976 9.93177 7.66388 9.935 7.65933 9.93956C7.64632 9.95175 7.64042 9.9637 7.63449 9.97571C7.63094 9.98291 7.62737 9.99014 7.62224 9.99746C7.03341 10.6507 7.14272 11.9188 7.36134 12.6775C7.53506 13.2826 8.24166 13.4901 8.57674 13.5565L8.57901 13.5578L8.58129 13.5591C8.60471 13.563 8.64571 13.5695 8.68604 13.5747C8.69336 13.5757 8.69881 13.5767 8.70377 13.5776C8.70851 13.5785 8.71285 13.5793 8.71793 13.5799C8.72246 13.5806 8.727 13.581 8.73154 13.5815C8.73609 13.582 8.7407 13.5825 8.74525 13.5832C8.74721 13.5832 8.75631 13.5845 8.75631 13.5845C9.21111 13.6391 10.2678 13.7139 10.7362 13.7452L10.7369 13.7497C10.7369 13.7497 10.7473 13.7484 10.7622 13.7471C10.856 13.7533 10.9208 13.7579 10.9486 13.7598L10.9626 13.7608C11.1403 13.7933 11.3589 13.8968 11.3602 14.224L11.3604 14.2613C11.3622 14.6376 11.3627 14.7342 11.3192 14.796C11.2919 14.8116 11.2678 14.833 11.2515 14.861C11.1676 15.0035 10.8631 15.0419 10.6412 15.0517H9.46226C8.96062 14.9833 8.97428 14.4414 8.97428 14.4414V14.224H7.18501V14.4954C7.18501 14.4954 7.13036 15.6476 7.69967 16.068C8.19221 16.431 8.71858 16.526 9.46226 16.5462V16.5559H10.2619C10.2619 16.5559 10.9613 16.5878 11.5339 16.5189V16.5202Z" fill="white"/>
</g>
<path d="M3 2H37.2166V0H3V2ZM38.2166 3V23H40.2166V3H38.2166ZM37.2166 24H3V26H37.2166V24ZM2 23V3H0V23H2ZM3 24C2.44772 24 2 23.5523 2 23H0C0 24.6569 1.34315 26 3 26V24ZM38.2166 23C38.2166 23.5523 37.7688 24 37.2166 24V26C38.8734 26 40.2166 24.6569 40.2166 23H38.2166ZM37.2166 2C37.7688 2 38.2166 2.44772 38.2166 3H40.2166C40.2166 1.34315 38.8734 0 37.2166 0V2ZM3 0C1.34315 0 0 1.34314 0 3H2C2 2.44772 2.44772 2 3 2V0Z" fill="#DDDDDD"/>
<defs>
<clipPath id="clip0">
<path d="M1 3C1 1.89543 1.89543 1 3 1H37.2166C38.3211 1 39.2166 1.89543 39.2166 3V23C39.2166 24.1046 38.3211 25 37.2166 25H3C1.89543 25 1 24.1046 1 23V3Z" fill="white"/>
</clipPath>
</defs>
</svg>
