<svg width="41" height="26" viewBox="0 0 41 26" fill="none" xmlns="http://www.w3.org/2000/svg">
<g clip-path="url(#clip0)">
<path d="M37.1783 1H3.03822C1.91254 1 1 1.91254 1 3.03822V22.9618C1 24.0875 1.91254 25 3.03822 25H37.1783C38.304 25 39.2166 24.0875 39.2166 22.9618V3.03822C39.2166 1.91254 38.304 1 37.1783 1Z" fill="#EF809F"/>
<path d="M17.999 16.0524C18.2952 16.343 18.3008 16.8181 18.0102 17.1143L17.9543 17.1758C17.6637 17.472 17.1886 17.4776 16.8924 17.1869L15.2158 15.5271C14.7519 15.0632 14.6905 14.4932 14.9811 14.1914L15.037 14.1299C15.2773 13.8784 15.6741 13.856 15.9479 14.0684C16.0765 14.169 16.2665 14.1467 16.3727 14.0181C16.4733 13.8896 16.4509 13.6996 16.3224 13.5934C15.8026 13.1854 15.0593 13.2357 14.601 13.7051L14.5452 13.7666C14.003 14.3255 14.1092 15.27 14.7855 15.9462L16.4677 17.6229C17.0098 18.1426 17.8649 18.1314 18.3902 17.5949L18.4517 17.5334C18.9659 16.9969 18.9547 16.1474 18.4237 15.6221C18.3064 15.5047 18.1164 15.5047 17.999 15.6277C17.876 15.745 17.876 15.9351 17.999 16.0524ZM16.993 7.04895L17.6804 12.6936C17.6972 12.8557 17.8481 12.9786 18.0158 12.9563C18.1778 12.9395 18.3008 12.7886 18.2784 12.6209L17.591 6.95394L17.5854 6.92041C17.4681 6.45096 17.7587 5.92561 18.1499 5.84178C18.3679 5.79707 18.597 5.83619 18.7814 5.95915C18.9659 6.0821 19.0944 6.27212 19.1391 6.49008L20.3351 11.5982C20.3742 11.7603 20.5363 11.8609 20.6984 11.8217C20.8604 11.7826 20.961 11.6205 20.9219 11.4585L19.7315 6.36712C19.6589 5.99827 19.4353 5.66853 19.1167 5.45616C18.7982 5.24379 18.4014 5.17113 18.0269 5.24938C17.2892 5.40586 16.8086 6.26653 16.993 7.04895Z" fill="white"/>
<path d="M23.2972 13.6792L24.6553 6.91677C24.8118 6.19023 24.3814 5.4581 23.6605 5.24573C22.8557 5.04454 22.0453 5.51399 21.8385 6.30759L20.3352 11.4548C20.2905 11.6169 20.3799 11.7846 20.542 11.8293C20.704 11.874 20.8717 11.7846 20.9164 11.6225L22.4198 6.46967C22.5483 5.99462 23.0289 5.7096 23.4984 5.82696C23.9008 5.94991 24.1523 6.36907 24.0629 6.79381L22.7048 13.5618C22.6713 13.7239 22.7775 13.8859 22.9395 13.9195C23.1072 13.9474 23.2693 13.8412 23.2972 13.6792ZM19.8825 20.1956C17.7308 20.1956 15.9368 18.6196 15.9368 16.3785C15.9368 16.2109 15.8027 16.0767 15.635 16.0767C15.4674 16.0767 15.3332 16.2109 15.3332 16.3785C15.3332 18.9717 17.4178 20.7992 19.8825 20.7992C20.0501 20.7992 20.1843 20.6651 20.1843 20.4974C20.1843 20.3298 20.0501 20.1956 19.8825 20.1956ZM18.8206 14.9254C18.7759 15.0931 18.6697 15.244 18.5244 15.339L18.4574 15.3781C18.1109 15.6129 17.6414 15.5234 17.4067 15.1769L16.0877 13.2153C15.73 12.6676 15.7748 12.0975 16.1213 11.8572L16.1827 11.8125C16.6298 11.5554 17.0043 11.751 17.3899 12.3155L18.4909 13.9586C18.5859 14.0983 18.7703 14.1318 18.91 14.0424C19.0498 13.953 19.0833 13.763 18.9939 13.6233L17.8929 11.9802C17.3452 11.1866 16.6745 10.8345 15.8642 11.3039L15.7803 11.3598C15.132 11.8013 15.0538 12.7514 15.5847 13.5506L16.9037 15.5179C17.3284 16.1382 18.1667 16.3003 18.7871 15.8811L18.8542 15.8364C19.1168 15.6576 19.3068 15.3893 19.3963 15.0819C19.441 14.9199 19.346 14.7578 19.1839 14.7131C19.0274 14.6684 18.8653 14.7634 18.8206 14.9254Z" fill="white"/>
<path d="M20.8165 15.9209C20.1906 16.273 19.7994 16.9269 19.7547 17.9273C19.7435 18.095 19.872 18.2347 20.0397 18.2459C20.2073 18.2514 20.3471 18.1285 20.3582 17.9608C20.403 17.0555 20.755 16.5692 21.3195 16.3569C21.6213 16.2451 21.951 16.2227 22.2417 16.2507L22.3143 16.2619C22.6999 16.3345 22.8229 15.7589 22.4373 15.6694L20.1179 15.1497C19.0337 14.8535 18.8661 14.4511 19.0672 13.7804C19.1567 13.4898 19.3299 13.3389 19.6038 13.2775C19.7826 13.2383 19.9782 13.2439 20.1682 13.2775C20.2241 13.2886 20.2632 13.2942 20.28 13.2998L23.8009 14.1214L23.868 14.1437C23.9239 14.1661 23.9853 14.2108 24.0468 14.2723C24.2815 14.5237 24.4157 14.9988 24.3486 15.7812C24.1195 18.5197 22.8452 20.2187 19.8161 20.1907C19.6485 20.1907 19.5143 20.3249 19.5143 20.4869C19.5143 20.6546 19.6485 20.7887 19.8105 20.7887C23.2085 20.8167 24.6951 18.8439 24.9466 15.8259C25.0248 14.887 24.8516 14.2443 24.4883 13.8587C24.2871 13.6463 24.0748 13.5457 23.9127 13.5234L20.4309 12.713C20.4085 12.7074 20.3527 12.6906 20.2744 12.6795C20.0117 12.6348 19.7379 12.6292 19.4696 12.685C19.0002 12.7912 18.6425 13.0874 18.4916 13.6016C18.201 14.5685 18.5084 15.3285 19.9726 15.7253L20.8165 15.9209Z" fill="white"/>
</g>
<path d="M3 2H37.2166V0H3V2ZM38.2166 3V23H40.2166V3H38.2166ZM37.2166 24H3V26H37.2166V24ZM2 23V3H0V23H2ZM3 24C2.44772 24 2 23.5523 2 23H0C0 24.6569 1.34315 26 3 26V24ZM38.2166 23C38.2166 23.5523 37.7688 24 37.2166 24V26C38.8734 26 40.2166 24.6569 40.2166 23H38.2166ZM37.2166 2C37.7688 2 38.2166 2.44772 38.2166 3H40.2166C40.2166 1.34315 38.8734 0 37.2166 0V2ZM3 0C1.34315 0 0 1.34314 0 3H2C2 2.44772 2.44772 2 3 2V0Z" fill="#DDDDDD"/>
<defs>
<clipPath id="clip0">
<path d="M1 3C1 1.89543 1.89543 1 3 1H37.2166C38.3211 1 39.2166 1.89543 39.2166 3V23C39.2166 24.1046 38.3211 25 37.2166 25H3C1.89543 25 1 24.1046 1 23V3Z" fill="white"/>
</clipPath>
</defs>
</svg>
