<svg xmlns="http://www.w3.org/2000/svg" viewBox="0 0 359.72 263.653" height="40" width="64" xml:space="preserve">
    <path style="fill:#fff;fill-opacity:1;fill-rule:nonzero;stroke:none" d="M2682.58 192.031c0-97.61-80.95-176.722-180.82-176.722H196.133c-99.852 0-180.801 79.113-180.801 176.722V1785.38c0 97.62 80.95 176.73 180.801 176.73H2501.76c99.87 0 180.82-79.11 180.82-176.73V192.031" transform="matrix(.13333 0 0 -.13333 0 263.653)"/>
    <path style="fill:#231f20;fill-opacity:1;fill-rule:nonzero;stroke:none" d="M260.395 784.082c0 43.656-22.801 40.789-44.625 41.25v12.617c18.921-.918 38.324-.918 57.293-.918 20.378 0 48.05.918 84.003.918 125.715 0 194.2-83.949 194.2-169.918 0-48.109-28.168-168.972-200.051-168.972-24.731 0-47.582.961-70.391.961-21.832 0-43.23-.45-65.054-.961v12.632c29.101 2.938 43.222 3.887 44.625 36.899zm47.589-227.703c0-37.399 26.727-41.75 50.508-41.75 104.903 0 139.321 79.121 139.321 151.453 0 90.789-58.247 156.316-151.938 156.316-19.953 0-29.133-1.418-37.891-1.937V556.379M568.27 511.691h9.203c13.586 0 23.308 0 23.308 16.059v131.559c0 21.332-7.269 24.281-25.258 33.961v7.75c22.817 6.859 50.028 16.019 51.95 17.48 3.418 1.949 6.289 2.469 8.757 2.469 2.379 0 3.379-2.918 3.379-6.84V527.75c0-16.059 10.704-16.059 24.313-16.059h8.219v-12.632c-16.512 0-33.532.961-50.95.961-17.48 0-34.968-.45-52.921-.961zm51.941 284.02c-12.652 0-23.789 11.648-23.789 24.269 0 12.161 11.668 23.352 23.789 23.352 12.602 0 23.797-10.23 23.797-23.352 0-13.128-10.707-24.269-23.797-24.269M718.281 656.391c0 17.929-5.359 22.781-28.14 32.019v9.219c20.839 6.793 40.726 13.133 64.058 23.34 1.469 0 2.879-.969 2.879-4.848v-31.57c27.723 19.871 51.516 36.418 84.094 36.418 41.211 0 55.769-30.11 55.769-67.981V527.75c0-16.059 10.711-16.059 24.289-16.059h8.758v-12.632c-17.05 0-34.015.961-51.476.961-17.492 0-34.981-.45-52.461-.961v12.632h8.758c13.605 0 23.273 0 23.273 16.059v125.691c0 27.707-16.91 41.289-44.621 41.289-15.551 0-40.313-12.601-56.383-23.332V527.75c0-16.059 10.735-16.059 24.332-16.059h8.723v-12.632c-16.985 0-33.981.961-51.488.961-17.446 0-34.946-.45-52.407-.961v12.632H695c13.578 0 23.281 0 23.281 16.059v128.641M966.895 633.051c-.997-4.371-.997-11.641 0-28.16 2.851-46.11 32.535-83.961 71.335-83.961 26.74 0 47.63 14.57 65.56 32.5l6.78-6.801c-22.34-29.609-50-54.867-89.78-54.867-77.216 0-92.755 74.808-92.755 105.859 0 95.168 64.078 123.348 98.025 123.348 39.37 0 81.64-24.758 82.09-76.239 0-2.949 0-5.832-.45-8.75l-4.39-2.929zm85.965 15.551c12.11 0 13.53 6.32 13.53 12.168 0 24.718-15.04 44.628-42.24 44.628-29.595 0-49.986-21.808-55.814-56.796h84.524M1119.34 511.691h13.12c13.54 0 23.26 0 23.26 16.059v136.398c0 15.024-17.95 17.981-25.24 21.864v7.258c35.44 15.062 54.87 27.699 59.31 27.699 2.84 0 4.3-1.457 4.3-6.34V670.93h1.02c12.1 18.929 32.53 50.039 62.13 50.039 12.13 0 27.65-8.25 27.65-25.739 0-13.101-9.18-24.808-22.77-24.808-15.1 0-15.1 11.707-32.11 11.707-8.24 0-35.43-11.199-35.43-40.348V527.75c0-16.059 9.7-16.059 23.3-16.059h27.16v-12.632c-26.7.511-47.02.961-67.92.961-19.91 0-40.31-.45-57.78-.961v12.632M1306.24 566.57c6.33-32.039 25.71-59.269 61.22-59.269 28.6 0 39.27 17.5 39.27 34.48 0 57.321-105.81 38.848-105.81 117.008 0 27.223 21.86 62.172 75.27 62.172 15.51 0 36.38-4.402 55.3-14.121l3.41-49.481h-11.16c-4.85 30.571-21.82 48.039-52.93 48.039-19.42 0-37.85-11.148-37.85-32.027 0-56.84 112.61-39.332 112.61-115.562 0-32.02-25.7-66.047-83.5-66.047-19.4 0-42.26 6.808-59.2 16.519l-5.37 55.84 8.74 2.449M1883.98 750.102h-12.11c-9.24 56.75-49.54 79.597-103.88 79.597-55.9 0-136.95-37.359-136.95-153.879 0-98.109 69.94-168.519 144.69-168.519 48.02 0 87.92 33.031 97.61 84.039l11.17-2.899-11.17-70.91c-20.39-12.64-75.27-25.769-107.35-25.769-113.56 0-185.41 73.328-185.41 182.558 0 99.559 88.85 170.95 184.01 170.95 39.31 0 77.17-12.661 114.56-25.782l4.83-69.386M1901.51 511.691h9.19c13.64 0 23.33 0 23.33 16.059v270.359c0 31.59-7.27 32.551-25.74 37.903v7.777c19.41 6.301 39.82 15.02 50.04 20.891 5.27 2.871 9.19 5.351 10.62 5.351 2.97 0 3.93-2.949 3.93-6.851V527.75c0-16.059 10.69-16.059 24.27-16.059h8.22v-12.632c-16.46 0-33.45.961-50.94.961-17.47 0-34.93-.45-52.92-.961v12.632M2213.24 525.789c0-8.769 5.31-9.23 13.54-9.23 5.86 0 13.11.461 19.47.461v-10.219c-20.89-1.922-60.72-12.121-69.96-15.039l-2.42 1.476v39.332c-29.1-23.781-51.46-40.808-85.98-40.808-26.21 0-53.38 17.027-53.38 57.758v124.332c0 12.636-1.93 24.777-29.08 27.168v9.25c17.49.48 56.25 3.378 62.58 3.378 5.39 0 5.39-3.378 5.39-14.078V574.32c0-14.582 0-56.289 42.23-56.289 16.48 0 38.33 12.59 58.71 29.559v130.64c0 9.7-23.29 15.04-40.74 19.872v8.73c43.65 2.957 70.87 6.816 75.72 6.816 3.92 0 3.92-3.378 3.92-8.738V525.789M2309.83 686.012c19.41 16.468 45.64 34.957 72.34 34.957 56.33 0 90.32-49.09 90.32-102 0-63.578-46.63-127.207-116.09-127.207-35.89 0-54.83 11.687-67.48 17.027l-14.52-11.168-10.18 5.32c4.34 28.641 6.79 56.797 6.79 86.43v208.738c0 31.59-7.31 32.551-25.76 37.903v7.777c19.44 6.301 39.81 15.02 50 20.891 5.36 2.871 9.23 5.351 10.71 5.351 2.89 0 3.87-2.961 3.87-6.851zm0-132.071c0-18.441 17.49-49.543 50.01-49.543 51.94 0 73.78 50.993 73.78 94.223 0 52.418-39.77 96.109-77.63 96.109-18.04 0-33.06-11.671-46.16-22.851V553.941M215.23 216.762h3.711c9.497 0 19.539 1.297 19.539 15.047v138.402c0 13.769-10.042 15.078-19.539 15.078h-3.711v7.941c10.297 0 26.153-1.05 39.129-1.05 13.2 0 29.032 1.05 41.454 1.05v-7.941h-3.735c-9.461 0-19.519-1.309-19.519-15.078V231.809c0-13.75 10.058-15.047 19.519-15.047h3.735v-7.942c-12.672 0-28.563 1.02-41.727 1.02-12.969 0-28.559-1.02-38.856-1.02v7.942" transform="matrix(.13333 0 0 -.13333 0 263.653)"/>
    <path style="fill:#231f20;fill-opacity:1;fill-rule:nonzero;stroke:none" d="M295.813 207.691c-12.786 0-28.594 1.059-41.747 1.059-12.929 0-28.464-1.059-38.836-1.059h-1.152V217.898h4.844c9.59.231 18.305 1 18.387 13.911v138.402c-.082 12.93-8.797 13.769-18.387 13.937h-4.844v10.231h1.152c10.372 0 26.211-1.027 39.129-1.027 13.141 0 28.961 1.027 41.454 1.027h1.175v-10.231h-4.859c-9.602-.168-18.367-1.007-18.422-13.937V231.809c.055-12.911 8.82-13.68 18.422-13.911h4.859V207.691zm-1.145 2.258.012 5.621h-2.551c-9.449 0-20.68 1.66-20.742 16.239v138.402c.062 14.609 11.293 16.238 20.742 16.238h2.539v5.641c-12.188-.008-27.5-1.07-40.309-1.07-12.55 0-27.742.992-37.972 1.07v-5.641h2.535c9.418 0 20.668-1.629 20.668-16.238V231.809c0-14.579-11.25-16.239-20.668-16.239h-2.535v-5.621c10.23.09 25.152 1.063 37.679 1.063 12.872 0 28.141-.992 40.602-1.063M477.305 260.891l.527.519v99.039c0 21.68-15.078 24.852-22.996 24.852h-5.82v7.929c12.437 0 24.589-1.05 36.98-1.05 10.828 0 21.719 1.05 32.5 1.05v-7.929h-3.922c-11.133 0-23.551-2.11-23.551-33.551V231.551c0-9.262.262-18.5 1.559-26.699h-10.039L346.516 356.52V247.648c0-23 4.461-30.886 24.808-30.886h4.5v-7.942c-11.359 0-22.711 1.032-34.07 1.032-11.859 0-24.027-1.032-35.93-1.032v7.942h3.703c18.227 0 23.77 12.418 23.77 33.488v111.309c0 14.781-12.184 23.742-24.024 23.742h-3.449v7.929c10.02 0 20.336-1.05 30.352-1.05 7.949 0 15.617 1.05 23.535 1.05l117.594-132.339" transform="matrix(.13333 0 0 -.13333 0 263.653)"/>
    <path style="fill:#231f20;fill-opacity:1;fill-rule:nonzero;stroke:none" d="m492.578 203.738-10.879.371-134.066 149.43V247.648c.316-22.968 3.808-29.5 23.695-29.75h5.66V207.691h-1.168c-11.429 0-22.8 1.059-34.074 1.059-11.828 0-23.969-1.059-35.933-1.059h-1.165V217.898h4.883c17.457.102 22.446 11.321 22.637 32.364V361.52c-.051 14.07-11.586 22.628-22.891 22.628h-4.629v10.231h1.165c10.093 0 20.437-1.027 30.343-1.027 7.883 0 15.516 1.027 24.426.617L476.68 263.281v97.168c-.133 20.981-14.153 23.531-21.84 23.699h-6.988v10.231h1.168c12.48 0 24.636-1.027 36.98-1.027 10.746 0 21.578 1.027 32.5 1.027h1.156V384.148h-5.086c-10.914-.277-22.097-1.238-22.422-32.398V231.551c0-9.25.293-18.473 1.563-26.492l.238-1.321zm-10.027 2.301h8.738c-1.184 7.949-1.391 16.723-1.391 25.512V351.75c0 31.711 13.29 34.699 24.672 34.719h2.778v5.621c-10.41-.078-20.84-1.039-31.348-1.039-12.098 0-23.859.961-35.801 1.039l-.027-5.621h4.668c8.121-.02 24.129-3.629 24.129-26.02l-.352-99.871-.515-.508-.907-.851L359.707 392.09c-7.848 0-15.488-1.039-23.551-1.039-9.676 0-19.597.961-29.179 1.039l-.047-5.621h2.347c12.395-.02 25.141-9.481 25.141-24.949V250.262c0-21.141-5.887-34.641-24.887-34.711l-2.554.07v-5.672c11.441.09 23.234 1.063 34.769 1.063 11.024 0 22.024-.973 32.922-1.063v5.602h-3.34c-20.793.07-25.937 9.129-25.957 32.097V359.48Zm-5.242 54.852.832.757zm-.629.519v.102l-.211.168zM558.086 380.02c-19.84 0-20.602-4.782-24.57-24.04h-7.93c1.039 7.399 2.359 14.79 3.18 22.45a157.819 157.819 0 0 1 1.582 22.441h6.336c2.125-7.93 8.73-7.641 15.894-7.641H688.84c7.168 0 13.758.258 14.305 8.192l6.304-1.082c-1.019-7.11-2.101-14.25-2.871-21.399-.515-7.132-.515-14.242-.515-21.371l-7.95-2.941c-.535 9.762-1.84 25.391-19.539 25.391h-43.332V239.469c0-20.379 9.254-22.707 21.914-22.707h5.039v-7.942c-10.3 0-28.804 1.02-43.05 1.02-15.868 0-34.379-1.02-44.688-1.02v7.942h5.039c14.563 0 21.922 1.297 21.922 22.16V380.02h-43.332" transform="matrix(.13333 0 0 -.13333 0 263.653)"/>
    <path style="fill:#231f20;fill-opacity:1;fill-rule:nonzero;stroke:none" d="M662.219 207.691c-10.41 0-28.883 1.047-43.074 1.047-15.848 0-34.321-1.047-44.688-1.047h-1.121V217.898h6.16c14.563.34 20.41.532 20.746 21.024v139.969h-42.156v2.308h44.449V238.922c0-21.211-8.551-23.352-23.039-23.371h-3.91v-5.582c10.422.07 28.223 1.043 43.559 1.043 13.761 0 31.402-.973 41.871-1.043v5.582h-3.86c-12.769.019-23.058 3.16-23.058 23.918v141.73h44.476c17.719-.07 20.063-15.129 20.621-24.961l5.711 2.114c0 6.898.032 13.808.508 20.75.774 6.828 1.734 13.539 2.731 20.308l-4.02.672c-1.23-7.691-8.672-8.102-15.297-8H551.195c-6.211-.012-12.988.289-15.359 7.656h-4.359c-.051-7.297-.547-14.386-1.551-21.429-.789-7.258-1.992-14.227-2.957-21.227h5.636c3.481 18.43 5.739 24.379 25.481 24.117v-2.308c-19.563-.391-19.141-3.661-23.445-23.18l-.192-.902H524.27l.144 1.371c1.074 7.371 2.41 14.789 3.184 22.461 1.097 7.328 1.605 14.66 1.605 22.23v1.168h8.387l.199-.828c1.785-6.66 6.668-6.711 13.406-6.832h137.633c7.36.121 12.719.223 13.168 7.133l.098 1.25 1.191-.242 7.473-1.18-.192-1.168c-1.05-7.094-2.082-14.203-2.871-21.281-.5-7.082-.5-14.18-.5-21.321v-.8l-.769-.309-9.34-3.422-.07 1.531c-.723 9.942-1.746 24.321-18.442 24.321h-42.179V239.469c.269-19.918 8.171-21.321 20.761-21.571h6.188V207.691h-1.125M717.887 216.762h3.718c9.489 0 19.551 1.297 19.551 15.047v138.402c0 13.769-10.062 15.078-19.551 15.078h-3.718v7.941c16.066 0 43.605-1.05 65.75-1.05 22.238 0 49.668 1.05 67.636 1.05-.457-11.359-.21-28.839.563-40.441l-7.957-2.098c-1.274 17.18-4.438 30.879-32.195 30.879h-36.68v-69.172h31.383c15.847 0 19.304 8.954 20.871 23.231h7.918a609.302 609.302 0 0 1-.801-30.91c0-10.059.277-20.09.801-30.11l-7.918-1.578c-1.567 15.828-2.36 26.129-20.602 26.129h-31.652v-61.519c0-17.2 15.269-17.2 32.184-17.2 31.707 0 45.699 2.129 53.636 32.207l7.367-1.816c-3.433-14.031-6.586-27.992-8.949-42.012-16.929 0-47.308 1.02-71.039 1.02-23.828 0-55.238-1.02-70.316-1.02v7.942" transform="matrix(.13333 0 0 -.13333 0 263.653)"/>
    <path style="fill:#231f20;fill-opacity:1;fill-rule:nonzero;stroke:none" d="M859.223 207.691c-16.953 0-47.352 1.098-71.047 1.098-23.805 0-55.203-1.098-70.293-1.098h-1.11V217.898h4.829c9.558.161 18.261 1 18.378 13.911v138.402c-.117 12.91-8.82 13.769-18.378 13.937h-4.829v10.231h1.11c16.14 0 43.621-1.027 65.762-1.027 22.21 0 49.636 1.027 67.628 1.027h1.168l-.039-1.219a319.95 319.95 0 0 1-.277-13.621c0-9.129.277-19.141.801-26.66l.047-.938-.895-.269-9.285-2.434-.039 1.364c-1.563 17.136-3.863 29.609-31.07 29.867h-35.598l-.023-66.91h30.32c15.226.16 17.949 7.941 19.75 22.191l.058 1.059h10.161l-.02-1.207c-.512-10.321-.82-20.59-.82-30.883 0-9.989.308-20.02.82-30.059l.02-.961-.961-.219-9.2-1.832-.058 1.243c-1.832 16.129-1.949 24.968-19.485 25.16h-30.562v-60.41c.035-16.059 13.875-15.969 31.098-16.059 31.808.188 44.55 1.75 52.507 31.379l.27 1.07 1.113-.179 8.469-2.204-.242-1.089c-3.426-13.977-6.574-27.95-8.969-41.93l-.199-.938zm-.981 2.278c2.309 13.363 5.321 26.703 8.559 40l-5.199 1.312c-7.911-29.551-23.239-32.191-54.418-31.992-16.653 0-33.293 0-33.379 18.352v62.668h32.843c18.454.191 20.317-10.93 21.633-25.957l5.703 1.168a558.61 558.61 0 0 0-.769 29.199c0 9.922.258 19.82.769 29.793h-5.703c-1.488-13.801-5.801-23.43-21.898-23.262h-32.578v71.512h37.879c27.476.218 32.027-14 33.226-30.621l5.692 1.55c-.461 7.45-.766 17.028-.766 25.848 0 4.52.113 8.813.266 12.551-17.95-.078-44.743-1.039-66.457-1.039-21.711 0-48.434.961-64.602 1.039v-5.621h2.559c9.398-.02 20.64-1.649 20.703-16.258V231.809c-.063-14.579-11.305-16.188-20.703-16.258h-2.559v-5.582c15.383.051 45.918 1.043 69.133 1.043 23.316 0 53.035-.992 70.066-1.043M903.871 365.25c0 19.262-10.578 20.051-18.777 20.051h-4.774v7.929c8.457 0 24.84-1.05 40.969-1.05 15.82 0 28.52 1.05 42.52 1.05 33.242 0 62.891-8.968 62.891-46.511 0-23.758-15.86-38.27-36.72-46.508l45.15-67.59c7.42-11.18 12.66-14.312 25.64-15.859v-7.942c-8.74 0-17.19 1.02-25.88 1.02-8.19 0-16.68-1.02-24.83-1.02-20.357 26.668-37.81 55.192-54.966 85.621H937.68v-56.57c0-20.34 9.492-21.109 21.601-21.109h4.789v-7.942c-15.09 0-30.347 1.02-45.441 1.02-12.676 0-25.098-1.02-38.309-1.02v7.942h4.774c9.808 0 18.777 4.468 18.777 14.226zm33.809-61.281h12.91c26.453 0 40.687 10.011 40.687 41.203 0 23.488-15.054 38.547-38.597 38.547-7.93 0-11.309-.809-15-1.071v-78.679" transform="matrix(.13333 0 0 -.13333 0 263.653)"/>
    <path style="fill:#231f20;fill-opacity:1;fill-rule:nonzero;stroke:none" d="M1060.77 207.691c-8.86 0-17.26 1.059-25.95 1.059-8.05 0-16.5-1.059-25.7-.621-20.268 26.601-37.64 54.961-54.702 85.121h-15.609v-55.328c.293-19.891 8.261-19.742 20.472-20.024h5.93V207.691h-1.172c-15.098 0-30.449 1.059-45.422 1.059-12.617 0-25.027-1.059-38.297-1.059h-1.148V217.898h5.922c9.496.071 17.527 4.211 17.566 13.09V365.25c-.199 18.73-9.367 18.641-17.566 18.898h-5.922v10.231h1.148c8.551 0 24.86-1.027 40.969-1.027 15.774 0 28.441 1.027 42.52 1.027 33.308-.07 63.961-9.238 64.041-47.617 0-23.84-15.76-38.742-36.131-47.051l44.361-66.461c7.39-10.961 11.99-13.699 24.84-15.352l.96-.148v-10.059zm-123.098 87.887h18.051l.328-.59c17.203-30.347 34.558-58.879 54.009-85.039 8.04 0 16.53 1.063 24.76 1.063 8.43 0 16.59-.922 24.79-1.043v5.801c-12.38 1.511-18.2 5.25-25.41 16.199l-45.993 68.769 1.305.532c20.688 8.152 36.018 22.261 36.028 45.492-.01 36.648-28.52 45.148-61.731 45.328-13.907 0-26.606-1.07-42.52-1.07-15.519 0-31.195.992-39.84 1.07v-5.621h3.645c8.199-.02 19.867-1.379 19.867-21.219V230.988c0-10.597-9.934-15.418-19.867-15.437h-3.645v-5.582c12.699.051 24.762 1.043 37.168 1.043 14.75 0 29.676-.992 44.281-1.043v5.582h-3.617c-12.031.019-22.781 1.508-22.781 22.371v57.656zm0 7.254H936.5v80.887l1.012.082c3.617.289 7.179 1.019 15.168 1.019 24.058 0 39.73-15.629 39.754-39.718-.075-31.543-15.192-42.262-41.844-42.27zm12.918 2.25c26.148.258 39.332 9.328 39.59 40.02-.16 23.078-14.492 37.398-37.5 37.5-7.129 0-10.496-.661-13.871-.993v-76.527h11.781M1240.13 260.891l.46.519v99.039c0 21.68-15.01 24.852-22.94 24.852h-5.79v7.929c12.42 0 24.53-1.05 36.98-1.05 10.86 0 21.61 1.05 32.52 1.05v-7.929h-3.98c-11.1 0-23.51-2.11-23.51-33.551V231.551c0-9.262.26-18.5 1.56-26.699h-10L1109.39 356.52V247.648c0-23 4.46-30.886 24.8-30.886h4.5v-7.942c-11.35 0-22.73 1.032-34.08 1.032-11.93 0-24.06-1.032-35.94-1.032v7.942h3.67c18.24 0 23.82 12.418 23.82 33.488v111.309c0 14.781-12.17 23.742-24.05 23.742h-3.44v7.929c10 0 20.38-1.05 30.4-1.05 7.85 0 15.55 1.05 23.49 1.05l117.57-132.339" transform="matrix(.13333 0 0 -.13333 0 263.653)"/>
    <path style="fill:#231f20;fill-opacity:1;fill-rule:nonzero;stroke:none" d="m1255.42 203.738-10.85.371-134.09 149.411V247.66c.31-23.012 3.79-29.512 23.71-29.762h5.6V207.691h-1.15c-11.42 0-22.76 1.098-34.08 1.098-11.79 0-24-1.098-35.9-1.098h-1.18V217.898h4.86c17.45.071 22.45 11.321 22.62 32.422v111.239c-.03 14.082-11.55 22.589-22.85 22.589h-4.63v10.231h1.18c10.09 0 20.43-1.027 30.4-1.027 7.76 0 15.41 1.027 24.27.687l116.14-130.758v97.168c-.07 20.981-14.14 23.582-21.82 23.699h-6.97v10.231h1.15c12.48 0 24.66-1.027 37.01-1.027 10.76 0 21.58 1.027 32.47 1.027h1.17v-10.231h-5.1c-10.9-.257-22.13-1.238-22.39-32.398V231.551c0-9.25.23-18.41 1.58-26.512l.13-1.301zm-10 2.301h8.66c-1.16 7.902-1.39 16.723-1.39 25.512V351.75c.02 31.711 13.38 34.648 24.69 34.719h2.78v5.621c-10.4-.078-20.84-1.039-31.32-1.039-12.14 0-23.91.961-35.86 1.039v-5.621h4.67c8.14-.071 24.14-3.629 24.14-26.02l-.38-99.871-.48-.508-.83-.871-117.54 132.891c-7.86 0-15.52-1.039-23.5-1.039-9.8 0-19.67.961-29.27 1.039v-5.621h2.32c12.43-.071 25.14-9.438 25.14-24.91V250.32c0-21.199-5.97-34.699-24.91-34.769l-2.55.019v-5.609c11.41.078 23.18 1.051 34.77 1.051 11.08 0 22.06-.973 32.98-1.051v5.59h-3.35c-20.79.019-25.97 9.097-26.03 32.109v111.781zm-5.32 54.852.86.757zm-.63.519v.07l-.19.2zM1323.83 246.59c-2.66-8.949-5.85-15.891-5.85-20.578 0-7.953 11.13-9.262 19.82-9.262h2.95v-7.93c-10.61.571-21.39 1.02-32.02 1.02-9.51 0-18.97-.449-28.51-1.02v7.93h1.61c10.28 0 19.03 6.09 22.95 17.191l42.27 121.219c3.45 9.801 8.21 23 9.82 32.801 8.4 2.891 19.01 8.141 24.01 11.348.82.273 1.31.543 2.11.543.8 0 1.29 0 1.87-.832.78-2.09 1.55-4.469 2.37-6.579l48.63-138.191c3.17-9.219 6.31-18.988 9.69-26.961 3.22-7.41 8.77-10.539 17.52-10.539h1.58v-7.93c-11.9.571-23.82 1.02-36.44 1.02-12.95 0-26.2-.449-39.67-1.02v7.93h2.91c6.04 0 16.41 1.051 16.41 7.66 0 3.41-2.39 10.551-5.34 19.039l-10.29 30.633h-59.96zm38.57 117.039h-.55l-24.55-74.77h49.36l-24.26 74.77" transform="matrix(.13333 0 0 -.13333 0 263.653)"/>
    <path style="fill:#231f20;fill-opacity:1;fill-rule:nonzero;stroke:none" d="M1464.57 207.691c-11.87.508-23.78 1.098-36.36 1.098-12.95 0-26.13-.59-39.61-1.098l-1.22-.062v10.32h4.07c6.12 0 15.2 1.371 15.22 6.461.06 3.012-2.31 10.25-5.22 18.649l-10.06 29.89h-58.27l-8.22-26.699c-2.66-8.98-5.87-15.961-5.82-20.262.09-6.449 9.95-8.039 18.72-8.039h4.06v-10.32l-1.2.062c-10.56.508-21.34 1.098-31.91 1.098-9.43 0-18.98-.59-28.44-1.098l-1.23-.062v10.32h2.74c9.82.02 18.02 5.633 21.84 16.36l42.31 121.261c3.41 9.782 8.21 22.918 10.49 33.481 8.29 2.808 18.92 8.14 23.99 11.328.74.262 1.47.601 2.53.601.65.04 2.07-.128 2.93-1.511.75-2.168 1.59-4.539 2.39-6.668l48.64-138.172c3.11-9.25 6.27-19.008 9.73-26.84 3.06-7.039 7.91-9.82 16.4-9.84h2.67v-10.32zm-74.88 2.348c13.07.461 25.9.973 38.52.973 12.25 0 23.77-.512 35.25-.973v5.531h-.39c-9.06-.058-15.29 3.5-18.53 11.289-3.44 7.981-6.65 17.789-9.77 27.039l-48.64 138.184c-.8 2.109-1.55 4.469-2.24 6.348-.26.261-.2.261-.41.261h-.5c-.53 0-.85-.16-1.53-.332-5.08-3.3-15.67-8.507-23.53-10.57-1.61-10.008-6.37-23.207-9.8-33l-42.27-121.23c-4.02-11.477-13.31-18.008-24.03-17.989h-.44v-5.531c9.06.461 18.2.973 27.37.973 10.22 0 20.64-.512 30.75-.973v5.531h-1.7c-8.63.121-20.65 1.059-20.95 10.418.02 5.242 3.26 12 5.85 20.934l1.12-.332-1.12.359 8.7 28.231h61.6l10.58-31.371c2.97-8.5 5.37-15.539 5.37-19.399-.39-8.09-11.51-8.691-17.5-8.84h-1.76zm-54 77.68 25.29 77.082h1.42v-1.172l-.28-.078.28.078v1.172h.79l25.11-77.082zm3.16 2.312h46.25l-22.99 70.789zm22.4 73.258.61.191-.61-.191M1476.26 380.02c-19.81 0-20.61-4.782-24.59-24.04h-7.94c1.04 7.399 2.39 14.79 3.21 22.45 1.03 7.429 1.54 14.8 1.54 22.441h6.39c2.07-7.93 8.69-7.641 15.82-7.641h136.34c7.1 0 13.7.258 14.22 8.192l6.32-1.082c-.98-7.11-2.03-14.25-2.86-21.399-.58-7.132-.58-14.242-.58-21.371l-7.89-2.941c-.47 9.762-1.8 25.391-19.54 25.391h-43.32V239.469c0-20.379 9.26-22.707 21.92-22.707h5.05v-7.942c-10.32 0-28.78 1.02-43.08 1.02-15.82 0-34.36-1.02-44.66-1.02v7.942h5.03c14.56 0 21.93 1.297 21.93 22.16V380.02h-43.31" transform="matrix(.13333 0 0 -.13333 0 263.653)"/>
    <path style="fill:#231f20;fill-opacity:1;fill-rule:nonzero;stroke:none" d="M1580.35 207.691c-10.38 0-28.9 1.047-43.1 1.047-15.78 0-34.28-1.047-44.63-1.047h-1.17V217.898H1497.64c14.57.34 20.41.532 20.76 21.024l-.02 139.969h-42.12v2.308h44.45V238.922c0-21.211-8.56-23.301-23.07-23.352h-3.89v-5.621c10.44.09 28.19 1.063 43.5 1.063 13.81 0 31.49-.973 41.92-1.063v5.621h-3.88c-12.73.051-23.02 3.11-23.04 23.899v141.73h44.45c17.75-.07 20.06-15.129 20.57-24.961l5.74 2.114c0 6.898.04 13.808.58 20.718.71 6.809 1.71 13.571 2.67 20.309l-3.99.703c-1.21-7.691-8.67-8.121-15.24-8h-137.69c-6.23-.07-12.97.289-15.37 7.68h-4.32c-.06-7.313-.58-14.41-1.62-21.453-.72-7.289-1.99-14.278-3-21.227h5.68c3.47 18.43 5.76 24.406 25.55 24.117v-2.308c-19.59-.34-19.16-3.661-23.47-23.18l-.19-.902h-10.2l.16 1.312c1.11 7.43 2.41 14.848 3.18 22.461 1.08 7.387 1.57 14.719 1.57 22.289v1.168h8.39l.22-.828c1.85-6.66 6.66-6.711 13.42-6.832h137.69c7.31.121 12.64.223 13.11 7.109l.04 1.274 1.23-.242 7.5-1.18-.18-1.168c-1.09-7.094-2.09-14.203-2.89-21.281-.54-7.082-.54-14.192-.54-21.321v-.8l-.77-.309-9.35-3.422-.04 1.531c-.69 9.942-1.74 24.321-18.44 24.321h-42.18V239.469c.27-19.918 8.18-21.321 20.77-21.571h6.16V207.691h-1.1M1637.35 216.762h3.7c9.52 0 19.52 1.297 19.52 15.047v138.402c0 13.769-10 15.078-19.52 15.078h-3.7v7.941c10.31 0 26.13-1.05 39.06-1.05 13.24 0 29.1 1.05 41.54 1.05v-7.941h-3.71c-9.55 0-19.59-1.309-19.59-15.078V231.809c0-13.75 10.04-15.047 19.59-15.047h3.71v-7.942c-12.69 0-28.56 1.02-41.75 1.02-12.97 0-28.54-1.02-38.85-1.02v7.942" transform="matrix(.13333 0 0 -.13333 0 263.653)"/>
    <path style="fill:#231f20;fill-opacity:1;fill-rule:nonzero;stroke:none" d="M1717.95 207.691c-12.77 0-28.57 1.098-41.75 1.098-12.93 0-28.53-1.098-38.85-1.098h-1.13V217.898h4.84c9.52.161 18.3 1 18.36 13.911v138.402c-.06 12.91-8.84 13.769-18.36 13.937h-4.84v10.231h1.13c10.32 0 26.21-1.027 39.06-1.027 13.17 0 29.02 1.027 41.54 1.027h1.1V384.148H1714.25c-9.67-.168-18.36-1.027-18.45-13.937V231.809c.09-12.911 8.78-13.75 18.45-13.911h4.8V207.691zm-1.2 2.278v5.601h-2.5c-9.48 0-20.69 1.66-20.69 16.239v138.402c0 14.609 11.21 16.238 20.69 16.258h2.5v5.621c-12.18-.078-27.48-1.039-40.34-1.039-12.54 0-27.66.961-37.91 1.039v-5.621h2.56c9.38-.02 20.64-1.649 20.67-16.258V231.809c-.03-14.579-11.29-16.239-20.67-16.239h-2.56v-5.601c10.18.121 25.12 1.043 37.7 1.043 12.81 0 28.09-.973 40.55-1.043M1823.29 397.191c56.32 0 101.21-34.91 101.21-91.179 0-60.774-43.6-101.16-99.85-101.16-56.03 0-98.81 38.046-98.81 94.859 0 54.918 42.52 97.48 97.45 97.48m3.99-180.711c51.27 0 60.21 45.211 60.21 83.731 0 38.609-20.82 85.348-64.7 85.348-46.22 0-59.97-41.219-59.97-76.59 0-47.278 21.68-92.489 64.46-92.489" transform="matrix(.13333 0 0 -.13333 0 263.653)"/>
    <path style="fill:#231f20;fill-opacity:1;fill-rule:nonzero;stroke:none" d="M1724.66 299.711c.11 55.559 43.12 98.539 98.62 98.629v-2.309c-54.31 0-96.32-41.98-96.38-96.32.11-56.172 42.27-93.652 97.76-93.672 55.68.02 98.65 39.832 98.72 100.012-.05 55.57-44.23 89.929-100.1 89.98v2.309c56.72-.059 102.25-35.309 102.35-92.289-.06-61.403-44.18-102.211-100.97-102.313-56.51.102-99.89 38.532-100 95.973m37 9.258c.08 35.551 13.95 77.769 61.12 77.769 44.86-.097 65.78-47.707 65.87-86.527-.09-38.52-9.15-84.813-61.36-84.813V217.641c50.23.039 58.96 44.05 59.04 82.57 0 38.269-20.61 84.129-63.55 84.199-45.32-.051-58.71-40.25-58.83-75.441.02-47.059 21.5-91.258 63.34-91.328V215.398c-43.85.043-65.55 46.012-65.63 93.571M2102.52 260.891l.55.519v99.039c0 21.68-15.11 24.852-23.03 24.852h-5.75v7.929c12.38 0 24.56-1.05 36.94-1.05 10.86 0 21.69 1.05 32.53 1.05v-7.929h-3.97c-11.07 0-23.54-2.11-23.54-33.551V231.551c0-9.262.28-18.5 1.62-26.699h-10.05L1971.74 356.52V247.648c0-23 4.51-30.886 24.81-30.886h4.53v-7.942c-11.37 0-22.71 1.032-34.07 1.032-11.9 0-24.06-1.032-35.95-1.032v7.942h3.71c18.26 0 23.77 12.418 23.77 33.488v111.309c0 14.781-12.11 23.742-24.06 23.742h-3.42v7.929c10.04 0 20.33-1.05 30.39-1.05 7.91 0 15.53 1.05 23.49 1.05l117.58-132.339" transform="matrix(.13333 0 0 -.13333 0 263.653)"/>
    <path style="fill:#231f20;fill-opacity:1;fill-rule:nonzero;stroke:none" d="m2117.88 203.738-10.93.371-134.07 149.411V247.648c.31-23 3.8-29.468 23.64-29.699h5.69v-10.258h-1.12c-11.44 0-22.78 1.059-34.08 1.059-11.84 0-24-1.059-35.98-1.059h-1.08v10.258H1934.76c17.41.051 22.43 11.27 22.64 32.313v111.297c-.01 14.082-11.56 22.589-22.91 22.589h-4.54v10.231h1.08c10.13 0 20.43-1.027 30.41-1.027 7.84 0 15.43 1.027 24.39.617l116.08-130.688v97.168c-.09 20.981-14.16 23.531-21.87 23.699h-6.96v10.231h1.21c12.41 0 24.6-1.027 36.91-1.027 10.81 0 21.59 1.027 32.57 1.027h1.11V384.148H2139.78c-10.89-.277-22.13-1.277-22.35-32.398V231.551c0-9.25.21-18.473 1.49-26.512l.23-1.301zm-10.06 2.301h8.66c-1.12 7.949-1.38 16.723-1.38 25.512V351.75c0 31.762 13.34 34.648 24.68 34.719h2.86v5.621c-10.49-.078-20.88-1.039-31.44-1.039-12.03 0-23.84.961-35.8 1.039v-5.621h4.64c8.16-.071 24.11-3.68 24.11-26.02l-.28-99.871-.51-.508-.84-.871-117.57 132.891c-7.82 0-15.51-1.039-23.51-1.039-9.74 0-19.66.961-29.27 1.039v-5.621h2.32c12.42-.071 25.18-9.438 25.18-24.91V250.262c0-21.141-5.9-34.641-24.91-34.711l-2.59.019v-5.609c11.47.078 23.23 1.051 34.84 1.051 11.02 0 21.97-.973 32.92-1.051v5.59h-3.41c-20.73.019-25.93 9.097-25.93 32.097V359.48Zm-5.3 54.852.84.757zm-.61.519v.07l-.21.2zM2186.2 246.59c-2.59-8.949-5.78-15.891-5.78-20.578 0-7.953 11.13-9.262 19.79-9.262h2.95v-7.93c-10.58.571-21.42 1.02-32 1.02-9.51 0-19.01-.449-28.48-1.02v7.93h1.5c10.36 0 19.11 6.09 22.97 17.191l42.36 121.219c3.41 9.801 8.19 23 9.71 32.801 8.49 2.891 19.03 8.141 24.12 11.348.74.273 1.27.543 2.09.543.77 0 1.27 0 1.81-.832.8-2.09 1.59-4.469 2.39-6.579l48.61-138.191c3.15-9.219 6.34-18.988 9.79-26.961 3.17-7.41 8.71-10.539 17.42-10.539h1.63v-7.93c-11.91.571-23.81 1.02-36.5 1.02-12.92 0-26.15-.449-39.64-1.02v7.93h2.93c6.04 0 16.4 1.051 16.4 7.66 0 3.41-2.37 10.551-5.32 19.039l-10.3 30.633h-59.96zm38.63 117.039h-.53l-24.63-74.77h49.48l-24.32 74.77" transform="matrix(.13333 0 0 -.13333 0 263.653)"/>
    <path style="fill:#231f20;fill-opacity:1;fill-rule:nonzero;stroke:none" d="M2326.96 207.691c-11.91.469-23.77 1.059-36.37 1.059-12.89 0-26.13-.59-39.59-1.059l-1.17-.062v10.269h4.02c6.14 0 15.24 1.422 15.25 6.512.07 3.012-2.32 10.219-5.29 18.649l-10.02 29.89h-58.32l-8.16-26.699c-2.66-9.051-5.78-15.961-5.75-20.238 0-6.473 9.91-8.114 18.64-8.114h4.04V207.629l-1.19.062c-10.55.469-21.37 1.059-31.89 1.059-9.47 0-18.95-.59-28.48-1.059l-1.15-.062v10.269h2.65c9.85.051 18.09 5.692 21.96 16.411l42.25 121.261c3.39 9.782 8.16 22.918 10.48 33.442 8.3 2.879 18.91 8.179 24.05 11.367.68.262 1.42.582 2.5.582.68.059 2.07-.109 2.88-1.551.8-2.078 1.58-4.48 2.44-6.609l48.58-138.172c3.18-9.25 6.33-19.008 9.76-26.891 3.11-6.988 7.89-9.769 16.34-9.84h2.73V207.629zm-74.89 2.329c13.07.48 25.92.992 38.52.992 12.28 0 23.77-.512 35.3-.973l-.03 5.531h-.44c-8.95-.019-15.18 3.5-18.48 11.289-3.48 7.981-6.62 17.789-9.79 27.012l-48.61 138.211c-.78 2.109-1.62 4.469-2.24 6.297-.22.312-.2.312-.36.312h-.52c-.57 0-.86-.179-1.49-.359-5.17-3.23-15.74-8.531-23.54-10.543-1.64-10.008-6.44-23.187-9.84-33l-42.31-121.23c-4.02-11.477-13.25-18.008-24.06-17.989h-.39v-5.531c9.1.461 18.18.973 27.37.973 10.23 0 20.68-.512 30.83-.973v5.531h-1.79c-8.59.121-20.63 1.032-20.97 10.442.07 5.218 3.32 11.957 5.91 20.91l1.06-.332-1.06.359 8.69 28.231h61.58l10.61-31.371c2.91-8.5 5.32-15.539 5.32-19.399-.38-8.09-11.49-8.691-17.49-8.84h-1.78zm-53.98 77.71 25.37 77.071h1.37v-1.172l-.3-.078.3.078v1.172h.8l24.98-77.071zm3.19 2.301h46.22l-22.98 70.75zm22.45 73.258.52.191-.52-.191M2393.62 234.73c0-10.621 7.34-13.75 15.82-14.851 10.81-.789 22.71-.789 34.9.562 11.08 1.329 20.59 7.629 25.33 14.289 4.2 5.801 6.58 13.2 8.2 19h7.64c-2.91-15.058-6.6-29.871-9.77-44.91-23.2 0-46.52 1.02-69.73 1.02-23.27 0-46.5-1.02-69.74-1.02v7.942h3.66c9.53 0 19.87 1.297 19.87 17.679v135.77c0 13.769-10.34 15.09-19.87 15.09h-3.66v7.929c13.98 0 27.74-1.05 41.72-1.05 13.5 0 26.68 1.05 40.19 1.05v-7.929h-6.64c-10.04 0-17.92-.281-17.92-14.281V234.73" transform="matrix(.13333 0 0 -.13333 0 263.653)"/>
    <path style="fill:#231f20;fill-opacity:1;fill-rule:nonzero;stroke:none" d="M2475.75 207.691c-23.3 0-46.57 1.059-69.74 1.059-23.24 0-46.49-1.059-69.79-1.059h-1.11V217.898h4.82c9.55.231 18.62.903 18.73 16.543v135.821c-.11 12.859-9.14 13.718-18.73 13.886h-4.82v10.231h1.11c14.07 0 27.82-1.027 41.75-1.027 13.45 0 26.61 1.027 40.21 1.027h1.06V384.148H2411.54c-10.25-.257-16.61.204-16.84-13.128V234.73c.07-9.878 6.54-12.519 14.8-13.699 4.65-.32 9.57-.492 14.65-.492 6.46 0 13.17.301 20 1.02 10.76 1.281 20.02 7.5 24.59 13.8 4.08 5.653 6.38 12.891 7.98 18.641l.22.871h9.96l-.23-1.391c-2.99-15.101-6.63-29.839-9.83-44.898l-.21-.891zm-.97 2.278c3.06 14.351 6.51 28.383 9.37 42.633h-5.45c-1.62-5.75-3.98-12.84-8.12-18.59-4.94-6.84-14.72-13.301-26.18-14.723-6.91-.699-13.78-1.059-20.25-1.059-5.12 0-10.06.231-14.87.571-8.59.937-16.9 4.629-16.89 15.929v136.29c0 14.691 9.29 15.449 19.15 15.449h5.44v5.621c-13.01-.078-25.86-1.07-39.01-1.07-13.65 0-27.04.992-40.56 1.07v-5.621h2.52c9.42 0 20.95-1.649 20.95-16.207V234.441c0-17.101-11.48-18.871-20.95-18.871h-2.52v-5.601c22.82.051 45.66 1.043 68.6 1.043 22.97 0 45.9-.992 68.77-1.043M2482.29 400.719c15.94 0 27.83-12.239 27.83-27.879 0-15.629-11.89-27.738-27.83-27.738-15.9 0-27.81 12.109-27.81 27.738 0 15.64 11.91 27.879 27.81 27.879m0-50.449c12.48 0 22.01 10.609 22.01 22.57 0 11.98-9.42 22.672-22.01 22.672-12.52 0-22.04-10.692-22.04-22.672 0-11.961 9.52-22.57 22.04-22.57m-13.83 7.902v1.348c3.4.492 4.04.402 4.04 2.48v20.621c0 2.899-.29 3.899-3.93 3.738v1.422h14.24c4.89 0 9.4-2.34 9.4-7.402 0-4.129-2.72-7.199-6.58-8.391l4.58-6.379c2.13-2.879 4.56-5.597 6.12-6.558v-.879h-5.41c-2.6 0-4.9 5.457-10 12.789h-3.08v-9.223c0-1.816.64-1.726 4.06-2.218v-1.348zm9.38 14.668h3.28c3.59 0 5.25 2.711 5.25 7.101 0 4.418-2.56 5.989-5.43 5.989h-3.1v-13.09" transform="matrix(.13333 0 0 -.13333 0 263.653)"/>
    <path style="fill:#fff;fill-opacity:1;fill-rule:nonzero;stroke:none" d="M832.227 1325.9c0 247.11 200.323 447.43 447.423 447.43 247.11 0 447.43-200.32 447.43-447.43s-200.32-447.439-447.43-447.439c-247.1 0-447.423 200.329-447.423 447.439" transform="matrix(.13333 0 0 -.13333 0 263.653)"/>
    <path style="fill:#214e8d;fill-opacity:1;fill-rule:nonzero;stroke:none" d="M1550.24 1334.71c-.18 114.58-71.8 212.3-172.72 251v-501.98c100.92 38.75 172.54 136.38 172.72 250.98zM1185 1083.83v501.83c-100.83-38.82-172.34-136.4-172.61-250.95.27-114.51 71.78-212.09 172.61-250.88zm96.31 675.17c-234.32-.09-424.162-189.97-424.201-424.29.039-234.29 189.881-424.14 424.201-424.179 234.32.039 424.2 189.889 424.26 424.179-.06 234.32-189.94 424.2-424.26 424.29zm-1.04-888.512C1023.86 869.27 812.82 1077 812.82 1329.87c0 276.36 211.04 467.51 467.45 467.46h120.16c253.38.05 484.63-191.01 484.63-467.46 0-252.78-231.25-459.382-484.63-459.382h-120.16" transform="matrix(.13333 0 0 -.13333 0 263.653)"/>
</svg>
