<svg width="64" height="40" viewBox="0 0 64 40" fill="none" xmlns="http://www.w3.org/2000/svg">
<rect width="64" height="40" fill="url(#paint0_linear_1_142)"/>
<path fill-rule="evenodd" clip-rule="evenodd" d="M21.4769 19.1537H32.9951C32.8924 16.7287 32.3121 14.2285 30.5528 12.6225C28.457 10.7097 24.7862 10 21.506 10C18.0921 10 14.3163 10.7784 12.2095 12.8309C10.3926 14.5988 10 17.4435 10 19.9996C10 22.6767 10.7684 25.791 12.7392 27.5848C14.8349 29.4934 18.2311 30 21.506 30C24.6874 30 28.1337 29.4278 30.2174 27.6159C32.2951 25.806 33.0131 22.7573 33.0131 19.9996V19.9867H21.4769V19.1537ZM33.7674 19.9871V29.5528H49.7903V29.5399C52.1349 29.4155 54 27.3565 54 24.8286C54 22.2993 52.1349 20.1083 49.7903 19.9829V19.9871H33.7674ZM49.6081 10.4004C51.8932 10.4004 53.707 12.3317 53.707 14.7685C53.707 17.0754 52.0411 18.9593 49.9224 19.1537H33.7674V10.3865H49.1025C49.1968 10.3752 49.3067 10.3831 49.4142 10.3909C49.4813 10.3958 49.5473 10.4004 49.6081 10.4004Z" fill="#FEFEFE"/>
<defs>
<linearGradient id="paint0_linear_1_142" x1="16.8591" y1="-6.46477" x2="2.89672" y2="39.8605" gradientUnits="userSpaceOnUse">
<stop stop-color="#222E72"/>
<stop offset="0.591647" stop-color="#40CBFF"/>
<stop offset="1" stop-color="#3CB792"/>
</linearGradient>
</defs>
</svg>
