<svg width="147" height="135" viewBox="0 0 147 135" fill="none" xmlns="http://www.w3.org/2000/svg">
    <rect x="31.5444" width="83.9111" height="128" rx="4.59053" fill="#F7EDF7" />
    <g filter="url(#filter0_d_4501_111)">
        <rect width="81.7778" height="92.4444" rx="4.30362" transform="matrix(-1 0 0 1 91.2778 18.8444)" fill="white" />
    </g>
    <path fill-rule="evenodd" clip-rule="evenodd"
        d="M47.4759 30.2223H22.6425C21.0709 30.2223 19.7987 31.4622 19.8111 32.9669V42.1154C19.8111 43.6321 21.0834 44.86 22.6549 44.86H34.4168L39.7926 47.749L38.5703 44.86H47.4759C49.0475 44.86 50.3197 43.6321 50.3197 42.1154V32.9669C50.3197 31.4501 49.0475 30.2223 47.4759 30.2223ZM22.1189 32.3408C21.7697 32.3648 21.5078 32.4852 21.3332 32.7139C21.1585 32.9306 21.0962 33.2075 21.1336 33.5204C21.8695 38.0345 22.5555 41.08 23.1916 42.657C23.4411 43.2348 23.7279 43.5116 24.0647 43.4876C24.5885 43.4514 25.2122 42.7533 25.9481 41.393C26.3347 40.6226 26.9334 39.467 27.7441 37.9262C28.4177 40.2013 29.3407 41.9106 30.5006 43.0542C30.8249 43.3792 31.1617 43.5237 31.486 43.4996C31.7728 43.4755 31.9974 43.3311 32.147 43.0662C32.2718 42.8375 32.3216 42.5727 32.2967 42.2718C32.2219 41.1763 32.3341 39.6476 32.6459 37.6854C32.9702 35.6631 33.3694 34.2066 33.8558 33.3399C33.9556 33.1593 33.993 32.9788 33.9805 32.7621C33.9556 32.4852 33.8309 32.2565 33.5939 32.0759C33.3569 31.8954 33.095 31.8111 32.8081 31.8352C32.4464 31.8593 32.172 32.0278 31.9849 32.3648C31.2116 33.7251 30.6628 35.928 30.3385 38.9855C29.8645 37.8299 29.4654 36.4696 29.1536 34.8687C29.0164 34.1584 28.6796 33.8214 28.1308 33.8575C27.7566 33.8816 27.4448 34.1223 27.1953 34.5798L24.4638 39.5994C24.0148 37.854 23.5907 35.7233 23.2041 33.2075C23.1168 32.5815 22.755 32.2926 22.1189 32.3408ZM46.1539 33.2075C47.0394 33.3881 47.7005 33.8455 48.1495 34.6039C48.5486 35.2539 48.7482 36.0363 48.7482 36.9753C48.7482 38.2151 48.4239 39.3467 47.7753 40.3819C47.027 41.5857 46.0541 42.1875 44.8442 42.1875C44.6322 42.1875 44.4077 42.1635 44.1707 42.1153C43.2852 41.9348 42.6241 41.4773 42.1751 40.719C41.776 40.0569 41.5764 39.2624 41.5764 38.3355C41.5764 37.0956 41.9007 35.9641 42.5493 34.9409C43.3101 33.7372 44.283 33.1353 45.4803 33.1353C45.6924 33.1353 45.9169 33.1594 46.1539 33.2075ZM45.63 39.7198C46.0915 39.3226 46.4033 38.7328 46.5779 37.9383C46.6278 37.6614 46.6653 37.3605 46.6653 37.0475C46.6653 36.6984 46.5904 36.3252 46.4407 35.9521C46.2537 35.4826 46.0042 35.2298 45.7049 35.1696C45.2558 35.0854 44.8193 35.3261 44.4077 35.916C44.0709 36.3734 43.8589 36.8549 43.7466 37.3484C43.6843 37.6253 43.6593 37.9262 43.6593 38.2272C43.6593 38.5763 43.7342 38.9494 43.8838 39.3226C44.0709 39.7921 44.3204 40.0449 44.6197 40.105C44.9316 40.1652 45.2683 40.0328 45.63 39.7198ZM40.3282 34.6039C39.8791 33.8455 39.2056 33.3881 38.3325 33.2075C38.0955 33.1594 37.871 33.1353 37.659 33.1353C36.4616 33.1353 35.4887 33.7372 34.7279 34.9409C34.0793 35.9641 33.755 37.0956 33.755 38.3355C33.755 39.2624 33.9546 40.0569 34.3537 40.719C34.8028 41.4773 35.4638 41.9348 36.3494 42.1153C36.5863 42.1635 36.8109 42.1875 37.0229 42.1875C38.2327 42.1875 39.2056 41.5857 39.954 40.3819C40.6026 39.3467 40.9268 38.2151 40.9268 36.9753C40.9268 36.0363 40.7273 35.2539 40.3282 34.6039ZM38.7566 37.9383C38.582 38.7328 38.2702 39.3226 37.8087 39.7198C37.447 40.0328 37.1102 40.1652 36.7984 40.105C36.499 40.0449 36.2496 39.7921 36.0625 39.3226C35.9128 38.9494 35.838 38.5763 35.838 38.2272C35.838 37.9262 35.8629 37.6253 35.9253 37.3484C36.0375 36.8549 36.2496 36.3734 36.5863 35.916C36.9979 35.3261 37.4345 35.0854 37.8835 35.1696C38.1829 35.2298 38.4323 35.4826 38.6194 35.9521C38.7691 36.3252 38.8439 36.6984 38.8439 37.0475C38.8439 37.3605 38.819 37.6614 38.7566 37.9383Z"
        fill="#7F54B3" />
    <path
        d="M52.8251 32.7262H55.4696C56.4004 32.7262 57.148 32.9895 57.7121 33.5161C58.2763 34.0427 58.5584 34.7371 58.5584 35.5993C58.5584 36.5081 58.2716 37.2211 57.698 37.7384C57.1292 38.2511 56.3393 38.5074 55.3285 38.5074H54.9618V42.0586H52.8251V32.7262ZM54.9618 34.5158V36.7178C55.4414 36.7085 55.794 36.6176 56.0196 36.4452C56.25 36.2727 56.3652 36.0001 56.3652 35.6273C56.3652 35.2265 56.2547 34.9445 56.0337 34.7814C55.8128 34.6136 55.4555 34.5251 54.9618 34.5158Z"
        fill="#1E1E1E" />
    <path
        d="M65.493 42.0586H63.2716L62.9119 40.4997H60.6553L60.2815 42.0586H58.1025L60.5989 32.7262H62.9966L65.493 42.0586ZM62.5029 38.8219C62.1832 37.4332 61.9434 36.1119 61.7836 34.8583H61.7554C61.5861 36.1492 61.3487 37.4704 61.0431 38.8219H62.5029Z"
        fill="#1E1E1E" />
    <path
        d="M64.5432 32.7262H66.9409C67.4721 34.0684 67.8576 35.103 68.0974 35.83H68.1256C68.3654 35.0843 68.7462 34.0497 69.268 32.7262H71.7221L69.1975 37.8363V42.0586H67.0325V37.8363L64.5432 32.7262Z"
        fill="#1E1E1E" />
    <rect x="19.811" y="92.0887" width="38.0444" height="11.3778" rx="1.72145" fill="#674399" />
    <rect x="19.811" y="56.1779" width="25.6" height="4.26667" rx="2.13333" fill="#DCDCDE" />
    <rect x="19.811" y="70.4001" width="61.1556" height="4.26666" rx="2.13333" fill="#DCDCDE" />
    <rect x="19.811" y="79.6443" width="61.1556" height="4.26666" rx="2.13333" fill="#DCDCDE" />
    <g filter="url(#filter1_d_4501_111)">
        <rect x="55.7223" y="48.3556" width="81.4222" height="28.4444" rx="4.30362" fill="white" />
        <rect x="80.1094" y="54.0938" width="6.59889" height="2.29526" rx="1.14763" fill="#DCDCDE" />
        <rect x="80.1094" y="58.6842" width="33.2813" height="2.29526" rx="1.14763" fill="#DCDCDE" />
        <rect x="80.1094" y="63.2748" width="22.0919" height="2.29526" rx="1.14763" fill="#AF7DD1" />
        <path fill-rule="evenodd" clip-rule="evenodd"
            d="M77.808 56.0787C77.977 56.0787 78.1229 56.2013 78.146 56.3699C78.3764 57.994 78.484 59.6457 78.3879 61.3084C78.2765 62.9559 78.0038 64.6263 77.3317 66.1703C76.6941 67.722 75.6955 69.1396 74.4088 70.2315C73.775 70.787 73.0453 71.2276 72.2848 71.5763C71.5938 71.8761 70.8654 72.0985 70.1138 72.1624C70.0818 72.1679 70.065 72.1702 70.065 72.1702C70.0614 72.1692 70.0578 72.1682 70.0541 72.1671C69.99 72.1719 69.9257 72.1754 69.8612 72.1778H69.8574C69.8458 72.1778 69.8382 72.1778 69.8266 72.174C68.2788 71.7602 66.7962 71.0169 65.6094 69.9097C64.4187 68.8139 63.543 67.4078 62.9668 65.8983C62.3907 64.3888 62.0988 62.7911 61.9836 61.1897C61.876 59.5844 61.926 57.979 62.1718 56.3737C62.191 56.2396 62.31 56.1477 62.4406 56.1554H62.456C63.1243 56.2052 63.7965 56.1669 64.4533 56.0481C65.11 55.9255 65.7515 55.7263 66.3622 55.4504C66.9729 55.1745 67.5528 54.8336 68.0944 54.4351C68.6283 54.0367 69.1468 53.5769 69.5654 53.0903L69.5693 53.0865C69.6807 52.9562 69.8766 52.9409 70.0071 53.052C70.0225 53.0635 70.0379 53.0788 70.0494 53.0942C70.4873 53.6459 71.0173 54.1171 71.6165 54.4926C72.2233 54.8719 72.8724 55.1745 73.5523 55.4006C74.2359 55.6266 74.9388 55.7952 75.6532 55.9063C76.3638 56.0213 77.082 56.0787 77.8041 56.0787H77.808Z"
            fill="#9A69C7" />
        <mask id="mask0_4501_111" style="mask-type:alpha" maskUnits="userSpaceOnUse" x="66" y="57" width="8"
            height="10">
            <path fill-rule="evenodd" clip-rule="evenodd"
                d="M72.361 60.2074H72.7941C73.2727 60.2074 73.6603 60.5787 73.6603 61.037V65.1852C73.6603 65.6435 73.2727 66.0148 72.7941 66.0148H67.5967C67.1181 66.0148 66.7305 65.6435 66.7305 65.1852V61.037C66.7305 60.5787 67.1181 60.2074 67.5967 60.2074H68.0298V59.7926C68.0298 58.6489 69.0013 57.7185 70.1954 57.7185C71.3895 57.7185 72.361 58.6489 72.361 59.7926V60.2074ZM70.1954 58.5482C69.4791 58.5482 68.8961 59.1065 68.8961 59.7926V60.2075H71.4948V59.7926C71.4948 59.1065 70.9118 58.5482 70.1954 58.5482Z"
                fill="white" />
        </mask>
        <g mask="url(#mask0_4501_111)">
            <rect x="64.998" y="56.8889" width="10.3948" height="9.95555" fill="white" />
        </g>
        <path d="M68.6512 63.2547L69.7638 64.3499L71.9889 62.1595" stroke="#9A69C7" stroke-width="0.810869"
            stroke-linecap="round" />
    </g>
    <g filter="url(#filter2_d_4501_111)">
        <path
            d="M83.9588 120.41L79.0415 98.5062C78.824 97.5372 79.8564 96.7681 80.7226 97.2538L99.9758 108.05C100.868 108.55 100.709 109.88 99.7243 110.156L90.9018 112.63C90.6044 112.713 90.3532 112.913 90.2049 113.184L86.0852 120.71C85.5772 121.638 84.1905 121.443 83.9588 120.41Z"
            fill="#9A69C7" />
    </g>
    <defs>
        <filter id="filter0_d_4501_111" x="0.318942" y="9.6633" width="100.14" height="110.807"
            filterUnits="userSpaceOnUse" color-interpolation-filters="sRGB">
            <feFlood flood-opacity="0" result="BackgroundImageFix" />
            <feColorMatrix in="SourceAlpha" type="matrix" values="0 0 0 0 0 0 0 0 0 0 0 0 0 0 0 0 0 0 127 0"
                result="hardAlpha" />
            <feOffset />
            <feGaussianBlur stdDeviation="4.59053" />
            <feColorMatrix type="matrix" values="0 0 0 0 0 0 0 0 0 0 0 0 0 0 0 0 0 0 0.1 0" />
            <feBlend mode="normal" in2="BackgroundImageFix" result="effect1_dropShadow_4501_111" />
            <feBlend mode="normal" in="SourceGraphic" in2="effect1_dropShadow_4501_111" result="shape" />
        </filter>
        <filter id="filter1_d_4501_111" x="46.5412" y="42.0436" width="99.7844" height="46.8066"
            filterUnits="userSpaceOnUse" color-interpolation-filters="sRGB">
            <feFlood flood-opacity="0" result="BackgroundImageFix" />
            <feColorMatrix in="SourceAlpha" type="matrix" values="0 0 0 0 0 0 0 0 0 0 0 0 0 0 0 0 0 0 127 0"
                result="hardAlpha" />
            <feOffset dy="2.86908" />
            <feGaussianBlur stdDeviation="4.59053" />
            <feComposite in2="hardAlpha" operator="out" />
            <feColorMatrix type="matrix" values="0 0 0 0 0 0 0 0 0 0 0 0 0 0 0 0 0 0 0.1 0" />
            <feBlend mode="normal" in2="BackgroundImageFix" result="effect1_dropShadow_4501_111" />
            <feBlend mode="normal" in="SourceGraphic" in2="effect1_dropShadow_4501_111" result="shape" />
        </filter>
        <filter id="filter2_d_4501_111" x="68.7647" y="90.059" width="42.0451" height="44.6977"
            filterUnits="userSpaceOnUse" color-interpolation-filters="sRGB">
            <feFlood flood-opacity="0" result="BackgroundImageFix" />
            <feColorMatrix in="SourceAlpha" type="matrix" values="0 0 0 0 0 0 0 0 0 0 0 0 0 0 0 0 0 0 127 0"
                result="hardAlpha" />
            <feOffset dy="3.20231" />
            <feGaussianBlur stdDeviation="5.1237" />
            <feComposite in2="hardAlpha" operator="out" />
            <feColorMatrix type="matrix" values="0 0 0 0 0 0 0 0 0 0 0 0 0 0 0 0 0 0 0.1 0" />
            <feBlend mode="normal" in2="BackgroundImageFix" result="effect1_dropShadow_4501_111" />
            <feBlend mode="normal" in="SourceGraphic" in2="effect1_dropShadow_4501_111" result="shape" />
        </filter>
    </defs>
</svg>