<svg
    width="270"
    height="153"
    viewBox="0 0 270 153"
    fill="none"
    xmlns="http://www.w3.org/2000/svg"
>
    <g clipPath="url(#clip0)">
        <path
            d="M245.953 19.3318C277.1 36.1433 277.597 103.556 245.953 138.048C224.706 161.207 57.8009 151.292 38.1305 144.092C25.3019 139.396 0.499886 133.235 0.5 103.556C0.500134 68.6934 44.5748 58.3111 85.1684 45.8022C134.772 30.5169 155.298 -29.5984 245.953 19.3318Z"
            fill="#E6F2F8"
            fillOpacity="0.5"
        />
        <g filter="url(#filter0_d)">
            <path
                d="M220.296 126.5H60.7041C59.8547 126.499 59.0402 126.157 58.4395 125.55C57.8388 124.942 57.501 124.118 57.5 123.259V34.7414C57.5009 33.882 57.8388 33.0581 58.4395 32.4505C59.0402 31.8428 59.8546 31.501 60.7041 31.5H220.296C221.145 31.501 221.96 31.8428 222.56 32.4505C223.161 33.0581 223.499 33.882 223.5 34.7414V123.259C223.499 124.118 223.161 124.942 222.56 125.55C221.96 126.157 221.145 126.499 220.296 126.5Z"
                fill="white"
            />
        </g>
        <path
            d="M189.5 46.5H188.5V48.5H189.5V46.5Z"
            fill="#E5E5E5"
        />
        <path
            d="M189.5 117.5H188.5V114.674H189.5V117.5ZM189.5 111.848H188.5V109.022H189.5V111.848ZM189.5 106.196H188.5V103.37H189.5V106.196ZM189.5 100.543H188.5V97.7174H189.5V100.543ZM189.5 94.8913H188.5V92.0652H189.5V94.8913ZM189.5 89.2392H188.5V86.413H189.5V89.2392ZM189.5 83.587H188.5V80.7608H189.5V83.587ZM189.5 77.9348H188.5V75.1087H189.5V77.9348ZM189.5 72.2826H188.5V69.4565H189.5V72.2826ZM189.5 66.6305H188.5V63.8043H189.5V66.6305ZM189.5 60.9783H188.5V58.1522H189.5V60.9783ZM189.5 55.3261H188.5V52.5H189.5V55.3261Z"
            fill="#E5E5E5"
        />
        <g clipPath="url(#clip1)">
            <path
                d="M165 117.5H164V114.674H165V117.5ZM165 111.848H164V109.022H165V111.848ZM165 106.196H164V103.37H165V106.196ZM165 100.543H164V97.7174H165V100.543ZM165 94.8913H164V92.0652H165V94.8913ZM165 89.2392H164V86.413H165V89.2392ZM165 83.587H164V80.7608H165V83.587ZM165 77.9348H164V75.1087H165V77.9348ZM165 72.2826H164V69.4565H165V72.2826ZM165 66.6305H164V63.8043H165V66.6305ZM165 60.9783H164V58.1522H165V60.9783ZM165 55.3261H164V52.5H165V55.3261Z"
                fill="#E5E5E5"
            />
        </g>
        <g clipPath="url(#clip2)">
            <path
                d="M139 117.5H138V114.674H139V117.5ZM139 111.848H138V109.022H139V111.848ZM139 106.196H138V103.37H139V106.196ZM139 100.543H138V97.7174H139V100.543ZM139 94.8913H138V92.0652H139V94.8913ZM139 89.2392H138V86.413H139V89.2392ZM139 83.587H138V80.7608H139V83.587ZM139 77.9348H138V75.1087H139V77.9348ZM139 72.2826H138V69.4565H139V72.2826ZM139 66.6305H138V63.8043H139V66.6305ZM139 60.9783H138V58.1522H139V60.9783ZM139 55.3261H138V52.5H139V55.3261Z"
                fill="#E5E5E5"
            />
        </g>
        <g clipPath="url(#clip3)">
            <path
                d="M114 117.5H113V114.674H114V117.5ZM114 111.848H113V109.022H114V111.848ZM114 106.196H113V103.37H114V106.196ZM114 100.543H113V97.7174H114V100.543ZM114 94.8913H113V92.0652H114V94.8913ZM114 89.2392H113V86.413H114V89.2392ZM114 83.587H113V80.7608H114V83.587ZM114 77.9348H113V75.1087H114V77.9348ZM114 72.2826H113V69.4565H114V72.2826ZM114 66.6305H113V63.8043H114V66.6305ZM114 60.9783H113V58.1522H114V60.9783ZM114 55.3261H113V52.5H114V55.3261Z"
                fill="#E5E5E5"
            />
        </g>
        <g clipPath="url(#clip4)">
            <path
                d="M88 117.5H87V114.674H88V117.5ZM88 111.848H87V109.022H88V111.848ZM88 106.196H87V103.37H88V106.196ZM88 100.543H87V97.7174H88V100.543ZM88 94.8913H87V92.0652H88V94.8913ZM88 89.2392H87V86.413H88V89.2392ZM88 83.587H87V80.7608H88V83.587ZM88 77.9348H87V75.1087H88V77.9348ZM88 72.2826H87V69.4565H88V72.2826ZM88 66.6305H87V63.8043H88V66.6305ZM88 60.9783H87V58.1522H88V60.9783ZM88 55.3261H87V52.5H88V55.3261Z"
                fill="#E5E5E5"
            />
        </g>
        <path
            d="M214.024 121.5H61.9759C61.8497 121.5 61.7286 121.449 61.6394 121.358C61.5501 121.268 61.5 121.145 61.5 121.017V46.9834C61.5 46.8552 61.5501 46.7322 61.6394 46.6416C61.7286 46.5509 61.8497 46.5 61.9759 46.5C62.1021 46.5 62.2231 46.5509 62.3123 46.6416C62.4015 46.7322 62.4517 46.8552 62.4517 46.9834V120.533H214.024C214.15 120.533 214.271 120.584 214.361 120.675C214.45 120.765 214.5 120.888 214.5 121.017C214.5 121.145 214.45 121.268 214.361 121.358C214.271 121.449 214.15 121.5 214.024 121.5V121.5Z"
            fill="black"
        />
        <path
            d="M138.615 86.5L113.171 67.0004L88.0744 86.2337L87.5 85.4492L113.171 65.7759L138.494 85.1829L163.658 57.0065L163.759 56.9644L189.142 46.5L189.5 47.4096L164.218 57.832L138.615 86.5Z"
            fill="black"
        />
        <path
            d="M87.5 89C88.8807 89 90 87.8807 90 86.5C90 85.1193 88.8807 84 87.5 84C86.1193 84 85 85.1193 85 86.5C85 87.8807 86.1193 89 87.5 89Z"
            fill="#007CBA"
        />
        <path
            d="M113.5 69C114.881 69 116 67.8807 116 66.5C116 65.1193 114.881 64 113.5 64C112.119 64 111 65.1193 111 66.5C111 67.8807 112.119 69 113.5 69Z"
            fill="#007CBA"
        />
        <path
            d="M138.5 88C139.881 88 141 86.8807 141 85.5C141 84.1193 139.881 83 138.5 83C137.119 83 136 84.1193 136 85.5C136 86.8807 137.119 88 138.5 88Z"
            fill="#007CBA"
        />
        <path
            d="M164.5 60C165.881 60 167 58.8807 167 57.5C167 56.1193 165.881 55 164.5 55C163.119 55 162 56.1193 162 57.5C162 58.8807 163.119 60 164.5 60Z"
            fill="#007CBA"
        />
        <path
            d="M189 49.5C190.381 49.5 191.5 48.3807 191.5 47C191.5 45.6193 190.381 44.5 189 44.5C187.619 44.5 186.5 45.6193 186.5 47C186.5 48.3807 187.619 49.5 189 49.5Z"
            fill="#007CBA"
        />
        <g filter="url(#filter1_d)">
            <rect
                x="179.5"
                y="90.5"
                width="56"
                height="50"
                fill="white"
            />
        </g>
        <path
            d="M214.5 99.5H186.5V103.5H214.5V99.5Z"
            fill="#007CBA"
        />
        <path
            d="M224.5 109H186.5V113H224.5V109Z"
            fill="#007CBA"
        />
        <path
            d="M220.5 119H186.5V123H220.5V119Z"
            fill="#007CBA"
        />
        <path
            d="M228.5 129H186.5V133H228.5V129Z"
            fill="#007CBA"
        />
    </g>
    <defs>
        <filter
            id="filter0_d"
            x="51.5"
            y="27.5"
            width="178"
            height="107"
            filterUnits="userSpaceOnUse"
            colorInterpolationFilters="sRGB"
        >
            <feFlood
                floodOpacity="0"
                result="BackgroundImageFix"
            />
            <feColorMatrix
                in="SourceAlpha"
                type="matrix"
                values="0 0 0 0 0 0 0 0 0 0 0 0 0 0 0 0 0 0 127 0"
            />
            <feOffset dy="2" />
            <feGaussianBlur stdDeviation="3" />
            <feColorMatrix
                type="matrix"
                values="0 0 0 0 0 0 0 0 0 0 0 0 0 0 0 0 0 0 0.05 0"
            />
            <feBlend
                mode="normal"
                in2="BackgroundImageFix"
                result="effect1_dropShadow"
            />
            <feBlend
                mode="normal"
                in="SourceGraphic"
                in2="effect1_dropShadow"
                result="shape"
            />
        </filter>
        <filter
            id="filter1_d"
            x="173.5"
            y="86.5"
            width="68"
            height="62"
            filterUnits="userSpaceOnUse"
            colorInterpolationFilters="sRGB"
        >
            <feFlood
                floodOpacity="0"
                result="BackgroundImageFix"
            />
            <feColorMatrix
                in="SourceAlpha"
                type="matrix"
                values="0 0 0 0 0 0 0 0 0 0 0 0 0 0 0 0 0 0 127 0"
            />
            <feOffset dy="2" />
            <feGaussianBlur stdDeviation="3" />
            <feColorMatrix
                type="matrix"
                values="0 0 0 0 0 0 0 0 0 0 0 0 0 0 0 0 0 0 0.05 0"
            />
            <feBlend
                mode="normal"
                in2="BackgroundImageFix"
                result="effect1_dropShadow"
            />
            <feBlend
                mode="normal"
                in="SourceGraphic"
                in2="effect1_dropShadow"
                result="shape"
            />
        </filter>
        <clipPath id="clip0">
            <rect
                width="269"
                height="152"
                fill="white"
                transform="translate(0.5 0.5)"
            />
        </clipPath>
        <clipPath id="clip1">
            <rect
                width="1"
                height="53"
                fill="white"
                transform="translate(164 64)"
            />
        </clipPath>
        <clipPath id="clip2">
            <rect
                width="1"
                height="27"
                fill="white"
                transform="translate(138 90)"
            />
        </clipPath>
        <clipPath id="clip3">
            <rect
                width="1"
                height="45"
                fill="white"
                transform="translate(113 72)"
            />
        </clipPath>
        <clipPath id="clip4">
            <rect
                width="1"
                height="25"
                fill="white"
                transform="translate(87 92)"
            />
        </clipPath>
    </defs>
</svg>