<svg width="270" height="173" viewBox="0 0 270 173" fill="none" xmlns="http://www.w3.org/2000/svg">
<g clip-path="url(#clip0)">
<path opacity="0.1" d="M264.948 134.679C258.283 148.07 244.749 157.025 230.724 162.93C211.843 170.883 191.05 174.038 170.543 172.704C166.949 172.471 163.366 172.099 159.794 171.587C147.388 169.824 135.293 166.394 123.855 161.394C120.554 159.946 117.32 158.365 114.152 156.651C108.862 153.795 103.793 150.566 98.9859 146.99C97.7768 146.091 96.5845 145.169 95.4088 144.225C94.5936 143.57 93.7858 142.9 92.9655 142.25C91.2347 140.88 89.4537 139.577 87.4669 138.603C86.8675 138.308 86.2529 138.044 85.6257 137.811C79.3344 135.48 72.0798 136.36 65.5302 138.177C60.5483 139.56 55.6918 141.454 50.715 142.805C48.5013 143.424 46.2456 143.891 43.9646 144.203C38.8721 144.83 33.7005 144.388 28.7983 142.905L28.3794 142.778C27.677 142.563 26.9805 142.328 26.2898 142.072L25.8709 141.916C25.202 141.665 24.5472 141.395 23.9067 141.107L23.4878 140.921C22.8189 140.618 22.1642 140.298 21.5237 139.961C21.2929 139.844 21.0646 139.717 20.8389 139.597C17.1947 137.615 13.8822 135.103 11.0156 132.147C10.9328 132.067 10.8551 131.984 10.7648 131.903C10.3659 131.483 9.97458 131.055 9.59579 130.618C9.45532 130.457 9.31484 130.295 9.17687 130.129C8.72702 129.595 8.29305 129.048 7.87497 128.49C7.81225 128.409 7.75205 128.326 7.69185 128.245C5.97894 125.937 4.55886 123.436 3.46253 120.796C3.42741 120.715 3.3948 120.632 3.3647 120.551C3.03023 119.713 2.72503 118.86 2.4491 117.993C2.33622 117.632 2.22835 117.26 2.13303 116.899C2.10042 116.791 2.07031 116.681 2.04272 116.574C0.658034 111.265 0.5 105.745 0.5 100.257C0.5 99.6173 0.5 98.978 0.5 98.3395C0.540136 89.463 0.68061 80.435 2.02516 71.6807C2.02516 71.6196 2.04272 71.5585 2.05276 71.4999C2.50277 68.5527 3.11489 65.6312 3.88646 62.748C4.694 59.7227 5.72603 56.7585 6.97442 53.8788C10.0674 46.7933 14.5651 40.3454 19.5595 34.3691C32.1396 19.3306 48.638 6.7061 67.9483 1.98077C88.7563 -3.10862 111.882 1.7682 128.666 14.7836C133.784 18.7516 138.382 23.45 144.129 26.4919C149.146 29.1404 155.018 30.2375 160.391 28.1534C164.831 26.4308 167.721 25.5757 172.708 25.8371C183.032 26.406 193.21 28.4823 202.9 31.9967C203.292 32.1359 203.683 32.2801 204.072 32.4242C229.335 41.8383 251.051 60.5417 262.339 84.5764C262.638 85.2117 262.928 85.8518 263.209 86.4968C269.94 101.809 272.373 119.755 264.948 134.679Z" fill="#007CBA" fill-opacity="0.5"/>
<path d="M100.728 97.5002H77.2766C75.8772 97.5002 74.535 98.0797 73.5455 99.1111C72.5559 100.143 72 101.542 72 103C72 104.459 72.5559 105.858 73.5455 106.889C74.535 107.921 75.8772 108.5 77.2766 108.5H100.728C102.127 108.499 103.468 107.919 104.456 106.888C105.445 105.856 106 104.458 106 103C106 101.542 105.445 100.144 104.456 99.113C103.468 98.0817 102.127 97.5016 100.728 97.5002Z" fill="#E6F2F8"/>
<g filter="url(#filter0_d)">
<path d="M205.487 41.5002H75.5133C74.0014 41.5002 72.5042 41.8037 71.1074 42.3934C69.7105 42.983 68.4413 43.8472 67.3722 44.9368C66.303 46.0263 65.455 47.3197 64.8764 48.7432C64.2978 50.1667 64 51.6925 64 53.2333V117.767C64 120.879 65.213 123.863 67.3722 126.064C69.5313 128.264 72.4598 129.5 75.5133 129.5H205.487C206.999 129.5 208.496 129.197 209.893 128.607C211.289 128.017 212.559 127.153 213.628 126.064C214.697 124.974 215.545 123.681 216.124 122.257C216.702 120.834 217 119.308 217 117.767V53.2333C217 51.6925 216.702 50.1667 216.124 48.7432C215.545 47.3197 214.697 46.0263 213.628 44.9368C212.559 43.8473 211.289 42.983 209.893 42.3934C208.496 41.8037 206.999 41.5002 205.487 41.5002ZM72.2976 49.504C72.5543 49.4567 78.6403 48.4012 83.6799 51.4915C88.7192 54.5812 90.6554 60.5559 90.7352 60.8085L90.9389 61.4528L90.285 61.571C89.352 61.7194 88.4087 61.79 87.4645 61.7821C85.1757 61.7821 81.8592 61.3962 78.9023 59.5829C73.863 56.4937 71.9271 50.5191 71.8473 50.2664L71.6436 49.6222L72.2976 49.504ZM100.511 109.42H77.3296C75.6388 109.42 74.0173 108.735 72.8218 107.517C71.6262 106.299 70.9546 104.646 70.9546 102.923C70.9546 101.2 71.6262 99.5476 72.8218 98.3292C74.0173 97.1109 75.6388 96.4264 77.3296 96.4264H100.511C102.202 96.4264 103.824 97.1109 105.019 98.3292C106.215 99.5476 106.886 101.2 106.886 102.923C106.886 104.646 106.215 106.299 105.019 107.517C103.824 108.735 102.202 109.42 100.511 109.42ZM205.989 108.238C205.983 110.116 205.249 111.916 203.946 113.244C202.643 114.572 200.877 115.32 199.034 115.326H181.648C179.805 115.32 178.039 114.572 176.736 113.244C175.433 111.916 174.699 110.116 174.693 108.238V97.6076C174.699 95.7297 175.433 93.9302 176.736 92.6023C178.039 91.2743 179.805 90.5259 181.648 90.5204H199.034C200.877 90.5259 202.643 91.2743 203.946 92.6023C205.249 93.9302 205.983 95.7297 205.989 97.6076L205.989 108.238Z" fill="white"/>
</g>
<path d="M187.075 106.5H179.925C179.414 106.5 178.925 106.711 178.564 107.086C178.203 107.461 178 107.97 178 108.5C178 109.031 178.203 109.539 178.564 109.914C178.925 110.29 179.414 110.5 179.925 110.5H187.075C187.586 110.5 188.075 110.29 188.436 109.914C188.797 109.539 189 109.031 189 108.5C189 107.97 188.797 107.461 188.436 107.086C188.075 106.711 187.586 106.5 187.075 106.5ZM187.075 109.357H179.925C179.816 109.358 179.709 109.336 179.609 109.293C179.508 109.25 179.417 109.187 179.34 109.107C179.264 109.027 179.203 108.933 179.161 108.829C179.119 108.725 179.098 108.613 179.098 108.5C179.098 108.388 179.119 108.276 179.161 108.172C179.203 108.068 179.264 107.973 179.34 107.893C179.417 107.814 179.508 107.751 179.609 107.708C179.709 107.665 179.816 107.643 179.925 107.643H187.075C187.184 107.643 187.291 107.665 187.391 107.708C187.492 107.751 187.583 107.814 187.66 107.893C187.736 107.973 187.797 108.068 187.839 108.172C187.88 108.276 187.902 108.388 187.902 108.5C187.902 108.613 187.88 108.725 187.839 108.829C187.797 108.933 187.736 109.027 187.66 109.107C187.583 109.187 187.492 109.25 187.391 109.293C187.291 109.336 187.184 109.358 187.075 109.357Z" fill="#FEFEFE"/>
<path d="M200.901 106.5H193.103C192.827 106.5 192.553 106.551 192.298 106.652C192.043 106.752 191.811 106.899 191.616 107.085C191.421 107.271 191.266 107.491 191.16 107.734C191.054 107.977 191 108.237 191 108.5C191 108.763 191.054 109.023 191.16 109.266C191.266 109.509 191.421 109.73 191.616 109.916C191.811 110.101 192.043 110.249 192.298 110.349C192.553 110.449 192.827 110.501 193.103 110.5H200.901C201.457 110.5 201.991 110.29 202.385 109.914C202.779 109.539 203 109.031 203 108.5C203 107.97 202.779 107.461 202.385 107.086C201.991 106.711 201.457 106.5 200.901 106.5ZM200.901 109.357H193.103C192.984 109.358 192.867 109.336 192.758 109.293C192.648 109.25 192.549 109.187 192.465 109.107C192.381 109.027 192.315 108.933 192.269 108.829C192.224 108.725 192.201 108.613 192.201 108.5C192.201 108.388 192.224 108.276 192.269 108.172C192.315 108.068 192.381 107.973 192.465 107.893C192.549 107.814 192.648 107.751 192.758 107.708C192.867 107.665 192.984 107.643 193.103 107.643H200.901C201.139 107.644 201.367 107.734 201.535 107.895C201.704 108.056 201.798 108.273 201.798 108.5C201.798 108.727 201.704 108.945 201.535 109.106C201.367 109.266 201.139 109.357 200.901 109.357Z" fill="#FEFEFE"/>
<path d="M187.073 101.5H179.924C179.414 101.5 178.925 101.658 178.564 101.94C178.203 102.221 178 102.602 178 103C178 103.398 178.203 103.78 178.564 104.061C178.925 104.342 179.414 104.5 179.924 104.5H187.073C187.326 104.501 187.576 104.462 187.81 104.387C188.044 104.311 188.256 104.201 188.435 104.062C188.614 103.922 188.756 103.757 188.853 103.575C188.95 103.393 189 103.197 189 103C189 102.803 188.95 102.608 188.853 102.426C188.756 102.244 188.614 102.078 188.435 101.939C188.256 101.799 188.044 101.689 187.81 101.614C187.576 101.539 187.326 101.5 187.073 101.5ZM187.073 103.643H179.924C179.706 103.643 179.496 103.575 179.341 103.455C179.187 103.334 179.1 103.171 179.1 103C179.1 102.83 179.187 102.666 179.341 102.546C179.496 102.425 179.706 102.357 179.924 102.357H187.073C187.291 102.357 187.501 102.425 187.656 102.546C187.81 102.666 187.897 102.83 187.897 103C187.897 103.171 187.81 103.334 187.656 103.455C187.501 103.575 187.291 103.643 187.073 103.643Z" fill="#FEFEFE"/>
<path d="M200.901 101.5H193.103C192.827 101.5 192.553 101.539 192.298 101.614C192.043 101.689 191.811 101.799 191.616 101.939C191.421 102.078 191.266 102.244 191.16 102.426C191.054 102.608 191 102.803 191 103C191 103.197 191.054 103.393 191.16 103.575C191.266 103.757 191.421 103.922 191.616 104.062C191.811 104.201 192.043 104.311 192.298 104.387C192.553 104.462 192.827 104.501 193.103 104.5H200.901C201.457 104.5 201.991 104.342 202.385 104.061C202.779 103.78 203 103.398 203 103C203 102.602 202.779 102.221 202.385 101.94C201.991 101.658 201.457 101.5 200.901 101.5ZM200.901 103.643H193.103C192.864 103.643 192.635 103.575 192.466 103.455C192.298 103.334 192.203 103.171 192.203 103C192.203 102.83 192.298 102.666 192.466 102.546C192.635 102.425 192.864 102.357 193.103 102.357H200.901C201.139 102.357 201.368 102.425 201.537 102.546C201.706 102.666 201.8 102.83 201.8 103C201.8 103.171 201.706 103.334 201.537 103.455C201.368 103.575 201.139 103.643 200.901 103.643Z" fill="#FEFEFE"/>
<path d="M187.075 95.5002H179.925C179.414 95.5002 178.925 95.711 178.564 96.086C178.203 96.4611 178 96.9698 178 97.5002C178 98.0307 178.203 98.5394 178.564 98.9145C178.925 99.2895 179.414 99.5002 179.925 99.5002H187.075C187.586 99.5002 188.075 99.2895 188.436 98.9145C188.797 98.5394 189 98.0307 189 97.5002C189 96.9698 188.797 96.4611 188.436 96.086C188.075 95.711 187.586 95.5002 187.075 95.5002ZM187.075 98.3574H179.925C179.706 98.3574 179.496 98.2671 179.342 98.1063C179.187 97.9456 179.1 97.7276 179.1 97.5002C179.1 97.2729 179.187 97.0549 179.342 96.8942C179.496 96.7334 179.706 96.6431 179.925 96.6431H187.075C187.294 96.6431 187.504 96.7334 187.658 96.8942C187.813 97.0549 187.9 97.2729 187.9 97.5002C187.9 97.7276 187.813 97.9456 187.658 98.1063C187.504 98.2671 187.294 98.3574 187.075 98.3574Z" fill="#FEFEFE"/>
<path d="M200.903 95.5002H193.103C192.827 95.4998 192.554 95.5513 192.299 95.6516C192.043 95.7519 191.812 95.8992 191.616 96.085C191.421 96.2707 191.266 96.4913 191.16 96.7342C191.054 96.977 191 97.2373 191 97.5002C191 97.7631 191.054 98.0235 191.16 98.2663C191.266 98.5092 191.421 98.7298 191.616 98.9155C191.812 99.1013 192.043 99.2485 192.299 99.3489C192.554 99.4492 192.827 99.5006 193.103 99.5002H200.903C201.46 99.4994 201.993 99.2884 202.386 98.9134C202.779 98.5384 203 98.0302 203 97.5002C203 96.9703 202.779 96.4621 202.386 96.0871C201.993 95.7121 201.46 95.5011 200.903 95.5002ZM200.903 98.3574H193.103C192.864 98.3574 192.636 98.2671 192.467 98.1063C192.298 97.9456 192.203 97.7276 192.203 97.5002C192.203 97.2729 192.298 97.0549 192.467 96.8942C192.636 96.7334 192.864 96.6431 193.103 96.6431H200.903C201.142 96.6431 201.371 96.7334 201.54 96.8942C201.708 97.0549 201.803 97.2729 201.803 97.5002C201.803 97.7276 201.708 97.9456 201.54 98.1063C201.371 98.2671 201.142 98.3574 200.903 98.3574Z" fill="#FEFEFE"/>
<g filter="url(#filter1_d)">
<path d="M136 129.5C148.15 129.5 158 119.874 158 108C158 96.1259 148.15 86.5 136 86.5C123.85 86.5 114 96.1259 114 108C114 119.874 123.85 129.5 136 129.5Z" fill="#007CBA"/>
<path opacity="0.1" d="M136.5 126.5C146.717 126.5 155 118.217 155 108C155 97.7827 146.717 89.5 136.5 89.5C126.283 89.5 118 97.7827 118 108C118 118.217 126.283 126.5 136.5 126.5Z" fill="black"/>
<path d="M135.682 118.5V115.794C134.286 115.767 132.842 115.284 132 114.614L132.577 112.819C133.578 113.554 134.792 113.958 136.043 113.971C137.751 113.971 138.906 112.873 138.906 111.345C138.906 109.871 137.968 108.96 136.187 108.156C133.733 107.085 132.217 105.852 132.217 103.521C132.217 101.297 133.636 99.6084 135.85 99.2064V96.5H137.342V99.0993C138.455 99.1142 139.54 99.4395 140.471 100.037L139.869 101.806C138.976 101.207 137.919 100.889 136.837 100.895C134.984 100.895 134.286 102.127 134.286 103.199C134.286 104.593 135.176 105.289 137.27 106.254C139.749 107.379 141 108.773 141 111.158C141 113.275 139.676 115.258 137.198 115.713V118.5H135.682Z" fill="white"/>
<path d="M159 150.767C143.751 153.078 128.249 153.078 113 150.767V145.5C128.265 147.577 143.735 147.577 159 145.5V150.767Z" fill="#007CBA"/>
<path d="M159 143.014C143.751 144.995 128.249 144.995 113 143.014V138.5C128.265 140.281 143.735 140.281 159 138.5V143.014Z" fill="#007CBA"/>
<path d="M159 135.519C143.751 138.16 128.249 138.16 113 135.519V129.5C128.265 131.874 143.735 131.874 159 129.5V135.519Z" fill="#007CBA"/>
</g>
</g>
<defs>
<filter id="filter0_d" x="58" y="37.5002" width="165" height="100" filterUnits="userSpaceOnUse" color-interpolation-filters="sRGB">
<feFlood flood-opacity="0" result="BackgroundImageFix"/>
<feColorMatrix in="SourceAlpha" type="matrix" values="0 0 0 0 0 0 0 0 0 0 0 0 0 0 0 0 0 0 127 0"/>
<feOffset dy="2"/>
<feGaussianBlur stdDeviation="3"/>
<feColorMatrix type="matrix" values="0 0 0 0 0 0 0 0 0 0 0 0 0 0 0 0 0 0 0.05 0"/>
<feBlend mode="normal" in2="BackgroundImageFix" result="effect1_dropShadow"/>
<feBlend mode="normal" in="SourceGraphic" in2="effect1_dropShadow" result="shape"/>
</filter>
<filter id="filter1_d" x="107" y="82.5" width="58" height="78" filterUnits="userSpaceOnUse" color-interpolation-filters="sRGB">
<feFlood flood-opacity="0" result="BackgroundImageFix"/>
<feColorMatrix in="SourceAlpha" type="matrix" values="0 0 0 0 0 0 0 0 0 0 0 0 0 0 0 0 0 0 127 0"/>
<feOffset dy="2"/>
<feGaussianBlur stdDeviation="3"/>
<feColorMatrix type="matrix" values="0 0 0 0 0 0 0 0 0 0 0 0 0 0 0 0 0 0 0.05 0"/>
<feBlend mode="normal" in2="BackgroundImageFix" result="effect1_dropShadow"/>
<feBlend mode="normal" in="SourceGraphic" in2="effect1_dropShadow" result="shape"/>
</filter>
<clipPath id="clip0">
<rect width="269" height="173" fill="white" transform="translate(0.5)"/>
</clipPath>
</defs>
</svg>
