<svg xmlns="http://www.w3.org/2000/svg" width="937" height="628" fill="none" ><g opacity=".5"><g filter="url(#a)"><path fill="#889BF2" d="m45 289.6 12.7-4.8 8.7 23.3-12.8 4.7z"/></g><path fill="#C3CDF9" d="m694.2 45.1 7-2.6 4.8 12.7-7 2.7z"/><g filter="url(#b)"><path fill="#889BF2" d="m360.6 11.2 22.5 6-11 41-22.5-6z"/></g><g filter="url(#c)"><path fill="#C3CDF9" d="m683.5 447.2 10.3-6.2 11.2 18.8-10.3 6.2z"/></g><g filter="url(#d)"><path fill="#C3CDF9" d="m152.3 50.1 11.8-2 3.6 21.7-11.9 2z"/></g><path fill="#6079ED" d="m41.5 461.3 7.7-4.6 8.5 14.2-7.7 4.6z"/><path fill="#C3CDF9" d="m9.5 34.8 7.3 5.2-9.5 13.4-7.4-5.2z"/><ellipse cx="137.5" cy="200.5" fill="#C3CDF9" rx="6.5" ry="7.5"/><ellipse cx="256.5" cy="460.5" fill="#C3CDF9" rx="7.5" ry="6.5"/><ellipse cx="648" cy="278" fill="#C3CDF9" rx="5" ry="4"/><ellipse cx="264" cy="105.5" fill="#C3CDF9" rx="5" ry="4.5"/><circle cx="519" cy="58" r="5" fill="#6079ED"/><ellipse cx="468" cy="105.5" fill="#889BF2" rx="5" ry="4.5"/><g filter="url(#e)"><circle cx="433.5" cy="428.5" r="13.5" fill="#C3CDF9"/></g></g><defs><filter id="a" width="43.4" height="50" x="34" y="273.9" color-interpolation-filters="sRGB" filterUnits="userSpaceOnUse"><feFlood flood-opacity="0" result="BackgroundImageFix"/><feBlend in="SourceGraphic" in2="BackgroundImageFix" result="shape"/><feGaussianBlur result="effect1_foregroundBlur_153_44558" stdDeviation="5.5"/></filter><filter id="b" width="55.5" height="69.1" x="338.6" y=".2" color-interpolation-filters="sRGB" filterUnits="userSpaceOnUse"><feFlood flood-opacity="0" result="BackgroundImageFix"/><feBlend in="SourceGraphic" in2="BackgroundImageFix" result="shape"/><feGaussianBlur result="effect1_foregroundBlur_153_44558" stdDeviation="5.5"/></filter><filter id="c" width="29.6" height="33" x="679.5" y="437.1" color-interpolation-filters="sRGB" filterUnits="userSpaceOnUse"><feFlood flood-opacity="0" result="BackgroundImageFix"/><feBlend in="SourceGraphic" in2="BackgroundImageFix" result="shape"/><feGaussianBlur result="effect1_foregroundBlur_153_44558" stdDeviation="2"/></filter><filter id="d" width="23.4" height="31.6" x="148.3" y="44.1" color-interpolation-filters="sRGB" filterUnits="userSpaceOnUse"><feFlood flood-opacity="0" result="BackgroundImageFix"/><feBlend in="SourceGraphic" in2="BackgroundImageFix" result="shape"/><feGaussianBlur result="effect1_foregroundBlur_153_44558" stdDeviation="2"/></filter><filter id="e" width="49" height="49" x="409" y="404" color-interpolation-filters="sRGB" filterUnits="userSpaceOnUse"><feFlood flood-opacity="0" result="BackgroundImageFix"/><feBlend in="SourceGraphic" in2="BackgroundImageFix" result="shape"/><feGaussianBlur result="effect1_foregroundBlur_153_44558" stdDeviation="5.5"/></filter></defs></svg>
