<svg xmlns="http://www.w3.org/2000/svg" fill="none" viewBox="0 0 453 73"><rect width="3.9" height="12.2" fill="#64CA43" rx="1.9" transform="matrix(-.83 .56 .56 .83 404 48.6)"/><rect width="3.1" height="9.6" fill="#FF2D55" rx="1.5" transform="matrix(-.67 .74 .74 .67 418 13.5)"/><rect width="3.6" height="11.4" fill="#117AC9" rx="1.8" transform="matrix(-.64 -.77 -.77 .64 391.8 25)"/><rect width="3.9" height="12.2" fill="#FF8085" rx="1.9" transform="matrix(-.4 -.91 -.91 .4 171 14.7)"/><rect width="5.3" height="16.8" fill="#FF8085" rx="2.7" transform="matrix(.4 .92 .92 -.4 328.1 50.6)"/><circle cx="3.4" cy="3.4" r="3.4" fill="#F0B849" transform="matrix(-.95 -.31 -.31 .95 438 58.4)"/><circle cx="2.3" cy="2.3" r="2.3" fill="#BF5AF2" transform="matrix(-.95 -.31 -.31 .95 452.9 42.5)"/><circle cx="1.5" cy="1.5" r="1.5" fill="#BF5AF2" transform="matrix(-.95 -.31 -.31 .95 375.3 62.3)"/><circle cx="2.3" cy="2.3" r="2.3" fill="#09B585" transform="matrix(-.95 -.31 -.31 .95 163.6 52.6)"/><rect width="5.3" height="16.8" x="314.3" y="17.2" fill="#984A9C" rx="2.7" transform="rotate(-52 314.3 17.2)"/><rect width="3.9" height="12.2" fill="#64CA43" rx="1.9" transform="matrix(.62 -.79 .79 .62 27 34.7)"/><rect width="3.6" height="11.4" fill="#E7C037" rx="1.8" transform="rotate(-171.4 134.8 4)"/><rect width="3" height="9.4" fill="#E7C037" rx="1.5" transform="rotate(76.9 74 159.2)"/><rect width="3.9" height="12.2" fill="#3361CC" rx="1.9" transform="rotate(38.2 52.6 417.4)"/><circle cx="90.5" cy="45.7" r="3.4" fill="#F0B849" transform="rotate(-2 90.5 45.7)"/><circle cx="59.9" cy="27.1" r="2.3" fill="#BF5AF2" transform="rotate(-2 59.9 27.1)"/><circle cx="307.1" cy="60.8" r="1.5" fill="#F0C930" transform="rotate(-2 307.1 60.8)"/><circle cx="357.3" cy="28.5" r="1.5" fill="#F0C930" transform="rotate(-2 357.3 28.5)"/><circle cx="237.2" cy="47.4" r="1.5" fill="#3361CC" transform="rotate(-2 237.2 47.4)"/><circle cx="290.9" cy="39.9" r="1.9" fill="#37E688" transform="rotate(-2 290.9 40)"/><rect width="3.9" height="12.2" fill="#64CA43" rx="1.9" transform="rotate(-70.3 97.5 -46.8)"/><rect width="3.9" height="12.2" x="131.3" y="25.1" fill="#3361CC" rx="1.9" transform="rotate(6 131.3 25.1)"/><circle cx="3.4" cy="3.4" r="3.4" fill="#F0B849" transform="rotate(-34.2 117 6.3)"/><circle cx="195.8" cy="33.2" r="2.3" fill="#BF5AF2" transform="rotate(-34 195.8 33.2)"/><circle cx="1.5" cy="1.5" r="1.5" fill="#3361CC" transform="rotate(-34.2 137.7 -68.3)"/><circle cx="1.9" cy="1.9" r="1.9" fill="#37E688" transform="rotate(-34.2 77.7 24)"/><circle cx="1.9" cy="1.9" r="1.9" fill="#F0C930" transform="rotate(-34.2 37.3 -33.6)"/><circle cx="231.4" cy="21.3" r="2.3" fill="#09B585" transform="rotate(-34 231.4 21.3)"/><circle cx="2.3" cy="2.3" r="2.3" fill="#FF3B30" transform="matrix(.83 -.56 .56 .83 97 14.8)"/></svg>
