<svg xmlns="http://www.w3.org/2000/svg" width="269" height="152" viewBox="0 0 269 152" fill="none"><path fill="#E6F2F8" fill-opacity=".5" d="M245.45 18.83c31.15 16.81 31.65 84.23 0 118.72-21.24 23.16-188.15 13.24-207.82 6.04C24.8 138.9 0 132.74 0 103.06 0 68.19 44.07 57.8 84.67 45.3c49.6-15.28 70.13-75.4 160.78-26.47Z"/><g filter="url(#a)"><path fill="#fff" d="M219.8 126H60.2a3.2 3.2 0 0 1-2.26-.95c-.6-.6-.94-1.43-.94-2.3v-88.5c0-.87.34-1.7.94-2.3.6-.6 1.41-.95 2.26-.95h159.6c.84 0 1.66.34 2.26.95.6.6.94 1.43.94 2.3v88.5c0 .87-.34 1.7-.94 2.3-.6.6-1.41.95-2.26.95Z"/></g><path fill="#E5E5E5" d="M189 46h-1v2h1v-2ZM189 117h-1v-2.83h1V117Zm0-5.65h-1v-2.83h1v2.83Zm0-5.65h-1v-2.83h1v2.83Zm0-5.66h-1v-2.82h1v2.82Zm0-5.65h-1v-2.82h1v2.82Zm0-5.65h-1V85.9h1v2.83Zm0-5.65h-1v-2.83h1v2.83Zm0-5.66h-1v-2.82h1v2.82Zm0-5.65h-1v-2.82h1v2.82Zm0-5.65h-1V63.3h1v2.83Zm0-5.65h-1v-2.83h1v2.83Zm0-5.65h-1V52h1v2.83Z"/><g clip-path="url(#b)"><path fill="#E5E5E5" d="M164.5 117h-1v-2.83h1V117Zm0-5.65h-1v-2.83h1v2.83Zm0-5.65h-1v-2.83h1v2.83Zm0-5.66h-1v-2.82h1v2.82Zm0-5.65h-1v-2.82h1v2.82Zm0-5.65h-1V85.9h1v2.83Zm0-5.65h-1v-2.83h1v2.83Zm0-5.66h-1v-2.82h1v2.82Zm0-5.65h-1v-2.82h1v2.82Zm0-5.65h-1V63.3h1v2.83Zm0-5.65h-1v-2.83h1v2.83Zm0-5.65h-1V52h1v2.83Z"/></g><g clip-path="url(#c)"><path fill="#E5E5E5" d="M138.5 117h-1v-2.83h1V117Zm0-5.65h-1v-2.83h1v2.83Zm0-5.65h-1v-2.83h1v2.83Zm0-5.66h-1v-2.82h1v2.82Zm0-5.65h-1v-2.82h1v2.82Zm0-5.65h-1V85.9h1v2.83Zm0-5.65h-1v-2.83h1v2.83Zm0-5.66h-1v-2.82h1v2.82Zm0-5.65h-1v-2.82h1v2.82Zm0-5.65h-1V63.3h1v2.83Zm0-5.65h-1v-2.83h1v2.83Zm0-5.65h-1V52h1v2.83Z"/></g><g clip-path="url(#d)"><path fill="#E5E5E5" d="M113.5 117h-1v-2.83h1V117Zm0-5.65h-1v-2.83h1v2.83Zm0-5.65h-1v-2.83h1v2.83Zm0-5.66h-1v-2.82h1v2.82Zm0-5.65h-1v-2.82h1v2.82Zm0-5.65h-1V85.9h1v2.83Zm0-5.65h-1v-2.83h1v2.83Zm0-5.66h-1v-2.82h1v2.82Zm0-5.65h-1v-2.82h1v2.82Zm0-5.65h-1V63.3h1v2.83Zm0-5.65h-1v-2.83h1v2.83Zm0-5.65h-1V52h1v2.83Z"/></g><g clip-path="url(#e)"><path fill="#E5E5E5" d="M87.5 117h-1v-2.83h1V117Zm0-5.65h-1v-2.83h1v2.83Zm0-5.65h-1v-2.83h1v2.83Zm0-5.66h-1v-2.82h1v2.82Zm0-5.65h-1v-2.82h1v2.82Zm0-5.65h-1V85.9h1v2.83Zm0-5.65h-1v-2.83h1v2.83Zm0-5.66h-1v-2.82h1v2.82Zm0-5.65h-1v-2.82h1v2.82Zm0-5.65h-1V63.3h1v2.83Zm0-5.65h-1v-2.83h1v2.83Zm0-5.65h-1V52h1v2.83Z"/></g><path fill="#000" d="M213.52 121H61.48a.48.48 0 0 1-.48-.48V46.48c0-.12.05-.25.14-.34a.47.47 0 0 1 .67 0c.1.1.14.22.14.34v73.55h151.57c.13 0 .25.05.34.14a.49.49 0 0 1-.34.83Z"/><path fill="#000" d="m138.12 86-25.45-19.5-25.1 19.23-.57-.78 25.67-19.67L138 84.68l25.17-28.17.1-.05L188.64 46l.36.91-25.28 10.42L138.12 86Z"/><path fill="#007CBA" d="M87 88.5a2.5 2.5 0 1 0 0-5 2.5 2.5 0 0 0 0 5ZM113 68.5a2.5 2.5 0 1 0 0-5 2.5 2.5 0 0 0 0 5ZM138 87.5a2.5 2.5 0 1 0 0-5 2.5 2.5 0 0 0 0 5ZM164 59.5a2.5 2.5 0 1 0 0-5 2.5 2.5 0 0 0 0 5ZM188.5 49a2.5 2.5 0 1 0 0-5 2.5 2.5 0 0 0 0 5Z"/><g filter="url(#f)"><path fill="#fff" d="M179 90h56v50h-56z"/></g><path fill="#007CBA" d="M214 99h-28v4h28v-4ZM224 108.5h-38v4h38v-4ZM220 118.5h-34v4h34v-4ZM228 128.5h-42v4h42v-4Z"/><defs><clipPath id="b"><path fill="#fff" d="M163.5 63.5h1v53h-1z"/></clipPath><clipPath id="c"><path fill="#fff" d="M137.5 89.5h1v27h-1z"/></clipPath><clipPath id="d"><path fill="#fff" d="M112.5 71.5h1v45h-1z"/></clipPath><clipPath id="e"><path fill="#fff" d="M86.5 91.5h1v25h-1z"/></clipPath><filter id="a" width="178" height="107" x="51" y="27" color-interpolation-filters="sRGB" filterUnits="userSpaceOnUse"><feFlood flood-opacity="0" result="BackgroundImageFix"/><feColorMatrix in="SourceAlpha" values="0 0 0 0 0 0 0 0 0 0 0 0 0 0 0 0 0 0 127 0"/><feOffset dy="2"/><feGaussianBlur stdDeviation="3"/><feColorMatrix values="0 0 0 0 0 0 0 0 0 0 0 0 0 0 0 0 0 0 0.05 0"/><feBlend in2="BackgroundImageFix" result="effect1_dropShadow"/><feBlend in="SourceGraphic" in2="effect1_dropShadow" result="shape"/></filter><filter id="f" width="68" height="62" x="173" y="86" color-interpolation-filters="sRGB" filterUnits="userSpaceOnUse"><feFlood flood-opacity="0" result="BackgroundImageFix"/><feColorMatrix in="SourceAlpha" values="0 0 0 0 0 0 0 0 0 0 0 0 0 0 0 0 0 0 127 0"/><feOffset dy="2"/><feGaussianBlur stdDeviation="3"/><feColorMatrix values="0 0 0 0 0 0 0 0 0 0 0 0 0 0 0 0 0 0 0.05 0"/><feBlend in2="BackgroundImageFix" result="effect1_dropShadow"/><feBlend in="SourceGraphic" in2="effect1_dropShadow" result="shape"/></filter></defs></svg>
