<svg width="10" height="7" viewBox="0 0 10 7" fill="none" xmlns="http://www.w3.org/2000/svg">
<path d="M9 2.94189C9.6 2.94189 10 2.54189 10 1.94189C10 1.34189 9.6 0.941895 9 0.941895C8.4 0.941895 8 1.34189 8 1.94189C8 2.54189 8.4 2.94189 9 2.94189ZM1 0.941895C0.4 0.941895 0 1.34189 0 1.94189C0 2.54189 0.4 2.94189 1 2.94189C1.6 2.94189 2 2.54189 2 1.94189C2 1.34189 1.6 0.941895 1 0.941895ZM1 4.94189C0.4 4.94189 0 5.34189 0 5.94189C0 6.54189 0.4 6.94189 1 6.94189C1.6 6.94189 2 6.54189 2 5.94189C2 5.34189 1.6 4.94189 1 4.94189ZM9 4.94189C8.4 4.94189 8 5.34189 8 5.94189C8 6.54189 8.4 6.94189 9 6.94189C9.6 6.94189 10 6.54189 10 5.94189C10 5.34189 9.6 4.94189 9 4.94189ZM5 0.941895C4.4 0.941895 4 1.34189 4 1.94189C4 2.54189 4.4 2.94189 5 2.94189C5.6 2.94189 6 2.54189 6 1.94189C6 1.34189 5.6 0.941895 5 0.941895ZM5 4.94189C4.4 4.94189 4 5.34189 4 5.94189C4 6.54189 4.4 6.94189 5 6.94189C5.6 6.94189 6 6.54189 6 5.94189C6 5.34189 5.6 4.94189 5 4.94189Z" fill="#757575"/>
</svg>
