<svg width="126" height="81" viewBox="0 0 126 81" fill="none" xmlns="http://www.w3.org/2000/svg">
<rect width="125.146" height="80" fill="white"/>
<path d="M117.083 45L115.543 46.2369L114.001 45L112.461 46.2369L110.92 45L109.378 46.2369L107.839 45L106.297 46.2369L104.757 45L103.216 46.2369L101.674 45L100.133 46.2369L98.5911 45L97 46.2771V73.7546L98.5895 75.0317L100.131 73.7933L101.671 75.0317L103.212 73.7933L104.752 75.0317L106.294 73.7933L107.835 75.0317L109.375 73.7933L110.917 75.0317L112.457 73.7933L113.998 75.0317L115.54 73.7933L117.083 75.0317L118.672 73.7546V46.2771L117.083 45Z" fill="#F7F7F7"/>
<path d="M111.573 50.6226H98.8574V51.7604H111.573V50.6226Z" fill="#E0E0E0"/>
<path d="M111.573 54.0933H98.8574V55.2311H111.573V54.0933Z" fill="#E0E0E0"/>
<path d="M111.573 57.5645H98.8574V58.7023H111.573V57.5645Z" fill="#E0E0E0"/>
<path d="M116.814 50.6226H113.814V51.7604H116.814V50.6226Z" fill="#F0F0F0"/>
<path d="M116.814 54.0933H113.814V55.2311H116.814V54.0933Z" fill="#F0F0F0"/>
<path d="M116.814 57.5645H113.814V58.7023H116.814V57.5645Z" fill="#F0F0F0"/>
<path d="M116.815 64.1958H111.861V66.363H116.815V64.1958Z" fill="#F0F0F0"/>
<path d="M98.8672 61.6753H116.807" stroke="#E0E0E0" stroke-width="0.99" stroke-miterlimit="10"/>
<path d="M45.088 18.1761C50.1072 18.1761 54.1761 14.1072 54.1761 9.08803C54.1761 4.06885 50.1072 0 45.088 0C40.0689 0 36 4.06885 36 9.08803C36 14.1072 40.0689 18.1761 45.088 18.1761Z" fill="#E0E0E0"/>
<path d="M44.9825 13.3431C43.7655 13.3067 42.8188 12.7646 42.2529 12.0391L42.5722 11.7562C43.0511 12.3458 43.8635 12.9242 44.9825 12.9732V9.06301C43.7402 8.71846 42.5121 8.3502 42.5121 6.94827C42.5121 5.65698 43.6675 4.89516 44.9825 4.85881V3.75244H45.3761V4.87145C46.4208 4.93309 47.2079 5.363 47.7358 6.01576L47.4292 6.29867C46.9123 5.63485 46.1995 5.30294 45.3761 5.2413V8.74533C46.6421 9.11359 47.9207 9.56878 47.9207 11.1193C47.9207 12.0044 47.3802 13.234 45.3761 13.332V14.4257H44.9825V13.3447V13.3431ZM44.9825 8.63311V5.22707C43.8382 5.26342 42.942 5.97624 42.942 6.94827C42.942 7.98193 43.9014 8.31384 44.9825 8.63311ZM45.3761 9.17365V12.9732C47.0483 12.8752 47.4908 11.8542 47.4908 11.1161C47.4908 9.89911 46.4824 9.50556 45.3761 9.17365Z" fill="white"/>
<path d="M45.088 41.1761C50.1072 41.1761 54.1761 37.1072 54.1761 32.088C54.1761 27.0689 50.1072 23 45.088 23C40.0689 23 36 27.0689 36 32.088C36 37.1072 40.0689 41.1761 45.088 41.1761Z" fill="#F7F7F7"/>
<path d="M44.8846 36.3523V34.5615H41.3917V34.1063H44.8846V32.755H41.3917V32.2998H44.5511L41.3174 28.0039H41.9385L45.1265 32.284L48.2543 28.0039H48.8628L45.6891 32.2998H48.7712V32.755H45.3699V34.1063H48.7712V34.5615H45.3699V36.3523H44.8846Z" fill="#E0E0E0"/>
<path d="M21.785 15.8882H28.3538L17 2L5.64087 15.8882H12.2097L4 46H30L21.785 15.8882Z" fill="#E0E0E0"/>
<path d="M56.7364 68.4787H52.9467L59.5 77L66.0503 68.4787H62.2606L67 50H52L56.7364 68.4787Z" fill="#F7F7F7"/>
<path d="M40.6772 54H2.93032C1.86284 54 1 54.8712 1 55.9447V76.4997C1 77.5733 1.86284 78.4444 2.93032 78.4444H40.6772C41.7447 78.4444 42.6076 77.5733 42.6076 76.4997V55.9447C42.6076 54.8712 41.7447 54 40.6772 54Z" fill="#F0F0F0"/>
<path d="M40.7119 78.4443C41.7599 78.4443 42.6071 77.5503 42.6071 76.4488V65.4419C32.382 65.4419 23.2034 70.393 17.0752 78.4443H40.7119Z" fill="#F7F7F7"/>
<path d="M42.6076 59.7212H1V63.0898H42.6076V59.7212Z" fill="#E0E0E0"/>
<rect x="4.64062" y="66.4824" width="18.7234" height="2.60047" fill="white"/>
<rect x="4.64062" y="71.6831" width="10.4019" height="2.60047" fill="white"/>
<g clip-path="url(#clip0_470_20166)">
<path d="M81.5013 54.2526C84.2654 54.2526 86.5138 56.3827 86.5138 59.0013C86.5138 61.6198 84.2654 63.7499 81.5013 63.7499C78.7373 63.7499 76.4889 61.6198 76.4889 59.0013C76.4889 56.3827 78.7373 54.2526 81.5013 54.2526ZM81.5013 50C76.2523 50 72 54.0285 72 59.0013C72 63.974 76.2523 68.0025 81.5013 68.0025C86.7503 68.0025 91.0027 63.974 91.0027 59.0013C91.0027 54.0285 86.7477 50 81.5013 50Z" fill="#E0E0E0"/>
<path d="M76.7995 51.1809L79.0586 54.8569C79.7815 54.4742 80.6134 54.2526 81.4984 54.2526V50C79.7868 50 78.1842 50.4305 76.7969 51.1809H76.7995Z" fill="#C39EF7"/>
<path d="M76.7995 51.1809L79.0586 54.8569C79.7815 54.4742 80.6134 54.2526 81.4984 54.2526V50C79.7868 50 78.1842 50.4305 76.7969 51.1809H76.7995Z" fill="#F7F7F7"/>
<path d="M76.4889 59.0011C76.4889 57.2209 77.528 55.67 79.0615 54.8567L76.8025 51.1807C73.9322 52.7291 72 55.6498 72 59.0011C72 61.1865 72.8239 63.1907 74.1926 64.7493L77.6609 62.0451C76.9301 61.2193 76.4889 60.1593 76.4889 59.0011Z" fill="#F0F0F0"/>
</g>
<path d="M125 0H68.3533L60 40.5555H77.7647H118.323L125 0Z" fill="#E0E0E0"/>
<path d="M72.7773 31.6664L87.1604 21.826L91.083 25.7621L112.222 11.1108M112.222 11.1108H108.081M112.222 11.1108V14.8283" stroke="white"/>
<defs>
<clipPath id="clip0_470_20166">
<rect width="19" height="18" fill="white" transform="translate(72 50)"/>
</clipPath>
</defs>
</svg>
