<svg xmlns="http://www.w3.org/2000/svg" viewBox="0 0 241 64" width="241" height="64" fill="none"><g fill-rule="evenodd"><path d="M7.518 0h65.769c1.996-.003 3.911.795 5.324 2.219s2.207 3.355 2.208 5.369v25.309c.001 2.014-.792 3.947-2.203 5.371s-3.326 2.224-5.322 2.223H49.705l3.227 8.001-14.247-8.001H7.518C3.368 40.487.004 37.092 0 32.903V7.587C.004 3.399 3.368.004 7.518 0z" fill="#7f54b3"/><path d="M213.653 11.436c-2.215 2.236-3.323 5.075-3.323 8.517 0 3.704 1.099 6.692 3.296 8.964s5.065 3.407 8.602 3.407c1.17-.023 2.331-.202 3.455-.531v-5.472c-.978.318-1.996.492-3.023.518-1.761 0-3.17-.601-4.226-1.804s-1.584-2.838-1.582-4.907c0-1.922.524-3.501 1.572-4.737.968-1.205 2.425-1.891 3.954-1.861 1.124.011 2.242.179 3.322.501V8.533a13.89 13.89 0 0 0-3.628-.45c-3.402 0-6.213 1.119-8.432 3.357l.013-.003zm-108.242-.24c1.719-2.075 4.111-3.113 7.177-3.113 3.264-.005 5.76 1.035 7.485 3.12s2.588 5.059 2.588 8.923-.845 6.864-2.548 8.998-4.127 3.201-7.27 3.201c-3.253 0-5.734-1.067-7.442-3.201s-2.561-5.215-2.561-9.241c-.005-3.716.852-6.611 2.571-8.686zm-19.204 8.762c0-3.442 1.108-6.281 3.323-8.517s5.025-3.357 8.422-3.357c1.224-.011 2.445.141 3.631.45v5.499c-1.079-.321-2.197-.49-3.322-.501-1.528-.03-2.986.656-3.954 1.861-1.048 1.236-1.572 2.815-1.572 4.737.002 2.069.53 3.704 1.585 4.907s2.462 1.804 4.223 1.804a10.7 10.7 0 0 0 3.027-.518v5.472c-1.128.331-2.294.511-3.469.535-3.531 0-6.396-1.136-8.595-3.408s-3.299-5.26-3.299-8.964zm29.012 5.721c-.562.922-1.567 1.465-2.632 1.421a2.65 2.65 0 0 1-2.432-1.431c-.558-.954-.837-2.858-.837-5.712 0-4.431 1.107-6.646 3.322-6.646 2.339 0 3.509 2.249 3.509 6.747-.009 2.786-.319 4.656-.93 5.61v.01zm22.705-11.776l1.19-5.17 7.884.007 3.067 23.037h-6.051l-1.634-15.843-3.771 15.82h-4.133l-3.954-15.877-1.572 15.877h-5.787l2.904-23.037h7.724c1.099 4.97 1.966 9.244 2.602 12.821l.664-3.573c.269-1.381.555-2.737.867-4.061zm28.865-5.17l-1.189 5.17a105.93 105.93 0 0 0-.867 4.061l-.665 3.573c-.635-3.578-1.502-7.852-2.601-12.821h-7.725l-2.904 23.037h5.788l1.572-15.877 3.953 15.877h4.133l3.771-15.819 1.635 15.843h6.05L174.674 8.74l-7.885-.007zm24.208 13.924h-5.422v4.182h6.289v4.92h-12.403V8.722h12.363v4.9h-6.249v4.247h5.422v4.788zm18.074-3.641c1.724-2.78 1.047-6.444-1.552-8.395-1.668-1.266-3.94-1.898-6.817-1.898h-7.114V31.76h6.11V21.27h.1l4.94 10.49h6.456l-4.881-10.388c1.14-.47 2.105-1.294 2.758-2.355zm-9.373-5.84v5.465c2.705-.043 4.057-.853 4.057-2.43-.002-1.069-.315-1.834-.94-2.294s-1.664-.707-3.117-.741zm33.786 9.471v4.189l6.28.003v4.92h-12.403V8.722h12.363v4.9h-6.253v4.247h5.439v4.778h-5.426z" fill="#000"/></g><g fill="#fff"><path d="M4.559 6.445c.495-.638 1.244-1.016 2.042-1.031 1.657-.12 2.609.678 2.855 2.396 1.026 6.96 2.121 12.866 3.286 17.719l7.161-13.909c.653-1.255 1.467-1.922 2.457-2.002 1.433-.102 2.329.831 2.689 2.799a63.1 63.1 0 0 0 3.094 11.42c.856-8.468 2.291-14.584 4.306-18.35.397-.861 1.225-1.429 2.156-1.478.747-.061 1.488.179 2.065.667.591.458.955 1.158.996 1.915.045.552-.068 1.105-.327 1.591-1.274 2.415-2.326 6.432-3.156 12.051-.81 5.423-1.11 9.663-.898 12.722.074.751-.057 1.509-.379 2.189-.329.686-.995 1.136-1.741 1.178-.871.06-1.733-.353-2.584-1.238-3.036-3.183-5.441-7.916-7.216-14.2L16.64 30.51c-1.914 3.781-3.558 5.715-4.93 5.802-.893.065-1.655-.698-2.287-2.289C7.757 29.655 5.966 21.211 4.049 8.69c-.147-.788.038-1.603.51-2.245z"/><path d="M69.901 8.239c2.228.437 4.151 1.884 5.245 3.948 1.06 1.83 1.59 4.062 1.59 6.696a18.9 18.9 0 0 1-2.55 9.642c-1.956 3.406-4.521 5.109-7.694 5.109a8.31 8.31 0 0 1-1.777-.201c-2.228-.436-4.152-1.884-5.245-3.948-1.06-1.862-1.59-4.11-1.59-6.744a18.58 18.58 0 0 1 2.55-9.591c1.987-3.406 4.551-5.109 7.694-5.109.597.002 1.193.068 1.777.198zm-1.39 18.437c1.217-1.131 2.051-2.813 2.501-5.048v.01a12.67 12.67 0 0 0 .239-2.497 9.03 9.03 0 0 0-.577-3.106c-.481-1.301-1.121-2.035-1.921-2.2-1.185-.268-2.323.431-3.416 2.098a11.46 11.46 0 0 0-1.731 4.046c-.162.823-.242 1.66-.239 2.5.01 1.06.206 2.109.577 3.096.481 1.292 1.122 2.025 1.924 2.2s1.683-.192 2.642-1.1zM49.702 8.239c2.228.438 4.151 1.885 5.246 3.948h-.003c1.058 1.83 1.587 4.062 1.587 6.696.026 3.397-.856 6.735-2.548 9.642-1.956 3.406-4.522 5.109-7.695 5.109a8.36 8.36 0 0 1-1.78-.201c-2.228-.437-4.151-1.885-5.246-3.948-1.058-1.862-1.587-4.11-1.587-6.744-.032-3.382.852-6.706 2.551-9.591 1.985-3.406 4.55-5.109 7.695-5.109a8.35 8.35 0 0 1 1.78.198zm-1.39 18.437c1.22-1.131 2.054-2.813 2.502-5.048v.01c.162-.821.243-1.658.239-2.497a9.13 9.13 0 0 0-.577-3.106c-.481-1.301-1.121-2.035-1.921-2.2-1.185-.268-2.324.431-3.416 2.098-.83 1.216-1.418 2.592-1.731 4.046a12.69 12.69 0 0 0-.243 2.5 9.05 9.05 0 0 0 .58 3.096c.479 1.301 1.121 2.033 1.921 2.2s1.685-.201 2.646-1.1z" fill-rule="evenodd"/></g><path d="M121.36 58.229v-6.848h4.891c4.143 0 6.445-2.82 6.445-6.157 0-3.366-2.273-6.186-6.445-6.186h-8.977v19.191h4.086zm4.316-10.444h-4.316v-5.15h4.316c1.611 0 2.848.978 2.848 2.589 0 1.582-1.237 2.561-2.848 2.561zm20.671 10.444v-8.977c0-3.999-2.906-5.265-6.099-5.265-2.187 0-4.374.662-6.071 2.187l1.438 2.561c1.151-1.064 2.532-1.64 4-1.64 1.841 0 3.05.921 3.05 2.331v1.755c-.921-1.093-2.532-1.697-4.403-1.697-2.215 0-4.804 1.208-4.804 4.488 0 3.107 2.589 4.604 4.804 4.604 1.813 0 3.453-.662 4.403-1.813v1.467h3.682zM139.73 56.1c-1.439 0-2.618-.748-2.618-2.072s1.179-2.1 2.618-2.1c1.179 0 2.33.432 2.935 1.237v1.726c-.605.806-1.756 1.208-2.935 1.208zm9.465 7.538c.431.144 1.381.23 1.784.23 2.388-.058 4.229-.748 5.265-3.366l6.531-16.17h-3.913l-3.654 9.667-3.625-9.667h-3.913l5.639 14.069-.518 1.208c-.345.748-.978 1.007-1.927 1.007-.346 0-.835-.086-1.151-.23l-.518 3.251zm35.841-5.409V48.188c0-2.848-1.525-4.201-4.086-4.201-2.129 0-3.971 1.266-4.776 2.503-.489-1.554-1.813-2.503-3.856-2.503-2.129 0-3.941 1.323-4.545 2.129v-1.784h-3.654v13.897h3.654v-9.38c.546-.748 1.611-1.611 2.877-1.611 1.496 0 2.071.921 2.071 2.215v8.775h3.683v-9.38c.518-.748 1.582-1.611 2.877-1.611 1.496 0 2.072.921 2.072 2.215v8.775h3.683zm9.855.345c2.158 0 4.344-.662 5.726-1.928l-1.64-2.417c-.892.863-2.504 1.352-3.683 1.352-2.36 0-3.741-1.41-3.999-3.107h10.329v-.863c0-4.517-2.791-7.624-6.963-7.624-4.201 0-7.193 3.251-7.193 7.279 0 4.46 3.194 7.308 7.423 7.308zm3.222-8.632h-6.847c.144-1.381 1.122-2.963 3.395-2.963 2.417 0 3.337 1.64 3.452 2.963zm18.925 8.287v-9.811c0-2.705-1.468-4.431-4.546-4.431-2.245 0-3.971 1.093-4.863 2.129v-1.784h-3.654v13.897h3.654v-9.38c.633-.806 1.726-1.611 3.165-1.611 1.554 0 2.561.662 2.561 2.59v8.401h3.683zm7.972.345c1.525 0 2.503-.403 3.05-.892l-.777-2.791c-.201.23-.719.432-1.266.432-.805 0-1.266-.662-1.266-1.554v-6.243h2.82v-3.194h-2.82v-3.798h-3.654v3.798h-2.301v3.194h2.301v7.222c0 2.503 1.353 3.827 3.913 3.827zm9.779 0c3.856 0 6.042-1.87 6.042-4.431 0-5.611-8.257-3.884-8.257-5.927 0-.777.863-1.352 2.187-1.352 1.697 0 3.28.748 4.114 1.611l1.467-2.59c-1.381-1.093-3.251-1.899-5.581-1.899-3.683 0-5.697 2.043-5.697 4.373 0 5.467 8.229 3.596 8.229 5.869 0 .863-.749 1.467-2.331 1.467-1.726 0-3.769-.95-4.805-1.928l-1.582 2.647c1.467 1.352 3.798 2.158 6.214 2.158z" fill="#7f54b3"/></svg>
