<svg xmlns="http://www.w3.org/2000/svg" viewBox="0 0 241 64" fill="none"><g fill-rule="evenodd"><path fill="#7f54b3" d="M7.52 0h65.77a7.6 7.6 0 0 1 7.53 7.59v25.3c0 2.02-.8 3.95-2.2 5.38s-3.33 2.22-5.33 2.22H49.7l3.23 8-14.25-8H7.52A7.56 7.56 0 0 1 0 32.9V7.6A7.56 7.56 0 0 1 7.52 0z"/><path fill="#000" d="M213.65 11.44a11.6 11.6 0 0 0-3.32 8.51c0 3.7 1.1 6.7 3.3 8.97s5.06 3.4 8.6 3.4c1.17-.02 2.33-.2 3.45-.53v-5.47c-.98.32-2 .5-3.02.52-1.76 0-3.17-.6-4.23-1.8s-1.58-2.84-1.58-4.91c0-1.92.53-3.5 1.57-4.74a4.95 4.95 0 0 1 3.96-1.86c1.12.01 2.24.18 3.32.5v-5.5a13.89 13.89 0 0 0-3.63-.45c-3.4 0-6.21 1.12-8.43 3.36h.01zm-108.24-.24c1.72-2.08 4.11-3.12 7.18-3.12 3.26 0 5.76 1.04 7.48 3.12s2.6 5.06 2.6 8.93-.85 6.86-2.56 9-4.12 3.2-7.27 3.2c-3.25 0-5.73-1.07-7.44-3.2s-2.56-5.22-2.56-9.25c0-3.71.85-6.6 2.57-8.68zm-19.2 8.76c0-3.44 1.1-6.28 3.32-8.52s5.02-3.36 8.42-3.36a13.9 13.9 0 0 1 3.63.45v5.5c-1.08-.32-2.2-.49-3.32-.5a4.95 4.95 0 0 0-3.95 1.86 7.07 7.07 0 0 0-1.58 4.74c0 2.07.53 3.7 1.59 4.9s2.46 1.81 4.22 1.81a10.7 10.7 0 0 0 3.03-.52v5.47c-1.13.34-2.3.52-3.47.54-3.53 0-6.4-1.14-8.6-3.4s-3.3-5.27-3.3-8.97zm29 5.72a2.94 2.94 0 0 1-2.62 1.42 2.65 2.65 0 0 1-2.44-1.43c-.55-.96-.83-2.86-.83-5.71 0-4.43 1.1-6.65 3.32-6.65 2.34 0 3.5 2.25 3.5 6.75 0 2.78-.31 4.65-.92 5.6v.02zm22.71-11.78 1.2-5.17 7.88.01 3.06 23.04h-6.05l-1.63-15.85-3.77 15.82h-4.13l-3.96-15.87-1.57 15.87h-5.79l2.9-23.03h7.73c1.1 4.97 1.97 9.24 2.6 12.82l.67-3.58c.27-1.38.55-2.73.86-4.06zm28.87-5.17-1.19 5.17a105.93 105.93 0 0 0-.87 4.06l-.66 3.58c-.64-3.58-1.5-7.86-2.6-12.82h-7.73l-2.9 23.03h5.79l1.57-15.87 3.95 15.87h4.13l3.78-15.82 1.63 15.85h6.05l-3.07-23.04h-7.88zm24.2 13.93h-5.42v4.18h6.3v4.92h-12.4V8.72h12.35v4.9h-6.25v4.25H191v4.79zm18.08-3.64a6.34 6.34 0 0 0-1.55-8.4c-1.67-1.27-3.94-1.9-6.82-1.9h-7.11v23.04h6.1V21.27h.1l4.95 10.49h6.45l-4.88-10.39a5.87 5.87 0 0 0 2.76-2.35zm-9.37-5.84v5.46c2.7-.04 4.06-.85 4.06-2.43 0-1.07-.32-1.83-.94-2.3s-1.67-.7-3.12-.73zm33.78 9.47v4.19h6.28v4.92h-12.4V8.72h12.36v4.9h-6.25v4.25h5.44v4.78h-5.43z"/></g><g fill="#fff"><path d="M4.56 6.45A2.65 2.65 0 0 1 6.6 5.4c1.66-.12 2.61.68 2.86 2.4a206.43 206.43 0 0 0 3.28 17.72l7.16-13.91c.66-1.25 1.47-1.92 2.46-2 1.43-.1 2.33.83 2.69 2.8a63.1 63.1 0 0 0 3.1 11.42c.85-8.47 2.28-14.59 4.3-18.35A2.53 2.53 0 0 1 34.6 4c.75-.06 1.5.18 2.07.67.6.45.95 1.15 1 1.91.04.55-.07 1.1-.33 1.6-1.28 2.4-2.33 6.42-3.16 12.04-.8 5.43-1.1 9.67-.9 12.73.08.75-.05 1.5-.37 2.18-.33.69-1 1.14-1.74 1.18-.88.06-1.74-.35-2.59-1.24-3.03-3.18-5.44-7.91-7.21-14.2l-4.73 9.63c-1.91 3.78-3.56 5.71-4.93 5.8-.9.07-1.66-.7-2.29-2.29-1.66-4.37-3.45-12.8-5.37-25.33a2.9 2.9 0 0 1 .5-2.25z"/><path fill-rule="evenodd" d="M69.9 8.24a7.62 7.62 0 0 1 5.25 3.95 13.16 13.16 0 0 1 1.59 6.7 18.9 18.9 0 0 1-2.55 9.64c-1.96 3.4-4.52 5.1-7.7 5.1a8.31 8.31 0 0 1-1.77-.2 7.61 7.61 0 0 1-5.25-3.94 13.43 13.43 0 0 1-1.59-6.75 18.58 18.58 0 0 1 2.55-9.59c1.99-3.4 4.55-5.1 7.7-5.1.6 0 1.19.06 1.77.19zm-1.39 18.44c1.22-1.13 2.05-2.82 2.5-5.05a12.67 12.67 0 0 0 .24-2.49 9.03 9.03 0 0 0-.58-3.1c-.48-1.3-1.12-2.04-1.92-2.2-1.18-.27-2.32.43-3.41 2.1a11.46 11.46 0 0 0-1.73 4.04 12.7 12.7 0 0 0-.24 2.5c0 1.06.2 2.1.57 3.1.49 1.29 1.13 2.02 1.93 2.2s1.68-.2 2.64-1.1zM49.71 8.24a7.63 7.63 0 0 1 5.24 3.95 13.18 13.18 0 0 1 1.58 6.7 18.9 18.9 0 0 1-2.55 9.64c-1.95 3.4-4.52 5.1-7.7 5.1a8.36 8.36 0 0 1-1.77-.2 7.63 7.63 0 0 1-5.25-3.94 13.45 13.45 0 0 1-1.58-6.75c-.04-3.38.85-6.7 2.55-9.59 1.98-3.4 4.55-5.1 7.7-5.1a8.35 8.35 0 0 1 1.77.19zm-1.4 18.44c1.22-1.13 2.06-2.82 2.5-5.05.17-.81.25-1.65.24-2.49a9.13 9.13 0 0 0-.57-3.1c-.48-1.3-1.12-2.04-1.92-2.2-1.19-.27-2.33.43-3.42 2.1a11.45 11.45 0 0 0-1.73 4.04 12.69 12.69 0 0 0-.24 2.5 9.05 9.05 0 0 0 .57 3.1c.48 1.3 1.13 2.03 1.93 2.2s1.68-.2 2.64-1.1z"/></g><path fill="#7f54b3" d="M121.36 58.23v-6.85h4.9c4.13 0 6.44-2.82 6.44-6.16 0-3.36-2.28-6.18-6.45-6.18h-8.98v19.19h4.09zm4.32-10.44h-4.32v-5.16h4.32c1.6 0 2.84.98 2.84 2.6 0 1.58-1.23 2.55-2.84 2.55zm20.67 10.44v-8.98c0-4-2.9-5.26-6.1-5.26-2.19 0-4.38.66-6.07 2.18l1.44 2.56a5.84 5.84 0 0 1 4-1.64c1.84 0 3.05.93 3.05 2.34v1.75c-.93-1.1-2.54-1.7-4.4-1.7-2.22 0-4.81 1.21-4.81 4.5 0 3.1 2.59 4.6 4.8 4.6 1.82 0 3.46-.67 4.4-1.82v1.47h3.69zm-6.62-2.13c-1.44 0-2.62-.75-2.62-2.07s1.18-2.1 2.62-2.1c1.18 0 2.33.43 2.94 1.23v1.73c-.61.8-1.76 1.2-2.94 1.2zm9.46 7.54c.44.14 1.39.23 1.79.23 2.39-.06 4.23-.75 5.26-3.37l6.53-16.17h-3.9L155.2 54l-3.63-9.67h-3.91l5.64 14.07-.52 1.2c-.34.76-.98 1.02-1.93 1.02-.34 0-.83-.09-1.15-.23l-.52 3.25zm35.85-5.41V48.19c0-2.85-1.53-4.2-4.09-4.2a5.95 5.95 0 0 0-4.78 2.5c-.49-1.55-1.8-2.5-3.85-2.5a6.22 6.22 0 0 0-4.55 2.13v-1.79h-3.65v13.9h3.65v-9.38c.55-.75 1.61-1.61 2.88-1.61 1.5 0 2.07.92 2.07 2.21v8.78h3.68v-9.38a3.69 3.69 0 0 1 2.88-1.61c1.5 0 2.07.92 2.07 2.21v8.78h3.69zm9.85.34c2.16 0 4.35-.66 5.73-1.92l-1.64-2.42c-.9.86-2.5 1.35-3.69 1.35-2.36 0-3.74-1.4-4-3.1h10.33v-.87c0-4.52-2.79-7.62-6.96-7.62-4.2 0-7.2 3.25-7.2 7.28 0 4.46 3.2 7.3 7.43 7.3zm3.22-8.63h-6.84a3.2 3.2 0 0 1 3.4-2.96c2.4 0 3.33 1.64 3.44 2.96zm18.93 8.29v-9.81c0-2.7-1.47-4.43-4.55-4.43a6.5 6.5 0 0 0-4.86 2.13v-1.79h-3.65v13.9h3.65v-9.38a4.06 4.06 0 0 1 3.16-1.61c1.56 0 2.57.66 2.57 2.59v8.4h3.68zm7.97.34c1.53 0 2.5-.4 3.05-.89l-.78-2.79c-.2.23-.72.43-1.26.43-.8 0-1.27-.66-1.27-1.55v-6.24h2.82v-3.2h-2.82v-3.8h-3.65v3.8h-2.3v3.2h2.3v7.22c0 2.5 1.35 3.83 3.91 3.83zm9.78 0c3.86 0 6.04-1.87 6.04-4.43 0-5.6-8.26-3.88-8.26-5.92 0-.78.87-1.36 2.2-1.36a6 6 0 0 1 4.1 1.62l1.47-2.6a8.85 8.85 0 0 0-5.58-1.9c-3.68 0-5.7 2.05-5.7 4.38 0 5.47 8.23 3.6 8.23 5.87 0 .86-.75 1.47-2.33 1.47a7.88 7.88 0 0 1-4.8-1.93l-1.58 2.64c1.46 1.36 3.8 2.16 6.2 2.16z"/></svg>
