<svg width="428" height="135" viewBox="0 0 428 135" fill="none" xmlns="http://www.w3.org/2000/svg">
<path d="M168.586 50.6953H180.02C184.055 50.6953 187.29 51.6561 189.724 53.5777C192.158 55.4993 193.375 58.0294 193.375 61.1681C193.375 64.4668 192.126 67.061 189.66 68.9185C187.194 70.7761 183.767 71.7369 179.379 71.7369H177.778V84.6437H168.522V50.6953H168.586ZM177.81 57.1967V65.2034C179.891 65.1714 181.429 64.8512 182.39 64.2106C183.382 63.5701 183.863 62.5772 183.863 61.2321C183.863 59.7589 183.382 58.734 182.422 58.1575C181.493 57.549 179.956 57.2288 177.81 57.1967Z" fill="black"/>
<path d="M222.103 84.6437H212.495L210.926 78.975H201.157L199.556 84.6437H190.14L200.933 50.6953H211.31L222.103 84.6437ZM209.164 72.8579C207.787 67.7976 206.73 62.9936 206.057 58.4458H205.929C205.193 63.1537 204.168 67.9578 202.855 72.8579H209.164Z" fill="black"/>
<path d="M216.562 50.6953H226.939C229.245 55.5634 230.91 59.3425 231.935 61.9687H232.063C233.088 59.2465 234.753 55.4993 236.995 50.6953H247.596L236.675 69.2709V84.6117H227.323V69.2709L216.562 50.6953Z" fill="black"/>
<path d="M250.478 50.6953H262.168C263.834 58.0295 265.147 64.3067 266.108 69.5911L267.1 64.3387C267.517 62.289 267.933 60.3033 268.414 58.3497L270.207 50.7273H282.121L286.765 84.6758H277.605L275.139 61.3282L269.438 84.6758H263.193L257.204 61.2962L254.834 84.6758H246.091L250.478 50.6953Z" fill="black"/>
<path d="M289.551 50.6953H308.255V57.9013H298.807V64.1466H307.006V71.1925H298.807V77.3736H308.319V84.6117H289.551V50.6953Z" fill="black"/>
<path d="M311.746 50.6953H321.066L332.82 70.2637L332.499 66.6126V50.6953H341.755V84.6437H332.275L320.778 65.3636L321.034 69.5911V84.6437H311.778V50.6953H311.746Z" fill="black"/>
<path d="M344.189 50.6953H366.255V58.4458H359.882V84.6437H350.53V58.4458H344.221V50.6953H344.189Z" fill="black"/>
<path d="M370.035 84.003V76.0924C372.949 77.5016 375.415 78.2382 377.433 78.2382C378.586 78.2382 379.515 77.982 380.187 77.4375C380.86 76.8931 381.18 76.1885 381.18 75.3237C381.18 74.6512 380.924 74.0106 380.38 73.4021C379.835 72.7936 378.906 72.089 377.593 71.2563C374.391 69.2066 372.085 67.3171 370.643 65.5876C369.202 63.8261 368.498 61.8725 368.498 59.7267C368.498 56.7802 369.619 54.4102 371.828 52.5527C374.038 50.6951 376.921 49.7664 380.444 49.7664C383.038 49.7664 385.632 50.2468 388.194 51.1755V58.7659C385.44 57.5168 383.23 56.8763 381.5 56.8763C380.347 56.8763 379.451 57.1005 378.81 57.5809C378.138 58.0613 377.817 58.7018 377.817 59.5025C377.817 60.9117 379.355 62.513 382.429 64.3065C384.255 65.3634 386.112 66.8366 388.002 68.7582C389.891 70.6798 390.82 72.8577 390.82 75.3878C390.82 78.3343 389.603 80.7363 387.137 82.6579C384.671 84.5795 381.565 85.5403 377.785 85.5403C375.159 85.5083 372.597 84.9959 370.035 84.003Z" fill="black"/>
<path fill-rule="evenodd" clip-rule="evenodd" d="M48.4852 37.1799H147.032C153.245 37.1799 158.305 42.2402 158.305 48.4534V86.0529C158.305 92.2661 153.245 97.3263 147.032 97.3263H111.674L116.51 109.208L95.1482 97.3263H48.4531C42.2399 97.3263 37.1797 92.2661 37.1797 86.0529V48.4534C37.1797 42.2402 42.2399 37.1799 48.4852 37.1799Z" fill="#7F54B3"/>
<path d="M43.2969 47.3965C44.0655 46.4677 45.1865 45.8913 46.4035 45.8592C48.9016 45.6991 50.3428 46.8841 50.7271 49.4142C52.2644 59.7268 53.9298 68.5022 55.6913 75.7082L66.5484 55.0829C67.5412 53.2254 68.7582 52.2326 70.2635 52.1365C72.4413 51.9763 73.7864 53.3535 74.3309 56.3C75.3557 62.0648 76.925 67.7335 79.0068 73.2101C80.3199 60.6556 82.4977 51.56 85.5403 45.9553C86.1488 44.6742 87.3978 43.8415 88.807 43.7775C89.9279 43.6814 91.0489 44.0337 91.9136 44.7703C92.8104 45.4429 93.3548 46.4998 93.4189 47.6207C93.4829 48.4534 93.3228 49.2861 92.9385 49.9907C91.0168 53.5777 89.4155 59.5347 88.1665 67.8617C86.9495 75.9004 86.4691 82.2097 86.7893 86.7255C86.9174 87.8464 86.6932 88.9673 86.2128 89.9602C85.7324 90.985 84.7076 91.6896 83.5866 91.7537C82.2735 91.8497 80.9925 91.2412 79.6794 89.9281C75.0675 85.2202 71.4164 78.2063 68.7262 68.8865C65.5555 75.2278 63.1535 79.9998 61.5842 83.1385C58.6698 88.7431 56.1717 91.5935 54.1219 91.7537C52.7768 91.8497 51.6239 90.7288 50.6951 88.3588C48.165 81.8894 45.4427 69.3669 42.5282 50.7914C42.272 49.5743 42.5603 48.3573 43.2969 47.3965Z" fill="white"/>
<path d="M118.657 55.179C116.991 52.2005 114.109 50.0867 110.746 49.4462C109.849 49.254 108.952 49.158 108.056 49.158C103.316 49.158 99.4404 51.624 96.4299 56.5562C93.8677 60.7517 92.5226 65.5877 92.5867 70.4878C92.5867 74.299 93.3873 77.5658 94.9567 80.288C96.622 83.2665 99.5045 85.3803 102.867 86.0208C103.764 86.213 104.661 86.3091 105.558 86.3091C110.33 86.3091 114.205 83.843 117.183 78.9109C119.745 74.6833 121.091 69.8473 121.026 64.8831C121.026 61.0719 120.226 57.8372 118.657 55.179ZM112.411 68.9185C111.739 72.1532 110.49 74.5873 108.632 76.2527C107.191 77.5658 105.846 78.0782 104.629 77.854C103.412 77.6298 102.451 76.5409 101.714 74.6513C101.17 73.2101 100.85 71.7048 100.85 70.1355C100.85 68.9185 100.978 67.7015 101.202 66.5165C101.682 64.4027 102.547 62.4171 103.828 60.6236C105.461 58.2216 107.191 57.1967 108.984 57.581C110.201 57.8372 111.162 58.8941 111.899 60.7837C112.443 62.2249 112.764 63.7302 112.764 65.2675C112.764 66.4845 112.667 67.7015 112.411 68.9185Z" fill="white"/>
<path d="M149.658 55.179C147.993 52.2005 145.11 50.0867 141.747 49.4462C140.851 49.254 139.954 49.158 139.057 49.158C134.317 49.158 130.442 51.624 127.431 56.5562C124.869 60.7517 123.524 65.5877 123.588 70.4878C123.588 74.299 124.389 77.5658 125.958 80.288C127.624 83.2665 130.506 85.3803 133.869 86.0208C134.765 86.213 135.662 86.3091 136.559 86.3091C141.331 86.3091 145.206 83.843 148.185 78.9109C150.747 74.6833 152.092 69.8473 152.028 64.8831C152.028 61.0719 151.227 57.8372 149.658 55.179ZM143.413 68.9185C142.74 72.1532 141.491 74.5873 139.634 76.2527C138.192 77.5658 136.847 78.0782 135.63 77.854C134.413 77.6298 133.452 76.5409 132.716 74.6513C132.171 73.2101 131.851 71.7048 131.851 70.1355C131.851 68.9185 131.979 67.7015 132.203 66.5165C132.684 64.4027 133.548 62.4171 134.83 60.6236C136.463 58.2216 138.192 57.1967 139.986 57.581C141.203 57.8372 142.164 58.8941 142.9 60.7837C143.445 62.2249 143.765 63.7302 143.765 65.2675C143.765 66.4845 143.669 67.7015 143.413 68.9185Z" fill="white"/>
</svg>
