<svg width="160" height="120" viewBox="0 0 160 120" fill="none" xmlns="http://www.w3.org/2000/svg">
<g opacity="0.7">
<path d="M137.354 75.2796H27.2623C26.5108 75.2787 25.7903 74.9794 25.2589 74.4472C24.7275 73.915 24.4286 73.1934 24.4277 72.4408V4.4548C24.4283 3.9034 24.6473 3.37477 25.0366 2.98486C25.4259 2.59496 25.9538 2.37563 26.5044 2.375H138.076C138.636 2.37564 139.173 2.59875 139.569 2.9954C139.965 3.39204 140.188 3.92982 140.188 4.49075V72.4408C140.188 73.1934 139.889 73.915 139.357 74.4472C138.826 74.9794 138.105 75.2787 137.354 75.2796Z" fill="#F2F2F2"/>
<path d="M133.338 71.2598H30.7355C29.2314 71.2598 28.0078 70.1123 28.0078 68.7018V9.49873C28.0078 8.45265 28.9145 7.60156 30.0291 7.60156H134.011C135.144 7.60156 136.066 8.46668 136.066 9.52998V68.7018C136.066 70.1123 134.842 71.2598 133.338 71.2598Z" fill="white"/>
<path d="M140.15 4.29267H24.3887V2.84738C24.3898 2.09224 24.6899 1.36836 25.2232 0.834561C25.7566 0.300759 26.4796 0.000623875 27.2336 0H137.305C138.059 0.000620239 138.782 0.300754 139.315 0.834558C139.849 1.36836 140.149 2.09224 140.15 2.84738V4.29267Z" fill="#CCCCCC"/>
<path d="M29.5581 2.88798C29.9645 2.88798 30.294 2.55803 30.294 2.15102C30.294 1.74401 29.9645 1.41406 29.5581 1.41406C29.1517 1.41406 28.8223 1.74401 28.8223 2.15102C28.8223 2.55803 29.1517 2.88798 29.5581 2.88798Z" fill="white"/>
<path d="M32.3511 2.88798C32.7575 2.88798 33.087 2.55803 33.087 2.15102C33.087 1.74401 32.7575 1.41406 32.3511 1.41406C31.9447 1.41406 31.6152 1.74401 31.6152 2.15102C31.6152 2.55803 31.9447 2.88798 32.3511 2.88798Z" fill="white"/>
<path d="M35.1441 2.88798C35.5505 2.88798 35.8799 2.55803 35.8799 2.15102C35.8799 1.74401 35.5505 1.41406 35.1441 1.41406C34.7377 1.41406 34.4082 1.74401 34.4082 2.15102C34.4082 2.55803 34.7377 2.88798 35.1441 2.88798Z" fill="white"/>
<path d="M122.044 61.332H42.5318C41.7347 61.331 40.9706 61.0135 40.4069 60.4491C39.8433 59.8846 39.5263 59.1193 39.5254 58.3211V19.9276C39.5261 19.3306 39.7632 18.7583 40.1847 18.3361C40.6062 17.9139 41.1777 17.6765 41.7738 17.6758H122.766C123.372 17.6765 123.953 17.9177 124.381 18.3466C124.809 18.7755 125.05 19.357 125.051 19.9636V58.3211C125.05 59.1193 124.733 59.8846 124.169 60.4491C123.605 61.0135 122.841 61.331 122.044 61.332ZM41.7738 18.0199C41.2688 18.0205 40.7846 18.2216 40.4275 18.5793C40.0704 18.9369 39.8695 19.4218 39.869 19.9276V58.3211C39.8698 59.0281 40.1506 59.706 40.6498 60.2059C41.149 60.7058 41.8258 60.9871 42.5318 60.9879H122.044C122.75 60.9871 123.427 60.7058 123.926 60.2059C124.425 59.7059 124.706 59.0281 124.707 58.3211V19.9636C124.706 19.4483 124.502 18.9542 124.138 18.5898C123.774 18.2254 123.281 18.0205 122.766 18.0199H41.7738Z" fill="#CCCCCC"/>
<path d="M45.2799 58.3198H119.295C120.024 58.3198 120.723 58.0298 121.239 57.5135C121.754 56.9973 122.044 56.2971 122.044 55.567V23.4715C122.044 22.7415 121.754 22.0413 121.239 21.525C120.723 21.0088 120.024 20.7188 119.295 20.7188H45.2799C44.5509 20.7188 43.8518 21.0088 43.3363 21.525C42.8208 22.0413 42.5312 22.7415 42.5312 23.4715V55.567C42.5312 56.2971 42.8208 56.9973 43.3363 57.5135C43.8518 58.0298 44.5509 58.3198 45.2799 58.3198Z" fill="#F2F2F2"/>
<path d="M53.6848 30.0578C54.5387 30.0578 55.2309 29.3646 55.2309 28.5094C55.2309 27.6542 54.5387 26.9609 53.6848 26.9609C52.8309 26.9609 52.1387 27.6542 52.1387 28.5094C52.1387 29.3646 52.8309 30.0578 53.6848 30.0578Z" fill="#CCCCCC"/>
<path d="M53.6848 35.9055C54.5387 35.9055 55.2309 35.2122 55.2309 34.357C55.2309 33.5019 54.5387 32.8086 53.6848 32.8086C52.8309 32.8086 52.1387 33.5019 52.1387 34.357C52.1387 35.2122 52.8309 35.9055 53.6848 35.9055Z" fill="#CCCCCC"/>
<path d="M53.6848 41.757C54.5387 41.757 55.2309 41.0638 55.2309 40.2086C55.2309 39.3534 54.5387 38.6602 53.6848 38.6602C52.8309 38.6602 52.1387 39.3534 52.1387 40.2086C52.1387 41.0638 52.8309 41.757 53.6848 41.757Z" fill="#CCCCCC"/>
<path d="M53.6848 47.6047C54.5387 47.6047 55.2309 46.9114 55.2309 46.0563C55.2309 45.2011 54.5387 44.5078 53.6848 44.5078C52.8309 44.5078 52.1387 45.2011 52.1387 46.0563C52.1387 46.9114 52.8309 47.6047 53.6848 47.6047Z" fill="#CCCCCC"/>
<path d="M112.267 28.68H61.4159C61.3704 28.68 61.3267 28.6619 61.2945 28.6296C61.2622 28.5974 61.2441 28.5536 61.2441 28.508C61.2441 28.4624 61.2622 28.4186 61.2945 28.3863C61.3267 28.3541 61.3704 28.3359 61.4159 28.3359H112.267C112.312 28.3359 112.356 28.3541 112.388 28.3863C112.42 28.4186 112.438 28.4624 112.438 28.508C112.438 28.5536 112.42 28.5974 112.388 28.6296C112.356 28.6619 112.312 28.68 112.267 28.68Z" fill="#CCCCCC"/>
<path d="M112.267 34.5277H61.4159C61.3704 34.5277 61.3267 34.5096 61.2945 34.4773C61.2622 34.445 61.2441 34.4013 61.2441 34.3556C61.2441 34.31 61.2622 34.2663 61.2945 34.234C61.3267 34.2017 61.3704 34.1836 61.4159 34.1836H112.267C112.312 34.1836 112.356 34.2017 112.388 34.234C112.42 34.2663 112.438 34.31 112.438 34.3556C112.438 34.4013 112.42 34.445 112.388 34.4773C112.356 34.5096 112.312 34.5277 112.267 34.5277Z" fill="#CCCCCC"/>
<path d="M112.267 40.3793H61.4159C61.3704 40.3793 61.3267 40.3611 61.2945 40.3289C61.2622 40.2966 61.2441 40.2528 61.2441 40.2072C61.2441 40.1616 61.2622 40.1178 61.2945 40.0856C61.3267 40.0533 61.3704 40.0352 61.4159 40.0352H112.267C112.312 40.0352 112.356 40.0533 112.388 40.0856C112.42 40.1178 112.438 40.1616 112.438 40.2072C112.438 40.2528 112.42 40.2966 112.388 40.3289C112.356 40.3611 112.312 40.3793 112.267 40.3793Z" fill="#CCCCCC"/>
<path d="M112.267 46.2269H61.4159C61.3704 46.2269 61.3267 46.2088 61.2945 46.1765C61.2622 46.1443 61.2441 46.1005 61.2441 46.0549C61.2441 46.0092 61.2622 45.9655 61.2945 45.9332C61.3267 45.9009 61.3704 45.8828 61.4159 45.8828H112.267C112.312 45.8828 112.356 45.9009 112.388 45.9332C112.42 45.9655 112.438 46.0092 112.438 46.0549C112.438 46.1005 112.42 46.1443 112.388 46.1765C112.356 46.2088 112.312 46.2269 112.267 46.2269Z" fill="#CCCCCC"/>
<path d="M71.0363 52.0768H66.0543C65.8265 52.0765 65.6082 51.9858 65.4472 51.8245C65.2862 51.6632 65.1956 51.4446 65.1953 51.2165V46.5712C65.1956 46.3431 65.2862 46.1245 65.4472 45.9632C65.6082 45.8019 65.8265 45.7112 66.0543 45.7109H71.0363C71.264 45.7112 71.4823 45.8019 71.6434 45.9632C71.8044 46.1245 71.895 46.3431 71.8952 46.5712V51.2165C71.895 51.4446 71.8044 51.6632 71.6434 51.8245C71.4823 51.9858 71.264 52.0765 71.0363 52.0768Z" fill="#949494"/>
<path d="M82.2023 52.0788H77.2203C76.9926 52.0785 76.7742 51.9878 76.6132 51.8265C76.4522 51.6653 76.3616 51.4466 76.3613 51.2185V40.7235C76.3616 40.4955 76.4522 40.2768 76.6132 40.1155C76.7742 39.9543 76.9926 39.8635 77.2203 39.8633H82.2023C82.43 39.8635 82.6483 39.9543 82.8094 40.1155C82.9704 40.2768 83.061 40.4955 83.0613 40.7235V51.2185C83.061 51.4466 82.9704 51.6653 82.8094 51.8265C82.6483 51.9878 82.43 52.0785 82.2023 52.0788Z" fill="#949494"/>
<path d="M93.5402 52.0769H88.5582C88.3305 52.0766 88.1121 51.9859 87.9511 51.8247C87.7901 51.6634 87.6995 51.4447 87.6992 51.2167V34.872C87.6995 34.6439 87.7901 34.4252 87.9511 34.264C88.1121 34.1027 88.3305 34.012 88.5582 34.0117H93.5402C93.7679 34.012 93.9862 34.1027 94.1473 34.264C94.3083 34.4252 94.3989 34.6439 94.3991 34.872V51.2167C94.3989 51.4447 94.3083 51.6634 94.1473 51.8247C93.9862 51.9859 93.7679 52.0766 93.5402 52.0769Z" fill="#949494"/>
<path d="M105.222 52.0787H100.24C100.012 52.0785 99.7938 51.9878 99.6327 51.8265C99.4717 51.6652 99.3811 51.4466 99.3809 51.2185V29.1962C99.3811 28.9681 99.4717 28.7495 99.6327 28.5882C99.7938 28.4269 100.012 28.3362 100.24 28.3359H105.222C105.45 28.3362 105.668 28.4269 105.829 28.5882C105.99 28.7495 106.081 28.9681 106.081 29.1962V51.2185C106.081 51.4466 105.99 51.6652 105.829 51.8265C105.668 51.9878 105.45 52.0785 105.222 52.0787Z" fill="#949494"/>
<path d="M112.267 52.0785H61.4159C61.3704 52.0785 61.3267 52.0603 61.2945 52.0281C61.2622 51.9958 61.2441 51.9521 61.2441 51.9064C61.2441 51.8608 61.2622 51.817 61.2945 51.7848C61.3267 51.7525 61.3704 51.7344 61.4159 51.7344H112.267C112.312 51.7344 112.356 51.7525 112.388 51.7848C112.42 51.817 112.438 51.8608 112.438 51.9064C112.438 51.9521 112.42 51.9958 112.388 52.0281C112.356 52.0603 112.312 52.0785 112.267 52.0785Z" fill="#787C82"/>
<path d="M134.608 84.1743C134.748 83.9633 134.931 83.7854 135.147 83.6531C135.362 83.5209 135.604 83.4376 135.854 83.409C136.105 83.3804 136.36 83.4072 136.599 83.4876C136.838 83.568 137.057 83.7 137.24 83.8744L142.696 81.0547L142.356 84.2315L137.228 86.422C136.915 86.7105 136.508 86.8741 136.082 86.8817C135.657 86.8893 135.244 86.7405 134.921 86.4634C134.598 86.1864 134.388 85.8003 134.331 85.3784C134.273 84.9565 134.372 84.5281 134.608 84.1743Z" fill="#DCDCDE"/>
<path d="M139.302 85.3569C139.178 85.2596 139.087 85.1269 139.04 84.9764L138.606 83.5726C138.56 83.4205 138.561 83.2577 138.61 83.1063C138.658 82.9548 138.752 82.822 138.879 82.7259L143.301 79.3812L148.089 70.4841C148.29 70.2254 148.539 70.0088 148.824 69.8466C149.108 69.6845 149.421 69.5799 149.745 69.539C150.07 69.4982 150.399 69.5217 150.715 69.6083C151.03 69.6948 151.326 69.8428 151.584 70.0437C151.842 70.2446 152.058 70.4944 152.22 70.779C152.382 71.0636 152.487 71.3774 152.527 71.7024C152.568 72.0274 152.545 72.3572 152.458 72.6731C152.372 72.989 152.224 73.2847 152.023 73.5434L149.299 79.302C148.472 81.0499 147.04 82.4375 145.268 83.2069L140.086 85.4578C139.987 85.501 139.879 85.5227 139.771 85.5216C139.662 85.5204 139.555 85.4964 139.456 85.451C139.401 85.4258 139.35 85.3942 139.302 85.3569Z" fill="#C3C4C7"/>
<path d="M152.143 66.7717C154.474 66.7717 156.363 64.8798 156.363 62.546C156.363 60.2122 154.474 58.3203 152.143 58.3203C149.813 58.3203 147.924 60.2122 147.924 62.546C147.924 64.8798 149.813 66.7717 152.143 66.7717Z" fill="#DCDCDE"/>
<path d="M150.432 117.98L148.326 117.98L147.324 109.844L150.433 109.844L150.432 117.98Z" fill="#DCDCDE"/>
<path d="M146.821 117.379H150.883V119.94H144.264C144.264 119.604 144.33 119.271 144.458 118.96C144.587 118.649 144.775 118.367 145.013 118.129C145.25 117.891 145.532 117.703 145.842 117.574C146.153 117.445 146.485 117.379 146.821 117.379Z" fill="#787C82"/>
<path d="M157.303 117.98L155.197 117.98L154.195 109.844L157.304 109.844L157.303 117.98Z" fill="#DCDCDE"/>
<path d="M153.692 117.379H157.754V119.94H151.135C151.135 119.604 151.201 119.271 151.329 118.96C151.458 118.649 151.646 118.367 151.884 118.129C152.121 117.891 152.403 117.703 152.714 117.574C153.024 117.445 153.356 117.379 153.692 117.379Z" fill="#787C82"/>
<path d="M157.458 115.918L154.989 115.918C154.82 115.917 154.654 115.861 154.519 115.758C154.385 115.654 154.287 115.509 154.243 115.345L150.69 102.149C150.685 102.128 150.672 102.11 150.654 102.099C150.636 102.087 150.615 102.083 150.594 102.086C150.573 102.09 150.554 102.101 150.54 102.117C150.527 102.134 150.52 102.155 150.522 102.176L151.239 114.691C151.246 114.802 151.228 114.913 151.188 115.016C151.148 115.119 151.086 115.213 151.007 115.29C150.928 115.368 150.833 115.427 150.729 115.464C150.625 115.502 150.514 115.516 150.403 115.507L147.629 115.276C147.452 115.26 147.284 115.184 147.156 115.06C147.028 114.936 146.947 114.771 146.926 114.594L144.398 88.3139L145.376 88.9015L154.538 87.3438L158.224 115.041C158.238 115.151 158.23 115.262 158.198 115.367C158.166 115.473 158.112 115.571 158.039 115.654C157.967 115.737 157.877 115.803 157.777 115.849C157.677 115.894 157.568 115.918 157.458 115.918H157.458Z" fill="#787C82"/>
<path d="M147.462 91.0874C146.451 91.0793 145.461 90.8002 144.594 90.2791C144.461 90.1999 144.354 90.0821 144.289 89.9412C144.223 89.8003 144.202 89.6429 144.227 89.4896C144.549 87.5134 146.234 77.376 147.768 71.8495C148.392 69.5986 149.773 68.3862 151.871 68.2462C154.941 68.0445 157.669 70.4497 157.953 73.6141C158.454 79.1968 156.419 87.1287 155.52 90.2798C155.485 90.4015 155.421 90.5127 155.333 90.6038C155.245 90.6949 155.137 90.7631 155.016 90.8022C154.896 90.8414 154.768 90.8504 154.644 90.8285C154.519 90.8066 154.402 90.7544 154.302 90.6766L152.471 89.2497C152.358 89.1634 152.219 89.1194 152.077 89.1254C151.935 89.1313 151.8 89.1867 151.695 89.2821C150.151 90.6611 148.685 91.0875 147.462 91.0874Z" fill="#C3C4C7"/>
<path opacity="0.2" d="M153.52 76.3438L155.066 82.8818L152.832 88.3872L154.379 83.0539L153.52 76.3438Z" fill="#787C82"/>
<path d="M154.55 66.0211C154.925 66.0281 155.298 65.9605 155.647 65.8223C155.801 65.763 155.96 65.7143 156.114 65.655C157.468 65.1311 158.36 63.687 158.392 62.2336C158.424 60.7802 157.672 59.3696 156.556 58.4399C155.441 57.5102 153.995 57.0328 152.548 56.9224C150.989 56.8034 149.233 57.1993 148.362 58.4996C148.13 58.8457 147.968 59.2656 148.105 59.6836C148.146 59.8097 148.22 59.9228 148.318 60.0115C148.707 60.3582 149.095 60.0975 149.492 60.0745C150.037 60.0429 150.527 60.4848 150.703 61.0025C150.879 61.5202 150.801 62.0902 150.659 62.6182C150.551 62.9359 150.482 63.2659 150.456 63.6006C150.444 63.7684 150.476 63.9364 150.547 64.0886C150.619 64.2408 150.728 64.3721 150.864 64.4703C151.205 64.6765 151.652 64.5572 151.993 64.3513C152.334 64.1454 152.629 63.8592 152.997 63.7077C153.365 63.5562 153.86 63.5899 154.074 63.9258C154.142 64.048 154.188 64.1813 154.21 64.3196C154.402 65.1961 154.358 65.1445 154.55 66.0211Z" fill="#787C82"/>
<path d="M148.011 112.079L121.59 102.864C121.137 102.705 120.765 102.373 120.556 101.939C120.347 101.506 120.318 101.008 120.475 100.554L127.341 80.8095C127.457 80.4769 127.7 80.204 128.017 80.0506C128.334 79.8972 128.698 79.876 129.031 79.9915L156.345 89.5181C156.683 89.6364 156.96 89.8841 157.116 90.2068C157.272 90.5295 157.293 90.901 157.176 91.2396L150.318 110.962C150.159 111.416 149.827 111.789 149.395 111.998C148.963 112.207 148.465 112.236 148.011 112.079Z" fill="#EEEEEE"/>
<path d="M123.845 101.731L146.948 109.789C147.388 109.942 147.871 109.914 148.29 109.711C148.71 109.508 149.032 109.147 149.185 108.706L154.729 92.7629C154.882 92.3223 154.854 91.8388 154.652 91.4187C154.449 90.9986 154.088 90.6765 153.648 90.523L130.544 82.465C130.104 82.3116 129.622 82.3395 129.202 82.5425C128.783 82.7456 128.461 83.1072 128.308 83.5478L122.764 99.491C122.688 99.7092 122.656 99.9402 122.669 100.171C122.682 100.401 122.741 100.627 122.841 100.835C122.941 101.043 123.082 101.229 123.254 101.383C123.426 101.537 123.627 101.655 123.845 101.731Z" fill="white"/>
<path d="M129.646 90.5275L128.502 90.1284C128.44 90.1067 128.389 90.0612 128.361 90.002C128.332 89.9427 128.328 89.8746 128.35 89.8124L128.748 88.6665C128.77 88.6044 128.815 88.5534 128.874 88.5248C128.934 88.4961 129.002 88.4922 129.064 88.5137L130.208 88.9128C130.27 88.9345 130.321 88.98 130.349 89.0392C130.378 89.0985 130.382 89.1667 130.36 89.2288L129.962 90.3747C129.94 90.4368 129.895 90.4878 129.836 90.5164C129.777 90.5451 129.708 90.5491 129.646 90.5275Z" fill="#949494"/>
<path d="M128.613 93.4962L127.469 93.0972C127.407 93.0755 127.356 93.03 127.327 92.9707C127.299 92.9115 127.295 92.8433 127.316 92.7811L127.715 91.6352C127.737 91.5731 127.782 91.5222 127.841 91.4935C127.9 91.4649 127.968 91.4609 128.03 91.4825L129.175 91.8816C129.237 91.9033 129.288 91.9487 129.316 92.008C129.345 92.0672 129.349 92.1354 129.327 92.1976L128.929 93.3435C128.907 93.4056 128.862 93.4566 128.802 93.4852C128.743 93.5138 128.675 93.5178 128.613 93.4962Z" fill="#787C82"/>
<path d="M127.582 96.465L126.438 96.0659C126.376 96.0442 126.325 95.9987 126.296 95.9395C126.268 95.8802 126.264 95.8121 126.285 95.7499L126.684 94.604C126.705 94.5419 126.751 94.4909 126.81 94.4623C126.869 94.4336 126.937 94.4297 126.999 94.4512L128.143 94.8503C128.205 94.872 128.256 94.9175 128.285 94.9767C128.314 95.036 128.317 95.1042 128.296 95.1663L127.897 96.3122C127.876 96.3743 127.83 96.4253 127.771 96.4539C127.712 96.4826 127.644 96.4866 127.582 96.465Z" fill="#CCCCCC"/>
<path d="M137.334 92.5657L131.821 90.643C131.79 90.6323 131.762 90.6157 131.738 90.594C131.713 90.5723 131.693 90.546 131.679 90.5167C131.665 90.4873 131.657 90.4554 131.655 90.4228C131.653 90.3902 131.657 90.3576 131.668 90.3267C131.679 90.2959 131.695 90.2675 131.717 90.2431C131.739 90.2188 131.765 90.1989 131.795 90.1848C131.824 90.1706 131.856 90.1624 131.888 90.1605C131.921 90.1587 131.953 90.1634 131.984 90.1742L137.497 92.097C137.528 92.1076 137.556 92.1243 137.581 92.1459C137.605 92.1676 137.625 92.1939 137.639 92.2233C137.653 92.2526 137.662 92.2845 137.664 92.3171C137.666 92.3497 137.661 92.3824 137.65 92.4132C137.64 92.444 137.623 92.4724 137.601 92.4968C137.579 92.5212 137.553 92.541 137.524 92.5552C137.494 92.5693 137.463 92.5776 137.43 92.5794C137.397 92.5812 137.365 92.5766 137.334 92.5657Z" fill="#CCCCCC"/>
<path d="M136.302 95.5343L130.789 93.6115C130.727 93.5898 130.676 93.5444 130.648 93.4851C130.619 93.4259 130.615 93.3576 130.637 93.2955C130.658 93.2333 130.704 93.1823 130.763 93.1536C130.822 93.125 130.89 93.1211 130.952 93.1427L136.465 95.0655C136.496 95.0762 136.524 95.0928 136.549 95.1145C136.573 95.1362 136.593 95.1624 136.607 95.1918C136.621 95.2212 136.63 95.2531 136.632 95.2856C136.634 95.3182 136.629 95.3509 136.618 95.3817C136.608 95.4125 136.591 95.4409 136.569 95.4653C136.548 95.4896 136.521 95.5095 136.492 95.5236C136.463 95.5378 136.431 95.546 136.398 95.5479C136.366 95.5497 136.333 95.5451 136.302 95.5343Z" fill="#CCCCCC"/>
<path d="M135.269 98.503L129.756 96.5802C129.694 96.5586 129.643 96.5131 129.615 96.4539C129.586 96.3946 129.582 96.3264 129.604 96.2642C129.625 96.2021 129.671 96.151 129.73 96.1224C129.789 96.0937 129.857 96.0898 129.919 96.1115L135.432 98.0342C135.494 98.0559 135.545 98.1013 135.574 98.1606C135.602 98.2199 135.606 98.2881 135.585 98.3503C135.563 98.4124 135.518 98.4634 135.458 98.4921C135.399 98.5207 135.331 98.5247 135.269 98.503Z" fill="#CCCCCC"/>
<path d="M149.94 100.114C149.98 100.018 150.018 99.9195 150.052 99.8195C150.505 98.5164 150.423 97.0865 149.824 95.8442C149.224 94.6019 148.156 93.6491 146.855 93.1953L145.043 98.4062L149.94 100.114Z" fill="#949494"/>
<path d="M144.517 98.723L146.329 93.5121C145.372 93.1781 144.337 93.1321 143.354 93.3797C142.371 93.6273 141.481 94.1577 140.795 94.9056C140.109 95.6535 139.657 96.5861 139.493 97.5884C139.33 98.5907 139.464 99.619 139.877 100.546C140.291 101.474 140.966 102.259 141.82 102.807C142.674 103.354 143.669 103.64 144.683 103.627C145.697 103.615 146.685 103.306 147.526 102.738C148.367 102.17 149.023 101.368 149.414 100.431L144.517 98.723Z" fill="#787C82"/>
<path d="M151.004 91.246C150.983 90.9939 151.018 90.7403 151.106 90.5032C151.194 90.2661 151.333 90.0512 151.513 89.8736C151.692 89.696 151.909 89.5601 152.147 89.4754C152.385 89.3906 152.639 89.3592 152.89 89.3833L155.445 83.793L157.136 86.5024L154.45 91.3956C154.382 91.8159 154.162 92.1965 153.832 92.4653C153.502 92.734 153.085 92.8723 152.661 92.8538C152.236 92.8354 151.832 92.6615 151.527 92.3652C151.222 92.0688 151.036 91.6706 151.004 91.246Z" fill="#DCDCDE"/>
<path d="M155.428 89.2797C155.271 89.2797 155.117 89.2317 154.988 89.142L153.781 88.3056C153.651 88.2147 153.551 88.0859 153.496 87.9367C153.441 87.7874 153.434 87.6248 153.474 87.4709L154.892 82.1063L153.178 72.1459C153.176 71.8181 153.238 71.4932 153.362 71.1896C153.485 70.8861 153.667 70.6099 153.898 70.3768C154.128 70.1438 154.402 69.9585 154.703 69.8315C155.005 69.7045 155.329 69.6383 155.656 69.6367C155.983 69.6352 156.308 69.6982 156.611 69.8223C156.914 69.9463 157.189 70.129 157.422 70.3598C157.654 70.5906 157.839 70.865 157.965 71.1673C158.092 71.4696 158.157 71.794 158.159 72.1217L159.563 78.3368C159.99 80.223 159.718 82.2002 158.798 83.9006L156.107 88.8743C156.056 88.9699 155.984 89.0535 155.898 89.1197C155.812 89.1859 155.713 89.2332 155.607 89.2585C155.549 89.2726 155.488 89.2797 155.428 89.2797Z" fill="#C3C4C7"/>
<path d="M82.0121 117.894L84.1182 117.894L85.1201 109.758H82.0117L82.0121 117.894Z" fill="#C3C4C7"/>
<path d="M81.4746 117.207L85.6224 117.207H85.6225C85.9696 117.207 86.3134 117.275 86.6341 117.409C86.9548 117.542 87.2462 117.737 87.4916 117.982C87.7371 118.228 87.9318 118.52 88.0646 118.841C88.1975 119.162 88.2658 119.507 88.2658 119.854V119.94L81.4747 119.94L81.4746 117.207Z" fill="#787C82"/>
<path d="M73.5941 117.894L75.7003 117.894L76.7022 109.758H73.5938L73.5941 117.894Z" fill="#C3C4C7"/>
<path d="M73.0566 117.207L77.2044 117.207H77.2045C77.5517 117.207 77.8954 117.275 78.2161 117.409C78.5368 117.542 78.8282 117.737 79.0736 117.982C79.3191 118.228 79.5138 118.52 79.6466 118.841C79.7795 119.162 79.8478 119.507 79.8478 119.854V119.94L73.0568 119.94L73.0566 117.207Z" fill="#787C82"/>
<path d="M82.4323 61.5686C84.7626 61.5686 86.6517 59.6767 86.6517 57.3429C86.6517 55.0091 84.7626 53.1172 82.4323 53.1172C80.102 53.1172 78.2129 55.0091 78.2129 57.3429C78.2129 59.6767 80.102 61.5686 82.4323 61.5686Z" fill="#C3C4C7"/>
<path d="M85.2699 116.141H81.3615C81.2592 116.141 81.1579 116.121 81.0635 116.081C80.9691 116.042 80.8834 115.984 80.8115 115.911C80.7396 115.838 80.6829 115.751 80.6446 115.656C80.6063 115.561 80.5873 115.46 80.5885 115.357L80.8156 96.7705C80.8164 96.7045 80.792 96.6407 80.7472 96.5922C80.7025 96.5437 80.6409 96.5142 80.5751 96.5098C80.5094 96.5054 80.4444 96.5264 80.3936 96.5685C80.3428 96.6106 80.3101 96.6706 80.3021 96.7361L78.0275 115.46C78.0045 115.648 77.9138 115.821 77.7724 115.946C77.6311 116.071 77.4489 116.141 77.26 116.141H73.3141C73.2075 116.141 73.102 116.119 73.0044 116.076C72.9067 116.033 72.8189 115.971 72.7465 115.892C72.6741 115.814 72.6187 115.721 72.5838 115.621C72.5488 115.52 72.5351 115.413 72.5434 115.306L75.149 81.9158L75.2199 81.9081L87.697 80.5586L86.0421 115.403C86.0329 115.602 85.9475 115.79 85.8036 115.927C85.6598 116.065 85.4686 116.141 85.2699 116.141Z" fill="#949494"/>
<path d="M75.3009 83.9634C75.1004 83.9629 74.908 83.8844 74.7643 83.7445C74.6205 83.6046 74.5367 83.4142 74.5306 83.2135C74.4625 81.1022 74.3457 73.7968 75.7025 68.4335C76.0728 66.9684 76.904 65.6615 78.0732 64.706C79.2424 63.7505 80.6876 63.1972 82.1951 63.1277C83.6788 63.0466 85.1505 63.4354 86.4011 64.2391C87.6518 65.0428 88.618 66.2204 89.1627 67.6051C91.4434 73.4037 93.5981 80.5511 90.9118 81.6721C87.3909 83.1413 78.1092 83.7962 75.3483 83.9618C75.3324 83.9629 75.3166 83.9634 75.3009 83.9634Z" fill="#787C82"/>
<path d="M91.4267 53.0726C91.493 53.1408 91.5646 53.2037 91.6407 53.2606L91.1978 61.7816L89.3555 62.7262L90.4156 65.6971L93.8394 64.3423C94.116 64.2328 94.3496 64.0364 94.5053 63.7827C94.661 63.5289 94.7303 63.2314 94.7028 62.9348L93.8058 53.2692C94.0993 53.0498 94.3192 52.7462 94.4362 52.3987C94.5532 52.0512 94.5618 51.6762 94.4608 51.3237C94.3599 50.9712 94.1541 50.6578 93.871 50.4252C93.5878 50.1926 93.2407 50.0519 92.8757 50.0217C92.5107 49.9916 92.1453 50.0734 91.8279 50.2564C91.5105 50.4393 91.2562 50.7147 91.0989 51.0459C90.9416 51.3771 90.8887 51.7484 90.9473 52.1104C91.0058 52.4724 91.173 52.808 91.4267 53.0726Z" fill="#C3C4C7"/>
<path d="M91.2335 62.0992L92.5295 65.7878C92.5664 65.8927 92.5802 66.0044 92.5701 66.1152C92.56 66.226 92.5262 66.3333 92.4709 66.4299C92.4157 66.5264 92.3403 66.6098 92.2499 66.6746C92.1596 66.7393 92.0563 66.7837 91.9473 66.8049L88.1257 67.546C87.5884 67.732 86.9995 67.697 86.488 67.4487C85.9764 67.2005 85.5841 66.7592 85.397 66.2216C85.2099 65.6841 85.2433 65.0941 85.4898 64.5812C85.7364 64.0683 86.176 63.6742 86.7122 63.4854L90.1436 61.6715C90.2418 61.6195 90.3501 61.5895 90.461 61.5832C90.5719 61.577 90.6829 61.5948 90.7863 61.6354C90.8897 61.676 90.9832 61.7385 91.0604 61.8185C91.1375 61.8985 91.1966 61.9943 91.2335 62.0993V62.0992Z" fill="#787C82"/>
<path d="M73.1491 53.0726C73.0828 53.1408 73.0113 53.2037 72.9351 53.2606L73.378 61.7816L75.2203 62.7262L74.1603 65.6971L70.7365 64.3423C70.4599 64.2328 70.2262 64.0364 70.0705 63.7827C69.9148 63.5289 69.8456 63.2314 69.8731 62.9348L70.77 53.2692C70.4765 53.0498 70.2566 52.7462 70.1396 52.3987C70.0226 52.0512 70.014 51.6762 70.115 51.3237C70.216 50.9712 70.4217 50.6578 70.7049 50.4252C70.988 50.1926 71.3352 50.0519 71.7001 50.0217C72.0651 49.9916 72.4306 50.0734 72.748 50.2564C73.0654 50.4393 73.3196 50.7147 73.4769 51.0459C73.6342 51.3771 73.6871 51.7484 73.6286 52.1104C73.57 52.4724 73.4028 52.808 73.1491 53.0726H73.1491Z" fill="#C3C4C7"/>
<path d="M73.791 61.6355C73.8944 61.5948 74.0053 61.577 74.1163 61.5832C74.2272 61.5895 74.3354 61.6196 74.4337 61.6715L77.865 63.4854C78.4013 63.6743 78.8408 64.0683 79.0874 64.5813C79.334 65.0942 79.3673 65.6841 79.1802 66.2217C78.9931 66.7592 78.6008 67.2005 78.0893 67.4488C77.5778 67.6971 76.9888 67.7321 76.4516 67.5461L72.63 66.805C72.5209 66.7838 72.4177 66.7394 72.3273 66.6746C72.2369 66.6099 72.1616 66.5265 72.1063 66.4299C72.0511 66.3334 72.0172 66.2261 72.0071 66.1153C71.997 66.0045 72.0109 65.8928 72.0477 65.7879L73.3438 62.0993C73.3806 61.9943 73.4396 61.8986 73.5168 61.8185C73.594 61.7385 73.6875 61.676 73.791 61.6355Z" fill="#787C82"/>
<path d="M84.071 58.0626C84.0489 57.5236 84.1839 56.9897 84.4598 56.5263C84.7356 56.0629 85.1402 55.6899 85.6241 55.453C86.9067 54.7899 87.7125 53.3755 87.3594 52.0839C86.9075 50.4307 84.6608 49.3586 82.8403 49.9273C82.3477 50.1025 81.8725 50.3237 81.4212 50.5879L80.2319 51.2264C79.7238 51.4811 79.2339 51.7707 78.7658 52.0931C78.0645 52.6106 77.5149 53.3072 77.1743 54.1102C76.8338 54.9131 76.7147 55.7929 76.8296 56.6576C77.0638 58.3383 78.1629 59.8796 79.6672 60.9349C80.2426 61.3655 80.9071 61.6613 81.6117 61.8005C82.3328 61.9196 83.1356 61.7843 83.6628 61.3352C84.4868 60.6333 84.4017 59.458 84.1352 58.4763C84.1 58.3409 84.0785 58.2023 84.071 58.0626Z" fill="#787C82"/>
<path d="M45.1385 88.6471L18.2052 99.7129C17.7427 99.9023 17.224 99.9003 16.7629 99.7072C16.3019 99.5141 15.9362 99.1457 15.746 98.6829L7.5013 78.556C7.36272 78.2167 7.36422 77.8361 7.50546 77.4978C7.6467 77.1596 7.91616 76.8912 8.25471 76.7517L36.0984 65.3118C36.4432 65.1706 36.8297 65.1722 37.1733 65.3161C37.517 65.46 37.7895 65.7345 37.9313 66.0795L46.1669 86.1842C46.356 86.6474 46.354 87.1669 46.1612 87.6286C45.9684 88.0904 45.6006 88.4566 45.1385 88.6471Z" fill="#EEEEEE"/>
<path d="M19.181 97.2728L42.7322 87.5966C43.1807 87.4123 43.5377 87.0572 43.7247 86.6093C43.9117 86.1614 43.9134 85.6575 43.7295 85.2083L37.0719 68.956C36.9808 68.7336 36.8469 68.5314 36.6777 68.3608C36.5086 68.1903 36.3076 68.0548 36.0861 67.962C35.8647 67.8693 35.6272 67.8211 35.3871 67.8203C35.1471 67.8195 34.9093 67.8661 34.6872 67.9573L11.136 77.6335C10.9139 77.7247 10.712 77.8589 10.5417 78.0283C10.3714 78.1977 10.2361 78.399 10.1435 78.6208C10.0509 78.8426 10.0028 79.0804 10.002 79.3208C10.0011 79.5612 10.0476 79.7994 10.1387 80.0218L16.7962 96.2741C16.8873 96.4965 17.0213 96.6987 17.1904 96.8693C17.3596 97.0398 17.5606 97.1754 17.7821 97.2681C18.0035 97.3608 18.241 97.409 18.481 97.4098C18.7211 97.4106 18.9589 97.3641 19.181 97.2728Z" fill="white"/>
<path d="M36.942 73.389L36.5957 73.5312L36.6194 73.589L36.9656 73.4468L36.942 73.389Z" fill="#EEEEEE"/>
<path d="M35.921 73.8781L35.2216 74.1655L35.1979 74.1077L35.8974 73.8203L35.921 73.8781ZM34.522 74.4529L33.8226 74.7403L33.7989 74.6825L34.4984 74.3951L34.522 74.4529ZM33.1231 75.0277L32.4236 75.3151L32.3999 75.2573L33.0994 74.9699L33.1231 75.0277ZM31.7241 75.6025L31.0246 75.8899L31.0009 75.8321L31.7004 75.5447L31.7241 75.6025ZM30.325 76.1773L29.6256 76.4647L29.6019 76.4069L30.3014 76.1195L30.325 76.1773ZM28.9261 76.7521L28.2266 77.0395L28.2029 76.9817L28.9024 76.6943L28.9261 76.7521ZM27.5271 77.3269L26.8276 77.6142L26.8039 77.5565L27.5034 77.2691L27.5271 77.3269ZM26.1281 77.9017L25.4286 78.189L25.4049 78.1312L26.1044 77.8439L26.1281 77.9017ZM24.7291 78.4764L24.0296 78.7638L24.0059 78.706L24.7054 78.4187L24.7291 78.4764ZM23.3301 79.0512L22.6306 79.3386L22.6069 79.2808L23.3064 78.9934L23.3301 79.0512ZM21.9311 79.626L21.2316 79.9134L21.2079 79.8556L21.9074 79.5682L21.9311 79.626ZM20.5321 80.2008L19.8326 80.4882L19.8089 80.4304L20.5084 80.143L20.5321 80.2008ZM19.1331 80.7756L18.4336 81.063L18.4099 81.0052L19.1094 80.7178L19.1331 80.7756ZM17.7341 81.3504L17.0346 81.6378L17.0109 81.58L17.7104 81.2926L17.7341 81.3504ZM16.3351 81.9252L15.6356 82.2126L15.6119 82.1548L16.3114 81.8674L16.3351 81.9252ZM14.9361 82.5L14.2366 82.7874L14.2129 82.7296L14.9124 82.4422L14.9361 82.5Z" fill="#EEEEEE"/>
<path d="M13.5123 83.014L13.166 83.1562L13.1897 83.214L13.5359 83.0718L13.5123 83.014Z" fill="#EEEEEE"/>
<path d="M27.7759 83.4359L27.4297 83.5781L27.4534 83.6359L27.7996 83.4937L27.7759 83.4359Z" fill="#EEEEEE"/>
<path d="M26.7646 83.9172L26.0755 84.2003L26.0518 84.1425L26.7409 83.8594L26.7646 83.9172ZM25.3864 84.4834L24.6973 84.7666L24.6736 84.7088L25.3627 84.4256L25.3864 84.4834ZM24.0082 85.0497L23.3191 85.3328L23.2954 85.275L23.9845 84.9919L24.0082 85.0497ZM22.63 85.6159L21.9409 85.8991L21.9172 85.8413L22.6063 85.5581L22.63 85.6159ZM21.2517 86.1822L20.5626 86.4653L20.5389 86.4075L21.2281 86.1244L21.2517 86.1822ZM19.8735 86.7485L19.1844 87.0316L19.1607 86.9738L19.8498 86.6907L19.8735 86.7485ZM18.4953 87.3147L17.8062 87.5978L17.7825 87.54L18.4716 87.2569L18.4953 87.3147ZM17.1171 87.881L16.428 88.1641L16.4043 88.1063L17.0934 87.8232L17.1171 87.881Z" fill="#EEEEEE"/>
<path d="M15.7154 88.389L15.3691 88.5312L15.3928 88.589L15.7391 88.4468L15.7154 88.389Z" fill="#EEEEEE"/>
<path d="M22.065 88.7523L21.7188 88.8945L21.7424 88.9523L22.0887 88.8101L22.065 88.7523Z" fill="#EEEEEE"/>
<path d="M21.0335 89.2414L20.3245 89.5327L20.3008 89.4749L21.0098 89.1836L21.0335 89.2414ZM19.6155 89.824L18.9065 90.1153L18.8828 90.0575L19.5918 89.7662L19.6155 89.824ZM18.1975 90.4066L17.4885 90.6979L17.4648 90.6401L18.1738 90.3488L18.1975 90.4066Z" fill="#EEEEEE"/>
<path d="M16.7564 90.932L16.4102 91.0742L16.4338 91.132L16.7801 90.9898L16.7564 90.932Z" fill="#EEEEEE"/>
<path d="M23.8423 93.0921L23.4961 93.2344L23.5198 93.2922L23.866 93.1499L23.8423 93.0921Z" fill="#EEEEEE"/>
<path d="M22.8108 93.5812L22.1018 93.8725L22.0782 93.8147L22.7871 93.5234L22.8108 93.5812ZM21.3928 94.1638L20.6838 94.4551L20.6602 94.3973L21.3692 94.106L21.3928 94.1638ZM19.9749 94.7464L19.2659 95.0377L19.2422 94.9799L19.9512 94.6886L19.9749 94.7464Z" fill="#EEEEEE"/>
<path d="M18.5338 95.2718L18.1875 95.4141L18.2112 95.4719L18.5574 95.3296L18.5338 95.2718Z" fill="#EEEEEE"/>
<path d="M20.1816 94.7159L40.1397 86.5159C40.6227 86.3168 41.0072 85.934 41.2087 85.4514C41.4102 84.9687 41.4124 84.4258 41.2146 83.9416L37.1822 74.0977L37.1432 74.115L32.2455 85.8431L28.613 84.3222C28.546 84.2939 28.4733 84.2815 28.4007 84.2861C28.3282 84.2906 28.2576 84.3119 28.1946 84.3483C28.1 84.4054 28.0268 84.492 27.9864 84.5949L25.4196 90.7408L22.7637 89.6289C22.7064 89.6049 22.6449 89.5924 22.5828 89.5922C22.5207 89.592 22.4591 89.604 22.4016 89.6276C22.3442 89.6512 22.2919 89.686 22.2478 89.7298C22.2037 89.7737 22.1687 89.8258 22.1448 89.8832C22.1278 89.9249 20.4902 93.9488 20.1816 94.7159Z" fill="#949494"/>
<path d="M20.12 94.8085L20.0625 94.7844L22.1162 89.8661C22.1706 89.7363 22.2742 89.6334 22.4042 89.5799C22.5343 89.5265 22.6802 89.5269 22.8099 89.5811L25.4133 90.6714L27.9655 84.5594C28.0199 84.4296 28.1235 84.3267 28.2535 84.2732C28.3836 84.2198 28.5295 84.2202 28.6592 84.2744L32.2393 85.7738L37.1621 73.9844L37.2197 74.0085L32.2727 85.8555L28.6351 84.332C28.5785 84.3083 28.5177 84.296 28.4562 84.2958C28.3948 84.2955 28.3339 84.3075 28.2771 84.3308C28.2203 84.3542 28.1686 84.3885 28.125 84.4319C28.0814 84.4752 28.0468 84.5268 28.0231 84.5835L25.4468 90.7532L22.7858 89.6387C22.6714 89.5909 22.5426 89.5906 22.4279 89.6377C22.3131 89.6849 22.2217 89.7757 22.1738 89.8902L20.12 94.8085Z" fill="#787C82"/>
<path d="M22.0773 89.2183C22.3184 89.2183 22.5139 89.0225 22.5139 88.781C22.5139 88.5395 22.3184 88.3438 22.0773 88.3438C21.8361 88.3438 21.6406 88.5395 21.6406 88.781C21.6406 89.0225 21.8361 89.2183 22.0773 89.2183Z" fill="#787C82"/>
<path d="M27.7882 83.9019C28.0293 83.9019 28.2248 83.7061 28.2248 83.4646C28.2248 83.2231 28.0293 83.0273 27.7882 83.0273C27.5471 83.0273 27.3516 83.2231 27.3516 83.4646C27.3516 83.7061 27.5471 83.9019 27.7882 83.9019Z" fill="#787C82"/>
<path d="M36.6788 73.8394C36.92 73.8394 37.1154 73.6436 37.1154 73.4021C37.1154 73.1606 36.92 72.9648 36.6788 72.9648C36.4377 72.9648 36.2422 73.1606 36.2422 73.4021C36.2422 73.6436 36.4377 73.8394 36.6788 73.8394Z" fill="#787C82"/>
<path d="M12.2395 88.2839C12.4665 88.1707 12.666 88.0092 12.8239 87.8105C12.9817 87.6118 13.0942 87.3809 13.1533 87.134C13.2125 86.8871 13.2168 86.6302 13.1661 86.3814C13.1153 86.1326 13.0108 85.898 12.8597 85.6941L14.1565 72.9961H11.354L10.3234 85.395C9.99814 85.6719 9.7856 86.0586 9.72604 86.4819C9.66649 86.9052 9.76405 87.3357 10.0002 87.6918C10.2364 88.0479 10.5948 88.3048 11.0076 88.414C11.4203 88.5231 11.8586 88.4768 12.2395 88.2839Z" fill="#DCDCDE"/>
<path d="M14.8127 65.9887C17.0025 65.9887 18.7776 64.2109 18.7776 62.0178C18.7776 59.8247 17.0025 58.0469 14.8127 58.0469C12.6228 58.0469 10.8477 59.8247 10.8477 62.0178C10.8477 64.2109 12.6228 65.9887 14.8127 65.9887Z" fill="#DCDCDE"/>
<path d="M15.5587 80.3928C15.4 80.3927 15.2457 80.3405 15.1194 80.2442C14.9932 80.1478 14.902 80.0127 14.8598 79.8594C14.5422 78.7036 13.7157 76.7492 12.4034 74.0505C12.1073 73.4405 11.9433 72.7746 11.9222 72.0966C11.9012 71.4186 12.0235 70.7439 12.2811 70.1165C12.5387 69.4892 12.9259 68.9236 13.4172 68.4566C13.9085 67.9897 14.4928 67.6321 15.1318 67.4072C15.7373 67.1931 16.3796 67.1028 17.0206 67.1416C17.6617 67.1804 18.2884 67.3476 18.8638 67.6333C19.4391 67.9189 19.9514 68.3172 20.3704 68.8047C20.7894 69.2921 21.1064 69.8588 21.3029 70.4711C22.3201 73.6648 22.271 77.0858 22.2026 78.4083C22.1941 78.5676 22.1337 78.7197 22.0307 78.8413C21.9277 78.9629 21.7876 79.0474 21.6321 79.0817L15.7145 80.3759C15.6633 80.3872 15.6111 80.3928 15.5587 80.3928Z" fill="#A7AAAD"/>
<path d="M21.2894 118.098H23.2685L24.2101 110.453L21.2891 110.453L21.2894 118.098Z" fill="#DCDCDE"/>
<path d="M27.0859 119.938L20.8658 119.938L20.8656 117.531L24.6826 117.531C24.9982 117.531 25.3107 117.593 25.6023 117.714C25.8938 117.835 26.1588 118.012 26.382 118.236C26.6051 118.459 26.7822 118.724 26.903 119.016C27.0237 119.308 27.0859 119.621 27.0859 119.938Z" fill="#787C82"/>
<path d="M1.5 115.532L3.23442 116.487L7.73746 110.241L5.17792 108.832L1.5 115.532Z" fill="#DCDCDE"/>
<path d="M5.69336 119.941L0.242622 116.94L1.40043 114.831L4.7452 116.673C5.30374 116.98 5.71742 117.497 5.89523 118.11C6.07304 118.723 6.00043 119.382 5.69336 119.941Z" fill="#787C82"/>
<path d="M21.1973 113.855C21.0209 113.855 20.8507 113.791 20.7182 113.674C20.5858 113.558 20.5003 113.397 20.4776 113.222L18.0024 94.1199C17.9915 94.0354 17.9542 93.9565 17.8958 93.8945C17.8374 93.8325 17.761 93.7906 17.6774 93.7747C17.5938 93.7588 17.5074 93.7698 17.4304 93.8061C17.3534 93.8423 17.2899 93.902 17.2488 93.9767L6.93334 112.72C6.84823 112.873 6.7111 112.99 6.5469 113.051C6.38269 113.111 6.20231 113.11 6.03856 113.049L3.7901 112.191C3.69966 112.156 3.61702 112.104 3.54702 112.037C3.47703 111.97 3.4211 111.89 3.38251 111.801C3.34392 111.712 3.32346 111.616 3.32232 111.519C3.32118 111.423 3.33939 111.326 3.37587 111.237L10.5216 93.6565C10.5397 93.6118 10.552 93.565 10.5581 93.5172C11.526 86.0149 13.9885 82.1998 14.7202 81.2092C14.7736 81.1364 14.8088 81.0518 14.8227 80.9625C14.8367 80.8732 14.829 80.7819 14.8002 80.6962L14.6997 80.394C14.6595 80.2741 14.6512 80.1457 14.6758 80.0216C14.7003 79.8975 14.7567 79.782 14.8395 79.6864C17.4759 76.679 22.0711 78.3201 22.1172 78.3369L22.1402 78.3455L22.1547 78.3652C27.3072 85.4421 25.4021 108.428 24.9679 112.964C24.9517 113.134 24.8758 113.293 24.7537 113.413C24.6316 113.533 24.4711 113.606 24.3006 113.618L21.2537 113.853C21.2348 113.855 21.216 113.855 21.1973 113.855Z" fill="#787C82"/>
<path d="M30.2275 66.6299C30.2077 66.7171 30.1947 66.8058 30.1889 66.8951L23.254 70.9017L21.5684 69.9299L19.7715 72.2859L22.5886 74.2967C22.8162 74.4591 23.0902 74.5433 23.3696 74.5365C23.649 74.5296 23.9186 74.4322 24.138 74.2589L31.289 68.609C31.6118 68.7287 31.9632 68.7471 32.2966 68.6618C32.63 68.5765 32.9296 68.3916 33.1555 68.1316C33.3815 67.8717 33.523 67.549 33.5613 67.2065C33.5997 66.864 33.533 66.5179 33.3701 66.2143C33.2073 65.9107 32.956 65.664 32.6497 65.5069C32.3434 65.3498 31.9966 65.2898 31.6555 65.3349C31.3143 65.38 30.9949 65.5281 30.7399 65.7594C30.4848 65.9907 30.3061 66.2944 30.2275 66.6299Z" fill="#DCDCDE"/>
<path d="M23.0222 71.0911L20.7809 74.0003C20.7171 74.083 20.6362 74.1511 20.5438 74.1997C20.4515 74.2484 20.3497 74.2766 20.2454 74.2823C20.1412 74.288 20.037 74.2711 19.9398 74.2329C19.8427 74.1946 19.7549 74.1358 19.6825 74.0605L17.1452 71.4218C16.7241 71.0926 16.4506 70.6097 16.3846 70.0789C16.3186 69.5481 16.4654 69.0127 16.793 68.5901C17.1205 68.1676 17.6019 67.8924 18.1318 67.8248C18.6616 67.7572 19.1966 67.9028 19.6194 68.2296L22.8017 70.0118C22.8928 70.0628 22.9719 70.1329 23.0335 70.2173C23.0951 70.3017 23.1378 70.3985 23.1587 70.5009C23.1796 70.6033 23.1783 70.709 23.1547 70.8109C23.1311 70.9127 23.0859 71.0083 23.0222 71.0911Z" fill="#A7AAAD"/>
<path d="M15.4392 61.1027C16.4583 61.8012 17.7964 62.5193 18.8372 61.7754C19.1628 61.5271 19.3993 61.1799 19.5114 60.7857C19.6234 60.3915 19.605 59.9716 19.4588 59.5888C18.9605 58.1614 17.5911 57.533 16.2817 57.0514C14.5795 56.4252 12.726 55.927 10.9687 56.3755C9.21147 56.8239 7.65844 58.5278 7.97566 60.316C8.23076 61.7539 9.58516 62.9504 9.39289 64.3982C9.19938 65.8552 7.56322 66.6222 6.11875 66.8826C4.67429 67.143 3.0579 67.2267 2.01982 68.2657C0.695559 69.5913 1.02625 71.9606 2.27232 73.3601C3.5184 74.7596 5.3988 75.394 7.2209 75.8252C9.63508 76.3966 12.2462 76.6969 14.5391 75.7486C16.8319 74.8003 18.6162 72.2476 17.952 69.854C17.6714 68.8429 17.0105 67.9884 16.3718 67.1565C15.733 66.3246 15.0863 65.4547 14.8426 64.4341C14.6396 63.5835 14.7898 62.596 15.353 61.958C15.4555 61.8464 15.5199 61.7051 15.5372 61.5544C15.5544 61.4038 15.5235 61.2515 15.449 61.1195L15.4392 61.1027Z" fill="#787C82"/>
</g>
</svg>
