<svg width="126" height="81" viewBox="0 0 126 81" fill="none" xmlns="http://www.w3.org/2000/svg">
<rect width="125.146" height="80" transform="translate(0.427246)" fill="white"/>
<path d="M117.51 45L115.97 46.2369L114.429 45L112.889 46.2369L111.347 45L109.806 46.2369L108.266 45L106.724 46.2369L105.184 45L103.643 46.2369L102.101 45L100.56 46.2369L99.0183 45L97.4272 46.2771V73.7546L99.0168 75.0317L100.558 73.7933L102.098 75.0317L103.64 73.7933L105.18 75.0317L106.721 73.7933L108.263 75.0317L109.803 73.7933L111.344 75.0317L112.884 73.7933L114.426 75.0317L115.967 73.7933L117.51 75.0317L119.1 73.7546V46.2771L117.51 45Z" fill="#F7F7F7"/>
<path d="M112 50.623H99.2849V51.7608H112V50.623Z" fill="#E0E0E0"/>
<path d="M112 54.0938H99.2849V55.2315H112V54.0938Z" fill="#E0E0E0"/>
<path d="M112 57.5645H99.2849V58.7023H112V57.5645Z" fill="#E0E0E0"/>
<path d="M117.242 50.623H114.242V51.7608H117.242V50.623Z" fill="#F0F0F0"/>
<path d="M117.242 54.0938H114.242V55.2315H117.242V54.0938Z" fill="#F0F0F0"/>
<path d="M117.242 57.5645H114.242V58.7023H117.242V57.5645Z" fill="#F0F0F0"/>
<path d="M117.242 64.1973H112.288V66.3645H117.242V64.1973Z" fill="#F0F0F0"/>
<path d="M99.2942 61.6758H117.234" stroke="#E0E0E0" stroke-width="0.99" stroke-miterlimit="10"/>
<path d="M45.5153 18.1761C50.5345 18.1761 54.6033 14.1072 54.6033 9.08803C54.6033 4.06885 50.5345 0 45.5153 0C40.4961 0 36.4272 4.06885 36.4272 9.08803C36.4272 14.1072 40.4961 18.1761 45.5153 18.1761Z" fill="#E0E0E0"/>
<path d="M45.4095 13.3426C44.1925 13.3062 43.2458 12.7641 42.6799 12.0387L42.9992 11.7557C43.4781 12.3453 44.2905 12.9238 45.4095 12.9727V9.06253C44.1672 8.71797 42.9391 8.34971 42.9391 6.94778C42.9391 5.65649 44.0945 4.89467 45.4095 4.85832V3.75195H45.8031V4.87096C46.8478 4.93261 47.6349 5.36251 48.1628 6.01527L47.8562 6.29818C47.3393 5.63436 46.6265 5.30245 45.8031 5.24081V8.74484C47.0691 9.1131 48.3477 9.56829 48.3477 11.1188C48.3477 12.0039 47.8072 13.2335 45.8031 13.3315V14.4253H45.4095V13.3442V13.3426ZM45.4095 8.63262V5.22658C44.2652 5.26294 43.369 5.97576 43.369 6.94778C43.369 7.98144 44.3284 8.31336 45.4095 8.63262ZM45.8031 9.17316V12.9727C47.4753 12.8748 47.9178 11.8537 47.9178 11.1156C47.9178 9.89862 46.9094 9.50507 45.8031 9.17316Z" fill="white"/>
<path d="M45.5153 41.1761C50.5345 41.1761 54.6033 37.1072 54.6033 32.088C54.6033 27.0689 50.5345 23 45.5153 23C40.4961 23 36.4272 27.0689 36.4272 32.088C36.4272 37.1072 40.4961 41.1761 45.5153 41.1761Z" fill="#F7F7F7"/>
<path d="M45.3114 36.3523V34.5615H41.8184V34.1063H45.3114V32.755H41.8184V32.2998H44.9779L41.7441 28.0039H42.3653L45.5532 32.284L48.6811 28.0039H49.2896L46.1159 32.2998H49.1979V32.755H45.7966V34.1063H49.1979V34.5615H45.7966V36.3523H45.3114Z" fill="#E0E0E0"/>
<path d="M22.2123 15.8882H28.7811L17.4272 2L6.06811 15.8882H12.6369L4.42725 46H30.4272L22.2123 15.8882Z" fill="#E0E0E0"/>
<path d="M57.1636 68.4787H53.3739L59.9272 77L66.4775 68.4787H62.6878L67.4272 50H52.4272L57.1636 68.4787Z" fill="#F7F7F7"/>
<path d="M41.1045 54H3.35756C2.29009 54 1.42725 54.8712 1.42725 55.9447V76.4997C1.42725 77.5733 2.29009 78.4444 3.35756 78.4444H41.1045C42.172 78.4444 43.0348 77.5733 43.0348 76.4997V55.9447C43.0348 54.8712 42.172 54 41.1045 54Z" fill="#F0F0F0"/>
<path d="M41.1396 78.4438C42.1877 78.4438 43.0348 77.5499 43.0348 76.4483V65.4414C32.8098 65.4414 23.6312 70.3925 17.5029 78.4438H41.1396Z" fill="#F7F7F7"/>
<path d="M43.0348 59.7207H1.42725V63.0894H43.0348V59.7207Z" fill="#E0E0E0"/>
<rect x="5.06787" y="66.4824" width="18.7234" height="2.60047" fill="white"/>
<rect x="5.06787" y="71.6836" width="10.4019" height="2.60047" fill="white"/>
<g clip-path="url(#clip0_1373_37425)">
<path d="M81.9286 54.2526C84.6926 54.2526 86.941 56.3827 86.941 59.0013C86.941 61.6198 84.6926 63.7499 81.9286 63.7499C79.1646 63.7499 76.9161 61.6198 76.9161 59.0013C76.9161 56.3827 79.1646 54.2526 81.9286 54.2526ZM81.9286 50C76.6796 50 72.4272 54.0285 72.4272 59.0013C72.4272 63.974 76.6796 68.0025 81.9286 68.0025C87.1776 68.0025 91.4299 63.974 91.4299 59.0013C91.4299 54.0285 87.1749 50 81.9286 50Z" fill="#E0E0E0"/>
<path d="M77.227 51.1809L79.4861 54.8569C80.209 54.4742 81.0408 54.2526 81.9259 54.2526V50C80.2143 50 78.6117 50.4305 77.2244 51.1809H77.227Z" fill="#C39EF7"/>
<path d="M77.227 51.1809L79.4861 54.8569C80.209 54.4742 81.0408 54.2526 81.9259 54.2526V50C80.2143 50 78.6117 50.4305 77.2244 51.1809H77.227Z" fill="#F7F7F7"/>
<path d="M76.9161 59.002C76.9161 57.2219 77.9553 55.6709 79.4888 54.8577L77.2297 51.1816C74.3594 52.7301 72.4272 55.6508 72.4272 59.002C72.4272 61.1875 73.2511 63.1917 74.6199 64.7503L78.0882 62.0461C77.3573 61.2202 76.9161 60.1602 76.9161 59.002Z" fill="#F0F0F0"/>
</g>
<path d="M125.427 0H68.7806L60.4272 40.5555H78.192H118.75L125.427 0Z" fill="#E0E0E0"/>
<path d="M73.2051 31.6669L87.5881 21.8265L91.5108 25.7626L112.65 11.1113M112.65 11.1113H108.509M112.65 11.1113V14.8288" stroke="white"/>
<defs>
<clipPath id="clip0_1373_37425">
<rect width="19" height="18" fill="white" transform="translate(72.4272 50)"/>
</clipPath>
</defs>
</svg>
