<?xml version="1.0" encoding="UTF-8" standalone="no"?><svg xmlns:svg="http://www.w3.org/2000/svg" xmlns="http://www.w3.org/2000/svg" xmlns:xlink="http://www.w3.org/1999/xlink" version="1.0" width="24px" height="24px" viewBox="0 0 128 128" xml:space="preserve"><g><path d="M97.63 8.23a7.38 7.38 0 0 1 2.7 10.07L89.2 37.57a7.38 7.38 0 1 1-12.77-7.37l11.12-19.27a7.38 7.38 0 0 1 10.08-2.7z" fill="#959393"/><path d="M97.63 8.23a7.38 7.38 0 0 1 2.7 10.07L89.2 37.57a7.38 7.38 0 1 1-12.77-7.37l11.12-19.27a7.38 7.38 0 0 1 10.08-2.7z" fill="#f4f4f4" transform="rotate(30 64 64)"/><path d="M97.63 8.23a7.38 7.38 0 0 1 2.7 10.07L89.2 37.57a7.38 7.38 0 1 1-12.77-7.37l11.12-19.27a7.38 7.38 0 0 1 10.08-2.7z" fill="#f4f4f4" transform="rotate(60 64 64)"/><path d="M97.63 8.23a7.38 7.38 0 0 1 2.7 10.07L89.2 37.57a7.38 7.38 0 1 1-12.77-7.37l11.12-19.27a7.38 7.38 0 0 1 10.08-2.7z" fill="#f4f4f4" transform="rotate(90 64 64)"/><path d="M97.63 8.23a7.38 7.38 0 0 1 2.7 10.07L89.2 37.57a7.38 7.38 0 1 1-12.77-7.37l11.12-19.27a7.38 7.38 0 0 1 10.08-2.7z" fill="#ebeaea" transform="rotate(120 64 64)"/><path d="M97.63 8.23a7.38 7.38 0 0 1 2.7 10.07L89.2 37.57a7.38 7.38 0 1 1-12.77-7.37l11.12-19.27a7.38 7.38 0 0 1 10.08-2.7z" fill="#e1e1e1" transform="rotate(150 64 64)"/><path d="M97.63 8.23a7.38 7.38 0 0 1 2.7 10.07L89.2 37.57a7.38 7.38 0 1 1-12.77-7.37l11.12-19.27a7.38 7.38 0 0 1 10.08-2.7z" fill="#d7d6d6" transform="rotate(180 64 64)"/><path d="M97.63 8.23a7.38 7.38 0 0 1 2.7 10.07L89.2 37.57a7.38 7.38 0 1 1-12.77-7.37l11.12-19.27a7.38 7.38 0 0 1 10.08-2.7z" fill="#cecdcd" transform="rotate(210 64 64)"/><path d="M97.63 8.23a7.38 7.38 0 0 1 2.7 10.07L89.2 37.57a7.38 7.38 0 1 1-12.77-7.37l11.12-19.27a7.38 7.38 0 0 1 10.08-2.7z" fill="#c4c3c3" transform="rotate(240 64 64)"/><path d="M97.63 8.23a7.38 7.38 0 0 1 2.7 10.07L89.2 37.57a7.38 7.38 0 1 1-12.77-7.37l11.12-19.27a7.38 7.38 0 0 1 10.08-2.7z" fill="#bbbaba" transform="rotate(270 64 64)"/><path d="M97.63 8.23a7.38 7.38 0 0 1 2.7 10.07L89.2 37.57a7.38 7.38 0 1 1-12.77-7.37l11.12-19.27a7.38 7.38 0 0 1 10.08-2.7z" fill="#b1b0b0" transform="rotate(300 64 64)"/><path d="M97.63 8.23a7.38 7.38 0 0 1 2.7 10.07L89.2 37.57a7.38 7.38 0 1 1-12.77-7.37l11.12-19.27a7.38 7.38 0 0 1 10.08-2.7z" fill="#a8a6a6" transform="rotate(330 64 64)"/><animateTransform attributeName="transform" type="rotate" values="0 64 64;30 64 64;60 64 64;90 64 64;120 64 64;150 64 64;180 64 64;210 64 64;240 64 64;270 64 64;300 64 64;330 64 64" calcMode="discrete" dur="720ms" repeatCount="indefinite"></animateTransform></g></svg>