<svg width="140" height="104" viewBox="0 0 140 104" fill="none" xmlns="http://www.w3.org/2000/svg">
<g opacity="0.7">
<path d="M119.731 65.2756H24.2704C23.6187 65.2749 22.994 65.0153 22.5332 64.5538C22.0724 64.0924 21.8132 63.4667 21.8125 62.8141V3.86345C21.813 3.38534 22.0029 2.92696 22.3405 2.58887C22.678 2.25079 23.1357 2.06061 23.6131 2.06006H120.357C120.843 2.06061 121.308 2.25408 121.652 2.59801C121.995 2.94194 122.188 3.40824 122.189 3.89463V62.8141C122.188 63.4667 121.929 64.0924 121.468 64.5538C121.007 65.0153 120.382 65.2749 119.731 65.2756Z" fill="#F2F2F2"/>
<path d="M116.249 61.7892H27.2821C25.978 61.7892 24.917 60.7941 24.917 59.5711V8.2361C24.917 7.32905 25.7032 6.59106 26.6696 6.59106H116.832C117.815 6.59106 118.614 7.34121 118.614 8.26319V59.5711C118.614 60.7941 117.553 61.7892 116.249 61.7892Z" fill="white"/>
<path d="M122.155 3.72217H21.7783V2.46897C21.7793 1.81418 22.0395 1.18651 22.502 0.723648C22.9644 0.260788 23.5913 0.000540962 24.2451 0H119.688C120.342 0.000537809 120.969 0.260784 121.431 0.723645C121.894 1.18651 122.154 1.81418 122.155 2.46897V3.72217Z" fill="#CCCCCC"/>
<path d="M26.2611 2.50387C26.6135 2.50387 26.8992 2.21777 26.8992 1.86485C26.8992 1.51193 26.6135 1.22583 26.2611 1.22583C25.9087 1.22583 25.623 1.51193 25.623 1.86485C25.623 2.21777 25.9087 2.50387 26.2611 2.50387Z" fill="white"/>
<path d="M28.6835 2.50387C29.0359 2.50387 29.3215 2.21777 29.3215 1.86485C29.3215 1.51193 29.0359 1.22583 28.6835 1.22583C28.3311 1.22583 28.0454 1.51193 28.0454 1.86485C28.0454 2.21777 28.3311 2.50387 28.6835 2.50387Z" fill="white"/>
<path d="M31.1054 2.50387C31.4577 2.50387 31.7434 2.21777 31.7434 1.86485C31.7434 1.51193 31.4577 1.22583 31.1054 1.22583C30.753 1.22583 30.4673 1.51193 30.4673 1.86485C30.4673 2.21777 30.753 2.50387 31.1054 2.50387Z" fill="white"/>
<path d="M106.456 53.1802H37.5111C36.82 53.1794 36.1574 52.9041 35.6687 52.4147C35.18 51.9252 34.9051 51.2616 34.9043 50.5695V17.2785C34.9049 16.7608 35.1105 16.2645 35.476 15.8985C35.8414 15.5324 36.337 15.3265 36.8539 15.3259H107.082C107.608 15.3265 108.111 15.5357 108.482 15.9076C108.854 16.2795 109.063 16.7837 109.063 17.3097V50.5695C109.062 51.2617 108.788 51.9252 108.299 52.4147C107.81 52.9041 107.148 53.1794 106.456 53.1802ZM36.8539 15.6243C36.416 15.6248 35.9962 15.7992 35.6865 16.1094C35.3769 16.4195 35.2027 16.8399 35.2022 17.2785V50.5695C35.2029 51.1825 35.4464 51.7703 35.8792 52.2038C36.3121 52.6373 36.899 52.8811 37.5111 52.8818H106.456C107.069 52.8811 107.655 52.6373 108.088 52.2038C108.521 51.7703 108.765 51.1825 108.765 50.5695V17.3097C108.765 16.8628 108.587 16.4345 108.272 16.1185C107.956 15.8025 107.529 15.6248 107.082 15.6243H36.8539Z" fill="#CCCCCC"/>
<path d="M39.8946 50.5687H104.073C104.705 50.5687 105.311 50.3172 105.758 49.8696C106.205 49.4219 106.456 48.8148 106.456 48.1818V20.3518C106.456 19.7187 106.205 19.1116 105.758 18.664C105.311 18.2163 104.705 17.9648 104.073 17.9648H39.8946C39.2625 17.9648 38.6563 18.2163 38.2093 18.664C37.7623 19.1116 37.5112 19.7187 37.5112 20.3518V48.1818C37.5112 48.8148 37.7623 49.4219 38.2093 49.8696C38.6563 50.3172 39.2625 50.5687 39.8946 50.5687Z" fill="#F2F2F2"/>
<path d="M47.1815 26.0618C47.9219 26.0618 48.5221 25.4606 48.5221 24.7191C48.5221 23.9776 47.9219 23.3765 47.1815 23.3765C46.4411 23.3765 45.8408 23.9776 45.8408 24.7191C45.8408 25.4606 46.4411 26.0618 47.1815 26.0618Z" fill="#CCCCCC"/>
<path d="M47.1815 31.134C47.9219 31.134 48.5221 30.5329 48.5221 29.7914C48.5221 29.0499 47.9219 28.4487 47.1815 28.4487C46.4411 28.4487 45.8408 29.0499 45.8408 29.7914C45.8408 30.5329 46.4411 31.134 47.1815 31.134Z" fill="#CCCCCC"/>
<path d="M47.1815 36.2063C47.9219 36.2063 48.5221 35.6052 48.5221 34.8637C48.5221 34.1221 47.9219 33.521 47.1815 33.521C46.4411 33.521 45.8408 34.1221 45.8408 34.8637C45.8408 35.6052 46.4411 36.2063 47.1815 36.2063Z" fill="#CCCCCC"/>
<path d="M47.1815 41.2786C47.9219 41.2786 48.5221 40.6774 48.5221 39.9359C48.5221 39.1944 47.9219 38.5933 47.1815 38.5933C46.4411 38.5933 45.8408 39.1944 45.8408 39.9359C45.8408 40.6774 46.4411 41.2786 47.1815 41.2786Z" fill="#CCCCCC"/>
<path d="M97.9775 24.8682H53.8848C53.8453 24.8682 53.8074 24.8525 53.7795 24.8245C53.7515 24.7965 53.7358 24.7586 53.7358 24.719C53.7358 24.6794 53.7515 24.6415 53.7795 24.6135C53.8074 24.5855 53.8453 24.5698 53.8848 24.5698H97.9775C98.017 24.5698 98.0549 24.5855 98.0828 24.6135C98.1107 24.6415 98.1264 24.6794 98.1264 24.719C98.1264 24.7586 98.1107 24.7965 98.0828 24.8245C98.0549 24.8525 98.017 24.8682 97.9775 24.8682Z" fill="#CCCCCC"/>
<path d="M97.9775 29.9407H53.8848C53.8453 29.9407 53.8074 29.925 53.7795 29.897C53.7515 29.869 53.7358 29.8311 53.7358 29.7915C53.7358 29.752 53.7515 29.714 53.7795 29.686C53.8074 29.6581 53.8453 29.6423 53.8848 29.6423H97.9775C98.017 29.6423 98.0549 29.6581 98.0828 29.686C98.1107 29.714 98.1264 29.752 98.1264 29.7915C98.1264 29.8311 98.1107 29.869 98.0828 29.897C98.0549 29.925 98.017 29.9407 97.9775 29.9407Z" fill="#CCCCCC"/>
<path d="M97.9775 35.013H53.8848C53.8453 35.013 53.8074 34.9972 53.7795 34.9693C53.7515 34.9413 53.7358 34.9033 53.7358 34.8638C53.7358 34.8242 53.7515 34.7863 53.7795 34.7583C53.8074 34.7303 53.8453 34.7146 53.8848 34.7146H97.9775C98.017 34.7146 98.0549 34.7303 98.0828 34.7583C98.1107 34.7863 98.1264 34.8242 98.1264 34.8638C98.1264 34.9033 98.1107 34.9413 98.0828 34.9693C98.0549 34.9972 98.017 35.013 97.9775 35.013Z" fill="#CCCCCC"/>
<path d="M97.9775 40.085H53.8848C53.8453 40.085 53.8074 40.0693 53.7795 40.0413C53.7515 40.0133 53.7358 39.9754 53.7358 39.9358C53.7358 39.8962 53.7515 39.8583 53.7795 39.8303C53.8074 39.8023 53.8453 39.7866 53.8848 39.7866H97.9775C98.017 39.7866 98.0549 39.8023 98.0828 39.8303C98.1107 39.8583 98.1264 39.8962 98.1264 39.9358C98.1264 39.9754 98.1107 40.0133 98.0828 40.0413C98.0549 40.0693 98.017 40.085 97.9775 40.085Z" fill="#CCCCCC"/>
<path d="M62.2263 45.1573H57.9064C57.709 45.157 57.5197 45.0784 57.38 44.9385C57.2404 44.7987 57.1619 44.6091 57.1616 44.4113V40.3834C57.1619 40.1856 57.2404 39.996 57.38 39.8562C57.5197 39.7163 57.709 39.6377 57.9064 39.6375H62.2263C62.4238 39.6377 62.6131 39.7163 62.7527 39.8562C62.8924 39.996 62.9709 40.1856 62.9711 40.3834V44.4113C62.9709 44.6091 62.8924 44.7987 62.7527 44.9385C62.6131 45.0784 62.4238 45.157 62.2263 45.1573Z" fill="#949494"/>
<path d="M71.9089 45.1577H67.589C67.3916 45.1575 67.2023 45.0789 67.0626 44.939C66.923 44.7992 66.8445 44.6096 66.8442 44.4118V35.3116C66.8445 35.1138 66.923 34.9242 67.0626 34.7844C67.2023 34.6446 67.3916 34.5659 67.589 34.5657H71.9089C72.1064 34.5659 72.2957 34.6446 72.4353 34.7844C72.575 34.9242 72.6535 35.1138 72.6538 35.3116V44.4118C72.6535 44.6096 72.575 44.7992 72.4353 44.939C72.2957 45.0789 72.1064 45.1575 71.9089 45.1577Z" fill="#949494"/>
<path d="M81.741 45.1575H77.4211C77.2236 45.1573 77.0343 45.0786 76.8947 44.9388C76.755 44.7989 76.6765 44.6093 76.6763 44.4116V30.2391C76.6765 30.0413 76.755 29.8517 76.8947 29.7119C77.0343 29.5721 77.2236 29.4934 77.4211 29.4932H81.741C81.9384 29.4934 82.1277 29.5721 82.2674 29.7119C82.407 29.8517 82.4856 30.0413 82.4858 30.2391V44.4116C82.4856 44.6093 82.407 44.7989 82.2674 44.9388C82.1277 45.0786 81.9384 45.1573 81.741 45.1575Z" fill="#949494"/>
<path d="M91.8699 45.1572H87.55C87.3525 45.157 87.1632 45.0783 87.0236 44.9385C86.8839 44.7987 86.8054 44.6091 86.8052 44.4113V25.3157C86.8054 25.118 86.8839 24.9284 87.0236 24.7886C87.1632 24.6487 87.3525 24.5701 87.55 24.5698H91.8699C92.0673 24.5701 92.2566 24.6487 92.3963 24.7886C92.5359 24.9284 92.6145 25.118 92.6147 25.3157V44.4113C92.6145 44.6091 92.5359 44.7987 92.3963 44.9385C92.2566 45.0783 92.0673 45.157 91.8699 45.1572Z" fill="#949494"/>
<path d="M97.9775 45.1573H53.8848C53.8453 45.1573 53.8074 45.1415 53.7795 45.1136C53.7515 45.0856 53.7358 45.0476 53.7358 45.0081C53.7358 44.9685 53.7515 44.9306 53.7795 44.9026C53.8074 44.8746 53.8453 44.8589 53.8848 44.8589H97.9775C98.017 44.8589 98.0549 44.8746 98.0828 44.9026C98.1107 44.9306 98.1264 44.9685 98.1264 45.0081C98.1264 45.0476 98.1107 45.0856 98.0828 45.1136C98.0549 45.1415 98.017 45.1573 97.9775 45.1573Z" fill="#787C82"/>
<path d="M117.35 72.9872C117.47 72.8042 117.63 72.65 117.816 72.5353C118.003 72.4207 118.212 72.3484 118.43 72.3236C118.648 72.2988 118.868 72.3221 119.076 72.3918C119.283 72.4615 119.473 72.576 119.632 72.7272L124.362 70.2822L124.068 73.0368L119.621 74.9363C119.35 75.1864 118.996 75.3282 118.628 75.3348C118.259 75.3414 117.901 75.2124 117.621 74.9721C117.341 74.7319 117.159 74.3971 117.109 74.0313C117.059 73.6655 117.144 73.294 117.35 72.9872Z" fill="#DCDCDE"/>
<path d="M121.42 74.0145C121.313 73.9302 121.233 73.8151 121.193 73.6846L120.817 72.4674C120.776 72.3355 120.777 72.1943 120.82 72.063C120.862 71.9317 120.943 71.8166 121.053 71.7332L124.887 68.833L129.039 61.1184C129.213 60.894 129.43 60.7062 129.676 60.5656C129.922 60.425 130.194 60.3344 130.475 60.2989C130.757 60.2634 131.042 60.2838 131.316 60.3589C131.589 60.434 131.845 60.5623 132.069 60.7365C132.293 60.9107 132.481 61.1273 132.621 61.3741C132.762 61.6209 132.852 61.8929 132.888 62.1747C132.923 62.4565 132.903 62.7425 132.828 63.0164C132.753 63.2903 132.625 63.5468 132.451 63.7711L130.088 68.7644C129.372 70.2799 128.129 71.4832 126.593 72.1503L122.1 74.102C122.014 74.1395 121.92 74.1584 121.826 74.1574C121.732 74.1563 121.639 74.1355 121.554 74.0962C121.506 74.0743 121.461 74.0469 121.42 74.0145Z" fill="#C3C4C7"/>
<path d="M132.555 57.899C134.575 57.899 136.213 56.2586 136.213 54.2349C136.213 52.2113 134.575 50.5708 132.555 50.5708C130.534 50.5708 128.896 52.2113 128.896 54.2349C128.896 56.2586 130.534 57.899 132.555 57.899Z" fill="#DCDCDE"/>
<path d="M131.071 102.301L129.245 102.301L128.376 95.2463L131.071 95.2465L131.071 102.301Z" fill="#DCDCDE"/>
<path d="M127.94 101.778H131.462V103.999H125.722C125.722 103.708 125.78 103.419 125.891 103.149C126.002 102.88 126.166 102.635 126.372 102.429C126.578 102.223 126.822 102.059 127.091 101.947C127.36 101.836 127.649 101.778 127.94 101.778Z" fill="#787C82"/>
<path d="M137.029 102.302L135.203 102.302L134.334 95.2468L137.029 95.2471L137.029 102.302Z" fill="#DCDCDE"/>
<path d="M133.898 101.779H137.42V104H131.681C131.681 103.708 131.738 103.419 131.849 103.15C131.961 102.88 132.124 102.636 132.33 102.429C132.536 102.223 132.781 102.059 133.05 101.948C133.319 101.836 133.607 101.779 133.898 101.779Z" fill="#787C82"/>
<path d="M137.162 100.512L135.022 100.512C134.875 100.511 134.732 100.463 134.615 100.373C134.498 100.283 134.414 100.157 134.375 100.015L131.295 88.5724C131.29 88.5545 131.279 88.5391 131.263 88.5291C131.248 88.5191 131.229 88.5152 131.211 88.5182C131.193 88.5212 131.176 88.5308 131.165 88.5452C131.153 88.5596 131.147 88.5778 131.148 88.5962L131.771 99.4482C131.776 99.5442 131.761 99.6402 131.726 99.7298C131.692 99.8194 131.638 99.9005 131.569 99.9675C131.501 100.035 131.418 100.086 131.328 100.119C131.238 100.151 131.141 100.164 131.046 100.156L128.64 99.9548C128.486 99.9416 128.341 99.8755 128.23 99.7678C128.119 99.6601 128.048 99.5173 128.03 99.3634L125.839 76.5763L126.687 77.0858L134.631 75.7351L137.827 99.7517C137.84 99.8465 137.832 99.9429 137.804 100.034C137.777 100.126 137.73 100.211 137.667 100.283C137.604 100.355 137.526 100.412 137.439 100.452C137.352 100.491 137.258 100.512 137.162 100.512H137.162Z" fill="#787C82"/>
<path d="M128.496 78.9811C127.619 78.9741 126.761 78.7321 126.009 78.2803C125.894 78.2116 125.801 78.1095 125.744 77.9873C125.688 77.8651 125.669 77.7286 125.691 77.5957C125.971 75.8821 127.432 67.092 128.761 62.2999C129.302 60.3482 130.5 59.2969 132.319 59.1755C134.981 59.0007 137.347 61.0862 137.593 63.83C138.028 68.6708 136.262 75.5485 135.483 78.2808C135.453 78.3864 135.397 78.4829 135.321 78.5619C135.245 78.6408 135.151 78.6999 135.047 78.7339C134.942 78.7678 134.831 78.7757 134.723 78.7567C134.615 78.7377 134.514 78.6924 134.427 78.6249L132.839 77.3877C132.741 77.3129 132.621 77.2747 132.498 77.2799C132.375 77.285 132.258 77.3331 132.166 77.4157C130.828 78.6115 129.556 78.9812 128.496 78.9811Z" fill="#C3C4C7"/>
<path opacity="0.2" d="M133.748 66.1987L135.088 71.8679L133.151 76.6416L134.492 72.0171L133.748 66.1987Z" fill="#787C82"/>
<path d="M134.642 57.2477C134.968 57.2537 135.291 57.1951 135.594 57.0753C135.727 57.0239 135.865 56.9817 135.998 56.9302C137.172 56.476 137.946 55.2238 137.974 53.9636C138.001 52.7033 137.35 51.4801 136.382 50.674C135.415 49.8679 134.161 49.454 132.906 49.3582C131.554 49.2551 130.032 49.5983 129.277 50.7258C129.076 51.0259 128.935 51.39 129.054 51.7524C129.09 51.8618 129.153 51.9598 129.239 52.0368C129.576 52.3374 129.913 52.1114 130.256 52.0914C130.729 52.064 131.154 52.4472 131.306 52.8961C131.459 53.345 131.392 53.8392 131.268 54.297C131.175 54.5725 131.115 54.8587 131.092 55.1489C131.082 55.2944 131.11 55.44 131.172 55.572C131.234 55.704 131.328 55.8179 131.446 55.903C131.742 56.0818 132.13 55.9783 132.425 55.7998C132.721 55.6213 132.976 55.3731 133.295 55.2417C133.615 55.1104 134.044 55.1396 134.229 55.4309C134.289 55.5368 134.328 55.6524 134.348 55.7723C134.514 56.5324 134.476 56.4876 134.642 57.2477Z" fill="#787C82"/>
<path d="M128.972 97.1834L106.062 89.193C105.669 89.0554 105.346 88.7672 105.165 88.3917C104.984 88.0162 104.959 87.5841 105.095 87.1901L111.049 70.07C111.149 69.7815 111.36 69.5449 111.635 69.4119C111.909 69.2789 112.225 69.2605 112.514 69.3606L136.198 77.6212C136.491 77.7237 136.731 77.9385 136.866 78.2183C137.001 78.4982 137.02 78.8202 136.918 79.1139L130.972 96.2152C130.834 96.6089 130.546 96.932 130.172 97.1135C129.797 97.295 129.365 97.3201 128.972 97.1834Z" fill="#EEEEEE"/>
<path d="M108.017 88.2092L128.05 95.1963C128.431 95.3294 128.85 95.3052 129.214 95.1291C129.577 94.953 129.856 94.6395 129.989 94.2575L134.796 80.4331C134.929 80.051 134.905 79.6318 134.729 79.2675C134.553 78.9033 134.24 78.6239 133.859 78.4909L113.826 71.5038C113.444 71.3707 113.026 71.3949 112.662 71.571C112.298 71.7471 112.02 72.0606 111.887 72.4427L107.079 86.267C107.014 86.4562 106.986 86.6565 106.997 86.8565C107.009 87.0565 107.059 87.2522 107.146 87.4326C107.233 87.6129 107.355 87.7743 107.504 87.9076C107.654 88.0409 107.828 88.1434 108.017 88.2092Z" fill="white"/>
<path d="M113.047 78.4963L112.055 78.1503C112.001 78.1315 111.957 78.092 111.933 78.0407C111.908 77.9893 111.904 77.9302 111.923 77.8763L112.269 76.8827C112.287 76.8288 112.327 76.7846 112.378 76.7598C112.429 76.7349 112.488 76.7315 112.542 76.7502L113.534 77.0962C113.588 77.115 113.632 77.1545 113.657 77.2058C113.682 77.2572 113.685 77.3163 113.667 77.3702L113.321 78.3639C113.302 78.4177 113.263 78.4619 113.212 78.4867C113.16 78.5116 113.101 78.515 113.047 78.4963Z" fill="#949494"/>
<path d="M112.152 81.0703L111.16 80.7243C111.106 80.7054 111.062 80.666 111.038 80.6146C111.013 80.5633 111.009 80.5041 111.028 80.4502L111.374 79.4566C111.392 79.4028 111.432 79.3586 111.483 79.3337C111.534 79.3089 111.593 79.3055 111.647 79.3242L112.639 79.6702C112.693 79.689 112.737 79.7284 112.762 79.7798C112.787 79.8312 112.79 79.8903 112.772 79.9442L112.426 80.9378C112.407 80.9917 112.368 81.0359 112.317 81.0607C112.265 81.0856 112.206 81.089 112.152 81.0703Z" fill="#787C82"/>
<path d="M111.257 83.6445L110.265 83.2985C110.211 83.2796 110.167 83.2402 110.142 83.1888C110.117 83.1375 110.114 83.0784 110.132 83.0244L110.478 82.0308C110.497 81.977 110.536 81.9328 110.587 81.908C110.639 81.8831 110.698 81.8797 110.752 81.8984L111.744 82.2444C111.798 82.2632 111.842 82.3027 111.866 82.354C111.891 82.4054 111.895 82.4645 111.876 82.5184L111.531 83.512C111.512 83.5659 111.472 83.6101 111.421 83.6349C111.37 83.6598 111.311 83.6632 111.257 83.6445Z" fill="#CCCCCC"/>
<path d="M119.714 80.2648L114.933 78.5976C114.907 78.5884 114.882 78.5739 114.861 78.5551C114.84 78.5363 114.822 78.5136 114.81 78.4881C114.798 78.4626 114.791 78.435 114.789 78.4067C114.787 78.3784 114.791 78.3501 114.801 78.3234C114.81 78.2967 114.824 78.272 114.843 78.2509C114.862 78.2298 114.885 78.2126 114.91 78.2003C114.936 78.188 114.963 78.1809 114.992 78.1793C115.02 78.1777 115.048 78.1817 115.075 78.1911L119.855 79.8584C119.882 79.8676 119.906 79.882 119.927 79.9008C119.949 79.9196 119.966 79.9424 119.978 79.9679C119.99 79.9933 119.998 80.021 119.999 80.0493C120.001 80.0775 119.997 80.1058 119.988 80.1326C119.978 80.1593 119.964 80.1839 119.945 80.2051C119.926 80.2262 119.904 80.2434 119.878 80.2557C119.853 80.268 119.825 80.2751 119.797 80.2767C119.769 80.2782 119.74 80.2742 119.714 80.2648Z" fill="#CCCCCC"/>
<path d="M118.818 82.8379L114.038 81.1706C113.984 81.1519 113.94 81.1125 113.915 81.0611C113.891 81.0097 113.887 80.9505 113.906 80.8966C113.925 80.8427 113.964 80.7985 114.015 80.7736C114.067 80.7488 114.126 80.7454 114.18 80.7642L118.96 82.4314C118.987 82.4407 119.011 82.4551 119.032 82.4739C119.053 82.4927 119.071 82.5155 119.083 82.5409C119.095 82.5664 119.102 82.594 119.104 82.6223C119.106 82.6506 119.102 82.6789 119.093 82.7056C119.083 82.7323 119.069 82.7569 119.05 82.7781C119.031 82.7992 119.008 82.8164 118.983 82.8287C118.957 82.8409 118.93 82.8481 118.902 82.8497C118.873 82.8513 118.845 82.8473 118.818 82.8379Z" fill="#CCCCCC"/>
<path d="M117.923 85.4128L113.143 83.7456C113.089 83.7268 113.045 83.6874 113.02 83.636C112.996 83.5846 112.992 83.5255 113.011 83.4716C113.03 83.4177 113.069 83.3734 113.12 83.3486C113.172 83.3238 113.231 83.3203 113.285 83.3391L118.065 85.0064C118.119 85.0251 118.163 85.0646 118.188 85.1159C118.212 85.1673 118.216 85.2265 118.197 85.2804C118.178 85.3343 118.139 85.3785 118.088 85.4034C118.036 85.4282 117.977 85.4316 117.923 85.4128Z" fill="#CCCCCC"/>
<path d="M130.645 86.8078C130.68 86.7241 130.712 86.6391 130.743 86.5524C131.135 85.4225 131.064 84.1826 130.544 83.1055C130.024 82.0283 129.098 81.2021 127.97 80.8086L126.399 85.3269L130.645 86.8078Z" fill="#949494"/>
<path d="M125.942 85.6019L127.513 81.0835C126.682 80.7939 125.786 80.754 124.933 80.9687C124.08 81.1834 123.309 81.6433 122.714 82.2918C122.119 82.9403 121.727 83.749 121.586 84.6181C121.444 85.4872 121.56 86.3787 121.918 87.1828C122.277 87.9869 122.862 88.6683 123.603 89.143C124.343 89.6178 125.206 89.8651 126.086 89.8544C126.965 89.8438 127.822 89.5757 128.551 89.0831C129.279 88.5906 129.848 87.8952 130.187 87.0827L125.942 85.6019Z" fill="#787C82"/>
<path d="M131.567 79.12C131.549 78.9014 131.579 78.6815 131.656 78.4759C131.732 78.2703 131.852 78.084 132.008 77.93C132.164 77.776 132.352 77.6581 132.558 77.5847C132.765 77.5112 132.984 77.484 133.202 77.5048L135.418 72.6575L136.884 75.0068L134.555 79.2498C134.496 79.6142 134.305 79.9442 134.019 80.1772C133.733 80.4103 133.372 80.5301 133.004 80.5141C132.635 80.4981 132.285 80.3474 132.021 80.0904C131.756 79.8335 131.595 79.4882 131.567 79.12Z" fill="#DCDCDE"/>
<path d="M135.402 77.4133C135.266 77.4133 135.133 77.3717 135.02 77.2939L133.974 76.5686C133.861 76.4899 133.775 76.3782 133.727 76.2487C133.68 76.1193 133.673 75.9783 133.708 75.8449L134.938 71.1933L133.451 62.5566C133.449 62.2723 133.504 61.9906 133.611 61.7274C133.718 61.4642 133.876 61.2247 134.075 61.0226C134.275 60.8206 134.512 60.6599 134.774 60.5498C135.036 60.4396 135.316 60.3823 135.6 60.3809C135.884 60.3795 136.165 60.4342 136.428 60.5417C136.691 60.6493 136.93 60.8077 137.131 61.0078C137.333 61.2079 137.493 61.4459 137.602 61.708C137.712 61.9702 137.769 62.2514 137.77 62.5356L138.988 67.9247C139.358 69.5602 139.122 71.2747 138.324 72.7491L135.991 77.0617C135.947 77.1446 135.885 77.2171 135.81 77.2745C135.735 77.3319 135.649 77.373 135.558 77.3949C135.507 77.4072 135.455 77.4133 135.402 77.4133Z" fill="#C3C4C7"/>
<path d="M71.7435 102.226L73.5697 102.226L74.4385 95.1719H71.7432L71.7435 102.226Z" fill="#C3C4C7"/>
<path d="M71.2773 101.629L74.8739 101.629H74.874C75.175 101.629 75.473 101.689 75.7511 101.804C76.0292 101.919 76.2819 102.088 76.4947 102.301C76.7075 102.515 76.8764 102.768 76.9915 103.046C77.1067 103.325 77.166 103.623 77.166 103.925V103.999L71.2775 103.999L71.2773 101.629Z" fill="#787C82"/>
<path d="M64.4441 102.226L66.2704 102.226L67.1392 95.1719H64.4438L64.4441 102.226Z" fill="#C3C4C7"/>
<path d="M63.9785 101.629L67.575 101.629H67.5752C67.8761 101.629 68.1742 101.689 68.4523 101.804C68.7304 101.919 68.983 102.088 69.1959 102.301C69.4087 102.515 69.5775 102.768 69.6927 103.046C69.8079 103.325 69.8672 103.623 69.8672 103.925V103.999L63.9786 103.999L63.9785 101.629Z" fill="#787C82"/>
<path d="M72.1079 53.3871C74.1285 53.3871 75.7665 51.7466 75.7665 49.723C75.7665 47.6993 74.1285 46.0588 72.1079 46.0588C70.0873 46.0588 68.4492 47.6993 68.4492 49.723C68.4492 51.7466 70.0873 53.3871 72.1079 53.3871Z" fill="#C3C4C7"/>
<path d="M74.568 100.704H71.179C71.0903 100.704 71.0024 100.687 70.9206 100.653C70.8387 100.618 70.7645 100.568 70.7021 100.505C70.6398 100.442 70.5906 100.367 70.5574 100.284C70.5242 100.202 70.5077 100.114 70.5087 100.025L70.7057 83.9085C70.7064 83.8512 70.6852 83.7959 70.6464 83.7538C70.6076 83.7118 70.5542 83.6862 70.4972 83.6824C70.4401 83.6785 70.3838 83.6968 70.3397 83.7333C70.2957 83.7698 70.2673 83.8218 70.2604 83.8786L68.2881 100.114C68.2681 100.277 68.1895 100.427 68.0669 100.536C67.9444 100.644 67.7863 100.704 67.6226 100.704H64.2011C64.1087 100.704 64.0172 100.685 63.9325 100.648C63.8478 100.611 63.7717 100.557 63.709 100.489C63.6462 100.421 63.5982 100.341 63.5678 100.253C63.5375 100.166 63.5256 100.073 63.5328 99.9809L65.7922 71.0279L65.8536 71.0212L76.6725 69.8511L75.2376 100.065C75.2296 100.237 75.1555 100.4 75.0308 100.519C74.9061 100.638 74.7403 100.705 74.568 100.704Z" fill="#949494"/>
<path d="M65.9241 72.805C65.7503 72.8046 65.5835 72.7365 65.4588 72.6152C65.3342 72.4939 65.2615 72.3288 65.2562 72.1548C65.1971 70.3241 65.0959 63.9896 66.2724 59.3391C66.5935 58.0687 67.3142 56.9354 68.328 56.1069C69.3418 55.2784 70.5949 54.7986 71.9021 54.7384C73.1887 54.668 74.4647 55.0052 75.5492 55.702C76.6336 56.3989 77.4714 57.4201 77.9438 58.6207C79.9213 63.6486 81.7896 69.8462 79.4603 70.8182C76.4074 72.0921 68.3592 72.66 65.9653 72.8037C65.9515 72.8045 65.9378 72.805 65.9241 72.805Z" fill="#787C82"/>
<path d="M79.9073 46.0193C79.9648 46.0785 80.0268 46.133 80.0929 46.1824L79.7088 53.5709L78.1113 54.39L79.0305 56.9661L81.9993 55.7913C82.2391 55.6964 82.4418 55.5261 82.5768 55.3061C82.7117 55.086 82.7718 54.828 82.748 54.5709L81.9702 46.1898C82.2247 45.9996 82.4154 45.7364 82.5168 45.435C82.6183 45.1337 82.6257 44.8086 82.5382 44.5029C82.4506 44.1972 82.2722 43.9255 82.0267 43.7238C81.7812 43.5221 81.4802 43.4001 81.1637 43.374C80.8473 43.3478 80.5304 43.4188 80.2551 43.5774C79.9799 43.736 79.7595 43.9748 79.6231 44.262C79.4867 44.5492 79.4408 44.8711 79.4916 45.185C79.5424 45.499 79.6874 45.79 79.9073 46.0193Z" fill="#C3C4C7"/>
<path d="M79.7388 53.8459L80.8625 57.0443C80.8945 57.1353 80.9065 57.2321 80.8978 57.3282C80.889 57.4243 80.8597 57.5173 80.8118 57.601C80.7639 57.6847 80.6985 57.7571 80.6201 57.8132C80.5418 57.8693 80.4523 57.9078 80.3577 57.9262L77.044 58.5688C76.5782 58.7301 76.0675 58.6998 75.6239 58.4845C75.1804 58.2692 74.8402 57.8865 74.678 57.4204C74.5157 56.9543 74.5447 56.4428 74.7585 55.998C74.9722 55.5533 75.3534 55.2116 75.8184 55.0478L78.7937 53.475C78.8789 53.43 78.9728 53.4039 79.069 53.3985C79.1652 53.3931 79.2614 53.4086 79.351 53.4438C79.4407 53.479 79.5218 53.5331 79.5887 53.6025C79.6556 53.6719 79.7068 53.7549 79.7388 53.8459V53.8459Z" fill="#787C82"/>
<path d="M64.0596 46.0193C64.0021 46.0785 63.9401 46.133 63.874 46.1824L64.2581 53.5709L65.8556 54.39L64.9364 56.9661L61.9676 55.7913C61.7278 55.6964 61.5252 55.5261 61.3902 55.3061C61.2552 55.086 61.1951 54.828 61.219 54.5709L61.9967 46.1898C61.7422 45.9996 61.5516 45.7364 61.4501 45.435C61.3486 45.1337 61.3412 44.8086 61.4288 44.5029C61.5163 44.1972 61.6947 43.9255 61.9402 43.7238C62.1857 43.5221 62.4868 43.4001 62.8032 43.374C63.1197 43.3478 63.4366 43.4188 63.7118 43.5774C63.987 43.736 64.2075 43.9748 64.3439 44.262C64.4803 44.5492 64.5261 44.8711 64.4754 45.185C64.4246 45.499 64.2796 45.79 64.0596 46.0193H64.0596Z" fill="#C3C4C7"/>
<path d="M64.616 53.4438C64.7056 53.4086 64.8018 53.3931 64.898 53.3985C64.9942 53.4039 65.0881 53.43 65.1733 53.4751L68.1486 55.0479C68.6135 55.2116 68.9947 55.5533 69.2085 55.9981C69.4223 56.4429 69.4512 56.9544 69.289 57.4205C69.1268 57.8866 68.7866 58.2693 68.343 58.4846C67.8995 58.6998 67.3888 58.7302 66.923 58.5689L63.6093 57.9263C63.5147 57.9079 63.4252 57.8694 63.3468 57.8133C63.2685 57.7571 63.2031 57.6848 63.1552 57.6011C63.1073 57.5174 63.0779 57.4243 63.0692 57.3283C63.0604 57.2322 63.0724 57.1354 63.1044 57.0444L64.2282 53.846C64.2601 53.755 64.3113 53.6719 64.3782 53.6025C64.4452 53.5331 64.5262 53.479 64.616 53.4438Z" fill="#787C82"/>
<path d="M73.5288 50.3472C73.5096 49.8798 73.6267 49.4169 73.8658 49.0151C74.105 48.6133 74.4558 48.2899 74.8755 48.0844C75.9876 47.5095 76.6863 46.283 76.3801 45.1631C75.9883 43.7296 74.0401 42.7999 72.4617 43.2931C72.0345 43.445 71.6225 43.6368 71.2311 43.8659L70.1998 44.4195C69.7593 44.6404 69.3345 44.8915 68.9286 45.1711C68.3206 45.6198 67.844 46.2238 67.5487 46.92C67.2533 47.6163 67.1501 48.3791 67.2498 49.1289C67.4528 50.5863 68.4058 51.9228 69.7103 52.8378C70.2091 53.2112 70.7853 53.4677 71.3963 53.5883C72.0216 53.6916 72.7177 53.5743 73.1748 53.1848C73.8893 52.5763 73.8155 51.5571 73.5844 50.7059C73.5539 50.5885 73.5352 50.4684 73.5288 50.3472Z" fill="#787C82"/>
<path d="M39.7712 76.8669L16.4174 86.462C16.0164 86.6263 15.5666 86.6245 15.1668 86.4571C14.7671 86.2896 14.4499 85.9702 14.285 85.5689L7.13607 68.1169C7.01591 67.8227 7.0172 67.4927 7.13968 67.1993C7.26215 66.906 7.49579 66.6734 7.78935 66.5523L31.9326 56.6329C32.2316 56.5104 32.5668 56.5118 32.8647 56.6366C33.1626 56.7613 33.399 56.9994 33.5219 57.2985L40.663 74.7313C40.827 75.133 40.8252 75.5834 40.6581 75.9838C40.4909 76.3841 40.172 76.7017 39.7712 76.8669Z" fill="#EEEEEE"/>
<path d="M17.2633 84.3459L37.6846 75.9556C38.0735 75.7959 38.383 75.4879 38.5452 75.0996C38.7074 74.7112 38.7089 74.2742 38.5493 73.8848L32.7766 59.7924C32.6976 59.5996 32.5814 59.4242 32.4348 59.2763C32.2881 59.1284 32.1138 59.0109 31.9218 58.9305C31.7298 58.8501 31.5238 58.8083 31.3157 58.8076C31.1076 58.8069 30.9013 58.8473 30.7088 58.9264L10.2875 67.3166C10.095 67.3958 9.91986 67.5121 9.7722 67.659C9.62453 67.8058 9.5072 67.9804 9.4269 68.1727C9.34661 68.365 9.30491 68.5713 9.30421 68.7797C9.3035 68.9882 9.3438 69.1947 9.42279 69.3875L15.1955 83.4799C15.2745 83.6727 15.3907 83.8481 15.5373 83.996C15.684 84.1439 15.8583 84.2614 16.0503 84.3418C16.2423 84.4222 16.4483 84.464 16.6564 84.4647C16.8645 84.4654 17.0708 84.425 17.2633 84.3459Z" fill="white"/>
<path d="M32.664 63.6354L32.3638 63.7588L32.3843 63.8089L32.6845 63.6856L32.664 63.6354Z" fill="#EEEEEE"/>
<path d="M31.7782 64.0584L31.1717 64.3076L31.1512 64.2575L31.7577 64.0083L31.7782 64.0584ZM30.5651 64.5568L29.9586 64.806L29.9381 64.7559L30.5446 64.5067L30.5651 64.5568ZM29.3521 65.0552L28.7456 65.3044L28.725 65.2543L29.3316 65.0051L29.3521 65.0552ZM28.139 65.5536L27.5325 65.8028L27.5119 65.7527L28.1185 65.5035L28.139 65.5536ZM26.9259 66.052L26.3194 66.3012L26.2989 66.2511L26.9054 66.0019L26.9259 66.052ZM25.7129 66.5504L25.1063 66.7996L25.0858 66.7495L25.6923 66.5003L25.7129 66.5504ZM24.4998 67.0488L23.8933 67.298L23.8727 67.2479L24.4793 66.9987L24.4998 67.0488ZM23.2867 67.5472L22.6802 67.7964L22.6597 67.7463L23.2662 67.4971L23.2867 67.5472ZM22.0736 68.0456L21.4671 68.2948L21.4466 68.2447L22.0531 67.9955L22.0736 68.0456ZM20.8606 68.544L20.254 68.7932L20.2335 68.7431L20.8401 68.4939L20.8606 68.544ZM19.6475 69.0424L19.041 69.2916L19.0204 69.2415L19.627 68.9923L19.6475 69.0424ZM18.4344 69.5408L17.8279 69.79L17.8074 69.7399L18.4139 69.4907L18.4344 69.5408ZM17.2214 70.0392L16.6148 70.2884L16.5943 70.2383L17.2008 69.9891L17.2214 70.0392ZM16.0083 70.5376L15.4017 70.7868L15.3812 70.7367L15.9878 70.4875L16.0083 70.5376ZM14.7952 71.036L14.1887 71.2852L14.1682 71.2351L14.7747 70.9859L14.7952 71.036ZM13.5821 71.5344L12.9756 71.7836L12.9551 71.7335L13.5616 71.4843L13.5821 71.5344Z" fill="#EEEEEE"/>
<path d="M12.3481 71.9826L12.0479 72.106L12.0684 72.1561L12.3686 72.0327L12.3481 71.9826Z" fill="#EEEEEE"/>
<path d="M24.7153 72.3469L24.415 72.4702L24.4356 72.5203L24.7358 72.397L24.7153 72.3469Z" fill="#EEEEEE"/>
<path d="M23.8384 72.7652L23.2409 73.0107L23.2204 72.9606L23.8179 72.7151L23.8384 72.7652ZM22.6434 73.2562L22.0458 73.5017L22.0253 73.4516L22.6228 73.2061L22.6434 73.2562ZM21.4483 73.7472L20.8508 73.9927L20.8303 73.9426L21.4278 73.6971L21.4483 73.7472ZM20.2533 74.2382L19.6557 74.4837L19.6352 74.4336L20.2327 74.1881L20.2533 74.2382ZM19.0582 74.7292L18.4607 74.9747L18.4401 74.9246L19.0377 74.6791L19.0582 74.7292ZM17.8631 75.2202L17.2656 75.4657L17.2451 75.4156L17.8426 75.1701L17.8631 75.2202ZM16.6681 75.7112L16.0706 75.9567L16.05 75.9066L16.6476 75.6611L16.6681 75.7112ZM15.473 76.2022L14.8755 76.4477L14.855 76.3976L15.4525 76.1521L15.473 76.2022Z" fill="#EEEEEE"/>
<path d="M14.2573 76.6428L13.957 76.7661L13.9776 76.8162L14.2778 76.6929L14.2573 76.6428Z" fill="#EEEEEE"/>
<path d="M19.7641 76.9572L19.4639 77.0806L19.4844 77.1307L19.7846 77.0073L19.7641 76.9572Z" fill="#EEEEEE"/>
<path d="M18.8698 77.3829L18.255 77.6355L18.2345 77.5853L18.8492 77.3328L18.8698 77.3829ZM17.6402 77.888L17.0255 78.1406L17.0049 78.0905L17.6197 77.8379L17.6402 77.888ZM16.4107 78.3932L15.7959 78.6458L15.7754 78.5957L16.3902 78.3431L16.4107 78.3932Z" fill="#EEEEEE"/>
<path d="M15.1606 78.8483L14.8604 78.9717L14.8809 79.0218L15.1811 78.8984L15.1606 78.8483Z" fill="#EEEEEE"/>
<path d="M21.3056 80.7202L21.0054 80.8435L21.0259 80.8936L21.3261 80.7703L21.3056 80.7202Z" fill="#EEEEEE"/>
<path d="M20.4113 81.1451L19.7965 81.3977L19.776 81.3475L20.3907 81.095L20.4113 81.1451ZM19.1817 81.6503L18.567 81.9028L18.5464 81.8527L19.1612 81.6001L19.1817 81.6503ZM17.9522 82.1554L17.3374 82.408L17.3169 82.3579L17.9317 82.1053L17.9522 82.1554Z" fill="#EEEEEE"/>
<path d="M16.7021 82.6115L16.4019 82.7349L16.4224 82.785L16.7226 82.6616L16.7021 82.6115Z" fill="#EEEEEE"/>
<path d="M18.1309 82.1278L35.4365 75.0176C35.8553 74.845 36.1887 74.513 36.3634 74.0946C36.5382 73.6761 36.54 73.2053 36.3686 72.7854L32.8721 64.2498L32.8382 64.2648L28.5915 74.4342L25.4417 73.1155C25.3836 73.0909 25.3206 73.0802 25.2577 73.0841C25.1947 73.0881 25.1335 73.1066 25.0789 73.1381C24.9969 73.1876 24.9334 73.2627 24.8984 73.3519L22.6727 78.681L20.3698 77.7169C20.3201 77.6961 20.2668 77.6853 20.2129 77.6851C20.159 77.6849 20.1056 77.6953 20.0558 77.7158C20.006 77.7363 19.9607 77.7664 19.9224 77.8044C19.8842 77.8424 19.8539 77.8876 19.8331 77.9374C19.8184 77.9736 18.3984 81.4627 18.1309 82.1278Z" fill="#949494"/>
<path d="M18.0772 82.2082L18.0273 82.1873L19.8081 77.9226C19.8553 77.8101 19.9451 77.7208 20.0578 77.6745C20.1706 77.6282 20.2971 77.6285 20.4096 77.6755L22.6671 78.621L24.8801 73.3212C24.9272 73.2087 25.017 73.1194 25.1298 73.0731C25.2425 73.0268 25.3691 73.0271 25.4816 73.0741L28.5858 74.3742L32.8544 64.1516L32.9043 64.1725L28.6148 74.4451L25.4607 73.1241C25.4115 73.1035 25.3588 73.0928 25.3056 73.0926C25.2523 73.0924 25.1995 73.1028 25.1502 73.123C25.1009 73.1433 25.0561 73.173 25.0183 73.2106C24.9805 73.2482 24.9505 73.2929 24.93 73.3421L22.6961 78.6918L20.3888 77.7255C20.2895 77.6841 20.1779 77.6837 20.0784 77.7246C19.9789 77.7655 19.8996 77.8442 19.858 77.9435L18.0772 82.2082Z" fill="#787C82"/>
<path d="M19.7746 77.3611C19.9837 77.3611 20.1532 77.1914 20.1532 76.982C20.1532 76.7725 19.9837 76.6028 19.7746 76.6028C19.5655 76.6028 19.396 76.7725 19.396 76.982C19.396 77.1914 19.5655 77.3611 19.7746 77.3611Z" fill="#787C82"/>
<path d="M24.7258 72.7503C24.9349 72.7503 25.1044 72.5805 25.1044 72.3711C25.1044 72.1617 24.9349 71.9919 24.7258 71.9919C24.5167 71.9919 24.3472 72.1617 24.3472 72.3711C24.3472 72.5805 24.5167 72.7503 24.7258 72.7503Z" fill="#787C82"/>
<path d="M32.4357 64.0267C32.6448 64.0267 32.8143 63.8569 32.8143 63.6475C32.8143 63.4381 32.6448 63.2683 32.4357 63.2683C32.2266 63.2683 32.0571 63.4381 32.0571 63.6475C32.0571 63.8569 32.2266 64.0267 32.4357 64.0267Z" fill="#787C82"/>
<path d="M11.244 76.5517C11.4409 76.4536 11.6138 76.3135 11.7507 76.1412C11.8876 75.9689 11.9851 75.7687 12.0364 75.5546C12.0877 75.3405 12.0914 75.1178 12.0474 74.9021C12.0035 74.6863 11.9128 74.4829 11.7818 74.3061L12.9062 63.2957H10.4762L9.58255 74.0468C9.30053 74.2868 9.11624 74.6222 9.0646 74.9892C9.01296 75.3563 9.09755 75.7296 9.30235 76.0383C9.50715 76.3471 9.81793 76.5699 10.1758 76.6645C10.5337 76.7591 10.9138 76.719 11.244 76.5517Z" fill="#DCDCDE"/>
<path d="M13.4752 57.2194C15.3739 57.2194 16.9132 55.6778 16.9132 53.7762C16.9132 51.8746 15.3739 50.333 13.4752 50.333C11.5764 50.333 10.0371 51.8746 10.0371 53.7762C10.0371 55.6778 11.5764 57.2194 13.4752 57.2194Z" fill="#DCDCDE"/>
<path d="M14.1225 69.7079C13.9848 69.7079 13.851 69.6626 13.7416 69.5791C13.6321 69.4955 13.553 69.3783 13.5165 69.2455C13.241 68.2432 12.5244 66.5486 11.3865 64.2085C11.1298 63.6796 10.9876 63.1022 10.9693 62.5143C10.951 61.9264 11.0571 61.3413 11.2805 60.7974C11.5039 60.2535 11.8396 59.763 12.2656 59.3581C12.6916 58.9532 13.1982 58.6431 13.7523 58.4481C14.2774 58.2625 14.8343 58.1841 15.3901 58.2178C15.9459 58.2515 16.4894 58.3964 16.9883 58.6441C17.4872 58.8918 17.9314 59.2372 18.2947 59.6599C18.658 60.0825 18.9329 60.5739 19.1033 61.1048C19.9852 63.8741 19.9427 66.8405 19.8834 67.9872C19.876 68.1253 19.8237 68.2572 19.7343 68.3626C19.645 68.4681 19.5236 68.5413 19.3887 68.5711L14.2576 69.6933C14.2132 69.7031 14.1679 69.708 14.1225 69.7079Z" fill="#A7AAAD"/>
<path d="M19.0911 102.404H20.8072L21.6236 95.7747L19.0908 95.7748L19.0911 102.404Z" fill="#DCDCDE"/>
<path d="M24.1172 103.999L18.7237 103.999L18.7236 101.912L22.0332 101.912C22.3069 101.912 22.5779 101.966 22.8307 102.071C23.0835 102.176 23.3133 102.33 23.5068 102.523C23.7003 102.717 23.8538 102.947 23.9585 103.2C24.0633 103.454 24.1172 103.725 24.1172 103.999Z" fill="#787C82"/>
<path d="M1.93115 100.176L3.43507 101.004L7.33966 95.5893L5.12027 94.3672L1.93115 100.176Z" fill="#DCDCDE"/>
<path d="M5.56738 104L0.841047 101.398L1.84498 99.5689L4.74524 101.166C5.22954 101.432 5.58824 101.881 5.74242 102.412C5.89661 102.944 5.83364 103.515 5.56738 104Z" fill="#787C82"/>
<path d="M19.0112 98.7245C18.8582 98.7244 18.7106 98.6686 18.5958 98.5674C18.4809 98.4663 18.4068 98.3267 18.3871 98.1749L16.2409 81.6118C16.2314 81.5385 16.1991 81.4701 16.1484 81.4164C16.0978 81.3627 16.0316 81.3263 15.9591 81.3125C15.8866 81.2988 15.8116 81.3083 15.7449 81.3397C15.6781 81.3712 15.623 81.4229 15.5874 81.4876L6.64289 97.7398C6.56908 97.8725 6.45018 97.9743 6.3078 98.0266C6.16542 98.0789 6.00901 98.0783 5.86702 98.025L3.91738 97.281C3.83896 97.2511 3.7673 97.2058 3.70661 97.1478C3.64592 97.0897 3.59742 97.0201 3.56396 96.9431C3.5305 96.866 3.51275 96.783 3.51176 96.699C3.51077 96.6149 3.52656 96.5316 3.5582 96.4537L9.75429 81.21C9.76998 81.1713 9.78062 81.1307 9.78594 81.0892C10.6252 74.584 12.7604 71.2759 13.3949 70.417C13.4412 70.3538 13.4717 70.2805 13.4838 70.203C13.4959 70.1256 13.4892 70.0464 13.4643 69.9722L13.3771 69.7101C13.3422 69.6061 13.3351 69.4948 13.3563 69.3872C13.3776 69.2796 13.4265 69.1794 13.4983 69.0965C15.7843 66.4888 19.7688 67.9118 19.8088 67.9264L19.8288 67.9338L19.8413 67.9509C24.3091 74.0873 22.6572 94.0182 22.2807 97.9513C22.2666 98.0991 22.2008 98.2372 22.0949 98.3411C21.989 98.445 21.8498 98.508 21.702 98.519L19.0601 98.7228C19.0437 98.724 19.0274 98.7245 19.0112 98.7245Z" fill="#787C82"/>
<path d="M26.8413 57.7757C26.8241 57.8513 26.8129 57.9282 26.8078 58.0056L20.7946 61.4798L19.333 60.6371L17.7749 62.68L20.2176 64.4236C20.4149 64.5644 20.6526 64.6374 20.8948 64.6315C21.1371 64.6255 21.3709 64.5411 21.5612 64.3908L27.7618 59.4918C28.0416 59.5955 28.3463 59.6115 28.6354 59.5375C28.9246 59.4636 29.1843 59.3032 29.3802 59.0778C29.5761 58.8524 29.6989 58.5726 29.7321 58.2756C29.7653 57.9787 29.7075 57.6786 29.5663 57.4153C29.4251 57.1521 29.2072 56.9381 28.9416 56.8019C28.676 56.6657 28.3753 56.6137 28.0795 56.6528C27.7837 56.6919 27.5068 56.8203 27.2856 57.0209C27.0644 57.2215 26.9094 57.4847 26.8413 57.7757Z" fill="#DCDCDE"/>
<path d="M20.5935 61.6443L18.6501 64.1669C18.5948 64.2387 18.5247 64.2977 18.4446 64.3399C18.3645 64.3821 18.2762 64.4065 18.1858 64.4114C18.0955 64.4164 18.0051 64.4018 17.9208 64.3686C17.8366 64.3354 17.7605 64.2844 17.6977 64.2191L15.4976 61.9311C15.1325 61.6457 14.8954 61.2269 14.8381 60.7667C14.7809 60.3064 14.9082 59.8422 15.1922 59.4758C15.4762 59.1094 15.8937 58.8707 16.3531 58.8121C16.8125 58.7535 17.2764 58.8798 17.643 59.1632L20.4024 60.7085C20.4814 60.7527 20.5499 60.8135 20.6034 60.8867C20.6568 60.9599 20.6938 61.0438 20.712 61.1326C20.7301 61.2214 20.7289 61.3131 20.7085 61.4014C20.688 61.4897 20.6488 61.5726 20.5935 61.6443Z" fill="#A7AAAD"/>
<path d="M14.0194 52.9835C14.903 53.5892 16.0633 54.2118 16.9658 53.5668C17.2481 53.3515 17.4532 53.0505 17.5504 52.7087C17.6475 52.3669 17.6315 52.0027 17.5048 51.6708C17.0727 50.4331 15.8853 49.8883 14.7499 49.4706C13.2739 48.9276 11.6668 48.4957 10.143 48.8845C8.61931 49.2734 7.27268 50.7509 7.54774 52.3013C7.76894 53.5482 8.94334 54.5857 8.77662 55.841C8.60883 57.1044 7.19012 57.7695 5.93762 57.9953C4.68512 58.2211 3.28355 58.2936 2.38343 59.1946C1.23516 60.344 1.5219 62.3984 2.60238 63.6119C3.68285 64.8254 5.31334 65.3755 6.89329 65.7494C8.98662 66.2449 11.2507 66.5053 13.2389 65.683C15.227 64.8607 16.7741 62.6473 16.1982 60.5718C15.9549 59.695 15.3819 58.9541 14.828 58.2328C14.2742 57.5115 13.7133 56.7572 13.5021 55.8722C13.326 55.1347 13.4563 54.2784 13.9447 53.7252C14.0335 53.6284 14.0894 53.5058 14.1043 53.3752C14.1193 53.2446 14.0925 53.1126 14.0279 52.9981L14.0194 52.9835Z" fill="#787C82"/>
</g>
</svg>
