<svg xmlns="http://www.w3.org/2000/svg" width="159" height="105" viewBox="0 0 159 105" fill="none"><rect width="114.053" height="84.585" x="1.169" y="1" fill="#fff" rx="10"/><path fill="#C5D9ED" d="M152.274 70.631c-1.135 1.24-2.543 2.162-4.071 2.878h-.002c-.144.069-.288.135-.434.197h-.001l-.002.002-.002-.002h-.002v.001l-.001.001h-.003l-.001-.002c-.002.002-.002.002-.004 0l-.002.002-.002-.002h-.002c-.001.002-.001.002-.003 0h-.002a25.778 25.778 0 0 1-3.145 1.124 43.662 43.662 0 0 1-19.375 1.01c-.123-.021-.245-.043-.368-.066V60.838a39.84 39.84 0 0 1 2.814-1.072 39.284 39.284 0 0 1 3.611-1.042 39.146 39.146 0 0 1 12.173-.983c.743.055 1.484.135 2.223.24 1.547.215 3.169.59 4.596 1.242h.002c.208.098.413.2.615.308 1.269.687 2.338 1.632 2.99 2.926.235.465.403.96.502 1.472v.003c.036.177.062.356.082.533.233 2.18-.672 4.513-2.186 6.167Z"/><path fill="#fff" d="M154.46 64.465a.24.24 0 0 1-.055.007c-3.157.138-6.311.343-9.46.615h-.005l-.037.004c-3.233.28-6.46.63-9.679 1.051l-.406.054c-2.226.296-4.449.625-6.667.987-.979.16-1.956.327-2.931.5-.123.023-.245.043-.368.067v-.558c.123-.024.247-.044.368-.066a220.944 220.944 0 0 1 9.777-1.505 218.69 218.69 0 0 1 9.626-1.057l.523-.044c3.058-.26 6.121-.457 9.187-.591.015 0 .03 0 .045.004.295.025.357.467.082.532Z"/><path fill="#fff" d="M147.898 73.165c-3.933.029-7.808-1.638-10.591-4.396a14.305 14.305 0 0 1-2.061-2.591c-.188-.3-.627.03-.441.329 2.161 3.462 5.76 5.928 9.729 6.835 1.127.255 2.28.379 3.435.367.353-.002.28-.547-.071-.544ZM131.277 58.725a.315.315 0 0 1-.23.208c-.902.236-1.773.576-2.595 1.013a12.614 12.614 0 0 0-3.6 2.84v-.804a13.263 13.263 0 0 1 2.814-2.215 39.252 39.252 0 0 1 3.611-1.042ZM150.591 59.078a12.788 12.788 0 0 0-5.976 5.265.277.277 0 0 0 .146.36.28.28 0 0 0 .36-.146 12.176 12.176 0 0 1 5.677-4.97c.325-.139.119-.648-.207-.509Z"/><path fill="#C5D9ED" d="M158.138 43.437c-.428 1.624-1.248 3.096-2.267 4.438l-.002.002a9.652 9.652 0 0 1-.293.374v.002a25.654 25.654 0 0 1-2.288 2.465 43.02 43.02 0 0 1-9.838 7.022c-5.653 2.95-11.972 4.695-18.23 4.794-.048.002-.096.002-.144.002-.075.002-.151.002-.224.002v-8.37c.119-.229.243-.457.368-.684a40.479 40.479 0 0 1 6.074-8.25 39.097 39.097 0 0 1 2.713-2.598 38.862 38.862 0 0 1 12.404-7.339c1.469-.526 3.08-.948 4.647-1.031.23-.013.459-.018.689-.017 1.443.02 2.828.361 4.009 1.205a5.7 5.7 0 0 1 1.128 1.07c.115.142.22.287.321.436v.002c1.22 1.823 1.504 4.307.933 6.475Z"/><path fill="#fff" d="M157.205 36.96v.003a.283.283 0 0 1-.044.031 222.179 222.179 0 0 0-8.081 4.93l-.009.005a224.413 224.413 0 0 0-8.118 5.445l-.336.237a225.826 225.826 0 0 0-5.445 3.966 224.489 224.489 0 0 0-9.952 7.941c-.123.103-.245.208-.368.313v-.716a215.399 215.399 0 0 1 5.266-4.32 222.303 222.303 0 0 1 10.346-7.75h.002a218.139 218.139 0 0 1 8.078-5.43c.145-.095.293-.188.44-.282a221.136 221.136 0 0 1 7.86-4.788.278.278 0 0 1 .04-.02c.277-.111.537.254.321.436Z"/><path fill="#fff" d="M155.441 47.708c-3.47 1.851-7.676 2.174-11.423 1.023a14.356 14.356 0 0 1-3.03-1.338c-.306-.18-.541.318-.237.495 3.523 2.064 7.857 2.577 11.793 1.539a14.9 14.9 0 0 0 3.213-1.27c.311-.165-.007-.614-.316-.449ZM129.478 54.447a12.662 12.662 0 0 1-.175-2.922c.124-2.23.807-4.393 1.987-6.29a39.584 39.584 0 0 1 2.714-2.598.312.312 0 0 1-.108.292 12.07 12.07 0 0 0-1.827 2.1 12.721 12.721 0 0 0-2.043 9.372.227.227 0 0 1-.001.113.232.232 0 0 1-.057.098.297.297 0 0 1-.292.058.3.3 0 0 1-.198-.223ZM151.275 33.985a12.776 12.776 0 0 0-2.844 7.435.276.276 0 0 0 .296.25.28.28 0 0 0 .251-.296 12.156 12.156 0 0 1 2.717-7.035c.224-.274-.196-.629-.42-.354Z"/><path fill="#C5D9ED" d="M132.19 40.036v.002c-.013.158-.028.315-.045.471v.004a25.948 25.948 0 0 1-.599 3.307 37.567 37.567 0 0 1-.481 1.798v.002a42.18 42.18 0 0 1-1.611 4.539 43.933 43.933 0 0 1-4.602 8.31v-28.84c.123-.007.245-.007.368-.004a5.589 5.589 0 0 1 1.703.302c.174.058.341.122.507.194 2.011.88 3.591 2.821 4.277 4.956.514 1.598.617 3.28.483 4.959Z"/><path fill="#fff" d="M127.43 30.12a.191.191 0 0 1-.02.052 226.309 226.309 0 0 0-2.19 4.37c-.123.252-.247.506-.368.758v-1.252a226.785 226.785 0 0 1 2.049-4.085.402.402 0 0 1 .022-.036c.17-.243.59-.078.507.193ZM132.249 40.333a4.129 4.129 0 0 1-.104.177 14.702 14.702 0 0 1-1.92 2.622 15.831 15.831 0 0 1-5.373 3.807v-.599a14.903 14.903 0 0 0 6.888-6.215.3.3 0 0 1 .205-.146.303.303 0 0 1 .245.06.212.212 0 0 1 .09.218.213.213 0 0 1-.031.076Z"/><path fill="#007CBA" d="M125.217 7.077v13.996h-.369v-.15H1.531v.15h-.368V7.077a6.08 6.08 0 0 1 1.783-4.295A6.092 6.092 0 0 1 7.246 1h111.888a6.09 6.09 0 0 1 6.083 6.077Z"/><path fill="#EEE" stroke="#EEE" d="M119.134.5H7.245a6.592 6.592 0 0 0-4.652 1.928 6.58 6.58 0 0 0-1.93 4.649v79.924a6.58 6.58 0 0 0 1.93 4.65 6.591 6.591 0 0 0 4.652 1.927h111.889a6.582 6.582 0 0 0 6.583-6.577V7.077A6.582 6.582 0 0 0 119.134.5Zm3.685 2.896a5.217 5.217 0 0 1 1.529 3.682V87a5.217 5.217 0 0 1-5.215 5.21H7.246a5.225 5.225 0 0 1-3.686-1.528 5.214 5.214 0 0 1-1.529-3.681V7.077a5.213 5.213 0 0 1 1.53-3.68 5.224 5.224 0 0 1 3.685-1.529h111.887a5.226 5.226 0 0 1 3.686 1.528Z"/><path fill="#C5D9ED" d="M26.233 14.719a3.685 3.685 0 0 0 3.687-3.683 3.685 3.685 0 0 0-3.687-3.683 3.685 3.685 0 0 0-3.687 3.683 3.685 3.685 0 0 0 3.687 3.683ZM100.149 14.719a3.684 3.684 0 0 0 3.686-3.683 3.684 3.684 0 0 0-3.686-3.683 3.685 3.685 0 0 0-3.687 3.683 3.685 3.685 0 0 0 3.687 3.683Z"/><path fill="#007CBA" d="M36.883 52.104h-21.93a3.51 3.51 0 0 1-3.505-3.501V38.247a3.503 3.503 0 0 1 3.504-3.5h21.931a3.51 3.51 0 0 1 3.504 3.5v10.356a3.504 3.504 0 0 1-3.504 3.5ZM74.193 52.104H52.262a3.51 3.51 0 0 1-3.505-3.501V38.247a3.503 3.503 0 0 1 3.505-3.5h21.93a3.51 3.51 0 0 1 3.505 3.5v10.356a3.504 3.504 0 0 1-3.504 3.5Z"/><path fill="#C5D9ED" d="M74.193 78.861H52.262a3.616 3.616 0 0 1-3.61-3.607V64.898a3.61 3.61 0 0 1 3.61-3.607h21.93a3.617 3.617 0 0 1 3.611 3.607v10.356a3.61 3.61 0 0 1-3.61 3.607ZM36.812 78.861H14.88a3.617 3.617 0 0 1-3.611-3.607V64.898a3.61 3.61 0 0 1 3.61-3.607h21.931a3.616 3.616 0 0 1 3.611 3.607v10.356a3.61 3.61 0 0 1-3.61 3.607ZM111.497 78.861h-21.93a3.617 3.617 0 0 1-3.61-3.607V64.898a3.61 3.61 0 0 1 3.61-3.607h21.93a3.616 3.616 0 0 1 3.611 3.607v10.356a3.616 3.616 0 0 1-3.611 3.607ZM111.497 52.125h-21.93a3.617 3.617 0 0 1-3.61-3.607V38.162a3.61 3.61 0 0 1 3.61-3.607h21.93a3.616 3.616 0 0 1 3.611 3.607v10.356a3.61 3.61 0 0 1-3.611 3.607Z"/><path fill="#fff" d="M25.917 49.366a5.944 5.944 0 0 0 5.946-5.941 5.944 5.944 0 0 0-5.946-5.942 5.944 5.944 0 0 0-5.947 5.942 5.944 5.944 0 0 0 5.947 5.94Z"/><path fill="#2C3338" d="M25.328 45.691a.617.617 0 0 1-.372-.123l-.006-.005-1.398-1.069a.62.62 0 1 1 .756-.985l.905.694 2.139-2.787a.62.62 0 0 1 .87-.115l-.013.018.014-.018a.62.62 0 0 1 .115.87l-2.516 3.278a.62.62 0 0 1-.494.242Z"/><path fill="#fff" d="M63.334 49.282a5.944 5.944 0 0 0 5.946-5.941 5.944 5.944 0 0 0-5.947-5.942 5.944 5.944 0 0 0-5.946 5.942 5.944 5.944 0 0 0 5.947 5.94Z"/><path fill="#2C3338" d="M62.74 45.606a.617.617 0 0 1-.371-.123l-.007-.005-1.398-1.069a.62.62 0 1 1 .756-.984l.905.693 2.14-2.787a.62.62 0 0 1 .87-.115l-.014.018.014-.018a.621.621 0 0 1 .115.87l-2.516 3.278a.62.62 0 0 1-.494.242Z"/><path fill="#FBBEBE" d="M103.523 71.375a1.977 1.977 0 0 0-.402-3.007l-3.32-17.71-4.038 1.495 4.533 16.939a1.986 1.986 0 0 0 .599 2.573 1.992 1.992 0 0 0 2.628-.29ZM71.303 44.35c.01.11.012.221.004.331l7.851 6.037 2.226-.914 1.82 3.177-3.785 2a1.6 1.6 0 0 1-1.894-.3l-7.847-8.083a2.1 2.1 0 0 1-2.558-2.087 2.094 2.094 0 0 1 2.644-1.979 2.097 2.097 0 0 1 1.54 1.819ZM89.645 102.811h-2.26l-1.075-6.867h3.335v6.867Z"/><path fill="#2C3338" d="M90.222 105h-7.287v-.092a2.836 2.836 0 0 1 2.836-2.834h4.45V105Z"/><path fill="#FBBEBE" d="M98.126 102.811h-2.26l-1.075-6.867h3.335v6.867Z"/><path fill="#2C3338" d="M98.7 105h-7.286v-.092a2.836 2.836 0 0 1 2.836-2.834h4.45V105ZM86.92 101.454a.828.828 0 0 1-.826-.75l-1.969-26.461.093-.008 13.552-1.113.004.096 1.077 27.412a.83.83 0 0 1-.829.86h-2.657a.825.825 0 0 1-.82-.703l-3.608-22.144a.092.092 0 0 0-.183.013l-.164 21.864a.832.832 0 0 1-.786.822l-2.84.111-.045.001Z"/><path fill="#FBBEBE" d="M89.23 40.801c2.5 0 4.528-2.025 4.528-4.523a4.525 4.525 0 0 0-4.527-4.523 4.525 4.525 0 0 0-4.528 4.523 4.525 4.525 0 0 0 4.528 4.523Z"/><path fill="#135E96" d="M90.107 75.93a22.33 22.33 0 0 1-5.856-.8.831.831 0 0 1-.596-.862c.61-9.152.753-16.254-.529-21.167-.546-2.094-.298-4.3.68-6.052 1.473-2.635 4.18-4.24 7.068-4.184.138.002.277.007.418.014 4.382.226 7.797 4.186 7.612 8.83l-.882 22.129a.818.818 0 0 1-.519.745 21.076 21.076 0 0 1-7.396 1.347Z"/><path fill="#135E96" d="m83.873 54.8-3.392-4.152a1.06 1.06 0 0 1 .28-1.582l4.593-2.735a2.951 2.951 0 0 1 4.786 2.595 2.946 2.946 0 0 1-1.07 1.982l-3.59 3.936a1.062 1.062 0 0 1-1.607-.044ZM94.538 54.279a1.062 1.062 0 0 1-.583-.664l-1.527-5.102a2.944 2.944 0 0 1 1.413-3.916 2.952 2.952 0 0 1 3.922 1.401l2.953 4.455a1.054 1.054 0 0 1 .136.873 1.05 1.05 0 0 1-.572.674l-4.858 2.271a1.061 1.061 0 0 1-.884.008Z"/><path fill="#2C3338" d="m91.469 39.99-3.356-.768c-.347-.08-.763-.23-.81-.582-.065-.472.615-.801.553-1.274-.061-.458-.681-.517-1.123-.652a1.679 1.679 0 0 1-1.046-2.088c-.478.673-1.57.73-2.19.185-.62-.545-.74-1.535-.367-2.272a2.631 2.631 0 0 1 1.976-1.333 4.172 4.172 0 0 1 2.401.447c.05-.522.701-.733 1.226-.738a5.244 5.244 0 0 1 4.91 3.581c.645 2.072.214 4.344-1.587 5.556l-.587-.063Z"/></svg>
