<svg xmlns="http://www.w3.org/2000/svg" width="501" height="160" viewBox="0 0 501 160" fill="none"><g clip-path="url(#a)"><path fill="#BBE0FA" d="M0 0h501v160H0z"/><path fill="#fff" fill-opacity=".65" d="M84.346 106.432c4.52-8.16 13.043-13.908 21.573-18.662l1.439-.792c8.94-4.88 18.235-9.097 27.675-13.012 5.049-2.1 10.126-4.121 15.21-6.122l3.986-1.565c5.175-2.031 10.361-4.064 15.558-6.097 5.088-1.99 10.179-3.97 15.274-5.941a2409.04 2409.04 0 0 1 19.611-7.475 1561.5 1561.5 0 0 1 15.367-5.682c6.574-2.391 13.167-4.727 19.776-7.01 5.167-1.78 10.345-3.519 15.533-5.216a829.48 829.48 0 0 1 20.044-6.259 679.632 679.632 0 0 1 13.696-3.942l2.088-.573c19.681-5.368 40.122-9.694 59.853-7.36l.533.066c.264.032.529.064.796.102a63.676 63.676 0 0 1 10.772 2.344c6.296 1.986 12.024 5.109 16.126 9.774 6.431 7.318 8.058 17.542 7.16 27.26-.897 9.718-4.024 19.318-6.251 28.962a108.333 108.333 0 0 0-1.625 8.62c-2.648 18.24-.343 37.433 13.445 49.181a69.785 69.785 0 0 0 5.585 4.166c3.101 2.134 10.431 5.8 14.931 11.3 5.458 6.671 5.39 10.655 7 19 2.128 11.098-.105 23.267-7.068 33.159-7.221 10.269-21.051 14.813-33.911 16.633-19.986 2.855-40.015 1.052-59.93.086-19.914-.966-40.436-1.025-59.775 5.08a87.182 87.182 0 0 0-12.116 4.856 78.607 78.607 0 0 0-14.727 9.288c-6.575 5.308-12.001 11.699-15.109 19.001-6.68 15.621-26.788 23.795-44.045 21.956-16.467-1.755-30.663-12.836-35.095-27.381-4.917-16.197 1.642-33.294 7.142-50.393a270.45 270.45 0 0 0 1.93-6.217c.342-1.157.67-2.312.986-3.463.548-2.03 1.056-4.055 1.494-6.078 2.229-10.365 2.308-21.888-4.58-29.762-3.861-4.408-9.132-6.941-15.021-8.694-13.194-3.923-29.474-3.924-39.794-12.324-8.894-7.24-11.267-20.448-5.536-30.814Z" opacity=".5"/><path fill="#EEE" d="M343.347 19.11H153.084a3 3 0 0 0-3 3v119.695a3 3 0 0 0 3 3h190.263a3 3 0 0 0 3-3V22.109a3 3 0 0 0-3-3Z"/><path fill="#fff" d="M340.734 34.875H155.695v102.494h185.039V34.875Z"/><path fill="#0070A7" d="M343.263 19H153a3 3 0 0 0-3 3v5.338h196.263V22a3 3 0 0 0-3-3Z"/><path fill="#fff" d="M156.196 24.81a1.545 1.545 0 1 0 0-3.091 1.545 1.545 0 0 0 0 3.09ZM162.063 24.81a1.545 1.545 0 1 0 0-3.091 1.545 1.545 0 0 0 0 3.09ZM167.928 24.81a1.546 1.546 0 1 0 0-3.092 1.546 1.546 0 0 0 0 3.091Z"/><path fill="#EEE" d="M266.31 43.305h-36.191v39.264h36.191V43.305ZM215.771 89.813H179.58v39.263h36.191V89.813Z"/><path fill="#007CBA" d="m188.329 99.903 6.612-2.614.769 13.071s1.384 3.998.923 5.536c0 0 .307 2.614-.462 2.768-.769.154-2.922.462-3.075.308-.154-.154-.154-.615-.154-.615s-1.538 1.076-1.692 2.306c0 0-6.458 2-6.612.154-.154-1.845 3.229-3.383 3.229-3.383l2.614-3.998-2.152-13.533ZM202.323 99.903l6.612-2.614.769 13.071s1.384 3.998.923 5.536c0 0 .307 2.614-.462 2.768-.768.154-2.921.462-3.075.308-.154-.154-.154-.615-.154-.615s-1.538 1.076-1.691 2.306c0 0-6.459 2-6.613.154-.154-1.845 3.229-3.383 3.229-3.383l2.615-3.998-2.153-13.533ZM253.508 49.29s-1.408 3.935.223 5.71l-1.36 4.673s4.832 14.496 3.452 16.521c0 0-5.155 2.578-15.464-.92l4.188-16.246-.598-6.857.828-3.221 1.841-.184s-1.104 4.142.921 4.786c2.025.644 4-4.683 4-4.683l1.969.422Z"/><path fill="#EEE" d="m307.188 87.802-23.725 17.237 18.701 25.739 23.725-17.237-18.701-25.74Z"/><path fill="#007CBA" d="m304.981 120.838 1.511-.37.251-11.345 7.978 7.307 1.011-1.058c-4.625-7.937-9.496-15.922-12.835-18.946l-4.45 2.95 2.581 7.67 2.124 4.928 1.829 8.864Z"/><path fill="#EEE" d="M266.416 89.813h-36.191v39.263h36.191V89.813Z"/><path fill="#91CAF2" d="M244.772 95.223s-2.425 3.37-2.307 4.731c.118 1.36 1.656 23.539 1.656 23.539l3.608.178-1.065-15.969.887-4.317 2.189 20.108 4.436.119-3.963-26.083-.769-2.306h-4.672Z"/><path fill="#EEE" d="M215.83 43.203h-36.191v39.264h36.191V43.203Z"/><path fill="#91CAF2" d="M206.105 52.17c-.531-.636-1.443-.98-2.319-1.166.027-.08-2.663-.635-2.708-.52l-1.014-.808-3.114 1.617-1.75-1.191-.813.288c.033-.143-2.523.3-2.523.3-.489.017-1.112.048-1.811.101-2.445.188-2.633 6.521-2.633 6.521a9.997 9.997 0 0 1 3.54-.741l.661 18.543c3.399-.291 6.964.048 10.659.878l1.733-16.922 4.035-1.57s-.689-3.825-1.943-5.33Z"/><path fill="#FBBEBE" d="M334.662 142.832s-6.528 7.329-2.876 7.832c3.652.504 5.089-6.904 5.089-6.904l-2.213-.928Z"/><path fill="#044B7A" d="M343.18 108.14a4.305 4.305 0 0 0-3.163 3.56l-2.077 14.78-2.911 11.789s-1.455 1.31-.873 2.038c.582.728-.728 3.784-.728 3.784l3.639 1.164s.437-3.056 1.165-3.202c.639-.128 7.799-19.253 9.524-23.886l.373-1.003s-.291-9.751-4.949-9.024Z"/><path fill="#2C3338" d="m352.434 140.447-2.096 25.353s-.07 15.156-2.305 18.09c-2.235 2.933-2.304 4.4-2.304 4.4l-4.61-2.375s2.375-3.957 1.886-4.562a3.381 3.381 0 0 1-.629-1.305l1.257-15.645-2.374-27.239 11.175 3.283Z"/><path fill="#2C3338" d="m334.693 140.515-1.117 23.328s10.197 21.093 11.314 21.651a2.81 2.81 0 0 1 1.397 1.677l6.147-1.537-2.794-4.47-6.146-14.947s-.978-.419-1.258-1.815c-.279-1.397-.838-1.397.559-1.677 1.397-.279 1.397-1.676 1.397-1.676l4.61-21.233-14.109.699Z"/><path fill="#FBBEBE" d="M335.865 96.584a5.587 5.587 0 1 1 11.004 1.945 5.587 5.587 0 0 1-11.004-1.945Z"/><path fill="#FBBEBE" d="M344.681 98.68s.419 7.124.978 7.822c.559.699-5.867.559-5.867.559s.419-6.007 0-6.565c-.419-.56 4.889-1.816 4.889-1.816Z"/><path fill="#007CBA" d="M334.275 142.052s15.784-1.397 18.717 0c0 0-1.079-4.005-.8-4.424.202-.306-.357-11.714-.182-18.295.1-3.714.957-7.34-1.534-10.097-.848-.937-1.793-1.723-2.791-2.107 0 0 .279-2.654-1.118-2.793 0 0-5.309-.56-7.264 1.117-.625.533-1.018 2.156-1.059 3.554.967 4.757.624 10.036-.263 15.512-.054.348-.114.697-.174 1.047-.942 5.43-2.366 11.03-3.532 16.486Z"/><path fill="#2C3338" d="M343.58 100.072c-.437-.183-.926-.184-1.389-.28-1.659-.343-2.906-2.069-2.712-3.75a2.04 2.04 0 0 0 .026-.662c-.105-.484-.634-.754-1.124-.822-.49-.068-.999-.005-1.474-.144-.734-.213-1.27-.898-1.441-1.642a3.645 3.645 0 0 1 .286-2.235l.219.482c.244-.247.413-.559.489-.898a1.17 1.17 0 0 1 .954.634c.293.138.271-.539.57-.666a.554.554 0 0 1 .392.06c.645.232 1.342-.08 1.992-.301a7.567 7.567 0 0 1 3.499-.324c.781.113 1.566.361 2.165.876a4.99 4.99 0 0 1 1.119 1.574c.721 1.423 1.255 2.986 1.205 4.58a6.611 6.611 0 0 1-1.234 3.63c-.396.551-1.679 2.463-2.499 2.232-1.031-.291.186-1.831-1.043-2.344Z"/><path fill="#FBBEBE" d="M326.073 118.789s-2.623-9.457-5.025-6.661c-2.402 2.797 3.046 8.018 3.046 8.018l1.979-1.357Z"/><path fill="#007CBA" d="m341.255 110.455-1.911.632s-1.116 4.142-.809 4.889c.308.747.51.209-.086 1.64-.596 1.43-2.354 5.175-2.556 5.712-.202.538-9.849-3.991-9.743-5.996 0 0-2.21 2.442-3.277 2.934 0 0 10.954 9.348 12.453 10.524 1.499 1.175 2.392.674 3.843-.528 1.451-1.203 7.889-11.461 7.889-11.461l-5.803-8.346Z"/><path fill="#000" d="m342.327 127.347 5.331-8.27-1.842-.189-3.54 7.399c.02.352.036.706.051 1.06Z" opacity=".1"/><path fill="#EEE" d="M316.166 43.203h-36.191v39.264h36.191V43.203Z"/><path fill="#91CAF2" d="M308.227 56.547c-.643-.772-1.75-1.19-2.813-1.416.032-.096-3.232-.77-3.287-.632l-1.23-.98-3.78 1.963-2.124-1.446-.986.35c.04-.174-3.063.364-3.063.364-.593.021-1.35.058-2.197.123-2.968.229-3.196 7.914-3.196 7.914a12.127 12.127 0 0 1 4.296-.9l.802 9.195c4.126-.354 8.453.058 12.936 1.065l2.104-7.227 4.897-1.904s-.837-4.642-2.359-6.468Z"/></g><defs><clipPath id="a"><path fill="#fff" d="M0 0h501v160H0z"/></clipPath></defs></svg>
