<svg xmlns="http://www.w3.org/2000/svg" width="269" height="173" viewBox="0 0 269 173" fill="none"><path fill="#007CBA" fill-opacity=".5" d="M264.45 134.68c-6.67 13.39-20.2 22.34-34.23 28.25-18.88 7.95-39.67 11.1-60.18 9.77a139.2 139.2 0 0 1-56.39-16.05 124.52 124.52 0 0 1-18.74-12.43l-2.44-1.97a30.87 30.87 0 0 0-5.5-3.65c-.6-.3-1.22-.56-1.84-.79-6.3-2.33-13.55-1.45-20.1.37-4.98 1.38-9.84 3.27-14.81 4.63a50.46 50.46 0 0 1-6.76 1.4c-5.09.62-10.26.18-15.16-1.3l-.42-.13c-.7-.22-1.4-.45-2.09-.7l-.42-.16c-.67-.25-1.32-.52-1.96-.81l-.42-.19c-.67-.3-1.33-.62-1.97-.96l-.68-.36a40.9 40.9 0 0 1-9.82-7.45c-.09-.08-.16-.17-.26-.25a38.22 38.22 0 0 1-2.89-3.41l-.18-.25A35.07 35.07 0 0 1 1.95 118a25.62 25.62 0 0 1-.4-1.42C.14 111.27 0 105.75 0 100.26v-1.92c.04-8.88.18-17.9 1.53-26.66l.02-.18a81.36 81.36 0 0 1 1.84-8.75c.8-3.03 1.84-6 3.08-8.87 3.1-7.09 7.6-13.53 12.59-19.51C31.64 19.33 48.14 6.7 67.45 1.98c20.8-5.09 43.93-.21 60.72 12.8 5.11 3.97 9.71 8.67 15.46 11.71 5.02 2.65 10.89 3.75 16.26 1.66 4.44-1.72 7.33-2.57 12.32-2.31a105.62 105.62 0 0 1 31.36 6.58c25.27 9.42 46.98 28.12 58.27 52.16.3.63.59 1.27.87 1.92 6.73 15.3 9.16 33.25 1.74 48.18Z" opacity=".1"/><path fill="#E6F2F8" d="M100.23 97.5H76.78c-1.4 0-2.75.58-3.73 1.61a5.62 5.62 0 0 0 0 7.78 5.17 5.17 0 0 0 3.73 1.61h23.45c1.4 0 2.74-.58 3.73-1.61a5.62 5.62 0 0 0 0-7.78 5.17 5.17 0 0 0-3.73-1.61Z"/><g filter="url(#a)"><path fill="#fff" d="M204.99 41.5H75a11.33 11.33 0 0 0-8.14 3.44 11.75 11.75 0 0 0-3.37 8.3v64.53c0 3.1 1.21 6.1 3.37 8.3a11.4 11.4 0 0 0 8.14 3.43H205a11.32 11.32 0 0 0 8.14-3.44 11.76 11.76 0 0 0 3.37-8.3V53.24a11.94 11.94 0 0 0-3.37-8.3 11.5 11.5 0 0 0-8.14-3.43Zm-133.2 8c.26-.04 6.35-1.1 11.39 2 5.04 3.08 6.98 9.06 7.06 9.3l.2.65-.66.12c-.93.15-1.87.22-2.82.21-2.28 0-5.6-.38-8.56-2.2-5.04-3.09-6.97-9.06-7.05-9.31l-.2-.65.65-.12Zm28.22 59.92H76.83c-1.7 0-3.31-.69-4.5-1.9a6.56 6.56 0 0 1 0-9.2 6.32 6.32 0 0 1 4.5-1.9h23.18c1.7 0 3.31.7 4.5 1.9a6.56 6.56 0 0 1 0 9.2 6.32 6.32 0 0 1-4.5 1.9Zm105.48-1.18c0 1.88-.74 3.68-2.04 5a6.91 6.91 0 0 1-4.92 2.09h-17.38c-1.84-.01-3.61-.76-4.91-2.09a7.18 7.18 0 0 1-2.05-5V97.6c0-1.88.74-3.68 2.05-5a6.91 6.91 0 0 1 4.9-2.09h17.4c1.84 0 3.6.75 4.9 2.08a7.18 7.18 0 0 1 2.05 5v10.64Z"/></g><path fill="#FEFEFE" d="M186.57 106.5h-7.14c-.52 0-1 .21-1.37.59a2.04 2.04 0 0 0 0 2.82c.37.38.85.59 1.37.59h7.14c.52 0 1-.21 1.37-.59a2.04 2.04 0 0 0 0-2.82 1.89 1.89 0 0 0-1.37-.59Zm0 2.86h-7.14a.82.82 0 0 1-.76-.53.88.88 0 0 1 .44-1.12.8.8 0 0 1 .31-.07h7.16a.8.8 0 0 1 .58.25.89.89 0 0 1 .18.94.82.82 0 0 1-.76.53ZM200.4 106.5h-7.8a2.19 2.19 0 0 0-1.48.58 2 2 0 0 0-.62 1.42 1.91 1.91 0 0 0 .62 1.42 2.11 2.11 0 0 0 1.48.58h7.8c.56 0 1.1-.21 1.48-.59.4-.37.62-.88.62-1.41 0-.53-.22-1.04-.62-1.41-.39-.38-.92-.59-1.48-.59Zm0 2.86h-7.8a.92.92 0 0 1-.63-.25.83.83 0 0 1 0-1.21.91.91 0 0 1 .63-.26h7.8c.24 0 .47.1.63.25a.83.83 0 0 1 0 1.22.92.92 0 0 1-.63.25ZM186.57 101.5h-7.15c-.5 0-1 .16-1.36.44-.36.28-.56.66-.56 1.06s.2.78.56 1.06c.37.28.85.44 1.36.44h7.15c.26 0 .5-.04.74-.11.23-.08.45-.19.63-.33.17-.14.32-.3.41-.48a1.22 1.22 0 0 0 0-1.15c-.1-.19-.24-.35-.41-.5a2 2 0 0 0-.63-.32 2.42 2.42 0 0 0-.74-.11Zm0 2.14h-7.15a.96.96 0 0 1-.58-.19.58.58 0 0 1-.24-.45c0-.17.09-.33.24-.45a.96.96 0 0 1 .58-.2h7.15c.22 0 .43.08.59.2.15.12.24.28.24.45 0 .17-.09.33-.24.45a.96.96 0 0 1-.59.2ZM200.4 101.5h-7.8c-.27 0-.55.04-.8.11-.26.08-.49.19-.68.33-.2.14-.35.3-.46.49-.1.18-.16.37-.16.57 0 .2.05.4.16.58.1.18.26.34.46.48.2.14.42.25.68.33.25.07.53.11.8.11h7.8c.56 0 1.1-.16 1.48-.44.4-.28.62-.66.62-1.06s-.22-.78-.62-1.06c-.39-.28-.92-.44-1.48-.44Zm0 2.14h-7.8c-.24 0-.47-.06-.63-.19-.17-.12-.27-.28-.27-.45 0-.17.1-.33.27-.45.16-.13.4-.2.63-.2h7.8c.24 0 .47.08.64.2.17.12.26.28.26.45 0 .17-.1.33-.26.45-.17.13-.4.2-.64.2ZM186.57 95.5h-7.14c-.52 0-1 .21-1.37.59a2.04 2.04 0 0 0 0 2.82c.37.38.85.59 1.37.59h7.14c.52 0 1-.21 1.37-.59a2.04 2.04 0 0 0 0-2.82 1.89 1.89 0 0 0-1.37-.59Zm0 2.86h-7.14a.8.8 0 0 1-.59-.25.87.87 0 0 1 0-1.22.8.8 0 0 1 .59-.25h7.14a.8.8 0 0 1 .59.25.87.87 0 0 1 0 1.22.8.8 0 0 1-.59.25ZM200.4 95.5h-7.8a2.19 2.19 0 0 0-1.48.58 2 2 0 0 0-.62 1.42 1.91 1.91 0 0 0 .62 1.42 2.11 2.11 0 0 0 1.48.58h7.8c.56 0 1.1-.21 1.49-.59.39-.37.61-.88.61-1.41 0-.53-.22-1.04-.61-1.41-.4-.38-.93-.59-1.49-.59Zm0 2.86h-7.8a.92.92 0 0 1-.63-.25.84.84 0 0 1-.27-.61c0-.23.1-.45.27-.6.17-.17.4-.26.63-.26h7.8c.24 0 .47.1.64.25a.84.84 0 0 1 0 1.21.92.92 0 0 1-.64.26Z"/><g filter="url(#b)"><path fill="#007CBA" d="M135.5 129.5c12.15 0 22-9.63 22-21.5s-9.85-21.5-22-21.5-22 9.63-22 21.5 9.85 21.5 22 21.5Z"/><path fill="#000" d="M136 126.5a18.5 18.5 0 1 0 0-37 18.5 18.5 0 0 0 0 37Z" opacity=".1"/><path fill="#fff" d="M135.18 118.5v-2.7a6.5 6.5 0 0 1-3.68-1.19l.58-1.8c1 .74 2.21 1.15 3.46 1.16 1.71 0 2.87-1.1 2.87-2.63 0-1.47-.94-2.38-2.72-3.18-2.46-1.08-3.97-2.3-3.97-4.64a4.24 4.24 0 0 1 3.63-4.31V96.5h1.5v2.6c1.1.01 2.19.34 3.12.94l-.6 1.77c-.9-.6-1.95-.92-3.03-.92-1.86 0-2.55 1.24-2.55 2.3 0 1.4.89 2.1 2.98 3.06 2.48 1.13 3.73 2.52 3.73 4.9a4.5 4.5 0 0 1-3.8 4.56v2.79h-1.52Z"/><path fill="#007CBA" d="M158.5 150.77a153.47 153.47 0 0 1-46 0v-5.27a170.58 170.58 0 0 0 46 0v5.27ZM158.5 143.01a178.77 178.77 0 0 1-46 0v-4.51a198.68 198.68 0 0 0 46 0v4.51ZM158.5 135.52a134.53 134.53 0 0 1-46 0v-6.02a149.44 149.44 0 0 0 46 0v6.02Z"/></g><defs><filter id="a" width="165" height="100" x="57.5" y="37.5" color-interpolation-filters="sRGB" filterUnits="userSpaceOnUse"><feFlood flood-opacity="0" result="BackgroundImageFix"/><feColorMatrix in="SourceAlpha" values="0 0 0 0 0 0 0 0 0 0 0 0 0 0 0 0 0 0 127 0"/><feOffset dy="2"/><feGaussianBlur stdDeviation="3"/><feColorMatrix values="0 0 0 0 0 0 0 0 0 0 0 0 0 0 0 0 0 0 0.05 0"/><feBlend in2="BackgroundImageFix" result="effect1_dropShadow"/><feBlend in="SourceGraphic" in2="effect1_dropShadow" result="shape"/></filter><filter id="b" width="58" height="78" x="106.5" y="82.5" color-interpolation-filters="sRGB" filterUnits="userSpaceOnUse"><feFlood flood-opacity="0" result="BackgroundImageFix"/><feColorMatrix in="SourceAlpha" values="0 0 0 0 0 0 0 0 0 0 0 0 0 0 0 0 0 0 127 0"/><feOffset dy="2"/><feGaussianBlur stdDeviation="3"/><feColorMatrix values="0 0 0 0 0 0 0 0 0 0 0 0 0 0 0 0 0 0 0.05 0"/><feBlend in2="BackgroundImageFix" result="effect1_dropShadow"/><feBlend in="SourceGraphic" in2="effect1_dropShadow" result="shape"/></filter></defs></svg>
