<svg xmlns="http://www.w3.org/2000/svg" width="228" height="212" viewBox="0 0 228 212" fill="none"><g clip-path="url(#a)" opacity=".4"><path fill="#A2B6CD" d="M44 92.56v7.71l4.06-.59 1.56-4.72-5.62-2.4Z"/><path fill="#A2B6CD" d="m105.5 134.26-59.3-31.44c-3.23-1.71-2.86-4.67.82-6.62l126.9-67.28c3.67-1.95 9.27-2.15 12.49-.44l59.3 31.44c3.23 1.71 2.86 4.68-.81 6.63L118 133.83c-3.68 1.95-9.27 2.14-12.5.43Z"/><path fill="#6D8192" d="m78.35 118.11-5.3-2.8a3.72 3.72 0 0 1-1.73-3.03c0-1.17.78-1.7 1.73-1.2l5.3 2.81c.95.5 1.73 1.86 1.73 3.03 0 1.16-.77 1.7-1.73 1.2Z"/><path fill="#DEE9F6" d="M105.5 127.05 46.2 95.6c-3.22-1.72-2.86-4.68.82-6.63l126.9-67.28c3.67-1.95 9.27-2.14 12.49-.43l59.3 31.44c3.23 1.71 2.86 4.67-.81 6.62L118 126.61c-3.68 1.95-9.27 2.15-12.5.44Z"/><path fill="#392958" d="m123.33 123.78-71.3-37.46 112.93-59.87 70.98 37.64-112.6 59.7Z"/><path fill="#A2B6CD" d="m217.13 47.53-20.95-11.1c-.47-.26-.4-.69.13-.97a2.18 2.18 0 0 1 1.82-.07l20.96 11.1c.46.25.4.69-.13.97-.54.29-1.36.32-1.83.07Z"/><path fill="#6D8192" d="m207.63 85.25-10.23 5.42c-.85.45-1.54-.03-1.54-1.07a3.3 3.3 0 0 1 1.54-2.7l10.23-5.42c.85-.45 1.54.03 1.54 1.07a3.3 3.3 0 0 1-1.54 2.7ZM235.97 70.22 216.2 80.7c-.85.45-1.54-.03-1.54-1.07a3.3 3.3 0 0 1 1.54-2.7l19.76-10.47c.85-.45 1.53.03 1.53 1.07s-.68 2.24-1.53 2.7Z"/><path fill="#6D8192" d="m235.95 64.05-51.04-27.06-84.9 74.24 23.32 12.55 112.62-59.73Z" opacity=".12"/><path fill="#EFBA34" d="M73.08 177.07c-.76-.44-.66-1.16.23-1.6l79.76-39.55a3.54 3.54 0 0 1 2.99 0l39.49 22.8c.76.45.66 1.16-.23 1.6l-79.76 39.56c-.89.44-2.22.44-2.99 0l-39.49-22.81Z"/><path fill="#FCD147" d="M73.16 176.49c-.76-.44-.66-1.16.23-1.6l79.76-39.55a3.55 3.55 0 0 1 2.99 0l39.5 22.8c.75.45.65 1.16-.24 1.6l-79.75 39.56c-.9.44-2.23.44-3 0l-39.49-22.81Z"/><path fill="#FFF278" d="m100.47 186.22 15.6-7.74 4.28 2.47-15.6 7.74zM118.64 177.2l15.6-7.73 4.28 2.47-15.6 7.74zM136.97 168.12l15.6-7.74 4.28 2.47-15.6 7.74zM155.15 159.1l15.6-7.73 4.27 2.47-15.6 7.73zM108.99 191.48l13.18-6.54 2.49 1.44-13.19 6.54zM124.42 183.83l23.8-11.8 2.49 1.43-23.8 11.8z"/><rect width="12.38" height="7.9" fill="#EFBA34" rx="3.95" transform="matrix(.92 -.46 .84 .48 90.94 180.72)"/><path fill="#FFF278" fill-rule="evenodd" d="m151.66 141.12-13.93 6.9c-.88.44-.97 1.15-.21 1.6l4.6 2.65c.76.44 2.1.44 2.97 0l6.6-3.27 4.47-.65-2.13-.5 4.99-2.48c.42-.21.68-.5.72-.8.04-.3-.14-.58-.5-.79l-4.61-2.66a3.53 3.53 0 0 0-2.97 0Zm-13.13 7.57c-.16.09-.25.2-.24.32.02.12.13.22.3.3a47 47 0 0 0 5.75 2.09c.42.1.72.1.9 0 .27-.16.27-.53-.02-1.13l-.75-1.5c1.52.47 2.9.71 4.11.73.34 0 .6-.05.78-.14.15-.09.2-.2.15-.31a.66.66 0 0 0-.32-.27c-.6-.3-1.3-.78-2.12-1.43a5.35 5.35 0 0 1-1.52-1.6.43.43 0 0 0-.22-.2 1.12 1.12 0 0 0-.56-.1c-.21.01-.41.07-.56.15-.19.1-.26.25-.19.38.26.61 1.07 1.4 2.43 2.38-.97-.24-1.88-.53-2.74-.87-.43-.17-.79-.18-1.07-.01-.2.1-.25.26-.16.46l1.01 2.22a62.8 62.8 0 0 1-3.92-1.52 1.12 1.12 0 0 0-1.04.05Zm13.92-6.35a4.33 4.33 0 0 1 3.38.4c.63.35 1.05.8 1.22 1.28.2.56-.03 1.01-.7 1.34a3.88 3.88 0 0 1-2.24.3 4.38 4.38 0 0 1-1.57-.54 2.5 2.5 0 0 1-1.2-1.27c-.2-.57.03-1.02.7-1.35l.41-.16Zm3.06 2.08c.05-.25-.08-.51-.39-.8a2.39 2.39 0 0 0-1.09-.54c-.33-.09-.6-.1-.8-.03-.3.1-.42.29-.34.58.04.21.17.42.37.6a2.34 2.34 0 0 0 1.08.56c.34.08.61.09.81.02a.5.5 0 0 0 .36-.39Zm-5.5-.1a3.89 3.89 0 0 0-2.25.3c-.66.34-.9.78-.7 1.35.17.48.58.92 1.2 1.28a4.4 4.4 0 0 0 3.4.4l.41-.16c.67-.34.9-.79.7-1.35-.17-.48-.59-.93-1.21-1.28-.48-.28-1-.46-1.56-.54Zm.84 1.43c.3.28.44.54.38.8a.5.5 0 0 1-.36.39c-.2.06-.47.05-.8-.03a2.75 2.75 0 0 1-1.1-.56c-.2-.18-.32-.39-.36-.6-.07-.3.04-.49.34-.58.2-.07.47-.06.8.03a2.76 2.76 0 0 1 1.1.55Z" clip-rule="evenodd"/><g fill="#6A6F74" opacity=".1" style="mix-blend-mode:multiply"><path d="m255.05 99.66-43.8-24.3a6.11 6.11 0 0 0-5.25-.03l-25.77 13.79c-1.46.77-1.47 2.06-.02 2.86l43.8 24.29c1.45.8 3.8.82 5.25.04l25.77-13.8c1.46-.77 1.47-2.05.02-2.85Z"/><path d="m209.42 97.4-2.98-1.65 12.73-4.78 2.97 1.64-12.72 4.79ZM230.8 97.7a7.68 7.68 0 0 0-2.21-1.73c-2.94-1.62-6.49-1.98-8.61-.85-1.59.82-.95 2.12-.34 3.02.61.92.66 1.32.18 1.58-.74.38-1.99.05-2.84-.42a5.87 5.87 0 0 1-2.22-1.86l-.21-.31-2.86 1.07c.4.55 1.42 1.4 2.74 2.15 3.12 1.73 6.6 2.08 8.88.89 1.25-.66 1.4-1.6.47-2.97-.55-.84-.85-1.38-.34-1.65.47-.24 1.47-.2 2.65.45a5.13 5.13 0 0 1 1.8 1.45l.15.21 2.75-1.03Z"/><path fill-rule="evenodd" d="m236.38 100.5 2.3 1.28-8.47 7.15-2.75-1.53 1.28-1.07-3.82-2.11-2.26.52-3.12-1.73 14.38-2.88a3.32 3.32 0 0 1 2.46.38Zm-4.16 2.03-4.23.97 2.47 1.37 2.46-2.06.73-.62a96.66 96.66 0 0 1-1.43.34Z" clip-rule="evenodd"/><path d="m204.43 82.8 4.78 2.64c.63.38.95.77.43 1.24l-3.95 3.25-1.19.98 10.32-2.35 3.15 1.74-15.53 3.22-3.14-1.75 6.79-6.52a8.77 8.77 0 0 0-1.93-2.37l.27-.09ZM310.83 130.58l-43.81-24.29a6.11 6.11 0 0 0-5.25-.04L236 120.05c-1.45.77-1.46 2.05-.02 2.85l43.8 24.3c1.45.8 3.8.81 5.26.03l25.77-13.78c1.45-.78 1.46-2.06.02-2.87Z"/><path fill-rule="evenodd" d="m249.83 112.64 2.35 1.31 1.82-.4 1.19.67-.76.98 4.64 2.57.98-.53-.57.76 2.4 1.33 1.42-.3-1 .53 11.52 6.39 2.1-1.14.23.13c.15.09.18.12-.08.26l-1.83.98 5.95 3.3.5-.26c.22.4.73.94 1.71 1.49l2.51 1.39 1.82-.4 1.2.67-.77.97 4.83 2.68 1.22-.65-.49 1.06 3.87 2.14 8.08-4.32-3.84-2.12-.95.51.42-.8-3.93-2.19-.95.51.46-.78-5.31-2.94c-.89-.5-1.8-.86-2.77-1.03l.47-.25-3.66-2.03-.48.25c-.04-.41-.47-.78-1.08-1.11l-13.38-7.42-2.99.61 1.16-1.62-4.21-2.34-.95.5.49-.76-3.6-2-5.5 1.14-4.24 2.26Zm16.03 7.62-1.41-.78 4.53-2.43-6.54 1.32-1.2-.67 2.53-3.54-4.54 2.43-2.8-1.56.76-.98-2.87-1.6-1.83.4-1.5-.83 8.26-1.73 2.05 1.14-3.14 4.23 5.48-2.93 2.25 1.24-2.12 3.1 5.58-1.18 2.3 1.28-5.79 3.1Zm-7.94-7.12 1.36-1.75-3.24.71 1.88 1.04Zm13.56 10.24-4.6-2.55 5.79-3.1 4.6 2.56-1.2.64-3.23-1.79-1.04.56 3.15 1.75-1.19.63-3.15-1.75-1.16.62 3.23 1.8-1.2.63Zm10.72 1.34c-.92.5-2.01.4-2.51.29.19.22.24.48.2.63-.1.27-.32.42-.84.7l-1.14.6-1.39-.76.73-.4c.35-.18.88-.43.9-.72 0-.22-.25-.42-.75-.69l-1.48-.82-2.1 1.13-1.38-.77 5.79-3.1 3.17 1.76c.7.4 1.2.69 1.39 1.08.17.38.06.72-.59 1.07Zm-2.6-.5c-.3-.05-.53-.17-.8-.32l-1.67-.93 1.28-.69 1.7.94c.24.14.48.28.55.42.1.15.02.3-.22.44-.26.13-.57.18-.84.13Zm.58 3.99-1.4-.78 5.79-3.1 1.4.78-5.79 3.1Zm16.33 9.05-1.95-1.08 1.73-3.77-4.34 2.32-2.81-1.56.75-.98-2.86-1.6-1.81.41-1.62-.9c-.67-.37-1.36-.92-1.35-1.45 0-.53.42-1.02 1.47-1.59.86-.46 1.8-.8 3-.8.91 0 1.82.28 2.77.8l1.34.74-1.24.67-1.3-.73c-.5-.28-.87-.4-1.41-.4-.48 0-1.1.16-1.7.48-.63.33-.95.64-.99.94-.01.24.3.49.67.7l.61.33 6.5-1.35 2.06 1.14-3.14 4.22 5.48-2.93 2.1 1.17-1.61 3.5 4.03-2.16 1.41.78-5.79 3.1Zm-5.88-5.98 1.35-1.76-3.26.7 1.9 1.06Zm.15 12.88a4.57 4.57 0 0 1-2.6-.65l-2.67-1.47 1.24-.66 2.65 1.47c.27.14.49.22.7.23.1 0 .2 0 .3-.03.1-.02.18-.05.25-.08a.46.46 0 0 0 .17-.14c.03-.05.05-.1.04-.16-.01-.1-.12-.2-.36-.34-1.25-.74-2.95-1.6-1.11-2.57a3.91 3.91 0 0 1 3.7.17l2.74 1.52 1.16-.61-2.56-1.42a5.63 5.63 0 0 0-2.2-.7l.48-.25-3.77-2.1a5.15 5.15 0 0 0-2.12-.66l.47-.25-6.74-3.74-.47.26c-.15-.5-.97-1.05-1.39-1.29l-4.44-2.46-.48.25c0-.45-.9-1.01-1.47-1.33l-4.97-2.76-2.38.03.17-1.25-7.43-4.12-8.08 4.32 7.3 4.05 2.42-.03-.15 1.29 4.5 2.5 1.9-1.02.44.24c.58.34 1.31.71 2.2.91l-2.18 1.17 3.7 2.06 2.11-1.13.18.1c.23.13.24.14.01.27l-1.86 1 11.26 6.24c.71.4 1.64.71 2.4.76l-.53.28 3.57 1.98a8.5 8.5 0 0 0 2.4.92l1.5-.8Zm-19.22-14.05c-1.6.86-3.13.38-4.34-.3l-1.72-.94-1.94 1.03-2.68-1.48.22-1.97-3.68.05-5.46-3.03 5.79-3.1 5.54 3.08-.2 1.95 3.65-.04 4.4 2.44c1.1.61 2.03 1.45.42 2.31Zm-13.62-4.65-3.39-1.88 1.15-.61 3.03 1.67 1.18-.63-3.03-1.68 1.06-.56 3.45 1.92-.18 1.73-3.27.04Zm4.8 3.38.24-2.43 4.4-.05-4.64 2.48Zm5.7.36-1.78-.99 1.47-.79 1.8 1c.5.28.64.58.14.85s-1.1.22-1.63-.07Zm12 3.75 4.6 2.55-1.2.65-3.23-1.8-1.05.57 3.15 1.74-1.18.64-3.15-1.75-1.15.62 3.22 1.79-1.2.64-4.6-2.55 5.79-3.1Zm-4.87.68c.19.23.24.48.19.63-.1.27-.33.42-.83.7l-1.15.61-1.38-.77.72-.38c.35-.19.9-.45.91-.73 0-.23-.25-.42-.75-.7l-1.48-.82-2.11 1.13-1.39-.77 5.8-3.1 3.18 1.77c.7.39 1.17.69 1.38 1.07.17.38.08.72-.58 1.08-.92.5-2 .4-2.51.28Zm-.05-.82a2.3 2.3 0 0 1-.8-.32l-1.68-.93 1.3-.7 1.7.95c.25.14.49.28.56.42.08.15 0 .3-.24.44a1.4 1.4 0 0 1-.84.14Zm12.08 7.1c-.02.3-.22.56-.82.88-1.24.67-2.6.55-4-.22l-2.68-1.5 1.25-.66 2.67 1.49c.26.14.48.23.7.23a1.22 1.22 0 0 0 .55-.11.48.48 0 0 0 .17-.14c.03-.05.05-.1.04-.16-.02-.1-.12-.2-.36-.34-1.25-.74-2.94-1.59-1.11-2.57a3.9 3.9 0 0 1 3.7.17l2.75 1.53-1.23.66-2.53-1.4a1.68 1.68 0 0 0-.65-.25.99.99 0 0 0-.63.11c-.1.05-.16.12-.18.19-.03.07 0 .14.05.2.1.12.24.21.47.34l.73.42c.73.43 1.11.78 1.1 1.13Zm7.02 2.2-2.52-1.4a1.7 1.7 0 0 0-.66-.25.99.99 0 0 0-.62.11c-.1.05-.16.12-.19.19-.02.07 0 .15.06.21.1.1.24.2.47.33l.73.43c.73.42 1.1.77 1.1 1.11l-.02.15 1.65-.88Z" clip-rule="evenodd"/><path d="m273 150.83-43.8-24.3a6.11 6.11 0 0 0-5.26-.03l-25.77 13.79c-1.45.78-1.46 2.06-.02 2.86l43.8 24.29c1.45.8 3.8.82 5.26.04l25.77-13.8c1.45-.77 1.46-2.05.02-2.85Z"/><path fill-rule="evenodd" d="m246.61 159.12.36-.2-.09-.05-.36.07.14-.19-.09-.05-.36.2.06.03.28-.15-.14.19.07.03.34-.07-.28.15.07.04Zm-.6-.33.3-.16.13.06.06-.03-.3-.17-.07.03.12.07-.3.16.06.04Zm6.03-2.56c-5.63 3.02-14.71 2.95-20.28-.14-5.57-3.09-5.53-8.03.1-11.04 5.63-3.02 14.71-2.96 20.28.13 5.58 3.1 5.53 8.04-.1 11.05Z" clip-rule="evenodd"/><path fill-rule="evenodd" d="M239.6 149.33c-5.63 3.01-14.72 2.95-20.29-.14-5.57-3.09-5.52-8.03.1-11.04 5.64-3.02 14.72-2.96 20.3.13 5.56 3.1 5.51 8.04-.12 11.05Z" clip-rule="evenodd"/><path fill-rule="evenodd" d="M243.75 142.9a25.8 25.8 0 0 0-6.4.32c-2.07.37-3.94 1-5.48 1.83-3.26 1.74-4.65 4.13-4.17 6.43 4.23.31 8.64-.4 11.9-2.15a9.15 9.15 0 0 0 3.44-2.95c.72-1.11.97-2.3.71-3.48Z" clip-rule="evenodd"/><path d="m199.28 68.73-43.8-24.3a6.11 6.11 0 0 0-5.26-.03l-25.77 13.79c-1.45.78-1.46 2.06-.02 2.86l43.81 24.3c1.44.8 3.8.8 5.25.03l25.77-13.79c1.45-.78 1.46-2.06.02-2.86Z"/><path d="M153.26 52.51a7.2 7.2 0 0 1 6.19.05l25.3 14.03c1.7.94 1.68 2.45-.03 3.37l-13.97 7.47a7.2 7.2 0 0 1-6.19-.05l-25.3-14.02c-1.7-.95-1.68-2.45.03-3.37l13.97-7.48Z"/><path fill-rule="evenodd" d="m183.19 67.42-25.3-14.03a3.6 3.6 0 0 0-3.09-.02l-13.97 7.47c-.85.46-.86 1.22 0 1.69l25.29 14.02a3.6 3.6 0 0 0 3.09.03l13.97-7.48c.85-.46.86-1.21 0-1.68Zm-23.75-14.86a7.2 7.2 0 0 0-6.18-.05L139.3 60c-1.71.92-1.72 2.42-.02 3.37l25.3 14.02a7.2 7.2 0 0 0 6.18.05l13.97-7.47c1.71-.92 1.72-2.43.02-3.37l-25.3-14.03Z" clip-rule="evenodd"/><path d="m172.1 59.57 12.2 6.78c1.95 1.07 1.94 2.8-.02 3.84l-13.1 7a8.21 8.21 0 0 1-7.05-.05l-12.21-6.77 20.17-10.8Z"/><path fill-rule="evenodd" d="m157.86 69.53 3.28 1.81 4.59-2.45.03.02c-.38.88.48 1.77 1.63 2.4a9.65 9.65 0 0 0 8.9-.05c2.05-1.09 2.84-3.08.21-4.53a8.56 8.56 0 0 0-5.25-1.04l-.03-.02 1.52-.81-3.02-1.68-11.86 6.35Zm14.98-.1c-1.34.71-3.01.8-4.25.1-1.1-.6-1.08-1.6.16-2.26 1.26-.67 3-.73 4.2-.07 1.28.7 1.02 1.62-.1 2.22ZM165.42 60.8l-2.96-1.65-1.53.82-.03-.02c.34-.94-.1-1.93-1.5-2.7a8.96 8.96 0 0 0-8.68-.03c-2.5 1.34-2.63 3.18-.03 4.62a8.44 8.44 0 0 0 4.63 1l.04.01-.46.25c-1.65.88-3.47.74-5.36-.3a6.63 6.63 0 0 1-2.5-2.16l-2.47 1.15a12.9 12.9 0 0 0 3.08 2.3c3.83 2.11 6.84 2.56 10.31.7l7.46-4Zm-11.27-1.72a4.3 4.3 0 0 1 3.97-.1c1.47.81 1.04 1.72.1 2.22-1.3.7-3.1.65-4.27 0-.98-.54-1.11-1.42.2-2.12Z" clip-rule="evenodd"/><path d="m217.22 119.9-43.8-24.29a6.11 6.11 0 0 0-5.25-.04l-25.77 13.79c-1.46.78-1.47 2.06-.02 2.86l43.8 24.3c1.45.8 3.8.81 5.26.03l25.76-13.79c1.46-.78 1.47-2.06.02-2.86Z"/><path d="M173.14 116.67c0 .42-.6.75-1.35.75h-.16c-.75 0-1.37-.34-1.37-.75v-2.34c0-.65.66-1.09 1.42-1.09h.15c.63 0 1.17.26 1.25.6.03.16.3.28.6.27.3-.02.52-.17.5-.33-.15-.65-1.17-1.15-2.36-1.15h-.15c-1.42 0-2.5.74-2.51 1.69l-.01 2.35c.02.75 1.13 1.35 2.5 1.35h.16c1.35 0 2.44-.6 2.44-1.34 0-.17-.25-.3-.56-.3-.3 0-.55.13-.55.3Zm10.36-6.94-6.42 4.4c-.19.12-.15.31.09.41.23.1.58.1.77-.04l6.45-4.41.03-.03c.46-.4 1.51-.56 2.12-.34.34.12.58.31.66.53.08.21 0 .44-.23.62l-5.07 4.38c-.16.14-.08.33.18.42.26.09.6.05.76-.1l5.05-4.36c.39-.31.53-.7.4-1.07-.14-.38-.56-.7-1.14-.92-1.15-.42-2.88-.16-3.65.5Z"/><path d="m183.01 118.8 10.5-3.71c1.13-.4 1.53-1.2.88-1.87-.77-.7-2.42-.96-3.71-.56l-8.59 2.5c-.27.07-.37.25-.22.4.15.15.48.2.75.12l8.6-2.5c.77-.23 1.76-.09 2.2.33.37.37.15.84-.52 1.07l-10.5 3.72c-.25.09-.32.27-.16.41a.9.9 0 0 0 .77.1Zm-12.8 2.08c-2.77-1.53-3.03-3.9-.13-5.45.22-.11.22-.3 0-.42a.9.9 0 0 0-.78 0c-3.35 1.79-3.04 4.54.12 6.29a.9.9 0 0 0 .78 0c.22-.11.22-.3 0-.42Zm5.45-4.4c-.28.08-.6.11-.92.07l-.13-.02c-.75-.08-1.24-.48-1.1-.88l.85-2.3c.25-.63 1.05-1 1.8-.92l.14.02c.9.14 1.13.54.9 1.2l-.71 1.92c-.06.17.13.32.42.36.3.04.59-.07.66-.23l.7-1.92c.33-.94-.08-1.66-1.72-1.91l-.18-.02c-1.4-.16-2.73.44-3.09 1.38l-.85 2.3c-.25.73.61 1.44 1.95 1.59l.14.01c.57.07 1.16.02 1.67-.13.27-.08.36-.26.2-.41-.13-.14-.46-.2-.73-.11Z"/><path d="M176.93 118.59a6.55 6.55 0 0 0-3.96.63c-.23.1-.24.3-.04.42.2.13.54.14.78.03 1.22-.6 2.3-.68 3.3-.42.53.13.99.35 1.32.58l.08.06c.4.32 1.3.01.93-.32l-2.3-2.01c-1.01-.98-.71-1.38.42-1.7.49-.14.9-.12 1.33.03.28.1.53.25.73.4l.11.1 3.46 3.07.06.07c.04.05.06.13.06.21-.03.34-.47.77-1.57 1.26-3.83 1.73-7.66 2-11.51-.17a.9.9 0 0 0-.77-.01c-.22.12-.22.3-.02.42 4.33 2.44 8.79 2.13 13.01.22 1.32-.6 1.93-1.16 1.96-1.69a.73.73 0 0 0-.3-.64l-3.42-3.04-.16-.13a3.97 3.97 0 0 0-3.48-.63c-1.63.46-2.21 1.2-.85 2.52l.83.74Z"/><path fill-rule="evenodd" d="M118.49 65.15a7.5 7.5 0 0 0-3.45-.82 7.24 7.24 0 0 0-3.42.73L87.4 78.02c-.9.48-1.4 1.15-1.4 1.85.01.7.53 1.38 1.45 1.9l42.12 23.35c.92.5 2.15.8 3.44.82a7.26 7.26 0 0 0 3.42-.73l24.23-12.96c.9-.49 1.4-1.15 1.4-1.85-.02-.7-.53-1.38-1.45-1.9l-42.12-23.35Z" clip-rule="evenodd"/><path d="m126.34 84.16.02-.01 1.6-.3c.07-.95-.56-1.92-1.88-2.65-1.93-1.07-4.78-1.35-7.17-.82l-.97-.54-2.08.35 1.34.75a7.36 7.36 0 0 0-.79.42l-.64-.36-1.98.4 1.58.88c-.99 1.28-.53 2.83 1.4 3.9 1.07.6 2.43.94 3.83 1.05l1.76-.94a7.34 7.34 0 0 1-3.9-.74c-1.13-.62-1.55-1.48-1.27-2.27l3.44 1.9 2-.37-4.6-2.55a3.58 3.58 0 0 1 .66-.39l.11-.05 4.97 2.76 2.08-.35-5.22-2.9c1.53-.2 3.23.02 4.42.69 1.07.58 1.48 1.38 1.29 2.14Z"/><path fill-rule="evenodd" d="m135.27 94.64-1.15 1.12 2.56 1.41 6.45-6.52-3.78-2.09-12.03 3.43 2.54 1.4 2.07-.6 3.34 1.85Zm1.32-1.29-2.26-1.25 5.06-1.47-2.8 2.72ZM125.42 88.29l1.84 1.02s1.36.9 2.51 1.12c1.15.22 2.03 0 2.52-.15.46-.14 1.72-.76 1.86-.83a4.78 4.78 0 0 0 1.9-1.51c.47-.78-.93-1.7-1.53-2.06l-.04-.02a5.24 5.24 0 0 0-.22-.12l-4.45-2.47-9.27 4.96 2.45 1.36 2.43-1.3Zm6.65-1.63-1.78-.98-2.76 1.48 1.63.9c.23.13 1.05.54 1.55.35a5.88 5.88 0 0 0 1.77-.97c.4-.33-.41-.78-.41-.78Z" clip-rule="evenodd"/><path d="M108.47 81.47s1.65.83 3.27.43c1.63-.4 2.9-1.41 2.9-1.41s.9-.66-.33-1.67c0 0 .01 0 0 0a102.35 102.35 0 0 0-2.33-1.52l-.01-.02-.02-.02c-.95-.51-.55-.75-.5-.77l.05-.04c.12-.1.44-.39.99-.42.62-.04 1.65.57 1.72.62.22.13.52.32.64.42.21.18.33.42-.5.82l2.32 1.28.72-.38s1.3-.64.92-1.39a3.45 3.45 0 0 0-1.28-1.2s-1.36-.8-2.06-1.14c-.4-.2-.95-.45-1.55-.64a4.4 4.4 0 0 0-1.28-.25h-.09l-.04-.01h-.08l-.04.01c-1.6.04-3.1 1-3.8 1.67-.56.54.08 1.2.42 1.48l.12.09.02.01.01.01.02.01.01.01.01.01c.52.36 1.77 1.17 2.34 1.52l.03.02.22.14.02.01c.18.15.33.38-.1.6l-.04.03c-.48.27-.6.33-.75.34a.6.6 0 0 0-.17 0c-.29.04-.73-.15-1.03-.3l-1.5-.84c-.56-.4.16-.77.16-.77l.28-.15-2.3-1.27-.35.19s-1.56.75-1.38 1.45c.17.6.72 1.04 1.65 1.58l-.01.01 1.02.57s.86.52 1.68.88Z"/></g><g clip-path="url(#b)"><path fill="#fff" d="m230.06 72.15-43.8-24.28a6.11 6.11 0 0 0-5.25-.04l-25.77 13.79c-1.46.78-1.47 2.06-.02 2.86l43.8 24.29c1.44.8 3.8.82 5.25.04L230.04 75c1.46-.77 1.47-2.05.02-2.86Z"/><path fill="#1A1F71" d="m184.43 69.9-2.98-1.65 12.73-4.78 2.97 1.64-12.72 4.79ZM205.8 70.2a7.69 7.69 0 0 0-2.2-1.73c-2.94-1.62-6.48-1.98-8.61-.85-1.59.82-.95 2.12-.34 3.02.61.92.66 1.32.18 1.58-.74.38-1.99.05-2.84-.42a5.87 5.87 0 0 1-2.22-1.86l-.21-.31-2.86 1.07c.4.55 1.42 1.4 2.74 2.15 3.12 1.73 6.6 2.08 8.88.89 1.25-.66 1.4-1.6.47-2.97-.55-.84-.85-1.38-.34-1.65.48-.24 1.48-.2 2.65.45a5.14 5.14 0 0 1 1.8 1.45l.15.21 2.75-1.03Z"/><path fill="#1A1F71" fill-rule="evenodd" d="m211.39 73 2.3 1.28-8.47 7.15-2.75-1.53 1.27-1.07-3.81-2.11-2.26.52-3.12-1.73 14.38-2.88a3.32 3.32 0 0 1 2.46.38Zm-4.16 2.03L203 76l2.47 1.37 2.46-2.06.73-.62c-.33.09-.79.2-1.1.26l-.33.08ZM179.44 55.3l4.78 2.64c.63.38.96.77.43 1.24l-3.95 3.25-1.18.98 10.32-2.35 3.14 1.74-15.53 3.22-3.14-1.74 6.8-6.53a8.77 8.77 0 0 0-1.94-2.37l.27-.09Z" clip-rule="evenodd"/></g><g clip-path="url(#c)"><path fill="#2557D6" d="m285.84 103.08-43.8-24.29a6.11 6.11 0 0 0-5.26-.04l-25.77 13.8c-1.45.77-1.46 2.06-.02 2.86l43.8 24.28c1.45.8 3.8.82 5.26.04l25.77-13.79c1.45-.78 1.46-2.06.02-2.86Z"/><path fill="#fff" fill-rule="evenodd" d="m224.84 85.14 2.36 1.31 1.81-.4 1.2.67-.76.98 4.63 2.57.98-.53-.57.76 2.4 1.33 1.42-.3-1 .53 11.52 6.39 2.1-1.14.23.13c.15.09.18.12-.08.26l-1.83.98 5.95 3.3.5-.26c.22.4.73.94 1.72 1.49l2.5 1.39 1.82-.4 1.2.66-.77.98 4.83 2.68 1.22-.65-.49 1.06 3.87 2.14 8.07-4.32-3.82-2.12-.96.5.42-.8-3.93-2.18-.95.51.46-.78-5.31-2.94c-.89-.5-1.8-.86-2.77-1.03l.47-.25-3.66-2.03-.48.25c-.04-.41-.47-.78-1.08-1.11l-13.38-7.42-2.99.61 1.17-1.62-4.22-2.34-.95.51.49-.77-3.6-2-5.5 1.14-4.24 2.26Zm16.03 7.63-1.41-.79 4.53-2.43-6.53 1.32-1.22-.67 2.54-3.54-4.54 2.43-2.8-1.56.76-.98-2.87-1.6-1.83.4-1.5-.83 8.26-1.73 2.05 1.14-3.13 4.23 5.48-2.93 2.25 1.25-2.13 3.1 5.59-1.19 2.3 1.28-5.8 3.1Zm-7.94-7.13 1.36-1.75-3.24.71 1.88 1.04Zm13.57 10.24-4.6-2.55 5.78-3.1 4.6 2.56-1.2.64-3.23-1.79-1.04.56 3.15 1.75-1.19.63-3.15-1.74-1.15.61 3.22 1.8-1.2.63Zm10.72 1.34c-.93.5-2.02.4-2.52.29.19.22.24.48.2.63-.1.27-.32.42-.84.7l-1.14.6-1.39-.76.73-.4c.35-.18.88-.43.9-.72.01-.22-.25-.42-.75-.69l-1.48-.82-2.1 1.13-1.38-.77 5.79-3.1 3.17 1.76c.7.4 1.2.69 1.39 1.08.18.38.06.72-.58 1.07Zm-2.6-.5c-.31-.05-.54-.17-.8-.32l-1.68-.93 1.28-.69 1.7.94c.24.14.48.28.55.42.1.15.03.3-.22.44-.25.13-.56.18-.84.13Zm.58 3.99-1.41-.78 5.79-3.1 1.4.78-5.79 3.1Zm16.32 9.05-1.95-1.08 1.73-3.78-4.34 2.33-2.81-1.56.75-.98-2.86-1.6-1.81.4-1.61-.88c-.67-.38-1.37-.93-1.36-1.46 0-.53.42-1.02 1.47-1.59.86-.46 1.8-.8 3-.8.92 0 1.83.28 2.78.8l1.33.74-1.24.67-1.3-.73c-.5-.28-.87-.4-1.4-.4-.49 0-1.11.16-1.72.48-.62.33-.94.64-.98.94-.01.24.3.49.67.69l.61.34 6.5-1.36 2.07 1.15-3.15 4.22 5.48-2.93 2.1 1.17-1.61 3.5 4.03-2.16 1.41.78-5.79 3.1Zm-5.88-5.98 1.35-1.76-3.25.7 1.9 1.06Zm.15 12.88a4.58 4.58 0 0 1-2.61-.64l-2.66-1.48 1.24-.67 2.65 1.47c.26.15.48.23.7.24.1 0 .2 0 .3-.03l.24-.08a.45.45 0 0 0 .18-.14c.03-.05.05-.1.04-.16-.01-.1-.12-.2-.36-.34-1.25-.74-2.95-1.6-1.12-2.57a3.92 3.92 0 0 1 3.7.17l2.75 1.52 1.15-.61-2.55-1.42a5.6 5.6 0 0 0-2.2-.7l.48-.25-3.78-2.1a5.15 5.15 0 0 0-2.12-.66l.48-.25-6.74-3.74-.47.26c-.15-.5-.97-1.06-1.39-1.29l-4.44-2.46-.48.25c0-.45-.9-1.01-1.47-1.33l-4.97-2.76-2.38.03.17-1.25-7.42-4.12-8.09 4.32 7.3 4.05 2.43-.02-.16 1.28 4.5 2.5 1.9-1.02.44.24c.58.34 1.31.71 2.2.91l-2.18 1.17 3.7 2.06 2.11-1.13.18.1c.23.13.24.14.01.27l-1.86 1 11.25 6.24c.72.4 1.65.71 2.4.76l-.52.28 3.57 1.98c.75.41 1.58.76 2.4.92l1.5-.8Zm-19.22-14.05c-1.6.86-3.13.38-4.34-.29l-1.72-.95-1.94 1.04-2.68-1.49.22-1.97-3.68.05-5.46-3.03 5.79-3.1 5.54 3.08-.2 1.95 3.65-.04 4.4 2.44c1.1.61 2.03 1.45.42 2.31Zm-13.62-4.65-3.39-1.88 1.15-.61 3.03 1.67 1.18-.63-3.03-1.68 1.06-.56 3.45 1.92-.18 1.74-3.27.03Zm4.8 3.39.24-2.44 4.4-.05-4.64 2.48Zm5.7.35-1.78-.99 1.48-.78 1.8 1c.49.27.63.57.13.84s-1.1.23-1.63-.07Zm12 3.75 4.6 2.55-1.2.64-3.23-1.78-1.05.56 3.15 1.74-1.19.64-3.14-1.75-1.16.62 3.23 1.79-1.2.64-4.6-2.55 5.78-3.1Zm-4.87.68c.19.23.24.48.19.64-.1.26-.33.41-.83.69l-1.15.61-1.38-.76.72-.4c.35-.18.9-.44.91-.72 0-.23-.25-.42-.75-.7l-1.48-.82-2.11 1.13-1.39-.76 5.8-3.1 3.18 1.76c.7.39 1.17.69 1.38 1.07.17.38.08.73-.58 1.08-.92.5-2 .4-2.51.28Zm-.05-.82c-.3-.05-.53-.17-.8-.32l-1.67-.92 1.3-.7 1.7.94c.24.14.48.27.55.42.08.15 0 .3-.24.44a1.4 1.4 0 0 1-.84.14Zm12.07 7.1c0 .3-.22.56-.81.88-1.25.67-2.6.55-4-.22l-2.68-1.5 1.24-.66 2.68 1.49c.26.14.48.23.7.23.1 0 .2 0 .3-.02.09-.02.17-.05.25-.09a.46.46 0 0 0 .16-.14c.04-.05.06-.1.05-.16-.02-.1-.12-.2-.36-.34-1.25-.74-2.95-1.59-1.11-2.57a3.9 3.9 0 0 1 3.7.17l2.75 1.53-1.23.66-2.53-1.4a1.67 1.67 0 0 0-.65-.25.97.97 0 0 0-.63.11c-.1.05-.16.12-.18.19-.03.07 0 .14.05.2.1.12.24.21.47.34l.73.42c.73.43 1.1.78 1.1 1.13Zm7.02 2.2-2.5-1.4a1.71 1.71 0 0 0-.67-.25 1 1 0 0 0-.62.11c-.1.05-.16.12-.19.19-.02.07 0 .15.06.21.1.1.24.2.47.33l.72.42c.74.43 1.11.78 1.1 1.12.01.06 0 .1-.01.15l1.64-.88Z" clip-rule="evenodd"/></g><g clip-path="url(#d)"><path fill="#fff" d="m248 123.33-43.8-24.3a6.12 6.12 0 0 0-5.25-.03l-25.77 13.79c-1.45.78-1.46 2.06-.02 2.86l43.8 24.29c1.45.8 3.8.82 5.26.04l25.77-13.8c1.45-.77 1.46-2.05.02-2.85Z"/><path fill="#F79F1A" fill-rule="evenodd" d="m221.62 131.62.36-.2-.09-.05-.36.07.14-.19-.1-.05-.35.2.06.03.28-.15-.14.19.07.03.34-.07-.28.15.07.04Zm-.6-.33.3-.17.13.07.06-.03-.31-.17-.06.03.12.07-.3.16.06.04Zm6.03-2.56c-5.63 3.02-14.71 2.95-20.28-.13-5.57-3.1-5.53-8.04.1-11.05 5.63-3.02 14.72-2.96 20.29.13 5.57 3.1 5.52 8.04-.11 11.05Z" clip-rule="evenodd"/><path fill="#EA001B" fill-rule="evenodd" d="M214.6 121.83c-5.63 3.02-14.7 2.95-20.28-.14-5.57-3.08-5.52-8.03.11-11.04 5.63-3.02 14.71-2.96 20.28.13 5.57 3.1 5.53 8.04-.1 11.05Z" clip-rule="evenodd"/><path fill="#FF5F01" fill-rule="evenodd" d="M218.76 115.4a25.82 25.82 0 0 0-6.4.32c-2.07.37-3.94 1-5.48 1.83-3.26 1.74-4.65 4.13-4.17 6.43 4.22.31 8.64-.4 11.9-2.15a9.15 9.15 0 0 0 3.44-2.95c.72-1.11.97-2.3.71-3.49Z" clip-rule="evenodd"/></g><g clip-path="url(#e)"><path fill="#fff" d="m174.29 41.23-43.8-24.3a6.12 6.12 0 0 0-5.25-.03L99.47 30.7c-1.46.77-1.47 2.05-.03 2.85l43.8 24.3c1.45.8 3.8.8 5.26.03l25.77-13.8c1.45-.77 1.46-2.05.02-2.85Z"/><path fill="#fff" d="M128.27 25.01a7.2 7.2 0 0 1 6.19.05l25.3 14.03c1.7.94 1.68 2.45-.03 3.36l-13.97 7.48a7.2 7.2 0 0 1-6.19-.05l-25.3-14.02c-1.7-.94-1.68-2.45.04-3.37l13.96-7.48Z"/><path fill="#0F3365" fill-rule="evenodd" d="m158.2 39.92-25.3-14.03a3.6 3.6 0 0 0-3.09-.02l-13.97 7.47c-.85.46-.86 1.22 0 1.69l25.28 14.02a3.6 3.6 0 0 0 3.1.03l13.97-7.48c.85-.46.86-1.21 0-1.68Zm-23.74-14.86a7.2 7.2 0 0 0-6.19-.05L114.3 32.5c-1.71.92-1.72 2.43-.02 3.37l25.3 14.02a7.2 7.2 0 0 0 6.18.05l13.97-7.48c1.71-.91 1.72-2.42.02-3.36l-25.3-14.03Z" clip-rule="evenodd"/><path fill="#0F3365" d="m147.1 32.07 12.23 6.78c1.93 1.07 1.92 2.79-.03 3.83l-13.12 7.02a8.18 8.18 0 0 1-7.03-.05l-12.22-6.78 20.17-10.8Z"/><path fill="#FFFFFE" fill-rule="evenodd" d="m132.87 42.03 3.28 1.81 4.59-2.45.03.02c-.38.88.48 1.77 1.63 2.4a9.65 9.65 0 0 0 8.9-.05c2.05-1.09 2.84-3.08.21-4.53a8.55 8.55 0 0 0-5.25-1.04l-.03-.02 1.52-.81-3.02-1.68-11.86 6.35Zm14.98-.1c-1.34.71-3.01.8-4.25.1-1.1-.6-1.08-1.6.16-2.26 1.26-.68 3-.73 4.2-.07 1.28.7 1.01 1.62-.1 2.22Z" clip-rule="evenodd"/><path fill="#D8232A" fill-rule="evenodd" d="m140.44 33.3-2.97-1.65-1.53.82-.03-.02c.34-.94-.1-1.93-1.5-2.7a8.96 8.96 0 0 0-8.68-.03c-2.5 1.34-2.63 3.18-.03 4.62a8.44 8.44 0 0 0 4.63 1l.04.01-.46.25c-1.65.88-3.47.74-5.36-.3a6.62 6.62 0 0 1-2.5-2.15l-2.47 1.14c.52.55 1.52 1.42 3.08 2.3 3.83 2.11 6.84 2.56 10.31.7l7.47-4Zm-11.28-1.72a4.3 4.3 0 0 1 3.97-.1c1.47.81 1.04 1.72.1 2.22-1.3.7-3.1.65-4.27 0-.98-.54-1.1-1.42.2-2.12Z" clip-rule="evenodd"/></g><g clip-path="url(#f)"><path fill="#EF809F" d="m192.23 92.4-43.8-24.29a6.11 6.11 0 0 0-5.25-.04l-25.77 13.8c-1.46.77-1.47 2.05-.02 2.85l43.8 24.3c1.44.8 3.8.81 5.25.03l25.77-13.79c1.46-.78 1.47-2.06.02-2.86Z"/><path fill="#fff" d="M148.15 89.18c0 .4-.6.74-1.36.74h-.15c-.75 0-1.37-.33-1.37-.75v-2.34c0-.65.66-1.09 1.42-1.09h.15c.63 0 1.17.26 1.25.6.03.16.3.28.6.27.3-.02.52-.16.5-.33-.15-.65-1.16-1.15-2.36-1.15h-.15c-1.42 0-2.5.74-2.51 1.69l-.01 2.35c.02.75 1.13 1.35 2.5 1.35h.16c1.35 0 2.44-.6 2.44-1.34 0-.16-.25-.3-.56-.3-.3 0-.55.13-.55.3Zm10.36-6.95-6.42 4.4c-.19.12-.15.31.1.41.22.1.57.1.76-.04l6.45-4.41.04-.03c.45-.4 1.5-.56 2.12-.34.33.12.58.31.65.53.08.21 0 .44-.22.62l-5.08 4.38c-.16.14-.08.33.18.42.26.09.6.05.76-.1l5.06-4.37c.38-.3.52-.69.38-1.06-.13-.38-.54-.71-1.13-.92-1.15-.42-2.88-.16-3.65.5Z"/><path fill="#fff" d="m158.02 91.3 10.5-3.71c1.13-.4 1.53-1.2.88-1.87-.77-.71-2.42-.96-3.71-.56l-8.59 2.5c-.27.07-.37.25-.22.4.15.15.48.2.75.12l8.6-2.5c.77-.23 1.76-.09 2.2.33.37.37.15.84-.52 1.07l-10.5 3.72c-.25.09-.32.27-.16.41.18.14.53.18.77.1Zm-12.8 2.08c-2.77-1.53-3.03-3.9-.13-5.45.22-.11.22-.3 0-.42a.9.9 0 0 0-.78 0c-3.35 1.79-3.04 4.54.12 6.29a.9.9 0 0 0 .78 0c.22-.11.22-.3 0-.42Zm5.45-4.4c-.27.08-.6.11-.92.07l-.13-.02c-.75-.08-1.24-.48-1.1-.88l.85-2.3c.25-.63 1.05-1 1.8-.92l.14.02c.9.14 1.13.54.9 1.2l-.71 1.92c-.06.17.13.32.43.36.3.04.58-.07.65-.23l.7-1.92c.33-.94-.07-1.66-1.72-1.91l-.18-.02c-1.4-.16-2.73.44-3.08 1.38l-.86 2.3c-.25.73.61 1.44 1.95 1.59l.14.01c.57.07 1.16.02 1.68-.13.26-.08.35-.26.2-.41-.14-.14-.47-.2-.74-.11Z"/><path fill="#fff" d="M151.94 91.09a6.55 6.55 0 0 0-3.96.63c-.23.1-.24.3-.04.42.2.13.54.14.78.03 1.22-.6 2.3-.68 3.3-.42.53.13.99.35 1.32.58l.08.06c.4.32 1.3.01.93-.32l-2.3-2.01c-1.02-.98-.7-1.38.42-1.7.49-.14.9-.12 1.34.03.28.1.52.25.72.4l.11.1 3.46 3.07.06.07c.04.05.06.13.06.21-.03.34-.47.77-1.57 1.26-3.83 1.74-7.66 2-11.52-.17a.9.9 0 0 0-.76 0c-.22.1-.22.3-.02.41 4.33 2.44 8.79 2.13 13.01.22 1.32-.6 1.93-1.16 1.96-1.69a.73.73 0 0 0-.3-.64l-3.42-3.04c-.03-.02-.07-.07-.16-.13a3.97 3.97 0 0 0-3.48-.63c-1.63.46-2.21 1.2-.85 2.52l.83.74Z"/></g><g clip-path="url(#g)"><path fill="#10298E" fill-rule="evenodd" d="M93.5 37.65a7.5 7.5 0 0 0-3.44-.82 7.24 7.24 0 0 0-3.42.73L62.4 50.52c-.9.49-1.4 1.15-1.4 1.85.01.7.53 1.39 1.45 1.9l42.12 23.35c.91.5 2.15.8 3.44.82a7.24 7.24 0 0 0 3.42-.73l24.23-12.96c.9-.49 1.4-1.15 1.4-1.86-.01-.7-.53-1.38-1.45-1.88L93.5 37.65Z" clip-rule="evenodd"/><path fill="#FFBE00" d="m101.35 56.66.02-.01 1.61-.3c.06-.95-.57-1.92-1.9-2.65-1.92-1.07-4.77-1.35-7.16-.82l-.97-.54-2.08.35 1.34.75a7.51 7.51 0 0 0-.79.42l-.64-.36-1.98.4 1.59.88c-1 1.28-.54 2.83 1.39 3.9 1.07.6 2.43.94 3.83 1.05l1.76-.94c-1.39.09-2.84-.15-3.9-.74-1.13-.62-1.55-1.48-1.27-2.27l3.44 1.9 2-.37-4.6-2.55c.14-.1.28-.2.45-.3l.2-.09c.05-.01.08-.03.12-.05l4.97 2.76 2.08-.35-5.22-2.9c1.54-.2 3.23.02 4.42.68 1.07.6 1.48 1.4 1.29 2.15Z"/><path fill="#fff" fill-rule="evenodd" d="m110.28 67.14-1.15 1.12 2.56 1.41 6.45-6.52-3.78-2.1-12.03 3.44 2.54 1.4 2.07-.6 3.34 1.85Zm1.32-1.29-2.26-1.25 5.06-1.48-2.8 2.73ZM100.43 60.79l1.84 1.02s1.36.9 2.51 1.12c1.15.22 2.03 0 2.52-.15.46-.14 1.72-.76 1.86-.83a4.78 4.78 0 0 0 1.91-1.51c.46-.78-.94-1.7-1.54-2.06l-.04-.02a4.98 4.98 0 0 0-.22-.13l-4.45-2.46-9.27 4.96L98 62.09l2.43-1.3Zm6.65-1.63-1.77-.98-2.77 1.48 1.63.9c.23.13 1.05.54 1.55.35a5.86 5.86 0 0 0 1.77-.97c.4-.33-.41-.78-.41-.78Z" clip-rule="evenodd"/><path fill="#fff" d="M83.48 53.97s1.65.83 3.27.43a8.35 8.35 0 0 0 2.9-1.41s.9-.66-.33-1.67h.01A103.28 103.28 0 0 0 87 49.8l-.02-.02-.02-.02c-.95-.51-.55-.75-.5-.77l.05-.04c.12-.1.44-.39.99-.42.62-.04 1.65.57 1.72.62a7 7 0 0 1 .65.42c.2.18.32.42-.5.82l2.31 1.28.72-.38s1.3-.64.92-1.39a3.44 3.44 0 0 0-1.28-1.2s-1.36-.8-2.06-1.14c-.4-.2-.94-.45-1.55-.64a4.4 4.4 0 0 0-1.27-.25h-.1l-.04-.01h-.08l-.04.01c-1.6.04-3.1 1-3.8 1.67-.56.55.08 1.2.42 1.48a4.05 4.05 0 0 0 .14.1l.01.01.02.01.01.01.02.01a81.9 81.9 0 0 0 2.33 1.52l.03.02.22.14.02.02c.18.14.33.37-.1.6l-.04.02c-.48.27-.6.33-.74.35a.6.6 0 0 0-.17 0c-.3.03-.74-.16-1.03-.31l-1.52-.84c-.55-.4.17-.77.17-.77l.28-.15-2.3-1.27-.35.19s-1.56.75-1.37 1.45c.16.6.71 1.04 1.64 1.59h-.01l1.02.57s.86.52 1.68.88Z"/></g></g><defs><clipPath id="a"><path fill="#fff" d="M0 0h228v212H0z"/></clipPath><clipPath id="b"><path fill="#fff" d="M180.12 48.3a8.18 8.18 0 0 1 7.02.06l42.04 23.3c1.93 1.08 1.92 2.79-.03 3.83l-23.99 12.84a8.18 8.18 0 0 1-7.02-.05L156.1 64.97c-1.93-1.07-1.92-2.79.03-3.83l23.99-12.84Z"/></clipPath><clipPath id="c"><path fill="#fff" d="M235.9 79.23a8.18 8.18 0 0 1 7.02.05l42.03 23.31c1.94 1.07 1.92 2.79-.02 3.83l-24 12.84a8.18 8.18 0 0 1-7.02-.06l-42.04-23.3c-1.93-1.08-1.91-2.79.03-3.83l24-12.84Z"/></clipPath><clipPath id="d"><path fill="#fff" d="M198.06 99.47a8.18 8.18 0 0 1 7.03.06l42.03 23.3c1.94 1.08 1.92 2.8-.02 3.83l-24 12.84a8.18 8.18 0 0 1-7.02-.05l-42.04-23.31c-1.93-1.07-1.91-2.78.03-3.83l24-12.84Z"/></clipPath><clipPath id="e"><path fill="#fff" d="M124.35 17.38a8.18 8.18 0 0 1 7.02.05l42.04 23.3c1.93 1.08 1.92 2.8-.03 3.84l-24 12.83a8.18 8.18 0 0 1-7.02-.05l-42.03-23.3c-1.93-1.08-1.92-2.8.03-3.83l23.99-12.84Z"/></clipPath><clipPath id="f"><path fill="#fff" d="M142.29 68.55a8.18 8.18 0 0 1 7.03.05l42.03 23.3c1.93 1.08 1.92 2.8-.03 3.84l-23.99 12.84a8.18 8.18 0 0 1-7.02-.06l-42.04-23.3c-1.93-1.08-1.92-2.8.03-3.83l23.99-12.84Z"/></clipPath><clipPath id="g"><path fill="#fff" d="M86.52 37.62a8.18 8.18 0 0 1 7.02.05l42.04 23.31c1.93 1.07 1.92 2.79-.03 3.83l-24 12.84a8.18 8.18 0 0 1-7.02-.05L62.5 54.29c-1.93-1.08-1.92-2.79.03-3.83l23.99-12.84Z"/></clipPath></defs></svg>
