<svg width="228" height="212" viewBox="0 0 228 212" fill="none" xmlns="http://www.w3.org/2000/svg">
<g opacity="0.4" clip-path="url(#clip0)">
<path d="M44 92.5574V100.272L48.0562 99.6823L49.617 94.9562L44 92.5574Z" fill="#A2B6CD"/>
<path d="M105.503 134.262L46.1982 102.819C42.9745 101.109 43.3387 98.1451 47.0155 96.1962L173.916 28.9163C177.593 26.9674 183.186 26.7743 186.41 28.4823L245.715 59.9245C248.939 61.6345 248.574 64.5988 244.898 66.5477L117.997 133.828C114.32 135.777 108.727 135.97 105.503 134.262Z" fill="#A2B6CD"/>
<path d="M78.3526 118.115L73.0477 115.302C72.096 114.796 71.3242 113.442 71.3242 112.276C71.3242 111.109 72.096 110.574 73.0477 111.079L78.3526 113.892C79.3043 114.398 80.0761 115.751 80.0761 116.918C80.0782 118.085 79.3065 118.62 78.3526 118.115Z" fill="#6D8192"/>
<path d="M105.502 127.047L46.1989 95.6051C42.9753 93.895 43.3395 90.9308 47.0162 88.9818L173.917 21.702C177.594 19.753 183.187 19.5599 186.41 21.268L245.716 52.7101C248.939 54.4202 248.575 57.3844 244.898 59.3334L117.996 126.615C114.321 128.564 108.728 128.757 105.502 127.047Z" fill="#DEE9F6"/>
<path d="M123.332 123.784L52.0342 86.3201L164.956 26.4519L235.938 64.0853L123.332 123.784Z" fill="#392958"/>
<path d="M217.135 47.5321L196.178 36.4216C195.712 36.1748 195.771 35.7428 196.308 35.4561C196.848 35.1695 197.663 35.1396 198.129 35.3865L219.086 46.4969C219.553 46.7438 219.494 47.1757 218.956 47.4624C218.417 47.7491 217.601 47.7809 217.135 47.5321Z" fill="#A2B6CD"/>
<path d="M207.634 85.2451L197.399 90.6719C196.549 91.1218 195.862 90.644 195.862 89.6049C195.862 88.5657 196.549 87.3593 197.399 86.9093L207.634 81.4825C208.481 81.0326 209.171 81.5104 209.171 82.5496C209.171 83.5888 208.483 84.7952 207.634 85.2451Z" fill="#6D8192"/>
<path d="M235.966 70.2248L216.208 80.7002C215.36 81.1501 214.671 80.6723 214.671 79.6331C214.671 78.5939 215.358 77.3876 216.208 76.9376L235.966 66.4623C236.816 66.0123 237.503 66.4901 237.503 67.5293C237.503 68.5665 236.816 69.7749 235.966 70.2248Z" fill="#6D8192"/>
<path opacity="0.12" d="M235.953 64.0495L184.907 36.9851L100.017 111.229L123.332 123.784L235.953 64.0495Z" fill="#6D8192"/>
<path d="M73.0815 177.069C72.3189 176.629 72.4206 175.915 73.3087 175.474L153.067 135.917C153.955 135.477 155.293 135.477 156.055 135.917L195.548 158.726C196.311 159.167 196.209 159.881 195.321 160.321L115.563 199.878C114.675 200.319 113.337 200.319 112.574 199.878L73.0815 177.069Z" fill="#EFBA34"/>
<path d="M73.1643 176.488C72.4017 176.048 72.5034 175.334 73.3915 174.893L153.149 135.336C154.037 134.896 155.376 134.896 156.138 135.336L195.631 158.145C196.393 158.586 196.292 159.3 195.404 159.74L115.646 199.298C114.758 199.738 113.42 199.738 112.657 199.298L73.1643 176.488Z" fill="#FCD147"/>
<rect width="16.9156" height="5.1038" transform="matrix(0.922093 -0.457327 0.838723 0.484409 100.472 186.218)" fill="#FFF278"/>
<rect width="16.9156" height="5.1038" transform="matrix(0.922093 -0.457327 0.838723 0.484409 118.643 177.206)" fill="#FFF278"/>
<rect width="16.9156" height="5.1038" transform="matrix(0.922093 -0.457327 0.838723 0.484409 136.974 168.115)" fill="#FFF278"/>
<rect width="16.9157" height="5.1038" transform="matrix(0.922093 -0.457327 0.838723 0.484409 155.145 159.103)" fill="#FFF278"/>
<rect width="14.2998" height="2.96351" transform="matrix(0.922093 -0.457327 0.838723 0.484409 108.988 191.482)" fill="#FFF278"/>
<rect width="25.8094" height="2.9635" transform="matrix(0.922093 -0.457327 0.838723 0.484409 124.425 183.826)" fill="#FFF278"/>
<rect width="12.3815" height="7.90265" rx="3.95133" transform="matrix(0.922093 -0.457327 0.838723 0.484409 90.9441 180.715)" fill="#EFBA34"/>
<path fill-rule="evenodd" clip-rule="evenodd" d="M151.656 141.117L137.728 148.025C136.85 148.461 136.755 149.171 137.516 149.611L142.12 152.27C142.882 152.71 144.212 152.713 145.091 152.277L151.691 149.004L156.163 148.348L154.025 147.847L159.02 145.369C159.443 145.16 159.703 144.875 159.743 144.577C159.782 144.279 159.599 143.993 159.232 143.781L154.63 141.123C154.264 140.912 153.744 140.792 153.186 140.791C152.628 140.79 152.078 140.908 151.656 141.117ZM138.534 148.69C138.368 148.775 138.278 148.893 138.29 149.013C138.307 149.129 138.416 149.234 138.59 149.302C141.273 150.416 143.187 151.114 144.335 151.398C144.757 151.499 145.058 151.499 145.235 151.398C145.51 151.245 145.506 150.869 145.224 150.271C145.054 149.937 144.804 149.435 144.474 148.764C145.992 149.238 147.362 149.482 148.584 149.498C148.925 149.501 149.183 149.454 149.356 149.356C149.507 149.273 149.566 149.156 149.511 149.05C149.455 148.944 149.345 148.851 149.193 148.78C148.592 148.481 147.885 148.004 147.07 147.349C146.224 146.672 145.716 146.14 145.547 145.752C145.513 145.674 145.437 145.604 145.327 145.551C145.18 145.476 144.976 145.441 144.767 145.454C144.556 145.464 144.356 145.516 144.209 145.601C144.021 145.704 143.949 145.851 144.021 145.983C144.279 146.59 145.088 147.383 146.446 148.362C145.48 148.12 144.566 147.827 143.714 147.488C143.28 147.319 142.921 147.315 142.636 147.476C142.441 147.589 142.39 147.744 142.48 147.944L143.493 150.157C142.363 149.77 141.057 149.265 139.575 148.642C139.21 148.487 138.864 148.503 138.534 148.69ZM152.453 142.338C153.004 142.15 153.675 142.1 154.281 142.202C154.839 142.283 155.357 142.462 155.836 142.738C156.459 143.092 156.879 143.536 157.049 144.019C157.254 144.582 157.021 145.03 156.349 145.363C156.222 145.426 156.083 145.481 155.936 145.529C155.385 145.717 154.714 145.767 154.107 145.665C153.544 145.581 153.023 145.401 152.544 145.124C151.923 144.772 151.505 144.33 151.34 143.849C151.142 143.282 151.375 142.834 152.041 142.504C152.167 142.442 152.305 142.386 152.453 142.338ZM155.511 144.421C155.563 144.174 155.434 143.91 155.123 143.628L155.125 143.629C155.01 143.526 154.875 143.429 154.722 143.341C154.526 143.231 154.293 143.141 154.035 143.076C153.696 142.99 153.427 142.98 153.228 143.047C152.928 143.143 152.814 143.336 152.886 143.626C152.931 143.84 153.057 144.047 153.255 144.232C153.37 144.336 153.506 144.432 153.659 144.52C153.854 144.63 154.086 144.72 154.344 144.785C154.681 144.87 154.95 144.88 155.152 144.814C155.353 144.748 155.473 144.617 155.511 144.421ZM150.004 144.323C149.397 144.222 148.727 144.272 148.175 144.46C148.028 144.508 147.889 144.563 147.762 144.626C147.096 144.956 146.863 145.405 147.062 145.971C147.227 146.452 147.644 146.894 148.266 147.246C148.745 147.523 149.266 147.703 149.828 147.788C150.435 147.889 151.106 147.839 151.657 147.651C151.805 147.603 151.943 147.548 152.07 147.485C152.743 147.152 152.976 146.704 152.771 146.141C152.601 145.657 152.18 145.214 151.557 144.86C151.078 144.584 150.56 144.405 150.003 144.324L150.004 144.323ZM150.846 145.749C151.157 146.031 151.286 146.295 151.234 146.542C151.194 146.737 151.073 146.869 150.873 146.936C150.674 147.002 150.404 146.993 150.066 146.906C149.808 146.842 149.576 146.752 149.381 146.642C149.227 146.554 149.092 146.457 148.977 146.354C148.779 146.168 148.654 145.962 148.608 145.747C148.536 145.457 148.65 145.264 148.95 145.168C149.15 145.101 149.419 145.111 149.757 145.197C150.016 145.262 150.248 145.352 150.444 145.463C150.597 145.551 150.732 145.647 150.847 145.75L150.846 145.749Z" fill="#FFF278"/>
<g style="mix-blend-mode:multiply" opacity="0.1">
<path d="M255.053 99.657L211.246 75.3661C209.802 74.5652 207.451 74.5475 205.995 75.3265L180.228 89.1158C178.772 89.8949 178.763 91.1757 180.207 91.9767L224.013 116.268C225.458 117.069 227.809 117.086 229.265 116.307L255.032 102.518C256.488 101.739 256.497 100.458 255.053 99.657Z" fill="#6A6F74"/>
<path d="M209.416 97.3964L206.443 95.7479L219.167 90.965L222.14 92.6134L209.416 97.3964Z" fill="#6A6F74"/>
<path d="M230.791 97.7C230.425 97.2572 229.737 96.6116 228.587 95.9739C225.651 94.346 222.105 93.9913 219.977 95.1161C218.392 95.9376 219.03 97.2357 219.635 98.1381C220.254 99.0604 220.298 99.4629 219.824 99.7165C219.084 100.1 217.831 99.7702 216.975 99.2956C215.788 98.6375 215.325 98.1922 214.764 97.4396L214.546 97.1297L211.691 98.2041C212.088 98.7514 213.106 99.6062 214.428 100.352C217.548 102.082 221.035 102.428 223.313 101.236C224.561 100.58 224.715 99.6327 223.776 98.2685C223.234 97.4259 222.932 96.8935 223.441 96.6213C223.915 96.3806 224.915 96.419 226.089 97.0699C227.079 97.5934 227.569 98.1046 227.887 98.5205L228.041 98.7313L230.791 97.7Z" fill="#6A6F74"/>
<path fill-rule="evenodd" clip-rule="evenodd" d="M236.379 100.509L238.678 101.784L230.213 108.928L227.46 107.402C227.46 107.402 228.439 106.584 228.735 106.333L224.918 104.216C224.519 104.31 222.664 104.742 222.664 104.742L219.545 103.013L233.924 100.13C234.935 99.9221 235.67 100.116 236.379 100.509ZM232.22 102.535C232.22 102.535 228.862 103.305 227.993 103.504L230.464 104.874C230.885 104.515 232.923 102.811 232.923 102.811L233.651 102.195C233.323 102.276 232.865 102.383 232.556 102.455C232.346 102.504 232.206 102.537 232.22 102.535Z" fill="#6A6F74"/>
<path d="M204.427 82.7912L209.21 85.4435C209.835 85.8152 210.165 86.2121 209.642 86.6783L205.69 89.926C205.69 89.9262 205.69 89.9258 205.69 89.926L204.505 90.9072L214.825 88.557L217.968 90.3001L202.443 93.5168L199.299 91.7736L206.089 85.2524C205.68 84.4752 205.043 83.6793 204.158 82.8815L204.427 82.7912Z" fill="#6A6F74"/>
<path d="M310.826 130.584L267.02 106.293C265.576 105.492 263.225 105.474 261.769 106.254L236.001 120.043C234.546 120.822 234.536 122.103 235.981 122.904L279.787 147.195C281.231 147.996 283.583 148.013 285.038 147.234L310.806 133.445C312.261 132.666 312.271 131.385 310.826 130.584Z" fill="#6A6F74"/>
<path fill-rule="evenodd" clip-rule="evenodd" d="M249.828 112.644L252.184 113.95L254 113.556L255.189 114.215L254.434 115.197L259.069 117.767L260.051 117.241L259.477 117.998L261.883 119.333L263.299 119.026L262.301 119.56L273.818 125.946L275.923 124.813L276.146 124.937C276.297 125.027 276.328 125.06 276.069 125.198L274.237 126.179L280.194 129.482L280.685 129.218C280.908 129.623 281.422 130.162 282.405 130.708L284.911 132.097L286.733 131.707L287.922 132.366L287.162 133.345L291.991 136.022L293.212 135.369L292.721 136.428L296.592 138.574L304.665 134.254L300.835 132.13L299.881 132.64L300.299 131.833L296.369 129.653L295.415 130.164L295.876 129.38L290.567 126.436C289.68 125.944 288.774 125.578 287.796 125.413L288.267 125.161L284.605 123.13L284.133 123.382C284.089 122.968 283.656 122.604 283.047 122.266L269.665 114.846L266.681 115.463L267.844 113.836L263.629 111.499L262.676 112.009L263.166 111.242L259.571 109.249L254.064 110.377L249.828 112.644ZM265.861 120.264L264.448 119.481L268.976 117.052L262.443 118.37L261.233 117.699L263.767 114.159L259.229 116.587L256.425 115.032L257.187 114.048L254.316 112.456L252.49 112.851L250.993 112.02L259.25 110.292L261.298 111.427L258.162 115.66L263.643 112.727L265.892 113.975L263.771 117.077L269.354 115.894L271.649 117.167L265.861 120.264ZM257.917 113.144L259.28 111.386L256.036 112.1L257.917 113.144ZM271.485 123.383L266.88 120.83L272.668 117.733L277.273 120.286L276.068 120.931L272.841 119.142L271.798 119.7L274.947 121.447L273.761 122.081L270.611 120.335L269.455 120.954L272.682 122.743L271.485 123.383ZM282.204 124.719C281.282 125.213 280.19 125.127 279.689 125.006C279.876 125.234 279.93 125.486 279.883 125.645C279.791 125.907 279.567 126.063 279.051 126.339L277.913 126.948L276.523 126.177L277.247 125.784C277.595 125.597 278.13 125.348 278.157 125.059C278.159 124.839 277.896 124.645 277.4 124.37L275.92 123.549L273.815 124.676L272.437 123.911L278.225 120.814L281.396 122.572C282.1 122.963 282.601 123.26 282.788 123.646C282.965 124.026 282.849 124.374 282.204 124.719ZM279.601 124.212C279.296 124.169 279.069 124.047 278.801 123.898L277.126 122.969L278.411 122.282L280.108 123.223C280.349 123.356 280.589 123.501 280.658 123.641C280.753 123.786 280.684 123.943 280.436 124.076C280.183 124.211 279.874 124.261 279.601 124.212ZM280.185 128.208L278.779 127.428L284.567 124.331L285.973 125.11L280.185 128.208ZM296.514 137.262L294.56 136.179L296.292 132.406L291.948 134.73L289.14 133.173L289.895 132.185L287.031 130.597L285.218 131L283.605 130.105C282.935 129.734 282.236 129.184 282.247 128.654C282.254 128.122 282.668 127.626 283.72 127.063C284.579 126.603 285.514 126.267 286.727 126.264C287.635 126.264 288.545 126.537 289.495 127.064L290.83 127.804L289.59 128.467L288.284 127.743C287.781 127.464 287.422 127.347 286.88 127.338C286.402 127.339 285.779 127.496 285.173 127.82C284.553 128.152 284.228 128.46 284.192 128.758C284.176 128.998 284.491 129.249 284.855 129.451L285.473 129.794L291.969 128.435L294.035 129.581L290.893 133.805L296.368 130.875L298.467 132.039L296.859 135.539L300.89 133.382L302.303 134.165L296.514 137.262ZM290.627 131.282L291.98 129.518L288.724 130.227L290.627 131.282ZM290.784 144.156C289.957 144.234 289.056 144.005 288.172 143.515L285.511 142.039L286.752 141.375L289.403 142.845C289.666 142.991 289.886 143.074 290.105 143.077C290.205 143.081 290.304 143.072 290.398 143.053C290.491 143.034 290.575 143.004 290.646 142.966C290.721 142.929 290.78 142.882 290.817 142.831C290.854 142.779 290.869 142.723 290.86 142.668C290.848 142.565 290.743 142.462 290.503 142.329C289.252 141.588 287.553 140.738 289.386 139.757C290.225 139.307 291.641 139.129 293.088 139.932L295.834 141.454L296.986 140.838L294.434 139.423C293.664 138.996 292.92 138.785 292.236 138.719L292.709 138.466L288.935 136.374C288.332 136.039 287.473 135.727 286.816 135.713L287.288 135.461L280.55 131.724L280.077 131.977C279.929 131.472 279.108 130.925 278.691 130.693L274.246 128.228L273.773 128.481C273.761 128.025 272.878 127.47 272.303 127.151L267.328 124.393L264.954 124.423L265.124 123.17L257.693 119.05L249.613 123.373L256.905 127.416L259.334 127.394L259.183 128.679L263.674 131.174L265.574 130.156L266.016 130.401C266.603 130.737 267.33 131.114 268.219 131.314L266.039 132.481L269.746 134.537L271.853 133.41L272.031 133.509C272.26 133.635 272.273 133.653 272.044 133.775L270.177 134.774L281.437 141.018C282.152 141.415 283.084 141.731 283.831 141.782L283.313 142.059L286.885 144.04C287.629 144.452 288.46 144.798 289.28 144.961L290.784 144.156ZM271.564 130.112C269.956 130.973 268.427 130.487 267.222 129.819L265.502 128.866L263.56 129.905L260.881 128.419L261.1 126.452L257.419 126.5L251.959 123.472L257.749 120.373L263.293 123.448L263.091 125.404L266.743 125.361L271.148 127.803C272.241 128.41 273.167 129.254 271.564 130.112ZM257.939 125.461L254.55 123.581L255.701 122.965L258.728 124.643L259.91 124.011L256.882 122.332L257.935 121.769L261.392 123.686L261.212 125.425L257.939 125.461ZM262.737 128.844L262.98 126.408L267.379 126.36L262.737 128.844ZM268.442 129.202L266.66 128.214L268.135 127.425L269.933 128.422C270.429 128.697 270.572 128.998 270.066 129.269C269.565 129.537 268.972 129.495 268.442 129.202ZM280.435 132.953L285.036 135.504L283.839 136.145L280.611 134.355L279.558 134.918L282.707 136.664L281.526 137.297L278.377 135.551L277.225 136.167L280.447 137.96L279.246 138.603L274.645 136.052L280.435 132.953ZM275.567 133.631C275.76 133.862 275.808 134.11 275.757 134.265C275.668 134.525 275.432 134.681 274.928 134.958L273.78 135.572L272.396 134.804L273.121 134.416C273.469 134.23 274.017 133.973 274.032 133.687C274.037 133.464 273.78 133.267 273.277 132.988L271.804 132.171L269.688 133.303L268.304 132.535L274.094 129.437L277.276 131.201C277.974 131.588 278.451 131.887 278.662 132.267C278.834 132.65 278.744 132.995 278.085 133.348C277.16 133.843 276.074 133.754 275.567 133.631ZM275.52 132.807C275.226 132.764 274.989 132.642 274.72 132.493L273.045 131.565L274.345 130.869L276.043 131.81C276.288 131.946 276.528 132.085 276.597 132.231C276.681 132.38 276.608 132.535 276.361 132.667C276.113 132.8 275.807 132.848 275.52 132.807ZM287.596 139.905C287.585 140.203 287.377 140.471 286.781 140.79C285.536 141.457 284.179 141.338 282.789 140.567L280.104 139.078L281.345 138.413L284.02 139.896C284.281 140.041 284.501 140.126 284.726 140.132C284.826 140.135 284.925 140.127 285.018 140.107C285.111 140.088 285.196 140.058 285.267 140.02C285.34 139.982 285.398 139.936 285.435 139.885C285.472 139.833 285.488 139.777 285.481 139.722C285.464 139.617 285.359 139.514 285.119 139.381C283.874 138.643 282.176 137.792 284.008 136.812C284.847 136.363 286.257 136.181 287.702 136.982L290.465 138.515L289.233 139.174L286.704 137.772C286.454 137.633 286.282 137.548 286.048 137.521C285.803 137.489 285.608 137.532 285.424 137.63C285.327 137.68 285.262 137.745 285.238 137.817C285.215 137.888 285.235 137.962 285.294 138.028C285.389 138.136 285.53 138.231 285.764 138.361L286.487 138.783C287.217 139.208 287.601 139.562 287.596 139.905ZM294.616 142.109L292.103 140.716C291.853 140.577 291.677 140.489 291.441 140.462C291.202 140.432 291.007 140.475 290.823 140.574C290.724 140.623 290.659 140.688 290.635 140.76C290.612 140.832 290.632 140.906 290.693 140.971C290.788 141.079 290.929 141.174 291.159 141.301L291.886 141.726C292.621 142.154 292.994 142.503 292.984 142.843C292.996 142.897 292.98 142.942 292.968 142.991L294.616 142.109Z" fill="#6A6F74"/>
<path d="M272.997 150.828L229.191 126.537C227.746 125.736 225.395 125.719 223.94 126.498L198.172 140.287C196.716 141.066 196.707 142.347 198.152 143.148L241.958 167.439C243.402 168.24 245.753 168.257 247.209 167.478L272.976 153.689C274.432 152.91 274.442 151.629 272.997 150.828Z" fill="#6A6F74"/>
<path fill-rule="evenodd" clip-rule="evenodd" d="M246.611 159.117L246.975 158.922L246.881 158.87L246.522 158.944L246.664 158.75L246.57 158.698L246.206 158.892L246.273 158.929L246.547 158.783L246.412 158.965L246.481 159.004L246.82 158.933L246.545 159.08L246.611 159.117ZM246.015 158.786L246.317 158.625L246.438 158.692L246.499 158.659L246.192 158.488L246.13 158.521L246.251 158.588L245.95 158.75L246.015 158.786ZM252.039 156.233C246.409 159.246 237.329 159.184 231.757 156.094C226.187 153.005 226.234 148.058 231.864 145.046C237.493 142.033 246.574 142.095 252.145 145.184C257.716 148.274 257.669 153.221 252.039 156.233Z" fill="#6A6F74"/>
<path fill-rule="evenodd" clip-rule="evenodd" d="M239.595 149.333C233.965 152.345 224.884 152.283 219.313 149.194C213.743 146.105 213.789 141.158 219.419 138.145C225.048 135.132 234.129 135.194 239.701 138.284C245.271 141.373 245.224 146.32 239.595 149.333Z" fill="#6A6F74"/>
<path fill-rule="evenodd" clip-rule="evenodd" d="M243.753 142.895C241.593 142.737 239.4 142.849 237.341 143.221C235.281 143.594 233.409 144.218 231.866 145.046C228.608 146.789 227.217 149.18 227.704 151.484C231.925 151.79 236.336 151.075 239.594 149.331C241.141 148.506 242.32 147.497 243.041 146.382C243.761 145.267 244.005 144.074 243.753 142.895Z" fill="#6A6F74"/>
<path d="M199.279 68.7303L155.473 44.4394C154.029 43.6384 151.678 43.6207 150.222 44.3998L124.455 58.1891C122.999 58.9682 122.989 60.249 124.434 61.05L168.24 85.3409C169.684 86.1418 172.036 86.1595 173.491 85.3804L199.259 71.5912C200.714 70.8121 200.724 69.5312 199.279 68.7303Z" fill="#6A6F74"/>
<path d="M153.261 52.514C154.976 51.5966 157.744 51.6175 159.445 52.5606L184.741 66.5874C186.441 67.5305 186.431 69.0387 184.716 69.9561L170.749 77.4309C169.034 78.3482 166.266 78.3274 164.565 77.3843L139.269 63.3574C137.568 62.4143 137.579 60.9061 139.294 59.9888L153.261 52.514Z" fill="#6A6F74"/>
<path fill-rule="evenodd" clip-rule="evenodd" d="M183.189 67.4179L157.893 53.3911C157.042 52.9195 155.658 52.9091 154.801 53.3678L140.833 60.8426C139.976 61.3013 139.971 62.0554 140.821 62.5269L166.117 76.5538C166.968 77.0253 168.352 77.0357 169.209 76.577L183.177 69.1023C184.034 68.6436 184.039 67.8895 183.189 67.4179ZM159.445 52.5606C157.744 51.6175 154.976 51.5966 153.261 52.514L139.294 59.9888C137.579 60.9061 137.568 62.4143 139.269 63.3574L164.565 77.3843C166.266 78.3274 169.034 78.3482 170.749 77.4309L184.716 69.9561C186.431 69.0387 186.441 67.5305 184.741 66.5874L159.445 52.5606Z" fill="#6A6F74"/>
<path d="M172.093 59.574L184.307 66.3466C186.247 67.4227 186.235 69.1435 184.279 70.1902L171.186 77.1966C169.23 78.2434 166.072 78.2196 164.131 77.1435L151.917 70.3708L172.093 59.574Z" fill="#6A6F74"/>
<path fill-rule="evenodd" clip-rule="evenodd" d="M157.86 69.5277L161.136 71.3442L165.726 68.8875L165.763 68.9077C165.376 69.7893 166.242 70.6752 167.388 71.3109C170.21 72.8754 173.797 72.6017 176.296 71.2646C178.339 70.1709 179.125 68.1846 176.504 66.7309C175.011 65.9032 173.092 65.4224 171.252 65.6929L171.216 65.6727L172.741 64.8565L169.719 63.181L157.86 69.5277ZM172.845 69.4223C171.498 70.1431 169.827 70.2238 168.59 69.5379C167.498 68.932 167.511 67.9322 168.745 67.2721C170.01 66.595 171.752 66.5359 172.954 67.2024C174.228 67.9086 173.965 68.8229 172.845 69.4223Z" fill="#6A6F74"/>
<path fill-rule="evenodd" clip-rule="evenodd" d="M165.424 60.7992L162.457 59.1536L160.932 59.9695L160.896 59.9498C161.242 59.0107 160.795 58.0201 159.393 57.2431C156.445 55.6082 153.234 55.8781 150.719 57.224C148.22 58.5616 148.089 60.3968 150.692 61.8403C152.003 62.567 153.548 62.93 155.321 62.8335L155.358 62.8539L154.903 63.0975C153.248 63.9831 151.434 63.8434 149.541 62.7935C148.176 62.0365 147.598 61.4334 147.035 60.644L144.566 61.786C145.089 62.3398 146.089 63.2131 147.654 64.081C151.476 66.2006 154.489 66.651 157.961 64.7933L165.424 60.7992ZM154.154 59.0751C155.305 58.4589 156.9 58.2999 158.119 58.9762C159.593 59.7936 159.159 60.7008 158.218 61.2046C156.919 61.8995 155.114 61.8533 153.95 61.2076C152.967 60.6625 152.84 59.7781 154.154 59.0751Z" fill="#6A6F74"/>
<path d="M217.223 119.901L173.417 95.6102C171.973 94.8093 169.622 94.7916 168.166 95.5707L142.399 109.36C140.943 110.139 140.934 111.42 142.378 112.221L186.184 136.512C187.629 137.313 189.98 137.33 191.436 136.551L217.203 122.762C218.659 121.983 218.668 120.702 217.223 119.901Z" fill="#6A6F74"/>
<path d="M173.144 116.675C173.148 117.087 172.541 117.42 171.785 117.418L171.634 117.421C170.878 117.419 170.261 117.085 170.257 116.673L170.252 114.331C170.257 113.68 170.915 113.242 171.679 113.24L171.83 113.237C172.463 113.234 173.001 113.501 173.078 113.843C173.113 114.004 173.386 114.124 173.688 114.11C173.984 114.093 174.201 113.945 174.173 113.78C174.034 113.128 173.015 112.634 171.82 112.633L171.669 112.636C170.25 112.637 169.165 113.366 169.158 114.315L169.148 116.673C169.172 117.418 170.283 118.019 171.651 118.021L171.81 118.022C173.163 118.017 174.247 117.421 174.246 116.68C174.247 116.515 174.003 116.38 173.693 116.381C173.384 116.375 173.138 116.507 173.144 116.675ZM183.497 109.728L177.079 114.124C176.891 114.248 176.926 114.44 177.17 114.544C177.399 114.648 177.752 114.631 177.941 114.499L184.388 110.088L184.424 110.061C184.88 109.652 185.933 109.495 186.543 109.716C186.881 109.84 187.124 110.03 187.202 110.246C187.279 110.463 187.198 110.686 186.974 110.868L181.902 115.255C181.743 115.395 181.821 115.58 182.079 115.668C182.338 115.756 182.676 115.715 182.836 115.575L187.893 111.205C188.277 110.898 188.417 110.51 188.282 110.137C188.148 109.763 187.733 109.431 187.152 109.218C186.003 108.802 184.273 109.055 183.497 109.728Z" fill="#6A6F74"/>
<path d="M183.014 118.801L193.502 115.087C194.643 114.695 195.038 113.883 194.387 113.223C193.615 112.511 191.968 112.259 190.676 112.661L182.09 115.154C181.823 115.234 181.721 115.414 181.871 115.56C182.021 115.707 182.352 115.764 182.619 115.684L191.212 113.187C191.992 112.95 192.977 113.094 193.428 113.51C193.785 113.881 193.565 114.35 192.901 114.58L182.406 118.298C182.153 118.387 182.08 118.574 182.244 118.713C182.423 118.851 182.769 118.893 183.014 118.801ZM170.205 120.882C167.444 119.351 167.18 116.983 170.079 115.432C170.296 115.316 170.297 115.128 170.082 115.009C169.867 114.889 169.521 114.887 169.304 115.003C165.95 116.798 166.262 119.546 169.424 121.299C169.639 121.419 169.985 121.421 170.202 121.305C170.419 121.189 170.42 121.001 170.205 120.882ZM175.658 116.478C175.384 116.563 175.053 116.592 174.743 116.554L174.607 116.533C173.858 116.449 173.372 116.053 173.519 115.646L174.363 113.35C174.613 112.717 175.407 112.354 176.163 112.434L176.299 112.447C177.206 112.587 177.433 112.989 177.198 113.654L176.486 115.575C176.427 115.739 176.62 115.893 176.915 115.931C177.21 115.968 177.499 115.861 177.565 115.7L178.277 113.78C178.601 112.841 178.195 112.12 176.548 111.868L176.369 111.847C174.966 111.692 173.637 112.294 173.284 113.225L172.432 115.525C172.175 116.256 173.041 116.965 174.379 117.116L174.523 117.133C175.091 117.196 175.682 117.145 176.194 116.996C176.461 116.916 176.549 116.736 176.399 116.59C176.256 116.448 175.925 116.398 175.658 116.478Z" fill="#6A6F74"/>
<path d="M176.932 118.586C175.673 118.385 174.325 118.559 172.974 119.22C172.743 119.328 172.727 119.516 172.928 119.643C173.136 119.766 173.474 119.78 173.705 119.672C174.934 119.077 176.014 118.991 177.013 119.246C177.545 119.383 177.997 119.603 178.334 119.829L178.413 119.888C178.813 120.213 179.716 119.902 179.336 119.566L177.033 117.556C176.025 116.579 176.33 116.181 177.455 115.86C177.946 115.723 178.363 115.742 178.794 115.894C179.074 115.994 179.318 116.137 179.519 116.296C179.576 116.343 179.619 116.375 179.633 116.391L183.088 119.464L183.146 119.528C183.188 119.583 183.209 119.658 183.209 119.744C183.185 120.085 182.742 120.509 181.644 121.003C177.809 122.735 173.976 123.004 170.126 120.83C169.911 120.711 169.565 120.708 169.356 120.82C169.139 120.936 169.137 121.124 169.345 121.24C173.669 123.677 178.128 123.369 182.354 121.459C183.669 120.865 184.278 120.297 184.31 119.772C184.327 119.482 184.184 119.261 184.005 119.13L180.586 116.092C180.564 116.072 180.514 116.021 180.428 115.957C180.149 115.739 179.805 115.541 179.388 115.389C178.649 115.128 177.807 115.079 176.948 115.327C175.325 115.789 174.736 116.534 176.102 117.851L176.932 118.586Z" fill="#6A6F74"/>
<path fill-rule="evenodd" clip-rule="evenodd" d="M118.486 65.1507C117.569 64.6422 116.331 64.3466 115.043 64.3291C113.756 64.3115 112.525 64.5733 111.621 65.0569L87.3969 78.0205C86.4931 78.5041 85.9907 79.1699 86.0001 79.8715C86.0095 80.573 86.53 81.2528 87.4471 81.7613L129.568 105.118C130.485 105.627 131.724 105.922 133.011 105.94C134.299 105.957 135.53 105.695 136.434 105.212L160.658 92.2483C161.562 91.7646 162.064 91.0988 162.055 90.3973C162.045 89.6957 161.525 89.0159 160.608 88.5074L118.486 65.1507Z" fill="#6A6F74"/>
<path d="M126.338 84.1573L126.356 84.1478L127.969 83.8458C128.029 82.8969 127.402 81.9332 126.077 81.1985C124.147 80.1282 121.298 79.8515 118.912 80.3769L117.94 79.8381L115.86 80.1937L117.2 80.9367C117.065 80.9987 116.931 81.0607 116.803 81.1291C116.664 81.2034 116.536 81.281 116.412 81.36L115.766 81.0017L113.79 81.396L115.375 82.2751C114.38 83.5636 114.84 85.1133 116.766 86.1813C117.84 86.7766 119.2 87.1238 120.604 87.2271L122.362 86.2859C120.972 86.3787 119.517 86.1376 118.453 85.5478C117.332 84.9261 116.913 84.0722 117.19 83.2815L120.625 85.186L122.636 84.8112L118.033 82.2586C118.17 82.1578 118.308 82.0565 118.478 81.9656C118.544 81.9306 118.614 81.9018 118.686 81.8729C118.724 81.8572 118.763 81.8414 118.801 81.8246L123.773 84.5814L125.854 84.2263L120.627 81.3278C122.164 81.1266 123.855 81.3507 125.053 82.0151C126.116 82.6048 126.531 83.4016 126.338 84.1573Z" fill="#6A6F74"/>
<path fill-rule="evenodd" clip-rule="evenodd" d="M135.268 94.6426L134.123 95.7574L136.68 97.1749L143.129 90.6532L139.355 88.5602L127.323 91.9863L129.862 93.3945L131.933 92.7932L135.268 94.6426ZM136.592 93.3525L134.328 92.097L139.392 90.6254L136.592 93.3525Z" fill="#6A6F74"/>
<path fill-rule="evenodd" clip-rule="evenodd" d="M125.421 88.2855L127.264 89.3076C127.264 89.3076 128.621 90.2115 129.771 90.4293C130.922 90.6471 131.797 90.4249 132.287 90.2766C132.751 90.1368 134.01 89.519 134.145 89.453L134.156 89.4476C134.613 89.2255 135.616 88.6778 136.059 87.9368C136.522 87.1626 135.117 86.2323 134.518 85.8807L134.483 85.8604C134.346 85.7808 134.257 85.7354 134.257 85.7354L129.805 83.2665L120.539 88.2254L122.991 89.5855L125.421 88.2855ZM132.069 86.6605L130.295 85.6768L127.525 87.1592L129.157 88.0643C129.387 88.1897 130.205 88.6019 130.711 88.4107C131.268 88.2012 131.793 87.9156 131.859 87.8791C132.032 87.7731 132.264 87.6223 132.483 87.4445C132.887 87.1137 132.069 86.6605 132.069 86.6605Z" fill="#6A6F74"/>
<path d="M108.47 81.4709C108.47 81.4709 110.116 82.2989 111.742 81.9024C113.37 81.5055 114.637 80.4871 114.637 80.4871C114.637 80.4871 115.535 79.8263 114.313 78.8239C114.312 78.8226 114.314 78.8215 114.316 78.8204C114.318 78.8192 114.32 78.818 114.318 78.8166C114.256 78.7613 114.066 78.6302 113.815 78.4644L113.812 78.463C113.268 78.1045 112.443 77.5873 111.983 77.3003C111.977 77.2932 111.973 77.2872 111.969 77.2812C111.964 77.2747 111.96 77.2682 111.953 77.2603C110.997 76.7485 111.399 76.5141 111.452 76.4857C111.46 76.4813 111.475 76.4681 111.498 76.4489C111.617 76.3449 111.94 76.0636 112.486 76.0273C113.109 75.9858 114.135 76.6046 114.209 76.6489C114.429 76.7821 114.729 76.9684 114.853 77.0726C115.061 77.2454 115.178 77.4892 114.358 77.8871L116.671 79.1699L117.39 78.7854C117.39 78.7854 118.687 78.1485 118.308 77.4036C118.001 76.8008 117.29 76.3498 117.027 76.1975L117.025 76.1952C117.025 76.1952 115.669 75.4046 114.972 75.0569C114.575 74.8598 114.023 74.6113 113.422 74.4228C113.043 74.2889 112.616 74.1861 112.145 74.1652C112.133 74.1646 112.121 74.1654 112.109 74.1662C112.098 74.167 112.087 74.1677 112.075 74.1674C112.065 74.1669 112.055 74.1653 112.045 74.1636C112.033 74.1617 112.021 74.1597 112.01 74.1596C111.977 74.1588 111.954 74.1629 111.931 74.167C111.917 74.1694 111.903 74.1719 111.887 74.1733C110.287 74.2065 108.787 75.1619 108.086 75.8425C107.527 76.3849 108.165 77.0313 108.509 77.3157L108.511 77.3207C108.536 77.3401 108.581 77.3738 108.626 77.4061C108.634 77.412 108.639 77.4165 108.645 77.4207C108.65 77.4246 108.654 77.4283 108.66 77.4323C108.665 77.436 108.67 77.4396 108.675 77.4431C108.68 77.4467 108.686 77.4503 108.691 77.454C108.693 77.4554 108.703 77.4628 108.703 77.4628C109.216 77.8242 110.475 78.6278 111.036 78.9828L111.031 78.9864C111.031 78.9864 111.046 78.9929 111.067 79.0026C111.179 79.0736 111.256 79.1229 111.289 79.144L111.306 79.1547C111.492 79.3036 111.639 79.5307 111.217 79.7581L111.169 79.7841C110.685 80.0458 110.561 80.113 110.425 80.1248C110.37 80.1162 110.311 80.1139 110.254 80.1217C109.962 80.1606 109.522 79.9705 109.224 79.8194L107.711 78.9806C107.156 78.5763 107.875 78.211 107.875 78.211L108.156 78.0606L105.86 76.7875L105.509 76.9753C105.509 76.9753 103.949 77.7339 104.135 78.4299C104.298 79.0316 104.85 79.4718 105.779 80.0149L105.766 80.0217L106.792 80.5906C106.792 80.5906 107.648 81.1104 108.472 81.47L108.47 81.4709Z" fill="#6A6F74"/>
</g>
<g clip-path="url(#clip1)">
<path d="M230.064 72.1548L186.261 47.8661C184.817 47.0652 182.466 47.0477 181.01 47.8269L155.239 61.6182C153.783 62.3974 153.773 63.6783 155.218 64.4791L199.02 88.7679C200.464 89.5687 202.815 89.5863 204.271 88.8071L230.042 75.0158C231.498 74.2366 231.508 72.9557 230.064 72.1548Z" fill="white"/>
<path d="M184.426 69.8973L181.454 68.2489L194.179 63.4651L197.151 65.1133L184.426 69.8973Z" fill="#1A1F71"/>
<path d="M205.802 70.1994C205.435 69.7567 204.748 69.1111 203.598 68.4735C200.663 66.8457 197.116 66.4912 194.988 67.6161C193.403 68.4378 194.041 69.7359 194.645 70.6383C195.264 71.5606 195.308 71.9631 194.834 72.2167C194.094 72.5998 192.841 72.2705 191.985 71.796C190.798 71.1379 190.335 70.6927 189.774 69.9401L189.556 69.6301L186.701 70.7048C187.098 71.252 188.116 72.1069 189.438 72.8526C192.557 74.5821 196.044 74.9286 198.322 73.7356C199.571 73.0803 199.725 72.1326 198.786 70.7684C198.244 69.9258 197.942 69.3934 198.451 69.1211C198.926 68.8804 199.926 68.9188 201.099 69.5696C202.089 70.093 202.58 70.6043 202.898 71.0201L203.051 71.2309L205.802 70.1994V70.1994V70.1994Z" fill="#1A1F71"/>
<path fill-rule="evenodd" clip-rule="evenodd" d="M211.389 73.0082L213.688 74.2832L205.221 81.4277L202.468 79.9015C202.468 79.9015 203.448 79.084 203.744 78.8326L199.927 76.7163C199.528 76.8096 197.673 77.2426 197.673 77.2426L194.554 75.513L208.934 72.6291C209.945 72.4213 210.68 72.615 211.389 73.0082ZM207.23 75.0345C207.23 75.0345 203.872 75.805 203.003 76.0033L205.473 77.3734C205.894 77.0149 207.932 75.3109 207.932 75.3109L208.661 74.6947C208.332 74.7752 207.874 74.8824 207.565 74.9547C207.356 75.0037 207.215 75.0367 207.23 75.0345Z" fill="#1A1F71"/>
<path fill-rule="evenodd" clip-rule="evenodd" d="M179.44 55.292L184.222 57.944C184.848 58.3158 185.177 58.7126 184.654 59.1789L180.701 62.4269C180.701 62.4272 180.701 62.4274 180.701 62.4276L179.516 63.4082L189.837 61.0573L192.98 62.8003L177.453 66.018L174.31 64.275L181.102 57.7532C180.693 56.976 180.056 56.1801 179.171 55.3824L179.44 55.292Z" fill="#1A1F71"/>
</g>
<g clip-path="url(#clip2)">
<path d="M285.837 103.082L242.035 78.7931C240.591 77.9922 238.24 77.9747 236.784 78.7539L211.013 92.5452C209.557 93.3244 209.547 94.6053 210.991 95.4061L254.794 119.695C256.238 120.496 258.589 120.513 260.045 119.734L285.816 105.943C287.272 105.164 287.282 103.883 285.837 103.082Z" fill="#2557D6"/>
<path fill-rule="evenodd" clip-rule="evenodd" d="M224.841 85.1449L227.197 86.451L229.014 86.0573L230.202 86.7163L229.446 87.6978L234.081 90.2677L235.064 89.7418L234.49 90.4992L236.895 91.8333L238.311 91.5266L237.313 92.0607L248.829 98.4464L250.935 97.3134L251.157 97.437C251.308 97.5265 251.34 97.5596 251.081 97.6983L249.248 98.6788L255.204 101.981L255.696 101.718C255.918 102.123 256.432 102.662 257.415 103.207L259.921 104.597L261.743 104.206L262.932 104.865L262.171 105.844L267 108.522L268.221 107.868L267.73 108.927L271.601 111.073L279.675 106.752L275.846 104.629L274.892 105.139L275.309 104.331L271.38 102.152L270.426 102.663L270.887 101.879L265.579 98.9356C264.691 98.4433 263.785 98.0767 262.808 97.9124L263.279 97.6602L259.616 95.6294L259.145 95.8816C259.101 95.4678 258.668 95.1034 258.059 94.7659L244.678 87.3458L241.694 87.9637L242.858 86.3366L238.643 83.9994L237.689 84.5098L238.18 83.7427L234.585 81.7492L229.077 82.878L224.841 85.1449ZM240.873 92.765L239.46 91.9812L243.989 89.5519L237.455 90.8704L236.245 90.1994L238.78 86.6595L234.242 89.0879L231.438 87.5331L232.2 86.5485L229.33 84.957L227.503 85.3518L226.006 84.5216L234.264 82.7922L236.312 83.9276L233.175 88.1608L238.656 85.2276L240.906 86.4751L238.783 89.5771L244.367 88.3942L246.662 89.6667L240.873 92.7646L240.873 92.765V92.765ZM232.93 85.6448L234.294 83.8868L231.049 84.6011L232.931 85.6445L232.93 85.6448ZM246.496 95.8837L241.892 93.3305L247.681 90.2326L252.285 92.7858L251.08 93.4309L247.853 91.6419L246.81 92.2002L249.959 93.9465L248.773 94.5814L245.624 92.8351L244.467 93.4541L247.693 95.2432L246.496 95.8837V95.8837ZM257.216 97.2183C256.293 97.7121 255.201 97.6267 254.701 97.5057C254.887 97.7342 254.941 97.986 254.895 98.1448C254.802 98.4066 254.579 98.5627 254.062 98.8392L252.924 99.448L251.534 98.6769L252.258 98.2836C252.607 98.097 253.141 97.8474 253.169 97.559C253.17 97.3387 252.908 97.145 252.412 96.8699L250.932 96.0491L248.826 97.1757L247.448 96.4115L253.237 93.3136L256.408 95.0718C257.112 95.4623 257.613 95.76 257.8 96.1455C257.977 96.5259 257.861 96.873 257.216 97.2183V97.2183ZM254.613 96.7122C254.308 96.6687 254.081 96.5465 253.812 96.3975L252.138 95.4691L253.423 94.7813L255.12 95.7224C255.361 95.8558 255.601 96.0003 255.67 96.1407C255.765 96.2851 255.696 96.4424 255.447 96.5753C255.195 96.7104 254.886 96.761 254.613 96.7122V96.7122ZM255.196 100.708L253.79 99.928L259.579 96.83L260.984 97.6095L255.195 100.707L255.196 100.708ZM271.523 109.761L269.57 108.678L271.302 104.904L266.957 107.229L264.15 105.673L264.905 104.685L262.042 103.097L260.229 103.499L258.616 102.605C257.946 102.233 257.247 101.683 257.258 101.154C257.265 100.622 257.679 100.126 258.731 99.5625C259.59 99.1029 260.525 98.7662 261.738 98.7631C262.646 98.7631 263.557 99.036 264.507 99.5627L265.841 100.303L264.601 100.966L263.295 100.242C262.792 99.9633 262.433 99.8462 261.891 99.8375C261.413 99.8379 260.79 99.9953 260.183 100.32C259.564 100.651 259.239 100.959 259.203 101.258C259.187 101.498 259.502 101.749 259.865 101.95L260.484 102.293L266.98 100.934L269.046 102.08L265.903 106.304L271.379 103.374L273.478 104.537L271.869 108.038L275.901 105.881L277.313 106.664L271.524 109.762L271.523 109.761ZM265.637 103.781L266.991 102.017L263.735 102.726L265.637 103.781ZM265.792 116.656C264.965 116.733 264.064 116.505 263.18 116.015L260.519 114.539L261.76 113.875L264.411 115.345C264.674 115.49 264.893 115.574 265.113 115.577C265.212 115.58 265.312 115.572 265.405 115.553C265.499 115.533 265.583 115.504 265.654 115.465C265.729 115.428 265.788 115.382 265.825 115.33C265.862 115.278 265.877 115.223 265.868 115.167C265.856 115.064 265.751 114.962 265.511 114.829C264.261 114.087 262.561 113.237 264.394 112.256C265.234 111.807 266.649 111.629 268.096 112.431L270.842 113.953L271.994 113.337L269.442 111.922C268.673 111.495 267.929 111.284 267.245 111.219L267.718 110.966L263.944 108.873C263.341 108.539 262.483 108.226 261.825 108.213L262.297 107.96L255.56 104.224L255.087 104.477C254.939 103.972 254.118 103.425 253.701 103.193L249.256 100.729L248.784 100.981C248.771 100.526 247.888 99.9701 247.314 99.6515L242.339 96.893L239.965 96.924L240.135 95.671L232.705 91.5506L224.624 95.8749L231.915 99.9177L234.345 99.8955L234.193 101.18L238.683 103.674L240.584 102.657L241.025 102.902C241.612 103.238 242.34 103.615 243.229 103.815L241.049 104.982L244.756 107.037L246.862 105.91L247.04 106.009C247.269 106.136 247.282 106.153 247.054 106.275L245.186 107.275L256.445 113.518C257.16 113.915 258.092 114.231 258.839 114.282L258.321 114.559L261.893 116.539C262.636 116.951 263.467 117.297 264.287 117.461L265.792 116.655L265.792 116.656ZM246.574 102.613C244.966 103.473 243.437 102.988 242.232 102.32L240.512 101.366L238.57 102.406L235.891 100.92L236.111 98.953L232.43 99.001L226.97 95.9733L232.76 92.8743L238.304 95.9484L238.102 97.9047L241.754 97.8611L246.158 100.303C247.252 100.91 248.177 101.754 246.573 102.612L246.574 102.613ZM232.95 97.962L229.561 96.0827L230.713 95.4662L233.739 97.1443L234.921 96.5119L231.894 94.8334L232.946 94.2701L236.403 96.1867L236.223 97.9257L232.95 97.962V97.962ZM237.747 101.345L237.99 98.9084L242.39 98.8601L237.747 101.345ZM243.452 101.702L241.671 100.714L243.145 99.9254L244.943 100.922C245.44 101.198 245.582 101.499 245.076 101.769C244.575 102.038 243.982 101.996 243.452 101.702ZM255.445 105.453L260.045 108.004L258.848 108.645L255.62 106.855L254.568 107.418L257.716 109.164L256.534 109.797L253.386 108.051L252.234 108.667L255.456 110.46L254.255 111.103L249.654 108.552L255.445 105.453V105.453ZM250.577 106.131C250.77 106.362 250.817 106.61 250.766 106.766C250.677 107.025 250.441 107.182 249.937 107.458L248.789 108.072L247.405 107.305L248.13 106.917C248.478 106.731 249.027 106.473 249.041 106.187C249.046 105.964 248.79 105.767 248.286 105.488L246.813 104.671L244.698 105.804L243.313 105.036L249.104 101.937L252.286 103.701C252.984 104.088 253.461 104.387 253.672 104.767C253.843 105.15 253.754 105.495 253.094 105.848C252.17 106.343 251.084 106.254 250.577 106.131V106.131ZM250.53 105.307C250.235 105.264 249.998 105.143 249.73 104.994L248.055 104.065L249.355 103.369L251.053 104.31C251.298 104.446 251.538 104.585 251.607 104.731C251.691 104.88 251.618 105.035 251.371 105.168C251.122 105.301 250.816 105.348 250.53 105.307V105.307ZM262.604 112.405C262.594 112.703 262.385 112.971 261.79 113.29C260.544 113.956 259.187 113.838 257.797 113.067L255.112 111.578L256.354 110.913L259.028 112.396C259.289 112.541 259.509 112.626 259.734 112.632C259.834 112.635 259.934 112.626 260.027 112.607C260.12 112.588 260.204 112.558 260.275 112.52C260.349 112.482 260.406 112.436 260.443 112.384C260.48 112.333 260.496 112.277 260.489 112.222C260.473 112.116 260.367 112.014 260.127 111.881C258.882 111.143 257.184 110.292 259.017 109.312C259.856 108.862 261.266 108.681 262.711 109.482L265.474 111.014L264.242 111.674L261.713 110.272C261.463 110.133 261.291 110.048 261.056 110.021C260.812 109.988 260.616 110.031 260.433 110.13C260.336 110.179 260.271 110.245 260.247 110.316C260.224 110.388 260.243 110.462 260.303 110.528C260.398 110.636 260.539 110.73 260.773 110.86L261.496 111.283C262.225 111.707 262.609 112.062 262.604 112.405V112.405ZM269.624 114.608L267.111 113.215C266.861 113.076 266.685 112.989 266.45 112.961C266.21 112.931 266.015 112.975 265.831 113.073C265.733 113.122 265.667 113.188 265.644 113.26C265.62 113.331 265.64 113.406 265.701 113.471C265.796 113.579 265.937 113.673 266.167 113.801L266.894 114.225C267.629 114.653 268.002 115.002 267.992 115.342C268.004 115.397 267.988 115.442 267.976 115.49L269.624 114.608Z" fill="white"/>
</g>
<g clip-path="url(#clip3)">
<path d="M248.008 123.326L204.206 99.0372C202.761 98.2364 200.41 98.2188 198.954 98.998L173.183 112.789C171.727 113.569 171.718 114.849 173.162 115.65L216.964 139.939C218.409 140.74 220.76 140.757 222.216 139.978L247.987 126.187C249.443 125.408 249.452 124.127 248.008 123.326Z" fill="white"/>
<path fill-rule="evenodd" clip-rule="evenodd" d="M221.619 131.616L221.983 131.422L221.89 131.37L221.531 131.444L221.673 131.25L221.579 131.197L221.215 131.392L221.281 131.429L221.556 131.282L221.42 131.465L221.49 131.504L221.828 131.433L221.553 131.58L221.62 131.617L221.619 131.616ZM221.023 131.286L221.325 131.124L221.446 131.191L221.507 131.159L221.2 130.988L221.139 131.021L221.26 131.088L220.958 131.25L221.023 131.286ZM227.048 128.733C221.418 131.746 212.337 131.684 206.766 128.595C201.196 125.506 201.244 120.559 206.874 117.546C212.504 114.533 221.586 114.594 227.156 117.683C232.727 120.772 232.678 125.72 227.048 128.733Z" fill="#F79F1A"/>
<path fill-rule="evenodd" clip-rule="evenodd" d="M214.605 121.832C208.974 124.846 199.893 124.784 194.323 121.695C188.753 118.606 188.8 113.659 194.431 110.646C200.061 107.633 209.142 107.694 214.713 110.784C220.283 113.872 220.235 118.819 214.605 121.832V121.832Z" fill="#EA001B"/>
<path fill-rule="evenodd" clip-rule="evenodd" d="M218.765 115.394C216.605 115.237 214.412 115.348 212.352 115.721C210.292 116.094 208.42 116.718 206.877 117.546C203.619 119.29 202.227 121.68 202.714 123.984C206.934 124.29 211.346 123.575 214.604 121.831C216.152 121.005 217.331 119.997 218.052 118.881C218.772 117.766 219.016 116.574 218.765 115.394Z" fill="#FF5F01"/>
</g>
<g clip-path="url(#clip4)">
<path d="M174.29 41.2281L130.488 16.9393C129.044 16.1385 126.692 16.1209 125.236 16.9001L99.4655 30.6914C98.0095 31.4706 97.9999 32.7515 99.4442 33.5524L143.246 57.8411C144.691 58.642 147.042 58.6595 148.498 57.8803L174.269 44.089C175.725 43.3098 175.734 42.0289 174.29 41.2281Z" fill="white"/>
<path d="M128.274 25.0143C129.989 24.0968 132.757 24.1175 134.458 25.0605L159.752 39.0861C161.452 40.0291 161.441 41.5373 159.726 42.4548L145.757 49.9307C144.042 50.8482 141.274 50.8276 139.573 49.8846L114.279 35.859C112.579 34.916 112.59 33.4077 114.305 32.4902L128.274 25.0143Z" fill="white"/>
<path fill-rule="evenodd" clip-rule="evenodd" d="M158.199 39.9167L132.906 25.8911C132.055 25.4196 130.671 25.4093 129.814 25.8681L115.844 33.3439C114.987 33.8027 114.981 34.5568 115.832 35.0283L141.125 49.0539C141.976 49.5254 143.36 49.5357 144.217 49.077L158.187 41.6011C159.044 41.1424 159.05 40.3882 158.199 39.9167ZM134.458 25.0605C132.757 24.1175 129.989 24.0968 128.274 25.0143L114.305 32.4902C112.59 33.4077 112.579 34.916 114.279 35.859L139.573 49.8846C141.274 50.8276 144.042 50.8482 145.757 49.9307L159.726 42.4548C161.441 41.5373 161.452 40.0291 159.752 39.0861L134.458 25.0605Z" fill="#0F3365"/>
<path d="M147.105 32.0732L159.333 38.8537C161.265 39.925 161.252 41.6385 159.304 42.6808L146.179 49.7046C144.231 50.747 141.086 50.7235 139.154 49.6522L126.926 42.8717L147.105 32.0732Z" fill="#0F3365"/>
<path fill-rule="evenodd" clip-rule="evenodd" d="M132.869 42.0282L136.145 43.8446L140.736 41.3875L140.773 41.4077C140.386 42.2894 141.251 43.1752 142.398 43.8109C145.219 45.3752 148.806 45.1013 151.305 43.764C153.349 42.6701 154.136 40.6837 151.514 39.2302C150.022 38.4025 148.103 37.9218 146.263 38.1925L146.227 38.1722L147.752 37.3559L144.731 35.6806L132.869 42.0282V42.0282ZM147.855 41.9219C146.508 42.6428 144.837 42.7236 143.6 42.0377C142.508 41.4319 142.521 40.4321 143.755 39.7718C145.02 39.0947 146.763 39.0354 147.965 39.7019C149.238 40.408 148.975 41.3224 147.855 41.9219V41.9219Z" fill="#FFFFFE"/>
<path fill-rule="evenodd" clip-rule="evenodd" d="M140.436 33.2991L137.468 31.6537L135.943 32.4697L135.908 32.4499C136.254 31.5108 135.807 30.5202 134.405 29.7433C131.457 28.1085 128.247 28.3786 125.731 29.7247C123.231 31.0625 123.1 32.8978 125.703 34.3412C127.014 35.0678 128.559 35.4308 130.332 35.334L130.369 35.3545L129.913 35.5981C128.258 36.4839 126.445 36.3443 124.551 35.2945C123.186 34.5375 122.608 33.9345 122.046 33.1451L119.577 34.2872C120.099 34.841 121.099 35.7143 122.664 36.5821C126.486 38.7016 129.499 39.1517 132.971 37.2938L140.436 33.2991V33.2991ZM129.165 31.5757C130.317 30.9593 131.912 30.8003 133.131 31.4765C134.605 32.2938 134.17 33.2011 133.229 33.7049C131.93 34.4 130.125 34.3539 128.961 33.7082C127.978 33.1632 127.852 32.2788 129.165 31.5757V31.5757Z" fill="#D8232A"/>
</g>
<g clip-path="url(#clip5)">
<path d="M192.234 92.399L148.432 68.1102C146.988 67.3094 144.637 67.2918 143.181 68.071L117.41 81.8623C115.954 82.6415 115.944 83.9224 117.388 84.7233L161.191 109.012C162.635 109.813 164.986 109.83 166.442 109.051L192.213 95.2599C193.669 94.4807 193.679 93.1998 192.234 92.399Z" fill="#EF809F"/>
<path d="M148.154 89.1759C148.159 89.5878 147.551 89.9206 146.795 89.9189L146.644 89.9217C145.888 89.92 145.271 89.5859 145.267 89.174L145.263 86.8322C145.268 86.1811 145.926 85.7427 146.69 85.7406L146.841 85.7378C147.474 85.7347 148.012 86.0015 148.089 86.3433C148.124 86.5044 148.397 86.6241 148.699 86.6107C148.994 86.5933 149.212 86.4458 149.184 86.2809C149.045 85.6287 148.026 85.1347 146.831 85.1336L146.68 85.1364C145.261 85.1376 144.176 85.8669 144.169 86.8162L144.158 89.1735C144.182 89.919 145.293 90.5196 146.661 90.522L146.82 90.5231C148.173 90.5176 149.258 89.9216 149.256 89.1802C149.257 89.0155 149.013 88.8803 148.704 88.8819C148.394 88.8757 148.148 89.0072 148.154 89.1759ZM158.51 82.2279L152.09 86.6242C151.902 86.7484 151.937 86.9408 152.181 87.0446C152.41 87.1483 152.763 87.1313 152.952 86.9994L159.4 82.5876L159.436 82.5604C159.893 82.1519 160.945 81.995 161.555 82.2153C161.893 82.3395 162.136 82.5296 162.214 82.7459C162.291 82.9622 162.211 83.1852 161.986 83.3679L156.913 87.7546C156.754 87.8947 156.832 88.0796 157.09 88.1678C157.349 88.256 157.687 88.2154 157.847 88.0754L162.905 83.7042C163.289 83.3972 163.429 83.0099 163.295 82.6363C163.161 82.2626 162.746 81.93 162.164 81.7178C161.015 81.3013 159.285 81.5551 158.51 82.2279Z" fill="white"/>
<path d="M158.024 91.301L168.514 87.5862C169.654 87.1946 170.049 86.3816 169.399 85.7217C168.627 85.0099 166.98 84.7583 165.688 85.1605L157.101 87.6539C156.834 87.7343 156.732 87.914 156.882 88.0603C157.032 88.2065 157.363 88.2639 157.63 88.1835L166.224 85.6862C167.003 85.4489 167.989 85.5935 168.439 86.0087C168.797 86.3801 168.577 86.8492 167.913 87.0796L157.416 90.7983C157.164 90.8866 157.09 91.0743 157.255 91.2128C157.434 91.3515 157.779 91.3933 158.024 91.301ZM145.214 93.3824C142.454 91.8516 142.191 89.4843 145.089 87.933C145.306 87.817 145.308 87.6287 145.093 87.5094C144.877 87.3901 144.532 87.3875 144.315 87.5036C140.961 89.2986 141.271 92.0467 144.434 93.8002C144.649 93.9195 144.994 93.922 145.211 93.806C145.428 93.6899 145.429 93.5016 145.214 93.3824ZM150.669 88.9788C150.395 89.0631 150.063 89.092 149.754 89.0544L149.617 89.0337C148.869 88.9497 148.382 88.5538 148.529 88.147L149.375 85.8507C149.624 85.2171 150.419 84.8544 151.174 84.9345L151.311 84.9473C152.217 85.0874 152.445 85.4892 152.209 86.1543L151.496 88.075C151.438 88.2393 151.631 88.3937 151.926 88.4312C152.221 88.4687 152.51 88.361 152.576 88.2007L153.288 86.2801C153.612 85.3411 153.207 84.6202 151.56 84.3686L151.38 84.3477C149.977 84.1921 148.648 84.7941 148.296 85.725L147.443 88.0251C147.186 88.7567 148.052 89.4653 149.39 89.6165L149.534 89.6333C150.102 89.6963 150.693 89.6458 151.205 89.4967C151.472 89.4163 151.56 89.2365 151.41 89.0903C151.267 88.948 150.936 88.8984 150.669 88.9788Z" fill="white"/>
<path d="M151.942 91.0869C150.683 90.8853 149.336 91.0596 147.984 91.7203C147.753 91.8284 147.737 92.0166 147.938 92.1436C148.146 92.2668 148.484 92.281 148.715 92.1729C149.944 91.578 151.024 91.492 152.023 91.7465C152.555 91.8839 153.007 92.103 153.344 92.3291L153.422 92.3885C153.823 92.7132 154.726 92.4022 154.347 92.0659L152.043 90.0561C151.035 89.0797 151.341 88.6819 152.466 88.3608C152.957 88.2232 153.374 88.242 153.805 88.3943C154.085 88.4944 154.329 88.6375 154.529 88.7959C154.587 88.8434 154.63 88.8751 154.644 88.8909L158.099 91.9645L158.156 92.0277C158.198 92.0829 158.219 92.1576 158.219 92.2439C158.195 92.585 157.752 93.0092 156.654 93.5031C152.818 95.2357 148.986 95.5052 145.135 93.3308C144.92 93.2115 144.575 93.209 144.365 93.3212C144.148 93.4372 144.147 93.6255 144.355 93.7408C148.678 96.1776 153.137 95.8696 157.364 93.9595C158.678 93.3652 159.288 92.7971 159.32 92.2717C159.337 91.9816 159.194 91.7608 159.015 91.6301L155.596 88.592C155.575 88.5722 155.525 88.5209 155.439 88.4575C155.16 88.2397 154.816 88.041 154.399 87.8888C153.66 87.6283 152.818 87.5789 151.959 87.8274C150.335 88.2899 149.747 89.0348 151.112 90.3512L151.942 91.0869Z" fill="white"/>
</g>
<g clip-path="url(#clip6)">
<path fill-rule="evenodd" clip-rule="evenodd" d="M93.5011 37.6506C92.5841 37.1421 91.3457 36.8466 90.0582 36.8291C88.7707 36.8116 87.5396 37.0735 86.6357 37.5572L62.408 50.5227C61.5041 51.0064 61.0015 51.6722 61.0108 52.3738C61.0201 53.0754 61.5404 53.7552 62.4574 54.2636L104.575 77.6182C105.492 78.1267 106.73 78.4221 108.018 78.4397C109.305 78.4572 110.536 78.1953 111.44 77.7116L135.668 64.7461C136.572 64.2624 137.074 63.5965 137.065 62.8949C137.056 62.1934 136.536 61.5136 135.619 61.0051L93.5011 37.6506Z" fill="#10298E"/>
<path d="M101.349 56.6571L101.367 56.6477L102.98 56.3455C103.04 55.3966 102.413 54.4329 101.089 53.6983C99.1586 52.6281 96.3098 52.3515 93.9237 52.8772L92.952 52.3383L90.8713 52.6941L92.2111 53.437C92.0766 53.499 91.942 53.5611 91.8141 53.6295C91.6752 53.7038 91.5472 53.7814 91.4234 53.8604L90.7773 53.5021L88.8011 53.8965L90.3864 54.7756C89.391 56.0642 89.8505 57.6139 91.7764 58.6818C92.8499 59.277 94.2103 59.6242 95.6135 59.7274L97.3725 58.7861C95.982 58.8789 94.5269 58.6379 93.4634 58.0482C92.3423 57.4265 91.9237 56.5726 92.2012 55.7819L95.6355 57.6863L97.6467 57.3113L93.0437 54.7589C93.1811 54.6581 93.3193 54.5568 93.4893 54.4658C93.5547 54.4309 93.6256 54.4021 93.6966 54.3732C93.7354 54.3575 93.7743 54.3416 93.8123 54.3249L98.7834 57.0814L100.865 56.7261L95.6383 53.8279C97.1755 53.6266 98.8662 53.8507 100.064 54.5149C101.128 55.1046 101.542 55.9014 101.349 56.6571Z" fill="#FFBE00"/>
<path fill-rule="evenodd" clip-rule="evenodd" d="M110.277 67.1421L109.132 68.2569L111.688 69.6743L118.139 63.152L114.365 61.0592L102.332 64.4862L104.871 65.8943L106.942 65.2928L110.277 67.1421ZM111.602 65.8518L109.338 64.5964L114.402 63.1245L111.602 65.8518Z" fill="white"/>
<path fill-rule="evenodd" clip-rule="evenodd" d="M100.431 60.7853L102.274 61.8074C102.274 61.8074 103.631 62.7112 104.781 62.9289C105.931 63.1466 106.807 62.9244 107.297 62.776C107.76 62.6362 109.02 62.0183 109.155 61.9523L109.166 61.9469C109.623 61.7248 110.627 61.1769 111.07 60.4359C111.532 59.6616 110.128 58.7314 109.528 58.3799L109.493 58.3595C109.357 58.28 109.268 58.2346 109.268 58.2346L104.816 55.7659L95.5484 60.7255L98.001 62.0855L100.431 60.7853ZM107.08 59.1599L105.306 58.1762L102.536 59.6589L104.168 60.5638C104.397 60.6893 105.215 61.1014 105.722 60.9102C106.278 60.7006 106.803 60.415 106.87 60.3785C107.042 60.2725 107.275 60.1217 107.493 59.9438C107.897 59.613 107.08 59.1599 107.08 59.1599Z" fill="white"/>
<path d="M83.4815 53.9718C83.4815 53.9718 85.1266 54.7996 86.7532 54.4031C88.3807 54.006 89.6482 52.9876 89.6482 52.9876C89.6482 52.9876 90.5467 52.3266 89.3245 51.3242C89.3237 51.323 89.3255 51.3219 89.3273 51.3208C89.3293 51.3196 89.3313 51.3184 89.3295 51.317C89.2679 51.2617 89.0778 51.1306 88.8267 50.9648L88.8242 50.9634C88.2804 50.605 87.4552 50.0878 86.9955 49.8008C86.9891 49.7937 86.985 49.7877 86.9809 49.7817C86.9765 49.7752 86.9721 49.7687 86.9648 49.7608C86.0088 49.2491 86.4112 49.0146 86.4642 48.9862C86.4725 48.9818 86.4876 48.9686 86.5097 48.9494C86.6292 48.8454 86.9522 48.5641 87.4979 48.5277C88.121 48.4862 89.1474 49.1049 89.2208 49.1493C89.4411 49.2825 89.7407 49.4687 89.8656 49.5729C90.0731 49.7457 90.1903 49.9895 89.37 50.3875L91.6832 51.6702L92.4019 51.2856C92.4019 51.2856 93.6992 50.6486 93.32 49.9037C93.0136 49.3009 92.3027 48.8499 92.0398 48.6977L92.0373 48.6954C92.0373 48.6954 90.6811 47.9048 89.9846 47.5571C89.5879 47.3601 89.0357 47.1116 88.4344 46.9231C88.0557 46.7892 87.6289 46.6865 87.158 46.6656C87.1458 46.6651 87.1338 46.6659 87.1217 46.6667C87.1105 46.6674 87.0992 46.6681 87.0876 46.6678C87.0775 46.6673 87.0675 46.6657 87.0574 46.664C87.0457 46.6621 87.034 46.6601 87.0223 46.66C86.9898 46.6592 86.9668 46.6633 86.9436 46.6674C86.9298 46.6699 86.9158 46.6723 86.8998 46.6737C85.2993 46.707 83.7993 47.6626 83.0985 48.3433C82.5387 48.8857 83.1768 49.5321 83.5209 49.8164L83.5221 49.8189L83.5233 49.8214C83.5483 49.8408 83.5925 49.8745 83.6375 49.9068C83.6456 49.9127 83.6513 49.9172 83.6565 49.9214C83.6615 49.9254 83.666 49.929 83.6717 49.9331C83.6767 49.9367 83.6819 49.9403 83.6871 49.9439C83.6923 49.9475 83.6976 49.9511 83.7026 49.9548C83.7051 49.9561 83.7151 49.9635 83.7151 49.9635C84.2279 50.3249 85.4868 51.1285 86.0474 51.4834L86.0424 51.487C86.0424 51.487 86.0574 51.4935 86.0783 51.5032C86.1906 51.5742 86.2679 51.6235 86.301 51.6446L86.3177 51.6553C86.5036 51.8042 86.6502 52.0313 86.2286 52.2588L86.1806 52.2847C85.6962 52.5465 85.5719 52.6137 85.4362 52.6255C85.381 52.6169 85.3223 52.6146 85.2652 52.6224C84.9732 52.6613 84.5329 52.4712 84.2356 52.3201L82.723 51.4814C82.1677 51.0772 82.8863 50.7118 82.8863 50.7118L83.1674 50.5613L80.8718 49.2884L80.5208 49.4762C80.5208 49.4762 78.9602 50.2349 79.147 50.9309C79.3093 51.5326 79.8618 51.9729 80.7898 52.5159L80.7772 52.5227L81.8032 53.0916C81.8032 53.0916 82.6593 53.6112 83.4831 53.9709L83.4815 53.9718Z" fill="white"/>
</g>
</g>
<defs>
<clipPath id="clip0">
<rect width="228" height="212" fill="white"/>
</clipPath>
<clipPath id="clip1">
<path d="M180.119 48.3034C182.067 47.261 185.212 47.2845 187.144 48.3558L229.18 71.6651C231.112 72.7364 231.1 74.4499 229.152 75.4922L205.162 88.3306C203.214 89.373 200.069 89.3495 198.137 88.2782L156.101 64.9688C154.169 63.8975 154.182 62.1841 156.129 61.1417L180.119 48.3034Z" fill="white"/>
</clipPath>
<clipPath id="clip2">
<path d="M235.893 79.2304C237.841 78.188 240.986 78.2115 242.918 79.2828L284.954 102.592C286.886 103.663 286.873 105.377 284.926 106.419L260.935 119.258C258.988 120.3 255.842 120.277 253.91 119.205L211.874 95.8958C209.942 94.8245 209.955 93.1111 211.903 92.0687L235.893 79.2304Z" fill="white"/>
</clipPath>
<clipPath id="clip3">
<path d="M198.064 99.4745C200.012 98.4321 203.157 98.4556 205.089 99.5269L247.125 122.836C249.057 123.908 249.044 125.621 247.096 126.663L223.106 139.502C221.158 140.544 218.013 140.521 216.081 139.449L174.045 116.14C172.113 115.069 172.126 113.355 174.074 112.313L198.064 99.4745Z" fill="white"/>
</clipPath>
<clipPath id="clip4">
<path d="M124.346 17.3766C126.294 16.3342 129.439 16.3577 131.371 17.429L173.407 40.7384C175.339 41.8097 175.326 43.5231 173.378 44.5655L149.388 57.4039C147.44 58.4462 144.295 58.4227 142.363 57.3514L100.327 34.0421C98.3953 32.9708 98.4081 31.2573 100.356 30.215L124.346 17.3766Z" fill="white"/>
</clipPath>
<clipPath id="clip5">
<path d="M142.29 68.5475C144.238 67.5051 147.383 67.5286 149.315 68.5999L191.351 91.9093C193.283 92.9806 193.271 94.694 191.323 95.7364L167.333 108.575C165.385 109.617 162.24 109.594 160.308 108.522L118.272 85.213C116.34 84.1417 116.352 82.4282 118.3 81.3859L142.29 68.5475Z" fill="white"/>
</clipPath>
<clipPath id="clip6">
<path d="M86.517 37.6207C88.4647 36.5784 91.6099 36.6019 93.5419 37.6732L135.578 60.9825C137.51 62.0538 137.497 63.7673 135.549 64.8096L111.559 77.648C109.611 78.6904 106.466 78.6669 104.534 77.5956L62.4981 54.2862C60.5661 53.2149 60.5789 51.5015 62.5267 50.4591L86.517 37.6207Z" fill="white"/>
</clipPath>
</defs>
</svg>
