<svg width="40" height="24" viewBox="0 0 40 24" fill="none" xmlns="http://www.w3.org/2000/svg">
<g clip-path="url(#clip0_1576_35803)">
<path fill-rule="evenodd" clip-rule="evenodd" d="M3.7293 0H36.2367C38.2862 0 39.9553 1.67314 39.9553 3.7275V16.1596C39.9553 18.214 38.2862 19.8871 36.2367 19.8871H24.5734L26.1686 23.8158L19.122 19.8871H3.71875C1.66921 19.8871 0 18.214 0 16.1596V3.7275C0 1.67314 1.66921 0 3.7293 0Z" fill="#7F54B3"/>
<path d="M2.09239 3.42318C2.34597 3.11606 2.71575 2.92545 3.11718 2.91487C3.94121 2.86193 4.41662 3.25373 4.54341 4.09032C5.05053 7.50012 5.59987 10.4017 6.18091 12.7843L9.76236 5.96465C10.0899 5.35046 10.4913 5.02217 10.9879 4.99043C11.7063 4.93749 12.15 5.39282 12.3296 6.36708C12.6676 8.27319 13.1853 10.1475 13.872 11.9583C14.3051 7.80724 15.0235 4.79982 16.0272 2.94665C16.2279 2.52307 16.6399 2.24773 17.1048 2.22657C17.4745 2.19479 17.8443 2.3113 18.1296 2.55485C18.4254 2.7772 18.605 3.12669 18.6261 3.49729C18.6472 3.77262 18.5944 4.04796 18.4676 4.28093C17.8337 5.46696 17.3055 7.4366 16.8935 10.1899C16.492 12.8479 16.3336 14.934 16.4392 16.4271C16.4815 16.7978 16.4075 17.1684 16.249 17.4966C16.0906 17.8355 15.7525 18.0685 15.3827 18.0897C14.9496 18.1214 14.527 17.9202 14.0939 17.4861C12.5726 15.9294 11.3682 13.6103 10.4807 10.5287C9.43485 12.6255 8.64249 14.2033 8.12481 15.2411C7.16344 17.0943 6.33941 18.0367 5.66328 18.0897C5.21954 18.1214 4.83921 17.7508 4.53286 16.9672C3.69823 14.8281 2.80023 10.6876 1.83886 4.54565C1.75433 4.14326 1.84941 3.74088 2.09239 3.42318Z" fill="white"/>
<path d="M26.9509 5.98815C26.4016 5.00331 25.4507 4.30439 24.3415 4.09262C24.0456 4.0291 23.7498 3.99731 23.454 3.99731C21.8904 3.99731 20.6121 4.8127 19.619 6.44348C18.7739 7.8307 18.3302 9.42974 18.3513 11.0499C18.3513 12.3101 18.6154 13.3902 19.1331 14.2903C19.6825 15.2752 20.6333 15.974 21.7425 16.1859C22.0383 16.2494 22.3341 16.2812 22.63 16.2812C24.2041 16.2812 25.4824 15.4658 26.4649 13.835C27.3101 12.4372 27.7538 10.8382 27.7327 9.19676C27.7327 7.93663 27.4686 6.86706 26.9509 5.98815ZM24.8908 10.531C24.669 11.6006 24.2569 12.4054 23.6442 12.956C23.1688 13.3902 22.7251 13.5597 22.3236 13.4855C21.9222 13.4114 21.6052 13.0514 21.3622 12.4266C21.1826 11.95 21.077 11.4523 21.077 10.9334C21.077 10.531 21.1192 10.1287 21.1932 9.73681C21.3517 9.03793 21.6369 8.38137 22.0595 7.78834C22.5983 6.99415 23.1688 6.65529 23.7604 6.78234C24.1619 6.86706 24.4788 7.2165 24.7218 7.84132C24.9014 8.31785 25.007 8.81554 25.007 9.32385C25.007 9.72623 24.9753 10.1287 24.8908 10.531Z" fill="white"/>
<path d="M37.1773 5.98815C36.6282 5.00331 35.6773 4.30439 34.568 4.09262C34.2723 4.0291 33.9766 3.99731 33.6804 3.99731C32.1172 3.99731 30.8386 4.8127 29.8456 6.44348C29.0005 7.8307 28.5567 9.42974 28.5779 11.0499C28.5779 12.3101 28.842 13.3902 29.3596 14.2903C29.909 15.2752 30.86 15.974 31.9689 16.1859C32.2651 16.2494 32.5608 16.2812 32.8565 16.2812C34.4308 16.2812 35.709 15.4658 36.6914 13.835C37.5367 12.4372 37.9803 10.8382 37.9593 9.19676C37.9593 7.93663 37.6952 6.86706 37.1773 5.98815ZM35.1175 10.531C34.8953 11.6006 34.4834 12.4054 33.8706 12.956C33.3954 13.3902 32.9518 13.5597 32.5501 13.4855C32.1488 13.4114 31.8318 13.0514 31.5886 12.4266C31.4091 11.95 31.3036 11.4523 31.3036 10.9334C31.3036 10.531 31.3459 10.1287 31.4198 9.73681C31.5784 9.03793 31.8634 8.38137 32.286 7.78834C32.8249 6.99415 33.3954 6.65529 33.9868 6.78234C34.3885 6.86706 34.7052 7.2165 34.9483 7.84132C35.1278 8.31785 35.2338 8.81554 35.2338 9.32385C35.2338 9.72623 35.2017 10.1287 35.1175 10.531Z" fill="white"/>
</g>
<defs>
<clipPath id="clip0_1576_35803">
<rect width="40" height="23.8421" fill="white"/>
</clipPath>
</defs>
</svg>
