<svg xmlns="http://www.w3.org/2000/svg" width="131" height="38" fill="none"><path fill="#7F54B3" fill-rule="evenodd" d="M15.453 8.062h29.933a3.43 3.43 0 0 1 3.424 3.424v11.42a3.43 3.43 0 0 1-3.424 3.424h-10.74l1.47 3.61-6.49-3.61H15.445a3.43 3.43 0 0 1-3.425-3.424v-11.42c0-1.887 1.537-3.415 3.434-3.424Z" clip-rule="evenodd"/><path fill="#fff" d="M13.877 11.165a1.27 1.27 0 0 1 .944-.467c.759-.049 1.197.311 1.313 1.08.467 3.132.973 5.797 1.508 7.986L20.94 13.5c.301-.564.671-.865 1.128-.895.662-.048 1.07.37 1.236 1.265a28.511 28.511 0 0 0 1.42 5.136c.399-3.813 1.06-6.576 1.985-8.278.184-.39.564-.642.992-.662.34-.029.68.078.943.302.273.204.438.525.458.866a1.3 1.3 0 0 1-.146.72c-.584 1.09-1.07 2.899-1.45 5.428-.37 2.442-.515 4.358-.418 5.73.039.34-.03.68-.175.982a.953.953 0 0 1-.798.545c-.399.029-.788-.156-1.187-.555-1.4-1.43-2.51-3.56-3.327-6.39-.963 1.925-1.692 3.375-2.169 4.328-.885 1.702-1.644 2.568-2.266 2.617-.409.029-.76-.312-1.041-1.031-.769-1.965-1.596-5.769-2.48-11.411-.079-.36.009-.74.232-1.031ZM46.183 13.529a3.51 3.51 0 0 0-2.402-1.742 3.895 3.895 0 0 0-.817-.087c-1.44 0-2.617.749-3.532 2.247a7.933 7.933 0 0 0-1.167 4.232c0 1.157.243 2.15.72 2.976a3.509 3.509 0 0 0 2.403 1.741c.272.059.544.088.817.088 1.45 0 2.626-.749 3.53-2.247a8.008 8.008 0 0 0 1.168-4.26c0-1.149-.243-2.131-.72-2.948Zm-1.897 4.173c-.204.982-.583 1.722-1.147 2.227-.438.4-.847.555-1.216.487-.37-.078-.662-.399-.886-.973a3.862 3.862 0 0 1-.262-1.372c0-.37.039-.739.107-1.099a4.938 4.938 0 0 1 .797-1.79c.497-.73 1.022-1.04 1.567-.924.37.078.661.399.885.973.165.438.263.895.263 1.362 0 .37-.03.74-.108 1.109ZM36.767 13.529a3.51 3.51 0 0 0-2.403-1.742 3.894 3.894 0 0 0-.817-.087c-1.44 0-2.617.749-3.531 2.247a7.932 7.932 0 0 0-1.167 4.232c0 1.157.243 2.15.72 2.976a3.51 3.51 0 0 0 2.402 1.741c.273.059.545.088.817.088 1.46 0 2.627-.749 3.532-2.247a8.106 8.106 0 0 0 1.177-4.26c0-1.159-.244-2.141-.72-2.958h-.01v.01Zm-1.897 4.173c-.204.982-.584 1.731-1.148 2.227-.438.4-.846.555-1.216.487-.37-.078-.661-.399-.885-.973a3.862 3.862 0 0 1-.263-1.372c0-.37.04-.739.107-1.099a5.112 5.112 0 0 1 .798-1.79c.496-.73 1.021-1.04 1.566-.924.37.078.662.399.885.973.166.438.263.895.263 1.362 0 .37-.039.74-.107 1.109Z"/><path fill="#000" d="M51.932 12.167h3.473c1.226 0 2.209.292 2.948.875.74.584 1.109 1.352 1.109 2.306 0 1.002-.38 1.79-1.129 2.354-.749.564-1.79.856-3.122.856h-.487v3.92h-2.81V12.167h.018Zm2.802 1.974v2.432c.632-.01 1.1-.107 1.391-.301.302-.195.448-.496.448-.905 0-.447-.146-.759-.438-.934-.282-.185-.75-.282-1.4-.292ZM68.188 22.478h-2.919l-.476-1.722h-2.967l-.487 1.722h-2.86l3.279-10.311h3.151l3.279 10.311Zm-3.93-3.58c-.419-1.537-.74-2.996-.944-4.377h-.039a41.973 41.973 0 0 1-.934 4.377h1.917ZM66.505 12.167h3.151c.7 1.478 1.207 2.626 1.518 3.424h.039c.311-.827.817-1.965 1.498-3.424h3.22l-3.317 5.642v4.66h-2.84v-4.66l-3.27-5.642ZM76.806 12.167h3.551c.506 2.227.905 4.134 1.197 5.74l.301-1.596c.127-.623.253-1.226.399-1.82l.545-2.315h3.618l1.411 10.312h-2.782l-.75-7.092-1.73 7.092h-1.898l-1.819-7.101-.72 7.1h-2.655l1.332-10.32ZM88.674 12.167h5.681v2.188h-2.87v1.897h2.491v2.14h-2.49v1.878h2.889v2.198h-5.7V12.167ZM95.416 12.167h2.83l3.571 5.943-.098-1.109v-4.834h2.812v10.311h-2.88l-3.492-5.856.078 1.284v4.572h-2.812V12.167h-.01ZM105.27 12.167h6.702v2.354h-1.935v7.957h-2.841v-7.957h-1.916v-2.354h-.01ZM113.12 22.284V19.88c.885.428 1.635.652 2.247.652.351 0 .633-.078.837-.244a.785.785 0 0 0 .302-.642.858.858 0 0 0-.244-.583c-.165-.185-.447-.4-.846-.652-.973-.623-1.673-1.197-2.111-1.722-.438-.535-.652-1.128-.652-1.78 0-.895.341-1.615 1.012-2.18.671-.563 1.547-.845 2.617-.845.788 0 1.576.146 2.354.428v2.305c-.837-.38-1.508-.574-2.033-.574-.35 0-.623.068-.817.214a.677.677 0 0 0-.302.584c0 .428.467.914 1.401 1.459.554.321 1.119.769 1.693 1.352.573.584.856 1.245.856 2.014 0 .895-.37 1.624-1.119 2.208-.749.584-1.693.875-2.841.875a6.675 6.675 0 0 1-2.354-.466Z"/></svg>
