<svg xmlns="http://www.w3.org/2000/svg" width="2730" height="557" fill="none"><path fill="#000" d="M1014.35 104.328h88.26c31.15 0 56.12 7.417 74.91 22.25s28.18 34.364 28.18 58.592c0 25.463-9.64 45.488-28.67 59.827-19.04 14.339-45.49 21.756-79.36 21.756h-12.36v99.63h-71.45V104.328h.49Zm71.2 50.186v61.805c16.07-.247 27.94-2.719 35.36-7.663 7.66-4.945 11.37-12.609 11.37-22.992 0-11.372-3.71-19.283-11.13-23.733-7.17-4.698-19.03-7.17-35.6-7.417ZM1427.46 366.383h-74.17l-12.11-43.758h-75.4l-12.36 43.758h-72.69l83.32-262.055h80.1l83.31 262.055Zm-99.88-90.977c-10.63-39.062-18.79-76.145-23.98-111.25h-.99c-5.68 36.341-13.59 73.425-23.73 111.25h48.7ZM1384.69 104.328h80.1c17.8 37.578 30.66 66.75 38.57 87.022h.99c7.91-21.014 20.76-49.939 38.07-87.022h81.83l-84.3 143.389v118.419h-72.19V247.717l-83.07-143.389ZM1646.5 104.328h90.24c12.85 56.614 22.99 105.069 30.4 145.861l7.67-40.544c3.21-15.823 6.43-31.151 10.13-46.231l13.85-58.839h91.97l35.84 262.056h-70.7l-19.04-180.225-44 180.225h-48.21l-46.23-180.473-18.3 180.473h-67.49l33.87-262.303ZM1948.11 104.328h144.38v55.625h-72.93v48.208h63.29v54.389h-63.29v47.714h73.42v55.872h-144.87V104.328ZM2119.44 104.328h71.94l90.73 151.053-2.47-28.184V104.328h71.44v262.055h-73.17l-88.76-148.827 1.98 32.633v116.194h-71.45V104.328h-.24ZM2369.87 104.328h170.34v59.828h-49.2v202.227h-72.19V164.156h-48.7v-59.828h-.25ZM2569.38 361.439v-61.064c22.5 10.878 41.53 16.564 57.11 16.564 8.9 0 16.07-1.978 21.26-6.181 5.19-4.202 7.66-9.641 7.66-16.316 0-5.192-1.97-10.137-6.18-14.834-4.2-4.697-11.37-10.136-21.5-16.564-24.73-15.822-42.53-30.408-53.65-43.758-11.13-13.597-16.57-28.678-16.57-45.242 0-22.744 8.66-41.038 25.72-55.377 17.05-14.339 39.3-21.509 66.5-21.509 20.02 0 40.05 3.709 59.83 10.878v58.592c-21.27-9.642-38.32-14.586-51.67-14.586-8.9 0-15.83 1.73-20.77 5.439-5.19 3.708-7.66 8.653-7.66 14.833 0 10.878 11.86 23.239 35.6 37.083 14.09 8.159 28.43 19.531 43.01 34.364 14.59 14.833 21.76 31.645 21.76 51.175 0 22.745-9.4 41.286-28.43 56.12-19.04 14.833-43.02 22.25-72.19 22.25-20.27-.248-40.05-4.203-59.83-11.867Z"/><path fill="#7F54B3" fill-rule="evenodd" d="M87.27 0h760.702c47.961 0 87.022 39.061 87.022 87.022v290.239c0 47.961-39.061 87.022-87.022 87.022H575.039l37.33 91.72-164.897-91.72H87.022C39.062 464.283 0 425.222 0 377.261V87.022C0 39.062 39.061 0 87.27 0Z" clip-rule="evenodd"/><path fill="#fff" d="M47.22 78.864c5.933-7.17 14.586-11.62 23.98-11.867 19.283-1.236 30.408 7.911 33.375 27.442 11.867 79.605 24.722 147.344 38.319 202.969l83.809-159.211c7.664-14.339 17.058-22.003 28.678-22.744 16.811-1.236 27.194 9.394 31.397 32.139 7.911 44.5 20.025 88.258 36.094 130.533 10.136-96.911 26.947-167.122 50.434-210.386 4.697-9.89 14.338-16.317 25.216-16.811a32.678 32.678 0 0 1 23.981 7.664c6.922 5.191 11.125 13.35 11.619 22.002.495 6.428-.742 12.856-3.708 18.295-14.834 27.689-27.195 73.672-36.836 137.95-9.395 62.053-13.103 110.755-10.631 145.614.989 8.652-.742 17.305-4.45 24.969-3.708 7.911-11.619 13.35-20.272 13.845-10.136.741-20.025-3.956-30.161-14.092-35.6-36.342-63.783-90.483-84.55-162.425-24.475 48.95-43.017 85.786-55.131 110.014-22.497 43.264-41.78 65.266-57.602 66.503-10.384.741-19.284-7.912-26.453-26.206-19.53-49.939-40.545-146.603-63.042-289.992-1.978-9.394.247-18.788 5.933-26.205ZM628.936 138.939c-12.856-22.992-35.106-39.309-61.064-44.253-6.923-1.483-13.845-2.225-20.767-2.225-36.589 0-66.503 19.036-89.742 57.108-19.778 32.386-30.161 69.717-29.666 107.542 0 29.419 6.18 54.636 18.294 75.65 12.856 22.992 35.106 39.308 61.064 44.253 6.922 1.483 13.844 2.225 20.767 2.225 36.836 0 66.75-19.036 89.741-57.109 19.778-32.633 30.161-69.963 29.667-108.283 0-29.419-6.181-54.389-18.294-74.908Zm-48.209 106.058c-5.191 24.97-14.833 43.758-29.172 56.614-11.125 10.136-21.508 14.092-30.903 12.361-9.394-1.73-16.811-10.136-22.497-24.722-4.203-11.125-6.675-22.745-6.675-34.859 0-9.394.989-18.788 2.719-27.936 3.709-16.316 10.384-31.644 20.273-45.489 12.608-18.541 25.958-26.452 39.802-23.486 9.395 1.978 16.811 10.136 22.498 24.723 4.202 11.125 6.675 22.744 6.675 34.611 0 9.394-.742 18.789-2.72 28.183ZM868.245 138.939c-12.856-22.992-35.106-39.309-61.064-44.253-6.923-1.483-13.845-2.225-20.767-2.225-36.589 0-66.503 19.036-89.742 57.108-19.777 32.386-30.161 69.717-29.666 107.542 0 29.419 6.18 54.636 18.294 75.65 12.856 22.992 35.106 39.308 61.064 44.253 6.922 1.483 13.844 2.225 20.767 2.225 36.836 0 66.75-19.036 89.741-57.109 19.778-32.633 30.161-69.963 29.667-108.283 0-29.419-6.18-54.389-18.294-74.908Zm-48.209 106.058c-5.191 24.97-14.833 43.758-29.172 56.614-11.125 10.136-21.508 14.092-30.903 12.361-9.394-1.73-16.811-10.136-22.497-24.722-4.203-11.125-6.675-22.745-6.675-34.859 0-9.394.989-18.788 2.719-27.936 3.709-16.316 10.384-31.644 20.273-45.489 12.608-18.541 25.958-26.452 39.802-23.486 9.395 1.978 16.812 10.136 22.498 24.723 4.202 11.125 6.675 22.744 6.675 34.611 0 9.394-.742 18.789-2.72 28.183Z"/></svg>
