<svg width="62" height="22" viewBox="0 0 62 22" fill="none" xmlns="http://www.w3.org/2000/svg">
    <path
        d="M41.7108 4.7031C42.8812 4.7031 43.8194 4.9817 44.5253 5.539C45.2312 6.0964 45.5842 6.8302 45.5842 7.7405C45.5842 8.6972 45.2219 9.4496 44.5067 9.9883C43.7915 10.5271 42.7976 10.8057 41.525 10.8057H41.0606V14.5491H38.3762V4.7031H41.7108ZM41.0699 6.5887V8.9108C41.6737 8.9016 42.1195 8.8087 42.3982 8.6229C42.6861 8.4371 42.8255 8.1492 42.8255 7.759C42.8255 7.3318 42.6861 7.0345 42.4075 6.8673C42.1381 6.6908 41.6922 6.598 41.0699 6.5887Z"
        fill="black" />
    <path
        d="M53.9162 14.5398H51.1296L50.6744 12.8957H47.8414L47.3769 14.5398H44.646L47.7763 4.6938H50.7859L53.9162 14.5398ZM50.1635 11.1308C49.7641 9.6632 49.4576 8.2699 49.2625 6.9509H49.2254C49.0117 8.3164 48.7145 9.7097 48.3337 11.1308H50.1635Z"
        fill="black" />
    <path
        d="M52.3092 4.7031H55.3187C55.9875 6.1149 56.4705 7.211 56.7678 7.9727H56.8049C57.1022 7.1832 57.5852 6.0964 58.2354 4.7031H61.31L58.1425 10.0905V14.5398H55.4302V10.0905L52.3092 4.7031Z"
        fill="black" />
    <path fillRule="evenodd" clipRule="evenodd"
        d="M3.5621 0.783203H32.1435C33.9455 0.783203 35.4131 2.2508 35.4131 4.0529V14.9578C35.4131 16.7598 33.9455 18.2274 32.1435 18.2274H21.8887L23.2913 21.6735L17.0958 18.2274H3.5529C1.7508 18.2274 0.283203 16.7598 0.283203 14.9578V4.0529C0.283203 2.2508 1.7508 0.783203 3.5621 0.783203Z"
        fill="#7F54B3" />
    <path
        d="M2.0574 3.74629C2.2803 3.47699 2.6054 3.30979 2.9584 3.30049C3.6829 3.25399 4.1009 3.59769 4.2124 4.33149C4.6582 7.32249 5.1412 9.8676 5.6521 11.9575L8.801 5.9756C9.0889 5.4369 9.4419 5.1489 9.8785 5.1211C10.5101 5.0746 10.9002 5.47399 11.0581 6.32859C11.3554 8.00049 11.8105 9.6446 12.4143 11.233C12.7951 7.59179 13.4267 4.9539 14.3092 3.3283C14.4857 2.9568 14.8479 2.7153 15.2566 2.6967C15.5817 2.6688 15.9068 2.771 16.1576 2.9847C16.4177 3.1797 16.5756 3.4862 16.5942 3.8113C16.6128 4.0529 16.5663 4.2944 16.4549 4.4987C15.8975 5.539 15.4331 7.2667 15.0708 9.6818C14.7179 12.0133 14.5785 13.8431 14.6714 15.1528C14.7086 15.4779 14.6436 15.803 14.5042 16.091C14.3649 16.3882 14.0677 16.5926 13.7426 16.6112C13.3617 16.639 12.9902 16.4625 12.6093 16.0817C11.2718 14.7163 10.2129 12.682 9.4326 9.97899C8.513 11.8182 7.8164 13.2022 7.3612 14.1125C6.516 15.738 5.7914 16.5647 5.197 16.6112C4.8068 16.639 4.4724 16.3139 4.2031 15.6266C3.4693 13.7502 2.6797 10.1184 1.8344 4.73089C1.7601 4.37799 1.8437 4.02499 2.0574 3.74629Z"
        fill="white" />
    <path
        d="M23.9138 6.0035C23.4308 5.1396 22.5948 4.5266 21.6195 4.3408C21.3594 4.2851 21.0993 4.2572 20.8392 4.2572C19.4645 4.2572 18.3405 4.9724 17.4674 6.4029C16.7243 7.6197 16.3342 9.0223 16.3528 10.4435C16.3528 11.5488 16.585 12.4963 17.0401 13.2858C17.5231 14.1497 18.3591 14.7627 19.3344 14.9485C19.5945 15.0042 19.8546 15.0321 20.1147 15.0321C21.4987 15.0321 22.6226 14.3169 23.4865 12.8864C24.2296 11.6603 24.6197 10.2577 24.6011 8.818C24.6011 7.7126 24.3689 6.7744 23.9138 6.0035ZM22.1025 9.9883C21.9074 10.9265 21.5451 11.6324 21.0064 12.1154C20.5884 12.4963 20.1983 12.6449 19.8453 12.5799C19.4923 12.5149 19.2137 12.199 19 11.651C18.8421 11.233 18.7492 10.7964 18.7492 10.3413C18.7492 9.9883 18.7864 9.6354 18.8514 9.2917C18.9908 8.6786 19.2415 8.1027 19.6131 7.5826C20.0868 6.8859 20.5884 6.5887 21.1086 6.7001C21.4615 6.7744 21.7402 7.081 21.9538 7.629C22.1118 8.047 22.2046 8.4836 22.2046 8.9294C22.2046 9.2824 22.1768 9.6354 22.1025 9.9883Z"
        fill="white" />
    <path
        d="M32.9051 6.0035C32.4221 5.1396 31.5861 4.5266 30.6108 4.3408C30.3507 4.2851 30.0907 4.2572 29.8306 4.2572C28.4559 4.2572 27.3319 4.9724 26.4588 6.4029C25.7157 7.6197 25.3256 9.0223 25.3441 10.4435C25.3441 11.5488 25.5764 12.4963 26.0315 13.2858C26.5145 14.1497 27.3505 14.7627 28.3258 14.9485C28.5859 15.0042 28.846 15.0321 29.1061 15.0321C30.4901 15.0321 31.614 14.3169 32.4779 12.8864C33.221 11.6603 33.6111 10.2577 33.5925 8.818C33.5925 7.7126 33.3603 6.7744 32.9051 6.0035ZM31.0938 9.9883C30.8988 10.9265 30.5365 11.6324 29.9978 12.1154C29.5798 12.4963 29.1897 12.6449 28.8367 12.5799C28.4837 12.5149 28.2051 12.199 27.9914 11.651C27.8335 11.233 27.7406 10.7964 27.7406 10.3413C27.7406 9.9883 27.7778 9.6354 27.8428 9.2917C27.9821 8.6786 28.2329 8.1027 28.6045 7.5826C29.0782 6.8859 29.5798 6.5887 30.1 6.7001C30.4529 6.7744 30.7316 7.081 30.9452 7.629C31.1031 8.047 31.196 8.4836 31.196 8.9294C31.196 9.2824 31.1682 9.6354 31.0938 9.9883Z"
        fill="white" />
</svg>