<svg xmlns="http://www.w3.org/2000/svg" width="68" height="24" viewBox="0 0 68 24" fill="none"><path fill="#7F54B3" fill-rule="evenodd" d="M36.2.32H3.7A3.64 3.64 0 0 0 0 3.9v11.95a3.65 3.65 0 0 0 3.72 3.59h15.39l7.03 3.77-1.6-3.77H36.2c2.06 0 3.72-1.6 3.72-3.59V3.9A3.65 3.65 0 0 0 36.2.32ZM3.01 3.09c-.46.03-.8.19-1.03.48-.23.29-.3.65-.26 1.06.96 5.9 1.86 9.87 2.7 11.93.32.75.7 1.12 1.14 1.08.68-.04 1.5-.96 2.46-2.73.5-1 1.29-2.52 2.35-4.53.88 2.97 2.09 5.2 3.6 6.7.43.42.87.61 1.3.58.37-.03.66-.22.86-.57.16-.3.23-.64.2-1.03-.1-1.43.04-3.43.45-6 .43-2.63.95-4.54 1.59-5.67.13-.23.17-.47.16-.75-.03-.36-.2-.66-.5-.9A1.45 1.45 0 0 0 17 2.43c-.47.03-.83.25-1.07.69-1.01 1.77-1.73 4.65-2.16 8.64a28.53 28.53 0 0 1-1.55-5.37c-.18-.93-.62-1.37-1.34-1.32-.48.03-.9.34-1.22.94L6.1 12.57a87.18 87.18 0 0 1-1.65-8.35c-.12-.82-.59-1.2-1.42-1.13Zm31.44 1.13c1.16.23 2.03.83 2.62 1.82.52.85.78 1.87.78 3.1a8.2 8.2 0 0 1-1.27 4.45c-.98 1.57-2.26 2.36-3.84 2.36-.28 0-.57-.04-.88-.1a3.75 3.75 0 0 1-2.61-1.82 5.91 5.91 0 0 1-.78-3.11c0-1.62.42-3.1 1.27-4.44 1-1.57 2.27-2.36 3.83-2.36.28 0 .57.04.88.1Zm-.68 8.5a4.11 4.11 0 0 0 1.24-2.32c.06-.36.11-.76.11-1.17 0-.45-.1-.94-.29-1.43-.24-.61-.57-.94-.96-1.02-.59-.1-1.16.2-1.7.98a5 5 0 0 0-.98 3.01c0 .46.1.95.3 1.43.24.62.57.95.96 1.03.4.07.85-.1 1.32-.5Zm-6.94-6.68a3.79 3.79 0 0 0-2.6-1.82c-.32-.06-.61-.1-.89-.1-1.57 0-2.84.79-3.83 2.36a8.1 8.1 0 0 0-1.28 4.44c0 1.2.26 2.24.79 3.1a3.75 3.75 0 0 0 2.6 1.83c.32.06.61.1.89.1 1.58 0 2.85-.79 3.83-2.36a8.2 8.2 0 0 0 1.28-4.45c0-1.23-.26-2.25-.79-3.1ZM24.8 10.4a4.11 4.11 0 0 1-1.24 2.32c-.48.41-.92.58-1.32.5-.4-.07-.72-.4-.97-1.02-.2-.48-.3-.97-.3-1.43a5 5 0 0 1 .98-3.02c.55-.76 1.12-1.08 1.7-.97.4.08.72.41.97 1.02.2.49.3.98.3 1.43 0 .41-.04.8-.12 1.17Z" clip-rule="evenodd"/><path fill="#1E1E1E" d="M43.2 3.59h3.45c1.22 0 2.2.34 2.94 1.03.73.69 1.1 1.6 1.1 2.72 0 1.19-.37 2.12-1.12 2.8-.75.66-1.78 1-3.1 1h-.48v4.64h-2.8V3.59Zm2.79 2.34V8.8c.62-.01 1.09-.13 1.38-.35.3-.23.45-.58.45-1.07 0-.52-.14-.9-.43-1.1-.29-.23-.76-.34-1.4-.35ZM59.77 15.78h-2.91l-.47-2.04h-2.95l-.5 2.04H50.1l3.26-12.19h3.14l3.27 12.19Zm-3.92-4.23a52.96 52.96 0 0 1-.94-5.18h-.03a57.12 57.12 0 0 1-.94 5.18h1.91ZM58.52 3.59h3.14c.7 1.75 1.2 3.1 1.51 4.05h.04c.31-.97.81-2.32 1.5-4.05h3.2l-3.3 6.67v5.52h-2.83v-5.52L58.52 3.6Z"/></svg>
