<svg fill="none" height="24" viewBox="3 3 20 20" width="24" xmlns="http://www.w3.org/2000/svg"><path clip-rule="evenodd" d="m5 4.5h11c.1326 0 .2598.05268.3536.14645.0937.09376.1464.22094.1464.35355v11c0 .1326-.0527.2598-.1464.3536-.0938.0937-.221.1464-.3536.1464h-11c-.13261 0-.25979-.0527-.35355-.1464-.09377-.0938-.14645-.221-.14645-.3536v-11c0-.13261.05268-.25979.14645-.35355.09376-.09377.22094-.14645.35355-.14645zm-2 .5c0-.53043.21071-1.03914.58579-1.41421.37507-.37508.88378-.58579 1.41421-.58579h11c.5304 0 1.0391.21071 1.4142.58579.3751.37507.5858.88378.5858 1.41421v11c0 .5304-.2107 1.0391-.5858 1.4142s-.8838.5858-1.4142.5858h-11c-.53043 0-1.03914-.2107-1.41421-.5858-.37508-.3751-.58579-.8838-.58579-1.4142zm17 3v10.75c0 .69-.56 1.25-1.25 1.25h-12.75v1.5h12.75c.7293 0 1.4288-.2897 1.9445-.8055.5158-.5157.8055-1.2152.8055-1.9445v-10.75z" fill="#101517" fill-rule="evenodd"/></svg>
