<svg xmlns="http://www.w3.org/2000/svg" width="16" height="16" viewBox="0 0 16 16" fill="none"><mask id="a" width="10" height="14" x="3" y="1" maskUnits="userSpaceOnUse" style="mask-type:alpha"><path fill="#fff" fill-rule="evenodd" d="M8 1.3333C5.4267 1.3333 3.3333 3.4267 3.3333 6c0 1.5866.7934 2.98 2 3.8267v1.5066c0 .3667.3.6667.6667.6667h4c.3667 0 .6667-.3.6667-.6667V9.8267c1.2066-.8467 2-2.24 2-3.8267 0-2.5734-2.0934-4.6667-4.6667-4.6667ZM6 14c0 .3666.3.6666.6667.6666h2.6666c.3667 0 .6667-.3.6667-.6666v-.6667H6V14Zm3.3333-4.8667.5667-.4c.9-.6266 1.4333-1.6467 1.4333-2.7333C11.3333 4.16 9.84 2.6667 8 2.6667 6.16 2.6667 4.6667 4.16 4.6667 6c0 1.0866.5333 2.1067 1.4333 2.7333l.5667.4v1.5333h2.6666V9.1333Z" clip-rule="evenodd"/></mask><g mask="url(#a)"><path fill="#646970" d="M0 0h16v16H0z"/></g></svg>
