<svg width="24" height="24" viewBox="0 0 24 24" fill="none" xmlns="http://www.w3.org/2000/svg">
<path id="Vector" d="M6.1 19.049C4.39487 18.5605 3.07549 17.6492 2.14185 16.3149C1.2082 14.9806 0.741379 13.5423 0.741379 12C0.741379 10.4577 1.2082 9.01943 2.14185 7.68513C3.07549 6.35085 4.39487 5.43947 6.1 4.951V6.41058C4.93014 6.81058 3.97774 7.52179 3.2428 8.54423C2.50785 9.56666 2.14038 10.7186 2.14038 12C2.14038 13.2814 2.50785 14.4333 3.2428 15.4558C3.97774 16.4782 4.93014 17.1894 6.1 17.5894V19.049ZM13.9991 19.3182C11.9709 19.3182 10.2441 18.6056 8.81878 17.1803C7.39346 15.755 6.6808 14.0282 6.6808 12C6.6808 9.9718 7.39346 8.24504 8.81878 6.81973C10.2441 5.39443 11.9709 4.68178 13.9991 4.68178C14.9407 4.68178 15.842 4.85005 16.7029 5.18658C17.5638 5.52311 18.3275 6.00419 18.9942 6.62983L18.001 7.62308C17.4708 7.13398 16.8651 6.75465 16.1837 6.4851C15.5023 6.21555 14.7741 6.08078 13.9991 6.08078C12.3542 6.08078 10.9564 6.65609 9.80578 7.80673C8.65513 8.95738 8.0798 10.3551 8.0798 12C8.0798 13.6449 8.65513 15.0426 9.80578 16.1933C10.9564 17.3439 12.3542 17.9192 13.9991 17.9192C14.7741 17.9192 15.5023 17.7845 16.1837 17.5149C16.8651 17.2454 17.4708 16.866 18.001 16.3769L18.9942 17.3702C18.3275 17.9958 17.5638 18.4769 16.7029 18.8134C15.842 19.15 14.9407 19.3182 13.9991 19.3182ZM19.7058 15.5529L18.7125 14.5596L20.5827 12.6894H13.0769V11.3106H20.5827L18.7125 9.44038L19.7058 8.44715L23.2586 12L19.7058 15.5529Z" fill="#0A4B78"/>
</svg>
