<svg fill="none" height="40" viewBox="0 0 39 25" width="64" xmlns="http://www.w3.org/2000/svg" xmlns:xlink="http://www.w3.org/1999/xlink"><linearGradient id="a" gradientUnits="userSpaceOnUse" x1="11.0155" x2="3.21751" y1="-2.81556" y2="23.5991"><stop offset="0" stop-color="#222e72"/><stop offset=".591647" stop-color="#40cbff"/><stop offset="1" stop-color="#3cb792"/></linearGradient><rect fill="url(#a)" height="23" rx="1.5" width="37.4" x="1.09985" y=".723633"/><rect height="23" rx="1.5" stroke="#ddd" width="37.4" x="1.09985" y=".723633"/><path clip-rule="evenodd" d="m13.307 11.7158h6.7313c-.06-1.455-.399-2.95511-1.4272-3.91866-1.2248-1.14777-3.3701-1.57351-5.287-1.57351-1.9952 0-4.2017.46697-5.43296 1.69846-1.06175 1.06082-1.29129 2.76761-1.29129 4.30121 0 1.6064.44907 3.4749 1.60087 4.5511 1.22478 1.1452 3.20938 1.4492 5.12338 1.4492 1.8592 0 3.8733-.3433 5.091-1.4305 1.2142-1.0859 1.6338-2.9151 1.6338-4.5698v-.0077h-6.7419zm7.1827.5v5.7395h9.3639v-.0077c1.3702-.0747 2.4602-1.3101 2.4602-2.8269 0-1.5175-1.09-2.8321-2.4602-2.9074v.0025zm9.2574-5.75192c1.3354 0 2.3954 1.15871 2.3954 2.62079 0 1.38413-.9735 2.51453-2.2118 2.63113h-9.441v-5.26029h8.9619c.0552-.00675.1194-.002.1823.00263.0391.00289.0777.00574.1132.00574z" fill="#fefefe" fill-rule="evenodd"/></svg>