<svg fill="none" height="40" viewBox="0 0 64 40" width="64" xmlns="http://www.w3.org/2000/svg"><path d="m0 4c0-2.20914 1.79086-4 4-4h56c2.2091 0 4 1.79086 4 4v32c0 2.2091-1.7909 4-4 4h-56c-2.20914 0-4-1.7909-4-4z" fill="#fff"/><path d="m12 11c0-2.20914 1.7909-4 4-4h32.8571c2.2092 0 4 1.79086 4 4v18c0 2.2091-1.7908 4-4 4h-32.8571c-2.2091 0-4-1.7909-4-4z" fill="#fff"/><path clip-rule="evenodd" d="m48.8571 9h-32.8571c-1.1046 0-2 .89543-2 2v18c0 1.1046.8954 2 2 2h32.8571c1.1046 0 2-.8954 2-2v-18c0-1.10457-.8954-2-2-2zm-32.8571-2c-2.2091 0-4 1.79086-4 4v18c0 2.2091 1.7909 4 4 4h32.8571c2.2092 0 4-1.7909 4-4v-18c0-2.20914-1.7908-4-4-4z" fill="#0f3365" fill-rule="evenodd"/><path d="m32.4285 7h16.4285c2.2092 0 4 1.79086 4 4v18c0 2.2091-1.7908 4-4 4h-16.4285z" fill="#0f3365"/><path clip-rule="evenodd" d="m35.2142 28.1058h4.2552v-5.9162h.0475c.8042 1.2963 2.4122 1.7764 3.9014 1.7764 3.6647 0 5.6269-2.6761 5.6269-5.8962 0-2.6337-1.8664-5.4983-5.2715-5.4983-1.9388 0-3.7364.69-4.5872 2.2163h-.0475v-1.9655h-3.9248zm9.4338-9.9519c0 1.7357-.9696 2.9269-2.5764 2.9269-1.4192 0-2.6025-1.1912-2.6025-2.7809 0-1.6303 1.0412-2.8432 2.6025-2.8432 1.6543 0 2.5764 1.2538 2.5764 2.6972z" fill="#fffffe" fill-rule="evenodd"/><path clip-rule="evenodd" d="m29.6351 12.8223h-3.8547v1.9648h-.0463c-.8988-1.3375-2.3651-2.2156-4.1851-2.2156-3.8298 0-5.5561 2.4247-5.5561 5.6657 0 3.2212 2.1043 5.4773 5.4856 5.4773 1.7022 0 3.1206-.5838 4.1365-1.8608h.0479v.5867c0 2.1326-1.3234 3.1567-3.7827 3.1567-1.7734 0-2.8609-.3342-4.161-.8987l-.2133 2.9692c.9934.3124 2.6722.6896 4.7052.6896 4.9651 0 7.424-1.4433 7.424-5.9168zm-9.2447 5.3519c0-1.484.8276-2.7175 2.4118-2.7175 1.9147 0 2.7188 1.3579 2.7188 2.5711 0 1.6734-1.2062 2.8022-2.7188 2.8022-1.2767 0-2.4118-.9628-2.4118-2.6558z" fill="#d8232a" fill-rule="evenodd"/><path d="m4 1h56v-2h-56zm59 3v32h2v-32zm-3 35h-56v2h56zm-59-3v-32h-2v32zm3 3c-1.65685 0-3-1.3431-3-3h-2c0 2.7614 2.23858 5 5 5zm59-3c0 1.6569-1.3431 3-3 3v2c2.7614 0 5-2.2386 5-5zm-3-35c1.6569 0 3 1.34315 3 3h2c0-2.76142-2.2386-5-5-5zm-56-2c-2.76142 0-5 2.23858-5 5h2c0-1.65685 1.34315-3 3-3z" fill="#ddd"/></svg>