<svg fill="none" height="35" viewBox="0 0 51 35" width="51" xmlns="http://www.w3.org/2000/svg"><rect fill="#fff" height="34" rx="3.5" stroke="#f3f3f3" width="49.6897" x=".5" y=".5"/><path d="m29.9708 22.8244h-8.6661v-15.47088h8.6661z" fill="#6c6bbd"/><path d="m21.8549 15.0891c0-3.1384 1.4792-5.93389 3.7826-7.73545-1.6844-1.31739-3.8103-2.1037-6.1207-2.1037-5.4697 0-9.90352 4.40506-9.90352 9.83915 0 5.4341 4.43382 9.8391 9.90352 9.8391 2.3104 0 4.4363-.7863 6.1207-2.1037-2.3034-1.8015-3.7826-4.5971-3.7826-7.7354z" fill="#eb001b"/><path d="m41.6626 15.0891c0 5.4341-4.4338 9.8391-9.9035 9.8391-2.3104 0-4.4363-.7863-6.1214-2.1037 2.3041-1.8015 3.7833-4.5971 3.7833-7.7354 0-3.1384-1.4792-5.93389-3.7833-7.73545 1.6851-1.31739 3.811-2.1037 6.1214-2.1037 5.4697 0 9.9035 4.40506 9.9035 9.83915z" fill="#0099df"/><g fill="#231f20"><path d="m32.9036 27.1956c.1152 0 .2809.0219.4074.0713l-.1763.5355c-.1209-.0494-.2418-.0657-.3577-.0657-.374 0-.561.2402-.561.6718v1.465h-.5724v-2.6122h.5667v.3171c.1486-.2295.3633-.3828.6933-.3828z"/><path d="m30.7887 27.7807h-.9351v1.1804c0 .2621.0932.4373.3797.4373.1487 0 .3357-.0495.5057-.1477l.165.4861c-.1814.1257-.4673.2027-.7147.2027-.677 0-.9131-.361-.9131-.9678v-1.191h-.534v-.5192h.534v-.7925h.5774v.7925h.9351z"/><path clip-rule="evenodd" d="m24.1754 27.1958c.7374 0 1.2437.5574 1.2493 1.3718 0 .0757-.0055.1459-.0112.2166l-.0001.0017h-1.9527c.0825.4698.4181.6393.7865.6393.2638 0 .5447-.0982.7644-.2733l.2809.421c-.3193.2677-.682.3659-1.0781.3659-.7871 0-1.3482-.5411-1.3482-1.3712 0-.8144.539-1.3718 1.3092-1.3718zm-.0106.5078c-.4074 0-.6379.2571-.699.6343h1.3646c-.0604-.4047-.2972-.6343-.6656-.6343z" fill-rule="evenodd"/><path d="m27.9386 27.9283c-.1593-.0988-.4836-.2245-.8193-.2245-.3136 0-.5006.1151-.5006.3065 0 .1745.1977.2239.4452.2565l.2695.0381c.5724.0826.9188.3228.9188.7819 0 .4973-.4402.8527-1.199.8527-.4295 0-.8255-.1095-1.1391-.3391l.2695-.4429c.1927.1477.4792.2734.8753.2734.3904 0 .5995-.1145.5995-.3172 0-.147-.1486-.2295-.4622-.2727l-.2696-.0382c-.5887-.0825-.908-.3446-.908-.7706 0-.5192.4295-.8364 1.0951-.8364.4181 0 .7978.0932 1.0724.2734z"/><path clip-rule="evenodd" d="m35.561 27.3015c-.1738-.0707-.3628-.1057-.5668-.1057s-.3929.035-.5667.1057c-.1738.0701-.3231.167-.449.2903-.1259.1232-.2248.269-.2966.4366-.0718.1683-.1077.3509-.1077.548 0 .197.0359.3797.1077.5479.0718.1677.1707.3141.2966.4373s.2752.2196.449.2903c.1738.07.3627.105.5667.105s.393-.035.5668-.105c.1738-.0707.3243-.1671.4508-.2903.1272-.1232.2261-.2696.2979-.4373.0718-.1682.1077-.3509.1077-.5479 0-.1971-.0359-.3797-.1077-.548-.0718-.1676-.1707-.3134-.2979-.4366-.1265-.1233-.277-.2202-.4508-.2903zm-.895.4954c.1014-.0406.2103-.0613.3281-.0613.1177 0 .2273.0207.328.0613.1014.0413.1896.0989.2633.1727.0749.0738.1328.1626.1756.2658.0422.1032.063.2171.063.3409 0 .1245-.0208.2378-.063.341-.0428.1032-.1007.192-.1756.2658-.0737.0738-.1619.1314-.2633.1727-.1007.0413-.2103.0613-.328.0613-.1178 0-.2267-.02-.3281-.0613-.1008-.0413-.1883-.0989-.262-.1727s-.1316-.1626-.1738-.2658-.063-.2165-.063-.341c0-.1238.0208-.2377.063-.3409s.1001-.192.1738-.2658.1612-.1314.262-.1727z" fill-rule="evenodd"/><path clip-rule="evenodd" d="m22.2524 27.2615v1.3061 1.3061h-.5718v-.3171c-.182.2352-.4566.3828-.8306.3828-.7374 0-1.3148-.5742-1.3148-1.3718 0-.7982.5774-1.3718 1.3148-1.3718.374 0 .6486.1476.8306.3828v-.3171zm-1.3313.4697c-.4949 0-.7978.3772-.7978.8363 0 .4592.3029.8358.7978.8358.4729 0 .7922-.3604.7922-.8358s-.3193-.8363-.7922-.8363z" fill-rule="evenodd"/><path d="m19.0293 29.8735v-1.6395c0-.6174-.3961-1.0328-1.034-1.0384-.3356-.0056-.6826.0982-.9244.4648-.1813-.2897-.4679-.4648-.8696-.4648-.2802 0-.5554.0819-.7701.3878v-.3221h-.5718v2.6122h.5774v-1.4481c0-.4535.2532-.6943.6436-.6943.3797 0 .5724.2458.5724.6887v1.4537h.5774v-1.4481c0-.4535.2645-.6943.6436-.6943.3911 0 .5781.2458.5781.6887v1.4537z"/></g></svg>