<svg fill="none" height="35" viewBox="0 0 52 35" width="52" xmlns="http://www.w3.org/2000/svg"><rect fill="#fff" height="34" rx="3.5" stroke="#f3f3f3" width="50" x=".878906" y=".5"/><g clip-rule="evenodd" fill-rule="evenodd"><path d="m44.0545 5.25735-9.7192-.00247c-.0012 0-.0025 0-.0025 0-.0075 0-.0149.00132-.0222.00132-1.3352.04021-2.9982 1.09295-3.301 2.39106l-4.5964 19.99284c-.3028 1.3102.5211 2.3764 1.8467 2.396h10.2104c1.3053-.0635 2.5737-1.1041 2.8714-2.3875l4.5965-19.99296c.3077-1.32356-.5362-2.39829-1.8837-2.39829z" fill="#01798a"/><path d="m26.4134 27.6401 4.5963-19.99281c.3029-1.29812 1.9658-2.35086 3.301-2.39107l-3.8643-.00246-6.9624-.00132c-1.3389.02692-3.0235 1.08705-3.3263 2.39485l-4.5976 19.99281c-.304 1.3102.5212 2.3764 1.8458 2.396h10.8541c-1.3255-.0196-2.1495-1.0858-1.8466-2.396" fill="#024381"/><path d="m15.5602 27.64 4.5976-19.99286c.3028-1.3078 1.9874-2.36792 3.3263-2.39484l-8.9192-.0023c-1.3464 0-3.0726 1.07227-3.3803 2.39714l-4.59766 19.99286c-.02798.122-.0435.2415-.05276.3586v.3709c.09.9551.83201 1.6506 1.8986 1.6665h8.97322c-1.3246-.0197-2.1498-1.0858-1.8458-2.396z" fill="#dd0228"/><path d="m23.6716 19.8205h.1688c.1551 0 .2595-.0512.3084-.1525l.4386-.6453h1.1746l-.2449.4245h1.4083l-.1787.6503h-1.6758c-.193.2854-.4306.4196-.7162.4037h-.8729zm-.1928.9322h3.0855l-.1967.7064h-1.2408l-.1894.6818h1.2075l-.1967.7064h-1.2075l-.2805 1.0075c-.0694.1684.0219.2442.2725.227h.9841l-.1823.6564h-1.8894c-.3581 0-.481-.2014-.3686-.6051l.3586-1.2858h-.7718l.196-.7064h.772l.1892-.6818h-.7378zm4.9247-1.7347-.0485.4135s.582-.4295 1.1106-.4295h1.9533l-.747 2.6581c-.0619.3039-.3276.455-.7967.455h-2.214l-.5186 1.8666c-.0298.1.0124.1513.1241.1513h.4356l-.1601.5794h-1.1075c-.4251 0-.6019-.1257-.5317-.3781l1.4654-5.3163zm1.6541.7513h-1.7435l-.2085.7173s.2903-.2061.7755-.2135c.4839-.0074 1.0362 0 1.0362 0zm-.6315 1.664c.1289.0171.201-.033.2097-.1513l.1067-.3781h-1.7461l-.1464.5294zm-1.1778.8588h1.0064l-.0187.4282h.268c.1354 0 .2025-.0427.2025-.1268l.0793-.2769h.8365l-.1117.4037c-.0945.3367-.345.5124-.752.5296h-.5361l-.0025.7318c-.0099.1172.098.177.32.177h.5039l-.1626.5794h-1.2086c-.3388.0159-.5049-.1428-.5014-.4794z" fill="#fff"/><path d="m16.0529 15.4764c-.1365.6575-.4529 1.1626-.9438 1.5212-.4864.3526-1.1137.5294-1.8818.5294-.7229 0-1.2528-.1805-1.5909-.5429-.2346-.2574-.3512-.5843-.3512-.9796 0-.1634.0199-.3391.0596-.5281l.8183-3.8792h1.236l-.8072 3.8353c-.0248.1061-.0348.2049-.0335.294-.0013.1964.0484.3574.1489.483.1464.1867.3841.2794.7148.2794.3803 0 .6937-.0915.9369-.2757.2432-.183.402-.4428.4734-.7807l.8098-3.8353h1.2297z" fill="#fff"/><path d="m21.2436 13.9502h.968l-.7582 3.4621h-.9661zm.3046-1.2612h.9766l-.1824.8403h-.9765z" fill="#fff"/><path d="m23.0688 17.1487c-.2532-.2378-.381-.5587-.3823-.9661 0-.0696.0043-.1488.0137-.2355.0093-.0879.0212-.1732.0378-.2525.1148-.5623.3593-1.0088.7359-1.3382.376-.3306.8297-.4965 1.3608-.4965.4349 0 .7798.1195 1.0325.3586.2524.2404.379.5648.379.9772 0 .0707-.0055.1524-.0149.2403-.0112.089-.0247.1744-.0404.2586-.1122.5538-.356.9954-.7326 1.3188-.3767.3257-.829.4878-1.3564.4878-.4368 0-.7806-.1171-1.0331-.3525m1.8448-.6856c.1707-.1817.2929-.4575.3673-.8246.0112-.0573.0211-.1171.0273-.1769.0061-.0586.0086-.1134.0086-.1635 0-.2135-.0552-.3793-.1662-.4965-.1104-.1183-.2674-.1768-.4702-.1768-.2682 0-.4865.0926-.6577.2781-.1726.1855-.2948.466-.3718.8393-.0105.0573-.0192.1147-.0272.1708-.0062.0573-.008.111-.0069.1598 0 .2122.0553.3757.1663.4916.1104.1159.2667.1732.4722.1732.2693 0 .4877-.0915.6583-.2745z" fill="#fff"/><path d="m32.5262 19.8496.2334-.8075h1.1801l-.0509.2964s.603-.2964 1.0373-.2964h1.4593l-.2319.8075h-.2296l-1.1008 3.8086h.2296l-.2184.7564h-.2296l-.0955.3281h-1.1428l.0953-.3281h-2.2547l.2198-.7564h.2259l1.1017-3.8086zm1.2731.0002-.3004 1.0307s.5139-.1939.9569-.2487c.0978-.36.2257-.782.2257-.782zm-.4395 1.5139-.3013 1.0796s.5695-.2757.9603-.2989c.1129-.4173.2259-.7807.2259-.7807zm.221 2.2946.2259-.7832h-.8809l-.2271.7832zm2.8544-4.6661h1.1095l.0471.4024c-.0074.1025.0545.1514.1861.1514h.196l-.1983.6819h-.8155c-.3114.0158-.4715-.1012-.4863-.3538zm-.325 1.4626h3.5937l-.2109.732h-1.1442l-.1962.6805h1.1431l-.2122.7308h-1.2731l-.288.4283h.6231l.1439.8575c.0172.0854.0942.1269.2257.1269h.1935l-.2033.7062h-.6851c-.3549.0172-.5384-.0999-.5535-.3524l-.1651-.7832-.567.8332c-.1341.2354-.3401.3453-.6179.3281h-1.0462l.2035-.7064h.3264c.1341 0 .2456-.0585.3461-.1768l.8875-1.2614h-1.1442l.212-.7308h1.241l.1974-.6805h-1.2422z" fill="#fff"/><path d="m17.1915 13.9492h.873l-.0998.5001.1252-.1427c.283-.2976.6267-.4453 1.0325-.4453.3674 0 .6323.105.7986.316.1637.2111.2084.5026.1309.8771l-.4809 2.3593h-.8972l.4343-2.1385c.0448-.2208.0324-.3855-.0366-.4916-.0682-.1062-.1985-.1586-.3865-.1586-.2308 0-.425.0707-.5833.2111-.1588.1415-.2636.3379-.3152.5879l-.4002 1.9897h-.899z" fill="#fff"/><path d="m27.2021 13.9492h.8737l-.0991.5001.1239-.1427c.2831-.2976.6281-.4453 1.0326-.4453.3673 0 .6328.105.7978.316.1627.2111.2098.5026.1304.8771l-.4791 2.3593h-.8984l.4345-2.1385c.0445-.2208.0322-.3855-.0361-.4916-.0708-.1062-.1987-.1586-.3859-.1586-.2309 0-.4244.0707-.5845.2111-.1589.1415-.2643.3379-.3139.5879l-.402 1.9897h-.898z" fill="#fff"/><path d="m31.5212 11.8018h2.5365c.4877 0 .8648.1086 1.1241.322.2582.216.3874.5259.3874.9296v.0122c0 .0768-.0052.1634-.0125.2573-.0126.0928-.0288.1866-.0496.2843-.1117.5343-.3712.9638-.7719 1.2895-.4022.3244-.8785.4879-1.427.4879h-1.3603l-.4205 2.0287h-1.1778zm.6342 2.6069h1.1281c.2941 0 .5273-.0672.6974-.2001.1688-.1342.2805-.3391.3425-.6172.0098-.0514.016-.0977.0235-.1404.0039-.0402.0087-.0806.0087-.1195 0-.1989-.0718-.3428-.2159-.4331-.1439-.0916-.3696-.1354-.6825-.1354h-.9581z" fill="#fff"/><path d="m40.8406 18.0833c-.3723.7782-.7271 1.2319-.9355 1.443-.2087.2087-.6218.6942-1.617.6576l.0856-.5941c.8375-.2537 1.2905-1.3969 1.5486-1.9031l-.3077-3.728.6478-.0085h.5435l.0584 2.3386 1.0186-2.3386h1.0314z" fill="#fff"/><path d="m37.9561 14.232-.4097.277c-.4281-.3294-.819-.5331-1.5733-.1891-1.0277.4684-1.8863 4.0611.943 2.8777l.1613.1879 1.1131.028.731-3.2644zm-.6328 1.7848c-.1788.5185-.5782.8613-.8909.7637-.3128-.0952-.4244-.5954-.2433-1.115.1787-.5197.5807-.8613.8909-.7637.3127.0952.4256.5953.2433 1.115z" fill="#fff"/><path d="m34.3328 5.26107-3.8865-.00765 3.8643.01639c.0074 0 .0147-.00874.0222-.00874" fill="#e02f41"/><path d="m30.4467 5.27406-6.9089-.02406c-.0174 0-.0354.00765-.0534.01531z" fill="#2e4f7d"/></g></svg>