<svg width="64" height="40" viewBox="0 0 64 40" fill="none" xmlns="http://www.w3.org/2000/svg">
<rect width="64" height="40" fill="#2557D6"/>
<path fill-rule="evenodd" clip-rule="evenodd" d="M0 18.7742H3.07455L3.76746 17.1092H5.31882L6.01003 18.7733H12.0593V17.5011L12.5986 18.7793H15.7388L16.279 17.4821V18.7742H31.3105L31.3027 16.041H31.5937C31.7976 16.0477 31.8574 16.0665 31.8574 16.4018V18.7742H39.6313V18.1375C40.2586 18.472 41.2338 18.7742 42.5173 18.7742H45.788L46.4878 17.1092H48.0401L48.7245 18.7733H55.0271V17.192L55.9811 18.7742H61.0328V8.32001H56.034V9.5547L55.3344 8.32001H50.2048V9.5547L49.5624 8.32001H42.6333C41.4745 8.32001 40.4547 8.48134 39.6313 8.9301V8.32001H34.851V8.9301C34.327 8.46751 33.6127 8.32001 32.8183 8.32001H15.3523L14.1798 11.0199L12.9766 8.32001H7.47519V9.5547L6.87103 8.32001H2.17856L0 13.2898V18.7742ZM19.4048 17.2654H17.5599L17.553 11.3955L14.9444 17.2663H13.3649L10.7494 11.3903V17.2654H7.08947L6.39829 15.5938H2.65215L1.95414 17.2663H0L3.22219 9.77071H5.89482L8.95488 16.8669V9.77071H11.8912L14.2464 14.8547L16.4087 9.77071H19.4039L19.4048 17.2654ZM5.78389 14.0389L4.55252 11.0516L3.32798 14.0382L5.78389 14.0389ZM26.745 17.2663H20.7352V9.7716H26.745V11.3323H22.534V12.683H26.6444V14.219H22.534V15.7166H26.745V17.2663ZM35.2154 11.7895C35.2154 12.9843 34.4132 13.6022 33.9472 13.7881C34.3406 13.9367 34.6769 14.2002 34.8374 14.4196C35.0915 14.7916 35.1351 15.1245 35.1351 15.7935V17.2663H33.3199L33.3133 16.3217C33.3133 15.8703 33.3568 15.2218 33.029 14.8608C32.7663 14.5979 32.366 14.5408 31.7184 14.5408H29.7864V17.2663H27.9875V9.7716H32.1263C33.0453 9.7716 33.7227 9.79548 34.3047 10.13C34.874 10.4652 35.2154 10.9543 35.2154 11.7895ZM32.9404 12.9033C32.6929 13.0526 32.401 13.0568 32.0502 13.0568H29.8649V11.3928H32.0801C32.3941 11.3928 32.721 11.4064 32.9335 11.5276C33.1673 11.6369 33.3115 11.869 33.3115 12.1908C33.3115 12.5175 33.1742 12.7812 32.9404 12.9033ZM38.1005 17.2663H36.2649V9.7716H38.0996L38.1005 17.2663ZM59.4116 17.2663H56.8619L53.4519 11.6412V17.2663H49.7876L49.088 15.5947H45.3504L44.6703 17.2672H42.5651C41.6903 17.2672 40.5837 17.0744 39.9564 16.4378C39.324 15.8011 38.9947 14.9393 38.9947 13.5765C38.9947 12.4646 39.191 11.4484 39.9649 10.6452C40.5469 10.0472 41.4574 9.7716 42.6974 9.7716H44.4391V11.3774H42.7349C42.0777 11.3774 41.7075 11.4747 41.35 11.8212C41.0436 12.137 40.8327 12.7344 40.8327 13.5194C40.8327 14.3214 40.9932 14.9018 41.3277 15.2798C41.6051 15.576 42.1076 15.6663 42.582 15.6663H43.3894L45.9255 9.7716H48.622L51.6676 16.8609V9.7716H54.4068L57.5693 14.9913V9.7716H59.4125L59.4116 17.2663ZM48.4752 14.0389L47.2303 11.0516L45.992 14.0389H48.4752ZM63.9964 29.2343C63.5588 29.871 62.708 30.1934 61.5543 30.1934H58.0803V28.5859H61.5407C61.8836 28.5859 62.1242 28.5406 62.2686 28.3997C62.3362 28.3377 62.3902 28.2621 62.427 28.1779C62.4636 28.0936 62.4824 28.0028 62.4819 27.9108C62.4855 27.8169 62.4676 27.7232 62.4295 27.6372C62.3913 27.5513 62.334 27.4752 62.2617 27.415C62.1311 27.3007 61.9408 27.2485 61.6277 27.2485C59.938 27.1914 57.8303 27.3007 57.8303 24.9275C57.8303 23.8403 58.5241 22.696 60.4124 22.696H63.9964V21.2045H60.6659C59.6615 21.2045 58.9311 21.4433 58.4148 21.8164V21.2045H53.4894C52.7019 21.2045 51.7776 21.3991 51.3398 21.8164V21.2045H42.5454V21.8164C41.8456 21.3136 40.6638 21.2045 40.1193 21.2045H34.3177V21.8164C33.7638 21.283 32.5325 21.2045 31.7824 21.2045H25.2894L23.8046 22.8054L22.4128 21.2045H12.7138V31.6662H22.23L23.7611 30.039L25.2031 31.6653L31.069 31.6705V29.2096H31.645C32.4231 29.2214 33.3414 29.1908 34.1512 28.8427V31.6653H38.9895V28.9382H39.2225C39.5213 28.9382 39.5503 28.95 39.5503 29.2462V31.6647H54.2463C55.1798 31.6647 56.1551 31.4257 56.6954 30.9948V31.6647H61.3572C62.3273 31.6647 63.2745 31.5281 63.9955 31.1815L63.9964 29.2343ZM34.8552 25.21C34.8552 27.292 33.2936 27.7229 31.7217 27.7229H29.4766V30.2378H25.9796L23.7644 27.7555L21.4622 30.2378H14.3351V22.7404H21.5713L23.785 25.198L26.0736 22.7404H31.8224C33.2501 22.7404 34.8552 23.1338 34.8552 25.21ZM20.5508 28.6608H16.1271V27.1693H20.0772V25.6392H16.1263V24.2764H20.6379L22.6056 26.461L20.5508 28.6608ZM27.6778 29.5193L24.9157 26.4644L27.6778 23.5085V29.5193ZM31.7635 26.1854H29.4382V24.2764H31.7849C32.4334 24.2764 32.8848 24.5401 32.8848 25.1955C32.8848 25.844 32.4548 26.1854 31.7635 26.1854ZM43.9441 22.7404H49.9489V24.2909H45.736V25.6537H49.8458V27.1838H45.736V28.6753L49.9489 28.6823V30.2378H43.9441V22.7404ZM41.6359 26.7536C42.036 26.9004 42.3636 27.1642 42.5173 27.3826C42.7708 27.7495 42.8074 28.0909 42.815 28.7512V30.2378H41.0086V29.299C41.0086 28.8485 41.0521 28.1813 40.7185 27.8314C40.4547 27.5634 40.0546 27.4987 39.3974 27.4987H37.475V30.2378H35.6675V22.7404H39.8208C40.7321 22.7404 41.3951 22.7806 41.9855 23.0937C42.5539 23.4351 42.9107 23.9044 42.9107 24.7586C42.9107 25.9558 42.1085 26.5659 41.6359 26.7536ZM40.6185 25.8056C40.378 25.9482 40.081 25.96 39.7304 25.96H37.544V24.2764H39.7601C40.0801 24.2764 40.4001 24.2833 40.6185 24.4112C40.8515 24.5332 40.9907 24.7653 40.9907 25.0853C40.9907 25.4071 40.8515 25.6657 40.6185 25.8056ZM56.861 26.2834C57.2109 26.6444 57.3985 27.1001 57.3985 27.8716C57.3985 29.4843 56.3866 30.2369 54.5723 30.2369H51.0678V28.6294H54.5578C54.899 28.6294 55.1414 28.585 55.2933 28.4442C55.3607 28.3817 55.4143 28.306 55.4509 28.2219C55.4875 28.1378 55.5062 28.0469 55.5058 27.9552C55.5078 27.8615 55.4888 27.7685 55.4509 27.6828C55.4129 27.5971 55.3565 27.5208 55.2858 27.4594C55.1492 27.3449 54.9588 27.2929 54.6458 27.2929C52.963 27.2358 50.856 27.3442 50.856 24.9719C50.856 23.8847 51.5422 22.7404 53.428 22.7404H57.035V24.3362H53.7344C53.4075 24.3362 53.1951 24.348 53.0132 24.471C52.817 24.593 52.7436 24.7731 52.7436 25.0112C52.7407 25.1339 52.7775 25.2544 52.8483 25.3551C52.9192 25.4555 53.0203 25.5305 53.137 25.5693C53.3274 25.6349 53.5311 25.6546 53.8366 25.6546L54.8062 25.6802C55.7823 25.7041 56.4531 25.8721 56.861 26.2834ZM64 24.2764H60.7206C60.3937 24.2764 60.1761 24.2884 59.9927 24.4112C59.8032 24.5332 59.7298 24.7133 59.7298 24.9514C59.7258 25.0746 59.7619 25.1958 59.8329 25.2964C59.9039 25.3973 60.0058 25.472 60.1232 25.5095C60.3127 25.5751 60.5166 25.5947 60.817 25.5947L61.7915 25.6204C62.7753 25.6443 63.4325 25.8132 63.8326 26.2238C63.906 26.2809 63.9496 26.345 64 26.4097V24.2764Z" fill="white"/>
</svg>
