<svg width="64" height="40" viewBox="0 0 39 25" fill="none" xmlns="http://www.w3.org/2000/svg">
	<rect x="0.699707" y="0.723633" width="37.4" height="23" rx="1.5" fill="#2557D6"/>
	<rect x="0.699707" y="0.723633" width="37.4" height="23" rx="1.5" stroke="#DDDDDD"/>
	<path fill-rule="evenodd" clip-rule="evenodd" d="M1.19971 11.1695H2.94836L3.34245 10.2226H4.22479L4.61791 11.169H8.05844V10.4453L8.36517 11.1724H10.1512L10.4584 10.4347V11.1695H19.0076L19.0032 9.61493H19.1687C19.2847 9.61881 19.3187 9.62949 19.3187 9.82023V11.1695H23.74V10.8074C24.0968 10.9976 24.6515 11.1695 25.3814 11.1695H27.2417L27.6397 10.2226H28.5225L28.9118 11.169H32.4964V10.2696L33.039 11.1695H35.9122V5.22363H33.0691V5.92591L32.6711 5.22363H29.7538V5.92591L29.3884 5.22363H25.4474C24.7884 5.22363 24.2084 5.31536 23.74 5.57065V5.22363H21.0212V5.57065C20.7232 5.3076 20.317 5.22363 19.8651 5.22363H9.93134L9.26449 6.75923L8.58017 5.22363H5.45123V5.92591L5.10761 5.22363H2.43876L1.19971 8.05021V11.1695ZM12.2362 10.3114H11.1869L11.183 6.97277L9.69935 10.3119H8.801L7.31345 6.96986V10.3114H5.23186L4.83874 9.36061H2.70812L2.31112 10.3119H1.19971L3.03233 6.0487H4.55239L6.2928 10.0847V6.0487H7.96283L9.30235 8.94032L10.5322 6.0487H12.2357V10.3114H12.2362ZM4.4893 8.47634L3.78896 6.77719L3.09251 8.47585H4.4893V8.47634ZM16.411 10.3119H12.9928V6.04919H16.411V6.93686H14.0159V7.70514H16.3538V8.57874H14.0159V9.4305H16.411V10.3119ZM21.2284 7.197C21.2284 7.87646 20.7722 8.22785 20.5072 8.33365C20.731 8.4181 20.9222 8.56807 21.0134 8.6928C21.1581 8.9044 21.1828 9.09368 21.1828 9.47418V10.3119H20.1505L20.1466 9.7746C20.1466 9.51786 20.1714 9.14901 19.985 8.94371C19.8355 8.79423 19.6079 8.76171 19.2395 8.76171H18.1408V10.3119H17.1177V6.04919H19.4715C19.9942 6.04919 20.3796 6.06277 20.7106 6.25302C21.0343 6.44376 21.2284 6.72186 21.2284 7.197ZM19.9345 7.83036C19.7938 7.91529 19.6278 7.91772 19.4283 7.91772H18.1854V6.97132H19.4453C19.6239 6.97132 19.8098 6.97908 19.9307 7.048C20.0636 7.11012 20.1457 7.24213 20.1457 7.4251C20.1457 7.61099 20.0675 7.76096 19.9345 7.83036ZM22.8694 10.3119H21.8254V6.04919H22.8689V10.3119H22.8694ZM34.9901 10.3119H33.5399L31.6005 7.11255V10.3119H29.5165L29.1185 9.3611H26.9927L26.6059 10.3124H25.4086C24.9112 10.3124 24.2817 10.2027 23.925 9.84061C23.5653 9.47855 23.378 8.98836 23.378 8.21329C23.378 7.5809 23.4896 7.00286 23.9298 6.54617C24.2608 6.20595 24.7787 6.04919 25.4838 6.04919H26.4744V6.96258H25.5052C25.1315 6.96258 24.9209 7.01791 24.7175 7.21496C24.5433 7.39453 24.4234 7.73426 24.4234 8.18077C24.4234 8.63698 24.5146 8.96701 24.7049 9.18201C24.8626 9.35042 25.1485 9.40187 25.4183 9.40187H25.8775L27.3199 6.04919H28.8535L30.5857 10.0813V6.04919H32.1436L33.9422 9.01797V6.04919H34.9906V10.3119H34.9901ZM28.77 8.47634L28.0619 6.77719L27.3577 8.47634H28.77ZM37.5978 17.1187C37.3488 17.4807 36.8649 17.6642 36.2087 17.6642H34.233V16.7498H36.201C36.3961 16.7498 36.5329 16.7241 36.615 16.644C36.6535 16.6087 36.6842 16.5657 36.7051 16.5178C36.726 16.4699 36.7366 16.4182 36.7363 16.3659C36.7384 16.3125 36.7282 16.2592 36.7065 16.2104C36.6848 16.1615 36.6521 16.1182 36.6111 16.0839C36.5368 16.0189 36.4286 15.9893 36.2505 15.9893C35.2895 15.9568 34.0907 16.0189 34.0907 14.6692C34.0907 14.0509 34.4853 13.4 35.5594 13.4H37.5978V12.5517H35.7035C35.1323 12.5517 34.7168 12.6876 34.4232 12.8997V12.5517H31.6219C31.1739 12.5517 30.6483 12.6623 30.3993 12.8997V12.5517H25.3975V12.8997C24.9995 12.6138 24.3273 12.5517 24.0177 12.5517H20.7179V12.8997C20.4029 12.5963 19.7026 12.5517 19.2759 12.5517H15.583L14.7386 13.4622L13.947 12.5517H8.43069V18.5019H13.8431L14.7138 17.5763L15.534 18.5014L18.8702 18.5043V17.1046H19.1978C19.6404 17.1114 20.1627 17.0939 20.6232 16.8959V18.5014H23.3751V16.9503H23.5076C23.6774 16.9503 23.6939 16.9571 23.6939 17.1255V18.5009H32.0523C32.5833 18.5009 33.138 18.365 33.4453 18.1199V18.5009H36.0966C36.6485 18.5009 37.1872 18.4232 37.5973 18.2262V17.1182L37.5978 17.1187ZM21.0236 14.8298C21.0236 16.014 20.1355 16.2591 19.2415 16.2591H17.9646V17.6894H15.9757L14.7158 16.2776L13.4063 17.6894H9.35282V13.4253H13.4684L14.7274 14.823L16.0291 13.4253H19.2988C20.1107 13.4253 21.0231 13.649 21.0231 14.8298H21.0236ZM12.888 16.7925H10.372V15.9442H12.6186V15.074H10.3715V14.2989H12.9375L14.0567 15.5413L12.888 16.7925ZM16.9415 17.2808L15.3705 15.5433L16.9415 13.8621V17.2808ZM19.2653 15.3846H17.9427V14.2989H19.2774C19.6463 14.2989 19.903 14.4489 19.903 14.8216C19.903 15.1904 19.6584 15.3846 19.2653 15.3846ZM26.1929 13.4253H29.6082V14.3071H27.2121V15.0822H29.5495V15.9524H27.2121V16.8008L29.6082 16.8047V17.6894H26.1929V13.4253ZM24.8801 15.7078C25.1077 15.7913 25.2941 15.9413 25.3814 16.0655C25.5256 16.2742 25.5465 16.4683 25.5508 16.844V17.6894H24.5234V17.1556C24.5234 16.8993 24.5481 16.5198 24.3584 16.3208C24.2084 16.1684 23.9808 16.1315 23.6071 16.1315H22.5136V17.6894H21.4857V13.4253H23.8478C24.3661 13.4253 24.7432 13.4481 25.0791 13.6262C25.4023 13.8203 25.6052 14.0873 25.6052 14.5731C25.6052 15.254 25.149 15.601 24.8801 15.7078ZM24.3016 15.1686C24.1647 15.2497 23.9958 15.2564 23.7963 15.2564H22.5529V14.2989H23.8133C23.9953 14.2989 24.1773 14.3028 24.3016 14.3756C24.4341 14.445 24.5132 14.577 24.5132 14.759C24.5132 14.9419 24.4341 15.089 24.3016 15.1686ZM33.5394 15.4404C33.7384 15.6457 33.8452 15.9049 33.8452 16.3436C33.8452 17.2609 33.2696 17.6889 32.2377 17.6889H30.2445V16.7746H32.2295C32.4236 16.7746 32.5615 16.7493 32.6479 16.6693C32.6861 16.6338 32.7166 16.5907 32.7374 16.5429C32.7582 16.495 32.7689 16.4433 32.7687 16.3912C32.7698 16.3379 32.7591 16.285 32.7374 16.2362C32.7158 16.1875 32.6837 16.1441 32.6435 16.1092C32.5658 16.0441 32.4576 16.0145 32.2795 16.0145C31.3224 15.982 30.1241 16.0437 30.1241 14.6944C30.1241 14.0761 30.5143 13.4253 31.5869 13.4253H33.6384V14.3329H31.7611C31.5753 14.3329 31.4544 14.3397 31.351 14.4095C31.2394 14.4789 31.1977 14.5813 31.1977 14.7168C31.1961 14.7866 31.217 14.8552 31.2573 14.9123C31.2975 14.9695 31.3551 15.0122 31.4214 15.0342C31.5296 15.0715 31.6456 15.0827 31.8194 15.0827L32.3707 15.0973C32.9259 15.1108 33.3074 15.2065 33.5394 15.4404ZM37.5997 14.2989H35.7346C35.5487 14.2989 35.4249 14.3057 35.3206 14.3756C35.2128 14.445 35.1711 14.5474 35.1711 14.6828C35.1687 14.7528 35.1893 14.8217 35.2297 14.879C35.2701 14.9363 35.3281 14.9789 35.3948 15.0002C35.5026 15.0376 35.6186 15.0487 35.7894 15.0487L36.3437 15.0633C36.9033 15.0769 37.277 15.173 37.5046 15.4064C37.5463 15.4389 37.5711 15.4753 37.5997 15.5122V14.2989Z" fill="white"/>
</svg>
