<svg xmlns="http://www.w3.org/2000/svg" viewBox="0 0 752 471"><g fill="none" fill-rule="evenodd"><rect width="750" height="471" viewBox="0 0 750 471" x="1" fill="#2557D6" rx="40"/><path fill="#FFF" d="M1 221.2h36l8.2-19.5h18.1l8.1 19.5h71v-15l6.2 15h36.8l6.4-15.1v15h176.1v-32h3.3c2.4.1 3.1.4 3.1 4.3v27.8h91.1v-7.5c7.4 4 18.8 7.5 33.9 7.5h38.3l8.2-19.5H564l8 19.5h73.9v-18.5l11.1 18.5h59.2V98.7h-58.5v14.5l-8.2-14.5h-60.2v14.5l-7.5-14.5h-81.2a73.2 73.2 0 0 0-35.2 7.1v-7.1h-56v7.1c-6.1-5.4-14.5-7.1-23.8-7.1H180.9l-13.7 31.6L153 98.7H88.6V113l-7-14.4h-55L1 156.9v64.3zm227.4-17.7h-21.6l-.1-68.8-30.6 68.8h-18.5L127 134.7v68.8H84L76 184H32L24 203.5H1l37.8-87.8H70l35.8 83.1v-83.1h34.4l27.6 59.6 25.4-59.6h35v87.8h.1zM68.8 165.7l-14.4-35-14.4 35h28.8zm245.6 37.8H244v-87.8h70.4V134h-49.3v15.8h48.1v18h-48.1v17.6h49.3v18.1zm99.3-64.2c0 14-9.4 21.3-14.9 23.5 4.6 1.7 8.6 4.8 10.4 7.4 3 4.3 3.5 8.2 3.5 16v17.3h-21.2l-.1-11c0-5.3.5-13-3.3-17.2-3.1-3-7.8-3.7-15.4-3.7h-22.6v32H329v-88h48.5c10.8 0 18.7.4 25.5 4.3 6.7 4 10.7 9.6 10.7 19.4zm-26.7 13c-2.9 1.8-6.3 1.9-10.4 1.9H351v-19.5h26c3.6 0 7.4.2 10 1.6 2.7 1.2 4.4 4 4.4 7.7 0 3.9-1.6 7-4.4 8.4zm60.5 51.2H426v-87.8h21.5v87.8zm249.7 0h-29.9l-40-65.9v66h-42.9l-8.2-19.7h-43.8l-8 19.6h-24.6c-10.2 0-23.2-2.2-30.6-9.7-7.4-7.5-11.2-17.6-11.2-33.5 0-13 2.3-25 11.3-34.4 6.9-7 17.5-10.2 32-10.2h20.5v18.8h-20c-7.7 0-12 1.1-16.2 5.2-3.6 3.7-6 10.7-6 20s1.8 16.1 5.7 20.5c3.3 3.5 9.1 4.6 14.7 4.6h9.5l29.7-69.1h31.6l35.7 83v-83h32l37.1 61.2v-61.2h21.6v87.8zm-128.1-37.8-14.6-35-14.5 35h29zm181.9 178c-5.2 7.5-15.1 11.3-28.7 11.3h-40.7v-18.8h40.6c4 0 6.8-.6 8.5-2.2a7.7 7.7 0 0 0 2.5-5.7 7.2 7.2 0 0 0-2.6-5.9c-1.5-1.3-3.7-1.9-7.4-1.9-19.8-.7-44.5.6-44.5-27.2 0-12.7 8.1-26.1 30.3-26.1h42v-17.5h-39a44 44 0 0 0-26.5 7.1v-7.1h-57.7c-9.2 0-20 2.3-25.2 7.1v-7.1h-103v7.1a55 55 0 0 0-28.5-7.1h-68v7.1c-6.4-6.2-20.9-7.1-29.7-7.1h-76L280 268.4l-16.3-18.7H150v122.6h111.5l18-19.1 16.8 19 68.8.1v-28.8h6.7a72 72 0 0 0 29.4-4.3v33H458v-31.9h2.7c3.5 0 3.9.1 3.9 3.6v28.4h172.2c11 0 22.4-2.9 28.7-7.9v7.8H720c11.4 0 22.5-1.5 31-5.6v-22.8zm-341.5-47c0 24.3-18.3 29.4-36.8 29.4h-26.3v29.4h-41l-26-29-26.9 29H169v-87.8h84.8l26 28.8 26.8-28.8h67.3c16.8 0 35.6 4.6 35.6 29zM241.8 337H190v-17.5h46.3v-18H190v-16h52.9l23 25.7-24 25.7zm83.6 10L293 311.3l32.4-34.6V347zm47.8-39H346v-22.4h27.5c7.6 0 12.9 3 12.9 10.7 0 7.6-5 11.6-13.2 11.6zM516 267.6h70.3v18.1H537v16H585v18H537v17.4l49.3.1v18.2H516v-87.8zm-27 47c4.6 1.7 8.5 4.8 10.3 7.4 3 4.3 3.3 8.3 3.4 16v17.4h-21.1v-11c0-5.2.5-13-3.4-17.2-3.1-3.1-7.8-3.9-15.5-3.9h-22.5v32.1H419v-87.8h48.6c10.7 0 18.5.4 25.4 4.1 6.7 4 10.9 9.5 10.9 19.5 0 14-9.4 21.2-15 23.4zm-12-11.1c-2.8 1.7-6.3 1.8-10.4 1.8H441v-19.7h26c3.7 0 7.4 0 10 1.5 2.7 1.5 4.4 4.2 4.4 8 0 3.7-1.7 6.7-4.4 8.4zm190.3 5.6c4.1 4.2 6.3 9.6 6.3 18.6 0 18.9-11.8 27.7-33 27.7h-41.2v-18.8h41c4 0 6.8-.5 8.6-2.2a7.8 7.8 0 0 0 2.5-5.7 7.5 7.5 0 0 0-2.6-5.8c-1.6-1.4-3.9-2-7.5-2-19.7-.7-44.4.6-44.4-27.2 0-12.7 8-26.1 30.1-26.1h42.3v18.7h-38.7c-3.8 0-6.3.1-8.4 1.6-2.3 1.4-3.2 3.5-3.2 6.3a6.7 6.7 0 0 0 4.6 6.5c2.2.8 4.6 1 8.2 1l11.4.3c11.4.3 19.3 2.3 24 7zm83.7-23.5h-38.4c-3.9 0-6.4.1-8.6 1.6-2.2 1.4-3 3.5-3 6.3a6.6 6.6 0 0 0 4.6 6.5c2.2.8 4.6 1 8.1 1l11.4.3c11.5.3 19.2 2.3 24 7 .8.8 1.3 1.5 1.9 2.3v-25z"/></g></svg>
