<svg viewBox="0 0 752 471" xmlns="http://www.w3.org/2000/svg"><g fill="none" fill-rule="evenodd"><rect fill="#2557D6" x="1" width="750" height="471" rx="40"/><path d="M1 221.19h36.03l8.12-19.51h18.18l8.1 19.5h70.89v-14.91l6.32 14.98h36.8l6.33-15.2v15.14h176.15l-.09-32.03h3.41c2.39.08 3.09.3 3.09 4.23v27.8h91.1v-7.46c7.35 3.92 18.78 7.46 33.82 7.46h38.33l8.2-19.51h18.19l8.02 19.5h73.86v-18.53l11.18 18.54h59.2V98.68h-58.58v14.47l-8.2-14.47h-60.11v14.47l-7.53-14.47h-81.2c-13.58 0-25.53 1.89-35.18 7.15v-7.15h-56.02v7.15c-6.14-5.42-14.51-7.15-23.82-7.15H180.91l-13.74 31.64-14.1-31.64H88.6v14.47l-7.08-14.47H26.53L1 156.92v64.27zm227.4-17.68h-21.62l-.08-68.79-30.57 68.8h-18.51l-30.65-68.86v68.85H84.08l-8.1-19.59h-43.9l-8.18 19.6H1l37.76-87.84h31.32l35.86 83.16v-83.16h34.41l27.6 59.58 25.34-59.58h35.1v87.83h.01zM68.78 165.7l-14.43-35.01-14.35 35h28.78zm245.64 37.82h-70.43v-87.83h70.43v18.29h-49.35v15.83h48.17v18h-48.17v17.55h49.35v18.16zm99.26-64.18c0 14-9.4 21.24-14.86 23.42 4.61 1.74 8.55 4.83 10.43 7.4 2.98 4.36 3.49 8.26 3.49 16.1v17.26h-21.27l-.08-11.07c0-5.29.51-12.89-3.33-17.12-3.08-3.08-7.77-3.75-15.36-3.75h-22.64v31.94h-21.08v-87.83h48.5c10.77 0 18.71.28 25.53 4.2 6.67 3.93 10.67 9.66 10.67 19.45zm-26.66 13.05c-2.9 1.75-6.32 1.8-10.43 1.8h-25.61v-19.5h25.96c3.68 0 7.51.16 10 1.58 2.74 1.28 4.43 4 4.43 7.77 0 3.83-1.61 6.92-4.35 8.35zm60.47 51.13h-21.51v-87.83h21.5v87.83zm249.74 0h-29.88l-39.96-65.92v65.92h-42.94l-8.2-19.59h-43.8l-7.97 19.6h-24.67c-10.25 0-23.22-2.26-30.57-9.72-7.41-7.46-11.27-17.56-11.27-33.53 0-13.03 2.3-24.94 11.37-34.35 6.82-7.01 17.49-10.24 32.02-10.24h20.41v18.82H501.8c-7.7 0-12.04 1.14-16.23 5.2-3.59 3.7-6.06 10.7-6.06 19.9 0 9.4 1.88 16.2 5.8 20.63 3.25 3.47 9.14 4.53 14.7 4.53h9.46l29.72-69.08h31.6l35.69 83.08v-83.08h32.1l37.06 61.17v-61.17h21.6v87.83zM569.07 165.7l-14.59-35.01-14.51 35.01h29.1zm181.89 178.07c-5.13 7.46-15.1 11.24-28.62 11.24h-40.71v-18.84h40.55c4.02 0 6.84-.53 8.53-2.18a7.71 7.71 0 002.5-5.73 7.2 7.2 0 00-2.58-5.81c-1.53-1.34-3.76-1.95-7.43-1.95-19.8-.67-44.5.61-44.5-27.2 0-12.74 8.13-26.15 30.26-26.15h42v-17.48h-39.03c-11.77 0-20.33 2.8-26.38 7.17v-7.17h-57.72c-9.23 0-20.06 2.28-25.19 7.17v-7.17H499.58v7.17c-8.2-5.89-22.05-7.17-28.43-7.17h-67.99v7.17c-6.49-6.25-20.92-7.17-29.71-7.17h-76.09l-17.4 18.76-16.31-18.76H149.99v122.6h111.52l17.94-19.07 16.9 19.06 68.74.06v-28.84h6.75c9.12.14 19.88-.22 29.37-4.3v33.08h56.7V340.3h2.73c3.5 0 3.84.14 3.84 3.61v28.34H636.7c10.94 0 22.37-2.8 28.7-7.85v7.85h54.63c11.37 0 22.47-1.6 30.92-5.66v-22.83zm-341.5-47.16c0 24.4-18.3 29.45-36.72 29.45h-26.31v29.47h-40.98l-25.96-29.09-26.98 29.09h-83.52v-87.86h84.8l25.94 28.8 26.82-28.8h67.37c16.73 0 35.53 4.61 35.53 28.94zm-167.63 40.44h-51.84v-17.48h46.29v-17.93h-46.3v-15.97h52.87l23.06 25.6-24.08 25.78zm83.52 10.06l-32.37-35.8 32.37-34.64v70.44zm47.88-39.07h-27.25v-22.37h27.5c7.6 0 12.89 3.09 12.89 10.77 0 7.6-5.04 11.6-13.14 11.6zm142.74-40.37h70.37v18.17h-49.37v15.97h48.16v17.93h-48.16v17.48l49.37.08v18.23h-70.37v-87.86zm-27.05 47.03c4.69 1.72 8.53 4.81 10.33 7.37 2.97 4.3 3.4 8.3 3.49 16.04v17.42h-21.17v-11c0-5.28.51-13.1-3.4-17.2-3.09-3.14-7.78-3.9-15.48-3.9h-22.53v32.1h-21.18v-87.86h48.67c10.68 0 18.45.47 25.37 4.14 6.66 4 10.84 9.5 10.84 19.51 0 14.03-9.4 21.18-14.94 23.38zM477 303.59c-2.82 1.67-6.3 1.81-10.41 1.81h-25.62v-19.73h25.97c3.75 0 7.5.08 10.06 1.58 2.73 1.43 4.36 4.15 4.36 7.9 0 3.77-1.63 6.8-4.36 8.44zm190.34 5.6c4.1 4.23 6.3 9.57 6.3 18.61 0 18.9-11.86 27.72-33.12 27.72h-41.07v-18.84h40.9c4 0 6.84-.52 8.62-2.17a7.78 7.78 0 002.49-5.73 7.5 7.5 0 00-2.58-5.81c-1.6-1.34-3.83-1.95-7.5-1.95-19.72-.67-44.41.6-44.41-27.2 0-12.74 8.04-26.15 30.14-26.15h42.27v18.7H630.7c-3.83 0-6.32.14-8.45 1.58-2.3 1.43-3.16 3.54-3.16 6.33a6.73 6.73 0 004.61 6.54c2.23.77 4.62 1 8.2 1l11.36.3c11.44.28 19.3 2.25 24.08 7.07zM751 285.67h-38.43c-3.83 0-6.38.14-8.53 1.58-2.22 1.43-3.08 3.54-3.08 6.33a6.63 6.63 0 004.61 6.54c2.22.77 4.61 1 8.13 1l11.42.3c11.53.28 19.23 2.26 23.92 7.07.86.67 1.37 1.42 1.96 2.18v-25z" fill="#FFF"/></g></svg>