<svg width="64" height="40" viewBox="0 0 64 40" fill="none" xmlns="http://www.w3.org/2000/svg">
	<rect width="64" height="40" fill="#016797"/>
	<path fill-rule="evenodd" clip-rule="evenodd" d="M33.7925 13.1188V19.5125H43.9975C44.8454 19.5125 45.6585 19.1757 46.258 18.5762C46.8576 17.9766 47.1944 17.1635 47.1944 16.3156C47.1944 15.4678 46.8576 14.6546 46.258 14.0551C45.6585 13.4556 44.8454 13.1188 43.9975 13.1188H33.7925ZM32.9213 19.5125C32.8638 18.255 32.55 17.1263 32.0213 16.1688C31.4406 15.111 30.5703 14.2407 29.5125 13.66C28.4475 13.0725 27.17 12.75 25.7388 12.75H24.3875C22.9563 12.75 21.68 13.0725 20.615 13.66C19.5572 14.2407 18.6869 15.111 18.1063 16.1688C17.5175 17.235 17.195 18.5113 17.195 19.9425C17.195 21.3738 17.5175 22.65 18.1063 23.7162C18.6863 24.7737 19.5556 25.6439 20.6125 26.225C21.6775 26.8125 22.9538 27.135 24.385 27.135H25.7375C27.1688 27.135 28.4463 26.8137 29.5113 26.225C30.5691 25.6443 31.4393 24.774 32.02 23.7162C32.5488 22.7587 32.8625 21.63 32.92 20.3725H25.3075V19.5125H32.9213ZM33.7925 20.3725V26.7663H43.9975C44.8454 26.7663 45.6585 26.4294 46.258 25.8299C46.8576 25.2304 47.1944 24.4172 47.1944 23.5694C47.1944 22.7215 46.8576 21.9084 46.258 21.3088C45.6585 20.7093 44.8454 20.3725 43.9975 20.3725H33.7925Z" fill="white"/>
</svg>
