<svg width="64" height="40" viewBox="0 0 64 40" fill="none" xmlns="http://www.w3.org/2000/svg">
<g id="Size=Large, Name=Cartes Bancaires, Outline=Off">
<g clip-path="url(#clip0_7623_49251)">
<g id="BG Gradient">
<rect width="64" height="40" fill="url(#paint0_linear_7623_49251)"/>
</g>
<g id="Logo_CB__x3E__100">
<path id="Vector" d="M52.5384 14.976C52.5384 14.3889 52.4224 13.8018 52.1904 13.2339C51.9681 12.6949 51.6297 12.2137 51.1947 11.7998C50.7114 11.3378 50.1893 11.0202 49.6093 10.8374C49.039 10.6545 48.256 10.5679 47.2603 10.5679H33.9684V14.9856V19.4033H47.27C48.256 19.4033 49.039 19.3167 49.619 19.1338C50.1894 18.9509 50.721 18.6333 51.2044 18.1713C51.6394 17.7575 51.968 17.2762 52.2001 16.7373C52.4224 16.1502 52.5384 15.5631 52.5384 14.976Z" fill="white"/>
<path id="Vector_2" d="M52.5384 24.9952C52.5384 24.3985 52.4224 23.821 52.1904 23.2531C51.9681 22.7142 51.6297 22.2329 51.1947 21.8191C50.7114 21.3571 50.1893 21.0395 49.6093 20.8566C49.039 20.6737 48.256 20.5775 47.2603 20.5775H33.9684V25.0048V29.4322H47.27C48.256 29.4322 49.039 29.3359 49.619 29.153C50.1894 28.9702 50.721 28.6526 51.2044 28.1906C51.6394 27.7767 51.968 27.2955 52.2001 26.7469C52.4224 26.1694 52.5384 25.5919 52.5384 24.9952Z" fill="white"/>
<path id="Vector_3" d="M32.7697 19.3936C32.4991 13.6862 28.381 10 21.8945 10C15.1954 10 11 13.9461 11 20C11 26.2464 15.3694 30 21.8945 30C28.4293 30 32.5184 26.2945 32.7697 20.5775H22.2329V19.4033H32.7697V19.3936Z" fill="white"/>
</g>
</g>
</g>
<defs>
<linearGradient id="paint0_linear_7623_49251" x1="10.5" y1="-6.8752e-07" x2="61.7905" y2="20.6511" gradientUnits="userSpaceOnUse">
<stop stop-color="#2E2E79"/>
<stop offset="0.25" stop-color="#2581C4"/>
<stop offset="0.5" stop-color="#E6D6DB"/>
<stop offset="0.75" stop-color="#E3756A"/>
<stop offset="1" stop-color="#C90C0F"/>
</linearGradient>
<clipPath id="clip0_7623_49251">
<rect width="64" height="40" rx="3" fill="white"/>
</clipPath>
</defs>
</svg>
