<svg viewBox="0 0 750 471" xmlns="http://www.w3.org/2000/svg"><g fill="none" fill-rule="evenodd"><rect fill="#0079BE" width="750" height="471" rx="40"/><path d="M584.93 237.95c0-99.42-82.98-168.14-173.9-168.1H332.8c-92-.04-167.73 68.7-167.73 168.1 0 90.93 75.72 165.64 167.73 165.2h78.24c90.91.44 173.9-74.3 173.9-165.2z" fill="#FFF"/><path d="M333.28 83.93c-84.07.03-152.2 68.3-152.21 152.58.02 84.26 68.14 152.53 152.21 152.56 84.09-.03 152.23-68.3 152.24-152.56-.01-84.27-68.15-152.55-152.24-152.58z" fill="#0079BE"/><path d="M237.07 236.1A96.85 96.85 0 01299 145.85v180.48a96.8 96.8 0 01-61.94-90.23zm131 90.27V145.85a96.8 96.8 0 0161.98 90.25 96.83 96.83 0 01-61.98 90.27z" fill="#FFF"/></g></svg>