<svg width="64" height="40" viewBox="0 0 64 40" fill="none" xmlns="http://www.w3.org/2000/svg">
<rect width="64" height="40" rx="3" fill="white"/>
<path d="M10.8809 28.9494C10.8809 29.6976 11.4167 29.7841 11.8931 29.7841C13.9948 29.7841 14.6839 28.2027 14.6839 26.7558C14.6839 24.9415 13.5172 23.631 11.6399 23.631C11.241 23.631 11.0572 23.6589 10.8809 23.6695V28.9494ZM9.92848 24.3967C9.92848 23.5237 9.47077 23.5811 9.034 23.5714V23.3206C9.41258 23.338 9.8016 23.338 10.1814 23.338C10.5897 23.338 11.1446 23.3206 11.8644 23.3206C14.3828 23.3206 15.7546 24.9984 15.7546 26.7175C15.7546 27.6784 15.1912 30.0951 11.7476 30.0951C11.2527 30.0951 10.7938 30.0766 10.3374 30.0766C9.89935 30.0766 9.47077 30.0865 9.034 30.0951V29.8421C9.61611 29.7841 9.89935 29.7649 9.92848 29.1051V24.3967Z" fill="#211D1D"/>
<path d="M17.1372 24.1647C16.883 24.1647 16.6596 23.9313 16.6596 23.6795C16.6596 23.4363 16.8928 23.2123 17.1372 23.2123C17.3888 23.2123 17.6141 23.4167 17.6141 23.6795C17.6141 23.9413 17.3996 24.1647 17.1372 24.1647ZM16.0955 29.8422H16.2804C16.5526 29.8422 16.7469 29.8422 16.7469 29.5209V26.8917C16.7469 26.4647 16.602 26.406 16.2409 26.2133V26.0578C16.6985 25.9208 17.2429 25.738 17.2825 25.7073C17.3505 25.6694 17.4082 25.6596 17.4575 25.6596C17.5059 25.6596 17.525 25.7171 17.525 25.7948V29.5209C17.525 29.8422 17.7402 29.8422 18.0114 29.8422H18.177V30.0954C17.8461 30.0954 17.5059 30.0762 17.1558 30.0762C16.8055 30.0762 16.4554 30.086 16.0955 30.0954V29.8422Z" fill="#211D1D"/>
<path d="M19.1011 26.9495C19.1011 26.5916 18.9941 26.494 18.5377 26.3105V26.1248C18.9552 25.989 19.3537 25.862 19.8212 25.6595C19.8503 25.6595 19.8788 25.6787 19.8788 25.7552V26.3878C20.4342 25.989 20.911 25.6595 21.563 25.6595C22.3894 25.6595 22.6813 26.2606 22.6813 27.018V29.5211C22.6813 29.8426 22.8959 29.8426 23.1675 29.8426H23.3425V30.0951C23.0012 30.0951 22.661 30.0764 22.3122 30.0764C21.9615 30.0764 21.6112 30.0865 21.2611 30.0951V29.8426H21.4361C21.7089 29.8426 21.902 29.8426 21.902 29.5211V27.0088C21.902 26.4545 21.563 26.1835 21.0075 26.1835C20.6964 26.1835 20.201 26.4353 19.8788 26.6494V29.5211C19.8788 29.8426 20.0946 29.8426 20.3666 29.8426H20.5416V30.0951C20.201 30.0951 19.8595 30.0764 19.5088 30.0764C19.16 30.0764 18.8093 30.0865 18.4592 30.0951V29.8426H18.6352C18.9068 29.8426 19.1011 29.8426 19.1011 29.5211V26.9495Z" fill="#211D1D"/>
<path d="M25.8046 27.1051C26.0465 27.1051 26.0749 26.9793 26.0749 26.8631C26.0749 26.3669 25.7738 25.9695 25.2294 25.9695C24.6367 25.9695 24.228 26.4058 24.1112 27.1051H25.8046ZM24.0827 27.4168C24.0622 27.5039 24.0622 27.649 24.0827 27.9791C24.1397 28.902 24.7339 29.6588 25.5115 29.6588C26.0465 29.6588 26.4664 29.3668 26.8253 29.0081L26.9614 29.1439C26.5136 29.7358 25.96 30.2402 25.1626 30.2402C23.615 30.2402 23.3044 28.7459 23.3044 28.1249C23.3044 26.2225 24.5879 25.6594 25.2678 25.6594C26.0565 25.6594 26.9038 26.154 26.9124 27.1824C26.9124 27.2421 26.9124 27.2996 26.9038 27.3581L26.8149 27.4168H24.0827Z" fill="#211D1D"/>
<path d="M27.136 29.8424H27.3994C27.6716 29.8424 27.8647 29.8424 27.8647 29.5209V26.7944C27.8647 26.4943 27.5058 26.4356 27.3599 26.3573V26.2133C28.0694 25.9116 28.4597 25.6596 28.5474 25.6596C28.605 25.6596 28.6341 25.6876 28.6341 25.7856V26.6586H28.655C28.8971 26.2808 29.3058 25.6596 29.8989 25.6596C30.142 25.6596 30.4526 25.8235 30.4526 26.1732C30.4526 26.4356 30.2696 26.6696 29.9961 26.6696C29.6938 26.6696 29.6938 26.4356 29.3542 26.4356C29.189 26.4356 28.6439 26.6586 28.6439 27.2423V29.5209C28.6439 29.8424 28.8383 29.8424 29.1105 29.8424H29.6555V30.0954C29.1203 30.0862 28.7126 30.0762 28.2945 30.0762C27.895 30.0762 27.4867 30.0862 27.136 30.0954V29.8424Z" fill="#211D1D"/>
<path d="M30.8805 28.7461C31.0078 29.3861 31.3968 29.9306 32.107 29.9306C32.6803 29.9306 32.8933 29.5806 32.8933 29.2411C32.8933 28.0961 30.7746 28.4635 30.7746 26.9016C30.7746 26.3573 31.2126 25.6597 32.2827 25.6597C32.5932 25.6597 33.0114 25.7468 33.3905 25.9407L33.4592 26.9306H33.2358C33.1388 26.3195 32.7974 25.9691 32.1751 25.9691C31.7855 25.9691 31.4167 26.1931 31.4167 26.6103C31.4167 27.7465 33.6726 27.3968 33.6726 28.9208C33.6726 29.5608 33.1573 30.2404 32.0007 30.2404C31.6098 30.2404 31.1534 30.1053 30.8131 29.9114L30.7061 28.7948L30.8805 28.7461Z" fill="#211D1D"/>
<path d="M42.4559 25.0765H42.2128C42.0285 23.9413 41.2207 23.485 40.1326 23.485C39.0124 23.485 37.3874 24.232 37.3874 26.5604C37.3874 28.5225 38.7908 29.9306 40.2873 29.9306C41.2502 29.9306 42.0481 29.2707 42.2431 28.2509L42.4659 28.3084L42.2431 29.7263C41.8342 29.9793 40.734 30.2404 40.0918 30.2404C37.816 30.2404 36.378 28.775 36.378 26.5911C36.378 24.6012 38.1569 23.1741 40.0639 23.1741C40.852 23.1741 41.6098 23.4265 42.3587 23.6881L42.4559 25.0765Z" fill="#211D1D"/>
<path d="M42.8059 29.8424H42.9914C43.2642 29.8424 43.4589 29.8424 43.4589 29.5209V24.1172C43.4589 23.4852 43.313 23.4653 42.943 23.3592V23.2035C43.3316 23.0771 43.7405 22.9037 43.9451 22.7859C44.0517 22.7278 44.1302 22.6785 44.1587 22.6785C44.2179 22.6785 44.2365 22.737 44.2365 22.8153V29.5209C44.2365 29.8424 44.4511 29.8424 44.7234 29.8424H44.8885V30.0954C44.5594 30.0954 44.2179 30.0762 43.8666 30.0762C43.5177 30.0762 43.1676 30.0862 42.8059 30.0954V29.8424Z" fill="#211D1D"/>
<path d="M49.0525 29.5606C49.0525 29.7364 49.1582 29.7452 49.3246 29.7452C49.4404 29.7452 49.5876 29.7364 49.7143 29.7364V29.9408C49.2943 29.979 48.4976 30.1827 48.3115 30.2408L48.2637 30.2118V29.4266C47.6812 29.9019 47.2321 30.2408 46.5406 30.2408C46.0161 30.2408 45.4723 29.9019 45.4723 29.0871V26.6015C45.4723 26.3483 45.4327 26.1051 44.8896 26.0576V25.8732C45.2403 25.8625 46.0161 25.8057 46.1434 25.8057C46.2516 25.8057 46.2516 25.8732 46.2516 26.0867V28.5902C46.2516 28.8811 46.2516 29.7162 47.0973 29.7162C47.4269 29.7162 47.8649 29.4632 48.2732 29.1259V26.5126C48.2732 26.3192 47.8067 26.2131 47.4572 26.1151V25.9405C48.3324 25.8818 48.8781 25.8057 48.9745 25.8057C49.0525 25.8057 49.0525 25.8732 49.0525 25.9804V29.5606Z" fill="#211D1D"/>
<path d="M50.9871 28.9981C50.9871 29.3673 51.3372 29.9883 51.9898 29.9883C53.0313 29.9883 53.4689 28.9684 53.4689 28.1043C53.4689 27.0568 52.6709 26.1835 51.9126 26.1835C51.5508 26.1835 51.2501 26.4167 50.9871 26.6408V28.9981ZM50.9871 26.3575C51.3764 26.0284 51.9025 25.6599 52.4371 25.6599C53.5654 25.6599 54.2465 26.6408 54.2465 27.6975C54.2465 28.9684 53.313 30.2407 51.9206 30.2407C51.2007 30.2407 50.8225 30.0079 50.569 29.9017L50.2777 30.1241L50.0742 30.0177C50.1597 29.4456 50.2091 28.8815 50.2091 28.2902V24.1173C50.2091 23.4852 50.0635 23.465 49.6938 23.3588V23.2033C50.0841 23.0774 50.4911 22.9037 50.6959 22.7853C50.8022 22.728 50.8801 22.6785 50.9105 22.6785C50.9685 22.6785 50.9871 22.7372 50.9871 22.8156V26.3575Z" fill="#211D1D"/>
<path d="M9.02313 35.7384H9.09691C9.28712 35.7384 9.48882 35.7135 9.48882 35.4377V32.6712C9.48882 32.3954 9.28712 32.3705 9.09691 32.3705H9.02313V32.2097C9.23013 32.2097 9.54701 32.2318 9.8069 32.2318C10.0715 32.2318 10.3886 32.2097 10.6368 32.2097V32.3705H10.563C10.3728 32.3705 10.1712 32.3954 10.1712 32.6712V35.4377C10.1712 35.7135 10.3728 35.7384 10.563 35.7384H10.6368V35.8979C10.3833 35.8979 10.0652 35.8771 9.80118 35.8771C9.54129 35.8771 9.23013 35.8979 9.02313 35.8979V35.7384Z" fill="#211D1D"/>
<path d="M10.6143 35.875L10.615 35.7625H10.5637C10.3747 35.7625 10.1491 35.7294 10.148 35.4375V32.6709C10.1491 32.3791 10.3747 32.3466 10.5637 32.3466H10.6143V32.2344C10.3702 32.2344 10.0636 32.2549 9.80717 32.2549C9.55588 32.2549 9.25113 32.2351 9.04633 32.2344V32.3466H9.09697C9.28555 32.3466 9.51123 32.3791 9.51123 32.6709V35.4375C9.51123 35.7294 9.28555 35.7625 9.09697 35.7625H9.04633V35.875C9.25113 35.8721 9.55079 35.8535 9.80145 35.8535C10.0589 35.8535 10.3655 35.8734 10.6143 35.875ZM10.6371 35.9204C10.3817 35.9204 10.0642 35.8995 9.80145 35.8995C9.54198 35.8995 9.23082 35.9204 9.02319 35.9204H9V35.8977V35.7392V35.7167H9.02319H9.09697C9.28901 35.712 9.46406 35.6962 9.46532 35.4375V32.6709C9.46406 32.4126 9.28901 32.3952 9.09697 32.3917H9V32.3703V32.1886H9.02319C9.23082 32.1886 9.54791 32.2089 9.80717 32.2089C10.0706 32.2089 10.387 32.1886 10.6371 32.1886H10.6605V32.2119V32.3917H10.6371H10.5637C10.3712 32.3952 10.1952 32.4126 10.1946 32.6709V35.4375C10.1952 35.6962 10.3712 35.712 10.5637 35.7167H10.6605V35.7392V35.9204H10.6371Z" fill="#211D1D"/>
<path d="M14.2736 34.857L14.2841 34.8466V32.8659C14.2841 32.4328 13.9824 32.3703 13.8228 32.3703H13.7072V32.2101C13.9555 32.2101 14.1998 32.2316 14.448 32.2316C14.6645 32.2316 14.8826 32.2101 15.0984 32.2101V32.3703H15.0205C14.7971 32.3703 14.5476 32.4116 14.5476 33.0399V35.4438C14.5476 35.6283 14.554 35.813 14.5802 35.9767H14.3789L11.6531 32.9454V35.1205C11.6531 35.5815 11.7427 35.738 12.1503 35.738H12.2399V35.8977C12.013 35.8977 11.7851 35.8768 11.5572 35.8768C11.3204 35.8768 11.0761 35.8977 10.8384 35.8977V35.738H10.9122C11.2774 35.738 11.3891 35.4915 11.3891 35.0683V32.8444C11.3891 32.5484 11.1442 32.3703 10.9068 32.3703H10.8384V32.2101C11.0384 32.2101 11.2454 32.2316 11.4461 32.2316C11.6054 32.2316 11.7595 32.2101 11.9177 32.2101L14.2736 34.857Z" fill="#211D1D"/>
<path d="M14.2611 34.8464V34.8446L14.2563 34.8411L14.2611 34.8464ZM14.3785 35.9538H14.5542C14.5304 35.7953 14.5263 35.6187 14.5263 35.4441V33.0397C14.5263 32.4059 14.7919 32.3468 15.0201 32.3468H15.0758V32.2341C14.867 32.2353 14.6583 32.2552 14.4482 32.2552C14.2057 32.2552 13.9696 32.2353 13.73 32.2341V32.3468H13.8225C13.986 32.3468 14.3064 32.4188 14.3064 32.8663L14.3 34.8626L14.2889 34.8726L14.2709 34.8894L11.9179 32.2341C11.7603 32.2341 11.6068 32.2552 11.4463 32.2552C11.2526 32.2552 11.0529 32.2353 10.8611 32.2341L10.8605 32.3468H10.907C11.1554 32.3468 11.4112 32.536 11.4112 32.8448V35.0685C11.4112 35.4917 11.2932 35.7611 10.9123 35.7627L10.8611 35.7611V35.8752C11.0902 35.8724 11.3258 35.8533 11.5574 35.8533C11.7789 35.8533 11.9987 35.8724 12.2167 35.8752V35.7627H12.1499C11.7334 35.7611 11.6299 35.5811 11.6299 35.1209V32.8859L14.3785 35.9538ZM14.5798 36L14.3615 35.992L11.6754 33.005V35.1209C11.6824 35.5811 11.7521 35.7112 12.1499 35.7169H12.2639V35.7384V35.92H12.2401C12.0116 35.92 11.7834 35.8998 11.5574 35.8998C11.3213 35.8998 11.0782 35.92 10.8373 35.92H10.814V35.8973V35.7169H10.8373H10.9123C11.2624 35.7141 11.3618 35.4901 11.3665 35.0685V32.8448C11.3653 32.5638 11.1339 32.3926 10.907 32.392H10.814V32.3683V32.1882H10.8373C11.0402 32.1882 11.2466 32.2093 11.4463 32.2093C11.6033 32.2093 11.7568 32.1882 11.9353 32.1964L14.2611 34.8086V32.8663C14.2582 32.446 13.9778 32.3954 13.8225 32.392H13.6829V32.3683V32.1882H13.7069C13.9563 32.1882 14.2006 32.2093 14.4482 32.2093C14.6628 32.2093 14.8805 32.1882 15.0986 32.1882H15.1223V32.2097V32.392H15.0986H15.0201C14.8007 32.3985 14.5773 32.4182 14.571 33.0397V35.4441C14.571 35.6275 14.5763 35.812 14.6017 35.9734L14.6064 36H14.5798Z" fill="#211D1D"/>
<path d="M15.891 32.4746C15.4937 32.4746 15.4794 32.5697 15.3991 32.9553H15.2408C15.2623 32.8078 15.2879 32.6597 15.3048 32.5059C15.3252 32.3586 15.3361 32.2099 15.3361 32.058H15.4636C15.506 32.2162 15.638 32.2099 15.7811 32.2099H18.5123C18.6547 32.2099 18.7873 32.2054 18.7984 32.0469L18.924 32.069C18.9048 32.2099 18.8833 32.3533 18.8668 32.4961C18.856 32.6382 18.856 32.7816 18.856 32.9238L18.6978 32.9831C18.6873 32.7869 18.66 32.4746 18.3059 32.4746H17.438V35.2847C17.438 35.6928 17.6235 35.7386 17.8771 35.7386H17.9771V35.8975C17.7713 35.8975 17.4001 35.8767 17.1146 35.8767C16.7977 35.8767 16.4261 35.8975 16.2197 35.8975V35.7386H16.3201C16.6122 35.7386 16.7594 35.713 16.7594 35.2964V32.4746H15.891Z" fill="#211D1D"/>
<path d="M17.9783 35.9203C17.7695 35.9203 17.3991 35.8992 17.1146 35.8992C16.7977 35.8992 16.4284 35.9203 16.2195 35.9203H16.1974V35.8976V35.7165H16.2195H16.3208C16.6126 35.7096 16.7303 35.7061 16.736 35.2962V32.4974H15.891V32.4746V32.4525H16.7826V35.2962C16.7826 35.7194 16.6116 35.763 16.3208 35.763H16.2429V35.8742C16.4522 35.8726 16.8076 35.8534 17.1146 35.8534C17.3909 35.8534 17.7445 35.8726 17.9539 35.8742V35.763H17.8771C17.6211 35.763 17.4141 35.7008 17.4141 35.2848V32.4525H18.3057C18.6611 32.4532 18.7076 32.7538 18.7187 32.95L18.8343 32.9077C18.8343 32.7706 18.8349 32.6326 18.8437 32.4926C18.8587 32.358 18.8785 32.2226 18.8984 32.0874L18.8181 32.0742C18.7919 32.2273 18.6436 32.2361 18.5117 32.2343H15.7817H15.7536C15.6286 32.2343 15.4937 32.228 15.4466 32.0811H15.3582C15.3582 32.2273 15.3478 32.3685 15.3269 32.51C15.3117 32.6544 15.2886 32.7943 15.2687 32.9324H15.3816C15.4519 32.5656 15.4966 32.4462 15.891 32.4525V32.4746V32.4974C15.5001 32.5053 15.5089 32.5703 15.4216 32.9608L15.4187 32.979H15.3996H15.2139L15.2175 32.9516C15.2379 32.8044 15.2658 32.6563 15.2822 32.5024C15.3031 32.3562 15.3136 32.2094 15.3136 32.058V32.0347H15.3361H15.4817L15.4851 32.0514C15.5216 32.185 15.6188 32.1856 15.7536 32.1885H15.7817H18.5117C18.6582 32.1856 18.7662 32.1832 18.775 32.0451L18.7767 32.0208L18.8007 32.0255L18.9495 32.0486L18.9472 32.0713C18.9263 32.2135 18.9054 32.3562 18.8902 32.4974C18.8792 32.6389 18.8792 32.7816 18.8792 32.9238V32.94L18.864 32.9465L18.6763 33.0148L18.6756 32.9831C18.6611 32.7851 18.6402 32.4974 18.3057 32.4974H17.4606V35.2848C17.4659 35.6834 17.6248 35.7112 17.8771 35.7165H17.9999V35.7386V35.9203H17.9783Z" fill="#211D1D"/>
<path d="M19.094 35.7384H19.1678C19.358 35.7384 19.5593 35.7135 19.5593 35.4377V32.6712C19.5593 32.3954 19.358 32.3705 19.1678 32.3705H19.094V32.2097C19.4155 32.2097 19.9682 32.2318 20.4113 32.2318C20.8567 32.2318 21.4064 32.2097 21.7651 32.2097C21.7565 32.4378 21.7616 32.7872 21.7774 33.0193L21.6173 33.0619C21.5925 32.7186 21.5286 32.4444 20.9725 32.4444H20.2385V33.8266H20.8665C21.1846 33.8266 21.2539 33.6485 21.2848 33.3629H21.4429C21.4331 33.5689 21.4273 33.7744 21.4273 33.9804C21.4273 34.1819 21.4331 34.3821 21.4429 34.5824L21.2848 34.6143C21.2539 34.2973 21.2377 34.0913 20.8718 34.0913H20.2385V35.3216C20.2385 35.6652 20.5443 35.6652 20.8823 35.6652C21.5185 35.6652 21.7983 35.6228 21.9571 35.0211L22.1047 35.0581C22.0363 35.3389 21.9727 35.6171 21.9252 35.8979C21.5872 35.8979 20.9776 35.8771 20.5015 35.8771C20.0245 35.8771 19.3953 35.8979 19.094 35.8979V35.7384Z" fill="#211D1D"/>
<path d="M21.9059 35.8742C21.9512 35.6079 22.0117 35.3408 22.0775 35.0751L21.9727 35.0489C21.8141 35.6404 21.5075 35.6926 20.8823 35.6879C20.5484 35.6879 20.2154 35.6879 20.2135 35.3217V34.0687H20.8718C21.2416 34.064 21.2783 34.2876 21.3045 34.5881L21.4191 34.5643C21.4099 34.37 21.4046 34.1737 21.4046 33.9806C21.4046 33.7826 21.4099 33.5846 21.4191 33.3846H21.3045C21.2754 33.6607 21.19 33.8534 20.8661 33.8499H20.2135V32.42H20.9725C21.5232 32.4171 21.615 32.7008 21.6378 33.0318L21.7518 33.0009C21.743 32.8518 21.7378 32.6619 21.7378 32.4856C21.7378 32.3932 21.7395 32.3091 21.7419 32.2343C21.3824 32.2355 20.8462 32.2551 20.4113 32.2551C19.9768 32.2551 19.4406 32.2355 19.1167 32.2343V32.3468H19.1678C19.3567 32.3468 19.582 32.3793 19.583 32.6707V35.4377C19.582 35.7292 19.3567 35.7605 19.1678 35.7627H19.1167V35.8742C19.4244 35.873 20.0366 35.8533 20.5015 35.8533C20.9684 35.8533 21.564 35.873 21.9059 35.8742ZM21.9252 35.92C21.5856 35.92 20.977 35.8985 20.5015 35.8985C20.0245 35.8985 19.3963 35.92 19.094 35.92H19.0706V35.8975V35.7384V35.7169H19.094H19.1678C19.3592 35.7134 19.5342 35.696 19.5359 35.4377V32.6707C19.5342 32.4136 19.3592 32.3963 19.1678 32.3915H19.0706V32.3701V32.1884H19.094C19.4162 32.1884 19.9682 32.2093 20.4113 32.2093C20.8557 32.2093 21.4052 32.1884 21.7651 32.1884H21.7891V32.2116C21.7844 32.2911 21.7825 32.3846 21.7825 32.4856C21.7825 32.6673 21.7891 32.8669 21.7989 33.0172V33.0363L21.7821 33.0416L21.5958 33.0903L21.5954 33.0625C21.564 32.7206 21.5185 32.4711 20.9725 32.4664H20.2594V33.8035H20.8661C21.1719 33.8012 21.2254 33.6451 21.2615 33.36L21.2637 33.3398H21.2836H21.4675V33.3631C21.4564 33.569 21.4499 33.7744 21.4499 33.9806C21.4499 34.1802 21.4564 34.3809 21.4675 34.5823V34.6004L21.4482 34.605L21.2637 34.641L21.2615 34.6165C21.2254 34.2946 21.2238 34.1181 20.8718 34.114L20.2594 34.1127V35.3217C20.26 35.6427 20.537 35.641 20.8823 35.6427C21.5204 35.6392 21.7749 35.6079 21.9344 35.0147L21.9397 34.9933L21.9623 34.998L22.1316 35.0413L22.1268 35.0634C22.0582 35.342 21.9955 35.6224 21.9477 35.901L21.9442 35.92H21.9252Z" fill="#211D1D"/>
<path d="M23.4975 33.9958H23.7555C24.2856 33.9958 24.5711 33.7961 24.5711 33.1723C24.5711 32.7033 24.2691 32.401 23.7982 32.401C23.6383 32.401 23.5706 32.4177 23.4975 32.4224V33.9958ZM22.8198 32.7705C22.8198 32.3846 22.6081 32.3701 22.4441 32.3701H22.3476V32.2099C22.5169 32.2099 22.8455 32.2314 23.1689 32.2314C23.4852 32.2314 23.7399 32.2099 24.0214 32.2099C24.6867 32.2099 25.2794 32.3899 25.2794 33.141C25.2794 33.6155 24.963 33.9057 24.5448 34.0712L25.4504 35.4216C25.5982 35.6457 25.7027 35.7077 25.9628 35.7386V35.8975C25.7882 35.8975 25.6191 35.8767 25.4445 35.8767C25.2794 35.8767 25.1107 35.8975 24.9468 35.8975C24.5395 35.3647 24.1894 34.7938 23.8457 34.1856H23.4975V35.316C23.4975 35.7241 23.6871 35.7386 23.9301 35.7386H24.0267V35.8975C23.7238 35.8975 23.4171 35.8767 23.1152 35.8767C22.8617 35.8767 22.6128 35.8975 22.3476 35.8975V35.7386H22.4441C22.6384 35.7386 22.8198 35.6498 22.8198 35.4537V32.7705Z" fill="#211D1D"/>
<path d="M23.7557 33.9732C24.2792 33.9681 24.5438 33.7869 24.5486 33.1729C24.5463 32.7121 24.2583 32.4261 23.7978 32.4231C23.6547 32.4231 23.5877 32.436 23.5202 32.4435V33.9732H23.7557ZM23.4965 34.0181H23.4737V32.4006L23.4936 32.3987C23.5664 32.393 23.6372 32.3791 23.7978 32.3791C24.2792 32.3791 24.5932 32.6918 24.5945 33.1729C24.5926 33.8033 24.289 34.0181 23.7557 34.0181H23.4965ZM23.4965 34.1631H23.8582L23.8645 34.1747C24.2089 34.7822 24.5572 35.3522 24.9468 35.875C25.1085 35.875 25.2791 35.8536 25.443 35.8536C25.6121 35.8536 25.7757 35.8718 25.9403 35.874V35.7578C25.6912 35.7284 25.5756 35.6539 25.4313 35.4353L24.5096 34.0597L24.5362 34.0487C24.9505 33.8863 25.2569 33.6043 25.2575 33.14C25.2569 32.4081 24.6859 32.2369 24.0216 32.2345C23.7418 32.2345 23.4866 32.255 23.1691 32.255C22.8567 32.255 22.5438 32.2351 22.3706 32.2345V32.3472H22.4437C22.6077 32.3472 22.841 32.3738 22.841 32.7708V35.4537C22.841 35.6662 22.6432 35.7625 22.4437 35.7625H22.3706V35.874C22.6258 35.8734 22.866 35.8536 23.1144 35.8536C23.411 35.8536 23.7092 35.8734 24.0023 35.874V35.7625H23.9303C23.6889 35.7625 23.4737 35.7329 23.4737 35.3162V34.1631H23.4965ZM25.9628 35.9198C25.7855 35.9198 25.6175 35.8996 25.443 35.8996C25.2825 35.8996 25.1126 35.9198 24.9277 35.9123C24.5229 35.3801 24.1751 34.8131 23.8326 34.2089H23.5202V35.3162C23.5256 35.7139 23.6854 35.7104 23.9303 35.7167H24.0488V35.7382V35.9198H24.0251C23.7221 35.9198 23.4144 35.8996 23.1144 35.8996C22.8612 35.8996 22.6137 35.9198 22.3472 35.9198H22.3257V35.8977V35.7167H22.3472H22.4437C22.6346 35.7149 22.7938 35.632 22.7957 35.4537V32.7708C22.7922 32.3965 22.6077 32.3971 22.4437 32.3918H22.3257V32.3703V32.1887H22.3472C22.52 32.1887 22.8463 32.2089 23.1691 32.2089C23.4841 32.2089 23.7389 32.1887 24.0216 32.1887C24.6875 32.1887 25.3022 32.3738 25.304 33.14C25.304 33.6169 24.9876 33.9148 24.5799 34.0806L25.4686 35.4091C25.6162 35.6284 25.7082 35.6836 25.9659 35.7167L25.985 35.7184V35.7382V35.9198H25.9628Z" fill="#211D1D"/>
<path d="M29.5558 34.857L29.5659 34.8466V32.8659C29.5659 32.4328 29.2646 32.3703 29.1064 32.3703H28.9895V32.2101C29.239 32.2101 29.4809 32.2316 29.7309 32.2316C29.9486 32.2316 30.1648 32.2101 30.3823 32.2101V32.3703H30.3038C30.081 32.3703 29.8315 32.4116 29.8315 33.0399V35.4438C29.8315 35.6283 29.8362 35.813 29.8623 35.9767H29.6625L26.9364 32.9454V35.1205C26.9364 35.5815 27.0266 35.738 27.4343 35.738H27.525V35.8977C27.2965 35.8977 27.0686 35.8768 26.8411 35.8768C26.6027 35.8768 26.3596 35.8977 26.1216 35.8977V35.738H26.1944C26.5609 35.738 26.6714 35.4915 26.6714 35.0683V32.8444C26.6714 32.5484 26.4277 32.3703 26.1903 32.3703H26.1216V32.2101C26.3217 32.2101 26.5299 32.2316 26.73 32.2316C26.8882 32.2316 27.0417 32.2101 27.2006 32.2101L29.5558 34.857Z" fill="#211D1D"/>
<path d="M29.5431 34.8464V34.8446L29.5402 34.8411L29.5431 34.8464ZM29.6625 35.9538H29.8352C29.8131 35.7959 29.8084 35.6187 29.8084 35.4441V33.0397C29.8084 32.4059 30.0765 32.348 30.3033 32.3468H30.3585V32.2341C30.1504 32.2353 29.941 32.2552 29.7311 32.2552C29.4886 32.2552 29.2513 32.2353 29.0129 32.2341V32.3468H29.1066C29.2693 32.348 29.5903 32.4188 29.5903 32.8663L29.5827 34.8626L29.5729 34.8726L29.556 34.8904L27.2006 32.2341C27.0436 32.2341 26.8888 32.2552 26.7302 32.2552C26.5336 32.2552 26.3358 32.2353 26.144 32.2341V32.3468H26.1899C26.4387 32.348 26.6941 32.5347 26.6941 32.8448V35.0681C26.6941 35.4917 26.5738 35.7611 26.194 35.7627H26.144V35.8742C26.3731 35.8724 26.6086 35.8533 26.8413 35.8533C27.0622 35.8533 27.2819 35.8724 27.5013 35.8742V35.7627H27.4345C27.0173 35.7627 26.9134 35.5817 26.9122 35.1209V32.8859L29.6625 35.9538ZM29.8625 36L29.645 35.992L26.9593 33.005V35.1209C26.9657 35.5817 27.0354 35.7112 27.4345 35.7169H27.5465V35.7384V35.92H27.524C27.2948 35.92 27.0675 35.8985 26.8413 35.8985C26.6045 35.8985 26.3592 35.92 26.1218 35.92H26.0968V35.8973V35.7169H26.1218H26.194C26.5435 35.7151 26.6447 35.4901 26.6482 35.0681V32.8448C26.647 32.5628 26.4172 32.3926 26.1899 32.392H26.0968V32.3705V32.1882H26.1218C26.3231 32.1882 26.5308 32.2093 26.7302 32.2093C26.886 32.2093 27.0389 32.1882 27.2163 32.1948L29.5431 34.8086V32.8663C29.5427 32.446 29.2601 32.3944 29.1066 32.392H28.9664V32.3705V32.1882H28.9895C29.2402 32.1882 29.4839 32.2093 29.7311 32.2093C29.9463 32.2093 30.1638 32.1882 30.3819 32.1882H30.4046V32.2122V32.392H30.3819H30.3033C30.0853 32.3973 29.8602 32.4182 29.8543 33.0397V35.4441C29.8543 35.6275 29.859 35.8104 29.8858 35.9734L29.8881 36H29.8625Z" fill="#211D1D"/>
<path d="M32.0066 32.8023H31.996L31.5035 34.2973H32.4928L32.0066 32.8023ZM31.2347 35.1424C31.1806 35.3216 31.1163 35.4604 31.1163 35.5537C31.1163 35.7128 31.3401 35.7384 31.5139 35.7384H31.5727V35.8973C31.3598 35.8869 31.1435 35.8771 30.9312 35.8771C30.7405 35.8771 30.5507 35.8869 30.3607 35.8973V35.7384H30.3915C30.5979 35.7384 30.7735 35.6171 30.851 35.3954L31.699 32.9725C31.7675 32.7763 31.864 32.5127 31.8949 32.3159C32.064 32.2584 32.2764 32.1535 32.377 32.0897L32.4188 32.0799L32.4561 32.0948L32.5043 32.2271L33.4773 34.9896C33.5408 35.1743 33.6047 35.3705 33.6728 35.5288C33.7368 35.6762 33.8485 35.7384 34.0229 35.7384H34.0536V35.8973C33.8165 35.8869 33.5779 35.8771 33.3244 35.8771C33.0657 35.8771 32.8005 35.8869 32.5311 35.8973V35.7384H32.5894C32.7103 35.7384 32.9167 35.7186 32.9167 35.5862C32.9167 35.5173 32.8696 35.3745 32.8097 35.2056L32.6039 34.5926H31.4024L31.2347 35.1424Z" fill="#211D1D"/>
<path d="M31.5342 34.275H32.4607L32.0001 32.8587L31.5342 34.275ZM31.4707 34.3208L31.9779 32.7798H31.996H32.0064H32.022L32.5246 34.3208H31.4707ZM32.5531 35.8726C32.8142 35.8644 33.0719 35.8534 33.3242 35.8534C33.571 35.8534 33.8005 35.8644 34.0309 35.8726V35.763H34.0227C33.8426 35.7646 33.7179 35.692 33.6517 35.5378C33.583 35.3776 33.5185 35.1815 33.4562 34.9968L32.4822 32.2343L32.4367 32.1067L32.4287 32.1013H32.4189L32.3885 32.1085C32.2862 32.174 32.0733 32.2785 31.9163 32.3196C31.8843 32.5204 31.789 32.7833 31.7197 32.979L30.8736 35.4036C30.7927 35.6329 30.6071 35.763 30.3913 35.763H30.3833V35.8726C30.5641 35.8644 30.7477 35.8534 30.9316 35.8534C31.1364 35.8534 31.3452 35.8644 31.5475 35.8726V35.763H31.5139C31.3411 35.7605 31.1003 35.7419 31.0946 35.5545C31.0946 35.4494 31.1585 35.3138 31.2114 35.136L31.2347 35.1424L31.2114 35.1354L31.3858 34.5709H32.6189L32.831 35.1982C32.8911 35.3682 32.9393 35.5087 32.9393 35.5864C32.9311 35.7484 32.7082 35.7599 32.5892 35.763H32.5531V35.8726ZM34.0524 35.9202C33.8157 35.9102 33.578 35.8988 33.3242 35.8988C33.0655 35.8988 32.802 35.9102 32.531 35.9202L32.5072 35.9219V35.8975V35.7147H32.531H32.5892C32.7107 35.7147 32.8921 35.6881 32.8921 35.5864C32.8934 35.5261 32.8474 35.3811 32.7886 35.2134L32.5873 34.6161H31.4196L31.2544 35.1489C31.2003 35.3299 31.1382 35.4692 31.1382 35.5545C31.1399 35.6834 31.3381 35.7147 31.5139 35.7147H31.5947V35.739V35.9219L31.5709 35.9202C31.3592 35.9102 31.1421 35.8988 30.9316 35.8988C30.7414 35.8988 30.5508 35.9102 30.3612 35.9202L30.3378 35.9219V35.8975V35.7147H30.3606H30.3913C30.5885 35.7147 30.7525 35.6022 30.8287 35.388L31.6766 32.9645C31.7463 32.7683 31.8413 32.5053 31.8872 32.2952C32.053 32.2378 32.2651 32.1316 32.3682 32.0678L32.4189 32.0549L32.4763 32.0868L32.5246 32.2191L33.4998 34.9822C33.5622 35.1667 33.6255 35.3619 33.6942 35.5173C33.7552 35.659 33.853 35.7147 34.0227 35.7147H34.0774V35.739V35.9219L34.0524 35.9202Z" fill="#211D1D"/>
<path d="M34.2877 32.4746C33.8899 32.4746 33.8747 32.5697 33.7952 32.9553H33.6357C33.6572 32.8078 33.6839 32.6597 33.6997 32.5059C33.7212 32.3586 33.7316 32.2099 33.7316 32.058H33.8585C33.901 32.2162 34.0335 32.2099 34.176 32.2099H36.9072C37.0497 32.2099 37.181 32.2054 37.1921 32.0469L37.3194 32.069C37.2991 32.2099 37.2788 32.3533 37.2614 32.4961C37.2485 32.6382 37.2485 32.7816 37.2485 32.9238L37.0915 32.9831C37.0829 32.7869 37.0547 32.4746 36.7006 32.4746H35.8324V35.2847C35.8324 35.6928 36.0179 35.7386 36.272 35.7386H36.372V35.8975C36.1663 35.8975 35.7956 35.8767 35.5095 35.8767C35.1926 35.8767 34.821 35.8975 34.614 35.8975V35.7386H34.7151C35.0078 35.7386 35.156 35.713 35.156 35.2964V32.4746H34.2877Z" fill="#211D1D"/>
<path d="M36.3716 35.9203C36.1652 35.9203 35.7949 35.8992 35.5097 35.8992C35.1935 35.8992 34.8235 35.9203 34.6143 35.9203H34.5921V35.8976V35.7165H34.6143H34.7153C35.0074 35.7096 35.1236 35.7061 35.1312 35.2962V32.4974H34.2873V32.4746V32.4525H35.1771V35.2962C35.1771 35.7194 35.0067 35.7605 34.7153 35.763H34.6374V35.8748C34.8469 35.8726 35.2021 35.8534 35.5097 35.8534C35.7861 35.8534 36.1402 35.8726 36.3497 35.8748L36.3484 35.763H36.2712C36.0164 35.7605 35.8105 35.7008 35.81 35.2848V32.4525H36.7004C37.0568 32.4532 37.1021 32.7538 37.1126 32.95L37.2278 32.9077C37.2278 32.7706 37.2278 32.6326 37.2388 32.4936C37.2534 32.358 37.2743 32.2226 37.2929 32.0887L37.2139 32.0742C37.1882 32.2273 37.0398 32.2361 36.9068 32.2343H34.1756H34.1489C34.024 32.2349 33.8895 32.228 33.8413 32.0793H33.7546C33.753 32.2273 33.7436 32.3685 33.722 32.51C33.7075 32.6556 33.6818 32.7943 33.6622 32.9324H33.7761C33.8458 32.5656 33.8907 32.445 34.2873 32.4525V32.4746V32.4974C33.8942 32.5043 33.9034 32.5703 33.8173 32.9608L33.8134 32.979H33.7954H33.6087L33.6122 32.9516C33.6337 32.8044 33.6603 32.6563 33.6761 32.5043C33.6976 32.3562 33.7075 32.2094 33.7075 32.058V32.0347H33.7319H33.8749L33.8797 32.0514C33.917 32.185 34.0145 32.1856 34.1489 32.1885H34.1756H36.9068C37.0533 32.1856 37.161 32.1832 37.1696 32.0451L37.1702 32.0208L37.1958 32.0255L37.3464 32.0486L37.3417 32.0713C37.3192 32.2135 37.2999 32.3562 37.2841 32.4974C37.2743 32.6389 37.2743 32.7816 37.2743 32.9238V32.94L37.2581 32.9465L37.0701 33.0148V32.9831C37.0568 32.7851 37.0353 32.4974 36.7004 32.4974H35.8553V35.2848C35.8605 35.6834 36.0193 35.7112 36.2712 35.7165H36.395V35.7386V35.9203H36.3716Z" fill="#211D1D"/>
<path d="M37.5145 35.7384H37.5883C37.7804 35.7384 37.9804 35.7135 37.9804 35.4377V32.6712C37.9804 32.3954 37.7804 32.3705 37.5883 32.3705H37.5145V32.2097C37.7209 32.2097 38.038 32.2318 38.2973 32.2318C38.5619 32.2318 38.8794 32.2097 39.1294 32.2097V32.3705H39.0556C38.8638 32.3705 38.6619 32.3954 38.6619 32.6712V35.4377C38.6619 35.7135 38.8638 35.7384 39.0556 35.7384H39.1294V35.8979C38.8749 35.8979 38.5572 35.8771 38.2925 35.8771C38.0327 35.8771 37.7209 35.8979 37.5145 35.8979V35.7384Z" fill="#211D1D"/>
<path d="M39.1051 35.8742V35.7627H39.0556C38.8654 35.7627 38.6404 35.7292 38.6404 35.4377V32.6707C38.6404 32.3793 38.8654 32.3468 39.0556 32.3468H39.1051V32.2343C38.8607 32.2355 38.5555 32.2551 38.2973 32.2551C38.046 32.2551 37.7424 32.2355 37.5377 32.2343V32.3468H37.5883C37.776 32.3468 38.003 32.3793 38.003 32.6707V35.4377C38.003 35.7292 37.776 35.7627 37.5883 35.7627H37.5377V35.8742C37.7424 35.8713 38.0408 35.8533 38.2925 35.8533C38.5496 35.8533 38.8562 35.8726 39.1051 35.8742ZM39.1294 35.92C38.8736 35.92 38.5565 35.8985 38.2925 35.8985C38.0337 35.8985 37.7209 35.92 37.5145 35.92H37.4924V35.8975V35.7384V35.7169H37.5145H37.5883C37.7802 35.7134 37.9552 35.696 37.9558 35.4377V32.6707C37.9552 32.4136 37.7802 32.3956 37.5883 32.3915H37.4924V32.3701V32.1884H37.5145C37.7209 32.1884 38.039 32.2093 38.2973 32.2093C38.5619 32.2093 38.8788 32.1884 39.1294 32.1884H39.151V32.2099V32.3915H39.1294H39.0556C38.862 32.3956 38.6875 32.4136 38.6857 32.6707V35.4377C38.6875 35.696 38.862 35.7134 39.0556 35.7169H39.151V35.7384V35.92H39.1294Z" fill="#211D1D"/>
<path d="M41.3195 35.7445C42.3476 35.7445 42.5249 34.8409 42.5249 34.0714C42.5249 33.2989 42.1086 32.3645 41.23 32.3645C40.3039 32.3645 40.0288 33.1882 40.0288 33.8951C40.0288 34.8409 40.4628 35.7445 41.3195 35.7445ZM41.2404 32.1318C42.3679 32.1318 43.2677 32.8294 43.2677 33.9548C43.2677 35.1693 42.3948 35.9767 41.2671 35.9767C40.1434 35.9767 39.2885 35.217 39.2885 34.08C39.2885 32.9833 40.1399 32.1318 41.2404 32.1318Z" fill="#211D1D"/>
<path d="M40.0048 33.8949C40.0064 33.1846 40.2856 32.3408 41.2295 32.3408C42.1293 32.3425 42.548 33.2948 42.5487 34.0714C42.548 34.8409 42.366 35.7666 41.3191 35.7666V35.7446V35.7219C42.3271 35.7214 42.5009 34.8409 42.5031 34.0714C42.5031 33.3052 42.0897 32.3883 41.2295 32.3871C40.3217 32.3883 40.053 33.1921 40.0513 33.8949C40.0523 34.8368 40.4822 35.7196 41.3191 35.7219V35.7446V35.7666C40.4416 35.7654 40.0064 34.8462 40.0048 33.8949ZM39.2639 34.0807C39.2667 32.9698 40.128 32.1103 41.2399 32.1081V32.1318V32.1551C40.1507 32.1551 39.3086 32.9944 39.3086 34.0807C39.3104 35.2036 40.1554 35.953 41.2668 35.9534C42.3828 35.953 43.2431 35.1567 43.246 33.9536C43.2453 32.8428 42.359 32.1562 41.2399 32.1551V32.1318V32.1081C42.3765 32.1103 43.2877 32.815 43.2896 33.9536C43.289 35.1811 42.4056 35.9976 41.2668 35.9998C40.135 35.9976 39.2667 35.2281 39.2639 34.0807Z" fill="#211D1D"/>
<path d="M46.8349 34.857L46.8454 34.8466V32.8659C46.8454 32.4328 46.5437 32.3703 46.3832 32.3703H46.2692V32.2101C46.5162 32.2101 46.7611 32.2316 47.0089 32.2316C47.2274 32.2316 47.4439 32.2101 47.6603 32.2101V32.3703H47.5812C47.3578 32.3703 47.109 32.4116 47.109 33.0399V35.4438C47.109 35.6283 47.1153 35.813 47.1416 35.9767H46.9397L44.2145 32.9454V35.1205C44.2145 35.5815 44.304 35.738 44.7123 35.738H44.8019V35.8977C44.5744 35.8977 44.3477 35.8768 44.1189 35.8768C43.8812 35.8768 43.6368 35.8977 43.3985 35.8977V35.738H43.4735C43.84 35.738 43.9486 35.4915 43.9486 35.0683V32.8444C43.9486 32.5484 43.7067 32.3703 43.4671 32.3703H43.3985V32.2101C43.6003 32.2101 43.8061 32.2316 44.008 32.2316C44.1661 32.2316 44.3196 32.2101 44.4784 32.2101L46.8349 34.857Z" fill="#211D1D"/>
<path d="M46.8214 34.8464V34.8446L46.8167 34.8411L46.8214 34.8464ZM46.9394 35.9538H47.1145C47.0913 35.7953 47.0866 35.6187 47.0866 35.4441V33.0397C47.0866 32.4055 47.3541 32.348 47.581 32.3468H47.638V32.2341C47.4281 32.2353 47.2192 32.2552 47.0075 32.2552C46.7679 32.2552 46.5312 32.2353 46.2912 32.2341V32.3468H46.383C46.5482 32.348 46.8673 32.4198 46.8673 32.8663L46.8609 34.8626L46.8517 34.8726L46.8347 34.8904L44.4782 32.2341C44.3224 32.2341 44.1677 32.2552 44.0078 32.2552C43.8123 32.2552 43.6129 32.2353 43.4216 32.2341V32.3468H43.4669C43.7163 32.348 43.9723 32.5347 43.9723 32.8448V35.0685C43.9723 35.4917 43.8543 35.7611 43.4733 35.7627H43.4216V35.8742C43.6512 35.8724 43.8863 35.8533 44.1195 35.8533C44.3405 35.8533 44.5602 35.8724 44.7789 35.8742V35.7627H44.7102C44.295 35.7627 44.1915 35.5817 44.1915 35.1209V32.8859L46.9394 35.9538ZM47.1414 36L46.922 35.992L44.2364 33.005V35.1209C44.2427 35.5817 44.313 35.7106 44.7102 35.7151H44.8254V35.739V35.92H44.8023C44.5731 35.92 44.3456 35.8998 44.1195 35.8998C43.8822 35.8998 43.6391 35.92 43.3983 35.92H43.3767V35.8973V35.7151H43.3983H43.4733C43.8223 35.7141 43.923 35.4901 43.9259 35.0685V32.8448C43.9259 32.5628 43.6955 32.3926 43.4669 32.392H43.3767V32.3705V32.1882H43.3983C43.6012 32.1882 43.8078 32.2093 44.0078 32.2093C44.1642 32.2093 44.3165 32.1882 44.4968 32.1964L46.8214 34.8086V32.8663C46.8204 32.446 46.5393 32.3954 46.383 32.392H46.245V32.3705V32.1882H46.2684C46.5172 32.1882 46.7628 32.2093 47.0075 32.2093C47.2256 32.2093 47.4402 32.1882 47.6601 32.1882H47.6826V32.2097V32.392H47.6601H47.581C47.3635 32.3985 47.1378 32.4182 47.1332 33.0397V35.4441C47.1332 35.6275 47.1378 35.812 47.1622 35.9734L47.1667 36H47.1414Z" fill="#211D1D"/>
<path d="M49.2839 32.8023H49.2732L48.7807 34.2973H49.7723L49.2839 32.8023ZM48.5109 35.1424C48.4591 35.3216 48.3951 35.4604 48.3951 35.5537C48.3951 35.7128 48.619 35.7384 48.7911 35.7384H48.8506V35.8973C48.6382 35.8869 48.4218 35.8771 48.2096 35.8771C48.0172 35.8771 47.8282 35.8869 47.639 35.8973V35.7384H47.6681C47.8758 35.7384 48.0514 35.6171 48.1299 35.3954L48.9779 32.9725C49.0465 32.7763 49.1412 32.5127 49.1728 32.3159C49.3419 32.2584 49.5537 32.1535 49.6542 32.0897L49.6973 32.0799L49.734 32.0948L49.7828 32.2271L50.7558 34.9896C50.8181 35.1743 50.883 35.3705 50.9517 35.5288C51.0146 35.6762 51.1267 35.7384 51.3012 35.7384H51.3327V35.8973C51.0948 35.8869 50.8558 35.8771 50.6022 35.8771C50.3428 35.8771 50.0777 35.8869 49.8078 35.8973V35.7384H49.8666C49.9875 35.7384 50.1952 35.7186 50.1952 35.5862C50.1952 35.5173 50.1468 35.3745 50.0882 35.2056L49.8828 34.5926H48.6825L48.5109 35.1424Z" fill="#211D1D"/>
<path d="M48.8133 34.2737H49.7397L49.278 32.8599L48.8133 34.2737ZM48.7487 34.3189L49.2586 32.7798H49.2732H49.2839H49.3013L49.8014 34.3189H48.7487ZM49.8312 35.8732C50.0921 35.8644 50.3503 35.8534 50.6029 35.8534C50.8482 35.8534 51.0786 35.8644 51.3088 35.8726V35.763H51.3007C51.1216 35.763 50.996 35.692 50.9302 35.5378C50.8592 35.3776 50.7965 35.1815 50.7336 34.9968L49.7606 32.2343L49.7147 32.1085L49.7065 32.1013H49.6973L49.6666 32.1085C49.5641 32.1727 49.3529 32.2791 49.1943 32.3196C49.1627 32.5204 49.0662 32.7833 48.9988 32.979L48.1508 35.4036C48.0701 35.6329 47.8868 35.763 47.6688 35.763H47.66V35.8726C47.8432 35.8644 48.0258 35.8534 48.2103 35.8534C48.4148 35.8534 48.6231 35.8644 48.8284 35.8726V35.763H48.7911C48.6196 35.7605 48.3783 35.7419 48.3718 35.5539C48.373 35.4494 48.4388 35.3142 48.4905 35.136L48.5109 35.1424L48.4905 35.1354L48.6638 34.5709H49.899L50.1103 35.1982C50.1696 35.3682 50.2167 35.5087 50.2167 35.5864C50.2091 35.7484 49.9869 35.7599 49.8654 35.763H49.8312V35.8732ZM51.3315 35.9202C51.0931 35.9108 50.8541 35.8992 50.6029 35.8992C50.344 35.8992 50.0787 35.9108 49.809 35.9202L49.7856 35.9219V35.8975V35.7171H49.8078H49.8654C49.9886 35.7171 50.1714 35.6881 50.1724 35.5864C50.173 35.5261 50.1259 35.3815 50.0654 35.2134L49.8647 34.6161H48.6965L48.5335 35.1489C48.4806 35.3306 48.4167 35.4692 48.4183 35.5539C48.4183 35.6834 48.6167 35.7171 48.7911 35.7171H48.8727V35.7386V35.9219L48.8487 35.9202C48.6376 35.9108 48.4202 35.8992 48.2103 35.8992C48.0194 35.8992 47.8299 35.9108 47.639 35.9202L47.6159 35.9219V35.8975V35.7171H47.639H47.6688C47.8659 35.7147 48.0318 35.6016 48.1084 35.388L48.9557 32.9645C49.0232 32.7683 49.1187 32.5053 49.1646 32.2952C49.3314 32.2378 49.5444 32.1316 49.646 32.0678L49.6973 32.0561L49.7555 32.0874L49.803 32.2191L50.7773 34.9822C50.84 35.1667 50.9042 35.3619 50.9732 35.5185C51.0355 35.659 51.1302 35.7147 51.3007 35.7171H51.3549V35.7386V35.9219L51.3315 35.9202Z" fill="#211D1D"/>
<path d="M52.667 35.3801C52.667 35.5914 52.8142 35.6546 52.9836 35.676C53.2003 35.6924 53.4385 35.6924 53.683 35.6656C53.9039 35.64 54.0959 35.5124 54.1904 35.3801C54.2743 35.2635 54.321 35.1166 54.3546 34.9994H54.5084C54.4491 35.3005 54.3751 35.5971 54.3111 35.8978C53.8462 35.8978 53.3797 35.8769 52.9153 35.8769C52.449 35.8769 51.9827 35.8978 51.5174 35.8978V35.7382H51.59C51.7824 35.7382 51.9884 35.7133 51.9884 35.3848V32.671C51.9884 32.3953 51.7824 32.3703 51.59 32.3703H51.5174V32.2102C51.7976 32.2102 52.0733 32.2316 52.3531 32.2316C52.6234 32.2316 52.8881 32.2102 53.1583 32.2102V32.3703H53.0255C52.8247 32.3703 52.667 32.3756 52.667 32.6559V35.3801Z" fill="#211D1D"/>
<path d="M54.2932 35.8742C54.3546 35.588 54.4244 35.3072 54.4795 35.0217H54.3708C54.3388 35.1383 54.2916 35.2794 54.2077 35.3937C54.1095 35.5312 53.9128 35.66 53.6835 35.6879C53.5444 35.703 53.4069 35.7093 53.2779 35.7093C53.1756 35.7093 53.0748 35.7048 52.9793 35.6983C52.8087 35.6793 52.641 35.606 52.6429 35.3802V32.6556C52.6429 32.3613 52.8283 32.3468 53.0255 32.3468H53.1346V32.2343C52.8744 32.2355 52.616 32.2551 52.3532 32.2551C52.0782 32.2551 51.81 32.2355 51.5395 32.2343V32.3468H51.5901C51.7797 32.3468 52.0107 32.3793 52.0107 32.6701V35.3843C52.0107 35.7263 51.7803 35.7627 51.5901 35.7627H51.5395V35.8742C51.9962 35.873 52.4549 35.8533 52.9158 35.8533C53.3749 35.8533 53.8341 35.873 54.2932 35.8742ZM54.3116 35.92C53.8451 35.92 53.3797 35.8991 52.9158 35.8991C52.4491 35.8991 51.9826 35.92 51.5164 35.92H51.4948V35.8975V35.7169H51.5164H51.5901C51.782 35.7124 51.9646 35.6983 51.9665 35.3843V32.6701C51.9646 32.4136 51.7838 32.3956 51.5901 32.3915H51.4948V32.3701V32.1884H51.5164C51.7984 32.1884 52.0734 32.2093 52.3532 32.2093C52.6226 32.2093 52.887 32.1884 53.1588 32.1884H53.1797V32.2099V32.3915H53.1588H53.0255C52.8201 32.3973 52.6922 32.3881 52.6875 32.6556V35.3802C52.69 35.5772 52.8185 35.6294 52.9856 35.6537C53.0774 35.66 53.1766 35.6635 53.2779 35.6635C53.4069 35.6635 53.5413 35.6572 53.6798 35.6427C53.8949 35.6171 54.0796 35.4936 54.172 35.3676C54.2533 35.2538 54.2995 35.1092 54.3304 34.9939L54.3362 34.9759H54.3546H54.5356L54.5304 35.0049C54.4711 35.306 54.3987 35.6015 54.3346 35.9032L54.3289 35.92H54.3116Z" fill="#211D1D"/>
<path d="M54.3546 32.6186H54.4197C54.4921 32.6186 54.5251 32.5646 54.5251 32.4771C54.5251 32.3883 54.4721 32.3574 54.416 32.3574H54.3546V32.6186ZM54.1662 32.9123V32.8845C54.2339 32.8751 54.247 32.8779 54.247 32.8344V32.4236C54.247 32.3649 54.2407 32.3453 54.1678 32.3488V32.3198H54.4543C54.5508 32.3198 54.6416 32.3672 54.6416 32.4676C54.6416 32.5513 54.5876 32.611 54.5099 32.6353L54.6007 32.7636C54.6442 32.8201 54.6925 32.8751 54.7245 32.8943V32.9123H54.6159C54.564 32.9123 54.5188 32.8021 54.416 32.6564H54.3546V32.8403C54.3546 32.8779 54.3677 32.8751 54.4349 32.8845V32.9123H54.1662ZM54.4433 33.0696C54.6925 33.0696 54.884 32.8583 54.884 32.6186C54.884 32.3789 54.6962 32.1647 54.4433 32.1647C54.1919 32.1647 54.001 32.3789 54.001 32.6186C54.001 32.8583 54.1919 33.0696 54.4433 33.0696ZM54.4433 32.0614C54.7618 32.0614 55 32.3062 55 32.6186C55 32.9309 54.7618 33.1729 54.4433 33.1729C54.1248 33.1729 53.8855 32.9309 53.8855 32.6186C53.8855 32.3062 54.1248 32.0614 54.4433 32.0614Z" fill="#211D1D"/>
<path d="M21.4015 13.4254C21.4015 8.48488 25.4147 4.4798 30.3659 4.4798C35.3171 4.4798 39.3303 8.48488 39.3303 13.4254C39.3303 18.3663 35.3171 22.3713 30.3659 22.3713C25.4147 22.3713 21.4015 18.3663 21.4015 13.4254Z" fill="white"/>
<path d="M35.7877 13.2494C35.7836 10.9581 34.3488 9.00501 32.3268 8.23105V18.2677C34.3488 17.4925 35.7836 15.5412 35.7877 13.2494ZM28.4693 18.2652V8.23168C26.4494 9.00852 25.0165 10.9594 25.0114 13.2494C25.0165 15.5388 26.4494 17.4902 28.4693 18.2652ZM30.3991 4.76641C25.7043 4.76803 21.9006 8.56444 21.9002 13.2494C21.9006 17.9337 25.7043 21.7295 30.3991 21.7301C35.0938 21.7295 38.8988 17.9337 38.8998 13.2494C38.8988 8.56444 35.0938 4.76803 30.3991 4.76641ZM30.3782 22.5313C25.2407 22.5552 21.0125 18.4023 21.0125 13.3461C21.0125 7.82096 25.2407 3.999 30.3782 3.99999H32.7864C37.8623 3.999 42.4958 7.8185 42.4958 13.3461C42.4958 18.3998 37.8623 22.5313 32.7864 22.5313H30.3782Z" fill="#254D98"/>
</svg>
