<svg width="64" height="40" viewBox="0 0 64 40" fill="none" xmlns="http://www.w3.org/2000/svg">
<rect width="64" height="40" fill="#0079BE"/>
<path fill-rule="evenodd" clip-rule="evenodd" d="M49.9141 20.3051C49.9141 11.8212 42.8331 5.95713 35.0746 5.96054H28.399C20.5483 5.95713 14.086 11.8229 14.086 20.3051C14.086 28.0644 20.5474 34.4397 28.399 34.4021H35.0754C42.8331 34.4397 49.9149 28.0619 49.9149 20.3051H49.9141Z" fill="white"/>
<path fill-rule="evenodd" clip-rule="evenodd" d="M28.4399 7.16202C21.2659 7.16458 15.4521 12.9903 15.4513 20.1822C15.453 27.3724 21.2659 33.1981 28.4399 33.2006C35.6156 33.1981 41.4302 27.3724 41.431 20.1822C41.4302 12.9911 35.6156 7.16458 28.4399 7.16202Z" fill="#0079BE"/>
<path fill-rule="evenodd" clip-rule="evenodd" d="M20.23 20.1472C20.2315 18.4803 20.7369 16.8528 21.6801 15.4784C22.6232 14.104 23.9599 13.0469 25.5147 12.4459V27.8468C23.9597 27.2466 22.6227 26.1899 21.6793 24.8157C20.736 23.4415 20.2304 21.814 20.2291 20.1472H20.23ZM31.4086 27.8502V12.4459C32.9646 13.0457 34.3025 14.1024 35.2465 15.477C36.1905 16.8516 36.6964 18.4797 36.6976 20.1472C36.6964 21.8149 36.1905 23.4433 35.2465 24.8181C34.3026 26.193 32.9646 27.25 31.4086 27.8502Z" fill="white"/>
</svg>
