<svg viewBox="0 0 780 501" xmlns="http://www.w3.org/2000/svg"><g fill="none" fill-rule="evenodd"><path d="M55 0A55 55 0 000 55v391a55 55 0 0055 55h670a55 55 0 0055-55V55a55 55 0 00-55-55H55z" fill="#4D4D4D"/><path d="M415.13 161.21c30.94 0 56.02 23.58 56.02 52.71v.04c0 29.12-25.08 52.74-56.02 52.74-30.94 0-56.02-23.62-56.02-52.74v-.04c0-29.13 25.08-52.7 56.02-52.7zm-87.98.68c8.84 0 16.25 1.79 25.27 6.1v22.74c-8.54-7.86-15.96-11.15-25.76-11.15-19.26 0-34.41 15.01-34.41 34.05 0 20.08 14.68 34.2 35.37 34.2 9.31 0 16.59-3.12 24.8-10.86v22.76c-9.34 4.14-16.91 5.78-25.76 5.78-31.27 0-55.58-22.6-55.58-51.74 0-28.82 24.95-51.88 56.07-51.88zm-97.11.63a47.76 47.76 0 0130.94 11l-10.75 13.24c-5.35-5.64-10.4-8.03-16.56-8.03-8.85 0-15.3 4.75-15.3 11 0 5.35 3.62 8.18 15.94 12.48 23.37 8.04 30.3 15.17 30.3 30.92 0 19.2-14.98 32.55-36.33 32.55-15.63 0-26.99-5.8-36.45-18.87l13.26-12.03c4.73 8.61 12.63 13.22 22.42 13.22 9.17 0 15.95-5.95 15.95-13.98 0-4.16-2.05-7.73-6.16-10.26-2.06-1.2-6.16-2.98-14.2-5.64-19.29-6.54-25.9-13.53-25.9-27.19 0-16.23 14.2-28.41 32.84-28.41zm234.72 1.73h22.44l28.08 66.59 28.45-66.6H566l-45.5 101.7h-11.05l-44.69-101.7zm-397.35.15h30.15c33.32 0 56.54 20.38 56.54 49.64 0 14.59-7.1 28.7-19.12 38.06-10.1 7.9-21.63 11.44-37.57 11.44h-30V164.4zm96.14 0h20.54v99.14h-20.54V164.4zm411.73 0h58.26v16.8H595.8v22h36.33V220H595.8v26.76h37.73v16.78h-58.26V164.4zm71.86 0h30.46c23.69 0 37.26 10.71 37.26 29.27 0 15.18-8.51 25.14-23.99 28.1l33.15 41.77h-25.26l-28.43-39.83h-2.67v39.83h-20.52V164.4zm20.52 15.62v30.02h6c13.11 0 20.07-5.36 20.07-15.33 0-9.65-6.96-14.7-19.75-14.7h-6.32zM87.94 181.2v65.56h5.51c13.27 0 21.66-2.4 28.11-7.88 7.1-5.96 11.38-15.47 11.38-24.98 0-9.5-4.28-18.73-11.38-24.68-6.78-5.78-14.84-8.02-28.1-8.02h-5.52z" fill="#FFF"/><path d="M779.98 288.36C753.93 306.7 558.9 437.7 221.23 500.98h503.76a55 55 0 0055-55V288.36z" fill="#F47216"/></g></svg>