<svg width="64" height="40" viewBox="0 0 64 40" fill="none" xmlns="http://www.w3.org/2000/svg">
<g clip-path="url(#clip0_7623_49386)">
<rect width="64" height="40" rx="3" fill="white"/>
<rect width="64" height="40" fill="url(#paint0_linear_7623_49386)"/>
<path d="M2.32607e-05 1.42223V38.5778C2.32607e-05 38.955 0 40 0 40C0 40 1.02997 40 1.40173 40H40.285C45.5126 40 50.5261 37.8935 54.2232 34.1436C57.9202 30.3938 59.9982 25.3076 60 20.0036C60 17.3767 59.4901 14.7755 58.4993 12.3485C57.5085 9.9216 56.0563 7.71642 54.2256 5.85892C52.3949 4.00142 50.2216 2.52796 47.8296 1.52269C45.4377 0.517419 42.874 1.12429e-05 40.285 1.12429e-05H1.40173C1.02997 1.12429e-05 1.30981e-05 0 1.30981e-05 0C1.30981e-05 0 2.32607e-05 1.04504 2.32607e-05 1.42223Z" fill="white"/>
<path d="M5.43521 16.2538H3V24.7462H5.39405C6.49148 24.8072 7.57231 24.4575 8.42606 23.7652C8.91005 23.3703 9.3011 22.8736 9.57142 22.3105C9.84173 21.7473 9.98467 21.1315 9.99008 20.5069C9.99008 18.0031 8.13795 16.2538 5.43521 16.2538ZM7.36966 22.6334C6.73185 23.1506 5.91657 23.3969 5.09908 23.3194H4.66006V17.6944H5.09908C5.50409 17.6533 5.91321 17.6928 6.30289 17.8106C6.69257 17.9283 7.05512 18.1219 7.36966 18.3803C7.65967 18.6506 7.89095 18.9776 8.04909 19.3411C8.20724 19.7046 8.28885 20.0967 8.28887 20.4931C8.29057 20.8938 8.20985 21.2906 8.05172 21.6588C7.89359 22.027 7.66143 22.3587 7.36966 22.6334Z" fill="#261F20"/>
<path d="M12.4116 16.2538H10.7584V24.7462H12.4116V16.2538Z" fill="#261F20"/>
<path d="M16.4588 19.5122C15.4641 19.1486 15.176 18.9017 15.176 18.4489C15.176 17.9962 15.6974 17.5023 16.4108 17.5023C16.6703 17.5071 16.9253 17.5714 17.1561 17.6903C17.3868 17.8093 17.5871 17.9796 17.7416 18.1883L18.6128 17.0496C17.9257 16.4376 17.0359 16.1027 16.1158 16.1098C15.7806 16.0894 15.4447 16.1368 15.1282 16.2493C14.8117 16.3617 14.5212 16.5369 14.274 16.7642C14.0268 16.9916 13.828 17.2665 13.6895 17.5725C13.551 17.8784 13.4756 18.2092 13.468 18.545C13.468 19.7111 14.003 20.3148 15.5602 20.8704C15.955 20.9944 16.3365 21.1576 16.6989 21.3575C16.8527 21.4463 16.9802 21.5744 17.0682 21.7287C17.1562 21.883 17.2016 22.0579 17.1997 22.2355C17.1982 22.4001 17.1631 22.5626 17.0965 22.7131C17.0299 22.8636 16.9332 22.9989 16.8125 23.1107C16.6917 23.2225 16.5493 23.3084 16.3942 23.3631C16.239 23.4179 16.0742 23.4404 15.91 23.4291C15.5319 23.4359 15.16 23.3325 14.8396 23.1316C14.5193 22.9306 14.2643 22.6407 14.1059 22.2973L13.0358 23.3262C13.3353 23.8343 13.7658 24.2526 14.2823 24.5373C14.7988 24.8221 15.3823 24.963 15.9718 24.9451C16.3509 24.9708 16.7312 24.9175 17.0886 24.7886C17.446 24.6596 17.7727 24.4579 18.0481 24.196C18.3235 23.9342 18.5415 23.618 18.6883 23.2676C18.835 22.9171 18.9075 22.54 18.9009 22.1601C18.9009 20.8156 18.3452 20.205 16.4588 19.5122Z" fill="#261F20"/>
<path d="M19.4291 20.5069C19.4234 21.095 19.536 21.6783 19.7602 22.2221C19.9843 22.7659 20.3155 23.2592 20.7339 23.6725C21.1524 24.0858 21.6496 24.4109 22.1962 24.6283C22.7427 24.8458 23.3273 24.9512 23.9154 24.9383C24.6328 24.9288 25.3379 24.7501 25.9733 24.4169V22.4962C25.7251 22.7848 25.4178 23.0169 25.0723 23.1766C24.7267 23.3364 24.3509 23.4201 23.9702 23.4223C23.5846 23.4386 23.1999 23.3734 22.8413 23.231C22.4826 23.0885 22.158 22.872 21.8887 22.5956C21.6194 22.3191 21.4114 21.989 21.2783 21.6267C21.1453 21.2645 21.0902 20.8782 21.1166 20.4932C21.1019 20.1152 21.1632 19.7381 21.2969 19.3843C21.4306 19.0304 21.634 18.707 21.895 18.4332C22.156 18.1594 22.4693 17.9408 22.8163 17.7903C23.1634 17.6398 23.5371 17.5606 23.9154 17.5572C24.3071 17.5611 24.6934 17.6488 25.0483 17.8145C25.4033 17.9801 25.7187 18.2199 25.9733 18.5175V16.59C25.3436 16.2412 24.6352 16.0594 23.9154 16.0618C23.3289 16.059 22.7477 16.1719 22.2048 16.3938C21.662 16.6157 21.1682 16.9424 20.7516 17.3552C20.335 17.7679 20.0038 18.2587 19.7769 18.7995C19.55 19.3403 19.4318 19.9204 19.4291 20.5069Z" fill="#261F20"/>
<path d="M39.1166 21.9611L36.8529 16.2538H35.0419L38.6501 24.9657H39.5419L43.205 16.2538H41.4146L39.1166 21.9611Z" fill="#261F20"/>
<path d="M43.9596 24.7462H48.6517V23.3125H45.6128V21.0213H48.5419V19.5808H45.6128V17.6944H48.6517V16.2538H43.9596V24.7462Z" fill="#261F20"/>
<path d="M55.2164 18.7645C55.2164 17.173 54.1188 16.2538 52.205 16.2538H49.7492V24.7462H51.4024V21.3163H51.6219L53.9131 24.7462H55.971L53.2957 21.1723C53.8606 21.0873 54.3724 20.7919 54.7287 20.3454C55.0849 19.8988 55.2591 19.3341 55.2164 18.7645ZM51.8894 20.1364H51.4024V17.5915H51.9169C52.9458 17.5915 53.5083 18.0236 53.5083 18.8537C53.5083 19.6837 52.9458 20.1639 51.8894 20.1639V20.1364Z" fill="#261F20"/>
<path d="M56.5335 16.6997C56.5335 16.5556 56.4306 16.4733 56.2522 16.4733H56.0121V17.221H56.1905V16.9329L56.3963 17.221H56.6158L56.3688 16.9124C56.4172 16.9025 56.4605 16.8757 56.4907 16.8366C56.5209 16.7976 56.5361 16.749 56.5335 16.6997ZM56.2179 16.8026V16.6105C56.3071 16.6105 56.3551 16.6105 56.3551 16.7066C56.3551 16.8026 56.3071 16.8026 56.2179 16.8026Z" fill="#261F20"/>
<path d="M56.2865 16.1852C56.1493 16.2304 56.0298 16.3176 55.9451 16.4347C55.8604 16.5517 55.8148 16.6925 55.8148 16.8369C55.8148 16.9814 55.8604 17.1222 55.9451 17.2392C56.0298 17.3562 56.1493 17.4435 56.2865 17.4886C56.4238 17.4435 56.5433 17.3562 56.628 17.2392C56.7127 17.1222 56.7583 16.9814 56.7583 16.8369C56.7583 16.6925 56.7127 16.5517 56.628 16.4347C56.5433 16.3176 56.4238 16.2304 56.2865 16.1852ZM56.2865 17.372C56.1446 17.372 56.0085 17.3156 55.9082 17.2153C55.8079 17.1149 55.7515 16.9788 55.7515 16.8369C55.7515 16.695 55.8079 16.5589 55.9082 16.4586C56.0085 16.3582 56.1446 16.3019 56.2865 16.3019C56.4284 16.3019 56.5645 16.3582 56.6649 16.4586C56.7652 16.5589 56.8216 16.695 56.8216 16.8369C56.8216 16.9788 56.7652 17.1149 56.6649 17.2153C56.5645 17.3156 56.4284 17.372 56.2865 17.372Z" fill="#261F20"/>
<path d="M35.5152 20.4931C35.5166 21.3837 35.2536 22.2547 34.7597 22.9958C34.2657 23.7369 33.563 24.3147 32.7405 24.6561C31.9179 24.9976 31.0126 25.0873 30.139 24.9139C29.2654 24.7405 28.463 24.3117 27.8332 23.682C27.2035 23.0522 26.7748 22.2498 26.6014 21.3762C26.4279 20.5027 26.5176 19.5973 26.8591 18.7748C27.2005 17.9522 27.7784 17.2495 28.5194 16.7555C29.2605 16.2616 30.1315 15.9986 31.0221 16C32.2132 16.0018 33.355 16.4758 34.1972 17.318C35.0394 18.1603 35.5134 19.302 35.5152 20.4931Z" fill="url(#paint1_linear_7623_49386)"/>
<path style="mix-blend-mode:multiply" opacity="0.65" d="M35.5152 20.4931C35.5166 21.3837 35.2536 22.2547 34.7597 22.9958C34.2657 23.7369 33.563 24.3147 32.7405 24.6561C31.9179 24.9976 31.0126 25.0873 30.139 24.9139C29.2654 24.7405 28.463 24.3117 27.8332 23.682C27.2035 23.0522 26.7748 22.2498 26.6014 21.3762C26.4279 20.5027 26.5176 19.5973 26.8591 18.7748C27.2005 17.9522 27.7784 17.2495 28.5194 16.7555C29.2605 16.2616 30.1315 15.9986 31.0221 16C32.2132 16.0018 33.355 16.4758 34.1972 17.318C35.0394 18.1603 35.5134 19.302 35.5152 20.4931Z" fill="url(#paint2_linear_7623_49386)"/>
</g>
<defs>
<linearGradient id="paint0_linear_7623_49386" x1="32" y1="0" x2="32" y2="40" gradientUnits="userSpaceOnUse">
<stop stop-color="#E96418"/>
<stop offset="1" stop-color="#F9A020"/>
</linearGradient>
<linearGradient id="paint1_linear_7623_49386" x1="33.3201" y1="24.0945" x2="30.2058" y2="19.2241" gradientUnits="userSpaceOnUse">
<stop stop-color="#FF9200"/>
<stop offset="0.21" stop-color="#FF8D00"/>
<stop offset="0.45" stop-color="#FF8000"/>
<stop offset="0.62" stop-color="#FF7100"/>
<stop offset="0.82" stop-color="#FF5E00"/>
<stop offset="1" stop-color="#FF5200"/>
</linearGradient>
<linearGradient id="paint2_linear_7623_49386" x1="32.8262" y1="24.0328" x2="28.2782" y2="15.1357" gradientUnits="userSpaceOnUse">
<stop stop-color="#FF7100" stop-opacity="0"/>
<stop offset="0.03" stop-color="#FF6E00" stop-opacity="0.03"/>
<stop offset="0.21" stop-color="#FF5A00" stop-opacity="0.25"/>
<stop offset="0.39" stop-color="#FF4900" stop-opacity="0.42"/>
<stop offset="0.56" stop-color="#FF3C00" stop-opacity="0.56"/>
<stop offset="0.72" stop-color="#FF3300" stop-opacity="0.66"/>
<stop offset="0.86" stop-color="#FF2D00" stop-opacity="0.72"/>
<stop offset="0.98" stop-color="#FF2B00" stop-opacity="0.74"/>
</linearGradient>
<clipPath id="clip0_7623_49386">
<rect width="64" height="40" rx="3" fill="white"/>
</clipPath>
</defs>
</svg>
