<svg width="64" height="40" viewBox="0 0 64 40" fill="none" xmlns="http://www.w3.org/2000/svg">
<rect width="64" height="40" fill="#4D4D4D"/>
<path fill-rule="evenodd" clip-rule="evenodd" d="M34.0619 13.1736C36.6006 13.1736 38.6585 15.1084 38.6585 17.4986V17.5018C38.6585 19.8912 36.6006 21.8292 34.0619 21.8292C31.5233 21.8292 29.4654 19.8912 29.4654 17.5018V17.4986C29.4654 15.1084 31.5233 13.1745 34.0619 13.1745V13.1736ZM26.8431 13.2294C27.5684 13.2294 28.1764 13.3763 28.9165 13.73V15.5958C28.2158 14.9509 27.607 14.6809 26.8029 14.6809C25.2226 14.6809 23.9795 15.9125 23.9795 17.4748C23.9795 19.1224 25.184 20.2809 26.8816 20.2809C27.6455 20.2809 28.2429 20.0249 28.9165 19.3898V21.2573C28.1501 21.597 27.529 21.7316 26.8029 21.7316C24.2371 21.7316 22.2425 19.8772 22.2425 17.4863C22.2425 15.1215 24.2896 13.2294 26.8431 13.2294ZM18.8751 13.2811C19.8014 13.2725 20.7008 13.5922 21.4137 14.1837L20.5317 15.2701C20.0927 14.8073 19.6783 14.6112 19.1729 14.6112C18.4468 14.6112 17.9175 15.0009 17.9175 15.5137C17.9175 15.9527 18.2146 16.1849 19.2254 16.5377C21.143 17.1974 21.7116 17.7825 21.7116 19.0748C21.7116 20.6502 20.4825 21.7455 18.7307 21.7455C17.4482 21.7455 16.5161 21.2696 15.7399 20.1972L16.8279 19.2102C17.216 19.9166 17.8642 20.2949 18.6675 20.2949C19.4199 20.2949 19.9762 19.8067 19.9762 19.1478C19.9762 18.8065 19.808 18.5135 19.4708 18.306C19.3017 18.2075 18.9653 18.0614 18.3056 17.8432C16.7229 17.3066 16.1805 16.733 16.1805 15.6122C16.1805 14.2805 17.3456 13.2811 18.8751 13.2811ZM38.1341 13.4231H39.9754L42.2794 18.8869L44.6137 13.4223H46.441L42.7077 21.7669H41.801L38.1341 13.4223V13.4231ZM5.53107 13.4354H8.00491C10.7389 13.4354 12.6441 15.1076 12.6441 17.5084C12.6441 18.7055 12.0615 19.8633 11.0753 20.6313C10.2466 21.2795 9.3005 21.57 7.99261 21.57H5.53107V13.4354ZM13.4195 13.4354H15.1048V21.57H13.4195V13.4354ZM47.2025 13.4354H51.9828V14.8138H48.8861V16.619H51.8671V17.9974H48.8861V20.1931H51.9819V21.57H47.2016V13.4354H47.2025ZM53.0987 13.4354H55.5979C57.5417 13.4354 58.6552 14.3142 58.6552 15.837C58.6552 17.0826 57.9569 17.8998 56.6868 18.1427L59.4068 21.57H57.3341L55.0014 18.3018H54.7824V21.57H53.0987V13.4354ZM54.7824 14.717V17.1802H55.2747C56.3504 17.1802 56.9214 16.7404 56.9214 15.9224C56.9214 15.1306 56.3503 14.7162 55.3009 14.7162H54.7824V14.717ZM7.21558 14.8138V20.1931H7.66768C8.7565 20.1931 9.44491 19.9962 9.97414 19.5466C10.5567 19.0575 10.9079 18.2772 10.9079 17.4969C10.9079 16.7174 10.5567 15.9601 9.97414 15.4719C9.41784 14.9976 8.7565 14.8138 7.6685 14.8138H7.21558Z" fill="white"/>
<path fill-rule="evenodd" clip-rule="evenodd" d="M63.8461 23C61.7087 24.5048 45.7063 34.8078 18 40H59C60.1969 40 63.8461 40 63.8461 40C63.8461 40 63.847 37.1298 63.847 35.9329L63.8461 23Z" fill="#F47216"/>
</svg>
