<svg class="SVGInline-svg SVGInline--cleaned-svg SVG-svg BrandIcon-svg BrandIcon--size--20-svg" height="20" width="20" xmlns="http://www.w3.org/2000/svg" viewBox="0 0 32 32"><g fill="none" fill-rule="evenodd"><path fill="#FDB913" d="M0 0h32v32H0z"></path><path fill="#231F20" fill-rule="nonzero" d="M5.672 16.537c.512 0 .926.415.926.927v.541l.004 3.067v.809a.2.2 0 0 0 .4 0v-3.604l2.337 1.587c.337.225.539.604.539 1.01l-.001 2.538v1.042l-.001 3.21h-.05l-2.206.004h-.366a2.511 2.511 0 0 1-2.501-2.343l-.005-.165-.002-7.696c0-.512.415-.927.926-.927zM4.36 21.991v1.472l-.03.008c-.464.112-.98.228-1.073.249a.823.823 0 0 1-.86-1.253l.01-.015 1.953-.46zm0-1.885v1.472l-.03.008c-.44.105-.965.227-1.073.248a.823.823 0 0 1-.86-1.253l.01-.014.015-.004 1.938-.457zm0-1.884v1.472l-.03.007c-.44.106-.965.226-1.073.249a.824.824 0 0 1-.86-1.254l.01-.012.015-.004 1.938-.458zm0-8.647v8.234l-1.5.355-.001-8.234 1.5-.355zm3.49 2.146c1.069-.25 1.413.374 1.413 1.267v3.683l-1.424.334-.001-3.482c0-.544-.255-.654-.561-.587-.406.09-.69.547-.69 1.118v2.386c-.39-.344-.94-.44-1.424-.248l-.002-3.696 1.352-.32v.579c.274-.523.762-.9 1.336-1.034zm3.895-1.925v1.147l1.007-.239v1.052l-1.007.239v2.602c0 1.184.314 1.41.314 1.41l-1.522.362s-.218-.326-.218-1.481v-2.556l-.69.164v-1.053l.692-.163v-1.148l1.424-.336zm5.34 2.059c-.009.443-.007.66-.007.66l-2.754.647v.044c0 .867.182 1.278.731 1.162.475-.1.607-.398.644-.765.006-.06.01-.21.01-.21l1.29-.31s.002.106 0 .225c-.01.492-.154 1.714-1.947 2.138-1.698.403-2.151-.634-2.151-2.13 0-.913.13-1.579.409-2.09.332-.606.876-1.001 1.67-1.182 1.562-.355 2.126.57 2.104 1.81zm3.378-3.048v1.31c-.242.002-.48.052-.702.145-.495.196-.745.623-.745 1.274l.001 2.834-1.417.33-.002-5.133 1.34-.318v.673s.347-.885 1.152-1.09a.771.771 0 0 1 .373-.025zm4.21.644v2.273c0 1.1.205 1.26.205 1.26l-1.298.308a2.82 2.82 0 0 1-.174-.466s-.284.716-1.264.946c-1.03.243-1.574-.395-1.574-1.27 0-1.189.696-1.565 1.745-1.998.943-.39.963-.584.967-.923.005-.285-.127-.53-.597-.41a.708.708 0 0 0-.568.672c-.007.087-.01.175-.009.263l-1.322.313a2.63 2.63 0 0 1 .092-.782c.211-.71.838-1.189 1.92-1.44 1.407-.324 1.876.294 1.878 1.254zm-1.402 1.428a4.9 4.9 0 0 1-.69.404c-.433.211-.629.472-.629.874 0 .348.216.576.607.48.42-.107.712-.499.712-1.043v-.715zm5.858-3.448c.205.266.285.626.285 1.13v.092l-1.364.325v-.19c0-.598-.166-.825-.6-.716-.516.13-.724.62-.724 1.593l.001.454c0 .99.136 1.443.73 1.319.516-.107.587-.56.595-.957l.004-.262 1.362-.322v.043l.002.17c-.004 1.297-.688 2.115-1.97 2.413-1.765.414-2.11-.606-2.165-2.21-.054-1.562.352-2.803 2.096-3.198 1.112-.253 1.534.036 1.748.316zM15.036 11c-.456.103-.695.55-.706 1.292l1.386-.33c.002-.033.002-.107.002-.223-.002-.56-.176-.855-.682-.74z"></path></g></svg>
