<svg viewBox="0 0 750 471" xmlns="http://www.w3.org/2000/svg"><g fill="none" fill-rule="evenodd"><rect fill="#F4F4F4" width="750" height="471" rx="40"/><path d="M618.58 422.14a4.25 4.25 0 00-3 1.21 4.07 4.07 0 000 5.82 4.24 4.24 0 005.96 0 4.08 4.08 0 000-5.82 4.2 4.2 0 00-2.96-1.2zm0 7.33a3.2 3.2 0 11-.04-6.41 3.2 3.2 0 01.04 6.41zm.24-5.14h-1.77v3.83h.82v-1.43h.38l1.16 1.43h.97l-1.25-1.44c.4-.05.7-.18.9-.38.22-.2.32-.47.32-.78 0-.38-.13-.68-.4-.9a1.77 1.77 0 00-1.13-.33zm-.01.72c.22 0 .4.04.52.13.12.08.18.2.19.38 0 .17-.07.3-.2.38a.9.9 0 01-.51.13h-.94v-1.02h.94zm-458.61 2.7h-8.75v-40.88h8.58v4.98s7.54-6.09 12.02-6.01c8.7.15 13.9 7.56 13.9 7.56s4.22-7.56 13.74-7.56c14.07 0 16.14 12.88 16.14 12.88v28.86h-8.41v-25.42s.03-7.73-9.1-7.73c-9.44 0-10.3 7.73-10.3 7.73v25.42h-8.76v-25.6s-.84-8.07-8.75-8.07c-10.28 0-10.48 8.25-10.48 8.25l.18 25.6zm266.26-41.92c-4.48-.07-12.02 6.02-12.02 6.02v-4.97h-8.59v40.87h8.76l-.17-25.6s.2-8.22 10.48-8.22c1.9 0 3.39.46 4.56 1.17v-.03l2.85-7.96a15.71 15.71 0 00-5.87-1.28zm123.33 0c-4.48-.07-12.02 6.02-12.02 6.02v-4.97h-8.59v40.87h8.76l-.17-25.6s.2-8.22 10.48-8.22c1.9 0 3.39.46 4.56 1.17v-.03l2.85-7.96a15.71 15.71 0 00-5.87-1.28zm-305.65-.16c-13.1 0-20.04 11.78-20.08 21.63-.03 10.09 7.9 21.73 20.45 21.73 7.32 0 13.33-5.41 13.33-5.41l-.02 4.16h8.62v-40.92h-8.65v5.15s-5.64-6.34-13.65-6.34zm1.67 8.33c7.04 0 12.76 6.12 12.76 13.67 0 7.54-5.72 13.63-12.76 13.63s-12.72-6.1-12.72-13.63c0-7.55 5.68-13.67 12.72-13.67zm249.65-8.33c-13.1 0-20.04 11.78-20.07 21.63-.04 10.09 7.9 21.73 20.44 21.73 7.32 0 13.33-5.41 13.33-5.41l-.01 4.16h8.61v-40.92h-8.64v5.15s-5.65-6.34-13.66-6.34zm1.68 8.33c7.04 0 12.75 6.12 12.75 13.67 0 7.54-5.71 13.63-12.75 13.63s-12.72-6.1-12.72-13.63c0-7.55 5.68-13.67 12.72-13.67zm81.06-8.33c-13.1 0-20.03 11.78-20.07 21.63-.03 10.09 7.9 21.73 20.44 21.73 7.32 0 13.34-5.41 13.34-5.41l-.02 4.16h8.62V370.7h-8.65v21.31s-5.65-6.34-13.66-6.34zm1.68 8.33c7.04 0 12.76 6.12 12.76 13.67 0 7.54-5.72 13.63-12.76 13.63s-12.72-6.1-12.72-13.63c0-7.55 5.68-13.67 12.72-13.67zm-287.15 35.13c-8.92 0-17.16-5.5-17.16-5.5l3.77-5.84s7.8 3.6 13.4 3.6c3.63 0 9.7-1.17 9.78-4.8.08-3.84-10.21-4.98-10.21-4.98s-15.37-.21-15.37-12.89c0-7.97 7.67-13.05 17.51-13.05 5.69 0 16.31 4.98 16.31 4.98l-4.3 6.7s-8.2-3.28-12.52-3.44c-3.66-.13-8.07 1.62-8.07 4.81 0 8.67 25.58-.67 25.58 16.84 0 11.48-10.42 13.57-18.72 13.57zm32.93-54.11v11.89h-7.61v8.6h7.61v20.55s-.67 13.9 14.27 13.9c4.13 0 12.22-3.05 12.22-3.05l-3.46-8.93s-3.22 2.74-6.85 2.65c-6.9-.18-6.71-4.6-6.71-4.6V395.5h14.23v-8.6h-14.23v-11.89h-9.47zm51.86 11.15c-14.05 0-21.07 11.58-21 21.63.05 10.33 6.38 21.96 21.84 21.96 6.62 0 15.91-5.8 15.91-5.8l-4-6.96s-6.33 4.5-11.9 4.5c-11.17 0-11.9-10.91-11.9-10.91h29.88s2.23-24.42-18.83-24.42zm-1.27 8.03c.33-.02.68 0 1.04 0 10.51 0 10.44 9.94 10.44 9.94h-21.25s-.5-9.36 9.77-9.94zm90.13 22.7l4 8.01s-6.34 4.13-13.47 4.13c-14.75 0-22.94-11.1-22.94-21.62 0-16.52 13.03-21.38 21.85-21.38 8 0 14.93 4.62 14.93 4.62l-4.5 8.02s-2.72-4.25-10.67-4.25c-7.95 0-12.14 6.85-12.14 13.36 0 7.29 4.88 13.48 12.26 13.48 5.79 0 10.68-4.37 10.68-4.37z" fill="#000"/><path d="M624.5 278.63v-5.52h-1.43l-1.66 3.8-1.66-3.8h-1.44v5.52h1.02v-4.16l1.55 3.59h1.06l1.55-3.6v4.17h1.02zm-9.12 0v-4.58h1.85v-.93h-4.7v.93h1.85v4.58h1zm9.42-82.07c0 85.43-69.08 154.68-154.3 154.68-85.2 0-154.28-69.25-154.28-154.68 0-85.42 69.08-154.68 154.29-154.68S624.8 111.14 624.8 196.56z" fill="#F79F1A"/><path d="M434.46 196.56c0 85.43-69.08 154.68-154.29 154.68-85.2 0-154.29-69.25-154.29-154.68 0-85.42 69.08-154.68 154.3-154.68 85.2 0 154.28 69.26 154.28 154.68z" fill="#EA001B"/><path d="M375.34 74.8a154.5 154.5 0 00-59.1 121.75c0 49.43 23.1 93.46 59.1 121.78 36-28.32 59.1-72.35 59.1-121.78a154.5 154.5 0 00-59.1-121.75z" fill="#FF5F01"/></g></svg>