<svg width="39" height="24" viewBox="0 0 39 24" fill="none" xmlns="http://www.w3.org/2000/svg">
<rect x="0.5" y="0.5" width="37.4" height="23" rx="1.5" fill="white"/>
<path fill-rule="evenodd" clip-rule="evenodd" d="M31.0006 15.9207V15.6661H30.9346L30.858 15.8413L30.7814 15.6661H30.715V15.9207H30.7621V15.7288L30.8336 15.8944H30.8825L30.954 15.7283V15.9207H31.001H31.0006ZM30.5799 15.9207V15.7094H30.6652V15.6665H30.4484V15.7094H30.5337V15.9207H30.5799ZM31.0144 12.135C31.0144 16.0757 27.8279 19.27 23.8969 19.27C19.9669 19.27 16.7804 16.0757 16.7804 12.135C16.7804 8.19479 19.9669 5 23.8974 5C27.8279 5 31.0144 8.19479 31.0144 12.135Z" fill="#F79F1A"/>
<path fill-rule="evenodd" clip-rule="evenodd" d="M22.234 12.135C22.234 16.0757 19.0475 19.27 15.117 19.27C11.1869 19.27 8 16.0757 8 12.135C8 8.19479 11.1865 5 15.1175 5C19.0475 5 22.234 8.19479 22.234 12.135Z" fill="#EA001B"/>
<path fill-rule="evenodd" clip-rule="evenodd" d="M19.507 6.51807C18.6563 7.18593 17.9686 8.03868 17.4963 9.0117C17.024 9.98472 16.7793 11.0525 16.7809 12.1341C16.7809 14.4142 17.8464 16.4452 19.507 17.7515C21.1676 16.4452 22.2332 14.4142 22.2332 12.1341C22.2347 11.0525 21.9901 9.98472 21.5177 9.0117C21.0454 8.03868 20.3578 7.18593 19.507 6.51807Z" fill="#FF5F01"/>
<rect x="0.5" y="0.5" width="37.4" height="23" rx="1.5" stroke="#DDDDDD"/>
</svg>
