<svg width="36" height="24" viewBox="0 0 36 24" fill="none" xmlns="http://www.w3.org/2000/svg">
<rect x="1.09961" y="0.5" width="33.8" height="23" rx="3.5" fill="white" stroke="#DDDDDD"/>
<path fill-rule="evenodd" clip-rule="evenodd" d="M5.29395 15.8089L5.5595 15.7821C5.57546 15.8716 5.6079 15.9373 5.65674 15.9794C5.70566 16.0214 5.77158 16.0423 5.85457 16.0423C5.94246 16.0423 6.00863 16.0237 6.05326 15.9864C6.09781 15.9491 6.12004 15.9055 6.12004 15.8555C6.12004 15.8235 6.11068 15.7962 6.09206 15.7736C6.07335 15.7511 6.04073 15.7317 5.99413 15.7149C5.9622 15.704 5.88959 15.6844 5.77621 15.6563C5.63022 15.6202 5.52791 15.5757 5.46903 15.5229C5.3863 15.4487 5.34493 15.3582 5.34493 15.2514C5.34493 15.1828 5.36441 15.1184 5.40346 15.0587C5.44243 14.9988 5.49873 14.9532 5.57211 14.922C5.64558 14.8907 5.73424 14.875 5.83809 14.875C6.00769 14.875 6.13531 14.9124 6.22106 14.9869C6.3068 15.0615 6.35177 15.161 6.35606 15.2856L6.08253 15.2963C6.07086 15.2267 6.0458 15.1768 6.00735 15.1462C5.96898 15.1157 5.91139 15.1004 5.83457 15.1004C5.75527 15.1004 5.6933 15.1167 5.64841 15.1494C5.61949 15.1702 5.60507 15.1982 5.60507 15.2333C5.60507 15.2653 5.61863 15.2926 5.64567 15.3154C5.68 15.3443 5.76351 15.3744 5.8962 15.4056C6.0288 15.4369 6.1269 15.4692 6.1905 15.5029C6.25401 15.5365 6.30379 15.5824 6.33976 15.6406C6.37563 15.699 6.39366 15.771 6.39366 15.8567C6.39366 15.9345 6.37211 16.0072 6.32903 16.0751C6.28594 16.1429 6.22509 16.1933 6.14639 16.2263C6.06768 16.2593 5.96958 16.2758 5.85208 16.2758C5.68111 16.2758 5.5498 16.2361 5.45813 16.1565C5.36656 16.077 5.3118 15.9612 5.29395 15.8089Z" fill="#0B4A8E"/>
<path fill-rule="evenodd" clip-rule="evenodd" d="M6.67773 15.2715H6.93788V16.2509H6.67773V15.2715ZM6.67773 14.8984H6.93788V15.1373H6.67773V14.8984Z" fill="#0B4A8E"/>
<path fill-rule="evenodd" clip-rule="evenodd" d="M8.15191 16.2536H7.89177V15.7526C7.89177 15.6466 7.88619 15.5781 7.8752 15.547C7.86413 15.5159 7.84628 15.4916 7.82148 15.4744C7.79667 15.4572 7.7668 15.4485 7.73196 15.4485C7.68724 15.4485 7.64716 15.4609 7.61163 15.4855C7.57609 15.5102 7.55181 15.5428 7.53867 15.5835C7.52546 15.6241 7.51893 15.6993 7.51893 15.809V16.2536H7.25879V15.2741H7.50014V15.4181C7.58554 15.306 7.69316 15.25 7.82276 15.25C7.87992 15.25 7.93219 15.2604 7.97949 15.281C8.02678 15.3016 8.06257 15.328 8.08686 15.36C8.11115 15.392 8.12805 15.4284 8.13758 15.4691C8.14711 15.5097 8.15191 15.5679 8.15191 15.6436V16.2536Z" fill="#0B4A8E"/>
<path fill-rule="evenodd" clip-rule="evenodd" d="M8.67774 15.7427C8.67774 15.847 8.69765 15.9233 8.73765 15.9716C8.77756 16.0202 8.82683 16.0443 8.88545 16.0443C8.94819 16.0443 9.00123 16.0195 9.04457 15.9698C9.08783 15.9202 9.10954 15.8466 9.10954 15.7492C9.10954 15.6475 9.08877 15.5719 9.04732 15.5225C9.00578 15.4732 8.95342 15.4485 8.88999 15.4485C8.82837 15.4485 8.77756 15.4728 8.73765 15.5212C8.69765 15.5697 8.67774 15.6434 8.67774 15.7427ZM8.44429 16.318L8.73929 16.3502C8.74426 16.3867 8.75568 16.4118 8.77353 16.4255C8.79825 16.4451 8.83713 16.4549 8.89017 16.4549C8.95806 16.4549 9.00896 16.4447 9.04294 16.4245C9.06569 16.4109 9.08303 16.3891 9.09478 16.3589C9.10277 16.3373 9.1068 16.2977 9.1068 16.2398L9.10757 16.0969C9.03084 16.2014 8.93351 16.2536 8.81541 16.2536C8.68367 16.2536 8.57947 16.1979 8.50257 16.0864C8.44223 15.9983 8.41211 15.8885 8.41211 15.7573C8.41211 15.5928 8.45159 15.4672 8.53064 15.3803C8.60969 15.2935 8.70804 15.25 8.82554 15.25C8.94673 15.25 9.04672 15.3033 9.12551 15.4098V15.2741H9.36694V16.1546C9.36694 16.2704 9.35742 16.357 9.33828 16.4142C9.31922 16.4715 9.29245 16.5164 9.25794 16.5491C9.22344 16.5817 9.17744 16.6073 9.11985 16.6257C9.06226 16.6442 8.98947 16.6535 8.9015 16.6535C8.73525 16.6535 8.61732 16.6248 8.54772 16.5675C8.47811 16.5103 8.44335 16.4376 8.44335 16.3496C8.44335 16.3409 8.44369 16.3304 8.44429 16.318Z" fill="#0B4A8E"/>
<path fill-rule="evenodd" clip-rule="evenodd" d="M9.67871 14.8984H9.93886V16.2509H9.67871V14.8984Z" fill="#0B4A8E"/>
<path fill-rule="evenodd" clip-rule="evenodd" d="M10.8443 15.682C10.8425 15.6057 10.823 15.5479 10.7859 15.5081C10.7488 15.4684 10.7036 15.4485 10.6504 15.4485C10.5935 15.4485 10.5465 15.4696 10.5094 15.5114C10.4722 15.5532 10.454 15.6101 10.4547 15.682H10.8443ZM10.8309 15.945L11.0884 15.988C11.0551 16.0824 11.0025 16.1543 10.9307 16.2037C10.8588 16.2531 10.7689 16.2778 10.661 16.2778C10.4901 16.2778 10.3637 16.2219 10.2817 16.1102C10.2169 16.0207 10.1846 15.9078 10.1846 15.7712C10.1846 15.6084 10.2271 15.4807 10.3122 15.3884C10.3973 15.2961 10.5048 15.25 10.6348 15.25C10.781 15.25 10.8963 15.2984 10.9807 15.3952C11.0652 15.4922 11.1055 15.6405 11.1018 15.8404H10.4501C10.4519 15.9175 10.473 15.9774 10.5134 16.0204C10.5537 16.0631 10.604 16.0846 10.6643 16.0846C10.7052 16.0846 10.7397 16.0736 10.7676 16.0515C10.7955 16.0295 10.8167 15.994 10.8309 15.945Z" fill="#0B4A8E"/>
<path fill-rule="evenodd" clip-rule="evenodd" d="M11.9531 16.2509V14.8984H12.9536V15.1266H12.2267V15.4271H12.9026V15.6552H12.2267V16.0228H12.9804V16.2509H11.9531Z" fill="#0B4A8E"/>
<path fill-rule="evenodd" clip-rule="evenodd" d="M13.9106 16.2529V16.1062C13.8748 16.1585 13.8278 16.2001 13.7696 16.2309C13.7113 16.2616 13.6498 16.2771 13.5851 16.2771C13.5191 16.2771 13.4601 16.2626 13.4076 16.2337C13.3553 16.2047 13.3173 16.164 13.2939 16.1117C13.2705 16.0593 13.2588 15.9869 13.2588 15.8945V15.2734H13.5189V15.7239C13.5189 15.8618 13.5237 15.9463 13.5333 15.9773C13.5428 16.0086 13.5601 16.0331 13.5854 16.0513C13.6106 16.0695 13.6425 16.0785 13.6813 16.0785C13.7256 16.0785 13.7653 16.0665 13.8004 16.0421C13.8355 16.0178 13.8594 15.9876 13.8724 15.9516C13.8852 15.9156 13.8918 15.8274 13.8918 15.6871V15.2734H14.1519V16.2529H13.9106Z" fill="#0B4A8E"/>
<path fill-rule="evenodd" clip-rule="evenodd" d="M14.723 16.2536H14.4629V15.2741H14.7042V15.4134C14.7455 15.3476 14.7826 15.304 14.8156 15.2824C14.8485 15.2608 14.8859 15.25 14.9277 15.25C14.9868 15.25 15.0438 15.2664 15.0985 15.2991L15.0194 15.5259C14.9756 15.4977 14.9348 15.4835 14.8972 15.4835C14.8607 15.4835 14.8299 15.4935 14.8046 15.5135C14.7793 15.5335 14.7593 15.5697 14.7448 15.622C14.7303 15.6743 14.723 15.7839 14.723 15.9507V16.2536Z" fill="#0B4A8E"/>
<path fill-rule="evenodd" clip-rule="evenodd" d="M15.4697 15.7638C15.4697 15.8615 15.4928 15.9361 15.5391 15.988C15.5853 16.0398 15.6423 16.0658 15.7102 16.0658C15.778 16.0658 15.8349 16.0398 15.8808 15.988C15.9268 15.9361 15.9498 15.8608 15.9498 15.762C15.9498 15.6658 15.9268 15.5916 15.8808 15.5398C15.8349 15.4879 15.778 15.462 15.7102 15.462C15.6423 15.462 15.5853 15.4879 15.5391 15.5398C15.4928 15.5916 15.4697 15.6664 15.4697 15.7638ZM15.2041 15.7499C15.2041 15.6636 15.2253 15.5799 15.2678 15.499C15.3102 15.4182 15.3703 15.3565 15.4481 15.3139C15.5259 15.2713 15.6128 15.25 15.7088 15.25C15.857 15.25 15.9784 15.2983 16.0732 15.3949C16.1679 15.4915 16.2152 15.6136 16.2152 15.7611C16.2152 15.9098 16.1673 16.0332 16.0717 16.131C15.9761 16.2288 15.8557 16.2778 15.7106 16.2778C15.6208 16.2778 15.5351 16.2574 15.4537 16.2167C15.3722 16.176 15.3102 16.1163 15.2678 16.0375C15.2253 15.9588 15.2041 15.863 15.2041 15.7499Z" fill="#0B4A8E"/>
<path fill-rule="evenodd" clip-rule="evenodd" d="M17.335 15.1266V15.513H17.484C17.5913 15.513 17.663 15.506 17.6992 15.4917C17.7354 15.4775 17.7638 15.4552 17.7843 15.4248C17.8048 15.3944 17.8151 15.3591 17.8151 15.3189C17.8151 15.2693 17.8007 15.2284 17.7719 15.1962C17.743 15.164 17.7065 15.144 17.6624 15.1359C17.6299 15.1297 17.5647 15.1266 17.4665 15.1266H17.335ZM17.0615 16.2509V14.8984H17.4994C17.6653 14.8984 17.7736 14.9053 17.8239 14.9188C17.9013 14.9391 17.9661 14.9833 18.0184 15.0513C18.0707 15.1192 18.0968 15.2071 18.0968 15.3147C18.0968 15.3978 18.0818 15.4675 18.0516 15.5243C18.0216 15.5808 17.9833 15.6253 17.937 15.6575C17.8906 15.6899 17.8435 15.7112 17.7956 15.7217C17.7305 15.7347 17.6362 15.7411 17.5129 15.7411H17.3351V16.2509H17.0615Z" fill="#0B4A8E"/>
<path fill-rule="evenodd" clip-rule="evenodd" d="M18.9146 15.7841C18.8814 15.7952 18.8289 15.8084 18.7572 15.8239C18.6854 15.8393 18.6385 15.8545 18.6165 15.8692C18.5827 15.8934 18.5659 15.9239 18.5659 15.9609C18.5659 15.9974 18.5793 16.0289 18.6063 16.0555C18.6333 16.082 18.6676 16.0953 18.7094 16.0953C18.7561 16.0953 18.8004 16.0799 18.8428 16.0491C18.8741 16.0255 18.8947 15.9968 18.9044 15.9628C18.9111 15.9406 18.9146 15.8983 18.9146 15.8358V15.7841ZM18.5659 15.572L18.3325 15.5291C18.359 15.4342 18.4045 15.364 18.469 15.3184C18.5336 15.2728 18.6296 15.25 18.7569 15.25C18.8725 15.25 18.9586 15.2637 19.0152 15.291C19.0718 15.3186 19.1117 15.3534 19.1347 15.3956C19.1578 15.4377 19.1693 15.5153 19.1693 15.628L19.1667 15.9311C19.1667 16.0173 19.1708 16.0811 19.179 16.1219C19.1874 16.1629 19.2029 16.2068 19.2257 16.2536H18.9682C18.9613 16.2367 18.9531 16.2115 18.9432 16.1782C18.9389 16.163 18.9358 16.153 18.9341 16.1481C18.8898 16.1913 18.8425 16.2238 18.7921 16.2454C18.7418 16.267 18.6881 16.2778 18.631 16.2778C18.5302 16.2778 18.4507 16.2503 18.3927 16.1955C18.3347 16.1407 18.3057 16.0713 18.3057 15.9875C18.3057 15.9321 18.3189 15.8826 18.3452 15.8392C18.3718 15.7957 18.4088 15.7624 18.4565 15.7393C18.5042 15.7163 18.5729 15.6959 18.6627 15.6787C18.7838 15.6559 18.8678 15.6347 18.9145 15.615V15.5888C18.9145 15.5383 18.9022 15.5023 18.8774 15.4807C18.8526 15.4593 18.806 15.4485 18.7374 15.4485C18.691 15.4485 18.6549 15.4577 18.6289 15.4759C18.6029 15.4942 18.5819 15.5262 18.5659 15.572Z" fill="#0B4A8E"/>
<path fill-rule="evenodd" clip-rule="evenodd" d="M19.3564 15.2734H19.6326L19.8674 15.9688L20.0967 15.2734H20.3649L19.9569 16.3883C19.9341 16.4457 19.9124 16.4894 19.8918 16.5196C19.8712 16.5497 19.8474 16.5743 19.8206 16.593C19.7937 16.6118 19.761 16.6266 19.7218 16.637C19.6827 16.6476 19.6385 16.6528 19.5892 16.6528C19.5393 16.6528 19.4903 16.6476 19.4423 16.6371L19.4181 16.434C19.4588 16.4421 19.4957 16.4461 19.5284 16.4461C19.5891 16.4461 19.6338 16.4282 19.6629 16.3924C19.692 16.3565 19.7143 16.3109 19.7297 16.2556L19.3564 15.2734Z" fill="#0B4A8E"/>
<path fill-rule="evenodd" clip-rule="evenodd" d="M20.5674 15.2741H20.8061V15.4079C20.8918 15.3026 20.9939 15.25 21.1123 15.25C21.1751 15.25 21.2297 15.2629 21.276 15.2887C21.3222 15.3147 21.3602 15.3538 21.3897 15.4061C21.4328 15.3538 21.4794 15.3147 21.5292 15.2887C21.5791 15.2629 21.6322 15.25 21.6889 15.25C21.761 15.25 21.8219 15.2646 21.8718 15.294C21.9217 15.3231 21.959 15.3661 21.9836 15.4229C22.0014 15.4647 22.0103 15.5324 22.0103 15.6261V16.2536H21.7502V15.6926C21.7502 15.5952 21.7413 15.5324 21.7235 15.5041C21.6995 15.467 21.6626 15.4485 21.6129 15.4485C21.5766 15.4485 21.5425 15.4596 21.5105 15.4819C21.4786 15.5041 21.4556 15.5366 21.4415 15.5794C21.4274 15.6222 21.4203 15.6898 21.4203 15.7822V16.2536H21.1601V15.7158C21.1601 15.6201 21.1556 15.5586 21.1463 15.5308C21.1371 15.5031 21.1229 15.4825 21.1035 15.4689C21.0841 15.4554 21.0579 15.4485 21.0247 15.4485C20.9848 15.4485 20.9488 15.4594 20.9169 15.4809C20.8849 15.5025 20.8621 15.5336 20.8482 15.5743C20.8344 15.615 20.8275 15.6824 20.8275 15.7766V16.2536H20.5674V15.2741Z" fill="#0B4A8E"/>
<path fill-rule="evenodd" clip-rule="evenodd" d="M22.9069 15.682C22.9051 15.6057 22.8857 15.5479 22.8484 15.5081C22.8114 15.4684 22.7662 15.4485 22.713 15.4485C22.6562 15.4485 22.609 15.4696 22.572 15.5114C22.5349 15.5532 22.5167 15.6101 22.5173 15.682H22.9069ZM22.8935 15.945L23.151 15.988C23.1176 16.0824 23.0651 16.1543 22.9933 16.2037C22.9213 16.2531 22.8315 16.2778 22.7235 16.2778C22.5527 16.2778 22.4263 16.2219 22.3442 16.1102C22.2794 16.0207 22.2471 15.9078 22.2471 15.7712C22.2471 15.6084 22.2897 15.4807 22.3747 15.3884C22.4598 15.2961 22.5673 15.25 22.6974 15.25C22.8436 15.25 22.9588 15.2984 23.0432 15.3952C23.1277 15.4922 23.1681 15.6405 23.1644 15.8404H22.5126C22.5145 15.9175 22.5356 15.9774 22.576 16.0204C22.6162 16.0631 22.6665 16.0846 22.7268 16.0846C22.7678 16.0846 22.8022 16.0736 22.8301 16.0515C22.8582 16.0295 22.8793 15.994 22.8935 15.945Z" fill="#0B4A8E"/>
<path fill-rule="evenodd" clip-rule="evenodd" d="M24.3218 16.2536H24.0617V15.7526C24.0617 15.6466 24.0561 15.5781 24.0452 15.547C24.0341 15.5159 24.0162 15.4916 23.9914 15.4744C23.9666 15.4572 23.9367 15.4485 23.9019 15.4485C23.8572 15.4485 23.8171 15.4609 23.7816 15.4855C23.7461 15.5102 23.7218 15.5428 23.7086 15.5835C23.6955 15.6241 23.6889 15.6993 23.6889 15.809V16.2536H23.4287V15.2741H23.6701V15.4181C23.7555 15.306 23.8631 15.25 23.9927 15.25C24.0498 15.25 24.1022 15.2604 24.1494 15.281C24.1967 15.3016 24.2326 15.328 24.2569 15.36C24.2812 15.392 24.298 15.4284 24.3075 15.4691C24.3171 15.5097 24.3218 15.5679 24.3218 15.6436V16.2536Z" fill="#0B4A8E"/>
<path fill-rule="evenodd" clip-rule="evenodd" d="M25.0894 15.2746V15.4812H24.9123V15.8775C24.9123 15.9577 24.914 16.0045 24.9173 16.0177C24.9206 16.031 24.9281 16.0419 24.9399 16.0506C24.9517 16.0592 24.966 16.0636 24.9829 16.0636C25.0066 16.0636 25.0406 16.0553 25.0854 16.0387L25.1081 16.2394C25.0481 16.2653 24.9802 16.2783 24.9044 16.2783C24.8578 16.2783 24.816 16.2704 24.7787 16.2546C24.7415 16.239 24.7141 16.2186 24.6966 16.1936C24.6791 16.1687 24.6671 16.1349 24.6604 16.0924C24.6549 16.0622 24.6522 16.0012 24.6522 15.9094V15.4812H24.5342V15.2746H24.6522V15.0787L24.9123 14.9258V15.2746H25.0894Z" fill="#0B4A8E"/>
<path fill-rule="evenodd" clip-rule="evenodd" d="M25.2354 15.9772L25.4955 15.937C25.5066 15.987 25.529 16.025 25.5627 16.051C25.5965 16.077 25.6437 16.0899 25.7045 16.0899C25.7715 16.0899 25.8219 16.0775 25.8556 16.0528C25.8784 16.0354 25.8898 16.0123 25.8898 15.9831C25.8898 15.9633 25.8835 15.9468 25.8712 15.934C25.8581 15.9215 25.8291 15.9101 25.784 15.8995C25.5738 15.8531 25.4405 15.8107 25.3843 15.7725C25.3064 15.7195 25.2675 15.6458 25.2675 15.5516C25.2675 15.4664 25.3011 15.3949 25.3685 15.337C25.4359 15.279 25.5404 15.25 25.6819 15.25C25.8167 15.25 25.9167 15.2717 25.9823 15.3151C26.0478 15.3585 26.0929 15.4227 26.1177 15.5076L25.8737 15.5532C25.8631 15.5152 25.843 15.4859 25.8135 15.4656C25.7839 15.4453 25.7417 15.4351 25.6871 15.4351C25.6181 15.4351 25.5685 15.4447 25.5388 15.464C25.5188 15.4776 25.5089 15.4952 25.5089 15.5168C25.5089 15.5354 25.5175 15.5512 25.5348 15.5643C25.5582 15.5815 25.6393 15.606 25.778 15.6376C25.9166 15.6692 26.0134 15.7079 26.0684 15.7536C26.1226 15.8 26.1499 15.8647 26.1499 15.9475C26.1499 16.0378 26.1123 16.1154 26.0374 16.1803C25.9623 16.2453 25.8514 16.2778 25.7045 16.2778C25.5712 16.2778 25.4656 16.2507 25.3879 16.1969C25.3101 16.1429 25.2593 16.0698 25.2354 15.9772Z" fill="#0B4A8E"/>
<path fill-rule="evenodd" clip-rule="evenodd" d="M27.7334 15.717L27.5444 15.2151L27.3618 15.717H27.7334ZM28.2351 16.2509H27.9406L27.8237 15.945H27.2788L27.1674 16.2509H26.8779L27.4016 14.8984H27.6893L28.2351 16.2509Z" fill="#0B4A8E"/>
<path fill-rule="evenodd" clip-rule="evenodd" d="M28.682 16.2536H28.4219V15.2741H28.6632V15.4134C28.7045 15.3476 28.7415 15.304 28.7745 15.2824C28.8074 15.2608 28.8447 15.25 28.8867 15.25C28.9458 15.25 29.0027 15.2664 29.0575 15.2991L28.9784 15.5259C28.9345 15.4977 28.8938 15.4835 28.8562 15.4835C28.8196 15.4835 28.7888 15.4935 28.7635 15.5135C28.7381 15.5335 28.7182 15.5697 28.7038 15.622C28.6892 15.6743 28.682 15.7839 28.682 15.9507V16.2536Z" fill="#0B4A8E"/>
<path fill-rule="evenodd" clip-rule="evenodd" d="M29.8083 15.682C29.8064 15.6057 29.7869 15.5479 29.7499 15.5081C29.7127 15.4684 29.6676 15.4485 29.6144 15.4485C29.5574 15.4485 29.5105 15.4696 29.4734 15.5114C29.4363 15.5532 29.418 15.6101 29.4187 15.682H29.8083ZM29.7949 15.945L30.0524 15.988C30.0191 16.0824 29.9665 16.1543 29.8946 16.2037C29.8228 16.2531 29.7328 16.2778 29.625 16.2778C29.4541 16.2778 29.3276 16.2219 29.2456 16.1102C29.1808 16.0207 29.1484 15.9078 29.1484 15.7712C29.1484 15.6084 29.191 15.4807 29.2761 15.3884C29.3611 15.2961 29.4687 15.25 29.5988 15.25C29.7449 15.25 29.8601 15.2984 29.9447 15.3952C30.029 15.4922 30.0695 15.6405 30.0658 15.8404H29.414C29.4159 15.9175 29.437 15.9774 29.4772 16.0204C29.5177 16.0631 29.568 16.0846 29.6281 16.0846C29.6692 16.0846 29.7036 16.0736 29.7316 16.0515C29.7594 16.0295 29.7806 15.994 29.7949 15.945Z" fill="#0B4A8E"/>
<path fill-rule="evenodd" clip-rule="evenodd" d="M30.8724 15.7841C30.8393 15.7952 30.7868 15.8084 30.715 15.8239C30.6433 15.8393 30.5964 15.8545 30.5744 15.8692C30.5405 15.8934 30.5238 15.9239 30.5238 15.9609C30.5238 15.9974 30.5372 16.0289 30.5642 16.0555C30.5912 16.082 30.6255 16.0953 30.6673 16.0953C30.7139 16.0953 30.7583 16.0799 30.8007 16.0491C30.8319 16.0255 30.8525 15.9968 30.8623 15.9628C30.869 15.9406 30.8724 15.8983 30.8724 15.8358V15.7841ZM30.5238 15.572L30.2905 15.5291C30.3169 15.4342 30.3624 15.364 30.4269 15.3184C30.4915 15.2728 30.5875 15.25 30.7148 15.25C30.8304 15.25 30.9166 15.2637 30.9731 15.291C31.0297 15.3186 31.0696 15.3534 31.0926 15.3956C31.1157 15.4377 31.1273 15.5153 31.1273 15.628L31.1246 15.9311C31.1246 16.0173 31.1287 16.0811 31.137 16.1219C31.1453 16.1629 31.1608 16.2068 31.1835 16.2536H30.9261C30.9192 16.2367 30.9111 16.2115 30.9011 16.1782C30.8969 16.163 30.8937 16.153 30.892 16.1481C30.8477 16.1913 30.8005 16.2238 30.7501 16.2454C30.6998 16.267 30.646 16.2778 30.5889 16.2778C30.4881 16.2778 30.4086 16.2503 30.3506 16.1955C30.2927 16.1407 30.2637 16.0713 30.2637 15.9875C30.2637 15.9321 30.2768 15.8826 30.3032 15.8392C30.3297 15.7957 30.3668 15.7624 30.4144 15.7393C30.4621 15.7163 30.5309 15.6959 30.6206 15.6787C30.7417 15.6559 30.8257 15.6347 30.8724 15.615V15.5888C30.8724 15.5383 30.8601 15.5023 30.8354 15.4807C30.8107 15.4593 30.764 15.4485 30.6953 15.4485C30.649 15.4485 30.6128 15.4577 30.5868 15.4759C30.5609 15.4942 30.5398 15.5262 30.5238 15.572Z" fill="#0B4A8E"/>
<path fill-rule="evenodd" clip-rule="evenodd" d="M11.0388 9.58765H9.26746C9.26746 9.29681 9.2333 9.10162 9.16532 9.00227C9.05993 8.85526 8.76897 8.78166 8.2928 8.78166C7.83036 8.78166 7.52378 8.824 7.37418 8.90875C7.22467 8.99377 7.14983 9.17865 7.14983 9.46331C7.14983 9.72101 7.21609 9.89069 7.34895 9.97202C7.44413 10.0297 7.56987 10.0636 7.72668 10.0738L8.08389 10.099C8.84948 10.1499 9.32763 10.1857 9.51833 10.206C10.1238 10.2671 10.5627 10.4282 10.835 10.6892C11.0493 10.8929 11.1771 11.1591 11.2179 11.4878C11.2418 11.6845 11.2536 11.907 11.2536 12.1542C11.2536 12.724 11.1993 13.1414 11.0904 13.4058C10.8932 13.8911 10.4502 14.1976 9.7608 14.3263C9.47199 14.3807 9.03015 14.408 8.43587 14.408C7.44388 14.408 6.75253 14.3489 6.36219 14.2301C5.8831 14.0847 5.56725 13.79 5.41439 13.3462C5.32925 13.0991 5.28711 12.6877 5.28711 12.1118H7.05842C7.05842 12.176 7.0586 12.2251 7.0586 12.2589C7.0586 12.5663 7.14691 12.764 7.32312 12.852C7.44525 12.9127 7.5927 12.9445 7.76607 12.9483H8.41725C8.74957 12.9483 8.96166 12.9313 9.05315 12.8971C9.21596 12.8331 9.32282 12.73 9.37389 12.5872C9.40101 12.4994 9.41448 12.3857 9.41448 12.2466C9.41448 11.935 9.30076 11.7453 9.07375 11.6773C8.98886 11.6505 8.59388 11.613 7.88889 11.5655C7.32277 11.5251 6.92951 11.4862 6.70928 11.4485C6.12934 11.3399 5.74286 11.1168 5.55 10.7779C5.38049 10.49 5.29569 10.0544 5.29569 9.47164C5.29569 9.02786 5.34152 8.67201 5.4331 8.40434C5.52477 8.1366 5.67248 7.93334 5.87632 7.79431C6.17491 7.58092 6.55702 7.45564 7.02212 7.4182C7.40912 7.38445 7.83843 7.36719 8.31065 7.36719C9.05409 7.36719 9.58391 7.40995 9.89975 7.49471C10.6706 7.70191 11.0559 8.28232 11.0559 9.2361C11.0559 9.31432 11.0502 9.43128 11.0388 9.58765Z" fill="#0B4A8E"/>
<path fill-rule="evenodd" clip-rule="evenodd" d="M20.7319 10.9369H21.9189C22.2953 10.9233 22.5242 10.8944 22.6066 10.849C22.7191 10.7871 22.7946 10.6632 22.8322 10.4773C22.8563 10.3536 22.8683 10.1696 22.8683 9.92524C22.8683 9.62589 22.8444 9.404 22.7964 9.25905C22.7279 9.05605 22.5639 8.93239 22.3041 8.88748C22.2528 8.8807 22.1298 8.87709 21.935 8.87709H20.7319V10.9369ZM18.8281 14.4063V7.32812H22.3755C22.862 7.32812 23.2333 7.36788 23.4884 7.44731C24.0719 7.63022 24.4633 8.00471 24.6638 8.57069C24.7673 8.86772 24.8191 9.31493 24.8191 9.91209C24.8191 10.6301 24.7617 11.1461 24.6481 11.4602C24.4206 12.0814 23.9522 12.4392 23.245 12.5319C23.1618 12.5459 22.808 12.5583 22.1834 12.5683L21.8673 12.5788H20.7321V14.4063H18.8281Z" fill="#0B4A8E"/>
<path fill-rule="evenodd" clip-rule="evenodd" d="M28.5049 11.8041L27.6128 8.7358L26.7471 11.8041H28.5049ZM28.8831 13.183H26.3373L25.9953 14.4063H24.0254L26.151 7.32812H29.0231L31.1748 14.4063H29.2463L28.8831 13.183Z" fill="#0B4A8E"/>
<path fill-rule="evenodd" clip-rule="evenodd" d="M16.2002 8.32345C16.9855 8.32345 17.6864 8.6854 18.1471 9.25232L18.5575 8.37188C17.9156 7.76485 17.042 7.39062 16.0784 7.39062C14.5781 7.39062 13.2948 8.29717 12.768 9.58044H11.9677L11.4951 10.5941H12.5247C12.517 10.6881 12.512 10.7822 12.512 10.8782C12.512 10.9944 12.518 11.1092 12.5295 11.2226H12.0121L11.5396 12.2366H12.7926C13.3343 13.4874 14.6017 14.3655 16.0784 14.3655C16.8226 14.3655 17.5132 14.1424 18.085 13.7613V12.5187C17.6245 13.0432 16.951 13.3747 16.2002 13.3747C15.3225 13.3747 14.5505 12.9219 14.1009 12.2366H16.7248L17.1973 11.2226H13.7149C13.6969 11.1006 13.6873 10.9759 13.6873 10.8489C13.6873 10.7631 13.6918 10.678 13.7 10.5941H17.4901L17.9626 9.58044H14.0278C14.463 8.82906 15.2727 8.32345 16.2002 8.32345Z" fill="#F6BC25"/>
</svg>
