<svg xmlns="http://www.w3.org/2000/svg" width="36" height="24" viewBox="0 0 36 24" fill="none"><rect width="33.8" height="23" x="1.1" y=".5" fill="#fff" stroke="#DDD" rx="3.5"/><path fill="#0B4A8E" fill-rule="evenodd" d="m5.3 15.8.26-.02c.02.1.05.16.1.2a.3.3 0 0 0 .2.06c.08 0 .15-.02.2-.05a.17.17 0 0 0 .06-.13c0-.04 0-.06-.03-.09a.23.23 0 0 0-.1-.06l-.21-.05a.74.74 0 0 1-.31-.14.35.35 0 0 1-.07-.46c.04-.06.1-.1.17-.14a.68.68 0 0 1 .27-.04c.17 0 .3.03.38.1a.4.4 0 0 1 .14.3l-.28.02c0-.07-.03-.12-.07-.15-.04-.03-.1-.05-.18-.05a.31.31 0 0 0-.18.05.1.1 0 0 0-.04.08c0 .04 0 .06.04.09l.25.09c.13.03.23.06.29.1.06.03.11.07.15.13a.4.4 0 0 1 .05.22.4.4 0 0 1-.24.37.76.76 0 0 1-.3.05c-.17 0-.3-.04-.4-.12a.52.52 0 0 1-.16-.35ZM6.68 15.27h.26v.98h-.26v-.98Zm0-.37h.26v.24h-.26v-.24ZM8.15 16.25H7.9v-.5l-.01-.2a.14.14 0 0 0-.06-.08.15.15 0 0 0-.09-.02.2.2 0 0 0-.12.04.19.19 0 0 0-.07.1.85.85 0 0 0-.02.22v.44h-.26v-.98h.24v.15c.09-.11.2-.17.32-.17.06 0 .11.01.16.03.05.02.08.05.1.08.03.03.05.07.06.1l.01.18v.61ZM8.68 15.74c0 .1.02.18.06.23.04.05.09.07.15.07a.2.2 0 0 0 .15-.07c.05-.05.07-.12.07-.22s-.02-.18-.06-.23a.2.2 0 0 0-.16-.07.19.19 0 0 0-.15.07c-.04.05-.06.12-.06.22Zm-.24.58.3.03c0 .04.02.06.03.08.03.02.07.02.12.02a.3.3 0 0 0 .15-.03.13.13 0 0 0 .05-.06.4.4 0 0 0 .02-.12v-.14a.35.35 0 0 1-.3.15.36.36 0 0 1-.3-.16.57.57 0 0 1-.1-.33c0-.17.04-.3.12-.38a.38.38 0 0 1 .3-.13c.12 0 .22.05.3.16v-.14h.24v.88c0 .12-.01.2-.03.26a.32.32 0 0 1-.08.14.35.35 0 0 1-.14.08.73.73 0 0 1-.22.02c-.16 0-.28-.03-.35-.08a.27.27 0 0 1-.1-.22v-.03ZM9.68 14.9h.26v1.35h-.26V14.9ZM10.84 15.68c0-.07-.02-.13-.05-.17a.18.18 0 0 0-.14-.06c-.06 0-.1.02-.14.06a.24.24 0 0 0-.06.17h.4Zm0 .27.25.04a.42.42 0 0 1-.16.21.47.47 0 0 1-.27.08c-.17 0-.3-.06-.38-.17a.56.56 0 0 1-.1-.34c0-.16.05-.29.13-.38.09-.1.2-.14.32-.14.15 0 .27.05.35.15.09.1.13.24.12.44h-.65c0 .08.02.14.06.18.04.04.1.06.15.06.05 0 .08 0 .1-.03a.2.2 0 0 0 .07-.1ZM11.95 16.25V14.9h1v.23h-.72v.3h.67v.23h-.67v.36h.75v.23h-1.03ZM13.91 16.25v-.14a.4.4 0 0 1-.5.13.26.26 0 0 1-.12-.13.54.54 0 0 1-.03-.22v-.62h.26v.45l.01.26c.01.03.03.05.06.07.02.02.05.03.1.03a.2.2 0 0 0 .18-.13c.02-.03.02-.12.02-.26v-.42h.26v.98h-.24ZM14.72 16.25h-.26v-.98h.24v.14l.12-.13a.2.2 0 0 1 .1-.03c.07 0 .12.02.18.05l-.08.23a.23.23 0 0 0-.12-.05.14.14 0 0 0-.1.03l-.06.11c-.01.05-.02.16-.02.33v.3ZM15.47 15.76c0 .1.02.18.07.23.05.05.1.08.17.08s.12-.03.17-.08c.05-.05.07-.13.07-.23s-.02-.17-.07-.22a.22.22 0 0 0-.17-.08.22.22 0 0 0-.17.08c-.05.05-.07.13-.07.22Zm-.27-.01c0-.09.03-.17.07-.25.04-.08.1-.14.18-.19a.53.53 0 0 1 .26-.06.49.49 0 0 1 .5.51.5.5 0 0 1-.14.37c-.1.1-.21.15-.36.15a.57.57 0 0 1-.26-.06.42.42 0 0 1-.18-.18.6.6 0 0 1-.07-.29ZM17.34 15.13v.38h.14c.11 0 .18 0 .22-.02a.18.18 0 0 0 .12-.17.18.18 0 0 0-.05-.12.19.19 0 0 0-.1-.06l-.2-.01h-.13Zm-.28 1.12V14.9h.44c.17 0 .27 0 .32.02.08.02.15.06.2.13.05.07.08.16.08.26 0 .09-.02.16-.05.21a.4.4 0 0 1-.26.2l-.28.02h-.17v.51h-.28ZM18.91 15.78c-.03.02-.08.03-.15.04a.47.47 0 0 0-.14.05.1.1 0 0 0-.05.1c0 .03 0 .06.04.09.02.02.06.04.1.04.05 0 .09-.02.13-.05a.16.16 0 0 0 .06-.09l.01-.12v-.06Zm-.34-.2-.24-.05c.03-.1.07-.17.14-.21a.5.5 0 0 1 .29-.07c.11 0 .2.01.26.04.05.03.1.06.11.1.03.05.04.13.04.24v.5l.06.12h-.26a.89.89 0 0 1-.04-.1.47.47 0 0 1-.14.1.4.4 0 0 1-.16.03.33.33 0 0 1-.24-.08.27.27 0 0 1-.08-.21c0-.06 0-.1.04-.15a.26.26 0 0 1 .1-.1.87.87 0 0 1 .21-.06l.25-.06v-.03c0-.05 0-.09-.03-.1-.03-.03-.07-.04-.14-.04-.05 0-.09 0-.11.03a.19.19 0 0 0-.06.1ZM19.36 15.27h.27l.24.7.23-.7h.26l-.4 1.12a.7.7 0 0 1-.07.13.28.28 0 0 1-.17.12.69.69 0 0 1-.28 0l-.02-.2h.1c.07 0 .11-.01.14-.05a.37.37 0 0 0 .07-.13l-.37-.99ZM20.57 15.27h.24v.14c.08-.1.18-.16.3-.16a.3.3 0 0 1 .28.16c.04-.06.09-.1.14-.12.05-.03.1-.04.16-.04.07 0 .13.01.18.04.05.03.09.08.11.13.02.04.03.11.03.2v.63h-.26v-.56c0-.1 0-.16-.03-.19-.02-.03-.06-.05-.1-.05a.18.18 0 0 0-.11.03.18.18 0 0 0-.07.1.7.7 0 0 0-.02.2v.47h-.26v-.53l-.01-.19a.12.12 0 0 0-.05-.06.14.14 0 0 0-.08-.02.19.19 0 0 0-.1.03.18.18 0 0 0-.07.1.7.7 0 0 0-.02.2v.47h-.26v-.98ZM22.9 15.68c0-.07-.01-.13-.05-.17a.18.18 0 0 0-.14-.06c-.05 0-.1.02-.14.06a.24.24 0 0 0-.05.17h.39Zm0 .27.25.04a.42.42 0 0 1-.16.21.47.47 0 0 1-.27.08c-.17 0-.3-.06-.38-.17a.56.56 0 0 1-.1-.34c0-.16.05-.29.13-.38.09-.1.2-.14.33-.14.14 0 .26.05.34.15.09.1.13.24.12.44h-.65c0 .08.03.14.07.18a.2.2 0 0 0 .15.06c.04 0 .07 0 .1-.03a.2.2 0 0 0 .06-.1ZM24.32 16.25h-.26v-.5l-.01-.2a.14.14 0 0 0-.06-.08.15.15 0 0 0-.09-.02.2.2 0 0 0-.12.04.19.19 0 0 0-.07.1.85.85 0 0 0-.02.22v.44h-.26v-.98h.24v.15c.09-.11.2-.17.32-.17.06 0 .11.01.16.03.05.02.08.05.1.08.03.03.05.07.06.1l.01.18v.61ZM25.09 15.27v.21h-.18v.4a1 1 0 0 0 0 .14l.03.03.04.01c.03 0 .06 0 .1-.02l.03.2a.5.5 0 0 1-.2.04c-.05 0-.1-.01-.13-.03a.18.18 0 0 1-.08-.06.24.24 0 0 1-.04-.1v-.61h-.13v-.2h.12v-.2l.26-.15v.34h.18ZM25.24 15.98l.26-.04c0 .05.03.08.06.11.04.03.08.04.14.04.07 0 .12-.01.16-.04a.08.08 0 0 0 .03-.07c0-.02 0-.03-.02-.05a.2.2 0 0 0-.09-.03 1.41 1.41 0 0 1-.4-.13.25.25 0 0 1-.11-.22c0-.08.03-.16.1-.21.07-.06.17-.09.31-.09.14 0 .24.02.3.07.07.04.11.1.14.19l-.25.04a.15.15 0 0 0-.06-.08.22.22 0 0 0-.12-.03.28.28 0 0 0-.15.02.06.06 0 0 0-.03.06c0 .02 0 .03.02.04.03.02.1.05.25.08.14.03.23.07.29.11.05.05.08.11.08.2a.3.3 0 0 1-.11.23c-.08.07-.19.1-.34.1a.55.55 0 0 1-.31-.08.37.37 0 0 1-.15-.22ZM27.73 15.72l-.19-.5-.18.5h.37Zm.5.53h-.29l-.12-.3h-.54l-.11.3h-.3l.53-1.35h.29l.55 1.35ZM28.68 16.25h-.26v-.98h.24v.14l.11-.13a.2.2 0 0 1 .12-.03c.06 0 .11.02.17.05l-.08.23a.23.23 0 0 0-.12-.05.14.14 0 0 0-.1.03l-.06.11c-.01.05-.02.16-.02.33v.3ZM29.8 15.68c0-.07-.01-.13-.05-.17a.18.18 0 0 0-.14-.06c-.05 0-.1.02-.14.06a.24.24 0 0 0-.05.17h.39Zm0 .27.25.04a.42.42 0 0 1-.16.21.47.47 0 0 1-.27.08c-.17 0-.3-.06-.37-.17a.56.56 0 0 1-.1-.34c0-.16.04-.29.13-.38.08-.1.19-.14.32-.14.14 0 .26.05.34.15.09.1.13.24.13.44h-.66c0 .08.03.14.07.18.04.04.09.06.15.06.04 0 .07 0 .1-.03a.2.2 0 0 0 .06-.1ZM30.87 15.78c-.03.02-.08.03-.16.04a.47.47 0 0 0-.14.05.1.1 0 0 0-.05.1c0 .03.02.06.04.09.03.02.07.04.1.04.05 0 .1-.02.14-.05a.16.16 0 0 0 .06-.09l.01-.12v-.06Zm-.35-.2-.23-.05c.03-.1.07-.17.14-.21a.5.5 0 0 1 .28-.07c.12 0 .2.01.26.04s.1.06.12.1c.03.05.04.13.04.24v.5l.05.12h-.25a.93.93 0 0 1-.04-.1.47.47 0 0 1-.14.1.4.4 0 0 1-.16.03.33.33 0 0 1-.24-.08.27.27 0 0 1-.09-.21c0-.06.02-.1.04-.15a.26.26 0 0 1 .11-.1.87.87 0 0 1 .21-.06l.25-.06v-.03c0-.05-.01-.09-.03-.1-.03-.03-.08-.04-.14-.04-.05 0-.09 0-.11.03a.19.19 0 0 0-.07.1ZM11.04 9.59H9.27c0-.3-.04-.49-.1-.59-.11-.14-.4-.22-.88-.22-.46 0-.77.04-.92.13-.15.08-.22.27-.22.55 0 .26.07.43.2.51.1.06.22.1.38.1l.35.03 1.44.1c.6.07 1.04.23 1.32.49.2.2.34.47.38.8a5.58 5.58 0 0 1-.13 1.92c-.2.48-.64.79-1.33.92-.29.05-.73.08-1.32.08-1 0-1.69-.06-2.08-.18-.48-.15-.8-.44-.95-.88a4.2 4.2 0 0 1-.12-1.24h1.77v.15c0 .3.09.5.26.6.13.05.27.08.45.09h.65c.33 0 .54-.02.63-.05a.52.52 0 0 0 .32-.31c.03-.1.04-.2.04-.34 0-.31-.1-.5-.34-.57-.08-.03-.48-.07-1.18-.11a14.2 14.2 0 0 1-1.18-.12c-.58-.11-.97-.33-1.16-.67a2.64 2.64 0 0 1-.25-1.3c0-.45.04-.8.13-1.08.1-.26.24-.47.45-.6.3-.22.68-.34 1.14-.38.39-.04.82-.05 1.3-.05.73 0 1.26.04 1.58.12.77.21 1.16.8 1.16 1.75l-.02.35ZM20.73 10.94h1.19c.38-.02.6-.05.69-.1.1-.05.18-.18.22-.36.03-.13.04-.31.04-.55 0-.3-.03-.53-.07-.67-.07-.2-.24-.33-.5-.37l-.37-.01h-1.2v2.06Zm-1.9 3.47V7.33h3.55c.48 0 .85.04 1.1.12.6.18.98.55 1.18 1.12.1.3.16.74.16 1.34a5 5 0 0 1-.17 1.55c-.23.62-.7.98-1.4 1.07-.09.02-.44.03-1.07.04h-1.45v1.84h-1.9ZM28.5 11.8l-.89-3.06-.86 3.06h1.75Zm.38 1.38h-2.54L26 14.41h-1.97l2.12-7.08h2.87l2.15 7.08h-1.92l-.37-1.23Z" clip-rule="evenodd"/><path fill="#F6BC25" fill-rule="evenodd" d="M16.2 8.32c.79 0 1.49.37 1.95.93l.4-.88a3.6 3.6 0 0 0-5.78 1.21h-.8l-.47 1.01h1.02a3.47 3.47 0 0 0 .01.63h-.52l-.47 1.02h1.25a3.6 3.6 0 0 0 5.3 1.52v-1.24a2.5 2.5 0 0 1-3.99-.28h2.62l.48-1.02H13.7a2.56 2.56 0 0 1-.01-.63h3.79l.47-1.01h-3.93a2.5 2.5 0 0 1 2.17-1.26Z" clip-rule="evenodd"/></svg>
