<svg viewBox="0 0 256 160" xmlns="http://www.w3.org/2000/svg"><path d="M50.04 0h63.78c8.9 0 14.44 7.26 12.36 16.19L96.5 143.68c-2.1 8.9-11 16.16-19.92 16.16H12.8c-8.9 0-14.44-7.26-12.36-16.16l29.7-127.49C32.22 7.26 41.13 0 50.04 0" fill="#E21836"/><path d="M108.51 0h73.35c8.9 0 4.88 7.26 2.8 16.19l-29.7 127.49c-2.08 8.9-1.43 16.16-10.35 16.16H71.26c-8.92 0-14.44-7.26-12.34-16.16L88.61 16.19C90.7 7.26 99.6 0 108.5 0" fill="#00447C"/><path d="M178.95 0h63.78c8.91 0 14.45 7.26 12.36 16.19l-29.7 127.49c-2.09 8.9-11 16.16-19.92 16.16h-63.75c-8.92 0-14.45-7.26-12.37-16.16l29.7-127.49C161.12 7.26 170.03 0 178.95 0" fill="#007B84"/><path d="M66.7 40.86c-6.56.06-8.5 0-9.12-.15-.23 1.13-4.66 21.55-4.67 21.56-.96 4.13-1.65 7.08-4 8.98a7.13 7.13 0 01-4.71 1.64c-2.9 0-4.6-1.45-4.89-4.19l-.05-.94.88-5.56s4.65-18.6 5.48-21.06l.07-.28c-9.04.08-10.65 0-10.76-.15-.06.2-.28 1.35-.28 1.35L29.9 63.03l-.41 1.78-.79 5.82a8.6 8.6 0 001.01 4.32c2.16 3.78 8.33 4.35 11.81 4.35 4.5 0 8.71-.96 11.56-2.7 4.94-2.92 6.24-7.49 7.39-11.55l.53-2.08s4.79-19.32 5.6-21.83a.83.83 0 01.09-.28zm16.28 15.58c-1.15 0-3.26.28-5.16 1.21-.68.36-1.33.76-2.02 1.17l.62-2.24-.34-.37c-4.01.81-4.91.92-8.62 1.44l-.31.2c-.43 3.58-.82 6.26-2.41 13.28-.61 2.59-1.24 5.2-1.87 7.78l.17.33c3.8-.2 4.95-.2 8.25-.15l.27-.29c.42-2.15.48-2.65 1.4-7 .44-2.07 1.35-6.6 1.8-8.22a6.16 6.16 0 012.42-.76c1.85 0 1.63 1.62 1.55 2.26a78.7 78.7 0 01-1.44 7.64l-.46 1.95c-.32 1.45-.68 2.85-1 4.28l.14.29c3.75-.2 4.89-.2 8.09-.15l.38-.29c.57-3.35.74-4.25 1.77-9.14l.52-2.25c1-4.4 1.5-6.62.74-8.44-.8-2.03-2.72-2.53-4.5-2.53zm18.19 4.6c-2 .39-3.27.64-4.53.8-1.25.21-2.47.4-4.4.66l-.15.14-.14.1c-.2 1.44-.34 2.68-.6 4.14-.23 1.5-.57 3.21-1.14 5.67a22.3 22.3 0 01-.91 3.2c-.24.67-.51 1.31-1 3.16l.11.17.1.16c1.8-.09 2.98-.15 4.18-.16 1.21-.04 2.46 0 4.4.01l.17-.13.18-.16c.28-1.67.32-2.12.5-2.93.16-.87.46-2.08 1.17-5.31.34-1.52.72-3.03 1.07-4.58l1.11-4.58-.05-.18-.07-.17zm.04-6.2c-1.81-1.07-4.99-.73-7.12.75-2.14 1.44-2.38 3.5-.58 4.58 1.78 1.04 4.97.73 7.09-.76 2.13-1.48 2.4-3.51.6-4.57zm10.94 24.73c3.66 0 7.42-1 10.24-4 2.17-2.43 3.17-6.04 3.51-7.53 1.13-4.93.25-7.23-.85-8.63-1.67-2.14-4.62-2.83-7.68-2.83-1.84 0-6.22.19-9.65 3.34-2.46 2.28-3.6 5.37-4.28 8.33-.69 3.02-1.48 8.46 3.51 10.48 1.55.66 3.77.84 5.2.84zm-.28-11.09c.84-3.73 1.84-6.87 4.38-6.87 2 0 2.14 2.33 1.25 6.08-.16.83-.89 3.92-1.87 5.24-.69.97-1.5 1.56-2.4 1.56-.27 0-1.86 0-1.88-2.36-.01-1.17.22-2.36.52-3.65zm23.19 10.61l.28-.29c.4-2.15.47-2.65 1.37-7 .45-2.07 1.38-6.6 1.82-8.22.83-.38 1.63-.76 2.43-.76 1.84 0 1.61 1.62 1.54 2.26-.07 1.08-.74 4.6-1.44 7.64l-.44 1.95c-.34 1.45-.7 2.85-1.02 4.28l.14.3c3.76-.21 4.86-.21 8.07-.16l.4-.29c.56-3.36.71-4.25 1.77-9.14l.5-2.25c1-4.4 1.52-6.62.77-8.44-.82-2.03-2.76-2.53-4.5-2.53a12.58 12.58 0 00-7.17 2.38l.58-2.24-.31-.37c-4.02.81-4.93.92-8.64 1.44l-.28.2a113.8 113.8 0 01-2.41 13.28c-.61 2.59-1.24 5.2-1.87 7.78l.17.33c3.8-.2 4.94-.2 8.24-.15zm27.61.15c.24-1.15 1.64-8 1.66-8 0 0 1.2-5 1.26-5.19 0 0 .38-.52.76-.73h.55c5.22 0 11.12 0 15.74-3.4a16.78 16.78 0 006.25-9.96c.25-1.02.44-2.24.44-3.46 0-1.6-.33-3.2-1.26-4.43-2.35-3.3-7.04-3.36-12.46-3.38l-2.67.02c-6.94.09-9.72.06-10.86-.08l-.28 1.4-2.48 11.54-6.23 25.63c6.06-.08 8.54-.08 9.58.04zm4.6-20.45l2.64-11.45.08-.59.04-.45 1.05.11 5.58.48c2.15.83 3.03 2.98 2.42 5.78a8.4 8.4 0 01-4.36 5.74c-1.75.88-3.9.95-6.12.95h-1.43l.1-.57zm16.45 9.9c-.7 2.98-1.5 8.41 3.47 10.35 1.59.67 3.01.88 4.45.8 1.53-.08 2.94-.85 4.25-1.95l-.35 1.36.22.3c3.58-.16 4.69-.16 8.57-.13l.35-.27c.56-3.32 1.1-6.55 2.57-12.92.71-3.05 1.43-6.06 2.16-9.1l-.11-.33c-4 .74-5.07.9-8.92 1.44l-.3.24-.11.9a5.5 5.5 0 00-2.8-2.3c-1.72-.68-5.74.19-9.2 3.34-2.42 2.24-3.59 5.32-4.25 8.27zm8.4.18c.86-3.66 1.85-6.77 4.4-6.77 1.6 0 2.46 1.5 2.28 4.03-.13.63-.28 1.3-.46 2.05-.25 1.1-.53 2.17-.8 3.25a7.64 7.64 0 01-.94 1.9c-.66.94-2.22 1.51-3.11 1.51-.26 0-1.83 0-1.89-2.32a16 16 0 01.53-3.65zm43.9-12.1l-.32-.36c-3.96.8-4.67.93-8.31 1.42l-.27.27-.04.17-.01-.06c-2.71 6.25-2.63 4.9-4.84 9.82l-.02-.6-.55-10.66-.35-.36c-4.15.8-4.25.93-8.08 1.42l-.3.27c-.04.13-.04.27-.06.42l.02.06c.48 2.44.37 1.9.85 5.76.22 1.9.52 3.8.74 5.67.38 3.13.6 4.68 1.05 9.46-2.58 4.26-3.2 5.88-5.69 9.63l.02.03-1.75 2.78c-.2.29-.38.49-.64.57a2.6 2.6 0 01-1.15.17h-.97l-1.44 4.8 4.95.09c2.9-.02 4.74-1.38 5.72-3.2L217.7 89h-.05l.32-.38c2.1-4.5 18.04-31.85 18.04-31.85zm-52.3 63.08h-2.1l7.78-25.73h2.58l.82-2.65.08 2.95c-.1 1.82 1.33 3.44 5.1 3.17h4.35l1.5-4.95h-1.64c-.94 0-1.38-.24-1.32-.75l-.08-3h-8.06v.02c-2.61.05-10.4.25-11.97.67a14.1 14.1 0 00-3.92 1.93l.79-2.65h-7.54l-1.57 5.26-7.89 26.13h-1.53l-1.5 4.92h15.03l-.5 1.64h7.4l.49-1.64h2.07l1.63-5.32zm-6.16-20.5a35 35 0 00-3.46 1.35l2-6.58h6l-1.45 4.8s-1.85.1-3.1.43zm.11 9.4s-1.88.23-3.12.51c-1.22.37-3.5 1.54-3.5 1.54l2.06-6.84h6.02l-1.46 4.79zm-3.36 11.16h-6l1.74-5.77h5.99l-1.73 5.77zm14.48-15.95h8.67l-1.25 4.03h-8.78l-1.32 4.4h7.69l-5.82 8.2c-.4.6-.77.81-1.18.98-.4.2-.94.45-1.56.45h-2.13l-1.47 4.83h5.58c2.9 0 4.6-1.32 5.87-3.05l3.99-5.46.86 5.54a2.6 2.6 0 001.43 1.89c.56.28 1.13.76 1.95.83.87.04 1.5.07 1.92.07h2.74l1.65-5.4h-1.08c-.62 0-1.7-.11-1.87-.3-.18-.24-.18-.6-.28-1.16l-.87-5.56h-3.56l1.56-1.85h8.76l1.35-4.41h-8.11l1.26-4.03h8.1l1.5-4.98h-24.12l-1.48 4.98zm-73.18 17.08l2.02-6.73h8.31l1.52-5h-8.32l1.27-4.15h8.13l1.5-4.84H109.7l-1.47 4.84h4.62l-1.23 4.14h-4.64l-1.53 5.1h4.62l-2.7 8.9c-.36 1.17.17 1.62.51 2.17.35.53.7.89 1.49 1.09a9 9 0 002.13.29h9.37l1.67-5.55-4.15.58c-.8 0-3.03-.1-2.78-.84zm.95-32.21l-2.1 3.8a4.42 4.42 0 01-1.23 1.6c-.32.2-.96.28-1.88.28h-1.1l-1.47 4.87h3.65c1.76 0 3.1-.65 3.75-.97.69-.37.87-.16 1.4-.67l1.24-1.07h11.4l1.5-5.07h-8.33l1.45-2.77h-8.28zm16.83 32.3c-.2-.27-.06-.77.24-1.8l3.11-10.3h11.09c1.61-.03 2.78-.05 3.54-.1.81-.09 1.7-.38 2.66-.9a5 5 0 001.94-1.79 15.1 15.1 0 001.91-4.33l3.92-13.05-11.5.07s-3.54.52-5.1 1.1c-1.58.64-3.82 2.44-3.82 2.44l1.04-3.58h-7.1l-9.96 32.98a20.34 20.34 0 00-.64 2.77c-.02.6.76 1.2 1.26 1.65.6.45 1.48.38 2.32.45.9.07 2.15.1 3.9.1h5.46l1.67-5.65-4.89.46c-.52 0-.9-.28-1.05-.52zm5.36-19.07h11.64l-.74 2.32c-.1.05-.35-.12-1.53.02h-10.08l.71-2.34zm2.34-7.78h11.73l-.84 2.8s-5.53-.06-6.42.1c-3.9.68-6.17 2.76-6.17 2.76l1.7-5.66zm8.83 17.87c-.1.34-.25.56-.47.71-.23.16-.62.21-1.19.21h-1.65l.1-2.82h-6.9l-.29 13.8c0 1 .09 1.58.82 2.04.73.58 2.97.65 6 .65h4.32l1.56-5.17-3.76.2-1.25.08c-.17-.07-.34-.14-.52-.32-.16-.16-.42-.06-.38-1.06l.03-3.54 3.95-.16c2.13 0 3.04-.7 3.81-1.36.75-.63.99-1.36 1.27-2.34l.66-3.13h-5.42l-.7 2.2z" fill="#FEFEFE"/></svg>