<svg width="39" height="24" viewBox="0 0 39 24" fill="none" xmlns="http://www.w3.org/2000/svg">
<rect x="0.5" y="0.5" width="37.4" height="23" rx="1.5" fill="white"/>
<path d="M17.4256 15.8846H15.2897L16.6256 8.14038H18.7614L17.4256 15.8846Z" fill="#1A1F71"/>
<path d="M25.1679 8.3297C24.7466 8.17301 24.0784 8 23.2521 8C21.1429 8 19.6575 9.05448 19.6484 10.5621C19.6309 11.6743 20.7119 12.2921 21.5204 12.663C22.3467 13.042 22.6276 13.2894 22.6276 13.6272C22.6192 14.146 21.9599 14.3851 21.3449 14.3851C20.4922 14.3851 20.0353 14.2618 19.3409 13.9732L19.0596 13.8494L18.7607 15.5878C19.2617 15.8018 20.1846 15.9917 21.1429 16C23.384 16 24.843 14.9618 24.8603 13.3553C24.8689 12.4737 24.2981 11.7982 23.0675 11.2462C22.3204 10.8919 21.8629 10.6529 21.8629 10.2904C21.8717 9.9608 22.2499 9.62321 23.0932 9.62321C23.7875 9.60668 24.2977 9.76315 24.6842 9.91974L24.8774 10.002L25.1679 8.3297Z" fill="#1A1F71"/>
<path fill-rule="evenodd" clip-rule="evenodd" d="M28.9916 8.14038H30.6437L32.3669 15.8845H30.3892C30.3892 15.8845 30.1957 14.9947 30.1344 14.7228H27.392C27.3127 14.9287 26.9438 15.8845 26.9438 15.8845H24.7026L27.8752 8.78292C28.0951 8.28032 28.4821 8.14038 28.9916 8.14038ZM28.8598 10.9747C28.8598 10.9747 28.1829 12.6966 28.007 13.1415H29.7824C29.6945 12.7543 29.2901 10.9006 29.2901 10.9006L29.1408 10.2333C29.0779 10.4051 28.987 10.6414 28.9257 10.8007C28.8841 10.9087 28.8562 10.9814 28.8598 10.9747Z" fill="#1A1F71"/>
<path fill-rule="evenodd" clip-rule="evenodd" d="M6.03516 8.14038H9.47162C9.93741 8.1567 10.3154 8.29675 10.4384 8.79135L11.1854 12.3504L11.1854 12.3505L11.414 13.4214L13.5057 8.14058H15.7642L12.407 15.8766H10.1483L8.24452 9.14729C7.5877 8.7873 6.8381 8.49778 6 8.29685L6.03516 8.14038Z" fill="#1A1F71"/>
<rect x="0.5" y="0.5" width="37.4" height="23" rx="1.5" stroke="#DDDDDD"/>
</svg>
