<svg width="64" height="40" viewBox="0 0 64 40" fill="none" xmlns="http://www.w3.org/2000/svg">
<rect width="64" height="40" fill="white"/>
<path fill-rule="evenodd" clip-rule="evenodd" d="M38.9464 12.9998C40.3626 12.9998 41.508 13.3026 42.23 13.5768L41.7321 16.5032L41.401 16.3593C40.7385 16.0853 39.864 15.8115 38.6738 15.8404C37.2284 15.8404 36.5801 16.4312 36.5651 17.008C36.5651 17.6424 37.3493 18.0605 38.6298 18.6806C40.7392 19.6466 41.7175 20.8287 41.7029 22.3714C41.6733 25.183 39.1724 26.9998 35.3307 26.9998C33.6882 26.9851 32.1062 26.6529 31.2476 26.2784L31.7599 23.2363L32.242 23.4528C33.4322 23.9579 34.2153 24.1738 35.6771 24.1738C36.7313 24.1738 37.8615 23.7551 37.8758 22.8474C37.8758 22.2561 37.3944 21.8232 35.9779 21.16C34.5921 20.511 32.7391 19.4299 32.7691 17.4834C32.7848 14.8451 35.3307 12.9998 38.9464 12.9998ZM25.297 26.7977H28.9581L31.2478 13.2454H27.5869L25.297 26.7977ZM48.7841 13.2454H51.6162L54.5696 26.7975H51.1798C51.1798 26.7975 50.848 25.2403 50.7429 24.7646H46.0424L45.274 26.7975H41.4325L46.8706 14.3699C47.2474 13.4903 47.9109 13.2454 48.7841 13.2454ZM48.5581 18.2055C48.5581 18.2055 47.3979 21.2187 47.0964 21.9974H50.1397C49.9891 21.3197 49.2958 18.0758 49.2958 18.0758L49.04 16.9081C48.932 17.2087 48.7763 17.6222 48.6712 17.901C48.5998 18.09 48.552 18.2172 48.5581 18.2055ZM15.3245 13.2454H9.43413L9.37387 13.5193C10.8104 13.8709 12.0953 14.3775 13.2212 15.0075L16.4845 26.7837H20.356L26.1108 13.2458H22.2393L18.6539 22.4871L18.2621 20.6129L16.9816 14.3846C16.7708 13.5191 16.123 13.274 15.3245 13.2454Z" fill="#1A1F71"/>
</svg>
