<svg width="64" height="40" viewBox="0 0 64 40" fill="none" xmlns="http://www.w3.org/2000/svg">
<rect x="0.5" y="0.5" width="63" height="39" rx="3.5" fill="white"/>
<path d="M28.6564 27.2546H24.7949L27.2102 13.2539H31.0714L28.6564 27.2546Z" fill="#1A1F71"/>
<path d="M42.6537 13.5961C41.8921 13.3128 40.684 13 39.1903 13C35.3769 13 32.6916 14.9064 32.6751 17.6319C32.6435 19.6428 34.5977 20.7597 36.0594 21.4302C37.5534 22.1154 38.0612 22.5626 38.0612 23.1733C38.046 24.1112 36.854 24.5436 35.7422 24.5436C34.2006 24.5436 33.3745 24.3207 32.1191 23.7989L31.6107 23.5752L31.0703 26.718C31.976 27.1048 33.6446 27.4481 35.3769 27.4631C39.4287 27.4631 42.0665 25.5863 42.0977 22.6818C42.1131 21.088 41.0812 19.8667 38.8564 18.8688C37.5058 18.2282 36.6787 17.7962 36.6787 17.1408C36.6946 16.5449 37.3783 15.9346 38.9029 15.9346C40.1582 15.9047 41.0806 16.1876 41.7793 16.4707L42.1286 16.6194L42.6537 13.5961Z" fill="#1A1F71"/>
<path fill-rule="evenodd" clip-rule="evenodd" d="M49.5665 13.2539H52.5534L55.6686 27.2544H52.0933C52.0933 27.2544 51.7434 25.6458 51.6325 25.1542H46.6747C46.5313 25.5264 45.8642 27.2544 45.8642 27.2544H41.8125L47.5482 14.4156C47.9456 13.5069 48.6454 13.2539 49.5665 13.2539ZM49.3285 18.3774C49.3285 18.3774 48.1049 21.4903 47.7869 22.2947H50.9965C50.8377 21.5947 50.1064 18.2434 50.1064 18.2434L49.8366 17.037C49.7229 17.3476 49.5586 17.7747 49.4478 18.0628C49.3726 18.2581 49.322 18.3895 49.3285 18.3774Z" fill="#1A1F71"/>
<path fill-rule="evenodd" clip-rule="evenodd" d="M8.06356 13.2539H14.2763C15.1184 13.2834 15.8017 13.5366 16.0241 14.4308L17.3743 20.8636C17.3744 20.864 17.3745 20.8644 17.3747 20.8648L17.7879 22.801L21.5696 13.2539H25.6528L19.5832 27.2398H15.4998L12.058 15.0744C10.8705 14.4235 9.51527 13.9001 8 13.5368L8.06356 13.2539Z" fill="#1A1F71"/>
</svg>
