<svg viewBox="0 0 750 471" xmlns="http://www.w3.org/2000/svg"><g fill="none" fill-rule="evenodd"><rect fill="#0E4595" width="750" height="471" rx="40"/><path d="M278.2 334.23l33.36-195.76h53.36l-33.39 195.76H278.2zm246.1-191.54c-10.56-3.97-27.13-8.22-47.82-8.22-52.72 0-89.86 26.55-90.18 64.6-.3 28.13 26.52 43.82 46.76 53.18 20.77 9.6 27.75 15.72 27.65 24.29-.13 13.12-16.58 19.11-31.92 19.11-21.36 0-32.7-2.96-50.23-10.27l-6.87-3.11-7.5 43.82c12.47 5.46 35.52 10.2 59.45 10.44 56.08 0 92.5-26.24 92.91-66.88.2-22.27-14.01-39.21-44.8-53.19-18.65-9.05-30.07-15.1-29.95-24.26 0-8.14 9.67-16.84 30.56-16.84a98.43 98.43 0 0139.93 7.5l4.78 2.26 7.24-42.43m137.3-4.22h-41.23c-12.77 0-22.33 3.48-27.94 16.23L513.2 334.1h56.03s9.16-24.12 11.23-29.42c6.13 0 60.56.09 68.34.09 1.6 6.85 6.49 29.33 6.49 29.33h49.51l-43.19-195.63zm-65.41 126.4c4.41-11.28 21.26-54.72 21.26-54.72-.32.52 4.38-11.33 7.07-18.68l3.6 16.87s10.23 46.73 12.36 56.53h-44.3zm-363.3-126.4l-52.24 133.5-5.56-27.14c-9.73-31.27-40.03-65.15-73.9-82.12l47.76 171.2 56.46-.06 84-195.38H232.9" fill="#FFF"/><path d="M131.92 138.47H45.88l-.68 4.07c66.94 16.2 111.23 55.36 129.62 102.41L156.1 155c-3.23-12.4-12.6-16.1-24.2-16.52" fill="#F2AE14"/></g></svg>