<svg xmlns="http://www.w3.org/2000/svg" width="140" height="85" viewBox="0 0 140 85" fill="none"><path fill="url(#a)" d="M134 0H5.24A5.23 5.23 0 0 0 0 5.23v74.19a5.23 5.23 0 0 0 5.23 5.22H134a5.22 5.22 0 0 0 5.22-5.22V5.22A5.22 5.22 0 0 0 134.01 0z"/><path fill="#fff" d="M131.93.86H6.75A5.23 5.23 0 0 0 1.53 6.1v71.12a5.23 5.23 0 0 0 5.22 5.22h125.18a5.23 5.23 0 0 0 5.23-5.22V6.09a5.23 5.23 0 0 0-5.23-5.23z"/><path fill="#7F54B3" fill-rule="evenodd" d="M51.17 10.86H18.38a3.74 3.74 0 0 0-3.74 3.75v12.48a3.75 3.75 0 0 0 3.76 3.74h15.53l7.1 3.94-1.62-3.94h11.76a3.75 3.75 0 0 0 3.75-3.74V14.6a3.75 3.75 0 0 0-3.75-3.75zm-33.48 2.9c-.46.03-.8.19-1.04.5-.23.3-.31.68-.26 1.1.97 6.16 1.87 10.31 2.71 12.46.33.8.71 1.17 1.16 1.14.69-.05 1.51-1 2.48-2.86a308.65 308.65 0 0 1 2.38-4.73c.88 3.1 2.1 5.44 3.63 7 .43.44.88.64 1.3.6.38-.03.68-.23.88-.59.16-.3.23-.67.2-1.08-.1-1.5.05-3.58.46-6.26.43-2.75.95-4.74 1.6-5.92a1.42 1.42 0 0 0 .16-.8 1.28 1.28 0 0 0-.51-.93 1.44 1.44 0 0 0-1.04-.33c-.48.04-.84.27-1.08.73-1.03 1.85-1.75 4.86-2.18 9.03a30.59 30.59 0 0 1-1.56-5.62c-.18-.97-.63-1.43-1.35-1.38-.5.04-.91.36-1.24.99l-3.6 6.84a93.9 93.9 0 0 1-1.67-8.71c-.12-.86-.6-1.25-1.43-1.19zm31.73 1.18a3.8 3.8 0 0 1 2.64 1.9c.53.89.79 1.95.79 3.23 0 1.7-.43 3.24-1.28 4.65-1 1.64-2.28 2.46-3.87 2.46-.28 0-.58-.03-.9-.1a3.8 3.8 0 0 1-2.63-1.9 6.34 6.34 0 0 1-.79-3.25c0-1.7.43-3.23 1.28-4.63 1-1.64 2.3-2.46 3.87-2.46.28 0 .58.03.9.1zm-.69 8.88a4.34 4.34 0 0 0 1.25-2.43c.07-.38.12-.79.12-1.22 0-.47-.1-.98-.3-1.5-.24-.63-.57-.98-.97-1.06-.6-.11-1.17.21-1.71 1.02a5.3 5.3 0 0 0-.87 1.95 5.7 5.7 0 0 0-.12 1.2c0 .48.1.99.3 1.5.24.64.57.98.97 1.06.41.09.85-.1 1.33-.52zm-7-6.98a3.83 3.83 0 0 0-2.63-1.9 4.34 4.34 0 0 0-.9-.1c-1.57 0-2.86.82-3.86 2.46a8.67 8.67 0 0 0-1.29 4.63c0 1.26.27 2.35.8 3.25a3.8 3.8 0 0 0 2.63 1.9c.31.07.6.1.89.1 1.6 0 2.88-.82 3.87-2.46a8.78 8.78 0 0 0 1.28-4.65 6.2 6.2 0 0 0-.79-3.23zm-2.07 4.55a4.34 4.34 0 0 1-1.25 2.43c-.48.42-.93.6-1.34.52-.4-.08-.72-.42-.97-1.06a4.16 4.16 0 0 1-.3-1.5 5.29 5.29 0 0 1 .99-3.15c.55-.8 1.12-1.13 1.72-1.02.39.08.72.43.97 1.07.2.5.3 1.02.3 1.5 0 .42-.04.83-.12 1.2z" clip-rule="evenodd"/><path fill="#C3C4C7" d="M19.58 46.59h-4.56v7.4h4.56v-7.4zm6.84 11.2H14.64v7.42h11.78V57.8zM25.1 46.6h-4.37v7.4h4.37v-7.4zm29.83 11.2h-24.5v7.42h24.5V57.8zM30.8 46.6h-4.37v7.4h4.37v-7.4zm10.07 0H36.5v7.4h4.37v-7.4zm5.51 0H42v7.4h4.37v-7.4zm5.9 0H47.7v7.4h4.56v-7.4zm9.88 0h-4.37v7.4h4.37v-7.4zm5.7 0h-4.56v7.4h4.56v-7.4zm5.7 0h-4.37v7.4h4.37v-7.4zm9.88 0h-4.37v7.4h4.37v-7.4zm5.89 0h-4.56v7.4h4.56v-7.4zm5.7 0h-4.56v7.4h4.56v-7.4z"/><path fill="#271B3D" d="M123.33 65.2H108.9v10.84h14.44V65.2z" opacity=".1"/><path fill="#271B3D" d="M130.55 65.2h-14.44v10.84h14.44V65.2z" opacity=".1"/><defs><linearGradient id="a" x1="76484.5" x2="76484.5" y1="57496" y2="19792.6" gradientUnits="userSpaceOnUse"><stop stop-color="gray" stop-opacity=".25"/><stop offset=".54" stop-color="gray" stop-opacity=".12"/><stop offset="1" stop-color="gray" stop-opacity=".1"/></linearGradient></defs></svg>
