<svg width="51" height="32" viewBox="0 0 51 32" fill="none" xmlns="http://www.w3.org/2000/svg">
<rect width="51" height="32" rx="6" fill="white"/>
<g clip-path="url(#clip0_1902_115181)">
<path fill-rule="evenodd" clip-rule="evenodd" d="M9.42586 20.7943C8.96827 20.7943 8.73516 20.5806 8.73516 20.2294C8.73516 19.5744 9.50529 19.3542 10.91 19.2125C10.91 20.0853 10.2875 20.7943 9.42154 20.7943H9.42586ZM10.0302 15.8861C9.02612 15.8861 7.87178 16.3339 7.24497 16.808L7.81739 17.9542C8.31988 17.5178 9.13231 17.1445 9.86532 17.1445C10.5621 17.1445 10.9471 17.3655 10.9471 17.8109C10.9471 18.1097 10.6924 18.2612 10.2107 18.3209C8.40967 18.542 6.99805 19.0136 6.99805 20.3292C6.99805 21.3723 7.78113 22.0035 9.00453 22.0035C9.87827 22.0035 10.6553 21.5434 11.0248 20.9392V21.8398H12.6532V18.0663C12.6532 16.5108 11.5144 15.8828 10.0311 15.8828L10.0302 15.8861Z" fill="#101820"/>
<path fill-rule="evenodd" clip-rule="evenodd" d="M26.373 16.0552V21.832H28.1153V19.0484C28.1153 17.7262 28.9597 17.3373 29.5477 17.3373C29.8124 17.3353 30.0717 17.408 30.2928 17.5461L30.6114 16.0192C30.3645 15.9255 30.1002 15.8801 29.8343 15.8857C28.939 15.8857 28.3761 16.2615 28.0048 17.0262V16.0552H26.373Z" fill="#101820"/>
<path fill-rule="evenodd" clip-rule="evenodd" d="M38.6863 15.8857C37.7651 15.8857 37.0761 16.4015 36.7178 16.8993C36.3854 16.2566 35.6818 15.8857 34.8357 15.8857C33.9153 15.8857 33.2773 16.3704 32.9829 16.9288V16.0552H31.3027V21.8321H33.0468V18.8577C33.0468 17.7933 33.6364 17.2784 34.1864 17.2784C34.6846 17.2784 35.1422 17.5838 35.1422 18.3722V21.8321H36.8827V18.8577C36.8827 17.7778 37.4577 17.2784 38.0336 17.2784C38.4947 17.2784 38.9833 17.596 38.9833 18.3607V21.8321H40.7239V17.8384C40.7239 16.5407 39.8027 15.8857 38.6898 15.8857" fill="#101820"/>
<path fill-rule="evenodd" clip-rule="evenodd" d="M22.1333 16.0556H20.5551V15.4686C20.5551 14.7039 21.0153 14.4861 21.4116 14.4861C21.6821 14.4894 21.9482 14.5525 22.1886 14.6703L22.7256 13.5053C22.7256 13.5053 22.1808 13.168 21.1905 13.168C20.0776 13.168 18.8111 13.7632 18.8111 15.6307V16.0556H16.1735V15.4686C16.1735 14.7039 16.6328 14.4861 17.0299 14.4861C17.301 14.4861 17.5678 14.5493 17.807 14.6703L18.344 13.5053C18.0237 13.3276 17.5082 13.168 16.8098 13.168C15.6969 13.168 14.4303 13.7632 14.4303 15.6307V16.0556H13.4219V17.3295H14.4329V21.8324H16.1735V17.3295H18.8145V21.8324H20.5551V17.3295H22.1333V16.0556Z" fill="#101820"/>
<path d="M24.9117 16.0557H23.1729V21.8301H24.9117V16.0557Z" fill="#101820"/>
<path fill-rule="evenodd" clip-rule="evenodd" d="M23.2363 15.074H24.9398C25.9335 12.1111 29.305 9.50675 33.3145 9.50675C38.1909 9.50675 42.405 13.0272 42.405 18.5077C42.4199 19.6326 42.2569 20.7533 41.9215 21.8325H43.5749L43.5913 21.7784C43.8699 20.7101 44.0074 19.6131 44.0005 18.5126C44.0005 12.4009 39.3038 8.00195 33.318 8.00195C28.616 8.00195 24.4252 11.0967 23.2372 15.0756L23.2363 15.074Z" fill="#4A4AF4"/>
</g>
<defs>
<clipPath id="clip0_1902_115181">
<rect width="37" height="14" fill="white" transform="translate(7 8)"/>
</clipPath>
</defs>
</svg>
