<svg width="64" height="40" viewBox="0 0 64 40" fill="none" xmlns="http://www.w3.org/2000/svg">
<rect width="64" height="40" fill="white"/>
<path d="M8.60894 19.8916C8.60894 18.9765 7.90199 18.3333 7.0336 18.3333C6.16521 18.3333 5.45825 18.9873 5.45825 19.8916C5.45825 20.785 6.16521 21.4499 7.0336 21.4499C7.90286 21.449 8.60894 20.8067 8.60894 19.8916ZM8.62135 22.6153V21.907C8.19292 22.3975 7.55516 22.702 6.79144 22.702C5.20457 22.702 4 21.5033 4 19.8916C4 18.2899 5.25069 17.0703 6.82692 17.0703C7.56848 17.0703 8.19383 17.3756 8.62223 17.8545V17.1679H10.0468V22.6153H8.62135Z" fill="black"/>
<path d="M16.966 21.4057C16.4675 21.4057 16.3291 21.2313 16.3291 20.7742V18.3558H17.2445V17.1679H16.3291V15.839H14.8691V17.1679H12.9886V16.8367C12.9886 16.3787 13.174 16.2044 13.6841 16.2044H14.0043V15.1475H13.3017C12.0972 15.1475 11.5295 15.5178 11.5295 16.6507V17.1671H10.7188V18.355H11.5295V22.6144H12.9895V18.355H14.87V21.0244C14.87 22.1356 15.3215 22.6153 16.503 22.6153H17.256V21.4057H16.966Z" fill="black"/>
<path d="M22.2028 19.4009C22.099 18.6927 21.4843 18.2681 20.7667 18.2681C20.0482 18.2681 19.4574 18.6818 19.3075 19.4009H22.2028ZM19.2951 20.251C19.3998 21.0568 20.0136 21.5148 20.7897 21.5148C21.4035 21.5148 21.879 21.242 22.1566 20.8066H23.6512C23.3035 21.9611 22.2028 22.7019 20.7552 22.7019C19.0059 22.7019 17.7783 21.5473 17.7783 19.9023C17.7783 18.2572 19.076 17.0693 20.7906 17.0693C22.5168 17.0693 23.7675 18.2681 23.7675 19.9023C23.7675 20.0224 23.7559 20.1417 23.7328 20.251H19.2951Z" fill="black"/>
<path d="M33.0496 19.8916C33.0496 19.009 32.3426 18.3333 31.4742 18.3333C30.6058 18.3333 29.8989 18.9873 29.8989 19.8916C29.8989 20.785 30.6058 21.4499 31.4742 21.4499C32.3426 21.449 33.0496 20.7742 33.0496 19.8916ZM28.4619 17.1679H29.8864V17.8762C30.3149 17.3748 30.9518 17.0703 31.7164 17.0703C33.2802 17.0703 34.5078 18.2799 34.5078 19.8807C34.5078 21.4824 33.2571 22.7028 31.6818 22.7028C30.9518 22.7028 30.3495 22.4301 29.9326 21.9729V24.8568H28.4619V17.1679Z" fill="black"/>
<path d="M39.6431 19.8916C39.6431 18.9765 38.937 18.3333 38.0677 18.3333C37.1994 18.3333 36.4924 18.9873 36.4924 19.8916C36.4924 20.785 37.1994 21.4499 38.0677 21.4499C38.937 21.449 39.6431 20.8067 39.6431 19.8916ZM39.6556 22.6153V21.907C39.2272 22.3975 38.5892 22.702 37.8255 22.702C36.2387 22.702 35.0342 21.5033 35.0342 19.8916C35.0342 18.2899 36.2849 17.0703 37.8602 17.0703C38.6017 17.0703 39.2272 17.3756 39.6556 17.8545V17.1679H41.0802V22.6153H39.6556Z" fill="black"/>
<path d="M25.8943 17.7018C25.8943 17.7018 26.2571 17.0703 27.1449 17.0703C27.5246 17.0703 27.7703 17.1929 27.7703 17.1929V18.5827C27.7703 18.5827 27.2345 18.2716 26.7422 18.3341C26.25 18.3967 25.9386 18.8221 25.9404 19.3911V22.6161H24.4697V17.1687H25.8943V17.7018Z" fill="black"/>
<path d="M47.7337 17.168L44.1369 24.8393H42.6201L44.0323 21.8737L41.6445 17.168H43.3637L44.7606 20.3121L46.194 17.168H47.7337Z" fill="black"/>
<path d="M59.2146 17.0445L55.6488 15.1091C54.602 14.541 53.2938 15.251 53.2938 16.388V16.5865C53.2938 16.7659 53.3957 16.9319 53.5606 17.0211L54.234 17.3865C54.4317 17.4941 54.6783 17.3598 54.6783 17.1454V16.6516C54.6783 16.4047 54.9623 16.2503 55.1893 16.3738L58.2778 18.0505C58.5051 18.174 58.5051 18.4827 58.2778 18.6053L55.1893 20.282C54.9623 20.4055 54.6783 20.2512 54.6783 20.0042V19.7415C54.6783 18.6044 53.37 17.8937 52.3225 18.4626L48.7568 20.398C47.71 20.9661 47.71 22.3876 48.7568 22.9556L52.3225 24.891C53.369 25.4591 54.6783 24.7492 54.6783 23.6122V23.4136C54.6783 23.2343 54.5764 23.0691 54.4114 22.979L53.7381 22.6128C53.5404 22.5052 53.2938 22.6395 53.2938 22.8539V23.3477C53.2938 23.5947 53.0101 23.749 52.7827 23.6255L49.6943 21.9488C49.4672 21.8253 49.4672 21.5167 49.6943 21.3932L52.7827 19.7164C53.0101 19.593 53.2938 19.7473 53.2938 19.9942V20.257C53.2938 21.394 54.602 22.1048 55.6488 21.5358L59.2146 19.6005C60.2614 19.0341 60.2614 17.6126 59.2146 17.0445Z" fill="black"/>
</svg>
