<svg width="64" height="40" viewBox="0 0 64 40" fill="none" xmlns="http://www.w3.org/2000/svg">
<rect x="0.5" y="0.5" width="62.69" height="39" rx="3.5" fill="white"/>
<g clip-path="url(#clip0_1902_115201)">
<path d="M11.1151 20.4487C11.1151 19.6316 10.4839 19.0574 9.70857 19.0574C8.93322 19.0574 8.30201 19.6413 8.30201 20.4487C8.30201 21.2464 8.93322 21.84 9.70857 21.84C10.4847 21.8393 11.1151 21.2658 11.1151 20.4487ZM11.1262 22.8806V22.2482C10.7437 22.6862 10.1742 22.958 9.49236 22.958C8.07551 22.958 7 21.8877 7 20.4487C7 19.0186 8.11669 17.9297 9.52404 17.9297C10.1861 17.9297 10.7445 18.2023 11.127 18.6298V18.0168H12.3989V22.8806H11.1262Z" fill="black"/>
<path d="M18.5769 21.8006C18.1318 21.8006 18.0083 21.6449 18.0083 21.2367V19.0775H18.8256V18.0169H18.0083V16.8304H16.7047V18.0169H15.0257V17.7212C15.0257 17.3123 15.1912 17.1566 15.6466 17.1566H15.9325V16.2129H15.3053C14.2297 16.2129 13.7229 16.5436 13.7229 17.5551V18.0161H12.999V19.0767H13.7229V22.8798H15.0265V19.0767H16.7055V21.4602C16.7055 22.4523 17.1086 22.8806 18.1635 22.8806H18.8359V21.8006H18.5769Z" fill="black"/>
<path d="M23.2521 20.0105C23.1595 19.3781 22.6106 18.999 21.9699 18.999C21.3284 18.999 20.801 19.3685 20.6671 20.0105H23.2521ZM20.656 20.7695C20.7495 21.489 21.2975 21.8979 21.9905 21.8979C22.5386 21.8979 22.9631 21.6543 23.2109 21.2655H24.5454C24.235 22.2964 23.2521 22.9578 21.9596 22.9578C20.3978 22.9578 19.3018 21.9269 19.3018 20.4581C19.3018 18.9893 20.4604 17.9287 21.9913 17.9287C23.5325 17.9287 24.6492 18.999 24.6492 20.4581C24.6492 20.5654 24.6389 20.6719 24.6183 20.7695H20.656Z" fill="black"/>
<path d="M32.9369 20.4487C32.9369 19.6606 32.3057 19.0574 31.5304 19.0574C30.755 19.0574 30.1238 19.6413 30.1238 20.4487C30.1238 21.2464 30.755 21.84 31.5304 21.84C32.3057 21.8393 32.9369 21.2367 32.9369 20.4487ZM28.8408 18.0168H30.1127V18.6492C30.4952 18.2015 31.0639 17.9297 31.7466 17.9297C33.1428 17.9297 34.239 19.0097 34.239 20.439C34.239 21.8691 33.1222 22.9587 31.7157 22.9587C31.0639 22.9587 30.5262 22.7152 30.1539 22.307V24.8819H28.8408V18.0168Z" fill="black"/>
<path d="M38.8241 20.4487C38.8241 19.6316 38.1937 19.0574 37.4175 19.0574C36.6422 19.0574 36.011 19.6413 36.011 20.4487C36.011 21.2464 36.6422 21.84 37.4175 21.84C38.1937 21.8393 38.8241 21.2658 38.8241 20.4487ZM38.8352 22.8806V22.2482C38.4527 22.6862 37.8831 22.958 37.2012 22.958C35.7845 22.958 34.709 21.8877 34.709 20.4487C34.709 19.0186 35.8257 17.9297 37.2322 17.9297C37.8943 17.9297 38.4527 18.2023 38.8352 18.6298V18.0168H40.1072V22.8806H38.8352Z" fill="black"/>
<path d="M26.5483 18.4935C26.5483 18.4935 26.8722 17.9297 27.665 17.9297C28.0039 17.9297 28.2233 18.0392 28.2233 18.0392V19.2801C28.2233 19.2801 27.745 19.0022 27.3054 19.0581C26.8659 19.114 26.5879 19.4938 26.5895 20.0018V22.8813H25.2764V18.0176H26.5483V18.4935Z" fill="black"/>
<path d="M46.0481 18.0166L42.8366 24.866H41.4824L42.7433 22.2182L40.6113 18.0166H42.1463L43.3936 20.8239L44.6734 18.0166H46.0481Z" fill="black"/>
<path d="M56.2991 17.9065L53.1153 16.1785C52.1807 15.6713 51.0126 16.3052 51.0126 17.3204V17.4976C51.0126 17.6578 51.1036 17.806 51.2509 17.8857L51.8521 18.2119C52.0286 18.308 52.2488 18.1881 52.2488 17.9967V17.5557C52.2488 17.3353 52.5024 17.1975 52.7051 17.3077L55.4626 18.8048C55.6656 18.915 55.6656 19.1906 55.4626 19.3001L52.7051 20.7972C52.5024 20.9074 52.2488 20.7696 52.2488 20.5492V20.3145C52.2488 19.2994 51.0807 18.6648 50.1454 19.1727L46.9617 20.9007C46.0271 21.408 46.0271 22.6772 46.9617 23.1844L50.1454 24.9124C51.0798 25.4196 52.2488 24.7857 52.2488 23.7706V23.5933C52.2488 23.4331 52.1578 23.2857 52.0105 23.2052L51.4093 22.8782C51.2328 22.7822 51.0126 22.9021 51.0126 23.0935V23.5345C51.0126 23.7549 50.7593 23.8927 50.5563 23.7825L47.7988 22.2854C47.5961 22.1751 47.5961 21.8996 47.7988 21.7893L50.5563 20.2922C50.7593 20.182 51.0126 20.3198 51.0126 20.5402V20.7749C51.0126 21.7901 52.1807 22.4247 53.1153 21.9167L56.2991 20.1887C57.2337 19.6829 57.2337 18.4138 56.2991 17.9065Z" fill="black"/>
</g>
<rect x="0.5" y="0.5" width="62.69" height="39" rx="3.5" stroke="#DDDDDD"/>
<defs>
<clipPath id="clip0_1902_115201">
<rect width="50" height="9.09091" fill="white" transform="translate(7 16)"/>
</clipPath>
</defs>
</svg>
