<svg width="273" height="168" viewBox="0 0 273 168" fill="none" xmlns="http://www.w3.org/2000/svg">
<circle opacity="0.4" cx="130" cy="84" r="72.8" fill="#F2EDFF"/>
<circle cx="130" cy="84" r="50.4" fill="#F2EDFF"/>
<g filter="url(#filter0_d_17_2816)">
<rect x="102" y="56" width="56" height="56" rx="28" fill="#674399" shape-rendering="crispEdges"/>
<mask id="mask0_17_2816" style="mask-type:luminance" maskUnits="userSpaceOnUse" x="116" y="72" width="28" height="24">
<path fill-rule="evenodd" clip-rule="evenodd" d="M141.2 72.8H118.8C117.253 72.8 116 74.053 116 75.6V92.4C116 93.947 117.253 95.2 118.8 95.2H141.2C142.747 95.2 144 93.947 144 92.4V75.6C144 74.053 142.747 72.8 141.2 72.8ZM141.2 75.6V78.4H118.8V75.6H141.2ZM118.8 84V92.4H141.2V84H118.8ZM121.6 86.8H131.4V89.6H121.6V86.8ZM138.4 86.8H134.2V89.6H138.4V86.8Z" fill="white"/>
</mask>
<g mask="url(#mask0_17_2816)">
<rect x="113.2" y="67.2" width="33.6" height="33.6" fill="white"/>
</g>
</g>
<g filter="url(#filter1_d_17_2816)">
<g clip-path="url(#clip0_17_2816)">
<path d="M82.6497 123H34.8535C33.2776 123 32 124.278 32 125.854V153.746C32 155.322 33.2776 156.6 34.8535 156.6H82.6497C84.2256 156.6 85.5032 155.322 85.5032 153.746V125.854C85.5032 124.278 84.2256 123 82.6497 123Z" fill="white"/>
<path d="M41.7535 132.24C41.7535 130.384 43.2579 128.88 45.1135 128.88H72.7135C74.5692 128.88 76.0735 130.384 76.0735 132.24V147.36C76.0735 149.216 74.5692 150.72 72.7135 150.72H45.1135C43.2579 150.72 41.7535 149.216 41.7535 147.36V132.24Z" fill="white"/>
<path fill-rule="evenodd" clip-rule="evenodd" d="M72.7135 130.56H45.1135C44.1857 130.56 43.4335 131.312 43.4335 132.24V147.36C43.4335 148.288 44.1857 149.04 45.1135 149.04H72.7135C73.6414 149.04 74.3935 148.288 74.3935 147.36V132.24C74.3935 131.312 73.6414 130.56 72.7135 130.56ZM45.1135 128.88C43.2579 128.88 41.7535 130.384 41.7535 132.24V147.36C41.7535 149.216 43.2579 150.72 45.1135 150.72H72.7135C74.5692 150.72 76.0735 149.216 76.0735 147.36V132.24C76.0735 130.384 74.5692 128.88 72.7135 128.88H45.1135Z" fill="#0F3365"/>
<path d="M58.9135 128.88H70.4734C73.5662 128.88 76.0735 131.387 76.0735 134.48V145.12C76.0735 148.213 73.5662 150.72 70.4735 150.72H58.9135V128.88Z" fill="#0F3365"/>
<path fill-rule="evenodd" clip-rule="evenodd" d="M61.2535 146.609H64.8279V141.639H64.8678C65.5433 142.728 66.894 143.131 68.1449 143.131C71.2233 143.131 72.8715 140.883 72.8715 138.179C72.8715 135.966 71.3038 133.56 68.4435 133.56C66.8149 133.56 65.3049 134.14 64.5902 135.422H64.5503V133.771H61.2535V146.609V146.609ZM69.1778 138.249C69.1778 139.707 68.3633 140.708 67.0137 140.708C65.8215 140.708 64.8275 139.707 64.8275 138.372C64.8275 137.002 65.7022 135.984 67.0137 135.984C68.4032 135.984 69.1778 137.037 69.1778 138.249V138.249Z" fill="#FFFFFE"/>
<path fill-rule="evenodd" clip-rule="evenodd" d="M56.567 133.771H53.329V135.421H53.2901C52.5352 134.298 51.3035 133.56 49.7746 133.56C46.5576 133.56 45.1075 135.597 45.1075 138.319C45.1075 141.025 46.8751 142.92 49.7154 142.92C51.1453 142.92 52.3367 142.43 53.1901 141.357H53.2303V141.85C53.2303 143.641 52.1186 144.501 50.0529 144.501C48.5632 144.501 47.6497 144.221 46.5576 143.747L46.3784 146.241C47.2129 146.503 48.6231 146.82 50.3308 146.82C54.5015 146.82 56.567 145.608 56.567 141.85V133.771V133.771ZM48.8015 138.266C48.8015 137.02 49.4967 135.984 50.8274 135.984C52.4357 135.984 53.1112 137.124 53.1112 138.143C53.1112 139.549 52.098 140.497 50.8274 140.497C49.755 140.497 48.8015 139.688 48.8015 138.266V138.266Z" fill="#D8232A"/>
</g>
</g>
<g filter="url(#filter2_d_17_2816)">
<g clip-path="url(#clip1_17_2816)">
<path d="M88.6497 11H40.8535C39.2776 11 38 12.2776 38 13.8535V41.7465C38 43.3224 39.2776 44.6 40.8535 44.6H88.6497C90.2256 44.6 91.5032 43.3224 91.5032 41.7465V13.8535C91.5032 12.2776 90.2256 11 88.6497 11Z" fill="white"/>
<path d="M49.5081 14.108V41.366H65.3841C75.8841 41.366 80.4201 35.486 80.4201 27.716C80.4201 19.946 75.8001 14.108 65.3841 14.108H49.5081Z" fill="white"/>
<path fill-rule="evenodd" clip-rule="evenodd" d="M65.384 15.83H51.23V39.644H65.384C73.532 39.644 78.698 35.654 78.698 27.716C78.698 21.08 75.002 15.83 65.384 15.83ZM52.574 38.3V17.258H65.384C72.776 17.258 77.312 20.618 77.312 27.758C77.312 34.688 73.112 38.3 65.384 38.3H52.574Z" fill="black"/>
<path d="M54.296 29.228H58.412V36.536H54.296V29.228Z" fill="black"/>
<path d="M56.354 28.136C57.7689 28.136 58.916 26.989 58.916 25.574C58.916 24.159 57.7689 23.012 56.354 23.012C54.939 23.012 53.792 24.159 53.792 25.574C53.792 26.989 54.939 28.136 56.354 28.136Z" fill="black"/>
<path fill-rule="evenodd" clip-rule="evenodd" d="M72.65 23.222H73.826V26.75H75.548C75.086 20.324 70.004 18.896 65.384 18.896H60.47V23.222H61.184C62.528 23.222 63.326 24.104 63.326 25.574C63.326 27.044 62.528 27.926 61.226 27.926H60.47V36.536H65.384C72.902 36.536 75.464 33.05 75.59 27.926H72.65V23.222ZM66.98 26.75V27.926H64.04V23.222H66.896V24.398H65.216V24.944H66.812V26.12H65.258V26.75H66.98ZM67.484 27.926L68.912 23.222H70.592L72.02 27.926H70.802L70.55 27.044H68.996L68.744 27.926H67.484ZM69.3451 25.826H69.332V25.868L69.3451 25.826ZM69.3451 25.826H70.172L69.794 24.524H69.752L69.3451 25.826ZM60.47 26.75V24.398H61.184C61.646 24.398 62.15 24.524 62.15 25.574C62.15 26.624 61.688 26.75 61.184 26.75H60.47Z" fill="#D50072"/>
</g>
</g>
<g filter="url(#filter3_d_17_2816)">
<rect x="187" y="42" width="53.76" height="33.6" rx="8.4" fill="white"/>
<g clip-path="url(#clip2_17_2816)">
<path fill-rule="evenodd" clip-rule="evenodd" d="M197.113 63.7735C196.636 63.7735 196.393 63.5385 196.393 63.1521C196.393 62.4317 197.196 62.1894 198.661 62.0336C198.661 62.9936 198.012 63.7735 197.109 63.7735H197.113ZM197.744 58.3745C196.696 58.3745 195.492 58.8671 194.839 59.3886L195.436 60.6494C195.96 60.1694 196.807 59.7587 197.572 59.7587C198.299 59.7587 198.7 60.0019 198.7 60.4918C198.7 60.8205 198.435 60.9871 197.932 61.0529C196.053 61.296 194.581 61.8148 194.581 63.262C194.581 64.4093 195.398 65.1037 196.674 65.1037C197.585 65.1037 198.396 64.5976 198.781 63.9329V64.9236H200.48V60.7728C200.48 59.0617 199.292 58.3709 197.745 58.3709L197.744 58.3745Z" fill="#101820"/>
<path fill-rule="evenodd" clip-rule="evenodd" d="M214.791 58.5609V64.9154H216.608V61.8534C216.608 60.399 217.489 59.9712 218.102 59.9712C218.379 59.969 218.649 60.049 218.88 60.2008L219.212 58.5212C218.954 58.4182 218.679 58.3682 218.401 58.3745C217.468 58.3745 216.88 58.7878 216.493 59.629V58.5609H214.791Z" fill="#101820"/>
<path fill-rule="evenodd" clip-rule="evenodd" d="M227.634 58.3745C226.673 58.3745 225.955 58.9418 225.581 59.4894C225.234 58.7824 224.5 58.3745 223.618 58.3745C222.658 58.3745 221.992 58.9076 221.685 59.5218V58.5609H219.932V64.9154H221.752V61.6436C221.752 60.4728 222.367 59.9064 222.94 59.9064C223.46 59.9064 223.937 60.2423 223.937 61.1095V64.9154H225.753V61.6436C225.753 60.4557 226.353 59.9064 226.953 59.9064C227.434 59.9064 227.944 60.2558 227.944 61.0969V64.9154H229.76V60.5224C229.76 59.0949 228.799 58.3745 227.638 58.3745" fill="#101820"/>
<path fill-rule="evenodd" clip-rule="evenodd" d="M210.368 58.561H208.722V57.9153C208.722 57.0741 209.202 56.8346 209.615 56.8346C209.898 56.8383 210.175 56.9076 210.426 57.0372L210.986 55.7557C210.986 55.7557 210.418 55.3846 209.385 55.3846C208.224 55.3846 206.903 56.0394 206.903 58.0936V58.561H204.151V57.9153C204.151 57.0741 204.631 56.8346 205.045 56.8346C205.328 56.8346 205.606 56.9042 205.855 57.0372L206.415 55.7557C206.081 55.5603 205.544 55.3846 204.815 55.3846C203.654 55.3846 202.333 56.0394 202.333 58.0936V58.561H201.281V59.9623H202.336V64.9155H204.151V59.9623H206.906V64.9155H208.722V59.9623H210.368V58.561Z" fill="#101820"/>
<path d="M213.266 58.5611H211.453V64.9129H213.266V58.5611Z" fill="#101820"/>
<path fill-rule="evenodd" clip-rule="evenodd" d="M211.519 57.4812H213.296C214.333 54.222 217.849 51.3572 222.032 51.3572C227.118 51.3572 231.514 55.2298 231.514 61.2583C231.529 62.4957 231.359 63.7285 231.01 64.9155H232.734L232.751 64.8561C233.042 63.6809 233.185 62.4742 233.178 61.2637C233.178 54.5408 228.279 49.702 222.035 49.702C217.131 49.702 212.759 53.1062 211.52 57.483L211.519 57.4812Z" fill="#4A4AF4"/>
</g>
</g>
<g filter="url(#filter4_d_17_2816)">
<rect x="187" y="96" width="78.4" height="30.8" rx="8.4" fill="white"/>
<g clip-path="url(#clip3_17_2816)">
<path d="M200.47 112.681C200.47 111.674 199.692 110.967 198.737 110.967C197.782 110.967 197.004 111.686 197.004 112.681C197.004 113.663 197.782 114.395 198.737 114.395C199.693 114.394 200.47 113.687 200.47 112.681ZM200.484 115.677V114.898C200.012 115.437 199.311 115.772 198.471 115.772C196.725 115.772 195.4 114.454 195.4 112.681C195.4 110.919 196.776 109.577 198.51 109.577C199.325 109.577 200.013 109.913 200.484 110.44V109.685H202.051V115.677H200.484Z" fill="black"/>
<path d="M209.663 114.346C209.115 114.346 208.962 114.154 208.962 113.652V110.991H209.969V109.685H208.962V108.223H207.356V109.685H205.288V109.32C205.288 108.817 205.492 108.625 206.053 108.625H206.405V107.462H205.632C204.307 107.462 203.683 107.87 203.683 109.116V109.684H202.791V110.99H203.683V115.676H205.289V110.99H207.357V113.927C207.357 115.149 207.854 115.677 209.154 115.677H209.982V114.346H209.663Z" fill="black"/>
<path d="M215.423 112.141C215.308 111.362 214.632 110.895 213.843 110.895C213.053 110.895 212.403 111.35 212.238 112.141H215.423ZM212.224 113.076C212.339 113.963 213.015 114.466 213.868 114.466C214.544 114.466 215.067 114.166 215.372 113.687H217.016C216.634 114.957 215.423 115.772 213.83 115.772C211.906 115.772 210.556 114.502 210.556 112.693C210.556 110.883 211.983 109.576 213.869 109.576C215.768 109.576 217.144 110.895 217.144 112.693C217.144 112.825 217.131 112.956 217.106 113.076H212.224Z" fill="black"/>
<path d="M227.355 112.681C227.355 111.71 226.577 110.967 225.622 110.967C224.667 110.967 223.889 111.686 223.889 112.681C223.889 113.663 224.667 114.395 225.622 114.395C226.577 114.394 227.355 113.652 227.355 112.681ZM222.308 109.685H223.875V110.464C224.347 109.912 225.047 109.577 225.888 109.577C227.608 109.577 228.959 110.908 228.959 112.669C228.959 114.431 227.583 115.773 225.85 115.773C225.047 115.773 224.385 115.473 223.926 114.97V118.142H222.308V109.685Z" fill="black"/>
<path d="M234.607 112.681C234.607 111.674 233.831 110.967 232.874 110.967C231.919 110.967 231.142 111.686 231.142 112.681C231.142 113.663 231.919 114.395 232.874 114.395C233.831 114.394 234.607 113.687 234.607 112.681ZM234.621 115.677V114.898C234.15 115.437 233.448 115.772 232.608 115.772C230.862 115.772 229.537 114.454 229.537 112.681C229.537 110.919 230.913 109.577 232.646 109.577C233.462 109.577 234.15 109.913 234.621 110.44V109.685H236.188V115.677H234.621Z" fill="black"/>
<path d="M219.484 110.272C219.484 110.272 219.883 109.577 220.859 109.577C221.277 109.577 221.547 109.712 221.547 109.712V111.241C221.547 111.241 220.958 110.899 220.416 110.967C219.875 111.036 219.532 111.504 219.534 112.13V115.678H217.917V109.686H219.484V110.272Z" fill="black"/>
<path d="M243.507 109.685L239.55 118.123H237.882L239.435 114.861L236.808 109.685H238.7L240.236 113.143L241.813 109.685H243.507Z" fill="black"/>
<path d="M256.136 109.549L252.214 107.42C251.063 106.795 249.624 107.576 249.624 108.827V109.045C249.624 109.242 249.736 109.425 249.917 109.523L250.658 109.925C250.875 110.043 251.147 109.896 251.147 109.66V109.117C251.147 108.845 251.459 108.675 251.709 108.811L255.106 110.656C255.356 110.791 255.356 111.131 255.106 111.266L251.709 113.11C251.459 113.246 251.147 113.076 251.147 112.805V112.516C251.147 111.265 249.707 110.483 248.555 111.109L244.633 113.238C243.481 113.863 243.481 115.426 244.633 116.051L248.555 118.18C249.706 118.805 251.147 118.024 251.147 116.773V116.555C251.147 116.358 251.034 116.176 250.853 116.077L250.112 115.674C249.895 115.556 249.624 115.703 249.624 115.939V116.482C249.624 116.754 249.312 116.924 249.061 116.788L245.664 114.944C245.414 114.808 245.414 114.468 245.664 114.332L249.061 112.488C249.312 112.352 249.624 112.522 249.624 112.794V113.083C249.624 114.333 251.063 115.115 252.214 114.489L256.136 112.36C257.288 111.737 257.288 110.174 256.136 109.549Z" fill="black"/>
</g>
</g>
<g filter="url(#filter5_d_17_2816)">
<rect x="16" y="67" width="53.5" height="33.4375" rx="8.4" fill="white"/>
<path d="M56.8815 84.115H53.7476C53.6649 84.1156 53.583 84.1 53.5065 84.0689C53.4299 84.0378 53.3603 83.9918 53.3016 83.9337C53.2429 83.8756 53.1962 83.8065 53.1643 83.7303C53.1324 83.6541 53.1158 83.5723 53.1156 83.4897C53.1156 83.142 53.3998 82.836 53.7476 82.836H58.5183V80.4837H53.7476C52.9474 80.4852 52.1804 80.8037 51.6145 81.3694C51.0486 81.9352 50.7299 82.7021 50.7282 83.5022C50.7282 85.1632 52.0824 86.52 53.7476 86.52H56.8389C56.9215 86.5193 57.0034 86.535 57.0799 86.5661C57.1565 86.5972 57.2261 86.6431 57.2848 86.7012C57.3436 86.7593 57.3902 86.8285 57.4221 86.9047C57.4541 86.9809 57.4706 87.0626 57.4708 87.1453C57.4708 87.493 57.1866 87.7488 56.8389 87.7488H50.2099C49.6473 88.823 49.1006 89.7442 47.9896 90.204H56.8815C58.5183 90.1805 59.8574 88.7954 59.8574 87.1486C59.8574 85.5026 58.5183 84.1384 56.8815 84.115Z" fill="#71706F"/>
<path d="M44.8683 80.4828C42.2125 80.4828 40.0491 82.6588 40.0491 85.3329V95.4219H42.4541V90.2031H44.8632C47.5198 90.2031 49.6749 87.9987 49.6749 85.3246C49.6749 82.6504 47.5249 80.4828 44.8683 80.4828ZM44.8683 87.7471H42.4541V85.3246C42.4541 83.9704 43.5324 82.8686 44.8683 82.8686C46.2058 82.8686 47.2925 83.9704 47.2925 85.3246C47.2925 86.6788 46.2058 87.7471 44.8683 87.7471Z" fill="#71706F"/>
<path d="M32.437 90.2031C30.1633 90.2031 28.2515 88.5831 27.7341 86.4665C27.7341 86.4665 27.5853 85.7668 27.5853 85.3062C27.5853 84.8456 27.7265 84.1384 27.7265 84.1384C28.2473 82.0268 30.1566 80.4553 32.4262 80.4553C35.0962 80.4553 37.2871 82.6253 37.2871 85.2953V86.469H30.1942C30.6122 87.2874 31.4598 87.748 32.437 87.748H38.8127L38.8211 80.8247C38.8198 80.3276 38.6217 79.8511 38.2703 79.4995C37.9188 79.1478 37.4424 78.9496 36.9452 78.9481H27.9079C26.8755 78.9481 26.0312 79.7673 26.0312 80.7988V89.8353C26.0312 90.8685 26.8755 91.7379 27.9079 91.7379H36.9444C37.8715 91.7379 38.6439 91.0733 38.7935 90.2031H32.437Z" fill="#C8036F"/>
<path d="M32.4261 82.7524C31.4531 82.7524 30.6071 83.3476 30.1858 84.115H34.6665C34.246 83.3476 33.4 82.7524 32.4261 82.7524ZM36.5189 76.0089C36.5189 73.8045 34.6865 72.0156 32.4261 72.0156C30.2025 72.0156 28.3936 73.7452 28.3342 75.9002V77.1274C28.3342 77.2712 28.4513 77.4133 28.5984 77.4133H30.1047C30.2519 77.4133 30.3806 77.2712 30.3806 77.1274V76.0089C30.3806 74.908 31.2976 74.011 32.427 74.011C33.5563 74.011 34.4734 74.908 34.4734 76.0089V77.1274C34.4734 77.2712 34.5929 77.4133 34.7409 77.4133H36.2464C36.3935 77.4133 36.5197 77.2712 36.5197 77.1274V76.0089H36.5189Z" fill="#C8036F"/>
</g>
<defs>
<filter id="filter0_d_17_2816" x="95" y="51.8" width="70" height="70" filterUnits="userSpaceOnUse" color-interpolation-filters="sRGB">
<feFlood flood-opacity="0" result="BackgroundImageFix"/>
<feColorMatrix in="SourceAlpha" type="matrix" values="0 0 0 0 0 0 0 0 0 0 0 0 0 0 0 0 0 0 127 0" result="hardAlpha"/>
<feOffset dy="2.8"/>
<feGaussianBlur stdDeviation="3.5"/>
<feComposite in2="hardAlpha" operator="out"/>
<feColorMatrix type="matrix" values="0 0 0 0 0 0 0 0 0 0 0 0 0 0 0 0 0 0 0.2 0"/>
<feBlend mode="normal" in2="BackgroundImageFix" result="effect1_dropShadow_17_2816"/>
<feBlend mode="normal" in="SourceGraphic" in2="effect1_dropShadow_17_2816" result="shape"/>
</filter>
<filter id="filter1_d_17_2816" x="25" y="116" width="67.5032" height="47.6" filterUnits="userSpaceOnUse" color-interpolation-filters="sRGB">
<feFlood flood-opacity="0" result="BackgroundImageFix"/>
<feColorMatrix in="SourceAlpha" type="matrix" values="0 0 0 0 0 0 0 0 0 0 0 0 0 0 0 0 0 0 127 0" result="hardAlpha"/>
<feOffset/>
<feGaussianBlur stdDeviation="3.5"/>
<feComposite in2="hardAlpha" operator="out"/>
<feColorMatrix type="matrix" values="0 0 0 0 0 0 0 0 0 0 0 0 0 0 0 0 0 0 0.08 0"/>
<feBlend mode="normal" in2="BackgroundImageFix" result="effect1_dropShadow_17_2816"/>
<feBlend mode="normal" in="SourceGraphic" in2="effect1_dropShadow_17_2816" result="shape"/>
</filter>
<filter id="filter2_d_17_2816" x="31" y="4" width="67.5032" height="47.6" filterUnits="userSpaceOnUse" color-interpolation-filters="sRGB">
<feFlood flood-opacity="0" result="BackgroundImageFix"/>
<feColorMatrix in="SourceAlpha" type="matrix" values="0 0 0 0 0 0 0 0 0 0 0 0 0 0 0 0 0 0 127 0" result="hardAlpha"/>
<feOffset/>
<feGaussianBlur stdDeviation="3.5"/>
<feComposite in2="hardAlpha" operator="out"/>
<feColorMatrix type="matrix" values="0 0 0 0 0 0 0 0 0 0 0 0 0 0 0 0 0 0 0.08 0"/>
<feBlend mode="normal" in2="BackgroundImageFix" result="effect1_dropShadow_17_2816"/>
<feBlend mode="normal" in="SourceGraphic" in2="effect1_dropShadow_17_2816" result="shape"/>
</filter>
<filter id="filter3_d_17_2816" x="180" y="35" width="67.76" height="47.6" filterUnits="userSpaceOnUse" color-interpolation-filters="sRGB">
<feFlood flood-opacity="0" result="BackgroundImageFix"/>
<feColorMatrix in="SourceAlpha" type="matrix" values="0 0 0 0 0 0 0 0 0 0 0 0 0 0 0 0 0 0 127 0" result="hardAlpha"/>
<feOffset/>
<feGaussianBlur stdDeviation="3.5"/>
<feComposite in2="hardAlpha" operator="out"/>
<feColorMatrix type="matrix" values="0 0 0 0 0 0 0 0 0 0 0 0 0 0 0 0 0 0 0.08 0"/>
<feBlend mode="normal" in2="BackgroundImageFix" result="effect1_dropShadow_17_2816"/>
<feBlend mode="normal" in="SourceGraphic" in2="effect1_dropShadow_17_2816" result="shape"/>
</filter>
<filter id="filter4_d_17_2816" x="180" y="89" width="92.4" height="44.8" filterUnits="userSpaceOnUse" color-interpolation-filters="sRGB">
<feFlood flood-opacity="0" result="BackgroundImageFix"/>
<feColorMatrix in="SourceAlpha" type="matrix" values="0 0 0 0 0 0 0 0 0 0 0 0 0 0 0 0 0 0 127 0" result="hardAlpha"/>
<feOffset/>
<feGaussianBlur stdDeviation="3.5"/>
<feComposite in2="hardAlpha" operator="out"/>
<feColorMatrix type="matrix" values="0 0 0 0 0 0 0 0 0 0 0 0 0 0 0 0 0 0 0.08 0"/>
<feBlend mode="normal" in2="BackgroundImageFix" result="effect1_dropShadow_17_2816"/>
<feBlend mode="normal" in="SourceGraphic" in2="effect1_dropShadow_17_2816" result="shape"/>
</filter>
<filter id="filter5_d_17_2816" x="9" y="60" width="67.5" height="47.4375" filterUnits="userSpaceOnUse" color-interpolation-filters="sRGB">
<feFlood flood-opacity="0" result="BackgroundImageFix"/>
<feColorMatrix in="SourceAlpha" type="matrix" values="0 0 0 0 0 0 0 0 0 0 0 0 0 0 0 0 0 0 127 0" result="hardAlpha"/>
<feOffset/>
<feGaussianBlur stdDeviation="3.5"/>
<feComposite in2="hardAlpha" operator="out"/>
<feColorMatrix type="matrix" values="0 0 0 0 0 0 0 0 0 0 0 0 0 0 0 0 0 0 0.08 0"/>
<feBlend mode="normal" in2="BackgroundImageFix" result="effect1_dropShadow_17_2816"/>
<feBlend mode="normal" in="SourceGraphic" in2="effect1_dropShadow_17_2816" result="shape"/>
</filter>
<clipPath id="clip0_17_2816">
<rect x="32" y="123" width="53.5032" height="33.6" rx="8.4" fill="white"/>
</clipPath>
<clipPath id="clip1_17_2816">
<rect x="38" y="11" width="53.5032" height="33.6" rx="8.4" fill="white"/>
</clipPath>
<clipPath id="clip2_17_2816">
<rect width="38.5946" height="15.4" fill="white" transform="translate(194.583 49.7)"/>
</clipPath>
<clipPath id="clip3_17_2816">
<rect width="61.6" height="11.2" fill="white" transform="translate(195.4 107.2)"/>
</clipPath>
</defs>
</svg>
