<svg width="266" height="168" viewBox="0 0 190 120" fill="none" xmlns="http://www.w3.org/2000/svg">
<circle opacity="0.4" cx="100" cy="60" r="52" fill="#F2EDFF"/>
<circle cx="100" cy="60" r="36" fill="#F2EDFF"/>
<g filter="url(#filter0_d_1849_118978)">
<rect x="80" y="40" width="40" height="40" rx="20" fill="#674399" shape-rendering="crispEdges"/>
<mask id="mask0_1849_118978" style="mask-type:luminance" maskUnits="userSpaceOnUse" x="90" y="52" width="20" height="16">
<path fill-rule="evenodd" clip-rule="evenodd" d="M108 52H92C90.895 52 90 52.895 90 54V66C90 67.105 90.895 68 92 68H108C109.105 68 110 67.105 110 66V54C110 52.895 109.105 52 108 52ZM108 54V56H92V54H108ZM92 60V66H108V60H92ZM94 62H101V64H94V62ZM106 62H103V64H106V62Z" fill="white"/>
</mask>
<g mask="url(#mask0_1849_118978)">
<rect x="88" y="48" width="24" height="24" fill="white"/>
</g>
</g>
<g filter="url(#filter1_d_1849_118978)">
<g clip-path="url(#clip0_1849_118978)">
<path d="M162.178 88H128.038C126.913 88 126 88.9125 126 90.0382V109.962C126 111.087 126.913 112 128.038 112H162.178C163.304 112 164.217 111.087 164.217 109.962V90.0382C164.217 88.9125 163.304 88 162.178 88Z" fill="white"/>
<path d="M132.967 94.6002C132.967 93.2747 134.041 92.2002 135.367 92.2002H155.081C156.407 92.2002 157.481 93.2747 157.481 94.6002V105.4C157.481 106.726 156.407 107.8 155.081 107.8H135.367C134.041 107.8 132.967 106.726 132.967 105.4V94.6002Z" fill="white"/>
<path fill-rule="evenodd" clip-rule="evenodd" d="M155.081 93.4002H135.367C134.704 93.4002 134.167 93.9375 134.167 94.6002V105.4C134.167 106.063 134.704 106.6 135.367 106.6H155.081C155.744 106.6 156.281 106.063 156.281 105.4V94.6002C156.281 93.9375 155.744 93.4002 155.081 93.4002ZM135.367 92.2002C134.041 92.2002 132.967 93.2747 132.967 94.6002V105.4C132.967 106.726 134.041 107.8 135.367 107.8H155.081C156.407 107.8 157.481 106.726 157.481 105.4V94.6002C157.481 93.2747 156.407 92.2002 155.081 92.2002H135.367Z" fill="#0F3365"/>
<path d="M145.224 92.2002H153.481C155.69 92.2002 157.481 93.9911 157.481 96.2002V103.8C157.481 106.009 155.69 107.8 153.481 107.8H145.224V92.2002Z" fill="#0F3365"/>
<path fill-rule="evenodd" clip-rule="evenodd" d="M146.895 104.864H149.448V101.314H149.477C149.959 102.092 150.924 102.38 151.818 102.38C154.017 102.38 155.194 100.774 155.194 98.842C155.194 97.2617 154.074 95.543 152.031 95.543C150.868 95.543 149.789 95.9569 149.279 96.8727H149.25V95.6934H146.895V104.864ZM152.556 98.8924C152.556 99.9338 151.974 100.649 151.01 100.649C150.158 100.649 149.448 99.9338 149.448 98.98C149.448 98.0018 150.073 97.2741 151.01 97.2741C152.002 97.2741 152.556 98.0264 152.556 98.8924Z" fill="#FFFFFE"/>
<path fill-rule="evenodd" clip-rule="evenodd" d="M143.548 95.6934H141.235V96.8723H141.207C140.668 96.0698 139.788 95.543 138.696 95.543C136.398 95.543 135.363 96.9978 135.363 98.9424C135.363 100.875 136.625 102.229 138.654 102.229C139.675 102.229 140.526 101.878 141.136 101.112H141.165V101.464C141.165 102.744 140.37 103.358 138.895 103.358C137.831 103.358 137.178 103.158 136.398 102.819L136.27 104.601C136.866 104.788 137.874 105.014 139.093 105.014C142.073 105.014 143.548 104.148 143.548 101.464V95.6934ZM138.001 98.9046C138.001 98.0142 138.498 97.2741 139.448 97.2741C140.597 97.2741 141.079 98.0888 141.079 98.8167C141.079 99.8208 140.356 100.498 139.448 100.498C138.682 100.498 138.001 99.9204 138.001 98.9046Z" fill="#D8232A"/>
</g>
</g>
<g filter="url(#filter2_d_1849_118978)">
<g clip-path="url(#clip1_1849_118978)">
<path d="M162.178 8H128.038C126.913 8 126 8.91254 126 10.0382V29.9618C126 31.0875 126.913 32 128.038 32H162.178C163.304 32 164.217 31.0875 164.217 29.9618V10.0382C164.217 8.91254 163.304 8 162.178 8Z" fill="#EF809F"/>
<path d="M143 23.0554C143.296 23.346 143.302 23.821 143.011 24.1172L142.955 24.1787C142.664 24.4749 142.189 24.4805 141.893 24.1899L140.217 22.53C139.753 22.0661 139.691 21.4961 139.982 21.1943L140.038 21.1328C140.278 20.8813 140.675 20.859 140.949 21.0713C141.077 21.1719 141.267 21.1496 141.373 21.0211C141.474 20.8925 141.452 20.7025 141.323 20.5963C140.803 20.1883 140.06 20.2386 139.602 20.7081L139.546 20.7696C139.004 21.3284 139.11 22.2729 139.786 22.9492L141.468 24.6258C142.011 25.1455 142.866 25.1344 143.391 24.5978L143.452 24.5364C143.967 23.9999 143.955 23.1504 143.424 22.625C143.307 22.5077 143.117 22.5077 143 22.6306C142.877 22.748 142.877 22.938 143 23.0554ZM141.994 14.0519L142.681 19.6965C142.698 19.8586 142.849 19.9815 143.016 19.9592C143.179 19.9424 143.302 19.7915 143.279 19.6239L142.592 13.9569L142.586 13.9233C142.469 13.4539 142.759 12.9285 143.151 12.8447C143.369 12.8 143.598 12.8391 143.782 12.9621C143.967 13.085 144.095 13.275 144.14 13.493L145.336 18.6011C145.375 18.7632 145.537 18.8638 145.699 18.8247C145.861 18.7856 145.962 18.6235 145.923 18.4614L144.732 13.3701C144.66 13.0012 144.436 12.6715 144.117 12.4591C143.799 12.2467 143.402 12.1741 143.028 12.2523C142.29 12.4088 141.809 13.2695 141.994 14.0519Z" fill="white"/>
<path d="M148.298 20.6801L149.656 13.9177C149.812 13.1912 149.382 12.4591 148.661 12.2467C147.856 12.0455 147.046 12.515 146.839 13.3086L145.336 18.4558C145.291 18.6179 145.38 18.7855 145.543 18.8303C145.705 18.875 145.872 18.7855 145.917 18.6235L147.42 13.4706C147.549 12.9956 148.03 12.7106 148.499 12.8279C148.901 12.9509 149.153 13.37 149.063 13.7948L147.705 20.5628C147.672 20.7248 147.778 20.8869 147.94 20.9204C148.108 20.9484 148.27 20.8422 148.298 20.6801ZM144.883 27.1966C142.731 27.1966 140.937 25.6206 140.937 23.3795C140.937 23.2118 140.803 23.0777 140.636 23.0777C140.468 23.0777 140.334 23.2118 140.334 23.3795C140.334 25.9727 142.418 27.8002 144.883 27.8002C145.051 27.8002 145.185 27.6661 145.185 27.4984C145.185 27.3307 145.051 27.1966 144.883 27.1966ZM143.821 21.9264C143.777 22.0941 143.67 22.245 143.525 22.34L143.458 22.3791C143.111 22.6138 142.642 22.5244 142.407 22.1779L141.088 20.2163C140.731 19.6686 140.775 19.0985 141.122 18.8582L141.183 18.8135C141.63 18.5564 142.005 18.752 142.391 19.3165L143.491 20.9596C143.587 21.0993 143.771 21.1328 143.911 21.0434C144.05 20.954 144.084 20.764 143.994 20.6242L142.893 18.9811C142.346 18.1875 141.675 17.8355 140.865 18.3049L140.781 18.3608C140.133 18.8023 140.054 19.7524 140.585 20.5516L141.904 22.5188C142.329 23.1392 143.167 23.3013 143.788 22.8821L143.855 22.8374C144.117 22.6585 144.307 22.3903 144.397 22.0829C144.442 21.9208 144.347 21.7588 144.185 21.714C144.028 21.6693 143.866 21.7643 143.821 21.9264Z" fill="white"/>
<path d="M145.816 22.9214C145.19 23.2735 144.799 23.9274 144.755 24.9278C144.743 25.0954 144.872 25.2352 145.04 25.2463C145.207 25.2519 145.347 25.129 145.358 24.9613C145.403 24.0559 145.755 23.5697 146.319 23.3573C146.621 23.2456 146.951 23.2232 147.242 23.2512L147.314 23.2623C147.7 23.335 147.823 22.7593 147.437 22.6699L145.118 22.1502C144.034 21.854 143.866 21.4516 144.067 20.7809C144.157 20.4903 144.33 20.3394 144.604 20.2779C144.782 20.2388 144.978 20.2444 145.168 20.2779C145.224 20.2891 145.263 20.2947 145.28 20.3003L148.801 21.1218L148.868 21.1442C148.924 21.1666 148.985 21.2113 149.047 21.2727C149.281 21.5242 149.416 21.9993 149.348 22.7817C149.119 25.5202 147.845 27.2192 144.816 27.1912C144.648 27.1912 144.514 27.3254 144.514 27.4874C144.514 27.6551 144.648 27.7892 144.81 27.7892C148.208 27.8172 149.695 25.8443 149.946 22.8264C150.025 21.8875 149.851 21.2448 149.488 20.8592C149.287 20.6468 149.075 20.5462 148.913 20.5239L145.431 19.7135C145.408 19.7079 145.353 19.6911 145.274 19.6799C145.012 19.6352 144.738 19.6297 144.47 19.6855C144 19.7917 143.642 20.0879 143.491 20.6021C143.201 21.5689 143.508 22.329 144.973 22.7258L145.816 22.9214Z" fill="white"/>
</g>
</g>
<g filter="url(#filter3_d_1849_118978)">
<g clip-path="url(#clip2_1849_118978)">
<path d="M179.178 48H145.038C143.913 48 143 48.9125 143 50.0382V69.9618C143 71.0875 143.913 72 145.038 72H179.178C180.304 72 181.217 71.0875 181.217 69.9618V50.0382C181.217 48.9125 180.304 48 179.178 48Z" fill="white"/>
<path d="M151.22 50.2202V69.6902H162.56C170.06 69.6902 173.3 65.4902 173.3 59.9402C173.3 54.3902 170 50.2202 162.56 50.2202H151.22Z" fill="white"/>
<path fill-rule="evenodd" clip-rule="evenodd" d="M162.56 51.4502H152.45V68.4602H162.56C168.38 68.4602 172.07 65.6102 172.07 59.9402C172.07 55.2002 169.43 51.4502 162.56 51.4502ZM153.41 67.5002V52.4702H162.56C167.84 52.4702 171.08 54.8702 171.08 59.9702C171.08 64.9202 168.08 67.5002 162.56 67.5002H153.41Z" fill="black"/>
<path d="M154.64 61.02H157.58V66.24H154.64V61.02Z" fill="black"/>
<path d="M156.11 60.2401C157.121 60.2401 157.94 59.4208 157.94 58.4101C157.94 57.3994 157.121 56.5801 156.11 56.5801C155.099 56.5801 154.28 57.3994 154.28 58.4101C154.28 59.4208 155.099 60.2401 156.11 60.2401Z" fill="black"/>
<path fill-rule="evenodd" clip-rule="evenodd" d="M167.75 56.7301H168.59V59.2501H169.82C169.49 54.6601 165.86 53.6401 162.56 53.6401H159.05V56.7301H159.56C160.52 56.7301 161.09 57.3601 161.09 58.4101C161.09 59.4601 160.52 60.0901 159.59 60.0901H159.05V66.2401H162.56C167.93 66.2401 169.76 63.7501 169.85 60.0901H167.75V56.7301ZM163.7 59.2501V60.0901H161.6V56.7301H163.64V57.5701H162.44V57.9601H163.58V58.8001H162.47V59.2501H163.7ZM164.06 60.0901L165.08 56.7301H166.28L167.3 60.0901H166.43L166.25 59.4601H165.14L164.96 60.0901H164.06ZM165.389 58.5901H165.38V58.6201L165.389 58.5901ZM165.389 58.5901H165.98L165.71 57.6601H165.68L165.389 58.5901ZM159.05 59.2501V57.5701H159.56C159.89 57.5701 160.25 57.6601 160.25 58.4101C160.25 59.1601 159.92 59.2501 159.56 59.2501H159.05Z" fill="#D50072"/>
</g>
</g>
<g filter="url(#filter4_d_1849_118978)">
<rect x="22" y="28" width="38.4" height="24" rx="6" fill="white"/>
<g clip-path="url(#clip3_1849_118978)">
<path fill-rule="evenodd" clip-rule="evenodd" d="M29.9049 43.2939C29.5833 43.2939 29.4195 43.1355 29.4195 42.8752C29.4195 42.3899 29.9607 42.2267 30.9478 42.1217C30.9478 42.7685 30.5104 43.2939 29.9019 43.2939H29.9049ZM30.3296 39.6567C29.624 39.6567 28.8128 39.9886 28.3724 40.3399L28.7746 41.1892C29.1277 40.8659 29.6986 40.5892 30.2137 40.5892C30.7033 40.5892 30.9739 40.753 30.9739 41.0831C30.9739 41.3045 30.7949 41.4167 30.4564 41.461C29.1908 41.6248 28.1989 41.9743 28.1989 42.9493C28.1989 43.7222 28.7491 44.19 29.6088 44.19C30.2228 44.19 30.7688 43.849 31.0285 43.4012V44.0686H32.1727V41.2724C32.1727 40.1196 31.3725 39.6543 30.3302 39.6543L30.3296 39.6567Z" fill="#101820"/>
<path fill-rule="evenodd" clip-rule="evenodd" d="M41.8137 39.7822V44.063H43.038V42.0003C43.038 41.0205 43.6314 40.7323 44.0445 40.7323C44.2305 40.7308 44.4128 40.7847 44.5681 40.887L44.792 39.7555C44.6185 39.686 44.4328 39.6524 44.246 39.6566C43.6168 39.6566 43.2213 39.9351 42.9604 40.5017V39.7822H41.8137Z" fill="#101820"/>
<path fill-rule="evenodd" clip-rule="evenodd" d="M50.4658 39.6567C49.8185 39.6567 49.3343 40.039 49.0825 40.4078C48.849 39.9316 48.3545 39.6567 47.7599 39.6567C47.1132 39.6567 46.6649 40.0159 46.458 40.4297V39.7823H45.2773V44.0632H46.5029V41.859C46.5029 41.0703 46.9172 40.6887 47.3037 40.6887C47.6538 40.6887 47.9753 40.915 47.9753 41.4993V44.0632H49.1984V41.859C49.1984 41.0588 49.6025 40.6887 50.0072 40.6887C50.3311 40.6887 50.6745 40.9241 50.6745 41.4908V44.0632H51.8976V41.1037C51.8976 40.1421 51.2503 39.6567 50.4682 39.6567" fill="#101820"/>
<path fill-rule="evenodd" clip-rule="evenodd" d="M38.8342 39.7824H37.7252V39.3474C37.7252 38.7807 38.0485 38.6194 38.327 38.6194C38.5172 38.6218 38.7041 38.6686 38.873 38.7559L39.2504 37.8925C39.2504 37.8925 38.8676 37.6426 38.1717 37.6426C37.3897 37.6426 36.4996 38.0836 36.4996 39.4675V39.7824H34.6462V39.3474C34.6462 38.7807 34.969 38.6194 35.248 38.6194C35.4385 38.6193 35.626 38.6662 35.7941 38.7559L36.1714 37.8925C35.9463 37.7609 35.5841 37.6426 35.0933 37.6426C34.3113 37.6426 33.4213 38.0836 33.4213 39.4675V39.7824H32.7126V40.7264H33.4231V44.0632H34.6462V40.7264H36.5021V44.0632H37.7252V40.7264H38.8342V39.7824Z" fill="#101820"/>
<path d="M40.7866 39.7822H39.5647V44.0613H40.7866V39.7822Z" fill="#101820"/>
<path fill-rule="evenodd" clip-rule="evenodd" d="M39.6096 39.0551H40.8066C41.5049 36.8595 43.8741 34.9296 46.6916 34.9296C50.1182 34.9296 53.0795 37.5384 53.0795 41.5996C53.0899 42.4332 52.9754 43.2637 52.7398 44.0634H53.9016L53.9131 44.0233C54.1089 43.2317 54.2055 42.4187 54.2007 41.6032C54.2007 37.0742 50.9003 33.8145 46.694 33.8145C43.3899 33.8145 40.445 36.1078 39.6102 39.0563L39.6096 39.0551Z" fill="#4A4AF4"/>
</g>
</g>
<g filter="url(#filter5_d_1849_118978)">
<rect x="8" y="68" width="56" height="22" rx="6" fill="white"/>
<g clip-path="url(#clip4_1849_118978)">
<path d="M17.6213 79.915C17.6213 79.1959 17.0658 78.6906 16.3835 78.6906C15.7012 78.6906 15.1458 79.2045 15.1458 79.915C15.1458 80.6169 15.7012 81.1393 16.3835 81.1393C17.0665 81.1387 17.6213 80.634 17.6213 79.915ZM17.6311 82.055V81.4985C17.2944 81.8839 16.7933 82.1232 16.1933 82.1232C14.9464 82.1232 14 81.1813 14 79.915C14 78.6565 14.9827 77.6982 16.2212 77.6982C16.8038 77.6982 17.2951 77.9381 17.6317 78.3144V77.7749H18.751V82.055H17.6311Z" fill="black"/>
<path d="M24.1878 81.1047C23.7962 81.1047 23.6874 80.9677 23.6874 80.6085V78.7083H24.4067V77.775H23.6874V76.7309H22.5403V77.775H21.0628V77.5148C21.0628 77.1549 21.2084 77.018 21.6092 77.018H21.8608V76.1875H21.3088C20.3623 76.1875 19.9163 76.4785 19.9163 77.3686V77.7743H19.2793V78.7077H19.9163V82.0544H21.0635V78.7077H22.541V80.8051C22.541 81.6782 22.8957 82.0551 23.824 82.0551H24.4157V81.1047H24.1878Z" fill="black"/>
<path d="M28.3019 79.5292C28.2203 78.9728 27.7374 78.6391 27.1735 78.6391C26.609 78.6391 26.1449 78.9642 26.0271 79.5292H28.3019ZM26.0173 80.1971C26.0996 80.8303 26.5819 81.1902 27.1917 81.1902C27.674 81.1902 28.0475 80.9758 28.2656 80.6337H29.44C29.1668 81.5408 28.3019 82.1228 27.1645 82.1228C25.7901 82.1228 24.8256 81.2157 24.8256 79.9232C24.8256 78.6306 25.8452 77.6973 27.1924 77.6973C28.5486 77.6973 29.5313 78.6392 29.5313 79.9232C29.5313 80.0176 29.5222 80.1113 29.5041 80.1971H26.0173Z" fill="black"/>
<path d="M36.8248 79.915C36.8248 79.2215 36.2693 78.6906 35.587 78.6906C34.9047 78.6906 34.3492 79.2045 34.3492 79.915C34.3492 80.6169 34.9047 81.1393 35.587 81.1393C36.2693 81.1387 36.8248 80.6084 36.8248 79.915ZM33.2202 77.7749H34.3395V78.3314C34.6761 77.9375 35.1765 77.6982 35.7773 77.6982C37.006 77.6982 37.9706 78.6486 37.9706 79.9064C37.9706 81.1649 36.9879 82.1238 35.7501 82.1238C35.1765 82.1238 34.7033 81.9095 34.3757 81.5503V83.8162H33.2202V77.7749Z" fill="black"/>
<path d="M42.0052 79.915C42.0052 79.1959 41.4504 78.6906 40.7674 78.6906C40.0851 78.6906 39.5297 79.2045 39.5297 79.915C39.5297 80.6169 40.0851 81.1393 40.7674 81.1393C41.4504 81.1387 42.0052 80.634 42.0052 79.915ZM42.015 82.055V81.4985C41.6784 81.8839 41.1772 82.1232 40.5771 82.1232C39.3303 82.1232 38.3839 81.1813 38.3839 79.915C38.3839 78.6565 39.3666 77.6982 40.6044 77.6982C41.187 77.6982 41.6784 77.9381 42.015 78.3144V77.7749H43.1344V82.055H42.015Z" fill="black"/>
<path d="M31.2025 78.1944C31.2025 78.1944 31.4876 77.6982 32.1852 77.6982C32.4835 77.6982 32.6766 77.7946 32.6766 77.7946V78.8866C32.6766 78.8866 32.2556 78.6421 31.8688 78.6912C31.482 78.7404 31.2374 79.0747 31.2388 79.5217V82.0557H30.0833V77.7756H31.2025V78.1944Z" fill="black"/>
<path d="M48.3619 77.7749L45.5358 83.8024H44.3441L45.4536 81.4723L43.5775 77.7749H44.9283L46.0259 80.2453L47.1521 77.7749H48.3619Z" fill="black"/>
<path d="M57.3832 77.6777L54.5815 76.1571C53.759 75.7108 52.7311 76.2685 52.7311 77.1619V77.3179C52.7311 77.4588 52.8111 77.5893 52.9407 77.6594L53.4698 77.9465C53.6251 78.031 53.8189 77.9255 53.8189 77.7571V77.369C53.8189 77.175 54.0421 77.0538 54.2205 77.1508L56.6471 78.4682C56.8257 78.5652 56.8257 78.8077 56.6471 78.9041L54.2205 80.2215C54.0421 80.3186 53.8189 80.1973 53.8189 80.0033V79.7968C53.8189 78.9034 52.791 78.345 51.968 78.792L49.1663 80.3126C48.3438 80.759 48.3438 81.8759 49.1663 82.3222L51.968 83.8429C52.7902 84.2892 53.8189 83.7315 53.8189 82.8381V82.6821C53.8189 82.5412 53.7388 82.4114 53.6092 82.3406L53.0802 82.0529C52.9248 81.9683 52.7311 82.0738 52.7311 82.2423V82.6303C52.7311 82.8243 52.5082 82.9456 52.3295 82.8486L49.9029 81.5311C49.7245 81.4341 49.7245 81.1916 49.9029 81.0946L52.3295 79.7771C52.5082 79.6801 52.7311 79.8014 52.7311 79.9954V80.2019C52.7311 81.0953 53.759 81.6537 54.5815 81.2067L57.3832 79.686C58.2056 79.241 58.2056 78.1241 57.3832 77.6777Z" fill="black"/>
</g>
</g>
<defs>
<filter id="filter0_d_1849_118978" x="75" y="37" width="50" height="50" filterUnits="userSpaceOnUse" color-interpolation-filters="sRGB">
<feFlood flood-opacity="0" result="BackgroundImageFix"/>
<feColorMatrix in="SourceAlpha" type="matrix" values="0 0 0 0 0 0 0 0 0 0 0 0 0 0 0 0 0 0 127 0" result="hardAlpha"/>
<feOffset dy="2"/>
<feGaussianBlur stdDeviation="2.5"/>
<feComposite in2="hardAlpha" operator="out"/>
<feColorMatrix type="matrix" values="0 0 0 0 0 0 0 0 0 0 0 0 0 0 0 0 0 0 0.2 0"/>
<feBlend mode="normal" in2="BackgroundImageFix" result="effect1_dropShadow_1849_118978"/>
<feBlend mode="normal" in="SourceGraphic" in2="effect1_dropShadow_1849_118978" result="shape"/>
</filter>
<filter id="filter1_d_1849_118978" x="121" y="83" width="48.2166" height="34" filterUnits="userSpaceOnUse" color-interpolation-filters="sRGB">
<feFlood flood-opacity="0" result="BackgroundImageFix"/>
<feColorMatrix in="SourceAlpha" type="matrix" values="0 0 0 0 0 0 0 0 0 0 0 0 0 0 0 0 0 0 127 0" result="hardAlpha"/>
<feOffset/>
<feGaussianBlur stdDeviation="2.5"/>
<feComposite in2="hardAlpha" operator="out"/>
<feColorMatrix type="matrix" values="0 0 0 0 0 0 0 0 0 0 0 0 0 0 0 0 0 0 0.08 0"/>
<feBlend mode="normal" in2="BackgroundImageFix" result="effect1_dropShadow_1849_118978"/>
<feBlend mode="normal" in="SourceGraphic" in2="effect1_dropShadow_1849_118978" result="shape"/>
</filter>
<filter id="filter2_d_1849_118978" x="121" y="3" width="48.2166" height="34" filterUnits="userSpaceOnUse" color-interpolation-filters="sRGB">
<feFlood flood-opacity="0" result="BackgroundImageFix"/>
<feColorMatrix in="SourceAlpha" type="matrix" values="0 0 0 0 0 0 0 0 0 0 0 0 0 0 0 0 0 0 127 0" result="hardAlpha"/>
<feOffset/>
<feGaussianBlur stdDeviation="2.5"/>
<feComposite in2="hardAlpha" operator="out"/>
<feColorMatrix type="matrix" values="0 0 0 0 0 0 0 0 0 0 0 0 0 0 0 0 0 0 0.08 0"/>
<feBlend mode="normal" in2="BackgroundImageFix" result="effect1_dropShadow_1849_118978"/>
<feBlend mode="normal" in="SourceGraphic" in2="effect1_dropShadow_1849_118978" result="shape"/>
</filter>
<filter id="filter3_d_1849_118978" x="138" y="43" width="48.2166" height="34" filterUnits="userSpaceOnUse" color-interpolation-filters="sRGB">
<feFlood flood-opacity="0" result="BackgroundImageFix"/>
<feColorMatrix in="SourceAlpha" type="matrix" values="0 0 0 0 0 0 0 0 0 0 0 0 0 0 0 0 0 0 127 0" result="hardAlpha"/>
<feOffset/>
<feGaussianBlur stdDeviation="2.5"/>
<feComposite in2="hardAlpha" operator="out"/>
<feColorMatrix type="matrix" values="0 0 0 0 0 0 0 0 0 0 0 0 0 0 0 0 0 0 0.08 0"/>
<feBlend mode="normal" in2="BackgroundImageFix" result="effect1_dropShadow_1849_118978"/>
<feBlend mode="normal" in="SourceGraphic" in2="effect1_dropShadow_1849_118978" result="shape"/>
</filter>
<filter id="filter4_d_1849_118978" x="17" y="23" width="48.4" height="34" filterUnits="userSpaceOnUse" color-interpolation-filters="sRGB">
<feFlood flood-opacity="0" result="BackgroundImageFix"/>
<feColorMatrix in="SourceAlpha" type="matrix" values="0 0 0 0 0 0 0 0 0 0 0 0 0 0 0 0 0 0 127 0" result="hardAlpha"/>
<feOffset/>
<feGaussianBlur stdDeviation="2.5"/>
<feComposite in2="hardAlpha" operator="out"/>
<feColorMatrix type="matrix" values="0 0 0 0 0 0 0 0 0 0 0 0 0 0 0 0 0 0 0.08 0"/>
<feBlend mode="normal" in2="BackgroundImageFix" result="effect1_dropShadow_1849_118978"/>
<feBlend mode="normal" in="SourceGraphic" in2="effect1_dropShadow_1849_118978" result="shape"/>
</filter>
<filter id="filter5_d_1849_118978" x="3" y="63" width="66" height="32" filterUnits="userSpaceOnUse" color-interpolation-filters="sRGB">
<feFlood flood-opacity="0" result="BackgroundImageFix"/>
<feColorMatrix in="SourceAlpha" type="matrix" values="0 0 0 0 0 0 0 0 0 0 0 0 0 0 0 0 0 0 127 0" result="hardAlpha"/>
<feOffset/>
<feGaussianBlur stdDeviation="2.5"/>
<feComposite in2="hardAlpha" operator="out"/>
<feColorMatrix type="matrix" values="0 0 0 0 0 0 0 0 0 0 0 0 0 0 0 0 0 0 0.08 0"/>
<feBlend mode="normal" in2="BackgroundImageFix" result="effect1_dropShadow_1849_118978"/>
<feBlend mode="normal" in="SourceGraphic" in2="effect1_dropShadow_1849_118978" result="shape"/>
</filter>
<clipPath id="clip0_1849_118978">
<rect x="126" y="88" width="38.2166" height="24" rx="6" fill="white"/>
</clipPath>
<clipPath id="clip1_1849_118978">
<rect x="126" y="8" width="38.2166" height="24" rx="6" fill="white"/>
</clipPath>
<clipPath id="clip2_1849_118978">
<rect x="143" y="48" width="38.2166" height="24" rx="6" fill="white"/>
</clipPath>
<clipPath id="clip3_1849_118978">
<rect width="26" height="10.3745" fill="white" transform="translate(28.2001 33.813)"/>
</clipPath>
<clipPath id="clip4_1849_118978">
<rect width="44" height="8" fill="white" transform="translate(14 76)"/>
</clipPath>
</defs>
</svg>
