<svg
    xmlns="http://www.w3.org/2000/svg"
    width="780"
    height="480"
    viewBox="0 0 780 480"
>
    <defs>
        <linearGradient
            id="bancontact-grd1"
            gradientUnits="userSpaceOnUse"
            x1="189.3"
            y1="239.8"
            x2="373.5"
            y2="171.4"
        >
            <stop offset="0" stopColor="#005ab9" />
            <stop offset="1" stopColor="#1e3764" />
        </linearGradient>
        <linearGradient
            id="bancontact-grd2"
            gradientUnits="userSpaceOnUse"
            x1="405.4"
            y1="193.3"
            x2="601.1"
            y2="126.6"
        >
            <stop offset="0" stopColor="#fba900" />
            <stop offset="1" stopColor="#ffd800" />
        </linearGradient>
    </defs>
    <path
        id="bancontact-Layer1"
        d="M104.9 28.8h570.6a21 21 0 0121.1 21v379.8a21 21 0 01-21.1 21H104.9a21 21 0 01-21.1-21V49.9a21 21 0 0121-21.1z"
        fill="#fff"
    />
    <path
        id="bancontact-Layer2"
        fillRule="evenodd"
        d="M138.3 394.9V322h22.5c16.3 0 26.8 6.1 26.8 18.8a17 17 0 01-8 15 18 18 0 0110.7 17.5c0 14.6-10.7 21.5-27.3 21.5h-24.7zm14.5-42.5h10.7c6.5 0 9.3-3.3 9.3-9.2 0-6.3-5-8.4-12-8.4h-8v17.6zm0 29.8h9c8.6 0 13.7-2.2 13.7-9s-4.3-9.6-12.5-9.6h-10.2v18.6zm44.1-2.4c0-10.3 8.4-16.3 20.9-16.4h2.3l2.3.2a60.3 60.3 0 014.7.6v-2.5c0-6.3-3.7-9.3-10.7-9.3a37.4 37.4 0 00-13.7 2.5l-2.6-11.3a51.5 51.5 0 0118-3.1c15.3 0 22.9 8.1 22.9 22.1v29a52.2 52.2 0 01-22.7 4.5c-14.2 0-21.4-7-21.4-16.3zm30.2-6.6a29.6 29.6 0 00-7.4-.8c-4.8 0-8.6 1.9-8.6 6.8 0 4.3 3.2 6.6 8.7 6.6a16.7 16.7 0 007.3-1.4v-11.1zm24 21.7V345a63.8 63.8 0 0123.5-4.6c15.1 0 23.9 7.5 23.9 21.3v33H284v-32c0-7.1-3.3-10.4-9.6-10.4a20.5 20.5 0 00-7 1l-2.2.8V395H251zm94.8-40a32.2 32.2 0 00-11.8-2.5c-8.4 0-13 5.9-13 15.7 0 10.6 4.8 16.2 13.8 16.2a27 27 0 008.8-1.6l2.7-1.1 2.3 11.5a35.4 35.4 0 01-15 3c-17.2 0-27.2-10.7-27.2-27.6 0-16.9 9.9-28 26.4-28a41.3 41.3 0 0115.7 3.1l-2.7 11.3zm33.7 41.2c-16 0-26-11.1-26-27.8 0-16.7 10-27.8 26-27.8 16.1 0 25.9 11.1 25.9 27.8 0 16.7-9.8 27.8-26 27.8zm0-11.8c7.4 0 11.2-6.2 11.2-16s-3.8-16-11.2-16c-7.3 0-11.3 6.2-11.3 16s4 16 11.3 16zm34.2 10.6V345a63.6 63.6 0 0123.5-4.6c15.1 0 23.9 7.5 23.9 21.3v33h-14.4v-32c0-7.1-3.3-10.4-9.7-10.4a20.5 20.5 0 00-6.9 1l-2.2.8V395h-14.2zm61-19.3v-22.4h-7v-11.4h7v-11.6l14.3-.7v12.3h11.6v11.4H489v22.2c0 6 2.5 8.9 7.2 8.9h1.4l1.4-.2a20.5 20.5 0 002.7-.5l.8 11.6a58.9 58.9 0 01-6.8.9h-2.3c-12.4 0-18.7-6.7-18.7-20.5zm33.5 4.2c0-10.3 8.4-16.3 20.9-16.4h2.3l2.3.2a60.3 60.3 0 014.7.6v-2.5c0-6.3-3.7-9.3-10.6-9.3a37.4 37.4 0 00-13.8 2.5l-2.6-11.3a51.5 51.5 0 0118-3.1c15.3 0 22.9 8.1 22.9 22.1v29a52.2 52.2 0 01-22.7 4.5c-14.2 0-21.4-7-21.4-16.3zm30.2 4.6v-11.2a39.3 39.3 0 00-7.4-.8c-4.8 0-8.6 1.9-8.6 6.8 0 4.3 3.2 6.6 8.7 6.6a16.6 16.6 0 007.3-1.4zm60.3-29.4a32.2 32.2 0 00-11.8-2.6c-8.4 0-13 5.9-13 15.7 0 10.6 4.8 16.2 13.7 16.2a26.6 26.6 0 008.8-1.6l2.8-1.1 2.3 11.5a36.5 36.5 0 01-15 3c-17.3 0-27.2-10.7-27.2-27.6 0-16.9 9.8-28 26.4-28a41.6 41.6 0 0115.7 3.1l-2.8 11.3zm34.2 41c-12.4 0-18.7-6.7-18.7-20.5v-22.4h-7v-11.4h7v-11.6l14.3-.7v12.3h11.6v11.4h-11.6v22.2c0 6 2.5 8.9 7.2 8.9h1.4l1.4-.2a21.5 21.5 0 002.7-.5l.7 11.6a55.3 55.3 0 01-6.7.9H633z"
        fill="#1e3764"
    />
    <path
        id="bancontact-Layer3"
        d="M238.4 285.7c75.9 0 113.8-50.6 151.8-101.2H138.3v101.2h100z"
        fill="url(#bancontact-grd1)"
    />
    <path
        id="bancontact-Layer4"
        d="M542 83.3c-76 0-113.9 50.6-151.8 101.2H642V83.3H542z"
        fill="url(#bancontact-grd2)"
    />
</svg>