<svg xmlns="http://www.w3.org/2000/svg" width="64" height="40" viewBox="0 0 64 40" fill="none"><path fill="#fff" d="M0 0h64v40H0z"/><path fill="#1E3764" d="M11 32.9V27h1.87c1.36 0 2.24.5 2.24 1.53 0 .58-.28.98-.67 1.22.56.25.9.74.9 1.4 0 1.2-.9 1.75-2.29 1.75H11Zm1.2-3.45h.9c.54 0 .78-.26.78-.74 0-.51-.43-.68-1-.68h-.68v1.42Zm0 2.42h.75c.73 0 1.15-.18 1.15-.73s-.36-.78-1.05-.78h-.85v1.51ZM17.67 33c-1.19 0-1.79-.57-1.79-1.32 0-.84.7-1.33 1.75-1.33.25 0 .51.02.77.06v-.2c0-.51-.3-.76-.89-.76-.39 0-.78.07-1.14.2l-.22-.9a4.4 4.4 0 0 1 1.5-.26c1.28 0 1.9.66 1.9 1.8v2.34c-.35.18-1.01.37-1.88.37Zm.73-.95v-.9c-.2-.05-.41-.07-.62-.07-.4 0-.7.15-.7.55 0 .35.25.54.71.54.21 0 .42-.04.6-.12Zm2 .85v-4.04a5.43 5.43 0 0 1 1.96-.37c1.27 0 2 .6 2 1.73v2.68h-1.2v-2.6c0-.58-.28-.85-.8-.85-.27 0-.53.05-.77.15v3.3H20.4Zm8.13-4.16-.22.92a2.7 2.7 0 0 0-.98-.2c-.7 0-1.09.47-1.09 1.26 0 .87.4 1.32 1.15 1.32.33-.01.66-.08.96-.22l.2.94c-.4.16-.83.25-1.26.24-1.44 0-2.27-.87-2.27-2.24s.83-2.27 2.2-2.27c.45 0 .9.09 1.31.25ZM31.12 33c-1.34 0-2.17-.9-2.17-2.26 0-1.35.83-2.25 2.17-2.25 1.34 0 2.15.9 2.15 2.25 0 1.36-.81 2.26-2.15 2.26Zm0-.96c.61 0 .93-.5.93-1.3s-.32-1.29-.93-1.29c-.61 0-.95.5-.95 1.3s.34 1.29.95 1.29Zm2.85.86v-4.04a5.42 5.42 0 0 1 1.96-.37c1.26 0 1.99.6 1.99 1.73v2.68h-1.2v-2.6c0-.58-.27-.85-.8-.85-.27 0-.53.05-.77.15v3.3h-1.18Zm6.65.1c-1.04 0-1.56-.55-1.56-1.66v-1.82h-.6v-.93h.6v-.93l1.2-.06v1h.95v.92h-.96v1.8c0 .5.21.72.6.72.15 0 .3-.02.46-.05l.06.93c-.25.06-.5.08-.75.08Zm3.02 0c-1.2 0-1.79-.57-1.79-1.32 0-.84.7-1.33 1.74-1.33.26 0 .52.02.77.06v-.2c0-.51-.3-.76-.88-.76-.4 0-.78.07-1.14.2l-.22-.9a4.4 4.4 0 0 1 1.5-.26c1.27 0 1.9.66 1.9 1.8v2.34c-.35.18-1.02.37-1.89.37Zm.72-.95v-.9c-.2-.05-.4-.07-.61-.07-.4 0-.71.15-.71.55 0 .35.26.54.72.54.2 0 .41-.04.6-.12Zm5.26-3.3-.23.91a2.7 2.7 0 0 0-.98-.2c-.7 0-1.08.47-1.08 1.26 0 .87.4 1.32 1.14 1.32.34-.01.66-.08.96-.22l.2.94c-.4.16-.82.25-1.25.24-1.44 0-2.27-.87-2.27-2.24s.82-2.27 2.2-2.27c.45 0 .9.09 1.3.25ZM52.25 33c-1.04 0-1.56-.55-1.56-1.66v-1.82h-.6v-.93h.6v-.93l1.2-.06v1h.95v.92h-.96v1.8c0 .5.21.72.6.72.15 0 .3-.02.46-.05l.06.93c-.25.06-.5.08-.75.08Z"/><path fill="url(#a)" d="M19.34 24c6.33 0 9.5-4.5 12.66-9H11v9h8.34Z"/><path fill="url(#b)" d="M44.66 7c-6.33 0-9.5 4-12.66 8h21V7h-8.34Z"/><defs><linearGradient id="a" x1="15.25" x2="30.84" y1="19.92" y2="14.49" gradientUnits="userSpaceOnUse"><stop stop-color="#005AB9"/><stop offset="1" stop-color="#1E3764"/></linearGradient><linearGradient id="b" x1="33.27" x2="49.39" y1="15.69" y2="9.89" gradientUnits="userSpaceOnUse"><stop stop-color="#FBA900"/><stop offset="1" stop-color="#FFD800"/></linearGradient></defs></svg>
