<svg width="64" height="40" viewBox="0 0 64 40" fill="none" xmlns="http://www.w3.org/2000/svg">
<rect width="64" height="40" fill="white"/>
<path d="M11 32.9V27H12.87C14.23 27 15.11 27.5 15.11 28.53C15.11 29.11 14.83 29.51 14.44 29.75C15 30 15.34 30.49 15.34 31.15C15.34 32.35 14.44 32.9 13.05 32.9H11ZM12.2 29.45H13.1C13.64 29.45 13.88 29.19 13.88 28.71C13.88 28.2 13.45 28.03 12.88 28.03H12.2V29.45ZM12.2 31.87H12.95C13.68 31.87 14.1 31.69 14.1 31.14C14.1 30.59 13.74 30.36 13.05 30.36H12.2V31.87ZM17.67 33C16.48 33 15.88 32.43 15.88 31.68C15.88 30.84 16.58 30.35 17.63 30.35C17.88 30.35 18.14 30.37 18.4 30.41V30.21C18.4 29.7 18.1 29.45 17.51 29.45C17.12 29.45 16.73 29.52 16.37 29.65L16.15 28.75C16.6311 28.5768 17.1387 28.4889 17.65 28.49C18.93 28.49 19.55 29.15 19.55 30.29V32.63C19.2 32.81 18.54 33 17.67 33ZM18.4 32.05V31.15C18.2 31.1 17.99 31.08 17.78 31.08C17.38 31.08 17.08 31.23 17.08 31.63C17.08 31.98 17.33 32.17 17.79 32.17C18 32.17 18.21 32.13 18.39 32.05H18.4ZM20.4 32.9V28.86C21.0249 28.6167 21.6894 28.4913 22.36 28.49C23.63 28.49 24.36 29.09 24.36 30.22V32.9H23.16V30.3C23.16 29.72 22.88 29.45 22.36 29.45C22.09 29.45 21.83 29.5 21.59 29.6V32.9H20.4ZM28.53 28.74L28.31 29.66C27.9986 29.5329 27.6663 29.465 27.33 29.46C26.63 29.46 26.24 29.93 26.24 30.72C26.24 31.59 26.64 32.04 27.39 32.04C27.72 32.03 28.05 31.96 28.35 31.82L28.55 32.76C28.15 32.92 27.72 33.01 27.29 33C25.85 33 25.02 32.13 25.02 30.76C25.02 29.39 25.85 28.49 27.22 28.49C27.67 28.49 28.12 28.58 28.53 28.74ZM31.12 33C29.78 33 28.95 32.1 28.95 30.74C28.95 29.39 29.78 28.49 31.12 28.49C32.46 28.49 33.27 29.39 33.27 30.74C33.27 32.1 32.46 33 31.12 33ZM31.12 32.04C31.73 32.04 32.05 31.54 32.05 30.74C32.05 29.94 31.73 29.45 31.12 29.45C30.51 29.45 30.17 29.95 30.17 30.75C30.17 31.55 30.51 32.04 31.12 32.04ZM33.97 32.9V28.86C34.5948 28.6165 35.2594 28.491 35.93 28.49C37.19 28.49 37.92 29.09 37.92 30.22V32.9H36.72V30.3C36.72 29.72 36.45 29.45 35.92 29.45C35.65 29.45 35.39 29.5 35.15 29.6V32.9H33.97ZM40.62 33C39.58 33 39.06 32.45 39.06 31.34V29.52H38.46V28.59H39.06V27.66L40.26 27.6V28.6H41.21V29.52H40.25V31.32C40.25 31.82 40.46 32.04 40.85 32.04C41 32.04 41.15 32.02 41.31 31.99L41.37 32.92C41.12 32.98 40.87 33 40.62 33ZM43.64 33C42.44 33 41.85 32.43 41.85 31.68C41.85 30.84 42.55 30.35 43.59 30.35C43.85 30.35 44.11 30.37 44.36 30.41V30.21C44.36 29.7 44.06 29.45 43.48 29.45C43.08 29.45 42.7 29.52 42.34 29.65L42.12 28.75C42.6011 28.5768 43.1087 28.4889 43.62 28.49C44.89 28.49 45.52 29.15 45.52 30.29V32.63C45.17 32.81 44.5 33 43.63 33H43.64ZM44.36 32.05V31.15C44.16 31.1 43.96 31.08 43.75 31.08C43.35 31.08 43.04 31.23 43.04 31.63C43.04 31.98 43.3 32.17 43.76 32.17C43.96 32.17 44.17 32.13 44.36 32.05ZM49.62 28.75L49.39 29.66C49.0786 29.5329 48.7463 29.465 48.41 29.46C47.71 29.46 47.33 29.93 47.33 30.72C47.33 31.59 47.73 32.04 48.47 32.04C48.81 32.03 49.13 31.96 49.43 31.82L49.63 32.76C49.23 32.92 48.81 33.01 48.38 33C46.94 33 46.11 32.13 46.11 30.76C46.11 29.39 46.93 28.49 48.31 28.49C48.76 28.49 49.21 28.58 49.61 28.74L49.62 28.75ZM52.25 33C51.21 33 50.69 32.45 50.69 31.34V29.52H50.09V28.59H50.69V27.66L51.89 27.6V28.6H52.84V29.52H51.88V31.32C51.88 31.82 52.09 32.04 52.48 32.04C52.63 32.04 52.78 32.02 52.94 31.99L53 32.92C52.75 32.98 52.5 33 52.25 33Z" fill="#1E3764"/>
<path d="M19.34 24C25.67 24 28.84 19.5 32 15H11V24H19.34Z" fill="url(#paint0_linear_1_28)"/>
<path d="M44.66 7C38.33 7 35.16 11 32 15H53V7H44.66Z" fill="url(#paint1_linear_1_28)"/>
<defs>
<linearGradient id="paint0_linear_1_28" x1="15.25" y1="19.92" x2="30.84" y2="14.49" gradientUnits="userSpaceOnUse">
<stop stop-color="#005AB9"/>
<stop offset="1" stop-color="#1E3764"/>
</linearGradient>
<linearGradient id="paint1_linear_1_28" x1="33.27" y1="15.69" x2="49.39" y2="9.89" gradientUnits="userSpaceOnUse">
<stop stop-color="#FBA900"/>
<stop offset="1" stop-color="#FFD800"/>
</linearGradient>
</defs>
</svg>
