<svg width="64" height="40" viewBox="0 0 64 40" fill="none" xmlns="http://www.w3.org/2000/svg">
	<g clip-path="url(#clip0_18_3015)">
		<rect width="64" height="40" fill="white"/>
		<rect width="32" height="20" fill="white"/>
		<path fill-rule="evenodd" clip-rule="evenodd" d="M19.4732 6.49988C20.1813 6.49988 20.754 6.65126 21.115 6.78837L20.866 8.25159L20.7005 8.17964C20.3693 8.04263 19.932 7.90571 19.3369 7.92018C18.6142 7.92018 18.29 8.21557 18.2825 8.50396C18.2825 8.82119 18.6747 9.03024 19.3149 9.34029C20.3696 9.82327 20.8587 10.4143 20.8515 11.1857C20.8367 12.5915 19.5862 13.4999 17.6654 13.4999C16.8441 13.4925 16.0531 13.3264 15.6238 13.1392L15.8799 11.6181L16.121 11.7264C16.7161 11.9789 17.1077 12.0869 17.8385 12.0869C18.3656 12.0869 18.9307 11.8775 18.9379 11.4237C18.9379 11.128 18.6972 10.9116 17.989 10.58C17.2961 10.2555 16.3695 9.71491 16.3845 8.74166C16.3924 7.42254 17.6654 6.49988 19.4732 6.49988ZM12.6485 13.3988H14.4791L15.6239 6.6227H13.7934L12.6485 13.3988ZM24.3921 6.6227H25.8081L27.2848 13.3987H25.5899C25.5899 13.3987 25.424 12.6201 25.3715 12.3823H23.0212L22.637 13.3987H20.7163L23.4353 7.18492C23.6237 6.74515 23.9554 6.6227 24.3921 6.6227ZM24.279 9.10274C24.279 9.10274 23.699 10.6093 23.5482 10.9987H25.0698C24.9946 10.6598 24.6479 9.03787 24.6479 9.03787L24.52 8.45401C24.466 8.60435 24.3881 8.81106 24.3356 8.95048C24.2999 9.04499 24.276 9.10859 24.279 9.10274ZM7.66227 6.6227H4.71707L4.68694 6.75961C5.40522 6.93542 6.04768 7.18875 6.61059 7.50374L8.24224 13.3918H10.178L13.0554 6.62288H11.1197L9.32695 11.2435L9.13105 10.3064L8.49082 7.19229C8.38541 6.75952 8.06148 6.63697 7.66227 6.6227Z" fill="#1A1F71"/>
		<rect width="32" height="20" transform="translate(0 20)" fill="#2557D6"/>
		<path fill-rule="evenodd" clip-rule="evenodd" d="M0 29.387H1.53728L1.88373 28.5546H2.65941L3.00501 29.3866H6.02965V28.7505L6.29929 29.3896H7.86942L8.1395 28.741V29.387H15.6552L15.6513 28.0205H15.7968C15.8988 28.0238 15.9287 28.0332 15.9287 28.2009V29.387H19.8157V29.0687C20.1293 29.236 20.6169 29.387 21.2587 29.387H22.894L23.2439 28.5546H24.02L24.3622 29.3866H27.5136V28.596L27.9905 29.387H30.5164V24.16H28.017V24.7773L27.6672 24.16H25.1024V24.7773L24.7812 24.16H21.3167C20.7373 24.16 20.2274 24.2406 19.8157 24.465V24.16H17.4255V24.465C17.1635 24.2337 16.8064 24.16 16.4092 24.16H7.67615L7.0899 25.5099L6.48831 24.16H3.73759V24.7773L3.43552 24.16H1.08928L0 26.6449V29.387ZM9.70238 28.6327H8.77993L8.77652 25.6977L7.4722 28.6331H6.68244L5.37471 25.6951V28.6327H3.54474L3.19914 27.7969H1.32608L0.977068 28.6331H0L1.61109 24.8853H2.94741L4.47744 28.4334V24.8853H5.94559L7.12319 27.4273L8.20436 24.8853H9.70196L9.70238 28.6327ZM2.89194 27.0194L2.27626 25.5258L1.66399 27.0191L2.89194 27.0194ZM13.3725 28.6331H10.3676V24.8858H13.3725V25.6661H11.267V26.3415H13.3222V27.1095H11.267V27.8582H13.3725V28.6331ZM17.6077 25.8947C17.6077 26.4921 17.2066 26.8011 16.9736 26.894C17.1703 26.9683 17.3385 27.1001 17.4187 27.2098C17.5458 27.3958 17.5675 27.5622 17.5675 27.8967V28.6331H16.66L16.6566 28.1608C16.6566 27.9351 16.6784 27.6109 16.5145 27.4304C16.3832 27.2989 16.183 27.2704 15.8592 27.2704H14.8932V28.6331H13.9938V24.8858H16.0632C16.5226 24.8858 16.8614 24.8977 17.1524 25.065C17.437 25.2325 17.6077 25.4771 17.6077 25.8947ZM16.4702 26.4516C16.3464 26.5263 16.2005 26.5284 16.0251 26.5284H14.9325V25.6964H16.0401C16.197 25.6964 16.3605 25.7032 16.4667 25.7638C16.5837 25.8184 16.6557 25.9345 16.6557 26.0954C16.6557 26.2587 16.5871 26.3906 16.4702 26.4516ZM19.0502 28.6331H18.1324V24.8858H19.0498L19.0502 28.6331ZM29.7058 28.6331H28.4309L26.726 25.8205V28.6331H24.8938L24.544 27.7973H22.6752L22.3351 28.6336H21.2825C20.8452 28.6336 20.2919 28.5372 19.9782 28.2189C19.662 27.9005 19.4973 27.4696 19.4973 26.7882C19.4973 26.2323 19.5955 25.7241 19.9825 25.3226C20.2734 25.0236 20.7287 24.8858 21.3487 24.8858H22.2195V25.6887H21.3674C21.0389 25.6887 20.8537 25.7373 20.675 25.9106C20.5218 26.0685 20.4164 26.3672 20.4164 26.7597C20.4164 27.1607 20.4966 27.4509 20.6639 27.6399C20.8025 27.788 21.0538 27.8331 21.291 27.8331H21.6947L22.9627 24.8858H24.311L25.8338 28.4304V24.8858H27.2034L28.7846 27.4956V24.8858H29.7062L29.7058 28.6331ZM24.2376 27.0194L23.6151 25.5258L22.996 27.0194H24.2376ZM31.9982 34.6171C31.7794 34.9355 31.354 35.0967 30.7771 35.0967H29.0401V34.2929H30.7703C30.9418 34.2929 31.0621 34.2702 31.1343 34.1998C31.1681 34.1688 31.1951 34.131 31.2135 34.0889C31.2318 34.0468 31.2412 34.0013 31.241 33.9554C31.2427 33.9084 31.2338 33.8615 31.2147 33.8186C31.1957 33.7756 31.167 33.7376 31.1308 33.7075C31.0656 33.6503 30.9704 33.6242 30.8138 33.6242C29.969 33.5957 28.9152 33.6503 28.9152 32.4637C28.9152 31.9201 29.2621 31.348 30.2062 31.348H31.9982V30.6022H30.333C29.8308 30.6022 29.4656 30.7216 29.2074 30.9082V30.6022H26.7447C26.3509 30.6022 25.8888 30.6995 25.6699 30.9082V30.6022H21.2727V30.9082C20.9228 30.6568 20.3319 30.6022 20.0597 30.6022H17.1588V30.9082C16.8819 30.6415 16.2662 30.6022 15.8912 30.6022H12.6447L11.9023 31.4027L11.2064 30.6022H6.3569V35.8331H11.115L11.8805 35.0195L12.6015 35.8326L15.5345 35.8352V34.6047H15.8225C16.2116 34.6107 16.6707 34.5954 17.0756 34.4213V35.8326H19.4948V34.4691H19.6112C19.7606 34.4691 19.7752 34.475 19.7752 34.623V35.8323H27.1232C27.5899 35.8323 28.0776 35.7128 28.3477 35.4974V35.8323H30.6786C31.1636 35.8323 31.6373 35.764 31.9978 35.5907L31.9982 34.6171ZM17.4276 32.605C17.4276 33.646 16.6468 33.8614 15.8609 33.8614H14.7383V35.1189H12.9898L11.8822 33.8777L10.7311 35.1189H7.16756V31.3702H10.7857L11.8925 32.599L13.0368 31.3702H15.9112C16.6251 31.3702 17.4276 31.5669 17.4276 32.605ZM10.2754 34.3304H8.06356V33.5846H10.0386V32.8195H8.06313V32.1382H10.3189L11.3028 33.2305L10.2754 34.3304ZM13.8389 34.7596L12.4578 33.2322L13.8389 31.7542V34.7596ZM15.8817 33.0927H14.7191V32.1382H15.8924C16.2167 32.1382 16.4424 32.27 16.4424 32.5977C16.4424 32.922 16.2274 33.0927 15.8817 33.0927ZM21.9721 31.3702H24.9744V32.1454H22.868V32.8268H24.9229V33.5919H22.868V34.3376L24.9744 34.3411V35.1189H21.9721V31.3702ZM20.8179 33.3768C21.018 33.4502 21.1818 33.5821 21.2587 33.6913C21.3854 33.8747 21.4037 34.0454 21.4075 34.3756V35.1189H20.5043V34.6495C20.5043 34.4242 20.5261 34.0906 20.3592 33.9157C20.2274 33.7817 20.0273 33.7493 19.6987 33.7493H18.7375V35.1189H17.8337V31.3702H19.9104C20.3661 31.3702 20.6975 31.3903 20.9928 31.5468C21.277 31.7175 21.4554 31.9522 21.4554 32.3793C21.4554 32.9779 21.0543 33.2829 20.8179 33.3768ZM20.3093 32.9028C20.189 32.9741 20.0405 32.98 19.8652 32.98H18.772V32.1382H19.88C20.04 32.1382 20.2 32.1416 20.3093 32.2055C20.4257 32.2666 20.4954 32.3826 20.4954 32.5426C20.4954 32.7035 20.4257 32.8328 20.3093 32.9028ZM28.4305 33.1417C28.6054 33.3222 28.6993 33.55 28.6993 33.9357C28.6993 34.7421 28.1933 35.1184 27.2862 35.1184H25.5339V34.3147H27.2789C27.4495 34.3147 27.5707 34.2925 27.6467 34.222C27.6804 34.1908 27.7071 34.153 27.7254 34.1109C27.7437 34.0689 27.7531 34.0234 27.7529 33.9776C27.7539 33.9307 27.7444 33.8842 27.7254 33.8414C27.7065 33.7985 27.6782 33.7604 27.6429 33.7297C27.5746 33.6724 27.4794 33.6464 27.3229 33.6464C26.4815 33.6179 25.428 33.6721 25.428 32.4859C25.428 31.9423 25.7711 31.3702 26.714 31.3702H28.5175V32.1681H26.8672C26.7037 32.1681 26.5975 32.174 26.5066 32.2355C26.4085 32.2965 26.3718 32.3865 26.3718 32.5056C26.3704 32.5669 26.3888 32.6272 26.4241 32.6775C26.4596 32.7277 26.5102 32.7652 26.5685 32.7846C26.6637 32.8174 26.7656 32.8272 26.9183 32.8272L27.4031 32.8401C27.8911 32.852 28.2265 32.936 28.4305 33.1417ZM32 32.1382H30.3603C30.1968 32.1382 30.088 32.1442 29.9963 32.2055C29.9016 32.2666 29.8649 32.3566 29.8649 32.4757C29.8629 32.5373 29.881 32.5978 29.9164 32.6482C29.9519 32.6986 30.0029 32.736 30.0616 32.7547C30.1563 32.7875 30.2583 32.7973 30.4085 32.7973L30.8957 32.8102C31.3877 32.8221 31.7163 32.9066 31.9163 33.1119C31.953 33.1404 31.9748 33.1725 32 33.2048V32.1382Z" fill="white"/>
		<rect width="32" height="20" transform="translate(32)" fill="white"/>
		<g clip-path="url(#clip1_18_3015)">
			<path d="M50.688 5.14203H45.28V14.858H50.688V5.14203Z" fill="#FF5A00"/>
			<path d="M45.64 10C45.64 8.02601 46.568 6.27401 47.992 5.14201C46.944 4.31801 45.622 3.82001 44.18 3.82001C40.764 3.82001 38 6.58401 38 10C38 13.416 40.764 16.18 44.18 16.18C45.622 16.18 46.944 15.682 47.992 14.858C46.566 13.742 45.64 11.974 45.64 10Z" fill="#EB001B"/>
			<path d="M57.984 10C57.984 13.416 55.22 16.18 51.804 16.18C50.362 16.18 49.04 15.682 47.992 14.858C49.434 13.724 50.344 11.974 50.344 10C50.344 8.02601 49.416 6.27401 47.992 5.14201C49.038 4.31801 50.36 3.82001 51.802 3.82001C55.22 3.82001 57.984 6.60201 57.984 10Z" fill="#F79E1B"/>
		</g>
		<rect width="32" height="20" transform="translate(32 20)" fill="url(#paint0_linear_18_3015)"/>
		<path fill-rule="evenodd" clip-rule="evenodd" d="M42.7385 29.5768H48.4975C48.4462 28.3644 48.156 27.1142 47.2764 26.3113C46.2285 25.3548 44.3931 25 42.753 25C41.046 25 39.1581 25.3892 38.1048 26.4154C37.1963 27.2994 37 28.7217 37 29.9998C37 31.3383 37.3842 32.8955 38.3696 33.7924C39.4175 34.7467 41.1155 35 42.753 35C44.3437 35 46.0668 34.7139 47.1087 33.8079C48.1476 32.903 48.5066 31.3786 48.5066 29.9998V29.9933H42.7385V29.5768ZM48.8837 29.9935V34.7764H56.8952V34.77C58.0675 34.7078 59 33.6783 59 32.4143C59 31.1497 58.0675 30.0542 56.8952 29.9914V29.9935H48.8837ZM56.8041 25.2002C57.9466 25.2002 58.8535 26.1658 58.8535 27.3842C58.8535 28.5377 58.0206 29.4796 56.9612 29.5768H48.8837V25.1932H56.5513C56.5984 25.1876 56.6533 25.1915 56.7071 25.1955C56.7406 25.1979 56.7737 25.2002 56.8041 25.2002Z" fill="#FEFEFE"/>
	</g>
	<defs>
		<linearGradient id="paint0_linear_18_3015" x1="8.42953" y1="-3.23238" x2="1.44836" y2="19.9303" gradientUnits="userSpaceOnUse">
			<stop stop-color="#222E72"/>
			<stop offset="0.591647" stop-color="#40CBFF"/>
			<stop offset="1" stop-color="#3CB792"/>
		</linearGradient>
		<clipPath id="clip0_18_3015">
			<rect width="64" height="40" fill="white"/>
		</clipPath>
		<clipPath id="clip1_18_3015">
			<rect width="20" height="12.36" fill="white" transform="translate(38 3.82001)"/>
		</clipPath>
	</defs>
</svg>
