<svg width="65" height="41" viewBox="0 0 65 41" fill="none" xmlns="http://www.w3.org/2000/svg">
<g clip-path="url(#clip0)">
<path d="M62.6412 0.0581055H35.6136C34.7224 0.0581055 34 0.780533 34 1.67169V17.4445C34 18.3357 34.7224 19.0581 35.6136 19.0581H62.6412C63.5323 19.0581 64.2548 18.3357 64.2548 17.4445V1.67169C64.2548 0.780533 63.5323 0.0581055 62.6412 0.0581055Z" fill="white"/>
<path fill-rule="evenodd" clip-rule="evenodd" d="M59.339 12.9335V12.7108H59.2814L59.2144 12.8641L59.1474 12.7108H59.0893V12.9335H59.1305V12.7657L59.193 12.9105H59.2358L59.2983 12.7653V12.9335H59.3394H59.339ZM58.9711 12.9335V12.7487H59.0458V12.7112H58.8562V12.7487H58.9308V12.9335H58.9711ZM59.3511 9.6228C59.3511 13.069 56.5645 15.8625 53.1267 15.8625C49.6898 15.8625 46.9031 13.069 46.9031 9.6228C46.9031 6.17698 49.6898 3.38306 53.1271 3.38306C56.5645 3.38306 59.3511 6.17698 59.3511 9.6228Z" fill="#F79F1A"/>
<path fill-rule="evenodd" clip-rule="evenodd" d="M51.673 9.6228C51.673 13.069 48.8863 15.8625 45.449 15.8625C42.012 15.8625 39.225 13.069 39.225 9.6228C39.225 6.17698 42.0116 3.38306 45.4494 3.38306C48.8863 3.38306 51.673 6.17698 51.673 9.6228V9.6228Z" fill="#EA001B"/>
<path fill-rule="evenodd" clip-rule="evenodd" d="M49.2881 4.71106C48.5441 5.29512 47.9428 6.04088 47.5297 6.89181C47.1167 7.74274 46.9027 8.67653 46.9041 9.62242C46.9041 11.6164 47.8359 13.3926 49.2881 14.535C50.7404 13.3926 51.6722 11.6164 51.6722 9.62242C51.6736 8.67653 51.4596 7.74274 51.0466 6.89181C50.6335 6.04088 50.0322 5.29512 49.2881 4.71106Z" fill="#FF5F01"/>
</g>
<path d="M36 1.05811H62.2548V-0.941895H36V1.05811ZM63.2548 2.05811V17.0581H65.2548V2.05811H63.2548ZM62.2548 18.0581H36V20.0581H62.2548V18.0581ZM35 17.0581V2.05811H33V17.0581H35ZM36 18.0581C35.4477 18.0581 35 17.6104 35 17.0581H33C33 18.715 34.3431 20.0581 36 20.0581V18.0581ZM63.2548 17.0581C63.2548 17.6104 62.8071 18.0581 62.2548 18.0581V20.0581C63.9116 20.0581 65.2548 18.715 65.2548 17.0581H63.2548ZM62.2548 1.05811C62.8071 1.05811 63.2548 1.50582 63.2548 2.05811H65.2548C65.2548 0.40125 63.9116 -0.941895 62.2548 -0.941895V1.05811ZM36 -0.941895C34.3431 -0.941895 33 0.401252 33 2.05811H35C35 1.50582 35.4477 1.05811 36 1.05811V-0.941895Z" fill="#DDDDDD"/>
<g clip-path="url(#clip1)">
<path d="M28.6412 0.0581055H1.61359C0.722428 0.0581055 0 0.780533 0 1.67169V17.4445C0 18.3357 0.722428 19.0581 1.61359 19.0581H28.6412C29.5323 19.0581 30.2548 18.3357 30.2548 17.4445V1.67169C30.2548 0.780533 29.5323 0.0581055 28.6412 0.0581055Z" fill="white"/>
<path d="M13.5329 13.0041H11.6987L12.846 6.35376H14.6801L13.5329 13.0041Z" fill="#1A1F71"/>
<path d="M20.1816 6.51629C19.8198 6.38173 19.246 6.23315 18.5365 6.23315C16.7251 6.23315 15.4496 7.13868 15.4418 8.43332C15.4267 9.3885 16.355 9.91903 17.0493 10.2375C17.7589 10.563 18.0002 10.7754 18.0002 11.0655C17.9929 11.511 17.4268 11.7164 16.8987 11.7164C16.1664 11.7164 15.774 11.6105 15.1777 11.3626L14.9362 11.2564L14.6795 12.7492C15.1097 12.933 15.9023 13.096 16.7251 13.1031C18.6497 13.1031 19.9027 12.2116 19.9175 10.832C19.9248 10.0749 19.4347 9.49485 18.3779 9.02083C17.7364 8.71655 17.3435 8.51137 17.3435 8.20003C17.351 7.91699 17.6758 7.62709 18.4 7.62709C18.9963 7.61289 19.4344 7.74726 19.7663 7.88173L19.9322 7.95235L20.1816 6.51629V6.51629V6.51629Z" fill="#1A1F71"/>
<path fill-rule="evenodd" clip-rule="evenodd" d="M23.4652 6.35376H24.884L26.3637 13.004H24.6654C24.6654 13.004 24.4992 12.2399 24.4465 12.0064H22.0916C22.0235 12.1832 21.7066 13.004 21.7066 13.004H19.782L22.5065 6.90554C22.6953 6.47393 23.0277 6.35376 23.4652 6.35376ZM23.3522 8.7874C23.3522 8.7874 22.7709 10.2661 22.6199 10.6481H24.1444C24.069 10.3156 23.7217 8.72374 23.7217 8.72374L23.5935 8.15071C23.5395 8.29826 23.4614 8.50113 23.4088 8.63797C23.3731 8.73072 23.3491 8.79314 23.3522 8.7874Z" fill="#1A1F71"/>
<path fill-rule="evenodd" clip-rule="evenodd" d="M3.75132 6.35376H6.70238C7.10238 6.36777 7.42695 6.48804 7.53257 6.91278L8.1739 9.96827C8.17397 9.96849 8.17404 9.96871 8.1741 9.96892L8.37039 10.8887L10.1667 6.35376H12.1062L9.22315 12.997H7.28353L5.6487 7.21849C5.08464 6.90933 4.44089 6.66068 3.72113 6.48813L3.75132 6.35376Z" fill="#1A1F71"/>
</g>
<path d="M2 1.05811H28.2548V-0.941895H2V1.05811ZM29.2548 2.05811V17.0581H31.2548V2.05811H29.2548ZM28.2548 18.0581H2V20.0581H28.2548V18.0581ZM1 17.0581V2.05811H-1V17.0581H1ZM2 18.0581C1.44772 18.0581 1 17.6104 1 17.0581H-1C-1 18.715 0.343148 20.0581 2 20.0581V18.0581ZM29.2548 17.0581C29.2548 17.6104 28.8071 18.0581 28.2548 18.0581V20.0581C29.9116 20.0581 31.2548 18.715 31.2548 17.0581H29.2548ZM28.2548 1.05811C28.8071 1.05811 29.2548 1.50582 29.2548 2.05811H31.2548C31.2548 0.401251 29.9116 -0.941895 28.2548 -0.941895V1.05811ZM2 -0.941895C0.343146 -0.941895 -1 0.401252 -1 2.05811H1C1 1.50582 1.44772 1.05811 2 1.05811V-0.941895Z" fill="#DDDDDD"/>
<g clip-path="url(#clip2)">
<path d="M62.6412 21.0581H35.6136C34.7224 21.0581 34 21.7805 34 22.6717V38.4445C34 39.3357 34.7224 40.0581 35.6136 40.0581H62.6412C63.5323 40.0581 64.2548 39.3357 64.2548 38.4445V22.6717C64.2548 21.7805 63.5323 21.0581 62.6412 21.0581Z" fill="url(#paint0_linear)"/>
<path fill-rule="evenodd" clip-rule="evenodd" d="M44.2693 30.4136H49.3318C49.2867 29.3193 49.0317 28.1912 48.2584 27.4665C47.3373 26.6033 45.7238 26.2831 44.2822 26.2831C42.7816 26.2831 41.1221 26.6343 40.1961 27.5605C39.3976 28.3583 39.225 29.642 39.225 30.7953C39.225 32.0035 39.5627 33.4087 40.429 34.2182C41.3501 35.0794 42.8427 35.3081 44.2822 35.3081C45.6805 35.3081 47.1952 35.0499 48.111 34.2322C49.0242 33.4155 49.3398 32.0398 49.3398 30.7953V30.7895H44.2693V30.4136ZM49.6715 30.7897V35.1063H56.7139V35.1005C57.7444 35.0443 58.5642 34.1152 58.5642 32.9744C58.5642 31.8332 57.7444 30.8445 56.7139 30.7878V30.7897H49.6715ZM56.6337 26.4638C57.6381 26.4638 58.4353 27.3352 58.4353 28.4348C58.4353 29.4758 57.7031 30.326 56.7718 30.4136H49.6714V26.4575H56.4115C56.453 26.4524 56.5013 26.456 56.5485 26.4595C56.578 26.4616 56.607 26.4638 56.6337 26.4638Z" fill="#FEFEFE"/>
</g>
<path d="M36 22.0581H62.2548V20.0581H36V22.0581ZM63.2548 23.0581V38.0581H65.2548V23.0581H63.2548ZM62.2548 39.0581H36V41.0581H62.2548V39.0581ZM35 38.0581V23.0581H33V38.0581H35ZM36 39.0581C35.4477 39.0581 35 38.6104 35 38.0581H33C33 39.715 34.3431 41.0581 36 41.0581V39.0581ZM63.2548 38.0581C63.2548 38.6104 62.8071 39.0581 62.2548 39.0581V41.0581C63.9116 41.0581 65.2548 39.715 65.2548 38.0581H63.2548ZM62.2548 22.0581C62.8071 22.0581 63.2548 22.5058 63.2548 23.0581H65.2548C65.2548 21.4013 63.9116 20.0581 62.2548 20.0581V22.0581ZM36 20.0581C34.3431 20.0581 33 21.4013 33 23.0581H35C35 22.5058 35.4477 22.0581 36 22.0581V20.0581Z" fill="#DDDDDD"/>
<g clip-path="url(#clip3)">
<path d="M28.6412 21.0581H1.61359C0.722428 21.0581 0 21.7805 0 22.6717V38.4445C0 39.3357 0.722428 40.0581 1.61359 40.0581H28.6412C29.5323 40.0581 30.2548 39.3357 30.2548 38.4445V22.6717C30.2548 21.7805 29.5323 21.0581 28.6412 21.0581Z" fill="#2557D6"/>
<path fill-rule="evenodd" clip-rule="evenodd" d="M0 29.9808H1.45344L1.781 29.1938H2.51437L2.84112 29.9804H5.70081V29.379L5.95575 29.9833H7.44025L7.6956 29.3701V29.9808H14.8014L14.7978 28.6888H14.9354C15.0318 28.692 15.06 28.7009 15.06 28.8594V29.9808H18.735V29.6799C19.0315 29.838 19.4925 29.9808 20.0993 29.9808H21.6455L21.9763 29.1938H22.71L23.0336 29.9804H26.0131V29.2329L26.4641 29.9808H28.8522V25.0388H26.4891V25.6225L26.1583 25.0388H23.7335V25.6225L23.4297 25.0388H20.1541C19.6063 25.0388 19.1242 25.1151 18.735 25.3272V25.0388H16.4751V25.3272C16.2275 25.1086 15.8898 25.0388 15.5142 25.0388H7.25752L6.70325 26.3152L6.13446 25.0388H3.53376V25.6225L3.24815 25.0388H1.02987L0 27.3882V29.9808ZM9.17325 29.2676H8.3011L8.29788 26.4927L7.06469 29.268H6.318L5.08159 26.4902V29.2676H3.35142L3.02467 28.4774H1.25376L0.923779 29.268H0L1.52323 25.7246H2.78667L4.23325 29.0792V25.7246H5.62134L6.73471 28.128L7.75692 25.7246H9.17284V29.2676H9.17325V29.2676ZM2.73422 27.7424L2.15212 26.3301L1.57325 27.742H2.73422V27.7424ZM12.6433 29.268H9.80214V25.725H12.6433V26.4628H10.6525V27.1014H12.5957V27.8275H10.6525V28.5355H12.6433V29.268V29.268ZM16.6474 26.679C16.6474 27.2438 16.2682 27.5358 16.0479 27.6238C16.2339 27.694 16.3928 27.8186 16.4687 27.9223C16.5889 28.0982 16.6095 28.2555 16.6095 28.5718V29.268H15.7514L15.7482 28.8215C15.7482 28.6081 15.7688 28.3015 15.6139 28.1309C15.4896 28.0066 15.3004 27.9796 14.9943 27.9796H14.081V29.268H13.2306V25.725H15.1871C15.6215 25.725 15.9418 25.7363 16.217 25.8944C16.486 26.053 16.6474 26.2841 16.6474 26.679V26.679ZM15.5719 27.2055C15.4549 27.2761 15.317 27.2781 15.1512 27.2781H14.1181V26.4915H15.1653C15.3138 26.4915 15.4683 26.4979 15.5687 26.5552C15.6792 26.6068 15.7474 26.7165 15.7474 26.8686C15.7474 27.0231 15.6825 27.1478 15.5719 27.2055V27.2055ZM18.0113 29.268H17.1436V25.725H18.0109V29.268H18.0113ZM28.0857 29.268H26.8804L25.2684 26.6088V29.268H23.5362L23.2054 28.4778H21.4385L21.117 29.2684H20.1218C19.7084 29.2684 19.1852 29.1773 18.8887 28.8763C18.5897 28.5754 18.434 28.168 18.434 27.5237C18.434 26.9981 18.5268 26.5177 18.8927 26.1381C19.1678 25.8553 19.5982 25.725 20.1844 25.725H21.0077V26.4842H20.2021C19.8915 26.4842 19.7164 26.5302 19.5474 26.694C19.4026 26.8432 19.3029 27.1256 19.3029 27.4967C19.3029 27.8759 19.3788 28.1502 19.5369 28.3289C19.668 28.4689 19.9056 28.5117 20.1299 28.5117H20.5115L21.7104 25.725H22.9852L24.4249 29.0764V25.725H25.7198L27.2148 28.1926V25.725H28.0861V29.268H28.0857ZM22.9158 27.7424L22.3272 26.3301L21.7419 27.7424H22.9158ZM30.2532 34.9257C30.0462 35.2266 29.644 35.3791 29.0986 35.3791H27.4564V34.6191H29.0922C29.2543 34.6191 29.3681 34.5977 29.4363 34.5312C29.4683 34.5018 29.4938 34.4661 29.5112 34.4263C29.5286 34.3864 29.5374 34.3434 29.5371 34.3C29.5389 34.2556 29.5304 34.2113 29.5124 34.1707C29.4943 34.1301 29.4672 34.0941 29.4331 34.0656C29.3713 34.0116 29.2814 33.987 29.1333 33.987C28.3346 33.9599 27.3382 34.0116 27.3382 32.8897C27.3382 32.3758 27.6662 31.8348 28.5589 31.8348H30.2532V31.1297H28.6787C28.2039 31.1297 27.8586 31.2427 27.6145 31.4189V31.1297H25.2861C24.9138 31.1297 24.4769 31.2217 24.27 31.4189V31.1297H20.1126V31.4189C19.7818 31.1813 19.2231 31.1297 18.9657 31.1297H16.223V31.4189C15.9612 31.1668 15.3791 31.1297 15.0245 31.1297H11.9551L11.2532 31.8865L10.5952 31.1297H6.01021V36.0754H10.5089L11.2326 35.3061L11.9143 36.075L14.6873 36.0774V34.914H14.9596C15.3275 34.9196 15.7615 34.9051 16.1443 34.7405V36.075H18.4316V34.7857H18.5417C18.6829 34.7857 18.6966 34.7913 18.6966 34.9313V36.0745H25.6439C26.0853 36.0745 26.5463 35.9616 26.8017 35.7579V36.0745H29.0055C29.4641 36.0745 29.9119 36.01 30.2528 35.8462V34.9253L30.2532 34.9257ZM16.4772 33.0233C16.4772 34.0075 15.7389 34.2113 14.9959 34.2113H13.9345V35.4001H12.2814L11.2342 34.2266L10.1458 35.4001H6.77667V31.8558H10.1975L11.2439 33.0176L12.3258 31.8558H15.0435C15.7184 31.8558 16.4767 32.0418 16.4767 33.0233H16.4772ZM9.71501 34.6546H7.6238V33.9495H9.49112V33.2262H7.6234V32.5819H9.75616L10.6864 33.6146L9.71501 34.6546V34.6546ZM13.0842 35.0604L11.7784 33.6162L13.0842 32.2189V35.0604ZM15.0156 33.4843H13.9164V32.5819H15.0257C15.3323 32.5819 15.5457 32.7066 15.5457 33.0164C15.5457 33.323 15.3424 33.4843 15.0156 33.4843ZM20.7737 31.8558H23.6124V32.5888H21.6209V33.233H23.5636V33.9563H21.6209V34.6615L23.6124 34.6647V35.4001H20.7737V31.8558V31.8558ZM19.6825 33.753C19.8717 33.8224 20.0266 33.947 20.0993 34.0503C20.2191 34.2238 20.2364 34.3851 20.24 34.6974V35.4001H19.386V34.9563C19.386 34.7433 19.4066 34.4279 19.2489 34.2625C19.1242 34.1358 18.9351 34.1052 18.6244 34.1052H17.7156V35.4001H16.8612V31.8558H18.8245C19.2553 31.8558 19.5688 31.8748 19.8479 32.0228C20.1166 32.1842 20.2852 32.4061 20.2852 32.8099C20.2852 33.3758 19.906 33.6643 19.6825 33.753V33.753ZM19.2017 33.3048C19.0879 33.3722 18.9476 33.3778 18.7818 33.3778H17.7483V32.5819H18.7959C18.9472 32.5819 19.0984 32.5852 19.2017 32.6457C19.3118 32.7034 19.3776 32.8131 19.3776 32.9644C19.3776 33.1164 19.3118 33.2387 19.2017 33.3048V33.3048ZM26.88 33.5307C27.0453 33.7014 27.1341 33.9168 27.1341 34.2814C27.1341 35.0439 26.6557 35.3997 25.798 35.3997H24.1413V34.6397H25.7912C25.9525 34.6397 26.0671 34.6187 26.1389 34.5521C26.1707 34.5226 26.1961 34.4869 26.2134 34.4471C26.2306 34.4073 26.2395 34.3644 26.2394 34.321C26.2402 34.2767 26.2314 34.2327 26.2134 34.1922C26.1954 34.1517 26.1687 34.1157 26.1353 34.0866C26.0707 34.0326 25.9808 34.0079 25.8327 34.0079C25.0372 33.9809 24.0412 34.0322 24.0412 32.9107C24.0412 32.3968 24.3656 31.8558 25.2571 31.8558H26.9622V32.6102H25.4019C25.2474 32.6102 25.147 32.6158 25.061 32.6739C24.9683 32.7316 24.9336 32.8167 24.9336 32.9293C24.9323 32.9873 24.9496 33.0443 24.9831 33.0918C25.0166 33.1393 25.0644 33.1748 25.1195 33.1931C25.2095 33.2241 25.3059 33.2334 25.4503 33.2334L25.9086 33.2455C26.3701 33.2568 26.6871 33.3363 26.88 33.5307V33.5307ZM30.2548 32.5819H28.7045C28.55 32.5819 28.4472 32.5876 28.3604 32.6457C28.2709 32.7034 28.2362 32.7885 28.2362 32.901C28.2342 32.9593 28.2513 33.0165 28.2849 33.0642C28.3184 33.1118 28.3666 33.1471 28.4221 33.1648C28.5117 33.1959 28.6081 33.2052 28.7501 33.2052L29.2108 33.2173C29.6759 33.2286 29.9865 33.3085 30.1757 33.5025C30.2104 33.5295 30.231 33.5598 30.2548 33.5904V32.5819Z" fill="white"/>
</g>
<path d="M2 22.0581H28.2548V20.0581H2V22.0581ZM29.2548 23.0581V38.0581H31.2548V23.0581H29.2548ZM28.2548 39.0581H2V41.0581H28.2548V39.0581ZM1 38.0581V23.0581H-1V38.0581H1ZM2 39.0581C1.44772 39.0581 1 38.6104 1 38.0581H-1C-1 39.715 0.343148 41.0581 2 41.0581V39.0581ZM29.2548 38.0581C29.2548 38.6104 28.8071 39.0581 28.2548 39.0581V41.0581C29.9116 41.0581 31.2548 39.715 31.2548 38.0581H29.2548ZM28.2548 22.0581C28.8071 22.0581 29.2548 22.5058 29.2548 23.0581H31.2548C31.2548 21.4013 29.9116 20.0581 28.2548 20.0581V22.0581ZM2 20.0581C0.343146 20.0581 -1 21.4013 -1 23.0581H1C1 22.5058 1.44772 22.0581 2 22.0581V20.0581Z" fill="#DDDDDD"/>
<defs>
<linearGradient id="paint0_linear" x1="42.2063" y1="18.6521" x2="36.0081" y2="39.5476" gradientUnits="userSpaceOnUse">
<stop stop-color="#222E72"/>
<stop offset="0.591647" stop-color="#40CBFF"/>
<stop offset="1" stop-color="#3CB792"/>
</linearGradient>
<clipPath id="clip0">
<path d="M34 2.05811C34 0.953536 34.8954 0.0581055 36 0.0581055H62.2548C63.3593 0.0581055 64.2548 0.953536 64.2548 2.05811V17.0581C64.2548 18.1627 63.3593 19.0581 62.2548 19.0581H36C34.8954 19.0581 34 18.1627 34 17.0581V2.05811Z" fill="white"/>
</clipPath>
<clipPath id="clip1">
<path d="M0 2.05811C0 0.953536 0.895431 0.0581055 2 0.0581055H28.2548C29.3593 0.0581055 30.2548 0.953536 30.2548 2.05811V17.0581C30.2548 18.1627 29.3593 19.0581 28.2548 19.0581H2C0.895432 19.0581 0 18.1627 0 17.0581V2.05811Z" fill="white"/>
</clipPath>
<clipPath id="clip2">
<path d="M34 23.0581C34 21.9535 34.8954 21.0581 36 21.0581H62.2548C63.3593 21.0581 64.2548 21.9535 64.2548 23.0581V38.0581C64.2548 39.1627 63.3593 40.0581 62.2548 40.0581H36C34.8954 40.0581 34 39.1627 34 38.0581V23.0581Z" fill="white"/>
</clipPath>
<clipPath id="clip3">
<path d="M0 23.0581C0 21.9535 0.895431 21.0581 2 21.0581H28.2548C29.3593 21.0581 30.2548 21.9535 30.2548 23.0581V38.0581C30.2548 39.1627 29.3593 40.0581 28.2548 40.0581H2C0.895432 40.0581 0 39.1627 0 38.0581V23.0581Z" fill="white"/>
</clipPath>
</defs>
</svg>
