<svg width="64" height="40" viewBox="0 0 64 40" fill="none" xmlns="http://www.w3.org/2000/svg">
	<rect x="34.2402" y="0.5" width="29.256" height="17.91" rx="1.5" fill="white"/>
	<path fill-rule="evenodd" clip-rule="evenodd" d="M58.1662 12.5443V12.3437H58.1142L58.0539 12.4818L57.9936 12.3437H57.9412V12.5443H57.9783V12.3931L58.0346 12.5236H58.0732L58.1295 12.3927V12.5443H58.1666H58.1662ZM57.8348 12.5443V12.3778H57.902V12.344H57.7312V12.3778H57.7984V12.5443H57.8348ZM58.1771 9.56148C58.1771 12.6664 55.6664 15.1833 52.5692 15.1833C49.4726 15.1833 46.9619 12.6664 46.9619 9.56148C46.9619 6.45693 49.4726 3.9397 52.5695 3.9397C55.6664 3.9397 58.1771 6.45693 58.1771 9.56148Z" fill="#F79F1A"/>
	<path fill-rule="evenodd" clip-rule="evenodd" d="M51.2592 9.56148C51.2592 12.6664 48.7485 15.1833 45.6516 15.1833C42.555 15.1833 40.0439 12.6664 40.0439 9.56148C40.0439 6.45693 42.5546 3.9397 45.6519 3.9397C48.7485 3.9397 51.2592 6.45693 51.2592 9.56148V9.56148Z" fill="#EA001B"/>
	<path fill-rule="evenodd" clip-rule="evenodd" d="M49.1109 5.13574C48.4405 5.66196 47.8987 6.33386 47.5266 7.10052C47.1544 7.86718 46.9617 8.70849 46.9629 9.5607C46.9629 11.3572 47.8025 12.9575 49.1109 13.9868C50.4193 12.9575 51.2588 11.3572 51.2588 9.5607C51.2601 8.70849 51.0673 7.86718 50.6951 7.10052C50.323 6.33386 49.7812 5.66196 49.1109 5.13574Z" fill="#FF5F01"/>
	<rect x="34.2402" y="0.5" width="29.256" height="17.91" rx="1.5" stroke="#DDDDDD"/>
	<rect x="34.2402" y="21.5901" width="29.256" height="17.91" rx="1.5" fill="url(#paint0_linear_1008_45704)"/>
	<path fill-rule="evenodd" clip-rule="evenodd" d="M43.7525 30.145H49.0562C49.0089 28.9986 48.7417 27.8166 47.9316 27.0574C46.9666 26.1531 45.2763 25.8176 43.7659 25.8176C42.1939 25.8176 40.4553 26.1856 39.4852 27.1559C38.6486 27.9917 38.4678 29.3365 38.4678 30.5449C38.4678 31.8105 38.8216 33.2828 39.7291 34.1308C40.6941 35.0331 42.2579 35.2726 43.7659 35.2726C45.2308 35.2726 46.8177 35.0021 47.7772 34.1455C48.7339 33.2899 49.0645 31.8486 49.0645 30.5449V30.5388H43.7525V30.145ZM49.4118 30.539V35.0612H56.7898V35.0551C57.8694 34.9963 58.7282 34.0229 58.7282 32.8278C58.7282 31.6321 57.8694 30.5963 56.7898 30.537V30.539H49.4118ZM56.7059 26.0069C57.7581 26.0069 58.5933 26.9199 58.5933 28.0719C58.5933 29.1625 57.8262 30.0531 56.8506 30.145H49.4118V26.0003H56.4731C56.5165 25.995 56.5671 25.9987 56.6166 26.0024C56.6475 26.0047 56.6779 26.0069 56.7059 26.0069Z" fill="#FEFEFE"/>
	<rect x="34.2402" y="21.5901" width="29.256" height="17.91" rx="1.5" stroke="#DDDDDD"/>
	<rect x="0.5" y="0.5" width="29.256" height="17.91" rx="1.5" fill="white"/>
	<path d="M13.7298 12.5156H12.0469L13.0995 6.41382H14.7823L13.7298 12.5156Z" fill="#1A1F71"/>
	<path d="M19.8305 6.563C19.4986 6.43954 18.9721 6.30322 18.3211 6.30322C16.6591 6.30322 15.4888 7.13406 15.4816 8.32191C15.4678 9.1983 16.3196 9.68507 16.9566 9.97729C17.6077 10.2759 17.829 10.4708 17.829 10.737C17.8224 11.1457 17.3029 11.3342 16.8183 11.3342C16.1464 11.3342 15.7864 11.237 15.2393 11.0096L15.0177 10.9121L14.7822 12.2818C15.1769 12.4504 15.9041 12.6 16.6591 12.6066C18.425 12.6066 19.5746 11.7886 19.5882 10.5227C19.5949 9.82812 19.1452 9.29588 18.1756 8.86096C17.587 8.58177 17.2265 8.39352 17.2265 8.10786C17.2334 7.84817 17.5314 7.58218 18.1958 7.58218C18.7429 7.56915 19.1449 7.69244 19.4494 7.81582L19.6016 7.88061L19.8305 6.563V6.563V6.563Z" fill="#1A1F71"/>
	<path fill-rule="evenodd" clip-rule="evenodd" d="M22.8432 6.41382H24.145L25.5026 12.5155H23.9444C23.9444 12.5155 23.7919 11.8144 23.7436 11.6002H21.5829L21.2297 12.5155H19.4639L21.9636 6.92009C22.1368 6.52408 22.4418 6.41382 22.8432 6.41382ZM22.7393 8.64705C22.7393 8.64705 22.206 10.0037 22.0674 10.3543H23.4663C23.3971 10.0492 23.0784 8.58864 23.0784 8.58864L22.9608 8.06288C22.9112 8.19826 22.8396 8.3844 22.7913 8.50995C22.7585 8.59505 22.7365 8.65232 22.7393 8.64705Z" fill="#1A1F71"/>
	<path fill-rule="evenodd" clip-rule="evenodd" d="M4.75524 6.41382H7.46288C7.82989 6.42667 8.12769 6.53702 8.2246 6.92673L8.81318 9.73095L8.81321 9.73105L8.99328 10.5748L10.6414 6.41398H12.421L9.7757 12.5093H7.99607L6.49603 7.20718C5.97852 6.92354 5.38789 6.69542 4.72754 6.53711L4.75524 6.41382Z" fill="#1A1F71"/>
	<rect x="0.5" y="0.5" width="29.256" height="17.91" rx="1.5" stroke="#DDDDDD"/>
	<rect x="0.5" y="21.5901" width="29.256" height="17.91" rx="1.5" fill="#2557D6"/>
	<path fill-rule="evenodd" clip-rule="evenodd" d="M0.788086 29.7146H2.16588L2.47639 28.9685H3.1716L3.48135 29.7142H6.1922V29.1441L6.43387 29.7169H7.84111L8.08317 29.1356V29.7146H14.8192L14.8157 28.4898H14.9461C15.0375 28.4928 15.0643 28.5012 15.0643 28.6515V29.7146H18.548V29.4293C18.8291 29.5792 19.2661 29.7146 19.8413 29.7146H21.307L21.6206 28.9685H22.3162L22.6229 29.7142H25.4473V29.0056L25.8748 29.7146H28.1386V25.0298H25.8985V25.5831L25.585 25.0298H23.2863V25.5831L22.9984 25.0298H19.8933C19.374 25.0298 18.917 25.1021 18.548 25.3032V25.0298H16.4058V25.3032C16.171 25.0959 15.8509 25.0298 15.4949 25.0298H7.66789L7.14246 26.2397L6.60328 25.0298H4.13793V25.5831L3.86719 25.0298H1.76436L0.788086 27.2569V29.7146ZM9.48391 29.0385H8.65716L8.6541 26.408L7.4851 29.0389H6.77727L5.60521 26.4057V29.0385H3.96508L3.65534 28.2894H1.97659L1.66379 29.0389H0.788086L2.23204 25.6799H3.42972L4.80102 28.8599V25.6799H6.11686L7.17229 27.9582L8.1413 25.6799H9.48353V29.0385H9.48391V29.0385ZM3.38001 27.5926L2.8282 26.2539L2.27945 27.5923H3.38001V27.5926ZM12.7733 29.0389H10.0801V25.6803H12.7733V26.3797H10.8862V26.985H12.7282V27.6733H10.8862V28.3444H12.7733V29.0389V29.0389ZM16.5691 26.5846C16.5691 27.12 16.2096 27.3969 16.0008 27.4802C16.1771 27.5468 16.3278 27.6649 16.3997 27.7632C16.5136 27.9299 16.5331 28.0791 16.5331 28.3789V29.0389H15.7197L15.7167 28.6156C15.7167 28.4133 15.7362 28.1227 15.5893 27.9609C15.4716 27.8431 15.2922 27.8175 15.002 27.8175H14.1362V29.0389H13.3301V25.6803H15.1848C15.5966 25.6803 15.9002 25.691 16.161 25.8409C16.4161 25.9911 16.5691 26.2103 16.5691 26.5846V26.5846ZM15.5496 27.0837C15.4387 27.1506 15.3079 27.1525 15.1507 27.1525H14.1714V26.4068H15.1641C15.3048 26.4068 15.4513 26.4129 15.5465 26.4672C15.6513 26.5162 15.7159 26.6202 15.7159 26.7644C15.7159 26.9108 15.6544 27.029 15.5496 27.0837V27.0837ZM17.862 29.0389H17.0394V25.6803H17.8616V29.0389H17.862ZM27.4121 29.0389H26.2695L24.7414 26.5181V29.0389H23.0993L22.7858 28.2898H21.1109L20.8061 29.0393H19.8627C19.4707 29.0393 18.9748 28.9529 18.6937 28.6676C18.4103 28.3823 18.2627 27.9961 18.2627 27.3854C18.2627 26.8871 18.3507 26.4317 18.6975 26.0718C18.9583 25.8038 19.3663 25.6803 19.922 25.6803H20.7025V26.3999H19.9388C19.6443 26.3999 19.4784 26.4435 19.3182 26.5988C19.1809 26.7403 19.0864 27.008 19.0864 27.3598C19.0864 27.7192 19.1583 27.9793 19.3082 28.1487C19.4325 28.2814 19.6577 28.3219 19.8703 28.3219H20.2321L21.3686 25.6803H22.577L23.9418 28.8572V25.6803H25.1693L26.5865 28.0194V25.6803H27.4125V29.0389H27.4121ZM22.5112 27.5926L21.9533 26.2539L21.3984 27.5926H22.5112ZM29.4667 34.4021C29.2706 34.6874 28.8893 34.8319 28.3723 34.8319H26.8155V34.1115H28.3662C28.5199 34.1115 28.6277 34.0912 28.6924 34.0281C28.7227 34.0003 28.7469 33.9664 28.7634 33.9287C28.7798 33.8909 28.7882 33.8502 28.788 33.809C28.7896 33.7669 28.7816 33.7249 28.7645 33.6864C28.7474 33.6479 28.7217 33.6138 28.6893 33.5868C28.6308 33.5356 28.5455 33.5122 28.4052 33.5122C27.648 33.4866 26.7035 33.5356 26.7035 32.4721C26.7035 31.9849 27.0144 31.4721 27.8606 31.4721H29.4667V30.8037H27.9742C27.5241 30.8037 27.1968 30.9107 26.9654 31.0779V30.8037H24.7582C24.4053 30.8037 23.9911 30.8909 23.7949 31.0779V30.8037H19.8539V31.0779C19.5403 30.8526 19.0107 30.8037 18.7667 30.8037H16.1668V31.0779C15.9186 30.8389 15.3668 30.8037 15.0307 30.8037H12.121L11.4556 31.5211L10.8319 30.8037H6.4855V35.4919H10.75L11.4361 34.7627L12.0823 35.4915L14.711 35.4938V34.391H14.9691C15.3178 34.3963 15.7293 34.3826 16.0922 34.2266V35.4915H18.2604V34.2694H18.3648C18.4987 34.2694 18.5117 34.2747 18.5117 34.4074V35.4912H25.0974C25.5157 35.4912 25.9528 35.3841 26.1949 35.191V35.4912H28.284C28.7187 35.4912 29.1432 35.43 29.4663 35.2747V34.4017L29.4667 34.4021ZM16.4077 32.5987C16.4077 33.5317 15.7079 33.7248 15.0035 33.7248H13.9974V34.8518H12.4303L11.4376 33.7394L10.4059 34.8518H7.21206V31.492H10.4548L11.4468 32.5933L12.4724 31.492H15.0486C15.6884 31.492 16.4073 31.6683 16.4073 32.5987H16.4077ZM9.99748 34.1451H8.01511V33.4767H9.78525V32.791H8.01472V32.1803H10.0365L10.9183 33.1593L9.99748 34.1451V34.1451ZM13.1913 34.5298L11.9535 33.1608L13.1913 31.8362V34.5298ZM15.0222 33.0358H13.9802V32.1803H15.0318C15.3224 32.1803 15.5247 32.2985 15.5247 32.5922C15.5247 32.8828 15.332 33.0358 15.0222 33.0358ZM20.4807 31.492H23.1716V32.1868H21.2837V32.7975H23.1254V33.4832H21.2837V34.1516L23.1716 34.1547V34.8518H20.4807V31.492V31.492ZM19.4463 33.2904C19.6256 33.3562 19.7724 33.4744 19.8413 33.5723C19.9549 33.7367 19.9713 33.8897 19.9747 34.1856V34.8518H19.1652V34.4311C19.1652 34.2292 19.1847 33.9302 19.0352 33.7734C18.917 33.6533 18.7377 33.6243 18.4432 33.6243H17.5817V34.8518H16.7717V31.492H18.6329C19.0413 31.492 19.3384 31.51 19.603 31.6503C19.8577 31.8033 20.0176 32.0136 20.0176 32.3964C20.0176 32.9329 19.6581 33.2063 19.4463 33.2904V33.2904ZM18.9904 32.8656C18.8826 32.9295 18.7495 32.9348 18.5924 32.9348H17.6126V32.1803H18.6057C18.7491 32.1803 18.8925 32.1834 18.9904 32.2407C19.0948 32.2954 19.1572 32.3994 19.1572 32.5428C19.1572 32.687 19.0948 32.8029 18.9904 32.8656V32.8656ZM26.2691 33.0797C26.4259 33.2415 26.51 33.4457 26.51 33.7914C26.51 34.5141 26.0565 34.8514 25.2435 34.8514H23.673V34.131H25.237C25.3899 34.131 25.4985 34.1111 25.5666 34.048C25.5968 34.02 25.6208 33.9861 25.6372 33.9484C25.6536 33.9107 25.662 33.87 25.6618 33.8289C25.6627 33.7869 25.6542 33.7452 25.6372 33.7068C25.6202 33.6684 25.5949 33.6342 25.5632 33.6067C25.502 33.5554 25.4167 33.5321 25.2764 33.5321C24.5223 33.5065 23.5781 33.5551 23.5781 32.492C23.5781 32.0048 23.8856 31.492 24.7307 31.492H26.3471V32.2071H24.868C24.7215 32.2071 24.6263 32.2124 24.5448 32.2675C24.4569 32.3222 24.424 32.4029 24.424 32.5096C24.4227 32.5646 24.4392 32.6186 24.4709 32.6637C24.5027 32.7087 24.548 32.7423 24.6003 32.7597C24.6856 32.7891 24.7769 32.7979 24.9138 32.7979L25.3483 32.8094C25.7857 32.8201 26.0863 32.8954 26.2691 33.0797V33.0797ZM29.4683 32.1803H27.9987C27.8522 32.1803 27.7547 32.1857 27.6725 32.2407C27.5876 32.2954 27.5547 32.3761 27.5547 32.4828C27.5529 32.538 27.5691 32.5923 27.6009 32.6374C27.6327 32.6826 27.6784 32.7161 27.731 32.7329C27.8159 32.7623 27.9073 32.7711 28.0419 32.7711L28.4786 32.7826C28.9195 32.7933 29.214 32.869 29.3933 33.053C29.4262 33.0786 29.4457 33.1073 29.4683 33.1363V32.1803Z" fill="white"/>
	<rect x="0.5" y="21.5901" width="29.256" height="17.91" rx="1.5" stroke="#DDDDDD"/>
	<defs>
		<linearGradient id="paint0_linear_1008_45704" x1="41.9469" y1="18.6955" x2="35.8027" y2="39.508" gradientUnits="userSpaceOnUse">
			<stop stop-color="#222E72"/>
			<stop offset="0.591647" stop-color="#40CBFF"/>
			<stop offset="1" stop-color="#3CB792"/>
		</linearGradient>
	</defs>
</svg>
