<svg width="66" height="42" viewBox="0 0 66 42" fill="none" xmlns="http://www.w3.org/2000/svg">
<g clip-path="url(#clip0)">
<path d="M63.1338 1H37.5287C36.6844 1 36 1.68441 36 2.52866V17.4713C36 18.3156 36.6844 19 37.5287 19H63.1338C63.978 19 64.6624 18.3156 64.6624 17.4713V2.52866C64.6624 1.68441 63.978 1 63.1338 1Z" fill="white"/>
<path fill-rule="evenodd" clip-rule="evenodd" d="M60.0054 13.1978V12.9868H59.9508L59.8874 13.1321L59.8239 12.9868H59.7689V13.1978H59.8079V13.0388L59.8671 13.176H59.9076L59.9668 13.0384V13.1978H60.0058H60.0054ZM59.6569 13.1978V13.0228H59.7276V12.9872H59.548V13.0228H59.6187V13.1978H59.6569ZM60.0169 10.0614C60.0169 13.3262 57.3769 15.9727 54.1201 15.9727C50.8641 15.9727 48.2241 13.3262 48.2241 10.0614C48.2241 6.7969 50.8641 4.15002 54.1205 4.15002C57.3769 4.15002 60.0169 6.7969 60.0169 10.0614Z" fill="#F79F1A"/>
<path fill-rule="evenodd" clip-rule="evenodd" d="M52.7429 10.0614C52.7429 13.3262 50.1029 15.9727 46.8464 15.9727C43.5904 15.9727 40.95 13.3262 40.95 10.0614C40.95 6.7969 43.59 4.15002 46.8468 4.15002C50.1029 4.15002 52.7429 6.7969 52.7429 10.0614Z" fill="#EA001B"/>
<path fill-rule="evenodd" clip-rule="evenodd" d="M50.4835 5.40808C49.7787 5.9614 49.209 6.66791 48.8177 7.47405C48.4263 8.2802 48.2236 9.16485 48.2249 10.061C48.2249 11.95 49.1077 13.6327 50.4835 14.715C51.8593 13.6327 52.7421 11.95 52.7421 10.061C52.7434 9.16485 52.5407 8.2802 52.1494 7.47405C51.7581 6.66791 51.1884 5.9614 50.4835 5.40808Z" fill="#FF5F01"/>
</g>
<path d="M38 2H62.6624V0H38V2ZM63.6624 3V17H65.6624V3H63.6624ZM62.6624 18H38V20H62.6624V18ZM37 17V3H35V17H37ZM38 18C37.4477 18 37 17.5523 37 17H35C35 18.6569 36.3431 20 38 20V18ZM63.6624 17C63.6624 17.5523 63.2147 18 62.6624 18V20C64.3193 20 65.6624 18.6569 65.6624 17H63.6624ZM62.6624 2C63.2147 2 63.6624 2.44772 63.6624 3H65.6624C65.6624 1.34315 64.3193 0 62.6624 0V2ZM38 0C36.3431 0 35 1.34315 35 3H37C37 2.44772 37.4477 2 38 2V0Z" fill="#DDDDDD"/>
<g clip-path="url(#clip1)">
<path d="M28.1338 1.05811H2.52866C1.68441 1.05811 1 1.74251 1 2.58677V17.5294C1 18.3737 1.68441 19.0581 2.52866 19.0581H28.1338C28.978 19.0581 29.6624 18.3737 29.6624 17.5294V2.58677C29.6624 1.74251 28.978 1.05811 28.1338 1.05811Z" fill="white"/>
<path d="M13.8207 13.3227H12.083L13.1699 7.02234H14.9074L13.8207 13.3227Z" fill="#1A1F71"/>
<path d="M20.1195 7.17631C19.7767 7.04883 19.2331 6.90808 18.5609 6.90808C16.8449 6.90808 15.6365 7.76595 15.6291 8.99245C15.6148 9.89736 16.4943 10.4 17.152 10.7017C17.8243 11.01 18.0528 11.2112 18.0528 11.4861C18.046 11.9081 17.5096 12.1027 17.0093 12.1027C16.3155 12.1027 15.9438 12.0024 15.3789 11.7676L15.1501 11.6669L14.9069 13.0812C15.3145 13.2553 16.0653 13.4097 16.8449 13.4165C18.6682 13.4165 19.8552 12.5719 19.8693 11.2649C19.8762 10.5477 19.4118 9.99811 18.4107 9.54904C17.8029 9.26077 17.4307 9.06639 17.4307 8.77143C17.4378 8.50329 17.7455 8.22865 18.4316 8.22865C18.9965 8.2152 19.4115 8.3425 19.726 8.46989L19.8831 8.53679L20.1195 7.17631Z" fill="#1A1F71"/>
<path fill-rule="evenodd" clip-rule="evenodd" d="M23.2302 7.02234H24.5743L25.9762 13.3226H24.3672C24.3672 13.3226 24.2098 12.5987 24.1599 12.3775H21.9289L21.5642 13.3226H19.7409L22.322 7.54508C22.5008 7.13619 22.8157 7.02234 23.2302 7.02234ZM23.1231 9.32789C23.1231 9.32789 22.5725 10.7287 22.4294 11.0907H23.8737C23.8022 10.7757 23.4732 9.26758 23.4732 9.26758L23.3517 8.72471C23.3006 8.8645 23.2266 9.05669 23.1768 9.18632C23.1429 9.2742 23.1202 9.33333 23.1231 9.32789Z" fill="#1A1F71"/>
<path fill-rule="evenodd" clip-rule="evenodd" d="M4.55387 7.02234H7.34961C7.72856 7.03561 8.03605 7.14955 8.13611 7.55194L8.74368 10.4466C8.74374 10.4468 8.74381 10.447 8.74388 10.4472L8.92983 11.3186L10.6316 7.02234H12.469L9.73771 13.316H7.90017L6.35139 7.84156C5.81702 7.54867 5.20714 7.31311 4.52527 7.14964L4.55387 7.02234Z" fill="#1A1F71"/>
</g>
<path d="M3 2.05811H27.6624V0.0581055H3V2.05811ZM28.6624 3.05811V17.0581H30.6624V3.05811H28.6624ZM27.6624 18.0581H3V20.0581H27.6624V18.0581ZM2 17.0581V3.05811H0V17.0581H2ZM3 18.0581C2.44772 18.0581 2 17.6104 2 17.0581H0C0 18.715 1.34315 20.0581 3 20.0581V18.0581ZM28.6624 17.0581C28.6624 17.6104 28.2147 18.0581 27.6624 18.0581V20.0581C29.3193 20.0581 30.6624 18.715 30.6624 17.0581H28.6624ZM27.6624 2.05811C28.2147 2.05811 28.6624 2.50582 28.6624 3.05811H30.6624C30.6624 1.40125 29.3193 0.0581055 27.6624 0.0581055V2.05811ZM3 0.0581055C1.34315 0.0581055 0 1.40125 0 3.05811H2C2 2.50582 2.44772 2.05811 3 2.05811V0.0581055Z" fill="#DDDDDD"/>
<g clip-path="url(#clip2)">
<path d="M63.1338 23H37.5287C36.6844 23 36 23.6844 36 24.5287V39.4713C36 40.3156 36.6844 41 37.5287 41H63.1338C63.978 41 64.6624 40.3156 64.6624 39.4713V24.5287C64.6624 23.6844 63.978 23 63.1338 23Z" fill="url(#paint0_linear)"/>
<path fill-rule="evenodd" clip-rule="evenodd" d="M45.7289 31.8631H50.5249C50.4821 30.8264 50.2406 29.7576 49.508 29.0711C48.6353 28.2533 47.1068 27.95 45.741 27.95C44.3194 27.95 42.7473 28.2827 41.8701 29.1601C41.1136 29.9159 40.95 31.1321 40.95 32.2247C40.95 33.3692 41.27 34.7006 42.0906 35.4674C42.9633 36.2833 44.3773 36.5 45.741 36.5C47.0657 36.5 48.5007 36.2554 49.3684 35.4807C50.2335 34.707 50.5325 33.4037 50.5325 32.2247V32.2192H45.7289V31.8631ZM50.8467 32.2194V36.3088H57.5185V36.3033C58.4947 36.25 59.2714 35.3699 59.2714 34.2891C59.2714 33.2079 58.4947 32.2713 57.5185 32.2176V32.2194H50.8467ZM57.4425 28.1211C58.394 28.1211 59.1492 28.9467 59.1492 29.9884C59.1492 30.9746 58.4557 31.78 57.5733 31.8631H50.8466V28.1152H57.232C57.2713 28.1104 57.3171 28.1137 57.3618 28.117C57.3897 28.1191 57.4172 28.1211 57.4425 28.1211Z" fill="#FEFEFE"/>
</g>
<path d="M38 24H62.6624V22H38V24ZM63.6624 25V39H65.6624V25H63.6624ZM62.6624 40H38V42H62.6624V40ZM37 39V25H35V39H37ZM38 40C37.4477 40 37 39.5523 37 39H35C35 40.6569 36.3431 42 38 42V40ZM63.6624 39C63.6624 39.5523 63.2147 40 62.6624 40V42C64.3193 42 65.6624 40.6569 65.6624 39H63.6624ZM62.6624 24C63.2147 24 63.6624 24.4477 63.6624 25H65.6624C65.6624 23.3431 64.3193 22 62.6624 22V24ZM38 22C36.3431 22 35 23.3431 35 25H37C37 24.4477 37.4477 24 38 24V22Z" fill="#DDDDDD"/>
<g clip-path="url(#clip3)">
<path d="M28.1338 23H2.52866C1.68441 23 1 23.6844 1 24.5287V39.4713C1 40.3156 1.68441 41 2.52866 41H28.1338C28.978 41 29.6624 40.3156 29.6624 39.4713V24.5287C29.6624 23.6844 28.978 23 28.1338 23Z" fill="#2557D6"/>
<path fill-rule="evenodd" clip-rule="evenodd" d="M1 31.4532H2.37694L2.68726 30.7075H3.38204L3.69159 31.4528H6.40077V30.883L6.64229 31.4554H8.04866L8.29057 30.8746V31.4532H15.0224L15.019 30.2291H15.1493C15.2406 30.2321 15.2674 30.2405 15.2674 30.3907V31.4532H18.7489V31.1681C19.0298 31.3179 19.4666 31.4532 20.0414 31.4532H21.5062L21.8196 30.7075H22.5148L22.8213 31.4528H25.644V30.7446L26.0712 31.4532H28.3336V26.7712H26.0949V27.3242L25.7815 26.7712H23.4843V27.3242L23.1966 26.7712H20.0934C19.5744 26.7712 19.1177 26.8435 18.7489 27.0445V26.7712H16.608V27.0445C16.3734 26.8374 16.0535 26.7712 15.6977 26.7712H7.87554L7.35045 27.9804L6.81159 26.7712H4.34777V27.3242L4.0772 26.7712H1.97567L1 28.997V31.4532ZM9.69045 30.7775H8.8642L8.86115 28.1486L7.69287 30.7779H6.98548L5.81414 28.1463V30.7775H4.17503L3.86548 30.0288H2.18777L1.87516 30.7779H1L2.44306 27.4209H3.64L5.01045 30.599V27.4209H6.32548L7.38026 29.6979L8.34866 27.4209H9.69006V30.7775H9.69045ZM3.59032 29.3325L3.03885 27.9946L2.49045 29.3321H3.59032V29.3325ZM12.9778 30.7779H10.2862V27.4213H12.9778V28.1203H11.0918V28.7253H12.9327V29.4132H11.0918V30.0839H12.9778V30.7779ZM16.7712 28.3251C16.7712 28.8602 16.412 29.1368 16.2033 29.2202C16.3795 29.2867 16.5301 29.4047 16.6019 29.503C16.7158 29.6696 16.7353 29.8186 16.7353 30.1182V30.7779H15.9224L15.9194 30.3548C15.9194 30.1526 15.9389 29.8622 15.7921 29.7005C15.6744 29.5828 15.4952 29.5572 15.2051 29.5572H14.3399V30.7779H13.5343V27.4213H15.3878C15.7994 27.4213 16.1028 27.432 16.3634 27.5818C16.6183 27.732 16.7712 27.951 16.7712 28.3251ZM15.7524 28.8239C15.6415 28.8907 15.5108 28.8926 15.3538 28.8926H14.375V28.1474H15.3671C15.5078 28.1474 15.6541 28.1535 15.7493 28.2078C15.854 28.2567 15.9186 28.3607 15.9186 28.5047C15.9186 28.6511 15.8571 28.7692 15.7524 28.8239ZM18.0633 30.7779H17.2413V27.4213H18.0629V30.7779H18.0633ZM27.6075 30.7779H26.4656L24.9385 28.2586V30.7779H23.2975L22.9841 30.0292H21.3102L21.0056 30.7782H20.0628C19.6711 30.7782 19.1754 30.6919 18.8945 30.4068C18.6113 30.1217 18.4638 29.7357 18.4638 29.1254C18.4638 28.6274 18.5517 28.1723 18.8983 27.8126C19.159 27.5447 19.5668 27.4213 20.122 27.4213H20.902V28.1405H20.1389C19.8446 28.1405 19.6787 28.1841 19.5186 28.3393C19.3814 28.4807 19.287 28.7482 19.287 29.0998C19.287 29.459 19.3589 29.7189 19.5087 29.8882C19.6329 30.0208 19.858 30.0613 20.0704 30.0613H20.432L21.5678 27.4213H22.7754L24.1394 30.5963V27.4213H25.3661L26.7824 29.759V27.4213H27.6079V30.7779H27.6075ZM22.7097 29.3325L22.1521 27.9946L21.5976 29.3325H22.7097ZM29.6609 36.1377C29.4648 36.4228 29.0838 36.5673 28.5671 36.5673H27.0113V35.8473H28.561C28.7147 35.8473 28.8224 35.827 28.887 35.764C28.9173 35.7362 28.9415 35.7023 28.958 35.6646C28.9744 35.6269 28.9828 35.5861 28.9826 35.545C28.9842 35.5029 28.9762 35.461 28.9591 35.4225C28.942 35.384 28.9163 35.35 28.884 35.323C28.8255 35.2718 28.7403 35.2484 28.6 35.2484C27.8433 35.2228 26.8994 35.2718 26.8994 34.2089C26.8994 33.7221 27.2101 33.2096 28.0558 33.2096H29.6609V32.5416H28.1693C27.7195 32.5416 27.3924 32.6486 27.1611 32.8156V32.5416H24.9553C24.6026 32.5416 24.1887 32.6287 23.9926 32.8156V32.5416H20.054V32.8156C19.7406 32.5905 19.2113 32.5416 18.9675 32.5416H16.3692V32.8156C16.1211 32.5767 15.5697 32.5416 15.2338 32.5416H12.3259L11.6609 33.2585L11.0376 32.5416H6.69389V37.2269H10.9558L11.6414 36.4981L12.2873 37.2265L14.9143 37.2288V36.1267H15.1722C15.5208 36.132 15.932 36.1182 16.2947 35.9623V37.2265H18.4615V36.0051H18.5659C18.6996 36.0051 18.7126 36.0105 18.7126 36.1431V37.2261H25.2943C25.7124 37.2261 26.1492 37.1191 26.3911 36.9261V37.2261H28.4789C28.9134 37.2261 29.3376 37.165 29.6605 37.0098V36.1374L29.6609 36.1377ZM16.6099 34.3354C16.6099 35.2679 15.9106 35.4609 15.2066 35.4609H14.2011V36.5872H12.635L11.6429 35.4754L10.6118 36.5872H7.42V33.2295H10.6608L11.6521 34.3301L12.6771 33.2295H15.2517C15.8911 33.2295 16.6096 33.4056 16.6096 34.3354H16.6099ZM10.2037 35.8809H8.22255V35.2129H9.99159V34.5277H8.22217V33.9174H10.2427L11.124 34.8957L10.2037 35.8809ZM13.3955 36.2654L12.1585 34.8972L13.3955 33.5734V36.2654ZM15.2254 34.7723H14.184V33.9174H15.2349C15.5254 33.9174 15.7275 34.0354 15.7275 34.3289C15.7275 34.6194 15.5349 34.7723 15.2254 34.7723ZM20.6804 33.2295H23.3697V33.9239H21.4829V34.5342H23.3234V35.2194H21.4829V35.8874L23.3697 35.8905V36.5872H20.6804V33.2295ZM19.6466 35.0268C19.8259 35.0925 19.9726 35.2106 20.0414 35.3084C20.1549 35.4728 20.1713 35.6256 20.1748 35.9214V36.5872H19.3657V36.1668C19.3657 35.965 19.3852 35.6661 19.2358 35.5095C19.1177 35.3895 18.9385 35.3604 18.6442 35.3604H17.7832V36.5872H16.9738V33.2295H18.8338C19.2419 33.2295 19.5389 33.2474 19.8033 33.3877C20.0578 33.5405 20.2176 33.7507 20.2176 34.1333C20.2176 34.6695 19.8583 34.9427 19.6466 35.0268ZM19.1911 34.6022C19.0833 34.666 18.9503 34.6714 18.7933 34.6714H17.8141V33.9174H18.8066C18.9499 33.9174 19.0933 33.9204 19.1911 33.9777C19.2954 34.0324 19.3577 34.1363 19.3577 34.2796C19.3577 34.4237 19.2954 34.5395 19.1911 34.6022ZM26.4652 34.8162C26.6219 34.9779 26.706 35.1819 26.706 35.5274C26.706 36.2497 26.2527 36.5868 25.4403 36.5868H23.8707V35.8668H25.4338C25.5866 35.8668 25.6952 35.8469 25.7632 35.7839C25.7933 35.7559 25.8173 35.722 25.8337 35.6843C25.8501 35.6466 25.8585 35.606 25.8583 35.5649C25.8592 35.5229 25.8508 35.4813 25.8337 35.4429C25.8167 35.4045 25.7914 35.3704 25.7597 35.3428C25.6986 35.2916 25.6134 35.2683 25.4731 35.2683C24.7195 35.2427 23.7759 35.2912 23.7759 34.2288C23.7759 33.7419 24.0832 33.2295 24.9278 33.2295H26.5432V33.9441H25.065C24.9186 33.9441 24.8234 33.9495 24.742 34.0045C24.6541 34.0591 24.6213 34.1398 24.6213 34.2464C24.62 34.3014 24.6365 34.3554 24.6682 34.4004C24.6999 34.4454 24.7452 34.479 24.7975 34.4963C24.8827 34.5258 24.974 34.5346 25.1108 34.5346L25.545 34.546C25.9822 34.5567 26.2826 34.632 26.4652 34.8162ZM29.6624 33.9174H28.1938C28.0474 33.9174 27.9499 33.9227 27.8678 33.9777C27.7829 34.0324 27.7501 34.113 27.7501 34.2196C27.7482 34.2748 27.7644 34.3291 27.7962 34.3742C27.828 34.4193 27.8737 34.4528 27.9262 34.4696C28.0111 34.499 28.1024 34.5078 28.2369 34.5078L28.6734 34.5193C29.114 34.53 29.4083 34.6056 29.5875 34.7895C29.6204 34.8151 29.6399 34.8437 29.6624 34.8728V33.9174Z" fill="white"/>
</g>
<path d="M3 24H27.6624V22H3V24ZM28.6624 25V39H30.6624V25H28.6624ZM27.6624 40H3V42H27.6624V40ZM2 39V25H0V39H2ZM3 40C2.44772 40 2 39.5523 2 39H0C0 40.6569 1.34315 42 3 42V40ZM28.6624 39C28.6624 39.5523 28.2147 40 27.6624 40V42C29.3193 42 30.6624 40.6569 30.6624 39H28.6624ZM27.6624 24C28.2147 24 28.6624 24.4477 28.6624 25H30.6624C30.6624 23.3431 29.3193 22 27.6624 22V24ZM3 22C1.34315 22 0 23.3431 0 25H2C2 24.4477 2.44772 24 3 24V22Z" fill="#DDDDDD"/>
<defs>
<linearGradient id="paint0_linear" x1="43.7744" y1="20.7206" x2="37.9024" y2="40.5164" gradientUnits="userSpaceOnUse">
<stop stop-color="#222E72"/>
<stop offset="0.591647" stop-color="#40CBFF"/>
<stop offset="1" stop-color="#3CB792"/>
</linearGradient>
<clipPath id="clip0">
<path d="M36 3C36 1.89543 36.8954 1 38 1H62.6624C63.767 1 64.6624 1.89543 64.6624 3V17C64.6624 18.1046 63.767 19 62.6624 19H38C36.8954 19 36 18.1046 36 17V3Z" fill="white"/>
</clipPath>
<clipPath id="clip1">
<path d="M1 3.05811C1 1.95354 1.89543 1.05811 3 1.05811H27.6624C28.767 1.05811 29.6624 1.95354 29.6624 3.05811V17.0581C29.6624 18.1627 28.767 19.0581 27.6624 19.0581H3C1.89543 19.0581 1 18.1627 1 17.0581V3.05811Z" fill="white"/>
</clipPath>
<clipPath id="clip2">
<path d="M36 25C36 23.8954 36.8954 23 38 23H62.6624C63.767 23 64.6624 23.8954 64.6624 25V39C64.6624 40.1046 63.767 41 62.6624 41H38C36.8954 41 36 40.1046 36 39V25Z" fill="white"/>
</clipPath>
<clipPath id="clip3">
<path d="M1 25C1 23.8954 1.89543 23 3 23H27.6624C28.767 23 29.6624 23.8954 29.6624 25V39C29.6624 40.1046 28.767 41 27.6624 41H3C1.89543 41 1 40.1046 1 39V25Z" fill="white"/>
</clipPath>
</defs>
</svg>
