<svg width="64" height="40" viewBox="0 0 64 40" fill="none" xmlns="http://www.w3.org/2000/svg">
<g clip-path="url(#clip0_7623_49350)">
<rect width="30" height="19" rx="2" fill="white"/>
<rect x="0.395833" y="0.395833" width="29.2083" height="18.2083" rx="1.60417" stroke="black" stroke-opacity="0.25" stroke-width="0.791667"/>
<path d="M13.4327 12.9459H11.6226L12.7548 6.29556H14.5647L13.4327 12.9459Z" fill="#1C34C3"/>
<path d="M19.9939 6.45812C19.6369 6.32356 19.0706 6.17499 18.3704 6.17499C16.5829 6.17499 15.3242 7.08052 15.3165 8.37515C15.3016 9.33033 16.2177 9.86086 16.9029 10.1794C17.6031 10.5048 17.8412 10.7172 17.8412 11.0073C17.8341 11.4528 17.2753 11.6582 16.7542 11.6582C16.0315 11.6582 15.6443 11.5523 15.0559 11.3044L14.8175 11.1982L14.5642 12.691C14.9888 12.8748 15.7709 13.0378 16.5829 13.045C18.4822 13.045 19.7187 12.1535 19.7333 10.7738C19.7405 10.0168 19.2568 9.43668 18.214 8.96267C17.5809 8.65838 17.1932 8.4532 17.1932 8.14186C17.2006 7.85882 17.5211 7.56892 18.2357 7.56892C18.8242 7.55472 19.2565 7.68909 19.5841 7.82356L19.7478 7.89418L19.9939 6.45812V6.45812V6.45812Z" fill="#1C34C3"/>
<path fill-rule="evenodd" clip-rule="evenodd" d="M23.2343 6.29556H24.6344L26.0947 12.9458H24.4187C24.4187 12.9458 24.2547 12.1817 24.2027 11.9482H21.8788C21.8116 12.125 21.4989 12.9458 21.4989 12.9458H19.5996L22.2882 6.84734C22.4745 6.41574 22.8026 6.29556 23.2343 6.29556ZM23.1228 8.72919C23.1228 8.72919 22.5492 10.2079 22.4001 10.5899H23.9046C23.8302 10.2574 23.4874 8.66553 23.4874 8.66553L23.3609 8.0925C23.3076 8.24006 23.2306 8.44293 23.1786 8.57976C23.1434 8.67252 23.1197 8.73493 23.1228 8.72919Z" fill="#1C34C3"/>
<path fill-rule="evenodd" clip-rule="evenodd" d="M8.33809 10.8305L10.1107 6.29556H12.0247L9.17963 12.9388H7.26553L5.65222 7.16031C5.09558 6.85115 4.46029 6.6025 3.75001 6.42995L3.7798 6.29558H6.69203C7.08677 6.30959 7.40707 6.42986 7.5113 6.8546L8.1442 9.91013C8.14426 9.91033 8.14432 9.91053 8.14438 9.91073L8.33809 10.8305Z" fill="#1C34C3"/>
<rect x="34" width="30" height="19" rx="2" fill="white"/>
<rect x="34.3958" y="0.395833" width="29.2083" height="18.2083" rx="1.60417" stroke="black" stroke-opacity="0.25" stroke-width="0.791667"/>
<path fill-rule="evenodd" clip-rule="evenodd" d="M59.0057 12.8754V12.6528H58.9487L58.8827 12.8061L58.8166 12.6528H58.7592V12.8754H58.7999V12.7076L58.8616 12.8524H58.9038L58.9655 12.7072V12.8754H59.0061H59.0057ZM58.6426 12.8754V12.6907H58.7163V12.6532H58.5292V12.6907H58.6028V12.8754H58.6426ZM59.0176 9.56476C59.0176 13.011 56.2676 15.8045 52.8751 15.8045C49.4834 15.8045 46.7334 13.011 46.7334 9.56476C46.7334 6.11894 49.4834 3.32501 52.8755 3.32501C56.2676 3.32501 59.0176 6.11894 59.0176 9.56476Z" fill="#F79F1A"/>
<path fill-rule="evenodd" clip-rule="evenodd" d="M51.4405 9.56476C51.4405 13.011 48.6905 15.8045 45.2984 15.8045C41.9067 15.8045 39.1563 13.011 39.1563 9.56476C39.1563 6.11894 41.9063 3.32501 45.2988 3.32501C48.6905 3.32501 51.4405 6.11894 51.4405 9.56476V9.56476Z" fill="#EA001B"/>
<path fill-rule="evenodd" clip-rule="evenodd" d="M49.087 4.65298C48.3528 5.23705 47.7594 5.9828 47.3517 6.83374C46.9441 7.68467 46.733 8.61846 46.7343 9.56435C46.7343 11.5583 47.6539 13.3345 49.087 14.4769C50.5201 13.3345 51.4397 11.5583 51.4397 9.56435C51.4411 8.61846 51.2299 7.68467 50.8223 6.83374C50.4147 5.9828 49.8213 5.23705 49.087 4.65298Z" fill="#FF5F01"/>
<g clip-path="url(#clip1_7623_49350)">
<rect y="21" width="30" height="19" rx="2" fill="white"/>
<path d="M26.7521 25.6709L27.3597 24.019L30 24.0063V21L-0.083334 21.0127V40L30 39.9873V36.9873L27.5179 37L26.5496 35.8671L25.5432 37H18.1002V30.9684H15.6445L18.7141 24.019H21.7014L22.423 25.595V24.019H26.1318L26.7521 25.6709ZM24.6572 26.7658L24.6508 26.1013L24.904 26.7658L26.1382 30.0633H27.366L28.6065 26.7658L28.847 26.1076V30.0633L30 30.0506V24.9873L27.9926 25L27.0179 27.5697L26.7584 28.2658L26.4926 27.5697L25.5116 25H23.366V30.0633H24.6572V26.7658ZM21.8787 30.0633H23.366L21.1382 25H19.4103L17.1698 30.0633H18.6382L19.0306 29.0886H21.4863L21.8787 30.0633ZM20.0053 26.7152L20.2584 26.0823L20.5116 26.7152L21.0369 27.9937H19.4799L20.0053 26.7152ZM19.1381 30.9747V36.019H23.366V34.924H20.4293V34.0443H23.3091V32.9557H20.4293V32.0696H23.366V30.9747H19.1381ZM28.0685 36.019H29.7458L27.3787 33.4873L29.7458 30.9747H28.0939L26.5685 32.6139L25.0496 30.9747H23.366L25.7267 33.5063L23.366 36.019H24.9989L26.5369 34.3734L28.0685 36.019ZM28.7078 33.481L30 34.924V32.0316L28.7078 33.481Z" fill="#006FCF"/>
</g>
<rect x="0.395833" y="21.3958" width="29.2083" height="18.2083" rx="1.60417" stroke="black" stroke-opacity="0.25" stroke-width="0.791667"/>
<rect x="34" y="21" width="30" height="19" rx="2" fill="url(#paint0_linear_7623_49350)"/>
<rect x="34.3958" y="21.3958" width="29.2083" height="18.2083" rx="1.60417" stroke="black" stroke-opacity="0.25" stroke-width="0.791667"/>
<path fill-rule="evenodd" clip-rule="evenodd" d="M44.4716 30.3556H49.4675C49.4229 29.2613 49.1713 28.1331 48.4082 27.4084C47.4992 26.5452 45.907 26.225 44.4843 26.225C43.0035 26.225 41.3658 26.5762 40.452 27.5024C39.664 28.3002 39.4936 29.5839 39.4936 30.7373C39.4936 31.9454 39.8269 33.3506 40.6818 34.1601C41.5908 35.0214 43.0637 35.25 44.4843 35.25C45.8642 35.25 47.359 34.9918 48.2627 34.1741C49.1639 33.3574 49.4753 31.9817 49.4753 30.7373V30.7315H44.4716V30.3556ZM49.8027 30.7317V35.0482H56.7525V35.0424C57.7694 34.9862 58.5784 34.0571 58.5784 32.9164C58.5784 31.7751 57.7694 30.7864 56.7525 30.7297V30.7317H49.8027ZM56.6733 26.4057C57.6644 26.4057 58.4511 27.2772 58.4511 28.3768C58.4511 29.4178 57.7287 30.2679 56.8096 30.3556H49.8026V26.3994H56.454C56.4949 26.3944 56.5426 26.3979 56.5892 26.4014C56.6183 26.4036 56.647 26.4057 56.6733 26.4057Z" fill="#FEFEFE"/>
</g>
<defs>
<linearGradient id="paint0_linear_7623_49350" x1="42.1372" y1="18.594" x2="35.8949" y2="39.4607" gradientUnits="userSpaceOnUse">
<stop stop-color="#222E72"/>
<stop offset="0.591647" stop-color="#40CBFF"/>
<stop offset="1" stop-color="#3CB792"/>
</linearGradient>
<clipPath id="clip0_7623_49350">
<rect width="64" height="40" fill="white"/>
</clipPath>
<clipPath id="clip1_7623_49350">
<rect y="21" width="30" height="19" rx="2" fill="white"/>
</clipPath>
</defs>
</svg>
