<svg xmlns="http://www.w3.org/2000/svg" width="65" height="40" viewBox="0 0 65 40" fill="none"><rect width="29.26" height="17.91" x="34.5" y=".5" fill="#fff" rx="1.5"/><g fill-rule="evenodd" clip-rule="evenodd"><path fill="#F79F1A" d="M58.43 12.54v-.2h-.06l-.06.14-.06-.14h-.05v.2h.04v-.15l.05.13h.04l.06-.13v.15h.04Zm-.34 0v-.16h.07v-.04H58v.04h.07v.16h.03Zm.35-2.98a5.61 5.61 0 1 1-11.23.02 5.61 5.61 0 0 1 11.23-.02Z"/><path fill="#EA001B" d="M51.52 9.56a5.61 5.61 0 1 1-11.23.02 5.61 5.61 0 0 1 11.23-.02Z"/><path fill="#FF5F01" d="M49.37 5.14a5.62 5.62 0 0 0 0 8.85 5.62 5.62 0 0 0 0-8.85Z"/></g><rect width="29.26" height="17.91" x="34.5" y=".5" stroke="#DDD" rx="1.5"/><rect width="29.26" height="17.91" x="34.5" y="21.5" fill="url(#a)" rx="1.5"/><path fill="#FEFEFE" fill-rule="evenodd" d="M44.01 30.05h5.3c-.04-1.14-.3-2.32-1.12-3.08-.96-.9-2.65-1.24-4.16-1.24-1.58 0-3.31.37-4.29 1.34-.83.83-1.01 2.18-1.01 3.38 0 1.27.35 2.74 1.26 3.6.96.9 2.53 1.13 4.04 1.13 1.46 0 3.05-.27 4-1.12.96-.86 1.3-2.3 1.3-3.6v-.01H44v-.4Zm5.66.4v4.52h7.38c1.08-.06 1.94-1.04 1.94-2.23 0-1.2-.86-2.23-1.94-2.3h-7.38Zm7.3-4.53c1.05 0 1.88.91 1.88 2.06 0 1.1-.76 1.98-1.74 2.07h-7.44v-4.14h7.3Z" clip-rule="evenodd"/><rect width="29.26" height="17.91" x="34.5" y="21.5" stroke="#DDD" rx="1.5"/><rect width="29.26" height="17.91" x=".5" y=".5" fill="#fff" rx="1.5"/><g fill="#1A1F71"><path d="M13.73 12.52h-1.68l1.05-6.1h1.68l-1.05 6.1ZM19.83 6.56a4.4 4.4 0 0 0-1.5-.26c-1.67 0-2.84.83-2.85 2.02-.01.88.84 1.37 1.48 1.66.65.3.87.5.87.76 0 .4-.53.6-1.01.6-.67 0-1.03-.1-1.58-.33l-.22-.1-.24 1.37c.4.17 1.12.32 1.88.33 1.76 0 2.91-.82 2.93-2.09 0-.7-.45-1.22-1.41-1.66-.6-.28-.95-.47-.95-.75 0-.26.3-.53.97-.53.54-.01.94.11 1.25.24l.15.06.23-1.32Z"/><path fill-rule="evenodd" d="M22.84 6.41h1.3l1.36 6.1h-1.56l-.2-.91h-2.16l-.35.92h-1.77l2.5-5.6c.18-.4.48-.5.88-.5Zm-.1 2.24-.67 1.7h1.4l-.4-1.76-.11-.53a30.97 30.97 0 0 1-.22.59ZM4.76 6.41h2.7c.37.02.67.13.76.52l.6 2.8.17.84 1.65-4.16h1.78l-2.64 6.1H8L6.5 7.2a7.13 7.13 0 0 0-1.77-.67l.03-.13Z" clip-rule="evenodd"/></g><rect width="29.26" height="17.91" x=".5" y=".5" stroke="#DDD" rx="1.5"/><rect width="29.26" height="17.91" x=".5" y="21.5" fill="#2557D6" rx="1.5"/><path fill="#fff" fill-rule="evenodd" d="M.79 29.62h1.38l.3-.74h.7l.31.74H6.2v-.57l.24.58h1.41l.24-.58v.57h6.74V28.4h.13c.09 0 .11.01.11.16v1.06h3.49v-.28c.28.15.72.28 1.3.28h1.46l.31-.74h.7l.3.74h2.83v-.7l.42.7h2.27v-4.68H25.9v.55l-.32-.55h-2.3v.55l-.28-.55h-3.1c-.53 0-.98.07-1.35.27v-.27H16.4v.27c-.24-.2-.56-.27-.92-.27H7.67l-.53 1.21-.54-1.21H4.14v.55l-.27-.55h-2.1l-.98 2.23v2.45Zm8.7-.67h-.83v-2.63l-1.18 2.63h-.7L5.6 26.32v2.63H3.96l-.3-.75H1.98l-.32.75H.8l1.44-3.36h1.2l1.37 3.18v-3.18h1.32l1.05 2.28.97-2.28h1.34v3.36ZM3.37 27.5l-.55-1.34-.55 1.34h1.1Zm9.4 1.45h-2.7v-3.36h2.7v.7h-1.9v.6h1.85v.7h-1.84v.66h1.88v.7Zm3.79-2.46c0 .54-.36.82-.57.9.18.07.33.18.4.28.11.17.13.32.13.62v.66h-.81v-.42c0-.2.02-.5-.13-.66-.12-.12-.3-.14-.59-.14h-.86v1.22h-.81v-3.36h1.85c.42 0 .72.01.98.16s.4.37.4.74Zm-1.02.5c-.11.07-.24.07-.4.07h-.98v-.74h1c.13 0 .28 0 .38.06.1.05.17.15.17.3 0 .14-.07.26-.17.31Zm2.31 1.96h-.82v-3.36h.82v3.36Zm9.55 0h-1.14l-1.53-2.52v2.52H23.1l-.31-.75H21.1l-.3.75h-.95c-.39 0-.89-.09-1.17-.37-.28-.29-.43-.67-.43-1.28 0-.5.1-.96.44-1.32.26-.27.67-.39 1.22-.39h.78v.72h-.76c-.3 0-.46.04-.62.2-.14.14-.23.4-.23.76s.07.62.22.79c.12.13.35.17.56.17h.36l1.14-2.64h1.2l1.37 3.18v-3.18h1.23l1.42 2.34v-2.34h.82v3.36Zm-4.9-1.45-.56-1.34-.55 1.34h1.11Zm6.96 6.81c-.2.29-.58.43-1.1.43h-1.55v-.72h1.55c.15 0 .26-.02.32-.08a.3.3 0 0 0 .1-.22.27.27 0 0 0-.1-.22c-.06-.05-.14-.08-.28-.08-.76-.02-1.7.03-1.7-1.04 0-.49.3-1 1.15-1h1.6v-.67h-1.49c-.45 0-.77.11-1 .28v-.28h-2.21c-.35 0-.77.1-.97.28v-.28h-3.94V31a2.1 2.1 0 0 0-1.08-.28h-2.6V31c-.25-.24-.8-.28-1.14-.28h-2.9l-.67.72-.63-.72H6.5v4.7h4.26l.69-.74.64.73h2.63v-1.1h.26c.35 0 .76 0 1.12-.16v1.26h2.17v-1.22h.1c.14 0 .15 0 .15.14v1.08h6.59c.42 0 .85-.1 1.1-.3v.3h2.08c.44 0 .86-.06 1.19-.22v-.87Zm-13.06-1.8c0 .93-.7 1.12-1.4 1.12H14v1.13h-1.57l-1-1.11-1.02 1.11H7.2V31.4h3.24l1 1.1 1.02-1.1h2.58c.64 0 1.36.18 1.36 1.1ZM10 34.06H8v-.67H9.8v-.69H8v-.61h2.03l.88.98-.92.98Zm3.2.38-1.25-1.37 1.24-1.32v2.69Zm1.82-1.5h-1.04v-.85h1.05c.3 0 .5.12.5.41 0 .3-.2.45-.5.45Zm5.46-1.54h2.7v.7h-1.9v.6h1.85v.7h-1.85v.66h1.9v.7h-2.7V31.4Zm-1.03 1.8c.18.07.32.18.4.28.1.17.12.32.12.62v.66h-.8v-.42c0-.2.01-.5-.13-.66-.12-.12-.3-.15-.6-.15h-.86v1.23h-.8V31.4h1.85c.41 0 .7.02.97.16.26.15.42.36.42.75 0 .53-.36.8-.57.89Zm-.46-.42c-.1.06-.24.06-.4.06h-.98v-.75h1c.14 0 .28 0 .38.06.1.06.17.16.17.3 0 .15-.07.26-.17.33Zm7.28.21c.16.16.24.37.24.71 0 .72-.45 1.06-1.27 1.06h-1.57v-.72h1.57c.15 0 .26-.02.33-.08a.3.3 0 0 0 0-.44c-.07-.05-.15-.08-.3-.08-.75-.02-1.7.03-1.7-1.04 0-.49.32-1 1.16-1h1.62v.72h-1.48c-.15 0-.24 0-.33.06-.08.05-.12.13-.12.24a.26.26 0 0 0 .18.25c.09.03.18.04.31.04h.44c.44.02.74.1.92.28Zm3.2-.9H28c-.15 0-.25 0-.33.06-.08.06-.12.14-.12.24a.25.25 0 0 0 .18.25c.09.03.18.04.31.04l.44.01c.44.01.73.09.91.27l.08.09v-.96Z" clip-rule="evenodd"/><rect width="29.26" height="17.91" x=".5" y="21.5" stroke="#DDD" rx="1.5"/><defs><linearGradient id="a" x1="42.21" x2="36.06" y1="18.61" y2="39.42" gradientUnits="userSpaceOnUse"><stop stop-color="#222E72"/><stop offset=".59" stop-color="#40CBFF"/><stop offset="1" stop-color="#3CB792"/></linearGradient></defs></svg>
