<svg width="64" height="40" viewBox="0 0 64 40" fill="none" xmlns="http://www.w3.org/2000/svg">
<g id="Size=Large, Name=EPS, Outline=On">
<rect width="64" height="40" rx="3" fill="white"/>
<rect x="0.5" y="0.5" width="63" height="39" rx="2.5" stroke="black" stroke-opacity="0.07"/>
<g id="Group 630">
<path id="Vector" d="M48.9049 20.4744H45.1561C44.7392 20.4744 44.4 20.1422 44.4 19.7263C44.4 19.3104 44.7392 18.9443 45.1561 18.9443H50.8634V16.129H45.1561C43.1642 16.129 41.5435 17.753 41.5435 19.74C41.5435 21.7269 43.1642 23.3509 45.1561 23.3509H48.854C49.2709 23.3509 49.6102 23.6817 49.6102 24.0976C49.6102 24.5135 49.2709 24.8197 48.854 24.8197H40.9244C40.2512 26.105 39.5967 27.2066 38.2678 27.7574H48.9049C50.8634 27.7292 52.4654 26.0718 52.4654 24.1024C52.4654 22.1331 50.8634 20.5026 48.9049 20.4744Z" fill="#71706F"/>
<path id="Vector_2" d="M34.5344 16.129C31.3572 16.129 28.7694 18.7323 28.7694 21.931V22.0534V34.0001H31.6459V27.7574H34.5284C37.7057 27.7574 40.2844 25.1196 40.2844 21.9208C40.2844 18.7221 37.7118 16.129 34.5344 16.129ZM34.5344 24.8197H31.6459V21.9208C31.6459 20.3009 32.9356 18.983 34.5344 18.983C36.1333 18.983 37.434 20.3009 37.434 21.9208C37.434 23.5408 36.1333 24.8197 34.5344 24.8197Z" fill="#71706F"/>
<path id="Vector_3" d="M19.6627 27.7574C16.9429 27.7574 14.6562 25.8193 14.0375 23.2874C14.0375 23.2874 13.8587 22.4502 13.8587 21.899C13.8587 21.3477 14.0279 20.502 14.0279 20.502C14.6512 17.9763 16.935 16.0956 19.6503 16.0956C22.8439 16.0956 25.4645 18.6916 25.4645 21.8852V23.2896H16.9797C17.4808 24.2689 18.4941 24.8197 19.6627 24.8197H27.2901L27.3005 16.5379C27.3005 15.3031 26.2904 14.2929 25.0556 14.2929H14.245C13.0103 14.2929 12 15.2725 12 16.5073V27.3179C12 28.5526 13.0103 29.5935 14.245 29.5935H25.0556C26.1637 29.5935 27.0881 28.7978 27.2666 27.7574H19.6627Z" fill="#C8036F"/>
<path id="Vector_4" d="M19.6502 18.8436C18.4862 18.8436 17.4738 19.5562 16.9708 20.4742H22.3299C21.8268 19.5562 20.8145 18.8436 19.6502 18.8436Z" fill="#C8036F"/>
<path id="Vector_5" d="M24.5464 10.7774C24.5464 8.13889 22.3537 6 19.6489 6C16.9888 6 14.8254 8.06894 14.7543 10.647C14.7532 10.6579 14.7541 10.6684 14.7541 10.6796V12.1153C14.7541 12.2871 14.8939 12.4568 15.07 12.4568H16.8718C17.0478 12.4568 17.2022 12.2871 17.2022 12.1153V10.7774C17.2022 9.45982 18.2995 8.38786 19.6503 8.38786C21.001 8.38786 22.0983 9.45982 22.0983 10.7774V12.1153C22.0983 12.2871 22.2411 12.4568 22.4172 12.4568H24.2191C24.3951 12.4568 24.5464 12.2871 24.5464 12.1153V10.7774Z" fill="#C8036F"/>
</g>
</g>
</svg>
