<svg width="64" height="40" viewBox="0 0 64 40" fill="none" xmlns="http://www.w3.org/2000/svg">
<rect width="64" height="40" fill="white"/>
<path d="M48.905 20.474H45.156C45.0572 20.4748 44.9592 20.456 44.8676 20.4188C44.7761 20.3816 44.6928 20.3267 44.6225 20.2572C44.5522 20.1877 44.4964 20.105 44.4582 20.0138C44.4201 19.9226 44.4003 19.8248 44.4 19.726C44.4 19.31 44.74 18.944 45.156 18.944H50.863V16.13H45.156C44.1988 16.1319 43.2813 16.5129 42.6043 17.1896C41.9274 17.8664 41.5461 18.7838 41.544 19.741C41.544 21.728 43.164 23.351 45.156 23.351H48.854C48.9528 23.3502 49.0508 23.369 49.1424 23.4062C49.234 23.4434 49.3173 23.4983 49.3875 23.5678C49.4578 23.6373 49.5136 23.7201 49.5518 23.8112C49.59 23.9024 49.6097 24.0002 49.61 24.099C49.61 24.515 49.27 24.821 48.854 24.821H40.924C40.251 26.106 39.597 27.208 38.268 27.758H48.905C50.863 27.73 52.465 26.073 52.465 24.103C52.465 22.134 50.863 20.502 48.905 20.474Z" fill="#71706F"/>
<path d="M34.534 16.129C31.357 16.129 28.769 18.732 28.769 21.931V34H31.646V27.757H34.528C37.706 27.757 40.284 25.12 40.284 21.921C40.284 18.722 37.712 16.129 34.534 16.129ZM34.534 24.819H31.646V21.921C31.646 20.301 32.936 18.983 34.534 18.983C36.134 18.983 37.434 20.301 37.434 21.921C37.434 23.541 36.134 24.819 34.534 24.819Z" fill="#71706F"/>
<path d="M19.663 27.757C16.943 27.757 14.656 25.819 14.037 23.287C14.037 23.287 13.859 22.45 13.859 21.899C13.859 21.348 14.028 20.502 14.028 20.502C14.651 17.976 16.935 16.096 19.65 16.096C22.844 16.096 25.465 18.692 25.465 21.886V23.29H16.98C17.48 24.269 18.494 24.82 19.663 24.82H27.29L27.3 16.538C27.2984 15.9433 27.0615 15.3733 26.6411 14.9527C26.2206 14.532 25.6508 14.2949 25.056 14.293H14.245C13.01 14.293 12 15.273 12 16.507V27.317C12 28.553 13.01 29.593 14.245 29.593H25.055C26.164 29.593 27.088 28.798 27.267 27.757H19.663Z" fill="#C8036F"/>
<path d="M19.65 18.844C18.486 18.844 17.474 19.556 16.97 20.474H22.33C21.827 19.556 20.815 18.844 19.65 18.844ZM24.546 10.777C24.546 8.14 22.354 6 19.65 6C16.99 6 14.826 8.069 14.755 10.647V12.115C14.755 12.287 14.895 12.457 15.071 12.457H16.873C17.049 12.457 17.203 12.287 17.203 12.115V10.777C17.203 9.46 18.3 8.387 19.651 8.387C21.002 8.387 22.099 9.46 22.099 10.777V12.115C22.099 12.287 22.242 12.457 22.419 12.457H24.22C24.396 12.457 24.547 12.287 24.547 12.115V10.777H24.546Z" fill="#C8036F"/>
</svg>
