<svg width="65" height="40" viewBox="0 0 65 40" fill="none" xmlns="http://www.w3.org/2000/svg" > <path d="M60.686 0h-56.9A3.397 3.397 0 00.389 3.397v33.206A3.397 3.397 0 003.786 40h56.9a3.397 3.397 0 003.397-3.397V3.397A3.397 3.397 0 0060.686 0z" fill="#fff" /> <path d="M12 11a4 4 0 014-4h32.857a4 4 0 014 4v18a4 4 0 01-4 4H16a4 4 0 01-4-4V11z" fill="#fff" /> <path fillRule="evenodd" clipRule="evenodd" d="M48.857 9H16a2 2 0 00-2 2v18a2 2 0 002 2h32.857a2 2 0 002-2V11a2 2 0 00-2-2zM16 7a4 4 0 00-4 4v18a4 4 0 004 4h32.857a4 4 0 004-4V11a4 4 0 00-4-4H16z" fill="#0F3365" /> <path d="M32.428 7h16.43a4 4 0 014 4v18a4 4 0 01-4 4h-16.43V7z" fill="#0F3365" /> <path fillRule="evenodd" clipRule="evenodd" d="M35.214 28.106h4.255V22.19h.048c.804 1.296 2.412 1.776 3.901 1.776 3.665 0 5.627-2.676 5.627-5.896 0-2.634-1.866-5.498-5.271-5.498-1.94 0-3.737.69-4.587 2.216h-.048v-1.966h-3.925v15.284zm9.434-9.952c0 1.736-.97 2.927-2.576 2.927-1.42 0-2.603-1.191-2.603-2.781 0-1.63 1.041-2.843 2.603-2.843 1.654 0 2.576 1.253 2.576 2.697z" fill="#FFFFFE" /> <path fillRule="evenodd" clipRule="evenodd" d="M29.635 12.822H25.78v1.965h-.046c-.899-1.337-2.365-2.216-4.185-2.216-3.83 0-5.556 2.425-5.556 5.666 0 3.221 2.104 5.478 5.486 5.478 1.702 0 3.12-.584 4.136-1.861h.048v.586c0 2.133-1.323 3.157-3.783 3.157-1.773 0-2.86-.334-4.16-.899l-.214 2.97c.993.312 2.672.69 4.705.69 4.965 0 7.424-1.444 7.424-5.918v-9.618zm-9.245 5.352c0-1.484.828-2.717 2.412-2.717 1.915 0 2.72 1.358 2.72 2.57 0 1.674-1.207 2.803-2.72 2.803-1.276 0-2.412-.963-2.412-2.656z" fill="#D8232A" /> </svg>
