<svg width="65" height="40" viewBox="0 0 65 40" fill="none" xmlns="http://www.w3.org/2000/svg">
<path d="M60.6859 0H3.7857C1.90957 0 0.388672 1.5209 0.388672 3.39703V36.603C0.388672 38.4791 1.90957 40 3.7857 40H60.6859C62.562 40 64.0829 38.4791 64.0829 36.603V3.39703C64.0829 1.5209 62.562 0 60.6859 0Z" fill="white"/>
<path d="M12 11C12 8.79086 13.7909 7 16 7H48.8571C51.0663 7 52.8571 8.79086 52.8571 11V29C52.8571 31.2091 51.0663 33 48.8571 33H16C13.7909 33 12 31.2091 12 29V11Z" fill="white"/>
<path fill-rule="evenodd" clip-rule="evenodd" d="M48.8571 9H16C14.8954 9 14 9.89543 14 11V29C14 30.1046 14.8954 31 16 31H48.8571C49.9617 31 50.8571 30.1046 50.8571 29V11C50.8571 9.89543 49.9617 9 48.8571 9ZM16 7C13.7909 7 12 8.79086 12 11V29C12 31.2091 13.7909 33 16 33H48.8571C51.0663 33 52.8571 31.2091 52.8571 29V11C52.8571 8.79086 51.0663 7 48.8571 7H16Z" fill="#0F3365"/>
<path d="M32.4285 7H48.8571C51.0662 7 52.8571 8.79086 52.8571 11V29C52.8571 31.2091 51.0662 33 48.8571 33H32.4285V7Z" fill="#0F3365"/>
<path fill-rule="evenodd" clip-rule="evenodd" d="M35.2143 28.1058H39.4694V22.1896H39.5169C40.3211 23.4859 41.9291 23.966 43.4183 23.966C47.083 23.966 49.0452 21.2899 49.0452 18.0698C49.0452 15.4361 47.1788 12.5715 43.7737 12.5715C41.8349 12.5715 40.0374 13.2615 39.1865 14.7878H39.139V12.8223H35.2143V28.1058ZM44.648 18.1539C44.648 19.8896 43.6784 21.0808 42.0716 21.0808C40.6525 21.0808 39.4691 19.8896 39.4691 18.2999C39.4691 16.6696 40.5104 15.4567 42.0716 15.4567C43.7259 15.4567 44.648 16.7105 44.648 18.1539Z" fill="#FFFFFE"/>
<path fill-rule="evenodd" clip-rule="evenodd" d="M29.6351 12.8223H25.7804V14.7871H25.7341C24.8354 13.4496 23.3691 12.5715 21.549 12.5715C17.7193 12.5715 15.993 14.9962 15.993 18.2372C15.993 21.4584 18.0972 23.7145 21.4785 23.7145C23.1807 23.7145 24.5991 23.1307 25.615 21.8537H25.6629V22.4404C25.6629 24.573 24.3395 25.5971 21.8802 25.5971C20.1068 25.5971 19.0193 25.2629 17.7193 24.6984L17.5059 27.6676C18.4993 27.98 20.1781 28.3572 22.2111 28.3572C27.1763 28.3572 29.6351 26.9139 29.6351 22.4404V12.8223ZM20.3905 18.1742C20.3905 16.6902 21.218 15.4567 22.8022 15.4567C24.7169 15.4567 25.5211 16.8146 25.5211 18.0278C25.5211 19.7012 24.3148 20.83 22.8022 20.83C21.5255 20.83 20.3905 19.8672 20.3905 18.1742Z" fill="#D8232A"/>
</svg>
