<svg xmlns="http://www.w3.org/2000/svg" width="65" height="40" viewBox="0 0 65 40" fill="none"><path fill="#fff" d="M60.69 0H3.79a3.4 3.4 0 0 0-3.4 3.4v33.2a3.4 3.4 0 0 0 3.4 3.4h56.9a3.4 3.4 0 0 0 3.4-3.4V3.4a3.4 3.4 0 0 0-3.4-3.4z"/><path fill="#fff" d="M12 11a4 4 0 0 1 4-4h32.86a4 4 0 0 1 4 4v18a4 4 0 0 1-4 4H16a4 4 0 0 1-4-4V11z"/><path fill="#0F3365" d="M48.86 9H16a2 2 0 0 0-2 2v18a2 2 0 0 0 2 2h32.86a2 2 0 0 0 2-2V11a2 2 0 0 0-2-2zM16 7a4 4 0 0 0-4 4v18a4 4 0 0 0 4 4h32.86a4 4 0 0 0 4-4V11a4 4 0 0 0-4-4H16z"/><path fill="#0F3365" d="M32.43 7h16.43a4 4 0 0 1 4 4v18a4 4 0 0 1-4 4H32.43V7z"/><path fill="#FFFFFE" d="M35.21 28.1h4.26V22.2h.05c.8 1.3 2.4 1.78 3.9 1.78 3.66 0 5.63-2.68 5.63-5.9 0-2.63-1.87-5.5-5.28-5.5-1.94 0-3.73.7-4.58 2.22h-.05v-1.97H35.2v15.29zm9.44-9.95c0 1.74-.97 2.93-2.58 2.93-1.42 0-2.6-1.19-2.6-2.78 0-1.63 1.04-2.84 2.6-2.84 1.66 0 2.58 1.25 2.58 2.7z"/><path fill="#D8232A" d="M29.64 12.82h-3.86v1.97h-.05a4.93 4.93 0 0 0-4.18-2.22c-3.83 0-5.56 2.43-5.56 5.67 0 3.22 2.1 5.47 5.49 5.47 1.7 0 3.12-.58 4.14-1.86h.04v.59c0 2.13-1.32 3.16-3.78 3.16a9.35 9.35 0 0 1-4.16-.9l-.21 2.97c.99.31 2.67.69 4.7.69 4.97 0 7.42-1.45 7.42-5.92v-9.62zm-9.25 5.35c0-1.48.83-2.71 2.41-2.71 1.92 0 2.72 1.35 2.72 2.57 0 1.67-1.2 2.8-2.72 2.8-1.27 0-2.41-.96-2.41-2.66z"/></svg>
