<svg xmlns="http://www.w3.org/2000/svg" viewBox="0 0 750 471"><defs><linearGradient id="a" x1=".03%" x2="99.97%" y1="50%" y2="50%"><stop offset="0%" stop-color="#007B40"/><stop offset="100%" stop-color="#55B330"/></linearGradient><linearGradient id="b" x1=".47%" x2="99.99%" y1="50%" y2="50%"><stop offset="0%" stop-color="#1D2970"/><stop offset="100%" stop-color="#006DBA"/></linearGradient><linearGradient id="c" x1=".11%" x2="99.99%" y1="50%" y2="50%"><stop offset="0%" stop-color="#6E2B2F"/><stop offset="100%" stop-color="#E30138"/></linearGradient></defs><g fill="none" fill-rule="evenodd"><rect width="750" height="471" viewBox="0 0 750 471" fill="#0E4C96" rx="40"/><path fill="#FFF" d="M617.24 346.77a75.36 75.36 0 0 1-75.36 75.36H132.76V124.24a75.36 75.36 0 0 1 75.36-75.37h409.12v297.9z"/><path fill="url(#a)" d="M483.86 242.04c11.68.26 23.44-.51 35.08.4 11.78 2.2 14.62 20.05 4.15 25.9-7.14 3.84-15.63 1.42-23.38 2.1h-15.85v-28.4zm41.83-32.14c2.6 9.16-6.24 17.4-15.06 16.13h-26.77c.18-8.64-.37-18.02.27-26.2 10.72.3 21.55-.62 32.21.47a12.75 12.75 0 0 1 9.35 9.6zM590.12 74c.5 17.5.07 35.92.21 53.78-.03 72.6.08 145.2-.05 217.79-.47 27.2-24.58 50.84-51.6 51.39-27.05.1-54.1.01-81.14.04V287.25c29.47-.15 58.96.31 88.41-.23 13.67-.86 28.64-9.87 29.27-24.91 1.61-15.1-12.63-25.55-26.15-27.2-5.2-.14-5.04-1.52 0-2.12 12.9-2.79 23.02-16.13 19.23-29.5-3.24-14.06-18.78-19.5-31.7-19.47-26.35-.18-52.7-.03-79.06-.08.17-20.49-.36-41 .28-61.47 2.09-26.72 26.8-48.75 53.45-48.27h78.85z"/><path fill="url(#b)" d="M159.74 125.04c.67-27.16 24.89-50.61 51.87-51 26.95-.09 53.9-.02 80.84-.04-.07 90.88.15 181.77-.11 272.66-1.04 26.83-24.99 49.83-51.68 50.3-27 .1-54 .02-81 .04V283.55c26.23 6.2 53.73 8.83 80.48 4.72 16-2.57 33.49-10.42 38.9-27.01 3.99-14.2 1.75-29.13 2.34-43.7v-33.82h-46.3c-.2 22.37.43 44.78-.33 67.13-1.25 13.73-14.85 22.46-27.8 22-16.07.16-47.9-11.65-47.9-11.65-.08-41.92.46-94.4.69-136.18z"/><path fill="url(#c)" d="M309.72 197.39c-2.43.52-.5-8.3-1.11-11.65.16-21.15-.35-42.32.28-63.45 2.08-26.83 27-48.92 53.74-48.3h78.76c-.07 90.9.15 181.78-.1 272.66-1.05 26.84-25 49.84-51.69 50.31-27 .1-54 .02-81 .04V272.7c18.45 15.14 43.5 17.5 66.48 17.53 17.32 0 34.53-2.67 51.35-6.67V260.8c-18.96 9.45-41.24 15.45-62.25 10.02-14.65-3.65-25.29-17.81-25.05-32.94-1.7-15.73 7.52-32.33 22.98-37 19.2-6.02 40.1-1.42 58.1 6.39 3.85 2.02 7.76 4.52 6.22-1.92v-17.9c-30.09-7.16-62.1-9.8-92.33-2-8.75 2.46-17.27 6.2-24.38 11.95z"/></g></svg>
