<svg width="64" height="40" viewBox="0 0 64 40" fill="none" xmlns="http://www.w3.org/2000/svg">
	<rect width="64" height="40" rx="4" fill="#FFB3C7"/>
	<path d="M49.3822 18.3065C48.8291 17.9296 48.1836 17.7106 47.5153 17.6732C46.8469 17.6358 46.1811 17.7814 45.5893 18.0942C44.9975 18.4071 44.5023 18.8754 44.1569 19.4488C43.8114 20.0221 43.6289 20.6788 43.6289 21.3482C43.6289 22.0176 43.8114 22.6743 44.1569 23.2476C44.5023 23.821 44.9975 24.2893 45.5893 24.6021C46.1811 24.915 46.8469 25.0606 47.5153 25.0232C48.1836 24.9858 48.8291 24.7668 49.3822 24.3899V24.8356H51.4707V17.8603H49.3822V18.3065ZM47.4828 23.1429C47.1319 23.1242 46.7942 23.0031 46.5114 22.7945C46.2287 22.5859 46.0132 22.299 45.8918 21.9693C45.7704 21.6396 45.7483 21.2815 45.8282 20.9393C45.9082 20.5972 46.0867 20.2859 46.3417 20.0442C46.5967 19.8024 46.9169 19.6407 47.2628 19.579C47.6088 19.5173 47.9652 19.5584 48.288 19.6972C48.6108 19.836 48.8859 20.0663 49.0791 20.3598C49.2724 20.6532 49.3754 20.9969 49.3754 21.3483C49.362 21.8371 49.1552 22.3007 48.8004 22.6371C48.4455 22.9736 47.9717 23.1555 47.4828 23.1429Z" fill="black"/>
	<path d="M20.7423 14.752H18.5566V24.8358H20.7423V14.752Z" fill="black"/>
	<path d="M39.9214 17.6729C39.5108 17.6486 39.1004 17.7245 38.7257 17.8941C38.3509 18.0637 38.023 18.3219 37.7703 18.6464V17.8609H35.6904V24.8359H37.7953V21.1703C37.7791 20.9597 37.8085 20.7481 37.8814 20.5499C37.9543 20.3517 38.069 20.1715 38.2177 20.0216C38.3665 19.8717 38.5458 19.7555 38.7434 19.6811C38.941 19.6066 39.1524 19.5756 39.3631 19.5901C40.281 19.5901 40.8086 20.1385 40.8086 21.1558V24.8359H42.8948V20.4001C42.8947 18.7768 41.604 17.6729 39.9214 17.6729Z" fill="black"/>
	<path d="M27.349 18.3065C26.7959 17.9296 26.1504 17.7106 25.4821 17.6732C24.8137 17.6358 24.1479 17.7814 23.5561 18.0942C22.9643 18.4071 22.4691 18.8754 22.1237 19.4488C21.7782 20.0221 21.5957 20.6788 21.5957 21.3482C21.5957 22.0176 21.7782 22.6743 22.1237 23.2476C22.4691 23.821 22.9643 24.2893 23.5561 24.6021C24.1479 24.915 24.8137 25.0606 25.4821 25.0232C26.1504 24.9858 26.7959 24.7668 27.349 24.3899V24.8356H29.4375V17.8603H27.349V18.3065ZM25.4496 23.1429C25.0987 23.1243 24.7609 23.0032 24.4781 22.7946C24.1953 22.5861 23.9798 22.2992 23.8584 21.9695C23.7369 21.6397 23.7148 21.2816 23.7947 20.9395C23.8746 20.5973 24.0531 20.286 24.3081 20.0442C24.5631 19.8024 24.8833 19.6407 25.2293 19.579C25.5752 19.5173 25.9316 19.5584 26.2545 19.6972C26.5773 19.8359 26.8524 20.0663 27.0456 20.3597C27.2389 20.6532 27.3419 20.9969 27.3419 21.3483C27.3286 21.8371 27.1218 22.3006 26.767 22.6371C26.4122 22.9736 25.9384 23.1555 25.4496 23.1429Z" fill="black"/>
	<path d="M32.6706 18.7701V17.8616H30.5323V24.837H32.6752V21.5805C32.6752 20.4817 33.8662 19.8911 34.6926 19.8911C34.7009 19.8911 34.709 19.8919 34.7173 19.892V17.862C34.3301 17.8516 33.9455 17.9278 33.5914 18.0849C33.2373 18.242 32.9227 18.4761 32.6706 18.7701Z" fill="black"/>
	<path d="M53.6887 22.3623C53.4294 22.3623 53.176 22.4392 52.9605 22.5832C52.7449 22.7273 52.5769 22.932 52.4777 23.1715C52.3785 23.4111 52.3525 23.6746 52.4031 23.9289C52.4537 24.1832 52.5786 24.4167 52.7619 24.6001C52.9452 24.7834 53.1788 24.9082 53.4331 24.9588C53.6873 25.0094 53.9509 24.9834 54.1904 24.8842C54.4299 24.785 54.6347 24.6169 54.7787 24.4014C54.9227 24.1858 54.9996 23.9324 54.9996 23.6731C54.9996 23.501 54.9657 23.3305 54.8998 23.1715C54.834 23.0124 54.7374 22.8679 54.6157 22.7462C54.4939 22.6245 54.3494 22.5279 54.1904 22.462C54.0313 22.3962 53.8609 22.3623 53.6887 22.3623Z" fill="black"/>
	<path d="M17.0493 14.75H14.7842C14.7877 15.6584 14.5776 16.5548 14.1708 17.367C13.7639 18.1791 13.1718 18.8842 12.4422 19.4253L11.5449 20.0974L15.022 24.839H17.8806L14.6814 20.4761C15.4359 19.7262 16.0338 18.8338 16.4403 17.8508C16.8468 16.8678 17.0538 15.8137 17.0493 14.75Z" fill="black"/>
	<path d="M11.2691 14.75H9V24.8386H11.2691V14.75Z" fill="black"/>
</svg>
