<svg width="64" height="40" viewBox="0 0 64 40" fill="none" xmlns="http://www.w3.org/2000/svg">
<rect width="64" height="40" fill="white"/>
<path d="M18.2277 10.0565C17.0672 10.4235 16.6491 11.9253 17.4512 12.8555C18.2363 13.7771 19.6955 13.6149 20.2928 12.5397C20.8901 11.4645 20.1307 10.0736 18.9189 10.0053C18.6715 9.98828 18.3557 10.0139 18.2277 10.0565ZM11 19.6139V29.0859L12.5616 29.0688L14.1147 29.0432L14.1403 19.5883L14.1573 10.1419H11V19.6139ZM41.0373 18.0352V25.9371L40.7216 26.0821C40.5253 26.1675 40.1584 26.2187 39.8 26.2272C39.3136 26.2272 39.1515 26.1931 38.9296 26.0309C38.4432 25.6896 38.4091 25.4251 38.3579 22.3019C38.3152 19.2299 38.2128 18.4277 37.7605 17.4379C37.0779 15.9445 35.3115 15.0997 33.5536 15.4496C31.1984 15.9104 29.5429 17.3611 27.256 20.9877L26.488 22.1995L26.4624 18.9056L26.4453 15.6032H23.3733V29.0859H26.2576L26.5733 28.3435C27.5205 26.1419 29.1077 23.3173 30.3109 21.7045C32.3248 18.9995 34.1851 18.0181 34.8336 19.3152C35.0981 19.8528 35.1664 20.5525 35.2347 23.1979C35.2859 25.3739 35.3285 25.9712 35.448 26.3552C36.1221 28.5141 37.9397 29.5893 40.3547 29.2736C42.3941 29.0005 44.0923 28.0448 46.2256 25.9712C46.8827 25.3312 47.3861 24.9045 47.4203 24.9557C47.4544 25.0069 48.0517 25.9541 48.7429 27.0635L50.0059 29.0859H51.7467C52.8219 29.0859 53.5045 29.0517 53.5387 29.0005C53.5643 28.9493 52.6512 27.4048 51.4992 25.5616L49.4 22.208L50.0827 21.1755C51.0002 19.7598 51.8405 18.2957 52.6 16.7893C52.9072 16.1835 53.1547 15.6715 53.1547 15.6459C53.1547 15.6203 52.3781 15.6032 51.4309 15.6032L49.6987 15.6117L49.0672 16.7808C47.8811 18.9909 46.3963 21.1669 44.92 22.8651L44.2373 23.6416L44.1947 16.9173L44.152 10.1845L42.5989 10.1589L41.0373 10.1419V18.0352ZM17.2293 22.3445V29.0859H20.3013V15.6032H17.2293V22.3445Z" fill="black"/>
</svg>
