<svg width="64" height="40" viewBox="0 0 64 40" fill="none" xmlns="http://www.w3.org/2000/svg">
<rect width="64" height="40" fill="white"/>
<path d="M32.0933 13.7576C32.0933 12.9116 32.8325 12.224 33.7024 12.224C34.5723 12.224 35.3115 12.9152 35.3115 13.7576C35.3115 14.6 34.5984 15.3092 33.7024 15.3092C32.8064 15.3092 32.0933 14.6216 32.0933 13.7576Z" fill="#011E0F"/>
<path d="M27.3184 12.44H30.1184V27.56H27.3184V12.44Z" fill="#011E0F"/>
<path d="M35.1173 16.76H32.2949V27.56H35.1173V16.76Z" fill="#011E0F"/>
<path d="M55.408 21.7928C57.5323 20.5328 58.9771 18.6572 59.5483 16.7564H56.7259C55.9904 18.5708 54.3029 19.9352 52.4475 20.5148V12.4364H49.6251V27.5564H52.4475V23.06C54.6016 23.5784 56.304 25.3748 56.8864 27.5564H59.7275C59.2944 25.2668 57.6704 23.1248 55.408 21.7928Z" fill="#011E0F"/>
<path d="M40.12 17.9696C40.8592 17.0228 42.3003 16.472 43.4688 16.472C45.6491 16.472 47.4523 18.0092 47.456 20.3312V27.5564H44.6336V20.9324C44.6336 19.9784 44.1931 18.8768 42.7632 18.8768C41.0832 18.8768 40.1163 20.3132 40.1163 21.9944V27.5636H37.2939V16.7672H40.12V17.9696Z" fill="#011E0F"/>
<path d="M13.3333 29C18.488 29 22.6667 24.9705 22.6667 20C22.6667 15.0294 18.488 11 13.3333 11C8.17868 11 4 15.0294 4 20C4 24.9705 8.17868 29 13.3333 29Z" fill="#00D66F"/>
<path d="M12.9039 14.6H10.0255C10.5855 16.8572 12.2207 18.7868 14.2666 20C12.217 21.2132 10.5855 23.1428 10.0255 25.4H12.9039C13.617 23.312 15.5919 21.4976 18.0186 21.1268V18.8697C15.5882 18.5025 13.6133 16.688 12.9039 14.6Z" fill="#011E0F"/>
</svg>
