<svg width="266" height="168" viewBox="0 0 150 120" fill="none" xmlns="http://www.w3.org/2000/svg">
<circle opacity="0.4" cx="57" cy="60" r="52" fill="#F2EDFF"/>
<circle cx="57" cy="60" r="36" fill="#F2EDFF"/>
<g filter="url(#filter0_d_2548_136504)">
<rect x="37" y="40" width="40" height="40" rx="20" fill="#674399" shape-rendering="crispEdges"/>
<mask id="mask0_2548_136504" style="mask-type:luminance" maskUnits="userSpaceOnUse" x="47" y="52" width="20" height="16">
<path fill-rule="evenodd" clip-rule="evenodd" d="M65 52H49C47.895 52 47 52.895 47 54V66C47 67.105 47.895 68 49 68H65C66.105 68 67 67.105 67 66V54C67 52.895 66.105 52 65 52ZM65 54V56H49V54H65ZM49 60V66H65V60H49ZM51 62H58V64H51V62ZM63 62H60V64H63V62Z" fill="white"/>
</mask>
<g mask="url(#mask0_2548_136504)">
<rect x="45" y="48" width="24" height="24" fill="white"/>
</g>
</g>
<g filter="url(#filter1_d_2548_136504)">
<g clip-path="url(#clip0_2548_136504)">
<path d="M119.178 88H85.0382C83.9125 88 83 88.9125 83 90.0382V109.962C83 111.087 83.9125 112 85.0382 112H119.178C120.304 112 121.217 111.087 121.217 109.962V90.0382C121.217 88.9125 120.304 88 119.178 88Z" fill="white"/>
<path d="M89.9668 94.6002C89.9668 93.2747 91.0413 92.2002 92.3668 92.2002H112.081C113.407 92.2002 114.481 93.2747 114.481 94.6002V105.4C114.481 106.726 113.407 107.8 112.081 107.8H92.3668C91.0413 107.8 89.9668 106.726 89.9668 105.4V94.6002Z" fill="white"/>
<path fill-rule="evenodd" clip-rule="evenodd" d="M112.081 93.4002H92.3668C91.7041 93.4002 91.1668 93.9375 91.1668 94.6002V105.4C91.1668 106.063 91.7041 106.6 92.3668 106.6H112.081C112.744 106.6 113.281 106.063 113.281 105.4V94.6002C113.281 93.9375 112.744 93.4002 112.081 93.4002ZM92.3668 92.2002C91.0413 92.2002 89.9668 93.2747 89.9668 94.6002V105.4C89.9668 106.726 91.0413 107.8 92.3668 107.8H112.081C113.407 107.8 114.481 106.726 114.481 105.4V94.6002C114.481 93.2747 113.407 92.2002 112.081 92.2002H92.3668Z" fill="#0F3365"/>
<path d="M102.224 92.2002H110.481C112.69 92.2002 114.481 93.9911 114.481 96.2002V103.8C114.481 106.009 112.69 107.8 110.481 107.8H102.224V92.2002Z" fill="#0F3365"/>
<path fill-rule="evenodd" clip-rule="evenodd" d="M103.895 104.864H106.448V101.314H106.477C106.959 102.092 107.924 102.38 108.818 102.38C111.017 102.38 112.194 100.774 112.194 98.842C112.194 97.2617 111.074 95.543 109.031 95.543C107.868 95.543 106.789 95.9569 106.279 96.8727H106.25V95.6934H103.895V104.864ZM109.556 98.8924C109.556 99.9338 108.974 100.649 108.01 100.649C107.158 100.649 106.448 99.9338 106.448 98.98C106.448 98.0018 107.073 97.2741 108.01 97.2741C109.002 97.2741 109.556 98.0264 109.556 98.8924Z" fill="#FFFFFE"/>
<path fill-rule="evenodd" clip-rule="evenodd" d="M100.548 95.6934H98.235V96.8723H98.2073C97.668 96.0698 96.7882 95.543 95.6962 95.543C93.3983 95.543 92.3625 96.9978 92.3625 98.9424C92.3625 100.875 93.6251 102.229 95.6539 102.229C96.6752 102.229 97.5262 101.878 98.1358 101.112H98.1645V101.464C98.1645 102.744 97.3705 103.358 95.8949 103.358C94.8309 103.358 94.1784 103.158 93.3983 102.819L93.2703 104.601C93.8663 104.788 94.8736 105.014 96.0934 105.014C99.0725 105.014 100.548 104.148 100.548 101.464V95.6934ZM95.0011 98.9046C95.0011 98.0142 95.4976 97.2741 96.4481 97.2741C97.5969 97.2741 98.0794 98.0888 98.0794 98.8167C98.0794 99.8208 97.3557 100.498 96.4481 100.498C95.6821 100.498 95.0011 99.9204 95.0011 98.9046Z" fill="#D8232A"/>
</g>
</g>
<g filter="url(#filter2_d_2548_136504)">
<g clip-path="url(#clip1_2548_136504)">
<path d="M119.178 8H85.0382C83.9125 8 83 8.91254 83 10.0382V29.9618C83 31.0875 83.9125 32 85.0382 32H119.178C120.304 32 121.217 31.0875 121.217 29.9618V10.0382C121.217 8.91254 120.304 8 119.178 8Z" fill="#EF809F"/>
<path d="M99.9997 23.0554C100.296 23.346 100.302 23.821 100.011 24.1172L99.955 24.1787C99.6644 24.4749 99.1894 24.4805 98.8932 24.1899L97.2165 22.53C96.7527 22.0661 96.6912 21.4961 96.9818 21.1943L97.0377 21.1328C97.278 20.8813 97.6748 20.859 97.9487 21.0713C98.0772 21.1719 98.2672 21.1496 98.3734 21.0211C98.474 20.8925 98.4516 20.7025 98.3231 20.5963C97.8034 20.1883 97.06 20.2386 96.6018 20.7081L96.5459 20.7696C96.0038 21.3284 96.11 22.2729 96.7862 22.9492L98.4684 24.6258C99.0105 25.1455 99.8656 25.1344 100.391 24.5978L100.452 24.5364C100.967 23.9999 100.955 23.1504 100.424 22.625C100.307 22.5077 100.117 22.5077 99.9997 22.6306C99.8768 22.748 99.8768 22.938 99.9997 23.0554ZM98.9938 14.0519L99.6812 19.6965C99.6979 19.8586 99.8488 19.9815 100.016 19.9592C100.179 19.9424 100.302 19.7915 100.279 19.6239L99.5918 13.9569L99.5862 13.9233C99.4688 13.4539 99.7594 12.9285 100.151 12.8447C100.369 12.8 100.598 12.8391 100.782 12.9621C100.967 13.085 101.095 13.275 101.14 13.493L102.336 18.6011C102.375 18.7632 102.537 18.8638 102.699 18.8247C102.861 18.7856 102.962 18.6235 102.923 18.4614L101.732 13.3701C101.66 13.0012 101.436 12.6715 101.117 12.4591C100.799 12.2467 100.402 12.1741 100.028 12.2523C99.29 12.4088 98.8093 13.2695 98.9938 14.0519Z" fill="white"/>
<path d="M105.298 20.6801L106.656 13.9177C106.812 13.1912 106.382 12.4591 105.661 12.2467C104.856 12.0455 104.046 12.515 103.839 13.3086L102.336 18.4558C102.291 18.6179 102.38 18.7855 102.543 18.8303C102.705 18.875 102.872 18.7855 102.917 18.6235L104.42 13.4706C104.549 12.9956 105.03 12.7106 105.499 12.8279C105.901 12.9509 106.153 13.37 106.063 13.7948L104.705 20.5628C104.672 20.7248 104.778 20.8869 104.94 20.9204C105.108 20.9484 105.27 20.8422 105.298 20.6801ZM101.883 27.1966C99.7314 27.1966 97.9374 25.6206 97.9374 23.3795C97.9374 23.2118 97.8033 23.0777 97.6356 23.0777C97.468 23.0777 97.3339 23.2118 97.3339 23.3795C97.3339 25.9727 99.4185 27.8002 101.883 27.8002C102.051 27.8002 102.185 27.6661 102.185 27.4984C102.185 27.3307 102.051 27.1966 101.883 27.1966ZM100.821 21.9264C100.777 22.0941 100.67 22.245 100.525 22.34L100.458 22.3791C100.111 22.6138 99.642 22.5244 99.4073 22.1779L98.0883 20.2163C97.7307 19.6686 97.7754 19.0985 98.1219 18.8582L98.1833 18.8135C98.6304 18.5564 99.0049 18.752 99.3905 19.3165L100.491 20.9596C100.587 21.0993 100.771 21.1328 100.911 21.0434C101.05 20.954 101.084 20.764 100.994 20.6242L99.8935 18.9811C99.3458 18.1875 98.6752 17.8355 97.8648 18.3049L97.781 18.3608C97.1327 18.8023 97.0544 19.7524 97.5853 20.5516L98.9043 22.5188C99.329 23.1392 100.167 23.3013 100.788 22.8821L100.855 22.8374C101.117 22.6585 101.307 22.3903 101.397 22.0829C101.442 21.9208 101.347 21.7588 101.185 21.714C101.028 21.6693 100.866 21.7643 100.821 21.9264Z" fill="white"/>
<path d="M102.816 22.9209C102.19 23.273 101.799 23.9269 101.755 24.9273C101.743 25.095 101.872 25.2347 102.04 25.2459C102.207 25.2514 102.347 25.1285 102.358 24.9608C102.403 24.0555 102.755 23.5692 103.319 23.3569C103.621 23.2451 103.951 23.2227 104.242 23.2507L104.314 23.2618C104.7 23.3345 104.823 22.7589 104.437 22.6694L102.118 22.1497C101.034 21.8535 100.866 21.4511 101.067 20.7804C101.157 20.4898 101.33 20.3389 101.604 20.2775C101.782 20.2383 101.978 20.2439 102.168 20.2775C102.224 20.2886 102.263 20.2942 102.28 20.2998L105.801 21.1214L105.868 21.1437C105.924 21.1661 105.985 21.2108 106.047 21.2723C106.281 21.5237 106.416 21.9988 106.348 22.7812C106.119 25.5197 104.845 27.2187 101.816 27.1907C101.648 27.1907 101.514 27.3249 101.514 27.4869C101.514 27.6546 101.648 27.7887 101.81 27.7887C105.208 27.8167 106.695 25.8439 106.946 22.8259C107.025 21.887 106.851 21.2443 106.488 20.8587C106.287 20.6463 106.075 20.5457 105.913 20.5234L102.431 19.713C102.408 19.7074 102.353 19.6906 102.274 19.6795C102.012 19.6348 101.738 19.6292 101.47 19.685C101 19.7912 100.642 20.0874 100.491 20.6016C100.201 21.5685 100.508 22.3285 101.973 22.7253L102.816 22.9209Z" fill="white"/>
</g>
</g>
<g filter="url(#filter3_d_2548_136504)">
<g clip-path="url(#clip2_2548_136504)">
<path d="M136.178 48H102.038C100.913 48 100 48.9125 100 50.0382V69.9618C100 71.0875 100.913 72 102.038 72H136.178C137.304 72 138.217 71.0875 138.217 69.9618V50.0382C138.217 48.9125 137.304 48 136.178 48Z" fill="white"/>
<path d="M108.22 50.2197V69.6897H119.56C127.06 69.6897 130.3 65.4897 130.3 59.9397C130.3 54.3897 127 50.2197 119.56 50.2197H108.22Z" fill="white"/>
<path fill-rule="evenodd" clip-rule="evenodd" d="M119.56 51.4502H109.45V68.4602H119.56C125.38 68.4602 129.07 65.6102 129.07 59.9402C129.07 55.2002 126.43 51.4502 119.56 51.4502ZM110.41 67.5002V52.4702H119.56C124.84 52.4702 128.08 54.8702 128.08 59.9702C128.08 64.9202 125.08 67.5002 119.56 67.5002H110.41Z" fill="black"/>
<path d="M111.64 61.0195H114.58V66.2395H111.64V61.0195Z" fill="black"/>
<path d="M113.11 60.2401C114.121 60.2401 114.94 59.4208 114.94 58.4101C114.94 57.3994 114.121 56.5801 113.11 56.5801C112.099 56.5801 111.28 57.3994 111.28 58.4101C111.28 59.4208 112.099 60.2401 113.11 60.2401Z" fill="black"/>
<path fill-rule="evenodd" clip-rule="evenodd" d="M124.75 56.7296H125.59V59.2496H126.82C126.49 54.6596 122.86 53.6396 119.56 53.6396H116.05V56.7296H116.56C117.52 56.7296 118.09 57.3596 118.09 58.4096C118.09 59.4596 117.52 60.0896 116.59 60.0896H116.05V66.2396H119.56C124.93 66.2396 126.76 63.7497 126.85 60.0896H124.75V56.7296ZM120.7 59.2497V60.0897H118.6V56.7296H120.64V57.5697H119.44V57.9597H120.58V58.7997H119.47V59.2497H120.7ZM121.06 60.0897L122.08 56.7296H123.28L124.3 60.0897H123.43L123.25 59.4597H122.14L121.96 60.0897H121.06ZM122.389 58.5896H122.38V58.6196L122.389 58.5896ZM122.389 58.5896H122.98L122.71 57.6596H122.68L122.389 58.5896ZM116.05 59.2496V57.5696H116.56C116.89 57.5696 117.25 57.6596 117.25 58.4096C117.25 59.1596 116.92 59.2496 116.56 59.2496H116.05Z" fill="#D50072"/>
</g>
</g>
<defs>
<filter id="filter0_d_2548_136504" x="32" y="37" width="50" height="50" filterUnits="userSpaceOnUse" color-interpolation-filters="sRGB">
<feFlood flood-opacity="0" result="BackgroundImageFix"/>
<feColorMatrix in="SourceAlpha" type="matrix" values="0 0 0 0 0 0 0 0 0 0 0 0 0 0 0 0 0 0 127 0" result="hardAlpha"/>
<feOffset dy="2"/>
<feGaussianBlur stdDeviation="2.5"/>
<feComposite in2="hardAlpha" operator="out"/>
<feColorMatrix type="matrix" values="0 0 0 0 0 0 0 0 0 0 0 0 0 0 0 0 0 0 0.2 0"/>
<feBlend mode="normal" in2="BackgroundImageFix" result="effect1_dropShadow_2548_136504"/>
<feBlend mode="normal" in="SourceGraphic" in2="effect1_dropShadow_2548_136504" result="shape"/>
</filter>
<filter id="filter1_d_2548_136504" x="78" y="83" width="48.2166" height="34" filterUnits="userSpaceOnUse" color-interpolation-filters="sRGB">
<feFlood flood-opacity="0" result="BackgroundImageFix"/>
<feColorMatrix in="SourceAlpha" type="matrix" values="0 0 0 0 0 0 0 0 0 0 0 0 0 0 0 0 0 0 127 0" result="hardAlpha"/>
<feOffset/>
<feGaussianBlur stdDeviation="2.5"/>
<feComposite in2="hardAlpha" operator="out"/>
<feColorMatrix type="matrix" values="0 0 0 0 0 0 0 0 0 0 0 0 0 0 0 0 0 0 0.08 0"/>
<feBlend mode="normal" in2="BackgroundImageFix" result="effect1_dropShadow_2548_136504"/>
<feBlend mode="normal" in="SourceGraphic" in2="effect1_dropShadow_2548_136504" result="shape"/>
</filter>
<filter id="filter2_d_2548_136504" x="78" y="3" width="48.2166" height="34" filterUnits="userSpaceOnUse" color-interpolation-filters="sRGB">
<feFlood flood-opacity="0" result="BackgroundImageFix"/>
<feColorMatrix in="SourceAlpha" type="matrix" values="0 0 0 0 0 0 0 0 0 0 0 0 0 0 0 0 0 0 127 0" result="hardAlpha"/>
<feOffset/>
<feGaussianBlur stdDeviation="2.5"/>
<feComposite in2="hardAlpha" operator="out"/>
<feColorMatrix type="matrix" values="0 0 0 0 0 0 0 0 0 0 0 0 0 0 0 0 0 0 0.08 0"/>
<feBlend mode="normal" in2="BackgroundImageFix" result="effect1_dropShadow_2548_136504"/>
<feBlend mode="normal" in="SourceGraphic" in2="effect1_dropShadow_2548_136504" result="shape"/>
</filter>
<filter id="filter3_d_2548_136504" x="95" y="43" width="48.2166" height="34" filterUnits="userSpaceOnUse" color-interpolation-filters="sRGB">
<feFlood flood-opacity="0" result="BackgroundImageFix"/>
<feColorMatrix in="SourceAlpha" type="matrix" values="0 0 0 0 0 0 0 0 0 0 0 0 0 0 0 0 0 0 127 0" result="hardAlpha"/>
<feOffset/>
<feGaussianBlur stdDeviation="2.5"/>
<feComposite in2="hardAlpha" operator="out"/>
<feColorMatrix type="matrix" values="0 0 0 0 0 0 0 0 0 0 0 0 0 0 0 0 0 0 0.08 0"/>
<feBlend mode="normal" in2="BackgroundImageFix" result="effect1_dropShadow_2548_136504"/>
<feBlend mode="normal" in="SourceGraphic" in2="effect1_dropShadow_2548_136504" result="shape"/>
</filter>
<clipPath id="clip0_2548_136504">
<rect x="83" y="88" width="38.2166" height="24" rx="6" fill="white"/>
</clipPath>
<clipPath id="clip1_2548_136504">
<rect x="83" y="8" width="38.2166" height="24" rx="6" fill="white"/>
</clipPath>
<clipPath id="clip2_2548_136504">
<rect x="100" y="48" width="38.2166" height="24" rx="6" fill="white"/>
</clipPath>
</defs>
</svg>
