<svg width="266" height="168" viewBox="0 0 190 120" fill="none" xmlns="http://www.w3.org/2000/svg">
	<circle opacity="0.4" cx="97" cy="60" r="52" fill="#F2EDFF"/>
	<circle cx="97" cy="60" r="36" fill="#F2EDFF"/>
	<g filter="url(#filter0_d_2548_136504)">
		<rect x="77" y="40" width="40" height="40" rx="20" fill="#674399" shape-rendering="crispEdges"/>
		<mask id="mask0_2548_136504" style="mask-type:luminance" maskUnits="userSpaceOnUse" x="87" y="52" width="20" height="16">
			<path fill-rule="evenodd" clip-rule="evenodd" d="M105 52H89C87.895 52 87 52.895 87 54V66C87 67.105 87.895 68 89 68H105C106.105 68 107 67.105 107 66V54C107 52.895 106.105 52 105 52ZM105 54V56H89V54H105ZM89 60V66H105V60H89ZM91 62H98V64H91V62ZM103 62H100V64H103V62Z" fill="white"/>
		</mask>
		<g mask="url(#mask0_2548_136504)">
			<rect x="85" y="48" width="24" height="24" fill="white"/>
		</g>
	</g>
	<g filter="url(#filter1_d_2548_136504)">
		<g clip-path="url(#clip0_2548_136504)">
			<path d="M159.178 88H125.038C123.913 88 123 88.9125 123 90.0382V109.962C123 111.087 123.913 112 125.038 112H159.178C160.304 112 161.217 111.087 161.217 109.962V90.0382C161.217 88.9125 160.304 88 159.178 88Z" fill="white"/>
			<path d="M129.967 94.6002C129.967 93.2747 131.041 92.2002 132.367 92.2002H152.081C153.407 92.2002 154.481 93.2747 154.481 94.6002V105.4C154.481 106.726 153.407 107.8 152.081 107.8H132.367C131.041 107.8 129.967 106.726 129.967 105.4V94.6002Z" fill="white"/>
			<path fill-rule="evenodd" clip-rule="evenodd" d="M152.081 93.4002H132.367C131.704 93.4002 131.167 93.9375 131.167 94.6002V105.4C131.167 106.063 131.704 106.6 132.367 106.6H152.081C152.744 106.6 153.281 106.063 153.281 105.4V94.6002C153.281 93.9375 152.744 93.4002 152.081 93.4002ZM132.367 92.2002C131.041 92.2002 129.967 93.2747 129.967 94.6002V105.4C129.967 106.726 131.041 107.8 132.367 107.8H152.081C153.407 107.8 154.481 106.726 154.481 105.4V94.6002C154.481 93.2747 153.407 92.2002 152.081 92.2002H132.367Z" fill="#0F3365"/>
			<path d="M142.224 92.2002H150.481C152.69 92.2002 154.481 93.9911 154.481 96.2002V103.8C154.481 106.009 152.69 107.8 150.481 107.8H142.224V92.2002Z" fill="#0F3365"/>
			<path fill-rule="evenodd" clip-rule="evenodd" d="M143.895 104.864H146.448V101.314H146.477C146.959 102.092 147.924 102.38 148.818 102.38C151.017 102.38 152.194 100.774 152.194 98.842C152.194 97.2617 151.074 95.543 149.031 95.543C147.868 95.543 146.789 95.9569 146.279 96.8727H146.25V95.6934H143.895V104.864ZM149.556 98.8924C149.556 99.9338 148.974 100.649 148.01 100.649C147.158 100.649 146.448 99.9338 146.448 98.98C146.448 98.0018 147.073 97.2741 148.01 97.2741C149.002 97.2741 149.556 98.0264 149.556 98.8924Z" fill="#FFFFFE"/>
			<path fill-rule="evenodd" clip-rule="evenodd" d="M140.548 95.6934H138.235V96.8723H138.207C137.668 96.0698 136.788 95.543 135.696 95.543C133.398 95.543 132.363 96.9978 132.363 98.9424C132.363 100.875 133.625 102.229 135.654 102.229C136.675 102.229 137.526 101.878 138.136 101.112H138.165V101.464C138.165 102.744 137.37 103.358 135.895 103.358C134.831 103.358 134.178 103.158 133.398 102.819L133.27 104.601C133.866 104.788 134.874 105.014 136.093 105.014C139.073 105.014 140.548 104.148 140.548 101.464V95.6934ZM135.001 98.9046C135.001 98.0142 135.498 97.2741 136.448 97.2741C137.597 97.2741 138.079 98.0888 138.079 98.8167C138.079 99.8208 137.356 100.498 136.448 100.498C135.682 100.498 135.001 99.9204 135.001 98.9046Z" fill="#D8232A"/>
		</g>
	</g>
	<g filter="url(#filter2_d_2548_136504)">
		<g clip-path="url(#clip1_2548_136504)">
			<path d="M159.178 8H125.038C123.913 8 123 8.91254 123 10.0382V29.9618C123 31.0875 123.913 32 125.038 32H159.178C160.304 32 161.217 31.0875 161.217 29.9618V10.0382C161.217 8.91254 160.304 8 159.178 8Z" fill="#EF809F"/>
			<path d="M140 23.0554C140.296 23.346 140.302 23.821 140.011 24.1172L139.955 24.1787C139.664 24.4749 139.189 24.4805 138.893 24.1899L137.217 22.53C136.753 22.0661 136.691 21.4961 136.982 21.1943L137.038 21.1328C137.278 20.8813 137.675 20.859 137.949 21.0713C138.077 21.1719 138.267 21.1496 138.373 21.0211C138.474 20.8925 138.452 20.7025 138.323 20.5963C137.803 20.1883 137.06 20.2386 136.602 20.7081L136.546 20.7696C136.004 21.3284 136.11 22.2729 136.786 22.9492L138.468 24.6258C139.011 25.1455 139.866 25.1344 140.391 24.5978L140.452 24.5364C140.967 23.9999 140.955 23.1504 140.424 22.625C140.307 22.5077 140.117 22.5077 140 22.6306C139.877 22.748 139.877 22.938 140 23.0554ZM138.994 14.0519L139.681 19.6965C139.698 19.8586 139.849 19.9815 140.016 19.9592C140.179 19.9424 140.302 19.7915 140.279 19.6239L139.592 13.9569L139.586 13.9233C139.469 13.4539 139.759 12.9285 140.151 12.8447C140.369 12.8 140.598 12.8391 140.782 12.9621C140.967 13.085 141.095 13.275 141.14 13.493L142.336 18.6011C142.375 18.7632 142.537 18.8638 142.699 18.8247C142.861 18.7856 142.962 18.6235 142.923 18.4614L141.732 13.3701C141.66 13.0012 141.436 12.6715 141.117 12.4591C140.799 12.2467 140.402 12.1741 140.028 12.2523C139.29 12.4088 138.809 13.2695 138.994 14.0519Z" fill="white"/>
			<path d="M145.298 20.6801L146.656 13.9177C146.812 13.1912 146.382 12.4591 145.661 12.2467C144.856 12.0455 144.046 12.515 143.839 13.3086L142.336 18.4558C142.291 18.6179 142.38 18.7855 142.543 18.8303C142.705 18.875 142.872 18.7855 142.917 18.6235L144.42 13.4706C144.549 12.9956 145.03 12.7106 145.499 12.8279C145.901 12.9509 146.153 13.37 146.063 13.7948L144.705 20.5628C144.672 20.7248 144.778 20.8869 144.94 20.9204C145.108 20.9484 145.27 20.8422 145.298 20.6801ZM141.883 27.1966C139.731 27.1966 137.937 25.6206 137.937 23.3795C137.937 23.2118 137.803 23.0777 137.636 23.0777C137.468 23.0777 137.334 23.2118 137.334 23.3795C137.334 25.9727 139.418 27.8002 141.883 27.8002C142.051 27.8002 142.185 27.6661 142.185 27.4984C142.185 27.3307 142.051 27.1966 141.883 27.1966ZM140.821 21.9264C140.777 22.0941 140.67 22.245 140.525 22.34L140.458 22.3791C140.111 22.6138 139.642 22.5244 139.407 22.1779L138.088 20.2163C137.731 19.6686 137.775 19.0985 138.122 18.8582L138.183 18.8135C138.63 18.5564 139.005 18.752 139.391 19.3165L140.491 20.9596C140.587 21.0993 140.771 21.1328 140.911 21.0434C141.05 20.954 141.084 20.764 140.994 20.6242L139.893 18.9811C139.346 18.1875 138.675 17.8355 137.865 18.3049L137.781 18.3608C137.133 18.8023 137.054 19.7524 137.585 20.5516L138.904 22.5188C139.329 23.1392 140.167 23.3013 140.788 22.8821L140.855 22.8374C141.117 22.6585 141.307 22.3903 141.397 22.0829C141.442 21.9208 141.347 21.7588 141.185 21.714C141.028 21.6693 140.866 21.7643 140.821 21.9264Z" fill="white"/>
			<path d="M142.816 22.9209C142.19 23.273 141.799 23.9269 141.755 24.9273C141.743 25.095 141.872 25.2347 142.04 25.2459C142.207 25.2514 142.347 25.1285 142.358 24.9608C142.403 24.0555 142.755 23.5692 143.319 23.3569C143.621 23.2451 143.951 23.2227 144.242 23.2507L144.314 23.2618C144.7 23.3345 144.823 22.7589 144.437 22.6694L142.118 22.1497C141.034 21.8535 140.866 21.4511 141.067 20.7804C141.157 20.4898 141.33 20.3389 141.604 20.2775C141.782 20.2383 141.978 20.2439 142.168 20.2775C142.224 20.2886 142.263 20.2942 142.28 20.2998L145.801 21.1214L145.868 21.1437C145.924 21.1661 145.985 21.2108 146.047 21.2723C146.281 21.5237 146.416 21.9988 146.348 22.7812C146.119 25.5197 144.845 27.2187 141.816 27.1907C141.648 27.1907 141.514 27.3249 141.514 27.4869C141.514 27.6546 141.648 27.7887 141.81 27.7887C145.208 27.8167 146.695 25.8439 146.946 22.8259C147.025 21.887 146.851 21.2443 146.488 20.8587C146.287 20.6463 146.075 20.5457 145.913 20.5234L142.431 19.713C142.408 19.7074 142.353 19.6906 142.274 19.6795C142.012 19.6348 141.738 19.6292 141.47 19.685C141 19.7912 140.642 20.0874 140.491 20.6016C140.201 21.5685 140.508 22.3285 141.973 22.7253L142.816 22.9209Z" fill="white"/>
		</g>
	</g>
	<g filter="url(#filter3_d_2548_136504)">
		<g clip-path="url(#clip2_2548_136504)">
			<path d="M176.178 48H142.038C140.913 48 140 48.9125 140 50.0382V69.9618C140 71.0875 140.913 72 142.038 72H176.178C177.304 72 178.217 71.0875 178.217 69.9618V50.0382C178.217 48.9125 177.304 48 176.178 48Z" fill="white"/>
			<path d="M148.22 50.2197V69.6897H159.56C167.06 69.6897 170.3 65.4897 170.3 59.9397C170.3 54.3897 167 50.2197 159.56 50.2197H148.22Z" fill="white"/>
			<path fill-rule="evenodd" clip-rule="evenodd" d="M159.56 51.4502H149.45V68.4602H159.56C165.38 68.4602 169.07 65.6102 169.07 59.9402C169.07 55.2002 166.43 51.4502 159.56 51.4502ZM150.41 67.5002V52.4702H159.56C164.84 52.4702 168.08 54.8702 168.08 59.9702C168.08 64.9202 165.08 67.5002 159.56 67.5002H150.41Z" fill="black"/>
			<path d="M151.64 61.0195H154.58V66.2395H151.64V61.0195Z" fill="black"/>
			<path d="M153.11 60.2401C154.121 60.2401 154.94 59.4208 154.94 58.4101C154.94 57.3994 154.121 56.5801 153.11 56.5801C152.099 56.5801 151.28 57.3994 151.28 58.4101C151.28 59.4208 152.099 60.2401 153.11 60.2401Z" fill="black"/>
			<path fill-rule="evenodd" clip-rule="evenodd" d="M164.75 56.7296H165.59V59.2496H166.82C166.49 54.6596 162.86 53.6396 159.56 53.6396H156.05V56.7296H156.56C157.52 56.7296 158.09 57.3596 158.09 58.4096C158.09 59.4596 157.52 60.0896 156.59 60.0896H156.05V66.2396H159.56C164.93 66.2396 166.76 63.7497 166.85 60.0896H164.75V56.7296ZM160.7 59.2497V60.0897H158.6V56.7296H160.64V57.5697H159.44V57.9597H160.58V58.7997H159.47V59.2497H160.7ZM161.06 60.0897L162.08 56.7296H163.28L164.3 60.0897H163.43L163.25 59.4597H162.14L161.96 60.0897H161.06ZM162.389 58.5896H162.38V58.6196L162.389 58.5896ZM162.389 58.5896H162.98L162.71 57.6596H162.68L162.389 58.5896ZM156.05 59.2496V57.5696H156.56C156.89 57.5696 157.25 57.6596 157.25 58.4096C157.25 59.1596 156.92 59.2496 156.56 59.2496H156.05Z" fill="#D50072"/>
		</g>
	</g>
	<defs>
		<filter id="filter0_d_2548_136504" x="72" y="37" width="50" height="50" filterUnits="userSpaceOnUse" color-interpolation-filters="sRGB">
			<feFlood flood-opacity="0" result="BackgroundImageFix"/>
			<feColorMatrix in="SourceAlpha" type="matrix" values="0 0 0 0 0 0 0 0 0 0 0 0 0 0 0 0 0 0 127 0" result="hardAlpha"/>
			<feOffset dy="2"/>
			<feGaussianBlur stdDeviation="2.5"/>
			<feComposite in2="hardAlpha" operator="out"/>
			<feColorMatrix type="matrix" values="0 0 0 0 0 0 0 0 0 0 0 0 0 0 0 0 0 0 0.2 0"/>
			<feBlend mode="normal" in2="BackgroundImageFix" result="effect1_dropShadow_2548_136504"/>
			<feBlend mode="normal" in="SourceGraphic" in2="effect1_dropShadow_2548_136504" result="shape"/>
		</filter>
		<filter id="filter1_d_2548_136504" x="118" y="83" width="48.2166" height="34" filterUnits="userSpaceOnUse" color-interpolation-filters="sRGB">
			<feFlood flood-opacity="0" result="BackgroundImageFix"/>
			<feColorMatrix in="SourceAlpha" type="matrix" values="0 0 0 0 0 0 0 0 0 0 0 0 0 0 0 0 0 0 127 0" result="hardAlpha"/>
			<feOffset/>
			<feGaussianBlur stdDeviation="2.5"/>
			<feComposite in2="hardAlpha" operator="out"/>
			<feColorMatrix type="matrix" values="0 0 0 0 0 0 0 0 0 0 0 0 0 0 0 0 0 0 0.08 0"/>
			<feBlend mode="normal" in2="BackgroundImageFix" result="effect1_dropShadow_2548_136504"/>
			<feBlend mode="normal" in="SourceGraphic" in2="effect1_dropShadow_2548_136504" result="shape"/>
		</filter>
		<filter id="filter2_d_2548_136504" x="118" y="3" width="48.2166" height="34" filterUnits="userSpaceOnUse" color-interpolation-filters="sRGB">
			<feFlood flood-opacity="0" result="BackgroundImageFix"/>
			<feColorMatrix in="SourceAlpha" type="matrix" values="0 0 0 0 0 0 0 0 0 0 0 0 0 0 0 0 0 0 127 0" result="hardAlpha"/>
			<feOffset/>
			<feGaussianBlur stdDeviation="2.5"/>
			<feComposite in2="hardAlpha" operator="out"/>
			<feColorMatrix type="matrix" values="0 0 0 0 0 0 0 0 0 0 0 0 0 0 0 0 0 0 0.08 0"/>
			<feBlend mode="normal" in2="BackgroundImageFix" result="effect1_dropShadow_2548_136504"/>
			<feBlend mode="normal" in="SourceGraphic" in2="effect1_dropShadow_2548_136504" result="shape"/>
		</filter>
		<filter id="filter3_d_2548_136504" x="135" y="43" width="48.2166" height="34" filterUnits="userSpaceOnUse" color-interpolation-filters="sRGB">
			<feFlood flood-opacity="0" result="BackgroundImageFix"/>
			<feColorMatrix in="SourceAlpha" type="matrix" values="0 0 0 0 0 0 0 0 0 0 0 0 0 0 0 0 0 0 127 0" result="hardAlpha"/>
			<feOffset/>
			<feGaussianBlur stdDeviation="2.5"/>
			<feComposite in2="hardAlpha" operator="out"/>
			<feColorMatrix type="matrix" values="0 0 0 0 0 0 0 0 0 0 0 0 0 0 0 0 0 0 0.08 0"/>
			<feBlend mode="normal" in2="BackgroundImageFix" result="effect1_dropShadow_2548_136504"/>
			<feBlend mode="normal" in="SourceGraphic" in2="effect1_dropShadow_2548_136504" result="shape"/>
		</filter>
		<clipPath id="clip0_2548_136504">
			<rect x="123" y="88" width="38.2166" height="24" rx="6" fill="white"/>
		</clipPath>
		<clipPath id="clip1_2548_136504">
			<rect x="123" y="8" width="38.2166" height="24" rx="6" fill="white"/>
		</clipPath>
		<clipPath id="clip2_2548_136504">
			<rect x="140" y="48" width="38.2166" height="24" rx="6" fill="white"/>
		</clipPath>
	</defs>
</svg>
