<svg width="266" height="168" viewBox="0 0 266 168" fill="none" xmlns="http://www.w3.org/2000/svg">
<circle opacity="0.4" cx="140" cy="84" r="72.8" fill="#F2EDFF"/>
<circle cx="140" cy="84" r="50.4" fill="#F2EDFF"/>
<g filter="url(#filter0_d_8_2658)">
<rect x="112" y="56" width="56" height="56" rx="28" fill="#674399" shape-rendering="crispEdges"/>
<mask id="mask0_8_2658" style="mask-type:luminance" maskUnits="userSpaceOnUse" x="126" y="72" width="28" height="24">
<path fill-rule="evenodd" clip-rule="evenodd" d="M151.2 72.8H128.8C127.253 72.8 126 74.053 126 75.6V92.4C126 93.947 127.253 95.2 128.8 95.2H151.2C152.747 95.2 154 93.947 154 92.4V75.6C154 74.053 152.747 72.8 151.2 72.8ZM151.2 75.6V78.4H128.8V75.6H151.2ZM128.8 84V92.4H151.2V84H128.8ZM131.6 86.8H141.4V89.6H131.6V86.8ZM148.4 86.8H144.2V89.6H148.4V86.8Z" fill="white"/>
</mask>
<g mask="url(#mask0_8_2658)">
<rect x="123.2" y="67.2" width="33.6" height="33.6" fill="white"/>
</g>
</g>
<g filter="url(#filter1_d_8_2658)">
<g clip-path="url(#clip0_8_2658)">
<path d="M81.4497 98H33.6535C32.0775 98 30.8 99.2776 30.8 100.854V128.746C30.8 130.322 32.0775 131.6 33.6535 131.6H81.4497C83.0256 131.6 84.3032 130.322 84.3032 128.746V100.854C84.3032 99.2776 83.0256 98 81.4497 98Z" fill="white"/>
<path d="M40.5535 107.24C40.5535 105.384 42.0579 103.88 43.9135 103.88H71.5135C73.3692 103.88 74.8735 105.384 74.8735 107.24V122.36C74.8735 124.216 73.3692 125.72 71.5135 125.72H43.9135C42.0578 125.72 40.5535 124.216 40.5535 122.36V107.24Z" fill="white"/>
<path fill-rule="evenodd" clip-rule="evenodd" d="M71.5135 105.56H43.9135C42.9857 105.56 42.2335 106.312 42.2335 107.24V122.36C42.2335 123.288 42.9857 124.04 43.9135 124.04H71.5135C72.4414 124.04 73.1935 123.288 73.1935 122.36V107.24C73.1935 106.312 72.4414 105.56 71.5135 105.56ZM43.9135 103.88C42.0579 103.88 40.5535 105.384 40.5535 107.24V122.36C40.5535 124.216 42.0578 125.72 43.9135 125.72H71.5135C73.3692 125.72 74.8735 124.216 74.8735 122.36V107.24C74.8735 105.384 73.3692 103.88 71.5135 103.88H43.9135Z" fill="#0F3365"/>
<path d="M57.7134 103.88H69.2734C72.3662 103.88 74.8734 106.387 74.8734 109.48V120.12C74.8734 123.213 72.3662 125.72 69.2734 125.72H57.7134V103.88Z" fill="#0F3365"/>
<path fill-rule="evenodd" clip-rule="evenodd" d="M60.0535 121.609H63.6278V116.639H63.6677C64.3432 117.728 65.6939 118.131 66.9449 118.131C70.0232 118.131 71.6714 115.883 71.6714 113.179C71.6714 110.966 70.1037 108.56 67.2434 108.56C65.6148 108.56 64.1049 109.14 63.3901 110.422H63.3502V108.771H60.0535V121.609V121.609ZM67.9778 113.249C67.9778 114.707 67.1633 115.708 65.8137 115.708C64.6215 115.708 63.6275 114.707 63.6275 113.372C63.6275 112.002 64.5022 110.984 65.8137 110.984C67.2032 110.984 67.9778 112.037 67.9778 113.249V113.249Z" fill="#FFFFFE"/>
<path fill-rule="evenodd" clip-rule="evenodd" d="M55.3669 108.771H52.129V110.421H52.0901C51.3352 109.298 50.1035 108.56 48.5746 108.56C45.3576 108.56 43.9075 110.597 43.9075 113.319C43.9075 116.025 45.6751 117.92 48.5154 117.92C49.9452 117.92 51.1367 117.43 51.99 116.357H52.0303V116.85C52.0303 118.641 50.9186 119.501 48.8529 119.501C47.3632 119.501 46.4497 119.221 45.3576 118.747L45.1784 121.241C46.0129 121.503 47.423 121.82 49.1308 121.82C53.3015 121.82 55.3669 120.608 55.3669 116.85V108.771V108.771ZM47.6014 113.266C47.6014 112.02 48.2966 110.984 49.6273 110.984C51.2356 110.984 51.9111 112.124 51.9111 113.143C51.9111 114.549 50.8979 115.497 49.6273 115.497C48.5549 115.497 47.6014 114.688 47.6014 113.266V113.266Z" fill="#D8232A"/>
</g>
</g>
<g filter="url(#filter2_d_8_2658)">
<g clip-path="url(#clip1_8_2658)">
<path d="M80.0497 42H32.2535C30.6776 42 29.4 43.2776 29.4 44.8535V72.7465C29.4 74.3224 30.6776 75.6 32.2535 75.6H80.0497C81.6256 75.6 82.9032 74.3224 82.9032 72.7465V44.8535C82.9032 43.2776 81.6256 42 80.0497 42Z" fill="white"/>
<path d="M40.908 45.108V72.366H56.784C67.284 72.366 71.82 66.486 71.82 58.716C71.82 50.946 67.2 45.108 56.784 45.108H40.908Z" fill="white"/>
<path fill-rule="evenodd" clip-rule="evenodd" d="M56.7841 46.83H42.6301V70.644H56.7841C64.9321 70.644 70.0981 66.654 70.0981 58.716C70.0981 52.08 66.4021 46.83 56.7841 46.83ZM43.9741 69.3V48.258H56.7841C64.1761 48.258 68.7121 51.618 68.7121 58.758C68.7121 65.688 64.5121 69.3 56.7841 69.3H43.9741Z" fill="black"/>
<path d="M45.696 60.228H49.812V67.536H45.696V60.228Z" fill="black"/>
<path d="M47.754 59.136C49.169 59.136 50.316 57.989 50.316 56.574C50.316 55.159 49.169 54.012 47.754 54.012C46.3391 54.012 45.192 55.159 45.192 56.574C45.192 57.989 46.3391 59.136 47.754 59.136Z" fill="black"/>
<path fill-rule="evenodd" clip-rule="evenodd" d="M64.0501 54.222H65.2261V57.75H66.9481C66.4861 51.324 61.4041 49.896 56.7841 49.896H51.8701V54.222H52.5841C53.9281 54.222 54.7261 55.104 54.7261 56.574C54.7261 58.044 53.9281 58.926 52.6261 58.926H51.8701V67.536H56.7841C64.3021 67.536 66.8641 64.05 66.9901 58.926H64.0501V54.222ZM58.3801 57.75V58.926H55.4401V54.222H58.2961V55.398H56.6161V55.944H58.2121V57.12H56.6581V57.75H58.3801ZM58.8841 58.926L60.3121 54.222H61.9921L63.4201 58.926H62.2021L61.9501 58.044H60.3961L60.1441 58.926H58.8841ZM60.7452 56.826H60.7321V56.868L60.7452 56.826ZM60.7452 56.826H61.5721L61.1941 55.524H61.1521L60.7452 56.826ZM51.8701 57.75V55.398H52.5841C53.0461 55.398 53.5501 55.524 53.5501 56.574C53.5501 57.624 53.0881 57.75 52.5841 57.75H51.8701Z" fill="#D50072"/>
</g>
</g>
<rect x="196" y="39" width="53.5" height="33.4375" rx="8.35938" fill="white"/>
<path d="M208.663 56.9979H212.669L212.53 57.921L209.182 61.1894H211.992L211.825 62.1878H207.689L207.856 61.1517L211.074 58.0152H208.505L208.672 56.9979M204.286 55.4061C204.202 55.3119 204.072 55.2366 203.942 55.1801C203.794 55.1235 203.627 55.0859 203.479 55.0482C203.301 55.0168 203.121 54.9979 202.941 54.9917H199.667L198.508 62.1972H199.602L200.029 59.5222L202.143 59.5316C202.143 59.5316 202.969 59.5693 203.553 59.2491C204.137 58.9382 204.295 58.213 204.295 58.213C204.295 58.213 204.36 57.9492 204.406 57.629C204.471 57.2375 204.53 56.845 204.582 56.4516L204.592 56.2632C204.592 56.1031 204.573 55.8582 204.453 55.6322C204.407 55.5494 204.351 55.4734 204.286 55.4061ZM203.451 56.6777C203.451 56.6871 203.358 57.2617 203.228 57.9492C203.173 58.213 202.978 58.3543 202.755 58.4014C202.384 58.4861 201.976 58.4673 201.976 58.4673H200.224L200.613 56.0749H202.468C202.635 56.0749 202.867 56.0843 203.052 56.1125C203.219 56.1314 203.34 56.1691 203.386 56.2161C203.442 56.2915 203.46 56.3763 203.469 56.4516L203.46 56.6777H203.451ZM218.104 54.9917H219.152L217.974 62.1972H216.926L218.104 54.9917ZM223.706 56.9979H224.707L225.069 60.6525L226.618 56.9885H227.86L228.231 60.6619L229.771 56.9885H230.81L228.593 62.1878H227.36L226.998 58.5426L225.431 62.1784H224.225L223.706 56.9885M216.166 57.0356C215.869 56.9414 215.359 56.9226 214.932 56.9226C214.515 56.9226 214.32 56.9508 214.163 56.9885C214.163 56.9885 213.421 57.0921 212.994 57.629C212.693 58.1471 212.506 58.7256 212.447 59.3244C212.447 59.3244 212.196 60.6242 212.271 61.0481C212.345 61.4814 212.475 61.877 212.957 62.0654C213.43 62.2537 213.838 62.2537 213.838 62.2537C213.838 62.2537 214.682 62.3102 215.322 62.1595C215.971 62.0088 216.305 61.5473 216.305 61.5473C216.305 61.5473 216.453 61.3495 216.564 61.114C216.667 60.8786 216.704 60.709 216.704 60.6902L216.778 60.4076H215.683C215.683 60.4076 215.628 61.1423 215.034 61.2176C214.45 61.2836 214.135 61.2553 214.014 61.2553C213.912 61.2459 213.272 61.2742 213.328 60.7373V60.6996C213.365 60.0874 213.421 59.9272 213.421 59.9272H216.852L216.991 59.0513C217.158 58.0811 217.037 57.3276 216.156 57.0356H216.166ZM215.934 58.9288H213.597L213.69 58.5521C213.69 58.5521 213.773 58.2507 213.931 58.1282C214.098 58.0058 214.302 57.9775 214.487 57.9587C214.691 57.9398 215.21 57.9021 215.637 57.9869C215.776 58.0152 215.906 58.0999 215.943 58.2224C216.027 58.505 215.943 58.9288 215.943 58.9288H215.934ZM219.792 60.709L219.783 60.7373V60.7184L219.792 60.709Z" fill="#D13239"/>
<path d="M222.611 57.0356C222.324 56.9414 221.814 56.9226 221.378 56.932C220.96 56.932 220.766 56.9508 220.608 56.9885C220.608 56.9885 219.866 57.1015 219.449 57.629C219.144 58.1463 218.954 58.7249 218.892 59.3244C218.892 59.3244 218.651 60.6242 218.725 61.0575C218.8 61.4814 218.929 61.8864 219.402 62.0654C219.875 62.2537 220.283 62.2537 220.283 62.2537C220.283 62.2537 221.137 62.3197 221.767 62.1595C222.416 62.0088 222.75 61.5473 222.75 61.5473C222.75 61.5473 222.899 61.3495 223.01 61.114C223.121 60.8786 223.149 60.709 223.158 60.6902L223.223 60.4076H222.138C222.138 60.4076 222.073 61.1517 221.489 61.2176C220.905 61.2836 220.589 61.2553 220.469 61.2553C220.358 61.2553 219.727 61.2742 219.783 60.7373V60.709C219.81 60.0968 219.875 59.9367 219.875 59.9367L223.297 59.9272L223.437 59.0607C223.613 58.0811 223.492 57.3276 222.611 57.045V57.0356ZM222.379 58.9288H220.033L220.126 58.5521C220.126 58.5521 220.209 58.2507 220.367 58.1282C220.534 58.0058 220.738 57.9775 220.933 57.9587C221.127 57.9398 221.647 57.9022 222.073 57.9869C222.212 58.0152 222.352 58.1 222.379 58.2224C222.463 58.505 222.379 58.9288 222.379 58.9288ZM232.024 56.9979L232.692 60.7938L234.593 56.9979H235.669L232.924 62.4327C232.924 62.4327 232.432 63.4217 232.117 63.6572C231.811 63.9115 231.626 64.0339 231.375 64.0528C231.125 64.081 231.023 64.0999 230.782 64.0528L230.522 64.0057L230.68 63.0355C230.68 63.0355 231.106 63.1203 231.357 63.0167C231.616 62.9131 231.82 62.4704 231.82 62.4704L231.941 62.2537L230.949 56.9979H232.024Z" fill="#D13239"/>
<path d="M236.059 57.5066H237.162L237.227 57.0733C237.227 57.0733 237.348 56.2915 237.607 56.1314C237.7 56.0843 237.83 56.0372 237.978 56.0089C238.275 55.9618 238.637 55.9524 238.943 55.9618C239.397 55.9807 239.574 55.9901 240.037 56.0372C240.501 56.0937 240.39 56.5552 240.39 56.5552L240.297 57.2428C240.297 57.2428 240.251 57.5536 240.149 57.742C240.056 57.9116 239.787 58.0246 239.638 58.0811C239.268 58.2036 238.034 58.5238 238.034 58.5238L237.051 58.8064C237.051 58.8064 236.448 58.9948 236.124 59.3715C235.78 59.7483 235.641 60.1816 235.595 60.4076L235.298 62.1972H240.575L240.751 61.114H236.578L236.652 60.6808C236.652 60.6808 236.699 60.2286 236.875 60.0779C236.93 60.0308 236.968 59.9649 237.292 59.8519C237.496 59.7765 238.173 59.5882 238.173 59.5882L239.75 59.1455C239.75 59.1455 240.612 58.9288 240.946 58.439C241.28 57.9681 241.41 57.045 241.41 57.045C241.41 57.045 241.503 56.1502 241.438 55.8771C241.363 55.5945 241.104 55.2554 240.788 55.1235C240.473 54.9728 240.149 54.8881 239.203 54.8975C238.56 54.8621 237.915 54.945 237.301 55.1424C236.819 55.3308 236.541 55.651 236.365 56.122C236.17 56.5552 236.059 57.516 236.059 57.516V57.5066ZM245.991 59.5128L246.733 54.9917H245.426L241.345 59.4657L241.159 60.596H244.73L244.47 62.1972H245.565L245.824 60.596H246.835L247.021 59.5128H246.001H245.991ZM244.906 59.5128H242.597L245.407 56.461L244.906 59.5222V59.5128ZM206.604 55.5851H209.961C209.961 55.5851 210.722 54.954 211.26 54.549C211.788 54.1534 212.762 53.5317 212.762 53.5317L210.861 52.6181C210.861 52.6181 209.257 53.6353 208.57 54.1157C207.921 54.5584 206.604 55.5851 206.604 55.5851ZM213.829 52.8912L212.271 51.8175C212.271 51.8175 213.68 50.998 215.554 50.2351C217.427 49.4627 218.429 49.1519 218.429 49.1519L218.744 50.6589C218.744 50.6589 216.945 51.2806 215.906 51.7892C214.84 52.2507 213.829 52.8818 213.829 52.8818V52.8912ZM219.903 50.3387L219.625 48.7751C219.625 48.7751 221.554 48.2571 223.316 47.9274C224.674 47.6938 226.042 47.5272 227.415 47.4282L226.645 49.8301C226.645 49.8301 224.587 49.5475 222.658 49.8112C221.155 49.9996 219.903 50.3387 219.903 50.3387ZM227.86 50.0373L229.159 47.3623C229.159 47.3623 232.015 47.3058 234.473 47.6919C236.93 48.0781 239.184 48.6809 239.128 48.7092L232.896 52.0341C232.896 52.0341 231.44 51.0922 229.632 50.5176C228.612 50.2068 227.87 50.0373 227.87 50.0373H227.86ZM234.018 52.7594L235.372 53.8331H246.631C246.631 53.8331 246.613 53.4564 246.307 52.9289C246.054 52.5497 245.758 52.2019 245.426 51.8928C245.296 51.761 244.776 51.3465 244.387 51.0828C243.395 50.4235 242.838 50.1691 241.809 49.6888L234.009 52.7688L234.018 52.7594Z" fill="#B3B2B1"/>
<path d="M207.337 56.9885C206.91 56.9885 206.511 57.158 206.168 57.3558L206.233 56.9885H205.111L204.211 62.169H205.333L205.834 59.2962C205.927 58.7216 206.363 57.9963 207.188 57.9963H207.773L207.939 56.9885H207.337Z" fill="#D13239"/>
<g filter="url(#filter3_d_8_2658)">
<rect x="197" y="95" width="53.5" height="33.4375" rx="8.4" fill="white"/>
<path d="M237.881 112.115H234.748C234.665 112.116 234.583 112.1 234.506 112.069C234.43 112.038 234.36 111.992 234.302 111.934C234.243 111.876 234.196 111.806 234.164 111.73C234.132 111.654 234.116 111.572 234.116 111.49C234.116 111.142 234.4 110.836 234.748 110.836H239.518V108.484H234.748C233.947 108.485 233.18 108.804 232.615 109.369C232.049 109.935 231.73 110.702 231.728 111.502C231.728 113.163 233.082 114.52 234.748 114.52H237.839C237.921 114.519 238.003 114.535 238.08 114.566C238.156 114.597 238.226 114.643 238.285 114.701C238.344 114.759 238.39 114.828 238.422 114.905C238.454 114.981 238.471 115.063 238.471 115.145C238.471 115.493 238.187 115.749 237.839 115.749H231.21C230.647 116.823 230.101 117.744 228.99 118.204H237.881C239.518 118.181 240.857 116.795 240.857 115.149C240.857 113.503 239.518 112.138 237.881 112.115Z" fill="#71706F"/>
<path d="M225.868 108.483C223.212 108.483 221.049 110.659 221.049 113.333V123.422H223.454V118.203H225.863C228.52 118.203 230.675 115.999 230.675 113.325C230.675 110.65 228.525 108.483 225.868 108.483ZM225.868 115.747H223.454V113.325C223.454 111.97 224.532 110.869 225.868 110.869C227.206 110.869 228.292 111.97 228.292 113.325C228.292 114.679 227.206 115.747 225.868 115.747Z" fill="#71706F"/>
<path d="M213.437 118.203C211.163 118.203 209.251 116.583 208.734 114.466C208.734 114.466 208.585 113.767 208.585 113.306C208.585 112.846 208.727 112.138 208.727 112.138C209.247 110.027 211.157 108.455 213.426 108.455C216.096 108.455 218.287 110.625 218.287 113.295V114.469H211.194C211.612 115.287 212.46 115.748 213.437 115.748H219.813L219.821 108.825C219.82 108.328 219.622 107.851 219.27 107.499C218.919 107.148 218.442 106.95 217.945 106.948H208.908C207.876 106.948 207.031 107.767 207.031 108.799V117.835C207.031 118.869 207.876 119.738 208.908 119.738H217.944C218.871 119.738 219.644 119.073 219.794 118.203H213.437Z" fill="#C8036F"/>
<path d="M213.426 110.752C212.453 110.752 211.607 111.348 211.186 112.115H215.666C215.246 111.348 214.4 110.752 213.426 110.752ZM217.519 104.009C217.519 101.805 215.687 100.016 213.426 100.016C211.203 100.016 209.394 101.745 209.334 103.9V105.127C209.334 105.271 209.451 105.413 209.598 105.413H211.105C211.252 105.413 211.381 105.271 211.381 105.127V104.009C211.381 102.908 212.298 102.011 213.427 102.011C214.556 102.011 215.473 102.908 215.473 104.009V105.127C215.473 105.271 215.593 105.413 215.741 105.413H217.246C217.394 105.413 217.52 105.271 217.52 105.127V104.009H217.519Z" fill="#C8036F"/>
</g>
<defs>
<filter id="filter0_d_8_2658" x="105" y="51.8" width="70" height="70" filterUnits="userSpaceOnUse" color-interpolation-filters="sRGB">
<feFlood flood-opacity="0" result="BackgroundImageFix"/>
<feColorMatrix in="SourceAlpha" type="matrix" values="0 0 0 0 0 0 0 0 0 0 0 0 0 0 0 0 0 0 127 0" result="hardAlpha"/>
<feOffset dy="2.8"/>
<feGaussianBlur stdDeviation="3.5"/>
<feComposite in2="hardAlpha" operator="out"/>
<feColorMatrix type="matrix" values="0 0 0 0 0 0 0 0 0 0 0 0 0 0 0 0 0 0 0.2 0"/>
<feBlend mode="normal" in2="BackgroundImageFix" result="effect1_dropShadow_8_2658"/>
<feBlend mode="normal" in="SourceGraphic" in2="effect1_dropShadow_8_2658" result="shape"/>
</filter>
<filter id="filter1_d_8_2658" x="23.8" y="91" width="67.5032" height="47.6" filterUnits="userSpaceOnUse" color-interpolation-filters="sRGB">
<feFlood flood-opacity="0" result="BackgroundImageFix"/>
<feColorMatrix in="SourceAlpha" type="matrix" values="0 0 0 0 0 0 0 0 0 0 0 0 0 0 0 0 0 0 127 0" result="hardAlpha"/>
<feOffset/>
<feGaussianBlur stdDeviation="3.5"/>
<feComposite in2="hardAlpha" operator="out"/>
<feColorMatrix type="matrix" values="0 0 0 0 0 0 0 0 0 0 0 0 0 0 0 0 0 0 0.08 0"/>
<feBlend mode="normal" in2="BackgroundImageFix" result="effect1_dropShadow_8_2658"/>
<feBlend mode="normal" in="SourceGraphic" in2="effect1_dropShadow_8_2658" result="shape"/>
</filter>
<filter id="filter2_d_8_2658" x="22.4" y="35" width="67.5032" height="47.6" filterUnits="userSpaceOnUse" color-interpolation-filters="sRGB">
<feFlood flood-opacity="0" result="BackgroundImageFix"/>
<feColorMatrix in="SourceAlpha" type="matrix" values="0 0 0 0 0 0 0 0 0 0 0 0 0 0 0 0 0 0 127 0" result="hardAlpha"/>
<feOffset/>
<feGaussianBlur stdDeviation="3.5"/>
<feComposite in2="hardAlpha" operator="out"/>
<feColorMatrix type="matrix" values="0 0 0 0 0 0 0 0 0 0 0 0 0 0 0 0 0 0 0.08 0"/>
<feBlend mode="normal" in2="BackgroundImageFix" result="effect1_dropShadow_8_2658"/>
<feBlend mode="normal" in="SourceGraphic" in2="effect1_dropShadow_8_2658" result="shape"/>
</filter>
<filter id="filter3_d_8_2658" x="190" y="88" width="67.5" height="47.4375" filterUnits="userSpaceOnUse" color-interpolation-filters="sRGB">
<feFlood flood-opacity="0" result="BackgroundImageFix"/>
<feColorMatrix in="SourceAlpha" type="matrix" values="0 0 0 0 0 0 0 0 0 0 0 0 0 0 0 0 0 0 127 0" result="hardAlpha"/>
<feOffset/>
<feGaussianBlur stdDeviation="3.5"/>
<feComposite in2="hardAlpha" operator="out"/>
<feColorMatrix type="matrix" values="0 0 0 0 0 0 0 0 0 0 0 0 0 0 0 0 0 0 0.08 0"/>
<feBlend mode="normal" in2="BackgroundImageFix" result="effect1_dropShadow_8_2658"/>
<feBlend mode="normal" in="SourceGraphic" in2="effect1_dropShadow_8_2658" result="shape"/>
</filter>
<clipPath id="clip0_8_2658">
<rect x="30.8" y="98" width="53.5032" height="33.6" rx="8.4" fill="white"/>
</clipPath>
<clipPath id="clip1_8_2658">
<rect x="29.4" y="42" width="53.5032" height="33.6" rx="8.4" fill="white"/>
</clipPath>
</defs>
</svg>
