<svg width="64" height="40" viewBox="0 0 64 40" fill="none" xmlns="http://www.w3.org/2000/svg">
<rect width="64" height="40" fill="white"/>
<path d="M15.1482 21.5303H19.9409L19.7745 22.6345L15.7695 26.5443H19.1311L18.9314 27.7387H13.9833L14.183 26.4993L18.0327 22.7472H14.9596L15.1593 21.5303M9.91172 19.626C9.81187 19.5133 9.65655 19.4232 9.50124 19.3556C9.32373 19.288 9.12403 19.2429 8.94652 19.1979C8.73382 19.1603 8.51882 19.1377 8.30306 19.1302H4.38678L3 27.75H4.30912L4.81946 24.55L7.34895 24.5612C7.34895 24.5612 8.33634 24.6063 9.03528 24.2232C9.73421 23.8514 9.92282 22.9838 9.92282 22.9838C9.92282 22.9838 10.0005 22.6683 10.0559 22.2852C10.1334 21.8168 10.2037 21.3473 10.2667 20.8767L10.2778 20.6514C10.2778 20.4598 10.2556 20.1669 10.1114 19.8964C10.0573 19.7975 9.99014 19.7065 9.91172 19.626ZM8.91324 21.1472C8.91324 21.1584 8.8023 21.8457 8.64698 22.6683C8.58041 22.9838 8.34743 23.1528 8.08117 23.2091C7.6374 23.3105 7.14925 23.288 7.14925 23.288H5.05244L5.5184 20.426H7.73725C7.93694 20.426 8.2143 20.4373 8.43619 20.4711C8.63588 20.4936 8.78011 20.5387 8.83558 20.595C8.90215 20.6852 8.92433 20.7866 8.93543 20.8767L8.92433 21.1472H8.91324ZM26.4422 19.1302H27.6958L26.2868 27.75H25.0332L26.4422 19.1302ZM33.1431 21.5303H34.3413L34.774 25.9021L36.6267 21.519H38.1133L38.5571 25.9133L40.3987 21.519H41.6413L38.9898 27.7387H37.5142L37.0816 23.3781L35.2066 27.7274H33.7644L33.1431 21.519M24.1235 21.5753C23.7684 21.4626 23.1583 21.4401 22.6479 21.4401C22.1487 21.4401 21.9157 21.4739 21.7271 21.519C21.7271 21.519 20.8396 21.6429 20.3292 22.2852C19.9686 22.905 19.7453 23.597 19.6747 24.3133C19.6747 24.3133 19.3751 25.8683 19.4639 26.3753C19.5526 26.8936 19.708 27.3669 20.2849 27.5922C20.8507 27.8176 21.3388 27.8176 21.3388 27.8176C21.3388 27.8176 22.3484 27.8852 23.1139 27.7049C23.8905 27.5246 24.2899 26.9725 24.2899 26.9725C24.2899 26.9725 24.4674 26.7359 24.6005 26.4542C24.7226 26.1725 24.7669 25.9697 24.7669 25.9472L24.8557 25.6091H23.5466C23.5466 25.6091 23.48 26.488 22.77 26.5781C22.071 26.657 21.6938 26.6232 21.5496 26.6232C21.4276 26.6119 20.6621 26.6457 20.7286 26.0035V25.9584C20.773 25.226 20.8396 25.0345 20.8396 25.0345H24.9444L25.1109 23.9866C25.3106 22.826 25.1663 21.9246 24.1124 21.5753H24.1235ZM23.8461 23.8401H21.0504L21.1613 23.3894C21.1613 23.3894 21.2611 23.0288 21.4497 22.8824C21.6494 22.7359 21.8935 22.7021 22.1154 22.6795C22.3595 22.657 22.9808 22.6119 23.4911 22.7133C23.6575 22.7472 23.8128 22.8486 23.8572 22.995C23.9571 23.3331 23.8572 23.8401 23.8572 23.8401H23.8461ZM28.4613 25.9697L28.4502 26.0035V25.981L28.4613 25.9697Z" fill="#D13239"/>
<path d="M31.834 21.5753C31.4901 21.4626 30.8799 21.4401 30.3584 21.4513C29.8592 21.4513 29.6262 21.4739 29.4376 21.5189C29.4376 21.5189 28.5501 21.6541 28.0508 22.2851C27.6864 22.904 27.4592 23.5961 27.3852 24.3133C27.3852 24.3133 27.0967 25.8682 27.1855 26.3865C27.2742 26.8936 27.4296 27.3781 27.9954 27.5922C28.5612 27.8175 29.0493 27.8175 29.0493 27.8175C29.0493 27.8175 30.07 27.8964 30.8244 27.7048C31.601 27.5246 32.0004 26.9725 32.0004 26.9725C32.0004 26.9725 32.1779 26.7358 32.311 26.4541C32.4442 26.1725 32.4774 25.9696 32.4885 25.9471L32.5662 25.6091H31.2682C31.2682 25.6091 31.1905 26.4992 30.4916 26.5781C29.7926 26.657 29.4154 26.6232 29.2712 26.6232C29.1381 26.6232 28.3837 26.6457 28.4502 26.0034V25.9696C28.4835 25.2372 28.5612 25.0457 28.5612 25.0457L32.6549 25.0344L32.8214 23.9978C33.0322 22.826 32.8879 21.9246 31.834 21.5865V21.5753ZM31.5566 23.8401H28.7498L28.8607 23.3894C28.8607 23.3894 28.9606 23.0288 29.1492 22.8823C29.3489 22.7358 29.5929 22.702 29.8259 22.6795C30.0589 22.657 30.6802 22.6119 31.1905 22.7133C31.3569 22.7471 31.5233 22.8485 31.5566 22.995C31.6565 23.333 31.5566 23.8401 31.5566 23.8401ZM43.0947 21.5302L43.8934 26.071L46.1678 21.5302H47.4547L44.1708 28.0316C44.1708 28.0316 43.5828 29.2147 43.2056 29.4964C42.8395 29.8006 42.6176 29.9471 42.3181 29.9696C42.0185 30.0034 41.8965 30.026 41.608 29.9696L41.2974 29.9133L41.486 28.7527C41.486 28.7527 41.9963 28.8541 42.2959 28.7302C42.6065 28.6063 42.8506 28.0767 42.8506 28.0767L42.9948 27.8175L41.8077 21.5302H43.0947Z" fill="#D13239"/>
<path d="M47.9206 22.1387H49.2408L49.3185 21.6204C49.3185 21.6204 49.4627 20.6852 49.7733 20.4936C49.8843 20.4373 50.0396 20.3809 50.2171 20.3471C50.5721 20.2908 51.0048 20.2795 51.3709 20.2908C51.9145 20.3133 52.1253 20.3246 52.68 20.3809C53.2348 20.4485 53.1016 21.0006 53.1016 21.0006L52.9907 21.8232C52.9907 21.8232 52.9352 22.195 52.8132 22.4204C52.7022 22.6232 52.3805 22.7584 52.203 22.826C51.7592 22.9725 50.2837 23.3556 50.2837 23.3556L49.1077 23.6936C49.1077 23.6936 48.3866 23.919 47.9983 24.3697C47.5878 24.8204 47.4214 25.3387 47.3659 25.6091L47.0109 27.7499H53.3235L53.5343 26.4542H48.5419L48.6306 25.9359C48.6306 25.9359 48.6861 25.395 48.8969 25.2147C48.9635 25.1584 49.0078 25.0795 49.3961 24.9443C49.6402 24.8542 50.4501 24.6288 50.4501 24.6288L52.3361 24.0992C52.3361 24.0992 53.3679 23.8401 53.7673 23.2542C54.1667 22.6908 54.322 21.5866 54.322 21.5866C54.322 21.5866 54.4329 20.5161 54.3553 20.1894C54.2665 19.8514 53.9559 19.4457 53.5787 19.288C53.2015 19.1077 52.8132 19.0063 51.6816 19.0175C50.9123 18.9752 50.1418 19.0744 49.4072 19.3105C48.8303 19.5359 48.4975 19.919 48.2867 20.4823C48.0537 21.0006 47.9206 22.1499 47.9206 22.1499V22.1387ZM59.8026 24.5387L60.6901 19.1302H59.1258L54.2443 24.4823L54.0224 25.8345H58.2937L57.9831 27.7499H59.2922L59.6029 25.8345H60.8121L61.034 24.5387H59.8137H59.8026ZM58.5045 24.5387H55.7421L59.1036 20.888L58.5045 24.5499V24.5387ZM12.6852 19.8401H16.7014C16.7014 19.8401 17.6111 19.0852 18.2546 18.6006C18.8869 18.1274 20.0518 17.3837 20.0518 17.3837L17.7775 16.2908C17.7775 16.2908 15.8582 17.5077 15.0372 18.0823C14.2606 18.6119 12.6852 19.8401 12.6852 19.8401ZM21.3277 16.6176L19.4638 15.333C19.4638 15.333 21.1502 14.3528 23.3912 13.4401C25.6322 12.5161 26.8304 12.1443 26.8304 12.1443L27.2076 13.9471C27.2076 13.9471 25.0553 14.6908 23.8128 15.2992C22.5369 15.8514 21.3277 16.6063 21.3277 16.6063V16.6176ZM28.5944 13.564L28.2616 11.6936C28.2616 11.6936 30.5692 11.0739 32.6771 10.6795C34.3012 10.4 35.9377 10.2007 37.5808 10.0823L36.6599 12.9556C36.6599 12.9556 34.197 12.6175 31.8894 12.933C30.0921 13.1584 28.5944 13.564 28.5944 13.564ZM38.1133 13.2035L39.6665 10.0035C39.6665 10.0035 43.0835 9.93586 46.0235 10.3978C48.9635 10.8598 51.6594 11.5809 51.5928 11.6147L44.1375 15.5922C44.1375 15.5922 42.3957 14.4654 40.2323 13.7781C39.0119 13.4063 38.1244 13.2035 38.1244 13.2035H38.1133ZM45.4799 16.4598L47.0996 17.7443H60.5681C60.5681 17.7443 60.5459 17.2936 60.1798 16.6626C59.8775 16.2089 59.5238 15.7929 59.1258 15.4232C58.9705 15.2654 58.3492 14.7697 57.8832 14.4542C56.6962 13.6654 56.0305 13.3612 54.799 12.7866L45.4688 16.4711L45.4799 16.4598Z" fill="#B3B2B1"/>
<path d="M13.5617 21.519C13.0514 21.519 12.5743 21.7218 12.1638 21.9584L12.2415 21.519H10.8991L9.82294 27.7162H11.1653L11.7644 24.2795C11.8754 23.5922 12.3968 22.7246 13.3842 22.7246H14.0831L14.2828 21.519H13.5617Z" fill="#D13239"/>
</svg>
