<svg xmlns="http://www.w3.org/2000/svg" width="65" height="40" fill="none" viewBox="0 0 52.3 35.5"><path fill="#D13239" d="M11.3 21.36h4.32l-.15.98-3.61 3.47h3.03l-.18 1.06h-4.46l.18-1.1 3.47-3.33h-2.77l.18-1.08M6.58 19.67c-.09-.1-.23-.18-.37-.24-.16-.06-.34-.1-.5-.14a4.22 4.22 0 0 0-.58-.06H1.6L.35 26.88h1.18l.46-2.84 2.28.01s.89.04 1.52-.3c.63-.33.8-1.1.8-1.1s.07-.28.12-.62a40.72 40.72 0 0 0 .19-1.25l.01-.2c0-.17-.02-.43-.15-.67a1.1 1.1 0 0 0-.18-.24zm-.9 1.35c0 .01-.1.62-.24 1.35-.06.28-.27.43-.51.48-.4.09-.84.07-.84.07H2.2l.42-2.54h2c.18 0 .43.01.63.04.18.02.31.06.36.11.06.08.08.17.09.25l-.01.24zM21.48 19.23h1.13l-1.27 7.65h-1.13l1.27-7.65M27.52 21.36h1.08l.39 3.88 1.67-3.89H32l.4 3.9 1.66-3.9h1.12l-2.39 5.52h-1.33L31.07 23l-1.69 3.86h-1.3l-.56-5.51M19.39 21.4c-.32-.1-.87-.12-1.33-.12-.45 0-.66.03-.83.07 0 0-.8.11-1.26.68a4.4 4.4 0 0 0-.59 1.8s-.27 1.38-.19 1.83c.08.46.22.88.74 1.08.51.2.95.2.95.2s.91.06 1.6-.1c.7-.16 1.06-.65 1.06-.65s.16-.21.28-.46c.11-.25.15-.43.15-.45l.08-.3h-1.18s-.06.78-.7.86c-.63.07-.97.04-1.1.04-.11-.01-.8.02-.74-.55v-.04c.04-.65.1-.82.1-.82h3.7l.15-.93c.18-1.03.05-1.83-.9-2.14zm-.25 2.01h-2.52l.1-.4s.09-.32.26-.45c.18-.13.4-.16.6-.18.22-.02.78-.06 1.24.03.15.03.29.12.33.25.09.3 0 .75 0 .75zM16.34 25.3v.03-.03zM23.3 25.3l-.01.03v-.02z"/><path fill="#D13239" d="M26.34 21.4c-.31-.1-.86-.12-1.33-.11-.45 0-.66.02-.83.06 0 0-.8.12-1.25.68a4.4 4.4 0 0 0-.6 1.8s-.26 1.38-.18 1.84c.08.45.22.88.73 1.07.51.2.95.2.95.2s.92.07 1.6-.1c.7-.16 1.06-.65 1.06-.65s.16-.21.28-.46c.12-.25.15-.43.16-.45l.07-.3h-1.17s-.07.79-.7.86c-.63.07-.97.04-1.1.04-.12 0-.8.02-.74-.55v-.03c.03-.65.1-.82.1-.82l3.69-.01.15-.92c.19-1.04.06-1.84-.89-2.14zm-.25 2.01h-2.53l.1-.4s.09-.32.26-.45c.18-.13.4-.16.61-.18.21-.02.77-.06 1.23.03.15.03.3.12.33.25.09.3 0 .75 0 .75zM36.49 21.36l.72 4.03 2.05-4.03h1.16l-2.96 5.77s-.53 1.05-.87 1.3c-.33.27-.53.4-.8.42-.27.03-.38.05-.64 0l-.28-.05.17-1.03s.46.09.73-.02c.28-.11.5-.58.5-.58l.13-.23-1.07-5.58h1.16z"/><path fill="#B3B2B1" d="M40.84 21.9h1.19l.07-.46s.13-.83.41-1c.1-.05.24-.1.4-.13.32-.05.71-.06 1.04-.05.49.02.68.03 1.18.08.5.06.38.55.38.55l-.1.73s-.05.33-.16.53c-.1.18-.39.3-.55.36-.4.13-1.73.47-1.73.47l-1.06.3s-.65.2-1 .6c-.37.4-.52.86-.57 1.1l-.32 1.9h5.69l.19-1.15h-4.5l.08-.46s.05-.48.24-.64c.06-.05.1-.12.45-.24.22-.08.95-.28.95-.28l1.7-.47s.93-.23 1.29-.75c.36-.5.5-1.48.5-1.48s.1-.95.03-1.24c-.08-.3-.36-.66-.7-.8-.34-.16-.69-.25-1.71-.24a5.76 5.76 0 0 0-2.05.26c-.52.2-.82.54-1.01 1.04-.21.46-.33 1.48-.33 1.48zM51.55 24.03l.8-4.8h-1.41l-4.4 4.75-.2 1.2h3.85l-.28 1.7h1.18l.28-1.7h1.09l.2-1.15h-1.1zm-1.17 0h-2.49l3.03-3.24-.54 3.25zM9.08 19.86h3.62s.82-.67 1.4-1.1c.57-.42 1.62-1.08 1.62-1.08l-2.05-.97s-1.73 1.08-2.47 1.59c-.7.47-2.12 1.56-2.12 1.56zM16.87 17l-1.68-1.14s1.52-.87 3.54-1.68c2.02-.82 3.1-1.15 3.1-1.15l.34 1.6s-1.94.66-3.06 1.2c-1.15.49-2.24 1.16-2.24 1.16zM23.42 14.29l-.3-1.66s2.08-.55 3.98-.9a45.9 45.9 0 0 1 4.42-.53l-.83 2.55s-2.22-.3-4.3-.02c-1.62.2-2.97.56-2.97.56zM32 13.97l1.4-2.84s3.08-.06 5.73.35c2.65.41 5.08 1.05 5.02 1.08l-6.72 3.53s-1.57-1-3.52-1.61c-1.1-.33-1.9-.51-1.9-.51zM38.64 16.86 40.1 18h12.14s-.02-.4-.35-.96a6.2 6.2 0 0 0-.95-1.1c-.14-.14-.7-.58-1.12-.86-1.07-.7-1.67-.97-2.78-1.48l-8.41 3.27z"/><path fill="#D13239" d="M9.87 21.35c-.46 0-.89.18-1.26.39l.07-.39H7.47l-.97 5.5h1.21l.54-3.05c.1-.61.57-1.38 1.46-1.38h.63l.18-1.07h-.65z"/></svg>
