<?xml version="1.0" standalone="no"?>
<!DOCTYPE svg PUBLIC "-//W3C//DTD SVG 1.0//EN" "http://www.w3.org/TR/2001/REC-SVG-20010904/DTD/svg10.dtd">
<svg xmlns="http://www.w3.org/2000/svg" xmlns:xlink="http://www.w3.org/1999/xlink" id="body_1" width="53" height="40">

<g transform="matrix(0.051757812 0 0 0.052083336 0 0)">
	<g transform="matrix(0.5333334 0 0 0.5333334 -0 204.80002)">
	</g>
    <path transform="matrix(0.5333334 0 0 0.5333334 -0 204.80002)"  d="M409.6 384.9L566 384.7L560.3 420.3L429.5 545.2L539.3 545L532.9 583.4L371.2 583.5L378 543.8L503.4 423.7L403.3 423.7L409.6 384.9" stroke="none" fill="#D13239" fill-rule="nonzero" />
	<g transform="matrix(0.5333334 0 0 0.5333334 -0 204.80002)">
	</g>
    <path transform="matrix(0.5333334 0 0 0.5333334 -0 204.80002)"  d="M238.5 324C 235.1 320.4 230.2 317.6 224.8 315.4C 219.1 313.19998 212.8 311.6 206.6 310.5C 198.8 309.1 191.20001 308.5 185.8 308.3C 180.8 308.09998 177.6 308.09998 177.6 308.09998L177.6 308.09998L109.200005 308.09998L58.300003 308.09998L12.7 583.5L55.3 583.5L72.1 481.5L154.7 481.9C 154.7 481.9 186.9 483.19998 209.7 471.1C 232.5 459 238.59999 431.5 238.59999 431.5C 238.59999 431.5 241.09999 421.3 243.2 408.9C 245.5 395.19998 247.8 378.8 249 370.1C 249.5 366.30002 249.8 363.9 249.8 363.9C 249.8 363.9 250.40001 361.1 250.40001 356.69998C 250.50002 350.59998 249.6 341.4 244.8 332.59998C 243.1 329.5 241.1 326.7 238.5 324zM205.7 372.6C 205.7 373.1 201.9 395.2 196.9 421.4C 195 431.4 187.29999 436.8 178.5 438.69998C 163.9 441.8 148.2 441.19998 148.2 441.19998L148.2 441.19998L79.2 440.99997L94.399994 349.49997L156.9 349.69998C 156.9 349.69998 161.09999 349.59998 167 349.69998C 173.7 349.8 182.6 350.09998 189.9 351.09998C 196.2 351.89996 201.2 353.19998 202.79999 355.19998C 204.9 357.8 205.69998 361.19998 205.99998 364.19998C 206.4 368.6 205.7 372.3 205.7 372.6z" stroke="none" fill="#D13239" fill-rule="nonzero" />
	<g transform="matrix(0.5333334 0 0 0.5333334 -0 204.80002)">
	</g>
    <path transform="matrix(0.5333334 0 0 0.5333334 -0 204.80002)"  d="M778.1 308.1L819.1 308.1L773.2 583.5L732.1 583.4L778.1 308.1" stroke="none" fill="#D13239" fill-rule="nonzero" />
	<g transform="matrix(0.5333334 0 0 0.5333334 -0 204.80002)">
	</g>
    <path transform="matrix(0.5333334 0 0 0.5333334 -0 204.80002)"  d="M996.9 384.9L1036.2 384.8L1050.1 524.6L1110.6 384.6L1159.1 384.7L1173.4 525.1L1233.8 384.8L1274.6 384.8L1188 583.3L1139.6 583.3L1125.6 444.3L1064.5 583.3L1016.9 583.5L996.9 384.9" stroke="none" fill="#D13239" fill-rule="nonzero" />
	<g transform="matrix(0.5333334 0 0 0.5333334 -0 204.80002)">
	</g>
    <path transform="matrix(0.5333334 0 0 0.5333334 -0 204.80002)"  d="M702.4 386.5C 690.9 382.8 671 382 654.10004 382.2C 637.80005 382.40002 630.30005 383.2 624.2 384.5C 624.2 384.5 595.2 388.7 578.7 409.1C 562.2 429.5 557.3 474.1 557.3 474.1C 557.3 474.1 547.5 523.4 550.39996 539.9C 553.3 556.30005 558.39996 571.60004 576.99994 578.7C 595.5999 585.9 611.39996 585.5 611.39996 585.5C 611.39996 585.5 644.6 588.1 669.6 582.2C 694.6 576.3 707.8 558.7 707.8 558.7C 707.8 558.7 713.7 551.10004 717.89996 542.10004C 722.1 533.10004 723.39996 526.80005 723.6 526.00006L723.6 526.00006L726.19995 515.30005L683.69995 515.4C 683.69995 515.4 681.39996 543.5 658.39996 546.10004C 635.49994 548.7 623.19995 547.7 618.69995 547.50006C 614.2999 547.30005 589.69995 548.4001 591.69995 527.80005C 591.69995 527.50006 591.69995 527.10004 591.7999 526.50006C 592.8999 503.10007 595.49994 497.00006 595.49994 497.00006L595.49994 497.00006L728.99994 496.60007L734.69995 463.60007C 741.3 426.2 736.6 397.7 702.4 386.5zM693.5 458.9L602 458.8L605.6 444.3C 605.6 444.3 608.8 432.9 615.1 428.09998C 621.5 423.3 629.6 422.39996 637.19995 421.69998C 644.7999 420.99997 665.1 419.49997 681.6 422.9C 687.1 424 692.3 427.1 693.69995 431.69998C 696.9 442.5 693.5 458.9 693.5 458.9z" stroke="none" fill="#D13239" fill-rule="nonzero" />
	<g transform="matrix(0.5333334 0 0 0.5333334 -0 204.80002)">
	</g>
    <path transform="matrix(0.5333334 0 0 0.5333334 -0 204.80002)"  d="M592 526.9C 592 527.2 591.9 527.5 591.9 527.80005C 591.8 529.4 592 526.8 592 526.9z" stroke="none" fill="#D13239" fill-rule="nonzero" />
	<g transform="matrix(0.5333334 0 0 0.5333334 -0 204.80002)">
	</g>
    <path transform="matrix(0.5333334 0 0 0.5333334 -0 204.80002)"  d="M843.8 527C 843.8 527.3 843.7 527.6 843.7 527.9C 843.7 529.5 843.8 526.9 843.8 527z" stroke="none" fill="#D13239" fill-rule="nonzero" />
	<g transform="matrix(0.5333334 0 0 0.5333334 -0 204.80002)">
	</g>
    <path transform="matrix(0.5333334 0 0 0.5333334 -0 204.80002)"  d="M954.3 386.6C 942.8 382.9 922.89996 382.1 906 382.30002C 889.7 382.50003 882.2 383.30002 876.1 384.6C 876.1 384.6 847.1 388.80002 830.6 409.2C 814.1 429.6 809.19995 474.2 809.19995 474.2C 809.19995 474.2 799.39996 523.5 802.2999 540C 805.19995 556.4 810.2999 571.7 828.8999 578.8C 847.4999 586 863.2999 585.6 863.2999 585.6C 863.2999 585.6 896.49994 588.19995 921.49994 582.3C 946.49994 576.39996 959.69995 558.8 959.69995 558.8C 959.69995 558.8 965.6 551.2 969.7999 542.2C 973.99994 533.2 975.2999 526.9 975.49994 526.10004L975.49994 526.10004L978.0999 515.4L935.5999 515.5C 935.5999 515.5 933.2999 543.6 910.2999 546.2C 887.3999 548.8 875.0999 547.8 870.5999 547.7C 866.1999 547.5 841.5999 548.5 843.5999 528C 843.5999 527.7 843.5999 527.3 843.6999 526.7C 844.79987 503.30002 847.3999 497.2 847.3999 497.2L847.3999 497.2L980.8999 496.80002L986.5999 463.80002C 993.2 426.3 988.5 397.7 954.3 386.6zM945 458.9L853.5 458.8L857.1 444.3C 857.1 444.3 860.3 432.9 866.6 428.09998C 872.89996 423.3 881.1 422.39996 888.69995 421.69998C 896.2999 420.99997 916.6 419.49997 933.1 422.9C 938.6 424 943.8 427.1 945.19995 431.69998C 948.4 442.4 945 458.9 945 458.9z" stroke="none" fill="#D13239" fill-rule="nonzero" />
	<g transform="matrix(0.5333334 0 0 0.5333334 -0 204.80002)">
	</g>
    <path transform="matrix(0.5333334 0 0 0.5333334 -0 204.80002)"  d="M1321.8 384.9L1348.1001 530.1L1422.4001 384.8L1464.2002 385.19998L1357.1002 592.69995C 1357.1002 592.69995 1337.7002 630.2999 1325.7002 639.7999C 1313.7002 649.2999 1306.3002 653.5999 1296.5002 654.5999C 1286.7002 655.5999 1282.7002 656.2999 1273.3003 654.5999L1273.3003 654.5999L1263.3003 652.7999L1269.5002 615.69995C 1269.5002 615.69995 1286.1002 618.7999 1295.9003 614.89996C 1305.8003 610.99994 1313.7003 594.19995 1313.7003 594.19995L1313.7003 594.19995L1318.7003 585.7999L1280.0004 384.79993L1321.8 384.9z" stroke="none" fill="#D13239" fill-rule="nonzero" />
	<g transform="matrix(0.5333334 0 0 0.5333334 -0 204.80002)">
	</g>
    <path transform="matrix(0.5333334 0 0 0.5333334 -0 204.80002)"  d="M1479.4 404.6L1522.5 404.7L1525.1 388C 1525.1 388 1529.7 357.8 1540 352C 1543.3 350.1 1548.6 348.4 1554.7 347.3C 1566 345.3 1580.2999 345.09998 1592 345.5C 1609.9 346.1 1616.7 346.3 1634.9 348.4C 1653.1 350.5 1648.5 368.1 1648.5 368.1L1648.5 368.1L1644.9 394.4C 1644.9 394.4 1643.3 406.19998 1639.1 413.5C 1635.4 420 1625.2 424.4 1619.2999 426.3C 1605.1 430.9 1556.4999 443.3 1556.4999 443.3L1556.4999 443.3L1518.2999 454.3C 1518.2999 454.3 1494.7999 461.09998 1481.7 475.59998C 1468.5 490.19998 1463.2999 506.69998 1461.5 515.3C 1459.7 523.89996 1449.6 583.39996 1449.6 583.39996L1449.6 583.39996L1655.7999 583.49994L1662.7 542.2999L1499.6 542.49994L1502.5 525.69995C 1502.5 525.69995 1504.4 508.39996 1511.4 502.69995C 1513.6 500.89996 1514.7001 498.49994 1527.7001 493.89996C 1535.5001 491.09998 1562.1001 483.99997 1562.1001 483.99997L1562.1001 483.99997L1623.6001 467.19998C 1623.6001 467.19998 1657.2001 458.59998 1670.4001 440.19998C 1683.6001 421.9 1688.7002 386.8 1688.7002 386.8C 1688.7002 386.8 1692.3002 352.69998 1689.5002 342C 1686.8003 331.3 1676.7002 318.5 1664.4003 313C 1652.1002 307.5 1639.3003 304.3 1602.2003 304.8C 1565.1003 305.3 1546.7003 307 1527.9003 314C 1509.1002 320.9 1498.2003 333.5 1491.3003 351.3C 1483.8 368.2 1479.4 404.6 1479.4 404.6z" stroke="none" fill="#B3B2B1" fill-rule="nonzero" />
	<g transform="matrix(0.5333334 0 0 0.5333334 -0 204.80002)">
	</g>
    <path transform="matrix(0.5333334 0 0 0.5333334 -0 204.80002)"  d="M1867.6 481.2L1896.5 308L1845.3 308L1685.9 479.2L1678.7001 522.60004L1818.1001 522.60004L1807.9001 583.4L1850.7002 583.5L1860.8002 522.6L1900.3002 522.69995L1907.4001 481.19995L1867.6 481.2zM1825 481.3L1734.9 481.19998L1844.6 364.3L1825 481.3z" stroke="none" fill="#B3B2B1" fill-rule="nonzero" />
	<g transform="matrix(0.5333334 0 0 0.5333334 -0 204.80002)">
	</g>
    <path transform="matrix(0.5333334 0 0 0.5333334 -0 204.80002)"  d="M328.9 330.8L460.2 330.8C 460.2 330.8 489.6 307 510.5 291.69998C 531.4 276.4 569.4 252.29999 569.4 252.29999L569.4 252.29999L495.2 217.59999C 495.2 217.59999 432.5 256.4 405.90002 274.69998C 380.1 291.6 328.9 330.8 328.9 330.8z" stroke="none" fill="#B3B2B1" fill-rule="nonzero" />
	<g transform="matrix(0.5333334 0 0 0.5333334 -0 204.80002)">
	</g>
    <path transform="matrix(0.5333334 0 0 0.5333334 -0 204.80002)"  d="M611.1 227.8L550.19995 186.8C 550.19995 186.8 605.2999 155.5 678.6 126.3C 751.8 97.100006 790.89996 84.9 790.89996 84.9L790.89996 84.9L803.3 143C 803.3 143 732.8 166.6 692.39996 185.7C 650.6 203.5 611.1 227.8 611.1 227.8z" stroke="none" fill="#B3B2B1" fill-rule="nonzero" />
	<g transform="matrix(0.5333334 0 0 0.5333334 -0 204.80002)">
	</g>
    <path transform="matrix(0.5333334 0 0 0.5333334 -0 204.80002)"  d="M848.3 130.3L837.7 70.8C 837.7 70.8 912.9 50.800003 981.7 38.000004C 1050.6 25.200005 1141.9 19.100004 1141.9 19.100004L1141.9 19.100004L1111.7001 111.00001C 1111.7001 111.00001 1031.4 100.00001 956.00006 110.30001C 897.3 117.3 848.3 130.3 848.3 130.3z" stroke="none" fill="#B3B2B1" fill-rule="nonzero" />
	<g transform="matrix(0.5333334 0 0 0.5333334 -0 204.80002)">
	</g>
    <path transform="matrix(0.5333334 0 0 0.5333334 -0 204.80002)"  d="M1159.5 118.8L1210.3 16.700005C 1210.3 16.700005 1321.6001 14.500005 1417.6001 29.400005C 1513.6001 44.200005 1601.4001 67 1599.5001 68L1599.5001 68L1356.1001 195.3C 1356.1001 195.3 1299.2001 159.3 1228.6001 137.20001C 1188.6 125.4 1159.5 118.8 1159.5 118.8z" stroke="none" fill="#B3B2B1" fill-rule="nonzero" />
	<g transform="matrix(0.5333334 0 0 0.5333334 -0 204.80002)">
	</g>
    <path transform="matrix(0.5333334 0 0 0.5333334 -0 204.80002)"  d="M1399.7 223L1453.2 263.6L1892.8999 263.6C 1892.8999 263.6 1891.9999 249.40001 1880.2999 229.20001C 1872.9999 216.6 1859.7 203.20001 1845.7999 189.30002C 1840.7 184.30002 1820.4999 168.50002 1805.2999 158.60002C 1766.4999 133.40002 1744.7999 123.70002 1704.4999 105.400024L1704.4999 105.400024L1399.7 223z" stroke="none" fill="#B3B2B1" fill-rule="nonzero" />
	<g transform="matrix(0.5333334 0 0 0.5333334 -0 204.80002)">
	</g>
    <path transform="matrix(0.5333334 0 0 0.5333334 -0 204.80002)"  d="M357.4 384.7C 340.9 384.7 325.3 391.2 312 398.5L312 398.5L314.3 384.7L270.59998 384.7L235.59998 582.4L279.39996 582.4L298.79996 472.90002C 302.79996 450.7 319.39996 423.2 351.79996 423.2L351.79996 423.2L374.39996 423.1L381.19995 384.7L357.4 384.7z" stroke="none" fill="#D13239" fill-rule="nonzero" />
</g>
</svg>