<svg xmlns="http://www.w3.org/2000/svg" width="65" height="40" fill="none" xmlns:v="https://vecta.io/nano"><path d="M5.186 0A4.544 4.544 0 002.01 1.286 4.342 4.342 0 00.694 4.391V35.61c0 1.164.474 2.281 1.316 3.105A4.543 4.543 0 005.186 40h54.711a4.543 4.543 0 003.176-1.286 4.342 4.342 0 001.316-3.105V4.39a4.342 4.342 0 00-1.316-3.105A4.543 4.543 0 0059.897 0H5.186z" fill="#10298e"/><path d="M32.85 17.329v-.023l.67-1.415a5.974 5.974 0 0 0-4.363-1.89 5.999 5.999 0 0 0-5.55 3.727h-1.262l-.903 1.785h1.74l-.023.488.026.53h-.84l-.79 1.761h2.059A5.998 5.998 0 0 0 29.157 26a5.971 5.971 0 0 0 3.695-1.28v-2.266a4.229 4.229 0 0 1-6.88-.162h4.46l.837-1.762h-5.98a4.13 4.13 0 0 1-.065-.639c0-.084.011-.164.022-.245l.016-.133h6.458l.904-1.785h-6.79a4.232 4.232 0 0 1 3.643-2.09c1.382 0 2.596.67 3.374 1.691z" fill="#ffbe00"/><path d="M51.046 23.873l.599 2.07h3.32L51.305 14h-4.902L42.81 25.943h3.299l.604-2.07h4.332zm-.693-2.394h-2.94l1.475-5.06 1.465 5.06zm-13.166 1.334h2.394s1.943.179 2.936-.318 1.288-1.334 1.423-1.83c.13-.47.196-2.026.204-2.192v-.014c.027-.563.014-1.868-.587-3.035-.628-1.219-2.633-1.398-3.434-1.42l-.047-.002c-.182-.004-.292 0-.292 0H34v11.942h3.186v-3.131zm2.304-6.282h-2.304v3.57h2.12c.295-.002 1.308-.051 1.404-.61a8.57 8.57 0 0 0 .099-1.381 6.974 6.974 0 0 0-.12-.923c-.137-.656-1.2-.656-1.2-.656zM18.25 25.87s2.037-.1 2.602-1.636.16-3.572.16-3.572-.215-1.37-2.19-1.754a7.574 7.574 0 0 0-.746-.099h-.003l-2.553-.176-.032-.013a.3.3 0 0 0-.035-.014c-1.22.022-1.243-.52-1.243-.588a.506.506 0 0 0-.015-.073c-.048-.201-.177-.746.128-1.146.348-.458 1.74-.4 1.84-.395l.916.078c.339.068.704.28.655 1.288h3.005v-.926s.069-1.604-1.061-2.236c-.915-.512-1.906-.58-2.255-.587h-.004s-1.808-.046-2.667 0c-.488.026-1.136.095-1.745.266-.4.09-.796.248-1.12.532-.01.008-.016.017-.023.025a.174.174 0 0 1-.02.024.133.133 0 0 1-.024.015c-.01.006-.02.011-.027.019-.022.02-.032.04-.041.06a.267.267 0 0 1-.02.036c-.982 1.09-.8 3.203-.436 4.467.29 1.009 1.467 1.355 2.026 1.465l.004.002.003.002.175.026.03.005.023.004a.585.585 0 0 0 .023.003l.023.002.018.003 3.3.267.001.008.042-.004.311.02.023.003c.297.054.66.226.663.772v.062c.003.627.004.788-.068.89a.3.3 0 0 0-.113.11c-.14.237-.648.3-1.017.317h-1.965c-.836-.114-.813-1.017-.813-1.017v-.362h-2.983v.452s-.09 1.92.858 2.62c.821.606 1.698.764 2.938.798v.016h1.333s1.165.053 2.12-.062v.002z" fill="#fff"/></svg>