<svg width="65" height="40" viewBox="0 0 65 40" fill="none" xmlns="http://www.w3.org/2000/svg">
<rect width="65" height="40" fill="#10298E"/>
<path d="M32.85 17.33V17.31L33.52 15.89C32.9614 15.2933 32.2861 14.8176 31.5361 14.4925C30.7862 14.1674 29.9774 13.9998 29.16 14C27.9692 14.0008 26.8055 14.3559 25.8172 15.0202C24.8289 15.6844 24.0605 16.6277 23.61 17.73H22.35L21.45 19.51H23.18C23.1535 19.8495 23.1535 20.1905 23.18 20.53H22.35L21.55 22.29H23.61C24.0636 23.3886 24.8333 24.3276 25.8214 24.9882C26.8095 25.6487 27.9715 26.0008 29.16 26C30.5021 26.0014 31.8056 25.5504 32.86 24.72V22.45C32.4562 22.9902 31.9291 23.426 31.3227 23.7211C30.7162 24.0161 30.048 24.1619 29.3737 24.1463C28.6995 24.1306 28.0388 23.954 27.4467 23.6311C26.8546 23.3081 26.3483 22.8483 25.97 22.29H30.43L31.27 20.53H25.29C25.25 20.3188 25.2266 20.1048 25.22 19.89L25.25 19.65L25.26 19.51H31.72L32.62 17.73H25.83C26.202 17.0917 26.7347 16.562 27.3751 16.1935C28.0155 15.8251 28.7412 15.6308 29.48 15.63C30.86 15.63 32.08 16.31 32.85 17.33Z" fill="#FFBE00"/>
<path fill-rule="evenodd" clip-rule="evenodd" d="M51.05 23.87L51.65 25.94H54.96L51.3 14H46.4L42.81 25.94H46.11L46.71 23.87H51.04H51.05ZM50.35 21.47H47.41L48.89 16.42L50.35 21.48V21.47ZM37.2 22.82H39.6C39.6 22.82 41.53 23 42.53 22.51C42.8888 22.3284 43.2024 22.069 43.4481 21.7506C43.6938 21.4323 43.8653 21.0631 43.95 20.67C44.08 20.2 44.15 18.65 44.15 18.48V18.47C44.18 17.91 44.17 16.6 43.57 15.43C42.94 14.21 40.93 14.03 40.13 14.01H34V25.95H37.19V22.82H37.2ZM39.5 16.54H37.2V20.11H39.32C39.62 20.11 40.62 20.06 40.72 19.51C40.791 19.0501 40.8245 18.5853 40.82 18.12C40.8005 17.811 40.7604 17.5037 40.7 17.2C40.56 16.54 39.5 16.54 39.5 16.54Z" fill="white"/>
<path d="M18.25 25.87C18.25 25.87 20.29 25.77 20.85 24.23C21.42 22.7 21.01 20.66 21.01 20.66C21.01 20.66 20.8 19.29 18.82 18.91V18.9C18.5751 18.8545 18.3282 18.8211 18.08 18.8L15.52 18.63L15.49 18.62C15.4769 18.6157 15.4635 18.6124 15.45 18.61C14.23 18.63 14.21 18.09 14.21 18.01C14.205 17.9862 14.1984 17.9628 14.19 17.94C14.15 17.74 14.02 17.2 14.32 16.8C14.67 16.34 16.06 16.4 16.16 16.4C16.46 16.42 16.88 16.44 17.08 16.48C17.42 16.55 17.78 16.76 17.73 17.77H20.73V16.84C20.73 16.84 20.81 15.24 19.68 14.61C18.9831 14.2394 18.2091 14.0373 17.42 14.02C17.42 14.02 15.62 13.98 14.75 14.02C14.1621 14.048 13.5788 14.1385 13.01 14.29C12.61 14.38 12.21 14.54 11.89 14.82L11.86 14.84C11.8544 14.8507 11.8477 14.8607 11.84 14.87C11.8336 14.8739 11.8269 14.8772 11.82 14.88L11.79 14.9C11.7725 14.9169 11.7589 14.9373 11.75 14.96C11.7444 14.9738 11.7378 14.9872 11.73 15C10.75 16.09 10.93 18.2 11.3 19.47C11.59 20.47 12.76 20.82 13.32 20.93L13.5 20.96H13.56C13.5666 20.9634 13.5733 20.9668 13.58 20.97H13.62C14.38 21.07 16.14 21.19 16.92 21.24V21.25H16.96L17.28 21.27H17.3C17.6 21.32 17.96 21.5 17.96 22.04V22.1C17.96 22.73 17.96 22.9 17.89 23C17.8455 23.0236 17.8077 23.0579 17.78 23.1C17.64 23.34 17.13 23.4 16.76 23.42H14.8C13.96 23.31 13.99 22.4 13.99 22.4V22.04H11V22.49C11 22.49 10.91 24.41 11.86 25.11C12.68 25.72 13.56 25.88 14.8 25.91V25.93H16.13C16.13 25.93 17.3 25.98 18.25 25.87Z" fill="white"/>
</svg>
