<svg xmlns="http://www.w3.org/2000/svg" width="65" height="40" viewBox="0 0 65 40" fill="none"><path fill="#10298E" fill-rule="evenodd" d="M5.19 0A4.54 4.54 0 0 0 2 1.29a4.34 4.34 0 0 0-1.32 3.1v31.22c0 1.16.48 2.28 1.32 3.1A4.54 4.54 0 0 0 5.19 40h54.7a4.54 4.54 0 0 0 3.18-1.29 4.34 4.34 0 0 0 1.32-3.1V4.39a4.34 4.34 0 0 0-1.32-3.1A4.54 4.54 0 0 0 59.9 0H5.19z" clip-rule="evenodd"/><path fill="#FFBE00" d="M32.85 17.33v-.02l.67-1.42A5.97 5.97 0 0 0 29.16 14a6 6 0 0 0-5.55 3.73h-1.26l-.9 1.78h1.73a6.56 6.56 0 0 0 0 1.02h-.83l-.8 1.76h2.06A6 6 0 0 0 29.16 26a5.97 5.97 0 0 0 3.7-1.28v-2.27a4.23 4.23 0 0 1-6.89-.16h4.46l.84-1.76h-5.98a4.13 4.13 0 0 1-.07-.64l.03-.24.01-.14h6.46l.9-1.78h-6.79a4.23 4.23 0 0 1 3.65-2.1c1.38 0 2.6.68 3.37 1.7z"/><path fill="#fff" fill-rule="evenodd" d="m51.05 23.87.6 2.07h3.31L51.3 14h-4.9l-3.59 11.94h3.3l.6-2.07h4.33zm-.7-2.4h-2.94l1.48-5.05 1.46 5.06zM37.2 22.82h2.4s1.93.18 2.93-.31a2.7 2.7 0 0 0 1.42-1.84c.13-.47.2-2.02.2-2.19v-.01c.03-.56.02-1.87-.58-3.04-.63-1.22-2.64-1.4-3.44-1.42H34v11.94h3.19v-3.13zm2.3-6.28h-2.3v3.57h2.12c.3 0 1.3-.05 1.4-.6a8.57 8.57 0 0 0 .1-1.39 6.97 6.97 0 0 0-.12-.92c-.14-.66-1.2-.66-1.2-.66z" clip-rule="evenodd"/><path fill="#fff" d="M18.25 25.87s2.04-.1 2.6-1.64c.57-1.53.16-3.57.16-3.57s-.21-1.37-2.19-1.75v-.01a7.57 7.57 0 0 0-.74-.1l-2.56-.17-.03-.01a.3.3 0 0 0-.04-.01c-1.22.02-1.24-.52-1.24-.6a.5.5 0 0 0-.02-.07c-.04-.2-.17-.74.13-1.14.35-.46 1.74-.4 1.84-.4.3.02.72.04.92.08.34.07.7.28.65 1.29h3v-.93s.08-1.6-1.05-2.23a5.05 5.05 0 0 0-2.26-.59s-1.8-.04-2.67 0a8.3 8.3 0 0 0-1.74.27c-.4.09-.8.25-1.12.53l-.03.02a.17.17 0 0 1-.02.03.13.13 0 0 1-.02.01l-.03.02a.17.17 0 0 0-.04.06.27.27 0 0 1-.02.04c-.98 1.09-.8 3.2-.43 4.47.29 1 1.46 1.35 2.02 1.46l.18.03h.06a.58.58 0 0 0 .02.01h.04c.76.1 2.52.22 3.3.27v.01h.04l.32.02h.02c.3.05.66.23.66.77v.06c0 .63 0 .8-.07.9a.3.3 0 0 0-.11.1c-.14.24-.65.3-1.02.32H14.8c-.84-.11-.81-1.02-.81-1.02v-.36H11v.45s-.09 1.92.86 2.62c.82.61 1.7.77 2.94.8v.02h1.33s1.17.05 2.12-.06z"/></svg>
