<svg width="65" height="40" viewBox="0 0 65 40" fill="none" xmlns="http://www.w3.org/2000/svg">
<path fill-rule="evenodd" clip-rule="evenodd" d="M5.1856 0C3.99444 0 2.85207 0.462645 2.0098 1.28616C1.16752 2.10967 0.694336 3.22659 0.694336 4.39122L0.694336 35.6088C0.694336 36.7734 1.16752 37.8903 2.0098 38.7138C2.85207 39.5374 3.99444 40 5.1856 40H59.8973C61.0885 40 62.2309 39.5374 63.0731 38.7138C63.9154 37.8903 64.3886 36.7734 64.3886 35.6088V4.39122C64.3886 3.22659 63.9154 2.10967 63.0731 1.28616C62.2309 0.462645 61.0885 0 59.8973 0L5.1856 0Z" fill="#10298E"/>
<path d="M32.8509 17.329V17.3062L33.52 15.8911C32.4269 14.7297 30.8784 14.001 29.1574 14.001C26.6503 14.001 24.5031 15.5419 23.6074 17.7281H22.3452L21.4419 19.513H23.1823C23.1704 19.6746 23.1585 19.8362 23.1585 20.001C23.1585 20.1799 23.1693 20.3556 23.1845 20.5302H22.3452L21.5546 22.2923H23.6139C24.5151 24.4687 26.6557 25.9999 29.1574 25.9999C30.5519 25.9999 31.8337 25.5184 32.852 24.7203V22.4539C32.0755 23.4754 30.8599 24.1445 29.4784 24.1445C28.022 24.1445 26.737 23.4093 25.9714 22.2923H30.4327L31.2687 20.5302H25.2893C25.2568 20.3209 25.2243 20.1105 25.2243 19.8915C25.2243 19.8073 25.2352 19.7267 25.2461 19.646C25.252 19.602 25.258 19.5577 25.2622 19.513H31.7199L32.6242 17.7281H25.8348C26.5754 16.4821 27.9212 15.6384 29.4773 15.6384C30.8588 15.6384 32.0734 16.3086 32.8509 17.329Z" fill="#FFBE00"/>
<path fill-rule="evenodd" clip-rule="evenodd" d="M51.0462 23.8735L51.6448 25.9426H54.9652L51.3054 14H46.4028L42.8112 25.9426H46.11L46.714 23.8735H51.0462ZM50.3532 21.4792H47.4122L48.8881 16.4182L50.3532 21.4792Z" fill="white"/>
<path fill-rule="evenodd" clip-rule="evenodd" d="M37.1865 22.813H39.5809C39.5809 22.813 41.5241 22.9919 42.5174 22.4952C43.5108 21.9986 43.8046 21.1614 43.9402 20.6648C44.0692 20.1956 44.1363 18.6389 44.1435 18.4726L44.144 18.4591C44.1712 17.8963 44.1581 16.5906 43.5574 15.4238C42.9295 14.205 40.9244 14.026 40.1231 14.0033L40.0764 14.0022C39.8943 13.9978 39.7837 14.0022 39.7837 14.0022H34.0005V25.9436H37.1865V22.813ZM39.4908 16.531H37.1865V20.1009H39.3065C39.6025 20.0987 40.6154 20.0499 40.7108 19.4915C40.816 18.8788 40.8106 18.1967 40.8095 18.1099C40.7932 17.8714 40.7618 17.5406 40.6891 17.1871C40.5525 16.531 39.4908 16.531 39.4908 16.531Z" fill="white"/>
<path d="M18.2505 25.8695C18.2505 25.8695 20.287 25.7698 20.852 24.2343C21.417 22.6977 21.0114 20.6622 21.0114 20.6622C21.0114 20.6622 20.7967 19.2915 18.822 18.9077C18.82 18.9066 18.8198 18.9042 18.8197 18.9017C18.8196 18.899 18.8195 18.8963 18.8166 18.8957C18.7114 18.8708 18.4338 18.8404 18.0759 18.809H18.0727C17.2984 18.7417 16.1555 18.6713 15.52 18.6333C15.5075 18.6291 15.4977 18.6247 15.4879 18.6203C15.4774 18.6155 15.4668 18.6107 15.4528 18.6062C14.2328 18.6279 14.21 18.0868 14.21 18.0184C14.21 18.0078 14.204 17.9823 14.1951 17.945C14.1473 17.7438 14.0181 17.1993 14.3228 16.7985C14.6709 16.3409 16.0633 16.3994 16.163 16.4038C16.4623 16.4168 16.8755 16.4406 17.0794 16.4818C17.4177 16.5502 17.7831 16.7616 17.7343 17.7701H20.7392V16.844C20.7392 16.844 20.8076 15.2402 19.6776 14.608C18.7634 14.0962 17.7723 14.0289 17.4231 14.0213L17.4188 14.0202C17.4188 14.0202 15.6111 13.9747 14.7522 14.0202C14.2643 14.0474 13.6158 14.1157 13.0074 14.287C12.6062 14.377 12.2115 14.5353 11.8862 14.8195C11.8777 14.8268 11.871 14.8356 11.8642 14.8445C11.858 14.8527 11.8517 14.861 11.8439 14.8682C11.8369 14.8743 11.8285 14.8789 11.8201 14.8835C11.8103 14.8889 11.8005 14.8943 11.7929 14.9019C11.7712 14.9222 11.7614 14.9421 11.7515 14.9621C11.7456 14.9741 11.7396 14.9862 11.7311 14.9984C10.7497 16.0871 10.9319 18.2006 11.2962 19.465C11.5858 20.4735 12.7634 20.8195 13.3219 20.9301L13.3257 20.9322L13.3295 20.9344C13.3685 20.9409 13.4369 20.9518 13.5041 20.9604C13.5163 20.9621 13.5254 20.9638 13.5336 20.9653C13.5415 20.9667 13.5488 20.9681 13.5572 20.9691C13.5648 20.9702 13.5723 20.971 13.5799 20.9718C13.5875 20.9726 13.5952 20.9734 13.6028 20.9745C13.606 20.9745 13.6212 20.9767 13.6212 20.9767C14.3792 21.0678 16.1403 21.1925 16.921 21.2445L16.9221 21.2521C16.9221 21.2521 16.9395 21.25 16.9644 21.2478C17.1207 21.2581 17.2287 21.2657 17.275 21.2689L17.2984 21.2706C17.5945 21.3248 17.9588 21.4972 17.961 22.0427L17.9613 22.1048C17.9644 22.7319 17.9652 22.8929 17.8927 22.9959C17.8471 23.0219 17.807 23.0577 17.7799 23.1043C17.64 23.3418 17.1325 23.4058 16.7627 23.422H14.7978C13.9617 23.3082 13.9845 22.4049 13.9845 22.4049V22.0427H11.0024V22.4949C11.0024 22.4949 10.9113 24.4153 11.8601 25.1159C12.681 25.721 13.5583 25.8793 14.7978 25.9129V25.9292H16.1305C16.1305 25.9292 17.2962 25.9823 18.2505 25.8674V25.8695Z" fill="white"/>
</svg>
