<svg xmlns="http://www.w3.org/2000/svg" width="64" height="40" viewBox="0 0 64 40" fill="none"><path fill="#EF809F" d="M60.3 0H3.4A3.4 3.4 0 0 0 0 3.4v33.2A3.4 3.4 0 0 0 3.4 40h56.9a3.4 3.4 0 0 0 3.4-3.4V3.4A3.4 3.4 0 0 0 60.3 0z"/><path fill="#fff" d="M28.33 25.1c.5.48.5 1.27.02 1.76l-.1.1a1.25 1.25 0 0 1-1.76.02l-2.8-2.76c-.77-.78-.87-1.73-.39-2.23l.1-.1c.4-.42 1.06-.46 1.51-.1.22.16.53.12.71-.09a.51.51 0 0 0-.08-.7 2.15 2.15 0 0 0-2.87.18l-.1.1c-.9.93-.72 2.5.4 3.63l2.81 2.8a2.27 2.27 0 0 0 3.2-.05l.1-.1a2.27 2.27 0 0 0-.04-3.19.5.5 0 0 0-.7.01.48.48 0 0 0 0 .71zm-1.67-15.01 1.14 9.4a.5.5 0 0 0 .56.44.5.5 0 0 0 .44-.56l-1.15-9.44v-.06c-.2-.78.28-1.66.93-1.8a1.4 1.4 0 0 1 1.06.2 1.4 1.4 0 0 1 .6.89l1.99 8.5a.5.5 0 1 0 .97-.23l-1.98-8.48a2.4 2.4 0 0 0-2.84-1.86c-1.23.26-2.03 1.7-1.73 3z"/><path fill="#fff" d="m37.16 21.13 2.27-11.27a2.38 2.38 0 0 0-1.66-2.78 2.5 2.5 0 0 0-3.04 1.77l-2.5 8.58a.5.5 0 0 0 .34.62.5.5 0 0 0 .62-.35l2.51-8.58a1.5 1.5 0 0 1 1.8-1.07c.67.2 1.09.9.94 1.6l-2.26 11.29a.5.5 0 0 0 .39.6c.28.04.55-.14.6-.4zM31.47 32c-3.58 0-6.57-2.62-6.57-6.36a.5.5 0 0 0-.5-.5.5.5 0 0 0-.51.5c0 4.32 3.47 7.37 7.58 7.37a.5.5 0 0 0 .5-.5.5.5 0 0 0-.5-.5zm-1.77-8.78a1.2 1.2 0 0 1-.5.69l-.1.07a1.26 1.26 0 0 1-1.75-.34l-2.2-3.27c-.6-.91-.52-1.86.05-2.26l.1-.08c.75-.43 1.38-.1 2.02.84l1.83 2.74a.5.5 0 0 0 .7.14.5.5 0 0 0 .14-.7l-1.83-2.74c-.92-1.32-2.03-1.9-3.38-1.13l-.14.1c-1.08.73-1.21 2.32-.33 3.65l2.2 3.28a2.26 2.26 0 0 0 3.14.6l.1-.07a2.29 2.29 0 0 0 .91-1.26.5.5 0 0 0-.35-.61.5.5 0 0 0-.6.35z"/><path fill="#fff" d="M33.03 24.87c-1.05.58-1.7 1.67-1.77 3.34a.5.5 0 0 0 .47.53.5.5 0 0 0 .53-.47c.08-1.51.67-2.32 1.6-2.68.5-.18 1.06-.22 1.54-.17l.12.02c.65.12.85-.84.2-1l-3.86-.86c-1.8-.5-2.08-1.16-1.75-2.28.15-.48.44-.74.9-.84.3-.06.62-.05.94 0l.18.04L38 21.87l.11.04a.94.94 0 0 1 .3.21c.4.42.62 1.21.5 2.52-.38 4.56-2.5 7.4-7.55 7.34a.5.5 0 0 0-.01 1c5.66.05 8.14-3.24 8.56-8.27.13-1.56-.16-2.64-.76-3.28a1.72 1.72 0 0 0-.96-.56l-5.8-1.35c-.04 0-.14-.04-.27-.05a3.61 3.61 0 0 0-1.34 0A2.1 2.1 0 0 0 29.15 21c-.48 1.61.03 2.88 2.47 3.54l1.4.33z"/></svg>
