<svg width="64" height="40" viewBox="0 0 64 40" fill="none" xmlns="http://www.w3.org/2000/svg"  ><path d="M60.297 0h-56.9A3.397 3.397 0 000 3.397v33.206A3.397 3.397 0 003.397 40h56.9a3.397 3.397 0 003.397-3.397V3.397A3.397 3.397 0 0060.297 0z" fill="#EF809F" /><path d="M28.333 25.092c.494.484.503 1.276.019 1.77l-.093.102a1.251 1.251 0 01-1.77.019l-2.795-2.767c-.773-.773-.875-1.723-.39-2.226l.092-.102c.4-.42 1.062-.457 1.518-.103.215.168.531.13.708-.084a.513.513 0 00-.083-.707 2.154 2.154 0 00-2.87.186l-.092.102c-.904.932-.727 2.506.4 3.633l2.804 2.794a2.274 2.274 0 003.204-.046l.102-.103a2.269 2.269 0 00-.046-3.185.492.492 0 00-.708.009.484.484 0 000 .708zm-1.677-15.006l1.146 9.408c.028.27.28.475.559.438a.497.497 0 00.438-.56l-1.146-9.444-.01-.056c-.195-.783.29-1.658.941-1.798.364-.074.746-.01 1.053.196a1.4 1.4 0 01.596.885l1.994 8.513a.502.502 0 10.978-.233L31.22 8.95a2.394 2.394 0 00-2.841-1.863c-1.23.26-2.031 1.695-1.724 3z" fill="#fff" /><path d="M37.163 21.133l2.264-11.27a2.384 2.384 0 00-1.658-2.785c-1.342-.336-2.692.447-3.037 1.77l-2.505 8.578c-.075.27.074.55.344.624.27.075.55-.074.624-.345l2.506-8.588a1.495 1.495 0 011.797-1.07c.671.204 1.09.903.941 1.61l-2.263 11.28c-.056.27.121.54.391.597.28.046.55-.13.596-.4zm-5.691 10.861c-3.586 0-6.576-2.627-6.576-6.362a.5.5 0 00-.503-.503.5.5 0 00-.503.503c0 4.322 3.474 7.368 7.582 7.368a.5.5 0 00.503-.503.501.501 0 00-.503-.503zm-1.77-8.784c-.074.28-.251.531-.493.69l-.112.065a1.26 1.26 0 01-1.751-.335l-2.199-3.27c-.596-.913-.521-1.863.056-2.263l.103-.075c.745-.428 1.369-.102 2.012.838l1.835 2.739a.508.508 0 00.698.14.506.506 0 00.14-.699l-1.835-2.738c-.913-1.323-2.03-1.91-3.381-1.128l-.14.094c-1.08.735-1.21 2.319-.326 3.651l2.198 3.279a2.263 2.263 0 003.14.605l.111-.074a2.29 2.29 0 00.904-1.258.498.498 0 00-.354-.615.492.492 0 00-.606.354z" fill="#fff" /><path d="M33.027 24.868c-1.043.587-1.695 1.677-1.77 3.344a.502.502 0 00.476.531c.28.01.512-.195.53-.475.075-1.509.662-2.32 1.603-2.673.503-.186 1.052-.224 1.537-.177l.12.019c.643.12.848-.839.206-.988l-3.866-.866c-1.807-.494-2.086-1.164-1.751-2.282.149-.484.438-.736.894-.838.298-.066.624-.056.94 0 .094.018.16.027.187.037l5.868 1.37.112.036a.944.944 0 01.298.215c.391.419.615 1.21.503 2.515-.382 4.564-2.505 7.395-7.554 7.349a.499.499 0 00-.01.996c5.664.047 8.142-3.241 8.56-8.271.131-1.565-.157-2.636-.763-3.279-.335-.354-.69-.521-.96-.559l-5.802-1.35c-.038-.01-.13-.037-.261-.056a3.611 3.611 0 00-1.341.01c-.783.176-1.379.67-1.63 1.527-.485 1.611.027 2.878 2.468 3.54l1.406.325z" fill="#fff" /></svg>
