<svg width="64" height="40" viewBox="0 0 64 40" fill="none" xmlns="http://www.w3.org/2000/svg">
<path d="M60.2972 0H3.39703C1.5209 0 0 1.5209 0 3.39703V36.603C0 38.4791 1.5209 40 3.39703 40H60.2972C62.1734 40 63.6943 38.4791 63.6943 36.603V3.39703C63.6943 1.5209 62.1734 0 60.2972 0Z" fill="#EF809F"/>
<path d="M28.333 25.0919C28.8266 25.5762 28.836 26.368 28.3516 26.8617L28.2585 26.9641C27.7741 27.4578 26.9824 27.4671 26.4887 26.9828L23.6943 24.2163C22.9212 23.4432 22.8187 22.4931 23.3031 21.9901L23.3962 21.8877C23.7968 21.4685 24.4581 21.4313 24.9145 21.7852C25.1287 21.9529 25.4454 21.9156 25.6224 21.7014C25.7901 21.4871 25.7528 21.1705 25.5386 20.9935C24.6723 20.3135 23.4335 20.3973 22.6697 21.1798L22.5766 21.2822C21.673 22.2137 21.85 23.7878 22.9771 24.9149L25.7808 27.7093C26.6843 28.5755 28.1094 28.5569 28.985 27.6627L29.0874 27.5603C29.9444 26.6661 29.9258 25.2502 29.0409 24.3747C28.8453 24.1791 28.5286 24.1791 28.333 24.384C28.128 24.5796 28.128 24.8963 28.333 25.0919ZM26.6563 10.0861L27.802 19.4938C27.83 19.764 28.0815 19.9689 28.3609 19.9316C28.631 19.9037 28.836 19.6522 28.7987 19.3727L27.653 9.92776L27.6437 9.87187C27.4481 9.08944 27.9324 8.21387 28.5845 8.07415C28.9477 7.99964 29.3296 8.06484 29.637 8.26976C29.9444 8.47468 30.1586 8.79138 30.2331 9.15465L32.2265 17.6682C32.2917 17.9383 32.5618 18.106 32.8319 18.0408C33.102 17.9756 33.2697 17.7054 33.2045 17.4353L31.2205 8.94972C31.0994 8.33496 30.7268 7.7854 30.1959 7.43145C29.665 7.07749 29.0036 6.9564 28.3795 7.08681C27.15 7.34762 26.349 8.78206 26.6563 10.0861Z" fill="white"/>
<path d="M37.1632 21.1332L39.4267 9.86258C39.6875 8.65168 38.9702 7.43147 37.7687 7.07752C36.4274 6.7422 35.0767 7.52462 34.7321 8.84729L32.2265 17.426C32.152 17.6961 32.301 17.9756 32.5711 18.0501C32.8412 18.1246 33.1207 17.9756 33.1952 17.7055L35.7008 9.11741C35.9151 8.32567 36.7161 7.85063 37.4985 8.04624C38.1692 8.25116 38.5883 8.94975 38.4393 9.65766L36.1759 20.9376C36.12 21.2077 36.297 21.4779 36.5671 21.5338C36.8465 21.5803 37.1166 21.4033 37.1632 21.1332ZM31.472 31.994C27.8859 31.994 24.8959 29.3673 24.8959 25.6322C24.8959 25.3527 24.6724 25.1292 24.3929 25.1292C24.1135 25.1292 23.8899 25.3527 23.8899 25.6322C23.8899 29.9541 27.3643 33 31.472 33C31.7514 33 31.975 32.7765 31.975 32.497C31.975 32.2176 31.7514 31.994 31.472 31.994ZM29.7022 23.2104C29.6277 23.4898 29.4507 23.7413 29.2086 23.8997L29.0968 23.9649C28.5193 24.3561 27.7369 24.207 27.3456 23.6295L25.1474 20.3601C24.5513 19.4473 24.6258 18.4972 25.2033 18.0967L25.3058 18.0222C26.0509 17.5937 26.675 17.9197 27.3177 18.8605L29.1527 21.599C29.311 21.8318 29.6184 21.8877 29.8513 21.7387C30.0841 21.5896 30.14 21.2729 29.991 21.0401L28.156 18.3016C27.2432 16.9789 26.1254 16.3921 24.7748 17.1745L24.6351 17.2677C23.5546 18.0035 23.4242 19.587 24.3091 20.919L26.5073 24.1977C27.2152 25.2316 28.6124 25.5018 29.6463 24.8032L29.7581 24.7287C30.1959 24.4306 30.5126 23.9835 30.6616 23.4712C30.7362 23.2011 30.5778 22.9309 30.3077 22.8564C30.0469 22.7819 29.7768 22.9403 29.7022 23.2104Z" fill="white"/>
<path d="M33.0274 24.8684C31.9842 25.4552 31.3321 26.545 31.2576 28.2123C31.239 28.4918 31.4532 28.7246 31.7327 28.7433C32.0121 28.7526 32.245 28.5476 32.2636 28.2682C32.3381 26.7592 32.9249 25.9489 33.8657 25.5949C34.3687 25.4086 34.9183 25.3714 35.4026 25.4179L35.5237 25.4366C36.1664 25.5577 36.3713 24.5983 35.7286 24.4492L31.8631 23.583C30.056 23.0893 29.7766 22.4187 30.1119 21.3009C30.261 20.8165 30.5497 20.5651 31.0061 20.4626C31.3042 20.3974 31.6302 20.4067 31.9469 20.4626C32.0401 20.4812 32.1053 20.4905 32.1332 20.4998L38.0014 21.8691L38.1132 21.9064C38.2063 21.9436 38.3088 22.0181 38.4112 22.1206C38.8024 22.5397 39.026 23.3315 38.9142 24.6355C38.5323 29.1997 36.4086 32.0313 31.3601 31.9847C31.0806 31.9847 30.8571 32.2083 30.8571 32.4784C30.8571 32.7578 31.0806 32.9814 31.3508 32.9814C37.014 33.028 39.4917 29.7399 39.9109 24.71C40.0413 23.1452 39.7525 22.074 39.1471 21.4313C38.8118 21.0774 38.4578 20.9097 38.1877 20.8724L32.3847 19.5218C32.3474 19.5125 32.2543 19.4846 32.1239 19.4659C31.6861 19.3914 31.2297 19.3821 30.7826 19.4752C30.0002 19.6522 29.404 20.1459 29.1525 21.0028C28.6682 22.6143 29.1805 23.881 31.6209 24.5424L33.0274 24.8684Z" fill="white"/>
</svg>
