<svg xmlns="http://www.w3.org/2000/svg" width="64" height="40" viewBox="0 0 64 40" fill="none"><rect width="64" height="40" fill="#674399" rx="3"/><path fill="#fff" fill-rule="evenodd" d="M10.62 13h22.96a2.62 2.62 0 0 1 2.63 2.61v8.7a2.62 2.62 0 0 1-2.63 2.6h-8.23l1.13 2.76-4.97-2.75H10.63A2.62 2.62 0 0 1 8 24.3v-8.7A2.6 2.6 0 0 1 10.62 13ZM9.4 15.37c.16-.22.4-.33.72-.36.6-.04.93.23 1 .83.36 2.4.76 4.42 1.17 6.08l2.53-4.78c.23-.43.52-.66.86-.68.51-.04.82.28.95.96.29 1.52.66 2.81 1.1 3.91.3-2.9.8-5 1.52-6.3a.89.89 0 0 1 .76-.5 1 1 0 0 1 .72.23.9.9 0 0 1 .36.66c.01.2-.02.37-.11.54-.45.83-.82 2.21-1.12 4.14-.3 1.86-.4 3.32-.32 4.36.02.28-.03.54-.14.75a.74.74 0 0 1-.61.42c-.3.02-.62-.12-.92-.43-1.07-1.09-1.92-2.71-2.54-4.87l-1.67 3.3c-.68 1.29-1.25 1.95-1.74 1.98-.3.03-.57-.24-.8-.79-.6-1.5-1.23-4.4-1.9-8.68-.04-.3.02-.56.18-.77Zm24.8 1.8a2.65 2.65 0 0 0-1.85-1.33 3.05 3.05 0 0 0-.62-.07c-1.11 0-2.01.57-2.71 1.72-.6.97-.9 2.05-.9 3.23 0 .88.18 1.63.55 2.26a2.65 2.65 0 0 0 1.84 1.33c.22.05.43.07.63.07 1.12 0 2.02-.57 2.7-1.72.6-.98.9-2.06.9-3.24 0-.9-.18-1.64-.55-2.25Zm-1.46 3.17a3.02 3.02 0 0 1-.88 1.7c-.33.29-.64.42-.93.36-.28-.06-.5-.3-.68-.75-.14-.35-.2-.7-.2-1.04a3.69 3.69 0 0 1 .7-2.2c.36-.56.77-.79 1.18-.7.28.05.51.3.68.74.14.35.21.7.21 1.04 0 .3-.03.58-.08.85Zm-7.62-4.5c.8.17 1.43.6 1.84 1.33.37.61.56 1.36.56 2.25a6.1 6.1 0 0 1-.9 3.24c-.7 1.15-1.6 1.72-2.71 1.72-.2 0-.4-.02-.63-.07a2.66 2.66 0 0 1-1.84-1.33 4.4 4.4 0 0 1-.56-2.26c0-1.18.3-2.26.9-3.23.7-1.15 1.6-1.72 2.71-1.72.2 0 .4.02.63.07Zm-.49 6.2c.43-.39.72-.95.88-1.7a4 4 0 0 0 .08-.85c0-.33-.07-.69-.2-1.04-.18-.45-.41-.69-.69-.75-.41-.08-.82.15-1.2.71a3.69 3.69 0 0 0-.69 2.2c0 .33.07.69.2 1.04.18.45.41.7.69.75.29.06.6-.07.93-.37Zm16.33-6.66h-2.44v8.88h1.97v-3.38h.34a3.1 3.1 0 0 0 2.2-.73c.52-.5.79-1.17.79-2.04 0-.82-.26-1.48-.78-1.98a2.87 2.87 0 0 0-2.08-.75Zm-.47 3.8v-2.1c.46.01.79.1 1 .26.2.15.3.42.3.8 0 .35-.1.61-.32.78-.2.16-.53.25-.98.26Zm9.74 5.08h-2.05l-.34-1.49h-2.08l-.35 1.49h-2.01l2.3-8.88h2.22l2.31 8.88Zm-2.76-3.08c-.3-1.32-.52-2.58-.67-3.77h-.03a42.7 42.7 0 0 1-.65 3.77h1.35Zm4.1-5.8h-2.22l2.3 4.86v4.02h2v-4.02L56 15.38h-2.27a53.23 53.23 0 0 0-1.06 2.95h-.02a59.3 59.3 0 0 0-1.07-2.95Z" clip-rule="evenodd"/></svg>
