<svg width="39" height="24" viewBox="0 0 39 24" fill="none" xmlns="http://www.w3.org/2000/svg">
<rect x="0.5" y="0.5" width="37.4" height="23" rx="1.5" fill="#7F54B3"/>
<g clip-path="url(#clip0_1424_5225)">
<path d="M22.7079 9.78448H24.2389C24.7792 9.78448 25.2124 9.91314 25.5383 10.1704C25.8642 10.4278 26.0272 10.7665 26.0272 11.1868C26.0272 11.6285 25.8599 11.9759 25.5297 12.2246C25.1995 12.4733 24.7406 12.602 24.1531 12.602H23.9387V14.3302H22.6993V9.78448H22.7079ZM23.943 10.655V11.7272C24.2217 11.7229 24.4276 11.68 24.5562 11.5942C24.6892 11.5084 24.7535 11.3755 24.7535 11.1954C24.7535 10.9981 24.6892 10.8609 24.5605 10.7837C24.4362 10.7022 24.2303 10.6593 23.943 10.655Z" fill="white"/>
<path d="M29.8739 14.326H28.5873L28.3772 13.5669H27.0692L26.8548 14.326H25.594L27.0392 9.78021H28.4287L29.8739 14.326ZM28.1413 12.7521C27.9569 12.0745 27.8154 11.4313 27.7253 10.8223H27.7082C27.6096 11.4527 27.4723 12.096 27.2965 12.7521H28.1413Z" fill="white"/>
<path d="M29.132 9.78448H30.5214C30.8302 10.4363 31.0532 10.9424 31.1904 11.294H31.2076C31.3448 10.9295 31.5678 10.4278 31.868 9.78448H33.2875L31.8251 12.2718V14.3259H30.5729V12.2718L29.132 9.78448Z" fill="white"/>
<path fill-rule="evenodd" clip-rule="evenodd" d="M19.8218 7.97479H6.62625C5.79 7.97479 5.11243 8.65237 5.11243 9.48432V14.519C5.11243 15.3509 5.79 16.0285 6.62196 16.0285H12.8745L15.7349 17.6195L15.0873 16.0285H19.8218C20.6537 16.0285 21.3313 15.3509 21.3313 14.519V9.48432C21.3313 8.65237 20.6537 7.97479 19.8218 7.97479ZM6.34746 9.13693C6.1845 9.14122 6.0344 9.21841 5.93148 9.34278C5.83285 9.47143 5.79425 9.63439 5.82856 9.79735C6.21881 12.2846 6.58332 13.9614 6.92211 14.8277C7.04648 15.145 7.20086 15.2951 7.38097 15.2823C7.65543 15.2608 7.98993 14.8792 8.38018 14.1287C8.46691 13.9552 8.57264 13.7445 8.69676 13.4971L8.69701 13.4966C8.87355 13.1447 9.0873 12.7187 9.3365 12.2203C9.69673 13.4683 10.1856 14.4074 10.8031 15.0378C10.979 15.2137 11.1505 15.2951 11.3263 15.2823C11.4764 15.2737 11.6137 15.1793 11.678 15.0421C11.7423 14.9092 11.7723 14.7591 11.7552 14.609C11.7123 14.0043 11.7766 13.1595 11.9396 12.0831C12.1068 10.9681 12.3213 10.1704 12.5786 9.69014C12.63 9.5958 12.6515 9.4843 12.6429 9.3728C12.6343 9.2227 12.5614 9.08118 12.4413 8.99113C12.3255 8.89249 12.1755 8.84532 12.0254 8.85819C11.8367 8.86676 11.6694 8.97826 11.5879 9.1498C11.1805 9.90028 10.8889 11.1182 10.7131 12.7993C10.4343 12.0659 10.2242 11.3069 10.087 10.535C10.0141 10.1404 9.83396 9.95603 9.54235 9.97747C9.34079 9.99033 9.17783 10.1233 9.04489 10.372L7.59111 13.1338C7.35524 12.1689 7.13224 10.9938 6.9264 9.61295C6.87494 9.27416 6.68196 9.11549 6.34746 9.13693ZM16.0223 10.3849C15.7993 9.98604 15.4133 9.70301 14.963 9.61724C14.8429 9.59151 14.7229 9.57864 14.6028 9.57864C13.9681 9.57864 13.4492 9.90885 13.0461 10.5693C12.703 11.1311 12.5229 11.7786 12.5315 12.4347C12.5315 12.9451 12.6387 13.3825 12.8488 13.747C13.0718 14.1458 13.4578 14.4289 13.9081 14.5146C14.0281 14.5404 14.1482 14.5532 14.2683 14.5532C14.9073 14.5532 15.4262 14.223 15.825 13.5626C16.1681 12.9965 16.3482 12.349 16.3396 11.6843C16.3396 11.1739 16.2324 10.7408 16.0223 10.3849ZM15.186 12.2246C15.096 12.6577 14.9287 12.9837 14.68 13.2067C14.487 13.3825 14.3069 13.4511 14.1439 13.4211C13.981 13.3911 13.8523 13.2453 13.7537 12.9922C13.6808 12.7993 13.6379 12.5977 13.6379 12.3876C13.6379 12.2246 13.655 12.0616 13.6851 11.903C13.7494 11.6199 13.8652 11.3541 14.0367 11.1139C14.2554 10.7923 14.487 10.655 14.7271 10.7065C14.8901 10.7408 15.0188 10.8823 15.1174 11.1353C15.1903 11.3283 15.2332 11.5299 15.2332 11.7357C15.2332 11.8987 15.2203 12.0616 15.186 12.2246ZM19.1142 9.61724C19.5645 9.70301 19.9504 9.98604 20.1734 10.3849C20.3836 10.7408 20.4908 11.1739 20.4908 11.6843C20.4993 12.349 20.3192 12.9965 19.9762 13.5626C19.5773 14.223 19.0584 14.5532 18.4194 14.5532C18.2994 14.5532 18.1793 14.5404 18.0592 14.5146C17.6089 14.4289 17.223 14.1458 17 13.747C16.7898 13.3825 16.6826 12.9451 16.6826 12.4347C16.6741 11.7786 16.8542 11.1311 17.1972 10.5693C17.6004 9.90885 18.1193 9.57864 18.7539 9.57864C18.874 9.57864 18.9941 9.59151 19.1142 9.61724ZM18.8311 13.2067C19.0799 12.9837 19.2471 12.6577 19.3372 12.2246C19.3715 12.0616 19.3843 11.8987 19.3843 11.7357C19.3843 11.5299 19.3415 11.3283 19.2686 11.1353C19.1699 10.8823 19.0413 10.7408 18.8783 10.7065C18.6382 10.655 18.4066 10.7923 18.1879 11.1139C18.0163 11.3541 17.9005 11.6199 17.8362 11.903C17.8062 12.0616 17.789 12.2246 17.789 12.3876C17.789 12.5977 17.8319 12.7993 17.9048 12.9922C18.0035 13.2453 18.1321 13.3911 18.2951 13.4211C18.458 13.4511 18.6382 13.3825 18.8311 13.2067Z" fill="white"/>
</g>
<rect x="0.5" y="0.5" width="37.4" height="23" rx="1.5" stroke="#DDDDDD"/>
<defs>
<clipPath id="clip0_1424_5225">
<rect width="28.175" height="18.0061" fill="white" transform="translate(5.11243 2.99695)"/>
</clipPath>
</defs>
</svg>
