<svg width="16" height="16" viewBox="0 0 16 16" fill="none" xmlns="http://www.w3.org/2000/svg">
    <mask id="mask0_4501_679" style="mask-type:alpha" maskUnits="userSpaceOnUse" x="2" y="1" width="12" height="14">
        <path fill-rule="evenodd" clip-rule="evenodd"
            d="M12 5.33331H11.3334V4.66665C11.3334 2.82865 9.83802 1.33331 8.00002 1.33331C6.16202 1.33331 4.66669 2.82865 4.66669 4.66665V5.33331H4.00002C3.26335 5.33331 2.66669 5.92998 2.66669 6.66665V13.3333C2.66669 14.07 3.26335 14.6666 4.00002 14.6666H12C12.7367 14.6666 13.3334 14.07 13.3334 13.3333V6.66665C13.3334 5.92998 12.7367 5.33331 12 5.33331ZM6.00002 4.66665C6.00002 3.56398 6.89735 2.66665 8.00002 2.66665C9.10269 2.66665 10 3.56398 10 4.66665V5.33331H6.00002V4.66665ZM8.66669 12V10.482C9.06335 10.2506 9.33335 9.82531 9.33335 9.33331C9.33335 8.59665 8.73669 7.99998 8.00002 7.99998C7.26335 7.99998 6.66669 8.59665 6.66669 9.33331C6.66669 9.82598 6.93669 10.2513 7.33335 10.482V12H8.66669Z"
            fill="white" />
    </mask>
    <g mask="url(#mask0_4501_679)">
        <rect width="16" height="16" fill="#00BA37" />
    </g>
</svg>
