<svg xmlns="http://www.w3.org/2000/svg" width="156" height="140" fill="none" viewBox="12 18 140 140"><filter id="a" width="142" height="141" x="14" y="15.43" color-interpolation-filters="sRGB" filterUnits="userSpaceOnUse"><feFlood flood-opacity="0" result="BackgroundImageFix"/><feColorMatrix in="SourceAlpha" result="hardAlpha" values="0 0 0 0 0 0 0 0 0 0 0 0 0 0 0 0 0 0 127 0"/><feOffset/><feGaussianBlur stdDeviation="16"/><feComposite in2="hardAlpha" operator="out"/><feColorMatrix values="0 0 0 0 0 0 0 0 0 0 0 0 0 0 0 0 0 0 0.1 0"/><feBlend in2="BackgroundImageFix" result="effect1_dropShadow_4076_22117"/><feBlend in="SourceGraphic" in2="effect1_dropShadow_4076_22117" result="shape"/></filter><filter id="b" width="133" height="116" x="0" y=".43" color-interpolation-filters="sRGB" filterUnits="userSpaceOnUse"><feFlood flood-opacity="0" result="BackgroundImageFix"/><feColorMatrix in="SourceAlpha" result="hardAlpha" values="0 0 0 0 0 0 0 0 0 0 0 0 0 0 0 0 0 0 127 0"/><feOffset/><feGaussianBlur stdDeviation="16"/><feComposite in2="hardAlpha" operator="out"/><feColorMatrix values="0 0 0 0 0 0 0 0 0 0 0 0 0 0 0 0 0 0 0.1 0"/><feBlend in2="BackgroundImageFix" result="effect1_dropShadow_4076_22117"/><feBlend in="SourceGraphic" in2="effect1_dropShadow_4076_22117" result="shape"/></filter><mask id="c" width="18" height="20" x="103" y="102" maskUnits="userSpaceOnUse"><path fill="#fff" fill-rule="evenodd" d="M121 106.43v13a2 2 0 0 1-2 2h-14a2 2 0 0 1-2-2v-13c0-1.1.9-2 2-2h1v-2h2v2h8v-2h2v2h1a2 2 0 0 1 2 2zm-10.5 12-3.7-3.7 1.4-1.42 2.3 2.3 5.3-5.3 1.41 1.42zm-5.5-10h14v11h-14z" clip-rule="evenodd"/></mask><g filter="url(#a)"><rect width="78" height="77" x="46" y="47.43" fill="#dcdcde" rx="12"/></g><rect width="23" height="4" x="57" y="97.43" fill="#fff" rx="2"/><rect width="17.77" height="4" x="57" y="107.43" fill="#fff" rx="2"/><g filter="url(#b)"><rect width="69" height="52" x="32" y="32.43" fill="#fff" rx="12"/></g><path fill="#674399" d="M44 60.15a2.39 2.39 0 1 1 4.78 0v2.4a2.39 2.39 0 0 1-4.78 0z"/><rect width="4.78" height="10.75" x="53.56" y="54.18" fill="#af7dd1" rx="2.39"/><rect width="4.78" height="14.33" x="63.11" y="50.59" fill="#674399" rx="2.39"/><rect width="4.78" height="17.92" x="72.67" y="47.01" fill="#af7dd1" rx="2.39"/><rect width="4.78" height="21.5" x="82.22" y="43.43" fill="#674399" rx="2.39"/><g fill="#f6f7f7"><path d="M44 70.93a2.5 2.5 0 1 1 5 0 2.5 2.5 0 0 1-5 0z"/><rect width="5" height="5" x="53.56" y="68.43" rx="2.5"/><rect width="5" height="5" x="63.11" y="68.43" rx="2.5"/><rect width="5" height="5" x="72.67" y="68.43" rx="2.5"/><rect width="5" height="5" x="82.22" y="68.43" rx="2.5"/></g><rect width="40" height="40" x="92" y="92.43" fill="#9a69c7" rx="20"/><g mask="url(#c)"><path fill="#fff" d="M100 100.43h24v24h-24z"/></g></svg>
