<svg xmlns="http://www.w3.org/2000/svg" width="140" height="140" fill="none" viewBox="12 9 140 140"><filter id="a" width="140" height="140" x="0" y=".43" color-interpolation-filters="sRGB" filterUnits="userSpaceOnUse"><feFlood flood-opacity="0" result="BackgroundImageFix"/><feColorMatrix in="SourceAlpha" result="hardAlpha" values="0 0 0 0 0 0 0 0 0 0 0 0 0 0 0 0 0 0 127 0"/><feOffset/><feGaussianBlur stdDeviation="16"/><feComposite in2="hardAlpha" operator="out"/><feColorMatrix values="0 0 0 0 0 0 0 0 0 0 0 0 0 0 0 0 0 0 0.1 0"/><feBlend in2="BackgroundImageFix" result="effect1_dropShadow_4076_22114"/><feBlend in="SourceGraphic" in2="effect1_dropShadow_4076_22114" result="shape"/></filter><mask id="b" width="20" height="21" x="102" y="32" maskUnits="userSpaceOnUse"><path fill="#fff" fill-rule="evenodd" d="M102 42.43a10 10 0 1 1 20 0 10 10 0 0 1-20 0zm13 5-1 1-2 2a8 8 0 0 0 7.29-4.72l-.29-.28h-2l-1-1v-2l2-2h1.74a7.98 7.98 0 0 0-1.61-3.13L115 40.43l-1-1v-2l1-1v-1.41a7.95 7.95 0 0 0-6 0v.4l1 1h2v2l-3 3h-2v2h-2l-1-1a8 8 0 0 0 7 7.94v-1.93l-2-2v-3h3l1 1v1h2z" clip-rule="evenodd"/></mask><rect width="76" height="80" x="48" y="42.43" fill="#dcdcde" rx="12"/><g filter="url(#a)"><rect width="76" height="76" x="32" y="32.43" fill="#fff" rx="12"/></g><rect width="40" height="40" x="92" y="22.43" fill="#9a69c7" rx="20"/><g mask="url(#b)"><path fill="#fff" d="M100 30.43h24v24h-24z"/></g><rect width="19" height="13" x="41" y="42.43" fill="#f7edf7" rx="2"/><path fill="#674399" d="M50.25 53.12h.56v-.8c1.39-.1 2.38-.81 2.38-2.03v-.01c0-1.07-.7-1.6-2.03-1.9l-.35-.08v-1.7c.55.08.92.4.98.92h1.3c-.04-1.15-.93-1.92-2.28-2.02v-.83h-.56v.83c-1.34.07-2.3.8-2.3 1.97 0 1.06.7 1.63 1.97 1.92l.33.07v1.76c-.67-.07-1.01-.39-1.1-.89h-1.3c.03 1.22 1.03 1.91 2.4 2zm-.94-5.75v-.01c0-.4.33-.7.94-.77v1.58c-.66-.18-.94-.42-.94-.8zm2.52 3.06c0 .45-.34.73-1.02.8v-1.64c.76.2 1.02.41 1.02.84z"/><rect width="16" height="4.14" x="70" y="46.43" fill="#533582" rx="2.07"/><rect width="19" height="13" x="41" y="63.43" fill="#f7edf7" rx="2"/><path fill="#674399" d="M47.79 73.28h5.41v-1.17h-3.48v-.06c.53-.3.8-.76.8-1.37 0-.15-.02-.3-.05-.43h1.95v-.72h-2.17c-.1-.27-.17-.53-.17-.83 0-.68.52-1.07 1.45-1.07.51 0 1.05.1 1.36.24v-1.13a4.44 4.44 0 0 0-1.57-.25c-1.66 0-2.68.77-2.68 2.04 0 .36.1.68.2 1H47.8v.72h1.28c.04.16.06.32.06.5 0 .75-.49 1.26-1.34 1.43z"/><rect width="25" height="4" x="70" y="68.43" fill="#533582" rx="2"/><rect width="19" height="13" x="41" y="84.43" fill="#f7edf7" rx="2"/><path fill="#674399" d="M48.12 93.13h1.66v1.15h1.44v-1.15h1.66v-.56h-1.66v-.7h1.66v-.56h-1.39l2.1-3.78h-1.53l-1.52 3.02h-.06l-1.52-3.02h-1.55l2.1 3.78h-1.4v.56h1.67v.7h-1.66z"/><rect width="18" height="4" x="70" y="89.43" fill="#533582" rx="2"/></svg>
