<svg xmlns="http://www.w3.org/2000/svg" width="140" height="140" fill="none" viewBox="-2 2 140 140"><filter id="a" width="140" height="148" x="0" y=".429" color-interpolation-filters="sRGB" filterUnits="userSpaceOnUse"><feFlood flood-opacity="0" result="BackgroundImageFix"/><feColorMatrix in="SourceAlpha" result="hardAlpha" values="0 0 0 0 0 0 0 0 0 0 0 0 0 0 0 0 0 0 127 0"/><feOffset/><feGaussianBlur stdDeviation="16"/><feComposite in2="hardAlpha" operator="out"/><feColorMatrix values="0 0 0 0 0 0 0 0 0 0 0 0 0 0 0 0 0 0 0.1 0"/><feBlend in2="BackgroundImageFix" result="effect1_dropShadow_4076_22111"/><feBlend in="SourceGraphic" in2="effect1_dropShadow_4076_22111" result="shape"/></filter><mask id="b" width="20" height="17" x="36" y="38" maskUnits="userSpaceOnUse"><path fill="#fff" fill-rule="evenodd" d="M54 38.429H38a2 2 0 0 0-2 2v12a2 2 0 0 0 2 2h16a2 2 0 0 0 2-2v-12a2 2 0 0 0-2-2zm0 2v2H38v-2zm-16 6v6h16v-6zm2 2h7v2h-7zm12 0h-3v2h3z" clip-rule="evenodd"/></mask><mask id="c" width="16" height="17" x="74" y="48" maskUnits="userSpaceOnUse"><path fill="#fff" fill-rule="evenodd" d="M88.124 55.957a1.666 1.666 0 0 1-1.626 1.305h-8.664v1.667h8.334c.92 0 1.666.746 1.666 1.667h-10c-.92 0-1.666-.746-1.666-1.667v-9.167H74.5v-1.666h1.667c.92 0 1.666.746 1.666 1.666v.834h11.667zm-8.623 7.139c0 .916-.75 1.666-1.666 1.666-.917 0-1.659-.75-1.659-1.666s.742-1.667 1.659-1.667c.916 0 1.666.75 1.666 1.667zm6.666-1.667c-.916 0-1.658.75-1.658 1.667s.742 1.666 1.658 1.666 1.667-.75 1.667-1.666-.75-1.667-1.667-1.667z" clip-rule="evenodd"/></mask><rect width="76" height="76" x="16" y="16.429" fill="#dcdcde" rx="12"/><g filter="url(#a)"><rect width="76" height="84" x="32" y="32.429" fill="#fff" rx="12"/></g><rect width="40" height="40" x="26" y="26.429" fill="#9a69c7" rx="20"/><g mask="url(#b)"><path fill="#fff" d="M34 34.429h24v24H34z"/></g><g mask="url(#c)"><path fill="#a7aaad" d="M72 46.429h20v20H72z"/></g><rect width="36.897" height="11.034" x="45" y="92.429" fill="#674399" rx="5.517"/><g fill="#dcdcde"><rect width="48.999" height="4.138" x="46.001" y="73.429" rx="2.069"/><rect width="49" height="4" x="46" y="81.429" rx="2"/></g></svg>
