<svg xmlns="http://www.w3.org/2000/svg" width="603" height="200" fill="none" viewBox="0 0 603 200"><rect width="603" height="200" fill="#F6F7F7"/><rect width="461" height="86" x="70" y="57" fill="#F7EDF7" rx="10"/><g filter="url(#a)"><rect width="131" height="183" x="179" y="165" fill="#fff" rx="6" transform="rotate(-90 179 165)"/></g><path fill="#9A69C7" d="M179 47V37a6 6 0 0 1 6-6h171a6 6 0 0 1 6 6v10H179Z"/><circle cx="188" cy="39" r="2" fill="#fff"/><circle cx="196" cy="39" r="2" fill="#fff"/><circle cx="204" cy="39" r="2" fill="#fff"/><path fill="#C3C4C7" d="M217 109a10 10 0 0 1 10-10h5a10 10 0 0 1 10 10v7a4 4 0 0 1-4 4h-17a4 4 0 0 1-4-4v-7Z"/><circle cx="229.5" cy="94.5" r="8.5" fill="#C3C4C7" stroke="#fff" stroke-width="4"/><circle cx="229" cy="99" r="22" stroke="#674399" stroke-width="6"/><line x1="246.24" x2="256" y1="113" y2="122.76" stroke="#674399" stroke-linecap="round" stroke-width="6"/><g filter="url(#b)"><rect width="52" height="118" x="442" y="126" fill="#fff" rx="6" transform="rotate(-90 442 126)"/></g><rect width="49" height="5" x="495" y="93" fill="#F7EDF7" rx="2.5"/><rect width="31" height="5" x="495" y="103" fill="#F7EDF7" rx="2.5"/><circle cx="470.5" cy="100.5" r="14.5" fill="#F7EDF7"/><rect width="16" height="2.4" x="463" y="105.6" fill="#C792E0" rx="1"/><path fill="#C792E0" d="M471.37 92.15a1 1 0 0 0-.74 0l-7.03 2.81a.95.95 0 0 0 .35 1.84h14.1a.95.95 0 0 0 .35-1.84l-7.03-2.81Z"/><rect width="2.4" height="5.6" x="475" y="98.4" fill="#C792E0" rx="1"/><rect width="2.4" height="5.6" x="469.8" y="98.4" fill="#C792E0" rx="1"/><rect width="2.4" height="5.6" x="464.6" y="98.4" fill="#C792E0" rx="1"/><g filter="url(#c)"><rect width="22" height="22" x="549" y="64" fill="#E5CFE8" rx="11"/></g><path stroke="#fff" stroke-linecap="round" stroke-width="3" d="m563.5 73.12-4.7 4.7-2.76-2.76"/><g filter="url(#d)"><rect width="141" height="52.04" x="285" y="73.98" fill="#fff" rx="7.08"/><path fill="#533582" d="M301.24 87.22a3.5 3.5 0 0 0-2.07 3.13c-.15 5.48.64 19.8 12.58 24.49 1.07.42 2.25.46 3.32.04 3.99-1.53 13.7-7.07 13.05-24.44a3.65 3.65 0 0 0-2.15-3.25 30.51 30.51 0 0 0-24.73.03Z"/><rect width="5" height="7" x="311.15" y="91.59" stroke="#fff" stroke-width="2" rx="2.5"/><rect width="11" height="9" x="308.15" y="95.59" fill="#fff" rx="1"/><path stroke="#533582" stroke-linecap="round" stroke-width="1.5" d="m315.85 98.78-2.88 2.88-1.69-1.7"/><rect width="61.23" height="5.31" x="338.77" y="86.73" fill="#E5CFE8" rx="2.65"/><rect width="61.23" height="5.31" x="338.77" y="97.35" fill="#E5CFE8" rx="2.65"/><rect width="15.62" height="5.31" x="338.77" y="107.96" fill="#D6B4E0" rx="2.65"/></g><g filter="url(#e)"><rect width="22" height="22" x="411" y="64" fill="#533582" rx="11"/></g><path stroke="#fff" stroke-linecap="round" stroke-width="3" d="m425.5 73.12-4.7 4.7-2.76-2.76"/><g filter="url(#f)"><rect width="52" height="118" x="40" y="126" fill="#fff" rx="6" transform="rotate(-90 40 126)"/></g><rect width="49" height="5" x="93" y="93" fill="#DCDCDE" rx="2.5"/><rect width="31" height="5" x="93" y="103" fill="#DCDCDE" rx="2.5"/><circle cx="68.5" cy="100.5" r="14.5" fill="#F6F7F7"/><path fill="#A7AAAD" fill-rule="evenodd" d="M77 99.22a1 1 0 0 1-1 1H62a1 1 0 0 1-1-1v-1.07l.82-3.38a1 1 0 0 1 .97-.77H75.2a1 1 0 0 1 .97.77l.82 3.38v1.07Zm-2.05-3.89h-11.9l-.72 2.98v.58h13.34v-.58l-.72-2.98Z" clip-rule="evenodd"/><path fill="#A7AAAD" fill-rule="evenodd" d="M62.11 99.33h1.33v7.34h11.12v-7.34h1.33V107a1 1 0 0 1-1 1H63.1a1 1 0 0 1-1-1v-7.67Z" clip-rule="evenodd"/><path fill="#A7AAAD" d="M67.22 103a1 1 0 0 1 1-1h1.56a1 1 0 0 1 1 1v4.33h-3.56V103Z"/><path fill="#A7AAAD" fill-rule="evenodd" d="m65.23 94.79 1.32.2-.49 3.22-.04 1.15-1.33-.05.04-1.22.5-3.3ZM72.77 94.79l-1.32.2.49 3.22.04 1.15 1.33-.05-.04-1.22-.5-3.3ZM68.33 99.33V94.9h1.34v4.44h-1.34Z" clip-rule="evenodd"/><g filter="url(#g)"><rect width="22" height="22" x="147" y="64" fill="#C3C4C7" rx="11"/></g><path stroke="#fff" stroke-linecap="round" stroke-width="3" d="m161.5 73.12-4.7 4.7-2.76-2.76"/><path fill="#674399" d="M414 124.35a3 3 0 0 1 4.23-3.52l29.27 14.8a3 3 0 0 1-.13 5.41l-10.8 4.83a3 3 0 0 0-1.25 1.04l-6.7 9.76a3 3 0 0 1-5.35-.86L414 124.35Z"/><defs><filter id="a" width="247" height="195" x="147" y="2" color-interpolation-filters="sRGB" filterUnits="userSpaceOnUse"><feFlood flood-opacity="0" result="BackgroundImageFix"/><feColorMatrix in="SourceAlpha" result="hardAlpha" values="0 0 0 0 0 0 0 0 0 0 0 0 0 0 0 0 0 0 127 0"/><feOffset/><feGaussianBlur stdDeviation="16"/><feComposite in2="hardAlpha" operator="out"/><feColorMatrix values="0 0 0 0 0 0 0 0 0 0 0 0 0 0 0 0 0 0 0.1 0"/><feBlend in2="BackgroundImageFix" result="effect1_dropShadow_883_67514"/><feBlend in="SourceGraphic" in2="effect1_dropShadow_883_67514" result="shape"/></filter><filter id="b" width="182" height="116" x="410" y="42" color-interpolation-filters="sRGB" filterUnits="userSpaceOnUse"><feFlood flood-opacity="0" result="BackgroundImageFix"/><feColorMatrix in="SourceAlpha" result="hardAlpha" values="0 0 0 0 0 0 0 0 0 0 0 0 0 0 0 0 0 0 127 0"/><feOffset/><feGaussianBlur stdDeviation="16"/><feComposite in2="hardAlpha" operator="out"/><feColorMatrix values="0 0 0 0 0 0 0 0 0 0 0 0 0 0 0 0 0 0 0.1 0"/><feBlend in2="BackgroundImageFix" result="effect1_dropShadow_883_67514"/><feBlend in="SourceGraphic" in2="effect1_dropShadow_883_67514" result="shape"/></filter><filter id="c" width="86" height="86" x="517" y="32" color-interpolation-filters="sRGB" filterUnits="userSpaceOnUse"><feFlood flood-opacity="0" result="BackgroundImageFix"/><feColorMatrix in="SourceAlpha" result="hardAlpha" values="0 0 0 0 0 0 0 0 0 0 0 0 0 0 0 0 0 0 127 0"/><feOffset/><feGaussianBlur stdDeviation="16"/><feComposite in2="hardAlpha" operator="out"/><feColorMatrix values="0 0 0 0 0 0 0 0 0 0 0 0 0 0 0 0 0 0 0.1 0"/><feBlend in2="BackgroundImageFix" result="effect1_dropShadow_883_67514"/><feBlend in="SourceGraphic" in2="effect1_dropShadow_883_67514" result="shape"/></filter><filter id="d" width="176.39" height="87.43" x="267.31" y="56.29" color-interpolation-filters="sRGB" filterUnits="userSpaceOnUse"><feFlood flood-opacity="0" result="BackgroundImageFix"/><feColorMatrix in="SourceAlpha" result="hardAlpha" values="0 0 0 0 0 0 0 0 0 0 0 0 0 0 0 0 0 0 127 0"/><feOffset/><feGaussianBlur stdDeviation="8.85"/><feColorMatrix values="0 0 0 0 0 0 0 0 0 0 0 0 0 0 0 0 0 0 0.1 0"/><feBlend in2="BackgroundImageFix" result="effect1_dropShadow_883_67514"/><feBlend in="SourceGraphic" in2="effect1_dropShadow_883_67514" result="shape"/></filter><filter id="e" width="86" height="86" x="379" y="32" color-interpolation-filters="sRGB" filterUnits="userSpaceOnUse"><feFlood flood-opacity="0" result="BackgroundImageFix"/><feColorMatrix in="SourceAlpha" result="hardAlpha" values="0 0 0 0 0 0 0 0 0 0 0 0 0 0 0 0 0 0 127 0"/><feOffset/><feGaussianBlur stdDeviation="16"/><feComposite in2="hardAlpha" operator="out"/><feColorMatrix values="0 0 0 0 0 0 0 0 0 0 0 0 0 0 0 0 0 0 0.1 0"/><feBlend in2="BackgroundImageFix" result="effect1_dropShadow_883_67514"/><feBlend in="SourceGraphic" in2="effect1_dropShadow_883_67514" result="shape"/></filter><filter id="f" width="182" height="116" x="8" y="42" color-interpolation-filters="sRGB" filterUnits="userSpaceOnUse"><feFlood flood-opacity="0" result="BackgroundImageFix"/><feColorMatrix in="SourceAlpha" result="hardAlpha" values="0 0 0 0 0 0 0 0 0 0 0 0 0 0 0 0 0 0 127 0"/><feOffset/><feGaussianBlur stdDeviation="16"/><feComposite in2="hardAlpha" operator="out"/><feColorMatrix values="0 0 0 0 0 0 0 0 0 0 0 0 0 0 0 0 0 0 0.1 0"/><feBlend in2="BackgroundImageFix" result="effect1_dropShadow_883_67514"/><feBlend in="SourceGraphic" in2="effect1_dropShadow_883_67514" result="shape"/></filter><filter id="g" width="86" height="86" x="115" y="32" color-interpolation-filters="sRGB" filterUnits="userSpaceOnUse"><feFlood flood-opacity="0" result="BackgroundImageFix"/><feColorMatrix in="SourceAlpha" result="hardAlpha" values="0 0 0 0 0 0 0 0 0 0 0 0 0 0 0 0 0 0 127 0"/><feOffset/><feGaussianBlur stdDeviation="16"/><feComposite in2="hardAlpha" operator="out"/><feColorMatrix values="0 0 0 0 0 0 0 0 0 0 0 0 0 0 0 0 0 0 0.1 0"/><feBlend in2="BackgroundImageFix" result="effect1_dropShadow_883_67514"/><feBlend in="SourceGraphic" in2="effect1_dropShadow_883_67514" result="shape"/></filter></defs></svg>