<svg xmlns="http://www.w3.org/2000/svg" fill="none" viewBox="0 0 293 275"><clipPath id="a"><path d="M0 0h293v275H0z"/></clipPath><clipPath id="b"><path d="M27 42h120v39.8H27z"/></clipPath><g clip-path="url(#a)"><path fill="#f6f7f7" d="M0 10A10 10 0 0 1 10 0h715a10 10 0 0 1 10 10v322H0z"/><circle cx="17" cy="14" r="5" fill="#d94f4f"/><circle cx="35" cy="14" r="5" fill="#f0b849"/><circle cx="53" cy="14" r="5" fill="#4ab866"/><path fill="#fff" d="M3 28h730v304H3z"/><path stroke="#dcdcde" d="M27 95.5h293m-271 62h257m-257 41h257"/><rect width="372" height="127" viewBox="0 0 372 127" x="27.5" y="116.5" stroke="#dcdcde" rx="9.5"/><path fill="#2c3338" d="M49.9 143h2.42c2.09 0 3.32-1.3 3.32-3.52v-.01c0-2.21-1.23-3.52-3.32-3.52H49.9zm.88-.8v-5.45h1.48c1.56 0 2.48 1.01 2.48 2.73s-.91 2.73-2.48 2.73h-1.48zm8.43.9c1.24 0 1.99-.71 2.17-1.42v-.04h-.84l-.02.04c-.14.32-.58.66-1.3.66-.93 0-1.53-.64-1.56-1.73h3.8v-.33c0-1.57-.88-2.64-2.3-2.64-1.44 0-2.37 1.12-2.37 2.74 0 1.66.91 2.71 2.42 2.71zm-.06-4.7c.77 0 1.35.5 1.44 1.53h-2.91c.09-1 .69-1.53 1.47-1.53zm3.62 6.36h.85v-2.59h.08c.29.56.92.92 1.64.92 1.34 0 2.2-1.07 2.2-2.72s-.87-2.73-2.2-2.73a1.8 1.8 0 0 0-1.64.94h-.08v-.84h-.85zm2.37-2.42c-.95 0-1.54-.75-1.54-1.97s.59-1.97 1.54-1.97c.96 0 1.54.74 1.54 1.96v.01c0 1.23-.58 1.97-1.54 1.97zm5.9.75c1.5 0 2.42-1.03 2.42-2.72 0-1.7-.92-2.73-2.42-2.73s-2.43 1.03-2.43 2.72v.01c0 1.69.93 2.72 2.43 2.72zm0-.75c-1 0-1.56-.73-1.56-1.97 0-1.25.56-1.97 1.56-1.97s1.55.72 1.55 1.96v.01c0 1.24-.56 1.97-1.55 1.97zm5.55.75c1.2 0 2.1-.65 2.1-1.58v-.01c0-.76-.47-1.19-1.46-1.43l-.81-.19c-.62-.15-.89-.38-.89-.73v-.01c0-.47.46-.79 1.09-.79s1.04.29 1.15.7h.84c-.12-.86-.88-1.4-1.99-1.4-1.12 0-1.96.65-1.96 1.53 0 .76.45 1.19 1.43 1.42l.82.2c.65.15.92.4.92.76 0 .49-.5.82-1.21.82-.68 0-1.1-.28-1.24-.72h-.87c.1.87.9 1.43 2.08 1.43zm3.87-6.37a.59.59 0 1 0-.59-.59c0 .33.27.6.6.6zm-.42 6.28h.84v-5.26h-.84zm4.32.04c.16 0 .32-.02.49-.05v-.72a3.7 3.7 0 0 1-.4.02c-.54 0-.75-.25-.75-.87v-2.98h1.15v-.7H83.7v-1.37h-.88v1.37h-.83v.7h.83v3.2c0 1 .45 1.4 1.54 1.4zm41.51.66h.58v-.81c1.15-.1 2.11-.75 2.11-1.93 0-1.03-.7-1.54-1.96-1.85l-.15-.03v-2.24c.66.08 1.13.49 1.2 1.14v.01h.84v-.01c-.04-1.07-.91-1.8-2.04-1.9v-.83h-.58v.82c-1.16.1-1.99.82-1.99 1.87 0 .96.66 1.5 1.87 1.8l.12.03v2.35c-.85-.1-1.23-.58-1.32-1.19h-.85c.04 1.14 1 1.84 2.17 1.95v.83zm-1.14-5.81v-.01c0-.47.4-.94 1.14-1.04v2.1c-.84-.2-1.14-.58-1.14-1.05zm1.75 2.02c.97.24 1.23.58 1.23 1.11v.01c0 .56-.35 1.02-1.26 1.1v-2.22zm6 3.2c1.41 0 2.45-.86 2.45-2.04 0-1-.7-1.65-1.72-1.74v-.02c.87-.18 1.49-.78 1.49-1.65 0-1.08-.88-1.82-2.23-1.82-1.32 0-2.22.76-2.34 1.91v.05h.84v-.05c.08-.71.67-1.15 1.5-1.15.86 0 1.34.42 1.34 1.16v.01c0 .7-.58 1.22-1.42 1.22h-.84v.74h.88c.98 0 1.6.49 1.6 1.35v.01c0 .75-.63 1.26-1.55 1.26-.94 0-1.57-.47-1.64-1.17v-.05h-.85v.06c.1 1.12 1.04 1.93 2.5 1.93zm6.19.06c1.43 0 2.45-1 2.45-2.42 0-1.37-.95-2.36-2.28-2.36-.63 0-1.19.26-1.5.73h-.08l.24-2.38h3.23v-.79h-3.92l-.37 4.05h.76a1.63 1.63 0 0 1 1.49-.85c.92 0 1.57.67 1.57 1.6v.02c0 .95-.64 1.62-1.58 1.62-.83 0-1.44-.54-1.52-1.21v-.04h-.85v.05c.1 1.13 1.04 1.98 2.36 1.98zm3.87-.17h4.56v-.8h-3.34v-.07l1.6-1.65c1.27-1.32 1.62-1.9 1.62-2.7v-.02c0-1.14-.94-1.97-2.17-1.97-1.35 0-2.32.9-2.32 2.15h.85c0-.83.56-1.38 1.4-1.38s1.34.55 1.34 1.3c0 .62-.26.98-1.16 1.96l-2.38 2.58zm6.58.05a.64.64 0 0 0 0-1.27.64.64 0 0 0-.63.63c0 .35.29.64.63.64zm4.19-7.26a2.37 2.37 0 0 0-2.47 2.43c0 1.36.99 2.36 2.31 2.36.95 0 1.62-.51 1.88-1.09h.09v.17c-.06 1.47-.58 2.72-1.86 2.72-.71 0-1.2-.37-1.42-.96l-.02-.05h-.88v.06a2.26 2.26 0 0 0 2.3 1.74c1.72 0 2.72-1.41 2.72-3.81v-.01c0-2.65-1.36-3.56-2.65-3.56zm0 4.03c-.92 0-1.58-.68-1.58-1.61v-.02c0-.9.7-1.63 1.59-1.63.9 0 1.59.74 1.59 1.66 0 .93-.7 1.6-1.6 1.6zm6.37-4.03a2.37 2.37 0 0 0-2.47 2.43c0 1.36.98 2.36 2.3 2.36.96 0 1.63-.51 1.88-1.09h.1v.17c-.06 1.47-.59 2.72-1.86 2.72-.72 0-1.21-.37-1.42-.96l-.02-.05h-.89l.02.06c.24 1.04 1.12 1.74 2.3 1.74 1.7 0 2.7-1.41 2.7-3.81v-.01c0-2.65-1.36-3.56-2.64-3.56zm-.01 4.03c-.91 0-1.58-.68-1.58-1.61v-.02c0-.9.71-1.63 1.6-1.63s1.59.74 1.59 1.66c0 .93-.7 1.6-1.61 1.6z"/><rect width="43" height="14" x="195.5" y="132" fill="#b8e6bf" rx="7"/><path fill="#00450c" d="M209.22 142h.7v-2.01h1.42c1.06 0 1.81-.75 1.81-1.82 0-1.08-.75-1.8-1.8-1.8h-2.13zm1.94-5.01c.8 0 1.27.44 1.27 1.18v.01c0 .74-.46 1.18-1.27 1.18h-1.24V137h1.24zm4.06 5.08c.56 0 1-.24 1.27-.7h.06v.63h.68v-2.88c0-.88-.57-1.4-1.6-1.4-.9 0-1.54.44-1.65 1.1v.02h.68c.11-.34.44-.52.95-.52.63 0 .94.28.94.8v.38l-1.2.07c-.98.06-1.54.5-1.54 1.25 0 .77.6 1.25 1.4 1.25zm-.71-1.26c0-.43.28-.65.92-.7l1.13-.06v.38c0 .6-.5 1.05-1.2 1.05-.49 0-.85-.25-.85-.67zm4.33-3.83c.25 0 .47-.21.47-.47a.47.47 0 0 0-.47-.47.47.47 0 0 0-.47.47c0 .26.2.47.47.47zm-.35 5.02h.68v-4.21h-.68zm3.52.07c.58 0 1.05-.27 1.31-.74h.06v.67h.68v-5.88h-.68v2.33h-.06a1.45 1.45 0 0 0-1.31-.73c-1.07 0-1.77.85-1.77 2.17s.7 2.18 1.77 2.18zm.15-.6c-.76 0-1.22-.6-1.22-1.57 0-.99.46-1.58 1.22-1.58.77 0 1.24.6 1.24 1.57 0 .98-.47 1.58-1.24 1.58z"/><rect width="50" height="10" x="192" y="173" fill="#b8e6bf" rx="5"/><rect width="50" height="8" x="49" y="174" fill="#dcdcde" rx="2"/><rect width="22.78" height="16" x="132" y="170" fill="#f6f7f7" rx="4"/><path fill="#c3c4c7" d="M143 182.86c.73 0 1.37-.11 1.94-.33a3.03 3.03 0 0 0 1.33-.97c.33-.43.5-.95.5-1.55v-.02c0-.75-.25-1.33-.73-1.74a4.89 4.89 0 0 0-2.12-.93l-1.02-.23a3.26 3.26 0 0 1-1.2-.47.85.85 0 0 1-.36-.7v-.02c0-.2.06-.4.19-.56s.32-.29.57-.39.56-.14.93-.14c.32 0 .62.05.87.15.26.1.47.25.62.44.16.2.26.44.3.72v.02l1.81-.01a2.66 2.66 0 0 0-.5-1.51c-.3-.43-.72-.76-1.26-1a4.66 4.66 0 0 0-1.87-.34c-.68 0-1.3.11-1.83.33-.54.22-.96.54-1.27.95-.31.42-.47.92-.47 1.5 0 .74.24 1.32.71 1.75a4.6 4.6 0 0 0 2.05.93l1.02.23c.62.14 1.05.3 1.29.48s.36.43.36.75v.01c0 .23-.07.43-.2.6-.14.16-.34.3-.6.38-.28.1-.62.13-1.03.13-.39 0-.72-.04-.99-.14s-.48-.25-.63-.44a1.5 1.5 0 0 1-.3-.67h-1.82c.01.6.19 1.1.51 1.52.33.41.77.73 1.32.94.56.22 1.19.33 1.89.33zm-.35 1.11h.79v-11.82h-.79z"/><rect width="50" height="10" x="192" y="214" fill="#b8e6bf" rx="5"/><rect width="50" height="8" x="49" y="215" fill="#dcdcde" rx="2"/><rect width="22.78" height="16" x="132" y="211" fill="#f6f7f7" rx="4"/><path fill="#c3c4c7" d="m145.38 223.86.78-.03c.25-.02.47-.06.65-.1v-1.66a5.65 5.65 0 0 1-1.36.1 4.8 4.8 0 0 1-1.38-.19 2.58 2.58 0 0 1-1.7-1.55 3.67 3.67 0 0 1-.24-1.36c0-.53.08-.98.23-1.37.15-.38.37-.7.66-.96.3-.26.64-.45 1.04-.58s.85-.2 1.35-.2a7.86 7.86 0 0 1 1.37.12v-1.64a7.8 7.8 0 0 0-3.55.14c-.64.2-1.19.5-1.65.9-.47.4-.83.9-1.08 1.5s-.38 1.29-.38 2.08c0 .8.13 1.5.38 2.1s.61 1.1 1.08 1.5c.47.39 1.02.7 1.67.9.64.2 1.35.3 2.13.3zm-6.42-3.44h7.08v-.78h-7.08v.79zm0-1.89h7.08v-.78h-7.08z"/><g clip-path="url(#b)"><path fill="#7f54b3" fill-rule="evenodd" d="M30.74 45.96H63.5a3.73 3.73 0 0 1 2.65 1.1 3.8 3.8 0 0 1 1.1 2.68v12.6a3.8 3.8 0 0 1-2.3 3.5c-.46.19-.95.29-1.45.29H51.75l1.6 3.98-7.09-3.98H30.74A3.76 3.76 0 0 1 27 62.35v-12.6a3.76 3.76 0 0 1 3.74-3.79z" clip-rule="evenodd"/><path fill="#000" fill-rule="evenodd" d="M133.38 51.66a5.77 5.77 0 0 0-1.65 4.24c0 1.84.55 3.33 1.64 4.46a5.69 5.69 0 0 0 4.28 1.7c.59-.01 1.16-.1 1.72-.27v-2.72c-.48.16-.99.24-1.5.26-.88 0-1.58-.3-2.1-.9a3.57 3.57 0 0 1-.8-2.44c0-.96.27-1.75.79-2.36a2.46 2.46 0 0 1 1.97-.93 6 6 0 0 1 1.65.25v-2.74a6.92 6.92 0 0 0-1.8-.22c-1.7 0-3.1.56-4.2 1.67zm-53.9-.12a4.38 4.38 0 0 1 3.58-1.55c1.63 0 2.87.51 3.73 1.55s1.29 2.52 1.29 4.45c0 1.92-.42 3.41-1.27 4.47a4.36 4.36 0 0 1-3.62 1.6c-1.62 0-2.86-.53-3.7-1.6-.86-1.06-1.28-2.6-1.28-4.6 0-1.85.42-3.29 1.28-4.32zm-9.56 4.36c0-1.71.56-3.13 1.66-4.24a5.65 5.65 0 0 1 4.2-1.67c.6 0 1.21.07 1.8.22v2.74a6 6 0 0 0-1.65-.25 2.46 2.46 0 0 0-1.97.93c-.52.61-.78 1.4-.78 2.36 0 1.03.26 1.84.78 2.44.53.6 1.23.9 2.1.9.52-.01 1.03-.1 1.51-.26v2.73a6.6 6.6 0 0 1-1.72.26 5.7 5.7 0 0 1-4.28-1.7 6.14 6.14 0 0 1-1.65-4.46zm14.45 2.85a1.47 1.47 0 0 1-1.31.7 1.32 1.32 0 0 1-1.21-.7c-.28-.48-.42-1.43-.42-2.85 0-2.2.55-3.3 1.66-3.3 1.16 0 1.74 1.11 1.74 3.35 0 1.39-.16 2.32-.46 2.8zm11.3-5.86.6-2.58h3.92l1.53 11.48h-3.01l-.82-7.9-1.87 7.88h-2.06l-1.97-7.9-.78 7.9h-2.88l1.44-11.47h3.85c.55 2.48.98 4.6 1.3 6.39l.32-1.78c.14-.69.28-1.36.44-2.02zm14.38-2.58-.6 2.58c-.15.67-.3 1.34-.42 2.02l-.34 1.78a133.5 133.5 0 0 0-1.3-6.39h-3.84l-1.44 11.47h2.88l.78-7.9 1.97 7.9h2.06l1.88-7.87.8 7.89h3.02l-1.53-11.47h-3.92zm12.05 6.94h-2.7v2.08h3.13v2.45h-6.17V50.3h6.15v2.44h-3.1v2.11h2.7v2.39zm9-1.82c.86-1.38.52-3.2-.77-4.18a5.49 5.49 0 0 0-3.4-.94h-3.54v11.47h3.05v-5.23h.05l2.45 5.23h3.22l-2.43-5.18a2.92 2.92 0 0 0 1.37-1.17zm-4.66-2.9v2.72c1.34-.03 2.02-.43 2.02-1.21 0-.54-.16-.92-.47-1.15s-.83-.35-1.55-.37zm16.82 4.71v2.09h3.13v2.45h-6.18V50.3h6.16v2.44h-3.12v2.11h2.71v2.38h-2.7z" clip-rule="evenodd"/><path fill="#fff" d="M29.27 49.17a1.32 1.32 0 0 1 1.02-.51c.82-.06 1.3.34 1.42 1.2.5 3.46 1.05 6.4 1.63 8.82l3.57-6.93c.33-.62.73-.96 1.22-1 .72-.05 1.16.42 1.34 1.4.34 1.94.85 3.84 1.54 5.68.43-4.21 1.14-7.26 2.15-9.13a1.26 1.26 0 0 1 1.07-.74 1.41 1.41 0 0 1 1.03.33c.3.23.47.58.5.96.02.27-.04.55-.17.79-.63 1.2-1.16 3.2-1.57 6-.4 2.7-.55 4.81-.45 6.33.04.38-.03.75-.19 1.1a1.03 1.03 0 0 1-.86.58c-.44.03-.87-.18-1.29-.62-1.51-1.58-2.7-3.94-3.6-7.07a745.16 745.16 0 0 0-2.34 4.8c-.96 1.88-1.78 2.84-2.46 2.89-.44.03-.82-.35-1.14-1.14-.83-2.18-1.72-6.38-2.67-12.62a1.44 1.44 0 0 1 .25-1.12z"/><path fill="#fff" fill-rule="evenodd" d="M61.8 50.07a3.8 3.8 0 0 1 2.62 1.96c.53.91.79 2.03.79 3.34a9.41 9.41 0 0 1-1.27 4.8c-.97 1.7-2.25 2.54-3.83 2.54-.3 0-.6-.03-.89-.1a3.8 3.8 0 0 1-2.6-1.96 6.69 6.69 0 0 1-.8-3.36 9.25 9.25 0 0 1 1.27-4.78c.99-1.7 2.27-2.54 3.83-2.54.3 0 .6.03.89.1zm-.69 9.18a4.59 4.59 0 0 0 1.25-2.52c.08-.4.12-.82.12-1.23 0-.53-.1-1.06-.29-1.55-.24-.65-.56-1.01-.96-1.1-.59-.13-1.15.22-1.7 1.05a5.7 5.7 0 0 0-.98 3.26c0 .53.1 1.05.29 1.54.24.64.56 1 .96 1.1.4.08.84-.1 1.31-.55zm-9.36-9.18a3.8 3.8 0 0 1 2.61 1.96c.53.91.79 2.03.79 3.34a9.4 9.4 0 0 1-1.27 4.8c-.97 1.7-2.25 2.54-3.83 2.54-.3 0-.6-.03-.89-.1a3.8 3.8 0 0 1-2.6-1.96 6.7 6.7 0 0 1-.8-3.36 9.25 9.25 0 0 1 1.27-4.78c.99-1.7 2.27-2.54 3.83-2.54.3 0 .6.03.89.1zm-.7 9.18a4.52 4.52 0 0 0 1.25-2.52c.08-.4.12-.82.12-1.23 0-.53-.1-1.06-.29-1.55-.24-.65-.55-1.01-.95-1.1-.6-.13-1.16.22-1.7 1.05a5.7 5.7 0 0 0-.99 3.26c0 .53.1 1.05.3 1.54.23.65.55 1.01.95 1.1.4.08.84-.1 1.32-.55z" clip-rule="evenodd"/><path fill="#7f54b3" d="M87.43 74.96v-3.41h2.43c2.07 0 3.21-1.4 3.21-3.07s-1.13-3.08-3.2-3.08h-4.48v9.56zm2.15-5.2h-2.15v-2.57h2.15c.8 0 1.42.5 1.42 1.3 0 .78-.62 1.27-1.42 1.27zm10.29 5.2v-4.47c0-2-1.45-2.62-3.04-2.62-1.09 0-2.17.33-3.02 1.09l.72 1.27a2.91 2.91 0 0 1 1.99-.82c.91 0 1.52.46 1.52 1.16v.88c-.46-.55-1.26-.85-2.2-.85-1.1 0-2.39.6-2.39 2.24 0 1.55 1.3 2.29 2.4 2.29.9 0 1.71-.33 2.19-.9v.73zm-3.3-1.06c-.71 0-1.3-.37-1.3-1.03s.59-1.05 1.3-1.05c.6 0 1.17.22 1.47.62v.86c-.3.4-.88.6-1.47.6zm4.72 3.75c.21.07.68.12.89.12 1.18-.03 2.1-.38 2.62-1.68l3.25-8.05h-1.95l-1.82 4.81-1.8-4.81h-1.95l2.8 7-.25.6c-.17.38-.49.5-.96.5-.17 0-.42-.03-.57-.1zm17.84-2.7v-5c0-1.41-.75-2.08-2.03-2.08-1.06 0-1.98.63-2.38 1.24-.24-.77-.9-1.24-1.92-1.24a3.1 3.1 0 0 0-2.26 1.06v-.9h-1.82v6.93h1.82v-4.67c.27-.37.8-.8 1.43-.8.75 0 1.03.45 1.03 1.1v4.37h1.84v-4.67c.25-.37.78-.8 1.43-.8.74 0 1.03.45 1.03 1.1v4.37h1.83zm4.91.18a4.3 4.3 0 0 0 2.85-.96l-.81-1.2a2.9 2.9 0 0 1-1.84.67c-1.17 0-1.86-.7-1.99-1.55h5.14v-.43c0-2.25-1.39-3.8-3.46-3.8a3.53 3.53 0 0 0-3.59 3.63c0 2.22 1.6 3.64 3.7 3.64zm1.6-4.3h-3.4a1.6 1.6 0 0 1 1.69-1.47c1.2 0 1.66.81 1.71 1.47zm9.43 4.13v-4.89c0-1.34-.73-2.2-2.26-2.2-1.12 0-1.98.54-2.43 1.06v-.9h-1.82v6.93h1.82v-4.67c.32-.4.86-.8 1.58-.8.77 0 1.28.33 1.28 1.29v4.18zm3.97.17c.76 0 1.24-.2 1.52-.44l-.39-1.4c-.1.12-.36.22-.63.22-.4 0-.63-.33-.63-.77v-3.11h1.4v-1.6h-1.4v-1.88h-1.82v1.89h-1.15v1.59h1.15v3.6c0 1.24.67 1.9 1.95 1.9zm4.87 0c1.92 0 3-.93 3-2.2 0-2.8-4.1-1.94-4.1-2.96 0-.38.42-.67 1.08-.67.85 0 1.64.37 2.05.8l.73-1.29a4.4 4.4 0 0 0-2.78-.94c-1.83 0-2.83 1.01-2.83 2.17 0 2.73 4.1 1.8 4.1 2.93 0 .43-.38.73-1.17.73-.86 0-1.87-.48-2.39-.96l-.79 1.32a4.7 4.7 0 0 0 3.1 1.07z"/></g></g></svg>
