<svg fill="none" height="140" viewBox="12 18 140 140" width="156" xmlns="http://www.w3.org/2000/svg"><filter id="a" color-interpolation-filters="sRGB" filterUnits="userSpaceOnUse" height="141" width="142" x="14" y="15.4287"><feFlood flood-opacity="0" result="BackgroundImageFix"/><feColorMatrix in="SourceAlpha" result="hardAlpha" type="matrix" values="0 0 0 0 0 0 0 0 0 0 0 0 0 0 0 0 0 0 127 0"/><feOffset/><feGaussianBlur stdDeviation="16"/><feComposite in2="hardAlpha" operator="out"/><feColorMatrix type="matrix" values="0 0 0 0 0 0 0 0 0 0 0 0 0 0 0 0 0 0 0.1 0"/><feBlend in2="BackgroundImageFix" mode="normal" result="effect1_dropShadow_4076_22117"/><feBlend in="SourceGraphic" in2="effect1_dropShadow_4076_22117" mode="normal" result="shape"/></filter><filter id="b" color-interpolation-filters="sRGB" filterUnits="userSpaceOnUse" height="116" width="133" x="0" y=".428711"><feFlood flood-opacity="0" result="BackgroundImageFix"/><feColorMatrix in="SourceAlpha" result="hardAlpha" type="matrix" values="0 0 0 0 0 0 0 0 0 0 0 0 0 0 0 0 0 0 127 0"/><feOffset/><feGaussianBlur stdDeviation="16"/><feComposite in2="hardAlpha" operator="out"/><feColorMatrix type="matrix" values="0 0 0 0 0 0 0 0 0 0 0 0 0 0 0 0 0 0 0.1 0"/><feBlend in2="BackgroundImageFix" mode="normal" result="effect1_dropShadow_4076_22117"/><feBlend in="SourceGraphic" in2="effect1_dropShadow_4076_22117" mode="normal" result="shape"/></filter><mask id="c" height="20" maskUnits="userSpaceOnUse" width="18" x="103" y="102"><path clip-rule="evenodd" d="m121 106.429v13c0 1.104-.896 2-2 2h-14c-1.104 0-2-.896-2-2v-13c0-1.104.896-2 2-2h1v-2h2v2h8v-2h2v2h1c1.104 0 2 .896 2 2zm-10.502 12.001-3.705-3.705 1.415-1.415 2.294 2.294 5.293-5.293 1.415 1.415zm-5.498-10.001h14v11h-14z" fill="#fff" fill-rule="evenodd"/></mask><g filter="url(#a)"><rect fill="#dcdcde" height="77" rx="12" width="78" x="46" y="47.4287"/></g><rect fill="#fff" height="4" rx="2" width="23" x="57" y="97.4287"/><rect fill="#fff" height="4" rx="2" width="17.7727" x="57" y="107.429"/><g filter="url(#b)"><rect fill="#fff" height="52" rx="12" width="69" x="32" y="32.4287"/></g><path d="m44 60.1516c0-1.3194 1.0695-2.3889 2.3889-2.3889 1.3193 0 2.3889 1.0695 2.3889 2.3889v2.3889c0 1.3193-1.0696 2.3889-2.3889 2.3889-1.3194 0-2.3889-1.0696-2.3889-2.3889z" fill="#674399"/><rect fill="#af7dd1" height="10.75" rx="2.38889" width="4.77778" x="53.5557" y="54.1787"/><rect fill="#674399" height="14.3333" rx="2.38889" width="4.77778" x="63.1104" y="50.5947"/><rect fill="#af7dd1" height="17.9167" rx="2.38889" width="4.77778" x="72.667" y="47.0127"/><rect fill="#674399" height="21.5" rx="2.38889" width="4.77778" x="82.2227" y="43.4287"/><g fill="#f6f7f7"><path d="m44 70.9287c0-1.3807 1.1193-2.5 2.5-2.5s2.5 1.1193 2.5 2.5-1.1193 2.5-2.5 2.5-2.5-1.1193-2.5-2.5z"/><rect height="5" rx="2.5" width="5" x="53.5557" y="68.4287"/><rect height="5" rx="2.5" width="5" x="63.1104" y="68.4287"/><rect height="5" rx="2.5" width="5" x="72.667" y="68.4287"/><rect height="5" rx="2.5" width="5" x="82.2227" y="68.4287"/></g><rect fill="#9a69c7" height="40" rx="20" width="40" x="92" y="92.4287"/><g mask="url(#c)"><path d="m100 100.429h24v24h-24z" fill="#fff"/></g></svg>
