<svg fill="none" height="140" viewBox="12 9 140 140" width="140" xmlns="http://www.w3.org/2000/svg"><filter id="a" color-interpolation-filters="sRGB" filterUnits="userSpaceOnUse" height="140" width="140" x="0" y=".428711"><feFlood flood-opacity="0" result="BackgroundImageFix"/><feColorMatrix in="SourceAlpha" result="hardAlpha" type="matrix" values="0 0 0 0 0 0 0 0 0 0 0 0 0 0 0 0 0 0 127 0"/><feOffset/><feGaussianBlur stdDeviation="16"/><feComposite in2="hardAlpha" operator="out"/><feColorMatrix type="matrix" values="0 0 0 0 0 0 0 0 0 0 0 0 0 0 0 0 0 0 0.1 0"/><feBlend in2="BackgroundImageFix" mode="normal" result="effect1_dropShadow_4076_22114"/><feBlend in="SourceGraphic" in2="effect1_dropShadow_4076_22114" mode="normal" result="shape"/></filter><mask id="b" height="21" maskUnits="userSpaceOnUse" width="20" x="102" y="32"><path clip-rule="evenodd" d="m102 42.4287c0-5.523 4.477-10 10-10s10 4.477 10 10-4.477 10-10 10-10-4.477-10-10zm13 5-1 1-2 2c3.239 0 6.029-1.939 7.286-4.714l-.286-.286h-2l-1-1v-2l2-2h1.736c-.302-1.166-.854-2.233-1.606-3.13l-3.13 3.13-1-1v-2l1-1v-1.411c-.927-.377-1.939-.589-3-.589s-2.073.212-3 .589v.411l1 1h2v2l-3 3h-2v2h-2l-1-1c0 4.072 3.06 7.436 7 7.931v-1.931l-2-2v-3h3l1 1v1h2z" fill="#fff" fill-rule="evenodd"/></mask><rect fill="#dcdcde" height="80" rx="12" width="76" x="48" y="42.4287"/><g filter="url(#a)"><rect fill="#fff" height="76" rx="12" width="76" x="32" y="32.4287"/></g><rect fill="#9a69c7" height="40" rx="20" width="40" x="92" y="22.4287"/><g mask="url(#b)"><path d="m100 30.4287h24v24h-24z" fill="#fff"/></g><rect fill="#f7edf7" height="13" rx="2" width="19" x="41" y="42.4287"/><path d="m50.251 53.1221h.5615v-.8057c1.3867-.0928 2.3779-.8105 2.3779-2.0264v-.0097c0-1.0694-.6982-1.6065-2.0312-1.9092l-.3467-.0732v-1.6993c.5469.083.9131.3955.9814.918l.0049.0098 1.294-.0049.0049-.0049c-.0489-1.1475-.9327-1.9189-2.2852-2.0215v-.8203h-.5615v.8203c-1.3428.0781-2.2998.8106-2.2998 1.9727v.0097c0 1.0498.6982 1.6211 1.9726 1.9092l.3272.0781v1.753c-.669-.0635-1.0156-.3858-1.0987-.8838v-.0049h-1.3037l-.0048.0049c.039 1.2158 1.0351 1.9092 2.4072 1.9873zm-.9375-5.752v-.0097c0-.3956.3222-.6983.9375-.7666v1.5722c-.6592-.1758-.9375-.4199-.9375-.7959zm2.5146 3.0567v.0097c0 .4395-.3369.7227-1.0156.7862v-1.6309c.7568.1904 1.0156.4102 1.0156.835z" fill="#674399"/><rect fill="#533582" height="4.13793" rx="2.06897" width="16" x="70" y="46.4287"/><rect fill="#f7edf7" height="13" rx="2" width="19" x="41" y="63.4287"/><path d="m47.7852 73.2822h5.415v-1.1767h-3.4766v-.0537c.5225-.3077.791-.7666.791-1.3721 0-.1514-.0146-.293-.0439-.4297h1.9531v-.7227h-2.1728c-.0928-.2685-.1709-.5322-.1709-.8252 0-.6835.5224-1.0693 1.4453-1.0693.5176 0 1.0547.1026 1.3672.2393v-1.128c-.3565-.1513-.9619-.2587-1.5772-.2587-1.6552 0-2.6758.7763-2.6758 2.041 0 .3613.0977.6836.2051 1.0009h-1.0595v.7227h1.2841c.0391.1611.0635.3223.0635.4932 0 .7617-.4883 1.2646-1.3476 1.4355z" fill="#674399"/><rect fill="#533582" height="4" rx="2" width="25" x="70" y="68.4287"/><rect fill="#f7edf7" height="13" rx="2" width="19" x="41" y="84.4287"/><path d="m48.1172 93.1299h1.665v1.1523h1.4356v-1.1523h1.6601v-.5615h-1.6601v-.6983h1.6601v-.5615h-1.3867l2.0996-3.7793h-1.5332l-1.5137 3.0225h-.0634l-1.5186-3.0225h-1.5527l2.0947 3.7793h-1.3867v.5615h1.665v.6983h-1.665z" fill="#674399"/><rect fill="#533582" height="4" rx="2" width="18" x="70" y="89.4287"/></svg>
