<svg fill="none" height="140" viewBox="-2 2 140 140" width="140" xmlns="http://www.w3.org/2000/svg"><filter id="a" color-interpolation-filters="sRGB" filterUnits="userSpaceOnUse" height="148" width="140" x="0" y=".428711"><feFlood flood-opacity="0" result="BackgroundImageFix"/><feColorMatrix in="SourceAlpha" result="hardAlpha" type="matrix" values="0 0 0 0 0 0 0 0 0 0 0 0 0 0 0 0 0 0 127 0"/><feOffset/><feGaussianBlur stdDeviation="16"/><feComposite in2="hardAlpha" operator="out"/><feColorMatrix type="matrix" values="0 0 0 0 0 0 0 0 0 0 0 0 0 0 0 0 0 0 0.1 0"/><feBlend in2="BackgroundImageFix" mode="normal" result="effect1_dropShadow_4076_22111"/><feBlend in="SourceGraphic" in2="effect1_dropShadow_4076_22111" mode="normal" result="shape"/></filter><mask id="b" height="17" maskUnits="userSpaceOnUse" width="20" x="36" y="38"><path clip-rule="evenodd" d="m54 38.4287h-16c-1.105 0-2 .895-2 2v12c0 1.105.895 2 2 2h16c1.105 0 2-.895 2-2v-12c0-1.105-.895-2-2-2zm0 2v2h-16v-2zm-16 6v6h16v-6zm2 2h7v2h-7zm12 0h-3v2h3z" fill="#fff" fill-rule="evenodd"/></mask><mask id="c" height="17" maskUnits="userSpaceOnUse" width="16" x="74" y="48"><path clip-rule="evenodd" d="m88.1243 55.9574c-.1692.7625-.8458 1.305-1.6267 1.305h-8.6633v1.6666h8.3333c.9209 0 1.6667.7459 1.6667 1.6667h-10c-.9208 0-1.6667-.7458-1.6667-1.6667v-1.6666-6.6667-.8333h-1.6666v-1.6667h1.6666c.9209 0 1.6667.7458 1.6667 1.6667v.8333h11.6667zm-8.6232 7.1383c0 .9167-.75 1.6667-1.6666 1.6667-.9167 0-1.6584-.75-1.6584-1.6667s.7417-1.6667 1.6584-1.6667c.9166 0 1.6666.75 1.6666 1.6667zm6.6662-1.6667c-.9167 0-1.6583.75-1.6583 1.6667s.7416 1.6667 1.6583 1.6667 1.6667-.75 1.6667-1.6667-.75-1.6667-1.6667-1.6667z" fill="#fff" fill-rule="evenodd"/></mask><rect fill="#dcdcde" height="76" rx="12" width="76" x="16" y="16.4287"/><g filter="url(#a)"><rect fill="#fff" height="84" rx="12" width="76" x="32" y="32.4287"/></g><rect fill="#9a69c7" height="40" rx="20" width="40" x="26" y="26.4287"/><g mask="url(#b)"><path d="m34 34.4287h24v24h-24z" fill="#fff"/></g><g mask="url(#c)"><path d="m72 46.4287h20v20h-20z" fill="#a7aaad"/></g><rect fill="#674399" height="11.0345" rx="5.51724" width="36.8966" x="45" y="92.4287"/><g fill="#dcdcde"><rect height="4.13793" rx="2.06897" width="48.9989" x="46.001" y="73.4287"/><rect height="4" rx="2" width="49" x="46" y="81.4287"/></g></svg>
