<svg width="64" height="40" viewBox="0 0 64 40" fill="none" xmlns="http://www.w3.org/2000/svg">
<rect width="64" height="40" fill="#EF809F"/>
<path d="M28.33 25.1C28.83 25.58 28.83 26.37 28.35 26.86L28.25 26.96C28.0186 27.1947 27.7038 27.3285 27.3741 27.3323C27.0445 27.336 26.7267 27.2094 26.49 26.98L23.69 24.22C22.92 23.44 22.82 22.49 23.3 21.99L23.4 21.89C23.8 21.47 24.46 21.43 24.91 21.79C25.13 21.95 25.44 21.91 25.62 21.7C25.6993 21.5954 25.7352 21.4643 25.7203 21.334C25.7054 21.2036 25.6408 21.084 25.54 21C25.1238 20.6704 24.6004 20.5063 24.0705 20.5396C23.5406 20.5728 23.0417 20.8009 22.67 21.18L22.57 21.28C21.67 22.21 21.85 23.78 22.97 24.91L25.78 27.71C26.2119 28.126 26.7908 28.3542 27.3903 28.3449C27.9899 28.3355 28.5614 28.0893 28.98 27.66L29.08 27.56C29.4943 27.1299 29.7224 26.5539 29.7149 25.9568C29.7074 25.3597 29.4649 24.7896 29.04 24.37C28.9452 24.2797 28.8188 24.2302 28.688 24.2321C28.5571 24.2339 28.4322 24.287 28.34 24.38C28.2906 24.425 28.2511 24.4798 28.2241 24.5409C28.197 24.6021 28.1831 24.6682 28.1831 24.735C28.1831 24.8018 28.197 24.8679 28.2241 24.9291C28.2511 24.9902 28.2906 25.045 28.34 25.09L28.33 25.1ZM26.66 10.09L27.8 19.49C27.8074 19.5559 27.8279 19.6196 27.8601 19.6775C27.8924 19.7353 27.9358 19.7862 27.988 19.8272C28.0401 19.8681 28.0998 19.8983 28.1637 19.9159C28.2275 19.9336 28.2943 19.9384 28.36 19.93C28.4259 19.9226 28.4896 19.9022 28.5475 19.8699C28.6053 19.8376 28.6562 19.7942 28.6972 19.7421C28.7381 19.69 28.7683 19.6302 28.7859 19.5664C28.8036 19.5025 28.8084 19.4357 28.8 19.37L27.65 9.93001V9.87001C27.45 9.09001 27.93 8.21001 28.58 8.07001C28.7611 8.03159 28.9481 8.02949 29.13 8.06382C29.312 8.09815 29.4853 8.16823 29.64 8.27001C29.7936 8.3716 29.9257 8.5025 30.0287 8.65522C30.1316 8.80795 30.2035 8.97948 30.24 9.16001L32.23 17.66C32.2406 17.7282 32.2652 17.7934 32.3022 17.8516C32.3392 17.9098 32.3878 17.9597 32.4451 17.9982C32.5023 18.0367 32.5669 18.063 32.6348 18.0753C32.7026 18.0876 32.7723 18.0857 32.8395 18.0698C32.9066 18.0539 32.9697 18.0243 33.0248 17.9828C33.0799 17.9413 33.1258 17.8889 33.1597 17.8288C33.1936 17.7687 33.2146 17.7022 33.2216 17.6336C33.2285 17.565 33.2212 17.4957 33.2 17.43L31.22 8.95001C31.1557 8.64137 31.0313 8.34842 30.8537 8.08789C30.6762 7.82736 30.4491 7.60437 30.1854 7.43164C29.9216 7.25891 29.6264 7.13984 29.3167 7.08122C29.0069 7.0226 28.6886 7.02559 28.38 7.09001C27.15 7.35001 26.35 8.79001 26.65 10.09H26.66Z" fill="white"/>
<path d="M37.16 21.13L39.43 9.85997C39.555 9.27265 39.4535 8.65976 39.1456 8.14418C38.8377 7.62861 38.3464 7.24847 37.77 7.07997C37.1323 6.91502 36.4553 7.0084 35.886 7.33983C35.3168 7.67126 34.9013 8.21396 34.73 8.84997L32.23 17.43C32.2116 17.493 32.2058 17.559 32.213 17.6243C32.2201 17.6896 32.24 17.7528 32.2716 17.8104C32.3032 17.868 32.3458 17.9188 32.397 17.9599C32.4482 18.001 32.507 18.0316 32.57 18.05C32.6337 18.0682 32.7004 18.0735 32.7661 18.0658C32.8319 18.058 32.8955 18.0372 32.9532 18.0046C33.0109 17.9721 33.0615 17.9284 33.1022 17.8761C33.1428 17.8238 33.1727 17.7639 33.19 17.7L35.7 9.11997C35.8013 8.74213 36.0461 8.41879 36.3824 8.21891C36.7186 8.01902 37.1197 7.9584 37.5 8.04997C38.17 8.24997 38.59 8.94997 38.44 9.64997L36.18 20.94C36.1654 21.005 36.1639 21.0724 36.1757 21.138C36.1875 21.2036 36.2123 21.2662 36.2486 21.3221C36.2849 21.378 36.3321 21.4261 36.3873 21.4635C36.4425 21.5009 36.5046 21.5269 36.57 21.54C36.85 21.58 37.12 21.4 37.17 21.14L37.16 21.13ZM31.47 32C27.89 32 24.9 29.38 24.9 25.64C24.9 25.5074 24.8473 25.3802 24.7536 25.2864C24.6598 25.1927 24.5326 25.14 24.4 25.14C24.3335 25.1386 24.2674 25.1506 24.2056 25.1751C24.1438 25.1997 24.0875 25.2363 24.04 25.2828C23.9925 25.3294 23.9547 25.385 23.929 25.4463C23.9032 25.5076 23.89 25.5735 23.89 25.64C23.89 29.96 27.36 33.01 31.47 33.01C31.6026 33.01 31.7298 32.9573 31.8236 32.8635C31.9173 32.7698 31.97 32.6426 31.97 32.51C31.97 32.3774 31.9173 32.2502 31.8236 32.1564C31.7298 32.0627 31.6026 32.01 31.47 32.01V32ZM29.7 23.22C29.6234 23.5034 29.4455 23.7489 29.2 23.91L29.1 23.98C28.9628 24.0726 28.8087 24.1373 28.6464 24.1704C28.4842 24.2035 28.3171 24.2042 28.1545 24.1726C27.992 24.1411 27.8373 24.0778 27.6993 23.9864C27.5612 23.895 27.4425 23.7773 27.35 23.64L25.15 20.37C24.55 19.46 24.63 18.51 25.2 18.11L25.3 18.03C26.05 17.6 26.68 17.93 27.32 18.87L29.15 21.61C29.1863 21.6656 29.2334 21.7135 29.2885 21.7507C29.3435 21.788 29.4054 21.8139 29.4706 21.8269C29.5358 21.84 29.6029 21.8399 29.6681 21.8267C29.7332 21.8134 29.7951 21.7874 29.85 21.75C29.9057 21.7136 29.9535 21.6666 29.9908 21.6115C30.028 21.5565 30.0539 21.4945 30.0669 21.4294C30.08 21.3642 30.0799 21.2971 30.0667 21.2319C30.0535 21.1668 30.0274 21.1049 29.99 21.05L28.16 18.31C27.24 16.99 26.13 16.41 24.78 17.18L24.64 17.28C23.56 18.01 23.43 19.6 24.31 20.93L26.51 24.21C26.6767 24.4556 26.8902 24.666 27.1383 24.8291C27.3863 24.9921 27.6641 25.1048 27.9557 25.1605C28.2473 25.2162 28.547 25.2139 28.8377 25.1538C29.1284 25.0936 29.4044 24.9768 29.65 24.81L29.75 24.74C30.1909 24.4389 30.5128 23.9932 30.66 23.48C30.6937 23.3527 30.6759 23.2172 30.6104 23.103C30.5448 22.9888 30.4369 22.9051 30.31 22.87C30.1841 22.8392 30.0512 22.8585 29.9393 22.9238C29.8274 22.9891 29.7452 23.0953 29.71 23.22H29.7Z" fill="white"/>
<path d="M33.03 24.87C31.98 25.45 31.33 26.54 31.26 28.21C31.256 28.2757 31.2649 28.3415 31.2863 28.4038C31.3078 28.466 31.3413 28.5234 31.385 28.5726C31.4286 28.6218 31.4816 28.662 31.5408 28.6907C31.6 28.7194 31.6643 28.7362 31.73 28.74C31.7957 28.7441 31.8615 28.7351 31.9238 28.7137C31.986 28.6922 32.0434 28.6587 32.0926 28.6151C32.1418 28.5714 32.182 28.5184 32.2107 28.4592C32.2394 28.4 32.2562 28.3357 32.26 28.27C32.34 26.76 32.93 25.95 33.86 25.59C34.36 25.41 34.92 25.37 35.4 25.42L35.52 25.44C36.17 25.56 36.37 24.6 35.72 24.44L31.86 23.58C30.06 23.08 29.78 22.42 30.11 21.3C30.26 20.82 30.55 20.56 31.01 20.46C31.31 20.4 31.63 20.41 31.95 20.46L32.13 20.5L38 21.87L38.11 21.91C38.2228 21.9597 38.3247 22.031 38.41 22.12C38.81 22.54 39.03 23.33 38.91 24.64C38.53 29.2 36.41 32.04 31.36 31.98C31.2274 31.9787 31.0997 32.0301 31.005 32.1229C30.9103 32.2157 30.8563 32.3424 30.855 32.475C30.8537 32.6076 30.9051 32.7353 30.9979 32.83C31.0908 32.9247 31.2174 32.9787 31.35 32.98C37.01 33.03 39.49 29.74 39.91 24.71C40.04 23.15 39.75 22.07 39.15 21.43C38.9008 21.1423 38.5632 20.9453 38.19 20.87L32.39 19.52C32.35 19.52 32.25 19.48 32.12 19.47C31.6773 19.3864 31.2228 19.3864 30.78 19.47C30.3918 19.5457 30.0329 19.7294 29.7445 20.0001C29.4561 20.2708 29.2501 20.6174 29.15 21C28.67 22.61 29.18 23.88 31.62 24.54L33.02 24.87H33.03Z" fill="white"/>
</svg>
